<?xml version="1.0" encoding="utf-8"?>
<!-- Generator: Adobe Illustrator 25.4.8, SVG Export Plug-In . SVG Version: 6.00 Build 0)  -->
<svg version="1.1" id="圖層_1" xmlns="http://www.w3.org/2000/svg" xmlns:xlink="http://www.w3.org/1999/xlink" x="0px" y="0px"
	 viewBox="0 0 500 389.3" style="enable-background:new 0 0 500 389.3;" xml:space="preserve">
<style type="text/css">
	.st0{fill:#231815;}
	.st1{fill:none;stroke:#D83712;stroke-width:4;stroke-linecap:round;stroke-linejoin:round;stroke-miterlimit:10;}
	.st2{fill:none;stroke:#D3D3D3;stroke-miterlimit:10;}
	.st3{clip-path:url(#SVGID_00000179626263410007438830000004832632328779597975_);fill:#D83712;}
	.st4{fill:none;stroke:#7F7F7F;stroke-width:2;stroke-miterlimit:10;}
	.st5{fill:#FED6AC;}
	.st6{fill:#FF0000;}
	.st7{fill:#707070;}
	.st8{clip-path:url(#SVGID_00000006686647923123325750000011961716352496628394_);fill:#D83712;}
</style>
<g>
	<path class="st0" d="M158.6,23.7c0,3.7,1.6,6.7,3.6,8.4v0.1h-5.6v-17h5.6v0.1C160.2,17,158.6,20,158.6,23.7z"/>
	<path class="st0" d="M181,25.9c-0.1,0.8-0.1,1.4-0.1,2h2v1.9h-2.2c-0.1,0.8-0.3,1.2-0.5,1.5c-0.4,0.6-0.9,0.8-1.5,0.8
		c-0.6,0.1-1.5,0.1-2.4,0c0-0.5-0.2-1.2-0.5-1.6c0.8,0.1,1.5,0.1,1.9,0.1c0.3,0,0.5,0,0.6-0.3c0.1-0.1,0.1-0.3,0.2-0.5h-9.7
		c0.2-1.1,0.4-2.4,0.6-3.8h-2.5V24h2.8c0.1-1.1,0.3-2.2,0.4-3.2c-0.5,0.6-0.9,1.1-1.3,1.5c-0.5-0.3-1.4-1-1.9-1.2
		c1.7-1.4,3.2-3.7,4.1-5.9l2.1,0.6c-0.2,0.4-0.3,0.7-0.5,1.1H183v1.9h-11.5c-0.3,0.5-0.6,0.9-0.9,1.4h10.7c0,0,0,0.7,0,0.9
		c0,1-0.1,2-0.1,2.8h2.6v1.9H181z M171.6,25.8c-0.1,0.7-0.2,1.4-0.3,2h3.9c-0.6-0.5-1.4-1-2.1-1.3l0.7-0.7H171.6z M172.1,22.1
		c-0.1,0.6-0.2,1.3-0.3,2h3.6c-0.6-0.5-1.4-0.9-2.1-1.2l0.7-0.7H172.1z M178.7,27.9c0-0.6,0.1-1.2,0.1-2h-3.7c0.8,0.5,1.6,1,2.1,1.4
		l-0.6,0.6H178.7z M178.9,24.1c0-0.6,0.1-1.2,0.1-2h-3.7c0.8,0.4,1.6,0.9,2.1,1.4l-0.6,0.6H178.9z"/>
	<path class="st0" d="M199.4,29.4c0,1.3-0.3,1.9-1.1,2.3c-0.9,0.4-2.1,0.4-4,0.4c-0.1-0.6-0.6-1.7-0.9-2.3c1.3,0.1,2.8,0.1,3.2,0.1
		c0.4,0,0.6-0.1,0.6-0.5v-2.6h-7.7c-0.5,2-1.4,4-3,5.4c-0.3-0.5-1.2-1.2-1.7-1.5c2.7-2.3,3-5.8,3-8.5v-5.9h11.7V29.4z M197.1,24.6
		v-2.2h-7.2c0,0.7-0.1,1.4-0.1,2.2H197.1z M189.9,18.2v2.2h7.2v-2.2H189.9z"/>
	<path class="st0" d="M203,28.8l1.5-1.8c1,0.9,2.2,1.5,3.4,1.5c1.4,0,2.1-0.6,2.1-1.5c0-1-0.8-1.3-2-1.8l-1.8-0.8
		c-1.4-0.6-2.7-1.6-2.7-3.6c0-2.2,1.9-3.9,4.6-3.9c1.5,0,3.1,0.6,4.2,1.7l-1.3,1.7c-0.8-0.7-1.7-1.1-2.8-1.1c-1.2,0-1.9,0.5-1.9,1.4
		c0,1,0.9,1.3,2.1,1.7l1.7,0.7c1.6,0.7,2.7,1.7,2.7,3.6c0,2.2-1.8,4-4.9,4C206.1,30.8,204.3,30.1,203,28.8z"/>
	<path class="st0" d="M215.1,17.2h2.7v13.3h-2.7V17.2z"/>
	<path class="st0" d="M221.1,17.2h4.4c3,0,5.2,1,5.2,4.2c0,3-2.3,4.4-5.1,4.4h-1.8v4.7h-2.7V17.2z M225.3,23.7
		c1.8,0,2.7-0.8,2.7-2.3c0-1.5-1-2.1-2.8-2.1h-1.5v4.4H225.3z"/>
	<path class="st0" d="M235.4,24c-0.7-0.6-2.2-1.5-3.3-1.9l1.1-1.6c1.1,0.4,2.7,1.2,3.4,1.8L235.4,24z M237.3,26.2
		c-1,1.9-2.1,3.9-3.2,5.7l-1.8-1.4c1-1.4,2.3-3.6,3.4-5.7L237.3,26.2z M236,19.2c-0.6-0.7-2.1-1.6-3.2-2.1l1.2-1.6
		c1.1,0.5,2.6,1.3,3.3,2L236,19.2z M238.8,23.9h1.9v1.7c0,2-0.3,4.5-2.7,6.3c-0.3-0.4-1-1.1-1.5-1.4c2-1.5,2.3-3.4,2.3-5V23.9z
		 M247.1,24c-0.2-0.3-0.5-0.7-0.8-1.2c-6.7,0.5-7.7,0.6-8.3,0.8c-0.1-0.4-0.4-1.4-0.7-2c0.5-0.1,0.8-0.5,1.4-1.1
		c0.2-0.2,0.6-0.6,1-1.2h-2.4v-1.9h3.6c0.4-0.7,0.8-1.5,1.2-2.3l2.1,0.8c-0.3,0.5-0.5,1-0.8,1.4h5.1v1.9H246
		c0.9,1.1,2.2,2.6,2.8,3.6L247.1,24z M242.1,19.4c-0.5,0.7-1.1,1.4-1.7,2.1l4.7-0.3c-0.3-0.4-0.6-0.8-0.9-1.1l1.3-0.7H242.1z
		 M241.8,24.1h1.9v7.2h-1.9V24.1z M247.7,30c0.3,0,0.6,0,0.9-0.1c0,0.5,0.1,1.2,0.2,1.6c-0.3,0.1-0.6,0.1-1,0.1h-0.9
		c-1.7,0-2-0.7-2-2.4v-5.3h2v5.3c0,0.6,0,0.8,0.3,0.8H247.7z"/>
	<path class="st0" d="M259.8,16.3c0,3.4,0.5,10,7.1,13.9c-0.5,0.4-1.4,1.3-1.7,1.9c-3.7-2.3-5.6-5.7-6.6-8.9c-1.4,4-3.5,7-6.6,8.9
		c-0.4-0.5-1.4-1.3-2-1.7c3.7-1.9,5.9-5.4,6.9-10.1l1.1,0.2c-0.1-0.7-0.2-1.3-0.3-1.9h-4.1v-2.2H259.8z"/>
	<path class="st0" d="M284.1,16.1v16.1H282v-0.8h-11.2v0.8h-2V16.1H284.1z M282,29.5V18h-2.2c0.6,0.3,1.2,0.7,1.5,1l-0.7,0.8h0.9
		v1.5h-3.2c0.1,1,0.2,1.9,0.3,2.8c0.4-0.7,0.6-1.4,0.8-2.3l1.6,0.3c-0.4,1.6-1.1,3-1.9,4.1c0.2,0.6,0.5,0.9,0.8,1
		c0.2,0.1,0.4-0.6,0.4-1.7c0.3,0.3,1,0.8,1.3,1c-0.3,2.2-1.2,2.9-2.4,2.4c-0.5-0.2-1-0.6-1.4-1.2c-0.6,0.6-1.2,1.1-1.9,1.5
		c-0.2-0.3-0.8-1-1.2-1.3c0.2-0.1,0.4-0.2,0.6-0.4c-1.4,0.2-2.9,0.4-4.1,0.6l-0.2-1.6c1.3-0.1,3.2-0.4,5.1-0.6l0,0.9
		c0.3-0.3,0.6-0.6,0.9-0.9c-0.4-1.3-0.6-2.9-0.8-4.7h-5v-1.5h4.9c0-0.5-0.1-1-0.1-1.5h1.8c0,0.5,0,1,0.1,1.5h1.9
		c-0.4-0.3-0.9-0.7-1.4-1l0.8-0.8h-8.7v11.5H282z M275.9,25.5h-4v-3.4h4V25.5z M274.5,23.2h-1.2v1.2h1.2V23.2z"/>
	<path class="st0" d="M301.8,29.6c0,1.2-0.2,1.8-1,2.1c-0.8,0.3-1.9,0.4-3.5,0.4c-0.1-0.6-0.4-1.6-0.7-2.2c1,0,2.2,0,2.5,0
		c0.3,0,0.4-0.1,0.4-0.4v-3.2c-0.4,0.5-0.9,1.1-1.2,1.6c-1.9-1.1-3.1-2.8-3.9-4.9c-0.8,2.3-2.1,3.9-4.1,5c-0.2-0.3-0.6-0.9-1-1.3
		v5.4h-2.2V19.3h6.4c-0.1-0.5-0.1-0.9-0.1-1.4h-3V16h4.9c0,1.2,0.1,2.2,0.3,3.3h6.1V29.6z M289.4,26.1c1.8-1,2.9-2.6,3.5-4.7h-3.5
		V26.1z M296.2,21.4c0.6,2,1.7,3.5,3.4,4.5v-4.5H296.2z"/>
	<path class="st0" d="M317.5,25.5c1,0.9,2.2,1.6,3.5,2.1c-0.5,0.4-1.1,1.1-1.4,1.7c-1-0.4-1.9-1.1-2.8-1.9v1.3h-3.3v1.2h5.9v1.8
		h-13.7v-1.8h5.7v-1.2h-3.2v-1.1c-0.9,0.8-1.9,1.4-2.9,1.8c-0.3-0.5-0.9-1.2-1.4-1.6c1.3-0.5,2.6-1.3,3.6-2.3h-3.5v-1.7h3.4v-5.4
		H305v-1.7h2.5v-1.4h2.1v1.4h5.6v-1.4h2.2v1.4h2.5v1.7h-2.5v5.4h3.3v1.7H317.5z M316.4,27c-0.5-0.5-0.9-1-1.3-1.5H310
		c-0.4,0.5-0.8,1-1.3,1.5h2.6v-1.1h2.2V27H316.4z M309.7,18.4v0.8h5.6v-0.8H309.7z M309.7,21.4h5.6v-0.8h-5.6V21.4z M309.7,23.7h5.6
		v-0.8h-5.6V23.7z"/>
	<path class="st0" d="M331.6,22.5v1.9h5.7v1.9h-2.8l1.8,0.6c-0.6,1-1.3,2.1-1.9,2.9h3.9v2h-15.6v-2h3.5c-0.3-0.8-0.9-2-1.5-2.9
		l1.4-0.6h-2.6v-1.9h5.7v-1.9h-3.7v-0.9c-0.8,0.4-1.5,0.7-2.3,1c-0.3-0.6-0.9-1.4-1.4-2c3.4-1,6.6-2.8,8.3-5.5l2,0.9
		c-0.2,0.2-0.3,0.5-0.5,0.7c1.8,1.6,4.7,3.1,7.4,3.8c-0.5,0.5-1.2,1.3-1.5,1.9c-0.8-0.3-1.6-0.6-2.4-1v1.1H331.6z M326.6,26.3
		c0.6,0.9,1.3,2.1,1.6,2.9l-1.5,0.6h2.6v-3.5H326.6z M333.6,20.5c-1.1-0.7-2.2-1.5-3.1-2.3c-0.9,0.9-1.9,1.7-2.9,2.3H333.6z
		 M331.6,26.3v3.5h2.3l-1.2-0.5c0.6-0.8,1.2-2.1,1.6-3H331.6z"/>
	<path class="st0" d="M346.1,29.4c-0.4-0.7-1.1-1.7-1.8-2.6c-0.5,1.9-1.3,3.7-2.9,5.1c-0.3-0.5-1-1.2-1.5-1.5c2-1.5,2.6-3.9,2.8-6.2
		h-2.5v-1.9h2.6v-0.3v-2h-2.3V18h2.3v-2.6h2V18h2.3v1.9h-2.3v2v0.3h2.5v1.9h-2.6l0,0.4c0.8,0.8,2.5,2.8,2.9,3.3L346.1,29.4z
		 M354.9,29.9c0.3,0,0.4-0.2,0.4-2.1c0.4,0.3,1.2,0.6,1.8,0.8c-0.2,2.6-0.7,3.2-1.9,3.2h-1.2c-1.6,0-1.9-0.6-1.9-2.4v-3.1h-0.9
		c-0.3,2.6-1.1,4.7-4.3,5.9c-0.2-0.5-0.8-1.2-1.2-1.6c2.6-0.9,3.2-2.4,3.4-4.3h-1.2V15.9h8v10.3H354v3.1c0,0.5,0,0.5,0.3,0.5H354.9z
		 M349.9,18.9h3.9v-1.1h-3.9V18.9z M349.9,21.6h3.9v-1.1h-3.9V21.6z M349.9,24.4h3.9v-1.1h-3.9V24.4z"/>
	<path class="st0" d="M363.2,25.9c-0.2-0.6-0.5-1.4-0.9-2.2v8.3h-1.9v-6.9c-0.4,1.4-0.9,2.6-1.5,3.5c-0.2-0.6-0.7-1.6-1-2.2
		c1-1.4,1.9-3.9,2.4-5.9h-2v-2h2.1v-3.3h1.9v3.3h1.8v2h-1.8v0.3c0.5,0.7,1.9,3,2.2,3.5L363.2,25.9z M370.8,28.3
		c1.4,0.7,3.3,1.6,4.2,2.2l-1.3,1.5c-1-0.7-3-1.8-4.5-2.5l1.1-1.2h-0.6c-0.7,1.8-2.2,3-5.4,3.8c-0.2-0.5-0.7-1.3-1.1-1.7
		c2.3-0.4,3.4-1.1,4.1-2.1h-3.5v-1.8h4.2c0.1-0.3,0.1-0.7,0.1-1h-3.4v-5.9h9v5.9h-3.4c0,0.4-0.1,0.7-0.1,1h4.4v1.8H370.8z
		 M365.8,18.3H364v-1.7h1.8v-1.3h1.9v1.3h1.3v1.7h-1.3v1h-1.9V18.3z M366.7,21.9h4.9v-0.8h-4.9V21.9z M366.7,24.1h4.9v-0.8h-4.9
		V24.1z M370.7,18.3h-1.3v-1.7h1.3v-1.2h1.9v1.2h2.1v1.7h-2.1v1h-1.9V18.3z"/>
	<path class="st0" d="M379.6,32.2L379.6,32.2c2-1.8,3.6-4.8,3.6-8.5c0-3.7-1.6-6.7-3.6-8.4v-0.1h5.6v17H379.6z"/>
</g>
<g>
	
		<text transform="matrix(1 0 0 1 135.1766 546.4054)" class="st0" style="font-family:'SourceHanSansTC-Bold-B5pc-H'; font-size:18px;">【 每月SIP流入國內基金規模 】</text>
	<text transform="matrix(1 0 0 1 416.3882 702.6647)"><tspan x="0" y="0" class="st6" style="font-family:'SourceHanSansTC-Regular-B5pc-H'; font-size:14px;">INR 130bn</tspan><tspan x="-2.8" y="20" class="st6" style="font-family:'SourceHanSansTC-Regular-B5pc-H'; font-size:14px;">(US$1.6bn)</tspan></text>
	<polyline class="st1" points="42.1,829.1 51,827 57.3,829.1 63.1,822.4 69.2,824 75.8,814.8 83.5,812.3 88.8,808.9 95.3,803.8 
		101.2,796.7 107.6,793.7 113.4,790.3 120.8,780 126.1,771.8 133.2,775.6 139.7,760.5 144.9,769.3 150.7,756.7 157.1,750.8 
		164.2,750.8 170.5,748.7 178.5,746.5 182.7,741.5 190.9,741.5 204.9,739 215.8,739 218.2,735.6 226.9,735.6 233.5,738.6 
		239.1,735.6 245.7,735.6 265.2,735.6 267.6,729.7 284,729.7 290.5,728.1 298.8,734.8 306.2,740.7 313.4,745.9 322.7,745.9 
		335.9,745.9 339.3,756.7 346.2,731.4 359.7,753.7 364.7,716.3 371,729.7 388.4,709.1 419.2,670.8 425.8,663.2 435.6,665.3 
		440.6,647.2 445.9,655.2 453.6,647.2 466.3,651 469.5,639.6 479.2,631.2 486.9,626.2 	"/>
	<text transform="matrix(1 0 0 1 2.8308 614.3276)"><tspan x="0" y="0" class="st7" style="font-family:'SourceHanSansTC-Bold-B5pc-H'; font-size:14px;">140</tspan><tspan x="0" y="44" class="st7" style="font-family:'SourceHanSansTC-Bold-B5pc-H'; font-size:14px;">120</tspan><tspan x="0" y="88" class="st7" style="font-family:'SourceHanSansTC-Bold-B5pc-H'; font-size:14px;">100</tspan><tspan x="8.2" y="132" class="st7" style="font-family:'SourceHanSansTC-Bold-B5pc-H'; font-size:14px;">80</tspan><tspan x="8.2" y="176" class="st7" style="font-family:'SourceHanSansTC-Bold-B5pc-H'; font-size:14px;">60</tspan><tspan x="8.2" y="220" class="st7" style="font-family:'SourceHanSansTC-Bold-B5pc-H'; font-size:14px;">40</tspan><tspan x="8.2" y="264" class="st7" style="font-family:'SourceHanSansTC-Bold-B5pc-H'; font-size:14px;">20</tspan></text>
	
		<text transform="matrix(1 0 0 1 3.5269 593.8707)" class="st0" style="font-family:'SourceHanSansTC-Regular-B5pc-H'; font-size:14px;">(10億盧比)</text>
	<line class="st2" x1="33.3" y1="655.2" x2="39.3" y2="655.2"/>
	<line class="st2" x1="33.3" y1="609.2" x2="39.3" y2="609.2"/>
	<line class="st2" x1="33.3" y1="697.7" x2="39.3" y2="697.7"/>
	<line class="st2" x1="33.3" y1="742" x2="39.3" y2="742"/>
	<line class="st2" x1="33.3" y1="785.3" x2="39.3" y2="785.3"/>
	<line class="st2" x1="33.3" y1="827.8" x2="39.3" y2="827.8"/>
	<line class="st2" x1="33.3" y1="873.1" x2="39.3" y2="873.1"/>
	<line class="st2" x1="39.5" y1="880.3" x2="39.5" y2="872.7"/>
	<line class="st2" x1="61.9" y1="880.3" x2="61.9" y2="872.7"/>
	<line class="st2" x1="140.7" y1="880.3" x2="140.7" y2="872.7"/>
	<line class="st2" x1="217.7" y1="880.3" x2="217.7" y2="872.7"/>
	<line class="st2" x1="295.7" y1="880.3" x2="295.7" y2="872.7"/>
	<line class="st2" x1="373.3" y1="880.3" x2="373.3" y2="872.7"/>
	<line class="st2" x1="450" y1="880.3" x2="450" y2="872.7"/>
	<line class="st2" x1="496.4" y1="880.3" x2="496.4" y2="872.7"/>
	<g>
		<defs>
			<polygon id="SVGID_1_" points="457.3,604 498.9,617.4 491.3,637.8 457.5,623.3 			"/>
		</defs>
		<clipPath id="SVGID_00000032641465442679364180000004234633119013428653_">
			<use xlink:href="#SVGID_1_"  style="overflow:visible;"/>
		</clipPath>
		<path style="clip-path:url(#SVGID_00000032641465442679364180000004234633119013428653_);fill:#D83712;" d="M458.2,621.5
			c-0.3-0.4,2.2,0,13.5-1.1c14.2-1.4,21.7-5.4,24.9-3.8c1.5,0.8,1.4,2.1,0.8,4.6c-1.9,7.7-6.8,16.3-8.2,15.8
			c-1.5-0.4,4-6.6-2.7-10.2c-1.9-1-3.9-2.4-13.5-3.3C458.3,622.2,458.4,621.8,458.2,621.5"/>
	</g>
	
		<text transform="matrix(1 0 0 1 2.8608 895.6054)" class="st0" style="font-family:'SourceHanSansTC-Bold-B5pc-H'; font-size:14px;">Dec-16</text>
	
		<text transform="matrix(1 0 0 1 57.2861 895.6054)" class="st0" style="font-family:'SourceHanSansTC-Bold-B5pc-H'; font-size:14px;">Dec-17</text>
	
		<text transform="matrix(1 0 0 1 137.0806 895.6054)" class="st0" style="font-family:'SourceHanSansTC-Bold-B5pc-H'; font-size:14px;">Dec-18</text>
	
		<text transform="matrix(1 0 0 1 215.9082 895.6054)" class="st0" style="font-family:'SourceHanSansTC-Bold-B5pc-H'; font-size:14px;">Dec-19</text>
	
		<text transform="matrix(1 0 0 1 293.4209 895.6054)" class="st0" style="font-family:'SourceHanSansTC-Bold-B5pc-H'; font-size:14px;">Dec-20</text>
	
		<text transform="matrix(1 0 0 1 369.7217 895.6054)" class="st0" style="font-family:'SourceHanSansTC-Bold-B5pc-H'; font-size:14px;">Dec-21</text>
	
		<text transform="matrix(1 0 0 1 445.9976 895.6054)" class="st0" style="font-family:'SourceHanSansTC-Bold-B5pc-H'; font-size:14px;">Dec-22</text>
	<polyline class="st4" points="497.4,872.3 40.4,872.3 40.4,608.2 	"/>
	<g>
		<g>
			<polygon class="st5" points="280.1,718.2 262.8,682.6 321.6,656.1 338.9,691.7 			"/>
			<polygon class="st5" points="378.1,650.7 305.9,633 347.3,718.3 			"/>
		</g>
		
			<text transform="matrix(0.8996 -0.4368 0.4368 0.8996 286.6348 701.3516)" class="st0" style="font-family:'SourceHanSansTC-Bold-B5pc-H'; font-size:18px;">持續成長</text>
	</g>
</g>
<g>
	<path class="st6" d="M417.8,174h1.3v10.3h-1.3V174z"/>
	<path class="st6" d="M421.9,174h1.3l3.7,6.5l1.1,2.1h0.1c-0.1-1-0.2-2.2-0.2-3.3V174h1.2v10.3h-1.3l-3.7-6.5l-1.1-2.1H423
		c0.1,1,0.2,2.1,0.2,3.2v5.4h-1.2V174z"/>
	<path class="st6" d="M432,174h3.2c2.1,0,3.6,0.8,3.6,2.9c0,1.6-0.9,2.5-2.3,2.9l2.6,4.5h-1.5l-2.5-4.4h-1.8v4.4H432V174z
		 M435,178.8c1.6,0,2.5-0.6,2.5-2c0-1.4-0.9-1.8-2.5-1.8h-1.7v3.8H435z"/>
	<path class="st6" d="M443.9,183.2h2.3v-7.4h-1.8V175c0.9-0.2,1.6-0.4,2.1-0.7h1v8.9h2.1v1.1h-5.6V183.2z"/>
	<path class="st6" d="M450.8,183l0.6-0.8c0.6,0.6,1.4,1.2,2.5,1.2c1.2,0,2.1-0.7,2.1-1.8c0-1.2-0.8-2-3.2-2v-1
		c2.1,0,2.8-0.8,2.8-1.9c0-1-0.7-1.6-1.7-1.6c-0.8,0-1.6,0.4-2.1,1l-0.7-0.8c0.8-0.7,1.7-1.2,2.9-1.2c1.7,0,3,0.9,3,2.5
		c0,1.2-0.7,2-1.8,2.4v0.1c1.2,0.3,2.2,1.2,2.2,2.5c0,1.8-1.5,2.8-3.3,2.8C452.5,184.4,451.5,183.7,450.8,183z"/>
	<path class="st6" d="M458.9,179.2c0-3.3,1.2-5.1,3.2-5.1c2,0,3.2,1.8,3.2,5.1c0,3.3-1.2,5.2-3.2,5.2
		C460.1,184.4,458.9,182.6,458.9,179.2z M464,179.2c0-2.9-0.8-4.1-1.9-4.1c-1.2,0-2,1.2-2,4.1c0,2.9,0.8,4.2,2,4.2
		C463.2,183.4,464,182.1,464,179.2z"/>
	<path class="st6" d="M468.4,183.5L468.4,183.5l-0.2,0.8h-1v-11.1h1.3v3.1l0,1.4c0.7-0.6,1.5-1.1,2.4-1.1c2,0,3,1.5,3,3.9
		c0,2.6-1.6,4.1-3.3,4.1C469.9,184.4,469.1,184.1,468.4,183.5z M472.6,180.3c0-1.7-0.6-2.8-2-2.8c-0.6,0-1.3,0.4-2,1.1v4
		c0.7,0.6,1.4,0.8,1.9,0.8C471.6,183.4,472.6,182.2,472.6,180.3z"/>
	<path class="st6" d="M475.9,176.6h1l0.1,1.1h0c0.7-0.7,1.5-1.3,2.5-1.3c1.6,0,2.3,1,2.3,3v4.8h-1.3v-4.6c0-1.4-0.4-2-1.4-2
		c-0.8,0-1.3,0.4-2.1,1.2v5.5h-1.3V176.6z"/>
	<path class="st6" d="M415,199.9c0-2.7,0.8-5,2.1-7.1l0.8,0.4c-1.2,2-1.8,4.4-1.8,6.7c0,2.4,0.6,4.7,1.8,6.7L417,207
		C415.7,204.9,415,202.6,415,199.9z"/>
	<path class="st6" d="M419.8,200v-6h1.3v6.1c0,2.5,1.1,3.3,2.4,3.3c1.4,0,2.5-0.8,2.5-3.3V194h1.2v6c0,3.3-1.6,4.4-3.7,4.4
		C421.4,204.4,419.8,203.3,419.8,200z"/>
	<path class="st6" d="M429,202.9l0.8-0.9c0.7,0.8,1.8,1.3,2.8,1.3c1.3,0,2.2-0.7,2.2-1.7c0-1-0.7-1.4-1.7-1.8l-1.5-0.6
		c-1-0.4-2.1-1.1-2.1-2.6c0-1.6,1.4-2.7,3.2-2.7c1.2,0,2.3,0.5,3,1.3l-0.7,0.8c-0.6-0.6-1.4-1-2.3-1c-1.2,0-1.9,0.6-1.9,1.5
		c0,1,0.9,1.4,1.7,1.7l1.5,0.6c1.2,0.5,2.1,1.2,2.1,2.7c0,1.6-1.3,2.9-3.5,2.9C431.2,204.4,429.9,203.8,429,202.9z"/>
	<path class="st6" d="M440.2,204.4c-1-0.1-2-0.6-2.7-1.2l0.6-0.9c0.7,0.6,1.5,1,2.4,1c1.2,0,1.8-0.6,1.8-1.6c0-2.5-4.4-2-4.4-5
		c0-1.4,0.9-2.4,2.3-2.6v-1.6h0.9v1.6c1,0.1,1.7,0.6,2.2,1.2l-0.7,0.8c-0.6-0.6-1.1-0.9-1.9-0.9c-1,0-1.6,0.6-1.6,1.5
		c0,2.3,4.4,1.7,4.4,5c0,1.5-0.9,2.5-2.4,2.7v1.6h-0.9V204.4z"/>
	<path class="st6" d="M445.7,203.2h2.3v-7.4h-1.8V195c0.9-0.2,1.6-0.4,2.1-0.7h1v8.9h2.1v1.1h-5.6V203.2z"/>
	<path class="st6" d="M453.3,203.5c0-0.6,0.4-1,0.9-1c0.5,0,0.9,0.4,0.9,1c0,0.6-0.4,1-0.9,1C453.7,204.4,453.3,204,453.3,203.5z"/>
	<path class="st6" d="M456.9,199.6c0-4,1.8-5.6,3.8-5.6c1.1,0,1.8,0.4,2.4,1.1l-0.7,0.8c-0.4-0.5-1-0.8-1.6-0.8
		c-1.4,0-2.6,1.1-2.6,4.3c0.6-0.8,1.5-1.2,2.3-1.2c1.7,0,2.8,1,2.8,3.1c0,1.9-1.3,3.2-2.9,3.2C458.4,204.4,456.9,202.8,456.9,199.6z
		 M458.1,200.4c0.2,1.9,0.9,3,2.2,3c1,0,1.8-0.9,1.8-2.2c0-1.3-0.6-2.1-1.8-2.1C459.6,199.1,458.8,199.4,458.1,200.4z"/>
	<path class="st6" d="M466.4,203.5L466.4,203.5l-0.2,0.8h-1v-11.2h1.3v3.1l0,1.4c0.7-0.6,1.5-1.1,2.4-1.1c2,0,3,1.5,3,3.9
		c0,2.6-1.6,4.1-3.3,4.1C467.9,204.4,467.1,204.1,466.4,203.5z M470.5,200.3c0-1.7-0.6-2.8-2-2.8c-0.6,0-1.3,0.4-2,1.1v4
		c0.7,0.6,1.4,0.8,1.9,0.8C469.6,203.4,470.5,202.2,470.5,200.3z"/>
	<path class="st6" d="M473.9,196.6h1l0.1,1.1h0c0.7-0.7,1.5-1.3,2.5-1.3c1.6,0,2.3,1,2.3,3v4.8h-1.3v-4.7c0-1.4-0.4-2-1.4-2
		c-0.8,0-1.3,0.4-2.1,1.2v5.5h-1.3V196.6z"/>
	<path class="st6" d="M481.7,206.6c1.2-2,1.8-4.4,1.8-6.7c0-2.4-0.6-4.7-1.8-6.7l0.8-0.4c1.3,2.1,2.1,4.4,2.1,7.1
		c0,2.8-0.8,5-2.1,7.1L481.7,206.6z"/>
</g>
<polyline class="st1" points="42.1,310.7 51,308.6 57.3,310.7 63.1,303.9 69.2,305.6 75.8,296.4 83.5,293.8 88.8,290.5 95.3,285.4 
	101.2,278.3 107.6,275.3 113.4,271.9 120.8,261.6 126.1,253.4 133.2,257.2 139.7,242 144.9,250.9 150.7,238.3 157.1,232.4 
	164.2,232.4 170.5,230.3 178.5,228.1 182.7,223.1 190.9,223.1 204.9,220.6 215.8,220.6 218.2,217.2 226.9,217.2 233.5,220.2 
	239.1,217.2 245.7,217.2 265.2,217.2 267.6,211.3 284,211.3 290.5,209.6 298.8,216.4 306.2,222.3 313.4,227.5 322.7,227.5 
	335.9,227.5 339.3,238.3 346.2,213 359.7,235.3 364.7,197.8 371,211.3 388.4,190.7 419.2,152.4 425.8,144.8 435.6,146.9 
	440.6,128.8 445.9,136.8 453.6,128.8 466.3,132.6 469.5,121.2 479.2,112.8 486.9,107.7 "/>
<g>
	<path class="st7" d="M4,94.2h2.2v-6.3H4.3v-1.3c1-0.2,1.8-0.5,2.4-0.9h1.5v8.4h1.9v1.7H4V94.2z"/>
	<path class="st7" d="M15.8,93.4h-4.4V92l3.9-6.2h2.5v6h1.2v1.6h-1.2v2.5h-1.9V93.4z M15.8,91.8v-2c0-0.6,0-1.6,0.1-2.2h-0.1
		c-0.3,0.5-0.5,1.1-0.8,1.6l-1.6,2.5H15.8z"/>
	<path class="st7" d="M19.9,90.8c0-3.4,1.4-5.2,3.5-5.2c2.1,0,3.5,1.8,3.5,5.2c0,3.4-1.4,5.3-3.5,5.3C21.3,96.1,19.9,94.2,19.9,90.8
		z M25,90.8c0-2.8-0.7-3.6-1.6-3.6s-1.6,0.8-1.6,3.6c0,2.8,0.7,3.7,1.6,3.7S25,93.6,25,90.8z"/>
	<path class="st7" d="M4,138.2h2.2v-6.3H4.3v-1.3c1-0.2,1.8-0.5,2.4-0.9h1.5v8.4h1.9v1.7H4V138.2z"/>
	<path class="st7" d="M11.7,138.7c2.7-2.6,4.5-4.3,4.5-5.8c0-1-0.6-1.6-1.6-1.6c-0.8,0-1.4,0.5-1.9,1.1l-1.1-1.1
		c1-1,1.9-1.6,3.3-1.6c2,0,3.3,1.2,3.3,3.2c0,1.8-1.6,3.6-3.5,5.5c0.5-0.1,1.2-0.1,1.7-0.1h2.3v1.7h-6.9V138.7z"/>
	<path class="st7" d="M19.9,134.8c0-3.4,1.4-5.2,3.5-5.2c2.1,0,3.5,1.8,3.5,5.2c0,3.4-1.4,5.3-3.5,5.3
		C21.3,140.1,19.9,138.2,19.9,134.8z M25,134.8c0-2.8-0.7-3.6-1.6-3.6s-1.6,0.8-1.6,3.6c0,2.8,0.7,3.7,1.6,3.7S25,137.6,25,134.8z"
		/>
	<path class="st7" d="M4,182.2h2.2v-6.3H4.3v-1.3c1-0.2,1.8-0.5,2.4-0.9h1.5v8.4h1.9v1.7H4V182.2z"/>
	<path class="st7" d="M11.7,178.8c0-3.4,1.4-5.2,3.5-5.2c2.1,0,3.5,1.8,3.5,5.2c0,3.4-1.4,5.3-3.5,5.3
		C13.1,184.1,11.7,182.2,11.7,178.8z M16.8,178.8c0-2.8-0.7-3.6-1.6-3.6c-0.9,0-1.6,0.8-1.6,3.6c0,2.8,0.7,3.7,1.6,3.7
		C16.1,182.5,16.8,181.6,16.8,178.8z"/>
	<path class="st7" d="M19.9,178.8c0-3.4,1.4-5.2,3.5-5.2c2.1,0,3.5,1.8,3.5,5.2c0,3.4-1.4,5.3-3.5,5.3
		C21.3,184.1,19.9,182.2,19.9,178.8z M25,178.8c0-2.8-0.7-3.6-1.6-3.6s-1.6,0.8-1.6,3.6c0,2.8,0.7,3.7,1.6,3.7S25,181.6,25,178.8z"
		/>
	<path class="st7" d="M11.7,225.3c0-1.2,0.8-2,1.8-2.5v-0.1c-0.8-0.6-1.4-1.3-1.4-2.4c0-1.7,1.3-2.7,3.1-2.7c1.8,0,3,1.1,3,2.7
		c0,1-0.7,1.8-1.3,2.3v0.1c0.9,0.5,1.7,1.3,1.7,2.6c0,1.6-1.4,2.8-3.5,2.8C13.2,228.1,11.7,226.9,11.7,225.3z M16.8,225.3
		c0-1-1-1.4-2.3-1.9c-0.5,0.4-1,1.1-1,1.8c0,0.9,0.8,1.5,1.7,1.5C16.1,226.6,16.8,226.2,16.8,225.3z M16.6,220.5
		c0-0.8-0.5-1.4-1.4-1.4c-0.7,0-1.3,0.4-1.3,1.3c0,0.9,0.8,1.4,1.9,1.8C16.3,221.6,16.6,221.1,16.6,220.5z"/>
	<path class="st7" d="M19.9,222.8c0-3.4,1.4-5.2,3.5-5.2c2.1,0,3.5,1.8,3.5,5.2c0,3.4-1.4,5.3-3.5,5.3
		C21.3,228.1,19.9,226.2,19.9,222.8z M25,222.8c0-2.8-0.7-3.6-1.6-3.6s-1.6,0.8-1.6,3.6c0,2.8,0.7,3.7,1.6,3.7S25,225.6,25,222.8z"
		/>
	<path class="st7" d="M11.8,267.1c0-3.9,1.9-5.5,4-5.5c1.3,0,2.2,0.5,2.8,1.2l-1.1,1.2c-0.4-0.4-1-0.7-1.6-0.7
		c-1.2,0-2.2,0.9-2.3,3.5c0.6-0.7,1.5-1.1,2.1-1.1c1.7,0,3,1,3,3.1c0,2.1-1.5,3.4-3.3,3.4C13.5,272.1,11.8,270.6,11.8,267.1z
		 M13.7,268.2c0.2,1.7,0.9,2.4,1.8,2.4c0.8,0,1.4-0.6,1.4-1.8c0-1.1-0.6-1.7-1.5-1.7C14.8,267.1,14.2,267.4,13.7,268.2z"/>
	<path class="st7" d="M19.9,266.8c0-3.4,1.4-5.2,3.5-5.2c2.1,0,3.5,1.8,3.5,5.2c0,3.4-1.4,5.3-3.5,5.3
		C21.3,272.1,19.9,270.2,19.9,266.8z M25,266.8c0-2.8-0.7-3.6-1.6-3.6s-1.6,0.8-1.6,3.6c0,2.8,0.7,3.7,1.6,3.7S25,269.6,25,266.8z"
		/>
	<path class="st7" d="M15.8,313.4h-4.4V312l3.9-6.2h2.5v6h1.2v1.6h-1.2v2.5h-1.9V313.4z M15.8,311.8v-2c0-0.6,0-1.6,0.1-2.2h-0.1
		c-0.3,0.5-0.5,1.1-0.8,1.6l-1.6,2.5H15.8z"/>
	<path class="st7" d="M19.9,310.8c0-3.4,1.4-5.2,3.5-5.2c2.1,0,3.5,1.8,3.5,5.2c0,3.4-1.4,5.3-3.5,5.3
		C21.3,316.1,19.9,314.2,19.9,310.8z M25,310.8c0-2.8-0.7-3.6-1.6-3.6s-1.6,0.8-1.6,3.6c0,2.8,0.7,3.7,1.6,3.7S25,313.6,25,310.8z"
		/>
	<path class="st7" d="M11.7,358.7c2.7-2.6,4.5-4.3,4.5-5.8c0-1-0.6-1.6-1.6-1.6c-0.8,0-1.4,0.5-1.9,1.1l-1.1-1.1
		c1-1,1.9-1.6,3.3-1.6c2,0,3.3,1.2,3.3,3.2c0,1.8-1.6,3.6-3.5,5.5c0.5-0.1,1.2-0.1,1.7-0.1h2.3v1.7h-6.9V358.7z"/>
	<path class="st7" d="M19.9,354.8c0-3.4,1.4-5.2,3.5-5.2c2.1,0,3.5,1.8,3.5,5.2c0,3.4-1.4,5.3-3.5,5.3
		C21.3,360.1,19.9,358.2,19.9,354.8z M25,354.8c0-2.8-0.7-3.6-1.6-3.6s-1.6,0.8-1.6,3.6c0,2.8,0.7,3.7,1.6,3.7S25,357.6,25,354.8z"
		/>
</g>
<g>
	<path class="st0" d="M4.8,71.1c0-2.7,0.8-5,2.1-7.1l0.8,0.4c-1.2,2-1.8,4.4-1.8,6.7c0,2.4,0.6,4.7,1.8,6.7l-0.8,0.4
		C5.6,76.1,4.8,73.8,4.8,71.1z"/>
	<path class="st0" d="M9.5,74.4h2.3V67H10v-0.8c0.9-0.2,1.6-0.4,2.1-0.7h1v8.9h2.1v1.1H9.5V74.4z"/>
	<path class="st0" d="M16.7,70.4c0-3.3,1.2-5.1,3.2-5.1c2,0,3.2,1.8,3.2,5.1c0,3.3-1.2,5.2-3.2,5.2C17.9,75.6,16.7,73.8,16.7,70.4z
		 M21.9,70.4c0-2.9-0.8-4.1-1.9-4.1c-1.2,0-2,1.2-2,4.1c0,2.9,0.8,4.2,2,4.2C21.1,74.6,21.9,73.3,21.9,70.4z"/>
	<path class="st0" d="M28.5,64.1c-0.4,1.1-0.9,2.2-1.5,3.2v9.2h-1v-7.6c-0.4,0.5-0.8,1.1-1.2,1.5c-0.1-0.3-0.4-0.8-0.6-1
		c1.3-1.4,2.5-3.4,3.2-5.6L28.5,64.1z M27.7,75.7c0.4-0.6,0.9-1.6,1.1-2.3l0.8,0.3c-0.3,0.7-0.7,1.7-1.1,2.4L27.7,75.7z M33.6,67.3
		c0.2-0.4,0.4-1,0.6-1.4h-5.6v-0.8h3.5c-0.1-0.4-0.3-0.9-0.5-1.2l1-0.2c0.2,0.4,0.5,1,0.6,1.4h3.6v0.8h-2.5l0.9,0.2
		c-0.2,0.4-0.4,0.8-0.6,1.1h2.6v0.9h-9.3v-0.9h2.5c-0.1-0.3-0.3-0.8-0.5-1.1l0.9-0.2c0.2,0.3,0.5,0.8,0.6,1.1l-0.7,0.2H33.6z
		 M36.1,72.7h-4c0.7,0.4,1.4,1,1.8,1.4l-0.7,0.6c-0.4-0.4-1.3-1.1-2-1.6l0.5-0.4h-2.6v-3.8h7V72.7z M35.1,69.5h-5v0.9h5V69.5z
		 M35.1,71.1h-5V72h5V71.1z M33.9,75.6c0.4,0,0.5-0.1,0.6-1c0.2,0.1,0.6,0.3,0.9,0.3c-0.1,1.2-0.4,1.6-1.3,1.6h-2.3
		c-1.2,0-1.6-0.3-1.6-1.2v-1.8h1v1.8c0,0.3,0.1,0.4,0.7,0.4H33.9z M35.6,73.3c0.6,0.8,1.4,1.8,1.7,2.5l-0.9,0.4
		c-0.3-0.7-1-1.8-1.6-2.5L35.6,73.3z"/>
	<path class="st0" d="M40.6,69.6c0,2-0.2,4.9-1.3,6.8c-0.2-0.2-0.6-0.4-0.9-0.5c1.1-1.8,1.2-4.4,1.2-6.3v-3.6h4.4v-2.3h1v0.9h5v0.8
		h-5v0.7h4.9l0.2,0l0.7,0.2c-0.2,0.7-0.6,1.4-0.8,1.8l-0.9-0.3c0.1-0.2,0.3-0.6,0.4-0.9h-4.5v0.6l3.5-0.2l0,0.6l-3.5,0.2v0.1
		c0,0.4,0.1,0.5,0.6,0.5h3.2c0.4,0,1.1,0,1.4-0.1c0,0.3,0,0.5,0.1,0.7c-0.3,0.1-0.9,0.1-1.4,0.1h-3.4c-1,0-1.3-0.3-1.3-1.1l-2.7,0.2
		l0-0.7l2.8-0.1v-0.7h-3.6V69.6z M51.1,75.5v0.8H40v-0.8h1.2v-1.9h8.7v1.9H51.1z M41.7,69.9h7.7v3.1h-7.7V69.9z M42.2,75.5h1.6v-1.2
		h-1.6V75.5z M42.7,71.1H45v-0.6h-2.4V71.1z M42.7,72.3H45v-0.7h-2.4V72.3z M44.7,74.2v1.2h1.7v-1.2H44.7z M48.4,70.5H46v0.6h2.4
		V70.5z M48.4,71.7H46v0.7h2.4V71.7z M47.3,74.2v1.2h1.7v-1.2H47.3z"/>
	<path class="st0" d="M58.5,73.7c0,0.3,0.1,0.7,0.1,1c-4,1.1-4.5,1.2-4.9,1.5c-0.1-0.3-0.3-0.7-0.5-0.9c0.2-0.2,0.5-0.5,0.5-1.1
		V63.7h1.1V68h3.6v1h-3.6v5.5L58.5,73.7z M63.4,75.2c0.7,0,0.7-0.5,0.8-2.5c0.3,0.2,0.7,0.4,1,0.4c-0.1,2.3-0.4,3.1-1.7,3.1h-2.4
		c-1.4,0-1.7-0.4-1.7-1.9V63.7h1.1V68h3.8v1h-3.8v5.2c0,0.8,0.1,0.9,0.8,0.9H63.4z"/>
	<path class="st0" d="M66.4,77.8c1.2-2,1.8-4.4,1.8-6.7c0-2.4-0.6-4.7-1.8-6.7l0.8-0.4c1.3,2.1,2.1,4.4,2.1,7.1c0,2.8-0.8,5-2.1,7.1
		L66.4,77.8z"/>
</g>
<line class="st2" x1="33.3" y1="136.8" x2="39.3" y2="136.8"/>
<line class="st2" x1="33.3" y1="90.8" x2="39.3" y2="90.8"/>
<line class="st2" x1="33.3" y1="179.2" x2="39.3" y2="179.2"/>
<line class="st2" x1="33.3" y1="223.6" x2="39.3" y2="223.6"/>
<line class="st2" x1="33.3" y1="266.9" x2="39.3" y2="266.9"/>
<line class="st2" x1="33.3" y1="309.4" x2="39.3" y2="309.4"/>
<line class="st2" x1="33.3" y1="354.7" x2="39.3" y2="354.7"/>
<line class="st2" x1="39.5" y1="361.9" x2="39.5" y2="354.3"/>
<line class="st2" x1="61.9" y1="361.9" x2="61.9" y2="354.3"/>
<line class="st2" x1="140.7" y1="361.9" x2="140.7" y2="354.3"/>
<line class="st2" x1="217.7" y1="361.9" x2="217.7" y2="354.3"/>
<line class="st2" x1="295.7" y1="361.9" x2="295.7" y2="354.3"/>
<line class="st2" x1="373.3" y1="361.9" x2="373.3" y2="354.3"/>
<line class="st2" x1="450" y1="361.9" x2="450" y2="354.3"/>
<line class="st2" x1="496.4" y1="361.9" x2="496.4" y2="354.3"/>
<g>
	<defs>
		<polygon id="SVGID_00000163757993762823722750000013562232802889824659_" points="457.3,85.6 498.9,99 491.3,119.4 457.5,104.9 		
			"/>
	</defs>
	<clipPath id="SVGID_00000119107072181387907000000012636541936938709121_">
		<use xlink:href="#SVGID_00000163757993762823722750000013562232802889824659_"  style="overflow:visible;"/>
	</clipPath>
	<path style="clip-path:url(#SVGID_00000119107072181387907000000012636541936938709121_);fill:#D83712;" d="M458.2,103.1
		c-0.3-0.4,2.2,0,13.5-1.1c14.2-1.4,21.7-5.4,24.9-3.8c1.5,0.8,1.4,2.1,0.8,4.6c-1.9,7.7-6.8,16.3-8.2,15.8c-1.5-0.4,4-6.6-2.7-10.2
		c-1.9-1-3.9-2.4-13.5-3.3C458.3,103.8,458.4,103.4,458.2,103.1"/>
</g>
<g>
	<path class="st0" d="M4.6,366.8h2.8c3.2,0,5.1,1.7,5.1,5.2c0,3.5-2,5.2-5,5.2h-3V366.8z M7.3,375.5c1.9,0,3.1-1,3.1-3.6
		c0-2.5-1.2-3.5-3.1-3.5H6.7v7H7.3z"/>
	<path class="st0" d="M14,373.3c0-2.5,1.8-4.1,3.7-4.1c2.2,0,3.3,1.6,3.3,3.7c0,0.4,0,0.8-0.1,1H16c0.2,1.3,1,2,2.2,2
		c0.6,0,1.2-0.2,1.8-0.5l0.7,1.3c-0.8,0.5-1.8,0.9-2.7,0.9C15.7,377.4,14,375.8,14,373.3z M19.1,372.5c0-1.1-0.5-1.7-1.5-1.7
		c-0.8,0-1.6,0.6-1.7,1.7H19.1z"/>
	<path class="st0" d="M22.1,373.3c0-2.6,1.9-4.1,4-4.1c1,0,1.7,0.4,2.3,0.9l-1,1.3c-0.4-0.3-0.8-0.5-1.2-0.5c-1.2,0-2,1-2,2.4
		c0,1.5,0.8,2.4,1.9,2.4c0.6,0,1.1-0.3,1.5-0.6l0.8,1.4c-0.8,0.7-1.7,1-2.6,1C23.8,377.4,22.1,375.9,22.1,373.3z"/>
	<path class="st0" d="M29.1,372.4h3.8v1.5h-3.8V372.4z"/>
	<path class="st0" d="M34.7,375.5h2.2v-6.3H35v-1.3c1-0.2,1.8-0.5,2.4-0.9H39v8.4h1.9v1.7h-6.2V375.5z"/>
	<path class="st0" d="M42.5,372.4c0-3.9,1.9-5.5,4-5.5c1.3,0,2.2,0.5,2.8,1.2l-1.1,1.2c-0.4-0.4-1-0.7-1.6-0.7
		c-1.2,0-2.2,0.9-2.3,3.5c0.6-0.7,1.5-1.1,2.1-1.1c1.7,0,3,1,3,3.1c0,2.1-1.5,3.4-3.3,3.4C44.2,377.4,42.5,375.9,42.5,372.4z
		 M44.4,373.5c0.2,1.7,0.9,2.4,1.8,2.4c0.8,0,1.4-0.6,1.4-1.8c0-1.1-0.6-1.7-1.5-1.7C45.6,372.4,44.9,372.7,44.4,373.5z"/>
</g>
<g>
	<path class="st0" d="M59.1,366.8h2.8c3.2,0,5.1,1.7,5.1,5.2c0,3.5-2,5.2-5,5.2h-3V366.8z M61.8,375.5c1.9,0,3.1-1,3.1-3.6
		c0-2.5-1.2-3.5-3.1-3.5h-0.6v7H61.8z"/>
	<path class="st0" d="M68.4,373.3c0-2.5,1.8-4.1,3.7-4.1c2.2,0,3.3,1.6,3.3,3.7c0,0.4,0,0.8-0.1,1h-4.8c0.2,1.3,1,2,2.2,2
		c0.6,0,1.2-0.2,1.8-0.5l0.7,1.3c-0.8,0.5-1.8,0.9-2.7,0.9C70.1,377.4,68.4,375.8,68.4,373.3z M73.6,372.5c0-1.1-0.5-1.7-1.5-1.7
		c-0.8,0-1.6,0.6-1.7,1.7H73.6z"/>
	<path class="st0" d="M76.5,373.3c0-2.6,1.9-4.1,4-4.1c1,0,1.7,0.4,2.3,0.9l-1,1.3c-0.4-0.3-0.8-0.5-1.2-0.5c-1.2,0-2,1-2,2.4
		c0,1.5,0.8,2.4,1.9,2.4c0.6,0,1.1-0.3,1.5-0.6l0.8,1.4c-0.8,0.7-1.7,1-2.6,1C78.2,377.4,76.5,375.9,76.5,373.3z"/>
	<path class="st0" d="M83.5,372.4h3.8v1.5h-3.8V372.4z"/>
	<path class="st0" d="M89.1,375.5h2.2v-6.3h-1.9v-1.3c1-0.2,1.8-0.5,2.4-0.9h1.5v8.4h1.9v1.7h-6.2V375.5z"/>
	<path class="st0" d="M101.6,368.8h-4.7v-1.7h6.9v1.3c-2.4,2.9-2.7,4.9-2.9,8.8h-2.1C99,373.7,99.7,371.5,101.6,368.8z"/>
</g>
<g>
	<path class="st0" d="M138.8,366.8h2.8c3.2,0,5.1,1.7,5.1,5.2c0,3.5-2,5.2-5,5.2h-3V366.8z M141.6,375.5c1.9,0,3.1-1,3.1-3.6
		c0-2.5-1.2-3.5-3.1-3.5h-0.6v7H141.6z"/>
	<path class="st0" d="M148.2,373.3c0-2.5,1.8-4.1,3.7-4.1c2.2,0,3.3,1.6,3.3,3.7c0,0.4,0,0.8-0.1,1h-4.8c0.2,1.3,1,2,2.2,2
		c0.6,0,1.2-0.2,1.8-0.5l0.7,1.3c-0.8,0.5-1.8,0.9-2.7,0.9C149.9,377.4,148.2,375.8,148.2,373.3z M153.4,372.5
		c0-1.1-0.5-1.7-1.5-1.7c-0.8,0-1.6,0.6-1.7,1.7H153.4z"/>
	<path class="st0" d="M156.3,373.3c0-2.6,1.9-4.1,4-4.1c1,0,1.7,0.4,2.3,0.9l-1,1.3c-0.4-0.3-0.8-0.5-1.2-0.5c-1.2,0-2,1-2,2.4
		c0,1.5,0.8,2.4,1.9,2.4c0.6,0,1.1-0.3,1.5-0.6l0.8,1.4c-0.8,0.7-1.7,1-2.6,1C158,377.4,156.3,375.9,156.3,373.3z"/>
	<path class="st0" d="M163.3,372.4h3.8v1.5h-3.8V372.4z"/>
	<path class="st0" d="M168.9,375.5h2.2v-6.3h-1.9v-1.3c1-0.2,1.8-0.5,2.4-0.9h1.5v8.4h1.9v1.7h-6.2V375.5z"/>
	<path class="st0" d="M176.7,374.6c0-1.2,0.8-2,1.8-2.5V372c-0.8-0.6-1.4-1.3-1.4-2.4c0-1.7,1.3-2.7,3.1-2.7c1.8,0,3,1.1,3,2.7
		c0,1-0.7,1.8-1.3,2.3v0.1c0.9,0.5,1.7,1.3,1.7,2.6c0,1.6-1.4,2.8-3.5,2.8C178.2,377.4,176.7,376.2,176.7,374.6z M181.7,374.5
		c0-1-1-1.4-2.3-1.9c-0.5,0.4-1,1.1-1,1.8c0,0.9,0.8,1.5,1.7,1.5C181.1,375.9,181.7,375.4,181.7,374.5z M181.5,369.8
		c0-0.8-0.5-1.4-1.4-1.4c-0.7,0-1.3,0.4-1.3,1.3c0,0.9,0.8,1.4,1.9,1.8C181.3,370.9,181.5,370.3,181.5,369.8z"/>
</g>
<g>
	<path class="st0" d="M217.7,366.8h2.8c3.2,0,5.1,1.7,5.1,5.2c0,3.5-2,5.2-5,5.2h-3V366.8z M220.4,375.5c1.9,0,3.1-1,3.1-3.6
		c0-2.5-1.2-3.5-3.1-3.5h-0.6v7H220.4z"/>
	<path class="st0" d="M227,373.3c0-2.5,1.8-4.1,3.7-4.1c2.2,0,3.3,1.6,3.3,3.7c0,0.4,0,0.8-0.1,1H229c0.2,1.3,1,2,2.2,2
		c0.6,0,1.2-0.2,1.8-0.5l0.7,1.3c-0.8,0.5-1.8,0.9-2.7,0.9C228.7,377.4,227,375.8,227,373.3z M232.2,372.5c0-1.1-0.5-1.7-1.5-1.7
		c-0.8,0-1.6,0.6-1.7,1.7H232.2z"/>
	<path class="st0" d="M235.1,373.3c0-2.6,1.9-4.1,4-4.1c1,0,1.7,0.4,2.3,0.9l-1,1.3c-0.4-0.3-0.8-0.5-1.2-0.5c-1.2,0-2,1-2,2.4
		c0,1.5,0.8,2.4,1.9,2.4c0.6,0,1.1-0.3,1.5-0.6l0.8,1.4c-0.8,0.7-1.7,1-2.6,1C236.8,377.4,235.1,375.9,235.1,373.3z"/>
	<path class="st0" d="M242.1,372.4h3.8v1.5h-3.8V372.4z"/>
	<path class="st0" d="M247.7,375.5h2.2v-6.3h-1.9v-1.3c1-0.2,1.8-0.5,2.4-0.9h1.5v8.4h1.9v1.7h-6.2V375.5z"/>
	<path class="st0" d="M255.6,376.2l1.1-1.2c0.4,0.4,1,0.7,1.6,0.7c1.2,0,2.2-0.9,2.3-3.5c-0.6,0.7-1.5,1.1-2.1,1.1c-1.7,0-3-1-3-3.1
		c0-2.1,1.5-3.3,3.3-3.3c2,0,3.7,1.5,3.7,5c0,3.9-1.9,5.5-4,5.5C257.1,377.4,256.2,376.8,255.6,376.2z M258.8,371.9
		c0.5,0,1.2-0.3,1.7-1.1c-0.2-1.7-0.9-2.3-1.8-2.3c-0.8,0-1.4,0.6-1.4,1.8C257.3,371.4,257.9,371.9,258.8,371.9z"/>
</g>
<g>
	<path class="st0" d="M295.2,366.8h2.8c3.2,0,5.1,1.7,5.1,5.2c0,3.5-2,5.2-5,5.2h-3V366.8z M297.9,375.5c1.9,0,3.1-1,3.1-3.6
		c0-2.5-1.2-3.5-3.1-3.5h-0.6v7H297.9z"/>
	<path class="st0" d="M304.5,373.3c0-2.5,1.8-4.1,3.7-4.1c2.2,0,3.3,1.6,3.3,3.7c0,0.4,0,0.8-0.1,1h-4.8c0.2,1.3,1,2,2.2,2
		c0.6,0,1.2-0.2,1.8-0.5l0.7,1.3c-0.8,0.5-1.8,0.9-2.7,0.9C306.2,377.4,304.5,375.8,304.5,373.3z M309.7,372.5
		c0-1.1-0.5-1.7-1.5-1.7c-0.8,0-1.6,0.6-1.7,1.7H309.7z"/>
	<path class="st0" d="M312.7,373.3c0-2.6,1.9-4.1,4-4.1c1,0,1.7,0.4,2.3,0.9l-1,1.3c-0.4-0.3-0.8-0.5-1.2-0.5c-1.2,0-2,1-2,2.4
		c0,1.5,0.8,2.4,1.9,2.4c0.6,0,1.1-0.3,1.5-0.6l0.8,1.4c-0.8,0.7-1.7,1-2.6,1C314.3,377.4,312.7,375.9,312.7,373.3z"/>
	<path class="st0" d="M319.6,372.4h3.8v1.5h-3.8V372.4z"/>
	<path class="st0" d="M324.7,376c2.7-2.6,4.5-4.3,4.5-5.8c0-1-0.6-1.6-1.6-1.6c-0.8,0-1.4,0.5-1.9,1.1l-1.1-1.1c1-1,1.9-1.6,3.3-1.6
		c2,0,3.3,1.2,3.3,3.2c0,1.8-1.6,3.6-3.5,5.5c0.5-0.1,1.2-0.1,1.7-0.1h2.3v1.7h-6.9V376z"/>
	<path class="st0" d="M333,372.1c0-3.4,1.4-5.2,3.5-5.2c2.1,0,3.5,1.8,3.5,5.2c0,3.4-1.4,5.3-3.5,5.3
		C334.4,377.4,333,375.5,333,372.1z M338,372.1c0-2.8-0.7-3.6-1.6-3.6s-1.6,0.8-1.6,3.6c0,2.8,0.7,3.7,1.6,3.7S338,374.9,338,372.1z
		"/>
</g>
<g>
	<path class="st0" d="M371.5,366.8h2.8c3.2,0,5.1,1.7,5.1,5.2c0,3.5-2,5.2-5,5.2h-3V366.8z M374.2,375.5c1.9,0,3.1-1,3.1-3.6
		c0-2.5-1.2-3.5-3.1-3.5h-0.6v7H374.2z"/>
	<path class="st0" d="M380.8,373.3c0-2.5,1.8-4.1,3.7-4.1c2.2,0,3.3,1.6,3.3,3.7c0,0.4,0,0.8-0.1,1h-4.8c0.2,1.3,1,2,2.2,2
		c0.6,0,1.2-0.2,1.8-0.5l0.7,1.3c-0.8,0.5-1.8,0.9-2.7,0.9C382.5,377.4,380.8,375.8,380.8,373.3z M386,372.5c0-1.1-0.5-1.7-1.5-1.7
		c-0.8,0-1.6,0.6-1.7,1.7H386z"/>
	<path class="st0" d="M389,373.3c0-2.6,1.9-4.1,4-4.1c1,0,1.7,0.4,2.3,0.9l-1,1.3c-0.4-0.3-0.8-0.5-1.2-0.5c-1.2,0-2,1-2,2.4
		c0,1.5,0.8,2.4,1.9,2.4c0.6,0,1.1-0.3,1.5-0.6l0.8,1.4c-0.8,0.7-1.7,1-2.6,1C390.6,377.4,389,375.9,389,373.3z"/>
	<path class="st0" d="M395.9,372.4h3.8v1.5h-3.8V372.4z"/>
	<path class="st0" d="M401,376c2.7-2.6,4.5-4.3,4.5-5.8c0-1-0.6-1.6-1.6-1.6c-0.8,0-1.4,0.5-1.9,1.1l-1.1-1.1c1-1,1.9-1.6,3.3-1.6
		c2,0,3.3,1.2,3.3,3.2c0,1.8-1.6,3.6-3.5,5.5c0.5-0.1,1.2-0.1,1.7-0.1h2.3v1.7H401V376z"/>
	<path class="st0" d="M409.8,375.5h2.2v-6.3h-1.9v-1.3c1-0.2,1.8-0.5,2.4-0.9h1.5v8.4h1.9v1.7h-6.2V375.5z"/>
</g>
<g>
	<path class="st0" d="M447.8,366.8h2.8c3.2,0,5.1,1.7,5.1,5.2c0,3.5-2,5.2-5,5.2h-3V366.8z M450.5,375.5c1.9,0,3.1-1,3.1-3.6
		c0-2.5-1.2-3.5-3.1-3.5h-0.6v7H450.5z"/>
	<path class="st0" d="M457.1,373.3c0-2.5,1.8-4.1,3.7-4.1c2.2,0,3.3,1.6,3.3,3.7c0,0.4,0,0.8-0.1,1h-4.8c0.2,1.3,1,2,2.2,2
		c0.6,0,1.2-0.2,1.8-0.5l0.7,1.3c-0.8,0.5-1.8,0.9-2.7,0.9C458.8,377.4,457.1,375.8,457.1,373.3z M462.3,372.5
		c0-1.1-0.5-1.7-1.5-1.7c-0.8,0-1.6,0.6-1.7,1.7H462.3z"/>
	<path class="st0" d="M465.2,373.3c0-2.6,1.9-4.1,4-4.1c1,0,1.7,0.4,2.3,0.9l-1,1.3c-0.4-0.3-0.8-0.5-1.2-0.5c-1.2,0-2,1-2,2.4
		c0,1.5,0.8,2.4,1.9,2.4c0.6,0,1.1-0.3,1.5-0.6l0.8,1.4c-0.8,0.7-1.7,1-2.6,1C466.9,377.4,465.2,375.9,465.2,373.3z"/>
	<path class="st0" d="M472.2,372.4h3.8v1.5h-3.8V372.4z"/>
	<path class="st0" d="M477.3,376c2.7-2.6,4.5-4.3,4.5-5.8c0-1-0.6-1.6-1.6-1.6c-0.8,0-1.4,0.5-1.9,1.1l-1.1-1.1c1-1,1.9-1.6,3.3-1.6
		c2,0,3.3,1.2,3.3,3.2c0,1.8-1.6,3.6-3.5,5.5c0.5-0.1,1.2-0.1,1.7-0.1h2.3v1.7h-6.9V376z"/>
	<path class="st0" d="M485.5,376c2.7-2.6,4.5-4.3,4.5-5.8c0-1-0.6-1.6-1.6-1.6c-0.8,0-1.4,0.5-1.9,1.1l-1.1-1.1c1-1,1.9-1.6,3.3-1.6
		c2,0,3.3,1.2,3.3,3.2c0,1.8-1.6,3.6-3.5,5.5c0.5-0.1,1.2-0.1,1.7-0.1h2.3v1.7h-6.9V376z"/>
</g>
<polyline class="st4" points="497.4,353.9 40.4,353.9 40.4,89.8 "/>
<g>
	<g>
		<polygon class="st5" points="280.1,199.8 262.8,164.2 321.6,137.6 338.9,173.3 		"/>
		<polygon class="st5" points="378.1,132.2 305.9,114.6 347.3,199.9 		"/>
	</g>
	<g>
		<path class="st0" d="M289.9,175c-0.4,0.4-0.8,0.8-1.3,1.2l1.9,3.8c0.4,0.9,0.5,1.4,0.2,2c-0.3,0.6-1,1-2,1.5
			c-0.3-0.4-0.9-1.1-1.4-1.5c0.6-0.3,1.2-0.5,1.3-0.7c0.2-0.1,0.2-0.2,0.1-0.4l-1.6-3.3l-1.5,1.3l-1.3-1.6c0.5-0.4,1.2-1,1.9-1.6
			l-1.4-2.8l-1.9,0.9l-0.9-1.8l1.9-0.9l-1.5-3l1.8-0.9l1.5,3l1.3-0.6l0.9,1.8l-1.3,0.6l1.1,2.4l1.1-0.9L289.9,175z M296.6,163.5
			l0.8,1.7l-4,1.9l0.6,1.3l3.3-1.6l0.8,1.7l-8.3,4l-0.8-1.7l3.2-1.6l-0.6-1.3l-4,2l-0.8-1.7l4-2l-0.9-1.8l1.8-0.9l0.9,1.8
			L296.6,163.5z M297.7,170.6l1.8-0.9l0.8,1.7l-1.8,0.9l1.6,3.3c0.5,1,0.5,1.5,0,2.1c-0.4,0.6-1.3,1-2.5,1.6
			c-0.3-0.5-0.9-1.1-1.4-1.5c0.8-0.3,1.6-0.7,1.8-0.9c0.3-0.1,0.3-0.2,0.2-0.4l-1.6-3.3l-6,2.9l-0.8-1.8l6-2.9l-0.5-1.1l1.8-0.9
			L297.7,170.6z M293.2,175c1,0.5,2.4,1.3,3.1,1.8l-1.2,1.7c-0.7-0.6-2.1-1.4-3.1-2L293.2,175z"/>
		<path class="st0" d="M306.9,168.7c-0.1-0.2-0.3-0.5-0.5-0.7c-2.7,1.8-3.1,2.2-3.4,2.5c-0.3-0.3-0.9-1-1.3-1.3
			c0.4-0.3,0.5-0.8,0.7-1.7c0.1-0.3,0.2-1,0.3-1.9c-1.1,0.7-1.4,1-1.6,1.2c-0.2-0.3-0.9-0.9-1.3-1.2c0.3-0.2,0.4-0.7,0.4-1.3
			c0.1-0.6,0.1-2.9-0.2-4.9l1.9-0.1c0.1,1.6,0.1,3.4-0.1,4.9l1-0.6c0-0.9,0-1.8,0-2.7l1.9,0.2c0,2.1-0.3,4.5-0.7,6.5l1.4-0.9
			c-0.3-0.4-0.7-0.8-1-1.1l1.1-1c0.9,0.9,2,2.2,2.5,3L306.9,168.7z M307.8,158.1l-3.9,1.9l-0.6-1.2l3.9-1.9l-0.3-0.7l1.9-0.9
			l0.3,0.7l3.7-1.8l0.6,1.2l-3.7,1.8l0.3,0.5l3.2-1.5l0.6,1.1l-8.3,4l-0.6-1.1l3.3-1.6L307.8,158.1z M304.9,170.6
			c0.6,1.6,1.1,3.3,1.3,4.5c-0.4,0-1.2,0.1-1.6,0.2c-0.1-1.2-0.6-2.8-1.2-4.3L304.9,170.6z M305,162.1l9.3-4.5l1.6,3.3l-9.3,4.5
			L305,162.1z M306.3,169.6c0.8,1.1,1.7,2.5,2.2,3.5l-1.2,0.9c-0.5-1-1.4-2.5-2.1-3.6L306.3,169.6z M307.5,168.5
			c0.7,0.8,1.7,1.8,2.2,2.5l-1,1c-0.5-0.7-1.4-1.8-2.2-2.6L307.5,168.5z M307.6,163.5l1.2-0.6l-0.5-1l-1.2,0.6L307.6,163.5z
			 M315.9,167.5c1.3-0.2,2.6-0.3,3.4-0.3l-0.1,1.7c-1.1,0-2.7,0.1-4.2,0.3l0.1-1.2l-2.4,1.2l1.4,0.5c-1,1.2-2.3,2.6-3.3,3.5
			c-0.3-0.3-0.9-0.7-1.3-1c0.8-0.7,1.8-1.8,2.5-2.7l-2.2,1.1l-2.4-4.9l8.2-4l2.4,4.9L315.9,167.5z M309.8,166.3l4.7-2.3l-0.2-0.5
			l-4.7,2.3L309.8,166.3z M311.3,161.7l-0.5-1l-1.1,0.5l0.5,1L311.3,161.7z M310.4,167.5l4.7-2.3l-0.2-0.5l-4.7,2.3L310.4,167.5z
			 M311,168.7l4.7-2.3l-0.3-0.5l-4.7,2.3L311,168.7z M313.2,159.6l-1,0.5l0.5,1l1-0.5L313.2,159.6z"/>
		<path class="st0" d="M331.4,151.2c0.4,2.4,0.3,4.8-0.1,6.9c1,0.9,1.9,1.4,2.4,1.1c0.4-0.2,0.2-1.1-0.7-3.2
			c0.7,0.2,1.5,0.3,2.2,0.3c1.1,3.1,0.8,4.2-0.7,4.9c-1.1,0.6-2.4,0.2-3.8-0.8c-0.4,1.3-1,2.4-1.7,3.5c-0.5-0.3-1.6-0.7-2.2-0.9
			c0.9-1.3,1.6-2.7,2-4.2c-1.4-1.6-2.9-3.7-4.3-6l-4.7,2.3l0.8,1.7l4-1.9c0,0,0.2,0.5,0.3,0.7c1.6,3.4,2.2,4.9,2.1,5.6
			c-0.1,0.6-0.4,0.9-0.8,1.2c-0.4,0.3-1.1,0.6-1.8,1c-0.3-0.6-0.9-1.2-1.4-1.5c0.6-0.2,1.2-0.5,1.4-0.6c0.2-0.1,0.3-0.2,0.4-0.4
			c0.1-0.3-0.3-1.1-1.2-3.2l-2.1,1c1.1,2.4,2.3,5.7,1.9,8.3c-0.5-0.2-1.7-0.5-2.3-0.5c0.3-2.5-1-5.4-2-7.5l-2.3-4.7l6.6-3.2
			c-0.4-0.8-0.8-1.6-1.2-2.4l2-1c0.4,0.8,0.8,1.6,1.2,2.4l2.5-1.2c-0.8-0.2-1.9-0.3-2.8-0.4l0.6-1.7c1.1,0,2.7,0.2,3.5,0.5l-0.4,1.2
			l1.7-0.8l0.9,1.9l-5,2.4c0.9,1.5,1.9,3,2.8,4.1c0.1-1.4,0.1-2.9-0.2-4.4L331.4,151.2z"/>
		<path class="st0" d="M350.9,147.5c-0.6,1.1-1.3,2.2-2,3.2c1.3,0.1,2.7,0,4.3-0.5c-0.2,0.6-0.4,1.7-0.4,2.3c-4,0.9-7.1,0.1-9.9-2.2
			l-2.3,1.1l1.7,3.4l3.2-2.4c0.2,0.6,0.5,1.4,0.7,1.8c-3.5,2.7-4.2,3.4-4.6,3.8l-0.1,0.1c-0.3-0.4-1.2-1.2-1.7-1.5
			c0.3-0.4,0.5-1,0.2-1.6l-1.3-2.6l-2.4,1.1l-0.8-1.7l2.7-1.3l-3.5-7.2l10.2-5l0.8,1.6l-8.2,4l0.4,0.9l7.8-3.8l0.7,1.5l-7.8,3.8
			l0.4,0.8l7.8-3.8l0.7,1.5l-7.8,3.8l0.4,0.9l9.9-4.8l0.8,1.7l-1.7,0.8L350.9,147.5z M345,149.3c0.7,0.4,1.4,0.8,2.1,1
			c0.6-0.9,1.2-1.9,1.6-2.8L345,149.3z"/>
	</g>
</g>
</svg>
