<?xml version="1.0" encoding="utf-8"?>
<!-- Generator: Adobe Illustrator 25.4.8, SVG Export Plug-In . SVG Version: 6.00 Build 0)  -->
<svg version="1.1" id="圖層_1" xmlns="http://www.w3.org/2000/svg" xmlns:xlink="http://www.w3.org/1999/xlink" x="0px" y="0px"
	 viewBox="0 0 500 388.9" style="enable-background:new 0 0 500 388.9;" xml:space="preserve">
<style type="text/css">
	.st0{fill:none;stroke:#D3D3D3;stroke-miterlimit:10;}
	.st1{fill:#FD8000;}
	.st2{fill:none;stroke:#7F7F7F;stroke-width:2;stroke-miterlimit:10;}
	.st3{fill:#707070;}
	.st4{fill:#231815;}
</style>
<g>
	<line class="st0" x1="50.8" y1="687.8" x2="479.7" y2="687.8"/>
	<line class="st0" x1="50.8" y1="745.6" x2="479.7" y2="745.6"/>
	<line class="st0" x1="50.8" y1="804.7" x2="479.7" y2="804.7"/>
	<line class="st0" x1="50.8" y1="862.5" x2="479.7" y2="862.5"/>
	<line class="st0" x1="50.8" y1="921.6" x2="479.7" y2="921.6"/>
	<rect x="92.2" y="725.4" class="st1" width="141.6" height="254"/>
	<rect x="293.8" y="792.2" class="st1" width="141.6" height="187"/>
	<text transform="matrix(1 0 0 1 15.0254 690.3994)"><tspan x="0" y="0" class="st3" style="font-family:'SourceHanSansTC-Bold-B5pc-H'; font-size:14px;">100</tspan><tspan x="8.2" y="56" class="st3" style="font-family:'SourceHanSansTC-Bold-B5pc-H'; font-size:14px;">80</tspan><tspan x="8.2" y="112" class="st3" style="font-family:'SourceHanSansTC-Bold-B5pc-H'; font-size:14px;">60</tspan><tspan x="8.2" y="168" class="st3" style="font-family:'SourceHanSansTC-Bold-B5pc-H'; font-size:14px;">40</tspan><tspan x="8.2" y="224" class="st3" style="font-family:'SourceHanSansTC-Bold-B5pc-H'; font-size:14px;">20</tspan><tspan x="16.5" y="280" class="st3" style="font-family:'SourceHanSansTC-Bold-B5pc-H'; font-size:14px;">0</tspan></text>
	
		<text transform="matrix(1 0 0 1 133.1821 1008.436)" class="st4" style="font-family:'SourceHanSansTC-Bold-B5pc-H'; font-size:20px;">印度</text>
	<text transform="matrix(1 0 0 1 137.5977 719.0988)"><tspan x="0" y="0" class="st4" style="font-family:'SourceHanSansTC-Regular-B5pc-H'; font-size:36px;">87</tspan><tspan x="40" y="0" class="st4" style="font-family:'SourceHanSansTC-Regular-B5pc-H'; font-size:18px;">%</tspan></text>
	<text transform="matrix(1 0 0 1 348.3726 784.5733)"><tspan x="0" y="0" class="st4" style="font-family:'SourceHanSansTC-Regular-B5pc-H'; font-size:36px;">64</tspan><tspan x="40" y="0" class="st4" style="font-family:'SourceHanSansTC-Regular-B5pc-H'; font-size:18px;">%</tspan></text>
	
		<text transform="matrix(1 0 0 1 347.011 1008.436)" class="st4" style="font-family:'SourceHanSansTC-Bold-B5pc-H'; font-size:20px;">全球</text>
	
		<text transform="matrix(1 0 0 1 171.5969 658.334)" class="st4" style="font-family:'SourceHanSansTC-Bold-B5pc-H'; font-size:18px;">【 全球科技採用率 】</text>
	<polyline class="st2" points="479.7,989.1 479.7,979.4 50.8,979.4 50.8,989.1 	"/>
	<line class="st0" x1="175.3" y1="989.1" x2="175.3" y2="979.4"/>
</g>
<g>
	<line class="st0" x1="49.7" y1="59.4" x2="478.6" y2="59.4"/>
	<line class="st0" x1="49.7" y1="117.2" x2="478.6" y2="117.2"/>
	<line class="st0" x1="49.7" y1="176.3" x2="478.6" y2="176.3"/>
	<line class="st0" x1="49.7" y1="234.1" x2="478.6" y2="234.1"/>
	<line class="st0" x1="49.7" y1="293.3" x2="478.6" y2="293.3"/>
	<rect x="91.1" y="97" class="st1" width="141.6" height="254"/>
	<rect x="292.6" y="163.9" class="st1" width="141.6" height="187"/>
	<g>
		<path class="st3" d="M15,60.4h2.2v-6.3h-1.9v-1.3c1-0.2,1.8-0.5,2.4-0.9h1.5v8.4h1.9V62H15V60.4z"/>
		<path class="st3" d="M22.7,56.9c0-3.4,1.4-5.2,3.5-5.2c2.1,0,3.5,1.8,3.5,5.2c0,3.4-1.4,5.3-3.5,5.3
			C24.1,62.2,22.7,60.4,22.7,56.9z M27.8,56.9c0-2.8-0.7-3.6-1.6-3.6s-1.6,0.8-1.6,3.6c0,2.8,0.7,3.7,1.6,3.7S27.8,59.7,27.8,56.9z"
			/>
		<path class="st3" d="M31,56.9c0-3.4,1.4-5.2,3.5-5.2c2.1,0,3.5,1.8,3.5,5.2c0,3.4-1.4,5.3-3.5,5.3C32.4,62.2,31,60.4,31,56.9z
			 M36.1,56.9c0-2.8-0.7-3.6-1.6-3.6s-1.6,0.8-1.6,3.6c0,2.8,0.7,3.7,1.6,3.7S36.1,59.7,36.1,56.9z"/>
		<path class="st3" d="M22.8,115.5c0-1.2,0.8-2,1.8-2.5v-0.1c-0.8-0.6-1.4-1.3-1.4-2.4c0-1.7,1.3-2.7,3.1-2.7c1.8,0,3,1.1,3,2.7
			c0,1-0.7,1.8-1.3,2.3v0.1c0.9,0.5,1.7,1.3,1.7,2.6c0,1.6-1.4,2.8-3.5,2.8C24.3,118.2,22.8,117.1,22.8,115.5z M27.8,115.4
			c0-1-1-1.4-2.3-1.9c-0.5,0.4-1,1.1-1,1.8c0,0.9,0.8,1.5,1.7,1.5C27.2,116.8,27.8,116.3,27.8,115.4z M27.6,110.6
			c0-0.8-0.5-1.4-1.4-1.4c-0.7,0-1.3,0.4-1.3,1.3c0,0.9,0.8,1.4,1.9,1.8C27.4,111.7,27.6,111.2,27.6,110.6z"/>
		<path class="st3" d="M31,112.9c0-3.4,1.4-5.2,3.5-5.2c2.1,0,3.5,1.8,3.5,5.2c0,3.4-1.4,5.3-3.5,5.3C32.4,118.2,31,116.4,31,112.9z
			 M36.1,112.9c0-2.8-0.7-3.6-1.6-3.6s-1.6,0.8-1.6,3.6c0,2.8,0.7,3.7,1.6,3.7S36.1,115.7,36.1,112.9z"/>
		<path class="st3" d="M22.8,169.3c0-3.9,1.9-5.5,4-5.5c1.3,0,2.2,0.5,2.8,1.2l-1.1,1.2c-0.4-0.4-1-0.7-1.6-0.7
			c-1.2,0-2.2,0.9-2.3,3.5c0.6-0.7,1.5-1.1,2.1-1.1c1.7,0,3,1,3,3.1c0,2.1-1.5,3.4-3.3,3.4C24.6,174.2,22.8,172.7,22.8,169.3z
			 M24.7,170.3c0.2,1.7,0.9,2.4,1.8,2.4c0.8,0,1.4-0.6,1.4-1.8c0-1.1-0.6-1.7-1.5-1.7C25.9,169.2,25.3,169.5,24.7,170.3z"/>
		<path class="st3" d="M31,168.9c0-3.4,1.4-5.2,3.5-5.2c2.1,0,3.5,1.8,3.5,5.2c0,3.4-1.4,5.3-3.5,5.3C32.4,174.2,31,172.4,31,168.9z
			 M36.1,168.9c0-2.8-0.7-3.6-1.6-3.6s-1.6,0.8-1.6,3.6c0,2.8,0.7,3.7,1.6,3.7S36.1,171.7,36.1,168.9z"/>
		<path class="st3" d="M26.8,227.5h-4.4v-1.4l3.9-6.2h2.5v6H30v1.6h-1.2v2.5h-1.9V227.5z M26.8,225.9v-2c0-0.6,0-1.6,0.1-2.2h-0.1
			c-0.3,0.5-0.5,1.1-0.8,1.6l-1.6,2.5H26.8z"/>
		<path class="st3" d="M31,224.9c0-3.4,1.4-5.2,3.5-5.2c2.1,0,3.5,1.8,3.5,5.2c0,3.4-1.4,5.3-3.5,5.3C32.4,230.2,31,228.4,31,224.9z
			 M36.1,224.9c0-2.8-0.7-3.6-1.6-3.6s-1.6,0.8-1.6,3.6c0,2.8,0.7,3.7,1.6,3.7S36.1,227.7,36.1,224.9z"/>
		<path class="st3" d="M22.7,284.8c2.7-2.6,4.5-4.3,4.5-5.8c0-1-0.6-1.6-1.6-1.6c-0.8,0-1.4,0.5-1.9,1.1l-1.1-1.1
			c1-1,1.9-1.6,3.3-1.6c2,0,3.3,1.2,3.3,3.2c0,1.8-1.6,3.6-3.5,5.5c0.5-0.1,1.2-0.1,1.7-0.1h2.3v1.7h-6.9V284.8z"/>
		<path class="st3" d="M31,280.9c0-3.4,1.4-5.2,3.5-5.2c2.1,0,3.5,1.8,3.5,5.2c0,3.4-1.4,5.3-3.5,5.3C32.4,286.2,31,284.4,31,280.9z
			 M36.1,280.9c0-2.8-0.7-3.6-1.6-3.6s-1.6,0.8-1.6,3.6c0,2.8,0.7,3.7,1.6,3.7S36.1,283.7,36.1,280.9z"/>
		<path class="st3" d="M31,336.9c0-3.4,1.4-5.2,3.5-5.2c2.1,0,3.5,1.8,3.5,5.2c0,3.4-1.4,5.3-3.5,5.3C32.4,342.2,31,340.4,31,336.9z
			 M36.1,336.9c0-2.8-0.7-3.6-1.6-3.6s-1.6,0.8-1.6,3.6c0,2.8,0.7,3.7,1.6,3.7S36.1,339.7,36.1,336.9z"/>
	</g>
	<g>
		<path class="st4" d="M136.3,376.5c1.6-0.5,3.3-1,5-1.5l0.3,2.1c-2.8,1-5.8,2-8.1,2.7l-0.5-2.4l0.9-0.2v-11.7
			c2.1-0.5,4.3-1.2,5.8-1.9l1.8,1.9c-1.6,0.6-3.5,1.1-5.3,1.5v2.8h5v2.3h-5V376.5z M150.7,376.2c0,1.1-0.2,1.9-1,2.3
			c-0.8,0.4-1.8,0.5-3.1,0.5c-0.1-0.7-0.5-1.9-0.9-2.5c0.9,0,1.9,0,2.2,0c0.3,0,0.4-0.1,0.4-0.4v-9.3h-3.5v14.9h-2.4v-17.3h8.3
			V376.2z"/>
		<path class="st4" d="M156.7,370.1c0,3.4-0.3,8.4-1.9,11.6c-0.5-0.3-1.6-0.8-2.2-1c1.6-3.1,1.7-7.5,1.7-10.6v-5.3h7.5
			c-0.1-0.5-0.3-0.9-0.5-1.3l2.4-0.5c0.3,0.6,0.6,1.2,0.8,1.9h6.6v2.2h-14.4V370.1z M169.9,375.3c-0.8,1.6-2,2.8-3.5,3.7
			c1.5,0.4,3.2,0.6,5,0.7c-0.5,0.5-1.1,1.5-1.4,2.1c-2.4-0.2-4.6-0.7-6.5-1.5c-1.9,0.7-4.1,1.1-6.3,1.3c-0.2-0.6-0.6-1.5-1-2
			c1.7-0.1,3.3-0.3,4.7-0.7c-0.9-0.6-1.7-1.4-2.4-2.2l0.8-0.3h-2.1v-1.9H168l0.4-0.1L169.9,375.3z M159.8,373.8v-3.1h-2.7v-1.9h2.7
			v-1.3h2.2v1.3h3.6v-1.3h2.4v1.3h2.9v1.9H168v3.1H159.8z M161,376.5c0.7,0.6,1.6,1.2,2.6,1.6c1-0.4,1.9-1,2.6-1.6H161z M162,370.7
			v1.3h3.6v-1.3H162z"/>
	</g>
	<g>
		<path class="st4" d="M138.1,84.2c0-3.3,2.4-5.7,4.9-6.9v-0.1c-1.9-1.3-3.6-3.2-3.6-5.9c0-3.9,3.1-6.6,7.2-6.6
			c4.5,0,7.2,2.8,7.2,6.8c0,2.7-2,5-3.5,6.2v0.2c2.3,1.4,4.5,3.2,4.5,6.6c0,3.9-3.3,6.8-8.3,6.8C141.6,91.2,138.1,88.2,138.1,84.2z
			 M151.6,84.3c0-3.3-3.2-4.5-7-6c-2.1,1.3-3.6,3.2-3.6,5.6c0,2.8,2.3,4.9,5.5,4.9C149.6,88.8,151.6,86.9,151.6,84.3z M151,71.6
			c0-2.5-1.6-4.5-4.5-4.5c-2.4,0-4.2,1.6-4.2,4.1c0,3.1,2.8,4.4,5.9,5.6C150.1,75.2,151,73.5,151,71.6z"/>
		<path class="st4" d="M171,67.9h-12.8v-2.8h16.5v2c-6,7.8-7.3,13.6-7.7,23.6h-3.4C164,81,165.9,74.9,171,67.9z"/>
		<path class="st4" d="M177.1,81.4c0-2.6,1.2-4.1,3-4.1c1.8,0,3,1.5,3,4.1c0,2.7-1.2,4.2-3,4.2C178.3,85.6,177.1,84.1,177.1,81.4z
			 M181.9,81.4c0-2.1-0.7-3.1-1.8-3.1c-1,0-1.7,1-1.7,3.1s0.7,3.2,1.7,3.2C181.1,84.6,181.9,83.5,181.9,81.4z M187.8,77.3h1.1
			L181.6,91h-1.1L187.8,77.3z M186.3,86.8c0-2.6,1.2-4.1,3-4.1c1.8,0,3,1.5,3,4.1c0,2.7-1.2,4.2-3,4.2
			C187.5,91,186.3,89.5,186.3,86.8z M191,86.8c0-2.1-0.7-3.1-1.7-3.1c-1,0-1.7,1-1.7,3.1s0.7,3.2,1.7,3.2
			C190.3,90,191,88.9,191,86.8z"/>
	</g>
	<g>
		<path class="st4" d="M349.2,144.4c0-10.3,4.6-14.3,9.8-14.3c2.7,0,4.7,1.2,6.2,2.7l-1.8,2.1c-1-1.3-2.6-2-4.2-2
			c-3.6,0-6.7,2.8-6.8,10.9c1.7-2,3.9-3.2,6-3.2c4.4,0,7.3,2.7,7.3,7.9c0,4.9-3.5,8.2-7.6,8.2C352.9,156.7,349.2,152.6,349.2,144.4z
			 M352.3,146.4c0.4,5,2.4,7.7,5.7,7.7c2.6,0,4.5-2.3,4.5-5.7c0-3.3-1.6-5.4-4.8-5.4C356.1,143,354.1,143.9,352.3,146.4z"/>
		<path class="st4" d="M379.4,149.1h-11.5V147l11-16.4h3.6v15.9h3.5v2.6h-3.5v7.1h-3.1V149.1z M379.4,146.5V139
			c0-1.3,0.1-3.5,0.2-4.9h-0.1c-0.6,1.2-1.4,2.3-2.1,3.6l-6,8.8H379.4z"/>
		<path class="st4" d="M387.9,146.9c0-2.6,1.2-4.1,3-4.1c1.8,0,3,1.5,3,4.1c0,2.7-1.2,4.2-3,4.2
			C389.1,151.1,387.9,149.6,387.9,146.9z M392.6,146.9c0-2.1-0.7-3.1-1.8-3.1c-1,0-1.7,1-1.7,3.1s0.7,3.2,1.7,3.2
			C391.9,150.1,392.6,149,392.6,146.9z M398.5,142.8h1.1l-7.3,13.7h-1.1L398.5,142.8z M397.1,152.3c0-2.6,1.2-4.1,3-4.1
			c1.8,0,3,1.5,3,4.1c0,2.7-1.2,4.2-3,4.2C398.3,156.4,397.1,154.9,397.1,152.3z M401.8,152.3c0-2.1-0.7-3.1-1.7-3.1
			c-1,0-1.7,1-1.7,3.1s0.7,3.2,1.7,3.2C401.1,155.4,401.8,154.4,401.8,152.3z"/>
	</g>
	<g>
		<path class="st4" d="M357,379.2h7.4v2.1h-17v-2.1h7.1v-2.4h-5.2v-2.1h5.2v-2.3h-4.2v-1.7c-0.9,0.6-1.7,1.1-2.5,1.5
			c-0.3-0.6-0.9-1.4-1.5-1.9c2.2-0.9,4.7-2.6,6.6-4.3h-2.7v-2.2h6.8c1.7,2.5,4.9,5,8.3,6.3c-0.5,0.5-1.2,1.5-1.6,2.2
			c-0.9-0.4-1.7-0.9-2.5-1.4v1.6H357v2.3h5.2v2.1H357V379.2z M360.6,370.3c-1.8-1.3-3.5-2.8-4.8-4.4c-1.3,1.5-3.1,3.1-4.9,4.4H360.6
			z"/>
		<path class="st4" d="M385,370.4c-1,1.4-2.3,2.8-3.3,3.9c0.9,1.7,2,3,3.7,4.2c-0.5,0.4-1.2,1.2-1.5,1.8c-1.7-1.3-2.9-2.6-3.8-4.3
			v3.2c0,1.2-0.2,1.8-0.9,2.2c-0.7,0.4-1.7,0.5-3.2,0.5c-0.1-0.6-0.5-1.7-0.8-2.3c1,0,1.9,0,2.2,0c0.3,0,0.4-0.1,0.4-0.4v-3.3
			c-1.4,1.4-2.8,2.7-4.1,3.9l-1.1-1.7c-2.1,0.7-4.2,1.3-5.9,1.9l-0.5-2.3c0.7-0.2,1.5-0.4,2.4-0.7v-4.8h-2V370h2v-3.5h-2.1v-2.2h6.3
			v2.2h-2v3.5h1.7v2.2H371v4.2l2-0.6l0.2,1.3c1.3-0.9,3.1-2.3,4.7-3.7v-4.8h-4.6v-2.2h4.6v-3.2h2.3v3.2h2.7
			c-0.5-0.6-1.4-1.3-2.1-1.9l1.3-1.2c0.8,0.5,1.9,1.4,2.4,2l-1.1,1.1h1.7v2.2h-4.9v0.8c0.2,1.1,0.4,2.1,0.7,3c0.7-1,1.5-2.1,2-3
			L385,370.4z M375.3,369.4c0.8,1.1,1.6,2.5,1.9,3.5l-1.9,0.9c-0.3-1-1.1-2.5-1.8-3.6L375.3,369.4z"/>
	</g>
	<g>
		<path class="st4" d="M193.8,23.1c0,3.7,1.6,6.7,3.6,8.4v0.1h-5.6v-17h5.6v0.1C195.4,16.4,193.8,19.4,193.8,23.1z"/>
		<path class="st4" d="M211.6,29.2h6.7v1.9h-15.3v-1.9h6.4V27h-4.7v-1.9h4.7v-2.1h-3.8v-1.5c-0.8,0.5-1.5,1-2.3,1.4
			c-0.3-0.5-0.8-1.3-1.3-1.7c2-0.8,4.2-2.3,5.9-3.9h-2.4v-2h6.2c1.5,2.3,4.4,4.5,7.5,5.7c-0.5,0.5-1.1,1.4-1.4,2
			c-0.8-0.4-1.5-0.8-2.3-1.3v1.5h-3.9v2.1h4.7V27h-4.7V29.2z M214.8,21.2c-1.7-1.2-3.2-2.6-4.3-3.9c-1.2,1.4-2.8,2.8-4.4,3.9H214.8z
			"/>
		<path class="st4" d="M236.8,21.3c-0.9,1.2-2.1,2.6-3,3.5c0.8,1.5,1.8,2.7,3.4,3.8c-0.5,0.4-1.1,1-1.3,1.6
			c-1.5-1.2-2.6-2.4-3.4-3.9v2.9c0,1.1-0.2,1.6-0.8,2c-0.6,0.4-1.5,0.4-2.9,0.4c-0.1-0.6-0.4-1.5-0.7-2.1c0.9,0,1.7,0,2,0
			c0.3,0,0.4-0.1,0.4-0.4v-3c-1.3,1.2-2.6,2.5-3.7,3.5l-1-1.5c-1.9,0.6-3.8,1.2-5.3,1.7l-0.5-2c0.6-0.2,1.4-0.4,2.2-0.6v-4.3h-1.8
			v-2h1.8v-3.2h-1.9v-2h5.7v2h-1.8v3.2h1.5v2h-1.5v3.8l1.8-0.6l0.2,1.2c1.2-0.8,2.8-2.1,4.3-3.3v-4.3h-4.1v-2h4.1v-2.9h2.1v2.9h2.4
			c-0.5-0.5-1.2-1.2-1.9-1.7l1.2-1.1c0.8,0.5,1.7,1.2,2.2,1.8l-1,1h1.5v2h-4.4v0.7c0.2,1,0.4,1.9,0.6,2.7c0.7-0.9,1.4-1.9,1.8-2.7
			L236.8,21.3z M228.1,20.4c0.7,1,1.5,2.3,1.7,3.2l-1.7,0.8c-0.3-0.9-1-2.2-1.6-3.2L228.1,20.4z"/>
		<path class="st4" d="M244.1,26.2c-0.2-0.5-0.6-1.3-1.1-2v7.3h-2.1v-6.5c-0.6,1.4-1.3,2.7-2,3.6c-0.2-0.6-0.7-1.5-1-2
			c1-1.2,2-3.1,2.7-4.8h-2.4v-2h2.7v-2c-0.7,0.1-1.4,0.2-2,0.3c-0.1-0.5-0.3-1.2-0.6-1.7c2.1-0.3,4.3-0.9,5.8-1.5l1.2,1.7
			c-0.7,0.3-1.5,0.5-2.3,0.7v2.5h2.4v2H243v0.1c0.5,0.5,2,2.2,2.3,2.6L244.1,26.2z M252.9,27v4.5h-2.1v-4.2l-5.4,0.9l-0.3-2l5.8-1
			V14.7h2.1v10.2l1.8-0.3l0.3,2L252.9,27z M248.4,24.5c-0.6-0.8-1.8-1.9-2.9-2.8l1.4-1.2c1,0.7,2.4,1.8,3,2.6L248.4,24.5z
			 M248.9,19.7c-0.5-0.8-1.7-1.9-2.7-2.7l1.4-1.2c1,0.7,2.2,1.8,2.8,2.6L248.9,19.7z"/>
		<path class="st4" d="M262.4,24.3c-0.6,0.2-1.3,0.4-1.9,0.5v4.3c0,1-0.2,1.5-0.8,1.9c-0.6,0.3-1.5,0.4-2.7,0.4
			c-0.1-0.5-0.3-1.4-0.6-1.9c0.7,0,1.4,0,1.7,0c0.3,0,0.3-0.1,0.3-0.4v-3.7l-1.7,0.4l-0.6-2c0.7-0.1,1.4-0.3,2.3-0.5v-3.2h-2.1v-2
			h2.1v-3.4h2.1v3.4h1.8v2h-1.8v2.7l1.7-0.4L262.4,24.3z M272.4,21.9c-0.7,2.5-1.8,4.5-3.4,6c1.2,0.8,2.6,1.4,4.2,1.8
			c-0.5,0.4-1.1,1.3-1.4,1.9c-1.7-0.5-3.2-1.3-4.5-2.3c-1.4,1-3,1.7-4.8,2.2c-0.2-0.6-0.7-1.5-1.1-1.9c1.6-0.4,3-1,4.3-1.8
			c-1-1.2-1.9-2.6-2.6-4.3l0.5-0.2h-0.9v-1.9h3.5v-2.2h-3.9v-2h3.9v-2.6h2.1v2.6h4v2h-4v2.2h2.2l0.4-0.1L272.4,21.9z M265.3,23.3
			c0.5,1.2,1.2,2.3,2.1,3.2c0.9-0.9,1.7-2,2.3-3.2H265.3z"/>
		<path class="st4" d="M279.8,24.2c-0.6,0.2-1.2,0.4-1.7,0.5v4.6c0,1-0.2,1.5-0.7,1.9c-0.6,0.3-1.3,0.4-2.5,0.4
			c-0.1-0.5-0.3-1.4-0.5-2c0.6,0,1.3,0,1.5,0c0.2,0,0.3-0.1,0.3-0.3v-4c-0.6,0.2-1.2,0.3-1.7,0.5l-0.5-2.1c0.6-0.1,1.4-0.3,2.2-0.5
			v-3.1h-1.9v-2h1.9v-3.4h1.9v3.4h1.6v2h-1.6v2.6l1.5-0.4L279.8,24.2z M287.4,25.5c0.9,1.4,2.4,2.8,3.8,3.5
			c-0.5,0.4-1.1,1.1-1.4,1.6c-1.2-0.8-2.5-2.1-3.4-3.5v4.3h-2V27c-1.1,1.5-2.5,2.9-4,3.7c-0.3-0.5-1-1.3-1.4-1.7
			c1.6-0.7,3.2-2.1,4.2-3.6h-3.1v-1.9h4.2v-1.8h2v1.8h4.3v1.9H287.4z M290.4,16.5c-2.8,0.8-6.6,1.2-9.9,1.4
			c-0.1-0.5-0.3-1.3-0.6-1.7c3.2-0.2,6.9-0.7,9.1-1.4L290.4,16.5z M281.2,22.2c-0.1-0.9-0.6-2.3-1.1-3.5l1.7-0.4
			c0.5,1,1.1,2.4,1.2,3.4L281.2,22.2z M284.3,21.5c0-0.8-0.3-2.2-0.7-3.3l1.8-0.3c0.4,1,0.8,2.4,0.8,3.3L284.3,21.5z M286.8,21.9
			c0.7-1.1,1.6-3,2.1-4.3l2,0.7c-0.8,1.5-1.7,3.2-2.4,4.3L286.8,21.9z"/>
		<path class="st4" d="M307.7,29c0,1.2-0.3,1.7-1,2.1c-0.7,0.4-1.8,0.4-3.5,0.4c-0.1-0.6-0.4-1.5-0.7-2.1c1,0.1,2.2,0,2.5,0
			c0.3,0,0.5-0.1,0.5-0.4v-2.7h-3.8v5h-2.2v-5H296c-0.3,2-1,3.9-2.3,5.3c-0.3-0.4-1.2-1.1-1.7-1.4c2-2.2,2.1-5.4,2.1-7.9v-6.4h13.6
			V29z M299.6,24.3V22h-3.4v0.3c0,0.6,0,1.2-0.1,1.9H299.6z M296.3,18V20h3.4V18H296.3z M305.6,18h-3.8V20h3.8V18z M305.6,24.3V22
			h-3.8v2.2H305.6z"/>
		<path class="st4" d="M321.2,25.4c-0.1-0.3-0.2-0.6-0.3-0.9c-4.3,0.4-5,0.5-5.4,0.7c-0.1-0.3-0.4-1.2-0.6-1.7
			c-1.2,0.6-2.4,1.3-3.5,1.8l-1-1.7c1.1-0.4,2.8-1.1,4.5-1.8l0.4,1.6l-0.3,0.2c0.4-0.1,0.9-0.4,1.5-0.9c0.3-0.2,0.8-0.6,1.4-1.3
			c-1.4,0.1-1.8,0.2-2.1,0.3c-0.1-0.4-0.4-1.2-0.6-1.7c0.3-0.1,0.6-0.3,0.8-0.6c0.2-0.2,0.5-0.7,1-1.3h-6.1v-1.9h6.7
			c-0.2-0.4-0.4-0.7-0.6-1l2.2-0.5c0.4,0.5,0.7,1,1,1.5h6.4v1.9h-7.4c-0.4,0.6-0.8,1.1-1.2,1.6l1.6-0.1c0.4-0.5,0.8-1,1.2-1.5l1.6,1
			c-1.2,1.4-2.7,2.8-4.1,4L320,23c-0.2-0.3-0.4-0.6-0.6-0.9l1.6-0.6c0.3,0.4,0.6,0.8,0.8,1.2l1.2-1c1.2,0.6,2.8,1.6,3.6,2.3
			l-1.5,1.3c-0.6-0.6-1.8-1.4-2.9-2.1c0.3,0.5,0.6,1,0.7,1.5L321.2,25.4z M326.7,28.2h-7.1v3.3h-2.3v-3.3h-7v-2h7V25h2.3v1.2h7.1
			V28.2z M313.5,21.7c-0.5-0.6-1.7-1.5-2.6-2l1.4-1.1c0.9,0.5,2.2,1.3,2.8,1.9L313.5,21.7z M321.9,20.7c0.7-0.6,1.7-1.5,2.3-2.2
			l1.8,1c-0.8,0.8-1.8,1.6-2.5,2.2L321.9,20.7z"/>
		<path class="st4" d="M331.7,31.6L331.7,31.6c2-1.8,3.6-4.8,3.6-8.5c0-3.7-1.6-6.7-3.6-8.4v-0.1h5.6v17H331.7z"/>
	</g>
	<polyline class="st2" points="478.6,360.8 478.6,351 49.7,351 49.7,360.8 	"/>
	<line class="st0" x1="174.1" y1="360.8" x2="174.1" y2="351"/>
</g>
</svg>
