<?xml version="1.0" encoding="utf-8"?>
<!-- Generator: Adobe Illustrator 25.4.8, SVG Export Plug-In . SVG Version: 6.00 Build 0)  -->
<svg version="1.1" id="圖層_1" xmlns="http://www.w3.org/2000/svg" xmlns:xlink="http://www.w3.org/1999/xlink" x="0px" y="0px"
	 viewBox="0 0 500 380.3" style="enable-background:new 0 0 500 380.3;" xml:space="preserve">
<style type="text/css">
	.st0{fill:none;stroke:#D3D3D3;stroke-miterlimit:10;}
	.st1{fill:#FD8000;}
	.st2{fill:none;stroke:#7F7F7F;stroke-width:2;stroke-miterlimit:10;}
	.st3{fill:#D83712;}
	.st4{fill:#231815;}
	.st5{fill:#707070;}
</style>
<text transform="matrix(1 0 0 1 3.1888 880.121)" class="st4" style="font-family:'SourceHanSansTC-Bold-B5pc-H'; font-size:14px;">2017</text>
<text transform="matrix(1 0 0 1 63.068 880.121)" class="st4" style="font-family:'SourceHanSansTC-Bold-B5pc-H'; font-size:14px;">2018</text>
<text transform="matrix(1 0 0 1 145.5197 880.121)" class="st4" style="font-family:'SourceHanSansTC-Bold-B5pc-H'; font-size:14px;">2019</text>
<text transform="matrix(1 0 0 1 229.3933 880.121)" class="st4" style="font-family:'SourceHanSansTC-Bold-B5pc-H'; font-size:14px;">2020</text>
<text transform="matrix(1 0 0 1 311.0027 880.121)" class="st4" style="font-family:'SourceHanSansTC-Bold-B5pc-H'; font-size:14px;">2021</text>
<text transform="matrix(1 0 0 1 391.1825 880.121)" class="st4" style="font-family:'SourceHanSansTC-Bold-B5pc-H'; font-size:14px;">2022</text>
<g>
	
		<text transform="matrix(1 0 0 1 10.7294 513.9929)" class="st4" style="font-family:'SourceHanSansTC-Regular-B5pc-H'; font-size:14px;">(億美元)</text>
	<text transform="matrix(1 0 0 1 37.4559 535.2493)"><tspan x="0" y="0" class="st5" style="font-family:'SourceHanSansTC-Bold-B5pc-H'; font-size:14px;">300</tspan><tspan x="0" y="46" class="st5" style="font-family:'SourceHanSansTC-Bold-B5pc-H'; font-size:14px;">250</tspan><tspan x="0" y="92" class="st5" style="font-family:'SourceHanSansTC-Bold-B5pc-H'; font-size:14px;">200</tspan><tspan x="0" y="138" class="st5" style="font-family:'SourceHanSansTC-Bold-B5pc-H'; font-size:14px;">150</tspan><tspan x="0" y="184" class="st5" style="font-family:'SourceHanSansTC-Bold-B5pc-H'; font-size:14px;">100</tspan><tspan x="8.2" y="230" class="st5" style="font-family:'SourceHanSansTC-Bold-B5pc-H'; font-size:14px;">50</tspan><tspan x="16.5" y="276" class="st5" style="font-family:'SourceHanSansTC-Bold-B5pc-H'; font-size:14px;">0</tspan></text>
</g>
<text transform="matrix(1 0 0 1 161.1899 838.2972)" class="st4" style="font-family:'SourceHanSansTC-Bold-B5pc-H'; font-size:18px;">2014</text>
<text transform="matrix(1 0 0 1 367.9234 838.2972)" class="st4" style="font-family:'SourceHanSansTC-Bold-B5pc-H'; font-size:18px;">2022</text>
<text transform="matrix(1 0 0 1 221.1059 645.2993)" class="st4" style="font-family:'SourceHanSansTC-Bold-B5pc-H'; font-size:18px;">+103%</text>
<text transform="matrix(1 0 0 1 124.2181 484.6206)" class="st4" style="font-family:'SourceHanSansTC-Bold-B5pc-H'; font-size:18px;">【 藥品和醫藥產品的出口額 】</text>
<line class="st0" x1="81.1" y1="532.1" x2="489.1" y2="532.1"/>
<line class="st0" x1="81.1" y1="577.8" x2="489.1" y2="577.8"/>
<line class="st0" x1="81.1" y1="624.1" x2="489.1" y2="624.1"/>
<line class="st0" x1="81.1" y1="669.2" x2="489.1" y2="669.2"/>
<line class="st0" x1="81.1" y1="715" x2="489.1" y2="715"/>
<line class="st0" x1="81.1" y1="760.1" x2="489.1" y2="760.1"/>
<rect x="347.9" y="582.5" class="st1" width="81.9" height="223.6"/>
<rect x="142.7" y="709" class="st1" width="81.9" height="97.1"/>
<line class="st0" x1="285.1" y1="816.6" x2="285.1" y2="806.1"/>
<line class="st0" x1="489.1" y1="816.6" x2="489.1" y2="806.1"/>
<line class="st0" x1="81.1" y1="816.6" x2="81.1" y2="806.1"/>
<line class="st2" x1="489.1" y1="806.9" x2="81.1" y2="806.9"/>
<path class="st3" d="M188.5,675.6c83.6,46.5,121.5-42.1,128-59.6l-5.6-2.3l18-14l3.1,22.6l-5.8-2.4
	C273.3,745,188.5,675.6,188.5,675.6z"/>
<g>
	<g>
		<path class="st4" d="M12,46.5c0-2.7,0.8-5,2.1-7.1l0.8,0.4c-1.2,2-1.8,4.4-1.8,6.7c0,2.4,0.6,4.7,1.8,6.7l-0.8,0.4
			C12.8,51.5,12,49.2,12,46.5z"/>
		<path class="st4" d="M20.2,39.5c-0.4,1.1-0.9,2.2-1.5,3.2v9.2h-1v-7.6c-0.4,0.5-0.8,1.1-1.2,1.5c-0.1-0.3-0.4-0.8-0.6-1
			c1.3-1.4,2.5-3.4,3.2-5.6L20.2,39.5z M19.4,51.1c0.4-0.6,0.9-1.6,1.1-2.3l0.8,0.3c-0.3,0.7-0.7,1.7-1.1,2.4L19.4,51.1z M25.3,42.7
			c0.2-0.4,0.4-1,0.6-1.4h-5.6v-0.8h3.5c-0.1-0.4-0.3-0.9-0.5-1.2l1-0.2c0.2,0.4,0.5,1,0.6,1.4h3.6v0.8H26l0.9,0.2
			c-0.2,0.4-0.4,0.8-0.6,1.1h2.6v0.9h-9.3v-0.9h2.5c-0.1-0.3-0.3-0.8-0.5-1.1l0.9-0.2c0.2,0.3,0.5,0.8,0.6,1.1l-0.7,0.2H25.3z
			 M27.8,48.1h-4c0.7,0.4,1.4,1,1.8,1.4L24.9,50c-0.4-0.4-1.3-1.1-2-1.6l0.5-0.4h-2.6v-3.8h7V48.1z M26.8,44.9h-5v0.9h5V44.9z
			 M26.8,46.5h-5v0.9h5V46.5z M25.6,51c0.4,0,0.5-0.1,0.6-1c0.2,0.1,0.6,0.3,0.9,0.3c-0.1,1.2-0.4,1.6-1.3,1.6h-2.3
			c-1.2,0-1.6-0.3-1.6-1.2v-1.8h1v1.8c0,0.3,0.1,0.4,0.7,0.4H25.6z M27.3,48.7c0.6,0.8,1.4,1.8,1.7,2.5l-0.9,0.4
			c-0.3-0.7-1-1.8-1.6-2.5L27.3,48.7z"/>
		<path class="st4" d="M42.7,45.2v0.9h-5.8c0,0.4-0.1,0.7-0.2,1.1h5.8v0.9h-6c-0.7,1.9-2.2,3.1-5.8,3.7c-0.1-0.3-0.4-0.7-0.5-0.9
			c3.2-0.5,4.6-1.4,5.2-2.8h-4.7v-0.9h5c0.1-0.3,0.1-0.7,0.2-1.1h-5.5v-0.9h5.6v-1.2h-4.4v-0.9h4.4V42h-5.1v-0.9h3
			c-0.2-0.5-0.7-1.1-1.1-1.6l0.9-0.4c0.5,0.5,1,1.3,1.2,1.8l-0.5,0.2H38c0.4-0.6,0.9-1.4,1.2-2l1.1,0.3c-0.3,0.6-0.8,1.2-1.1,1.7h3
			V42H37v1.1h4.5v0.9H37v1.2H42.7z M37,48.3c1.9,0.7,4.4,1.9,5.7,2.8L42.2,52c-1.2-0.9-3.7-2.1-5.7-2.9L37,48.3z"/>
		<path class="st4" d="M55.1,50.7c0.6,0,0.6-0.4,0.7-2.5c0.2,0.2,0.7,0.4,1,0.5c-0.1,2.4-0.4,3-1.6,3h-2c-1.2,0-1.6-0.4-1.6-1.6v-5
			H49c-0.3,3-0.9,5.4-4.2,6.8c-0.1-0.3-0.4-0.6-0.7-0.8c3-1.1,3.5-3.3,3.7-5.9h-3.5v-1h12.3v1h-3.9v5c0,0.5,0.1,0.6,0.7,0.6H55.1z
			 M55.4,41.2h-9.9v-1h9.9V41.2z"/>
		<path class="st4" d="M58.1,53.2c1.2-2,1.8-4.4,1.8-6.7c0-2.4-0.6-4.7-1.8-6.7l0.8-0.4c1.3,2.1,2.1,4.4,2.1,7.1
			c0,2.8-0.8,5-2.1,7.1L58.1,53.2z"/>
	</g>
	<g>
		<path class="st5" d="M37.8,70.9l1-1.3c0.6,0.6,1.4,1.1,2.3,1.1c1.1,0,1.8-0.5,1.8-1.4c0-1-0.6-1.6-2.9-1.6v-1.5
			c1.9,0,2.5-0.6,2.5-1.5c0-0.8-0.5-1.2-1.4-1.2c-0.7,0-1.3,0.4-2,0.9l-1-1.3c0.9-0.8,1.9-1.3,3.1-1.3c2,0,3.4,1,3.4,2.7
			c0,1.1-0.6,1.8-1.7,2.3v0.1c1.2,0.3,2.1,1.2,2.1,2.5c0,1.8-1.7,2.9-3.6,2.9C39.7,72.3,38.5,71.7,37.8,70.9z"/>
		<path class="st5" d="M46.3,67c0-3.4,1.4-5.2,3.5-5.2c2.1,0,3.5,1.8,3.5,5.2c0,3.4-1.4,5.3-3.5,5.3C47.7,72.3,46.3,70.4,46.3,67z
			 M51.4,67c0-2.8-0.7-3.6-1.6-3.6s-1.6,0.8-1.6,3.6c0,2.8,0.7,3.7,1.6,3.7S51.4,69.8,51.4,67z"/>
		<path class="st5" d="M54.6,67c0-3.4,1.4-5.2,3.5-5.2c2.1,0,3.5,1.8,3.5,5.2c0,3.4-1.4,5.3-3.5,5.3C55.9,72.3,54.6,70.4,54.6,67z
			 M59.6,67c0-2.8-0.7-3.6-1.6-3.6s-1.6,0.8-1.6,3.6c0,2.8,0.7,3.7,1.6,3.7S59.6,69.8,59.6,67z"/>
		<path class="st5" d="M38.1,116.9c2.7-2.6,4.5-4.3,4.5-5.8c0-1-0.6-1.6-1.6-1.6c-0.8,0-1.4,0.5-1.9,1.1l-1.1-1.1
			c1-1,1.9-1.6,3.3-1.6c2,0,3.3,1.2,3.3,3.2c0,1.8-1.6,3.6-3.5,5.5c0.5-0.1,1.2-0.1,1.7-0.1H45v1.7h-6.9V116.9z"/>
		<path class="st5" d="M46.1,116.9l1-1.3c0.6,0.6,1.3,1.1,2.3,1.1c1.1,0,1.8-0.6,1.8-1.8c0-1.1-0.7-1.8-1.8-1.8
			c-0.6,0-1,0.2-1.6,0.5l-0.9-0.6l0.3-5h5.5v1.7H49l-0.2,2.2c0.4-0.2,0.8-0.3,1.2-0.3c1.7,0,3.2,1,3.2,3.1c0,2.2-1.7,3.5-3.6,3.5
			C47.9,118.3,46.8,117.7,46.1,116.9z"/>
		<path class="st5" d="M54.6,113c0-3.4,1.4-5.2,3.5-5.2c2.1,0,3.5,1.8,3.5,5.2c0,3.4-1.4,5.3-3.5,5.3
			C55.9,118.3,54.6,116.4,54.6,113z M59.6,113c0-2.8-0.7-3.6-1.6-3.6s-1.6,0.8-1.6,3.6c0,2.8,0.7,3.7,1.6,3.7S59.6,115.8,59.6,113z"
			/>
		<path class="st5" d="M38.1,162.9c2.7-2.6,4.5-4.3,4.5-5.8c0-1-0.6-1.6-1.6-1.6c-0.8,0-1.4,0.5-1.9,1.1l-1.1-1.1
			c1-1,1.9-1.6,3.3-1.6c2,0,3.3,1.2,3.3,3.2c0,1.8-1.6,3.6-3.5,5.5c0.5-0.1,1.2-0.1,1.7-0.1H45v1.7h-6.9V162.9z"/>
		<path class="st5" d="M46.3,159c0-3.4,1.4-5.2,3.5-5.2c2.1,0,3.5,1.8,3.5,5.2c0,3.4-1.4,5.3-3.5,5.3
			C47.7,164.3,46.3,162.4,46.3,159z M51.4,159c0-2.8-0.7-3.6-1.6-3.6s-1.6,0.8-1.6,3.6c0,2.8,0.7,3.7,1.6,3.7S51.4,161.8,51.4,159z"
			/>
		<path class="st5" d="M54.6,159c0-3.4,1.4-5.2,3.5-5.2c2.1,0,3.5,1.8,3.5,5.2c0,3.4-1.4,5.3-3.5,5.3
			C55.9,164.3,54.6,162.4,54.6,159z M59.6,159c0-2.8-0.7-3.6-1.6-3.6s-1.6,0.8-1.6,3.6c0,2.8,0.7,3.7,1.6,3.7S59.6,161.8,59.6,159z"
			/>
		<path class="st5" d="M38.6,208.4h2.2v-6.3H39v-1.3c1-0.2,1.8-0.5,2.4-0.9h1.5v8.4h1.9v1.7h-6.2V208.4z"/>
		<path class="st5" d="M46.1,208.9l1-1.3c0.6,0.6,1.3,1.1,2.3,1.1c1.1,0,1.8-0.6,1.8-1.8c0-1.1-0.7-1.8-1.8-1.8
			c-0.6,0-1,0.2-1.6,0.5l-0.9-0.6l0.3-5h5.5v1.7H49l-0.2,2.2c0.4-0.2,0.8-0.3,1.2-0.3c1.7,0,3.2,1,3.2,3.1c0,2.2-1.7,3.5-3.6,3.5
			C47.9,210.3,46.8,209.7,46.1,208.9z"/>
		<path class="st5" d="M54.6,205c0-3.4,1.4-5.2,3.5-5.2c2.1,0,3.5,1.8,3.5,5.2c0,3.4-1.4,5.3-3.5,5.3
			C55.9,210.3,54.6,208.4,54.6,205z M59.6,205c0-2.8-0.7-3.6-1.6-3.6s-1.6,0.8-1.6,3.6c0,2.8,0.7,3.7,1.6,3.7S59.6,207.8,59.6,205z"
			/>
		<path class="st5" d="M38.6,254.4h2.2v-6.3H39v-1.3c1-0.2,1.8-0.5,2.4-0.9h1.5v8.4h1.9v1.7h-6.2V254.4z"/>
		<path class="st5" d="M46.3,251c0-3.4,1.4-5.2,3.5-5.2c2.1,0,3.5,1.8,3.5,5.2c0,3.4-1.4,5.3-3.5,5.3
			C47.7,256.3,46.3,254.4,46.3,251z M51.4,251c0-2.8-0.7-3.6-1.6-3.6s-1.6,0.8-1.6,3.6c0,2.8,0.7,3.7,1.6,3.7S51.4,253.8,51.4,251z"
			/>
		<path class="st5" d="M54.6,251c0-3.4,1.4-5.2,3.5-5.2c2.1,0,3.5,1.8,3.5,5.2c0,3.4-1.4,5.3-3.5,5.3
			C55.9,256.3,54.6,254.4,54.6,251z M59.6,251c0-2.8-0.7-3.6-1.6-3.6s-1.6,0.8-1.6,3.6c0,2.8,0.7,3.7,1.6,3.7S59.6,253.8,59.6,251z"
			/>
		<path class="st5" d="M46.1,300.9l1-1.3c0.6,0.6,1.3,1.1,2.3,1.1c1.1,0,1.8-0.6,1.8-1.8c0-1.1-0.7-1.8-1.8-1.8
			c-0.6,0-1,0.2-1.6,0.5l-0.9-0.6l0.3-5h5.5v1.7H49l-0.2,2.2c0.4-0.2,0.8-0.3,1.2-0.3c1.7,0,3.2,1,3.2,3.1c0,2.2-1.7,3.5-3.6,3.5
			C47.9,302.3,46.8,301.7,46.1,300.9z"/>
		<path class="st5" d="M54.6,297c0-3.4,1.4-5.2,3.5-5.2c2.1,0,3.5,1.8,3.5,5.2c0,3.4-1.4,5.3-3.5,5.3
			C55.9,302.3,54.6,300.4,54.6,297z M59.6,297c0-2.8-0.7-3.6-1.6-3.6s-1.6,0.8-1.6,3.6c0,2.8,0.7,3.7,1.6,3.7S59.6,299.8,59.6,297z"
			/>
		<path class="st5" d="M54.6,343c0-3.4,1.4-5.2,3.5-5.2c2.1,0,3.5,1.8,3.5,5.2c0,3.4-1.4,5.3-3.5,5.3
			C55.9,348.3,54.6,346.4,54.6,343z M59.6,343c0-2.8-0.7-3.6-1.6-3.6s-1.6,0.8-1.6,3.6c0,2.8,0.7,3.7,1.6,3.7S59.6,345.8,59.6,343z"
			/>
	</g>
</g>
<g>
	<path class="st4" d="M162,373.6c3.5-3.3,5.8-5.6,5.8-7.5c0-1.3-0.7-2.1-2-2.1c-1,0-1.8,0.6-2.4,1.4l-1.4-1.4c1.2-1.3,2.4-2,4.2-2
		c2.5,0,4.2,1.6,4.2,4.1c0,2.3-2.1,4.6-4.5,7.1c0.7-0.1,1.5-0.1,2.2-0.1h2.9v2.2H162V373.6z"/>
	<path class="st4" d="M172.6,368.6c0-4.4,1.8-6.7,4.5-6.7c2.7,0,4.5,2.3,4.5,6.7c0,4.4-1.8,6.8-4.5,6.8
		C174.4,375.4,172.6,373,172.6,368.6z M179.1,368.6c0-3.6-0.8-4.6-2-4.6s-2,1-2,4.6c0,3.6,0.9,4.7,2,4.7S179.1,372.2,179.1,368.6z"
		/>
	<path class="st4" d="M183.9,373h2.9v-8.1h-2.4v-1.6c1.3-0.3,2.3-0.6,3.1-1.1h2V373h2.5v2.1h-8V373z"/>
	<path class="st4" d="M199.1,371.9h-5.7v-1.8l5-7.9h3.2v7.7h1.6v2h-1.6v3.2h-2.5V371.9z M199.1,369.9v-2.6c0-0.8,0.1-2,0.1-2.8h-0.1
		c-0.3,0.7-0.7,1.4-1.1,2.1l-2.1,3.3H199.1z"/>
</g>
<g>
	<path class="st4" d="M368.7,373.6c3.5-3.3,5.8-5.6,5.8-7.5c0-1.3-0.7-2.1-2-2.1c-1,0-1.8,0.6-2.4,1.4l-1.4-1.4c1.2-1.3,2.4-2,4.2-2
		c2.5,0,4.2,1.6,4.2,4.1c0,2.3-2.1,4.6-4.5,7.1c0.7-0.1,1.5-0.1,2.2-0.1h2.9v2.2h-8.9V373.6z"/>
	<path class="st4" d="M379.3,368.6c0-4.4,1.8-6.7,4.5-6.7c2.7,0,4.5,2.3,4.5,6.7c0,4.4-1.8,6.8-4.5,6.8
		C381.1,375.4,379.3,373,379.3,368.6z M385.8,368.6c0-3.6-0.8-4.6-2-4.6s-2,1-2,4.6c0,3.6,0.9,4.7,2,4.7S385.8,372.2,385.8,368.6z"
		/>
	<path class="st4" d="M389.9,373.6c3.5-3.3,5.8-5.6,5.8-7.5c0-1.3-0.7-2.1-2-2.1c-1,0-1.8,0.6-2.4,1.4l-1.4-1.4c1.2-1.3,2.4-2,4.2-2
		c2.5,0,4.2,1.6,4.2,4.1c0,2.3-2.1,4.6-4.5,7.1c0.7-0.1,1.5-0.1,2.2-0.1h2.9v2.2h-8.9V373.6z"/>
	<path class="st4" d="M400.5,373.6c3.5-3.3,5.8-5.6,5.8-7.5c0-1.3-0.7-2.1-2-2.1c-1,0-1.8,0.6-2.4,1.4l-1.4-1.4c1.2-1.3,2.4-2,4.2-2
		c2.5,0,4.2,1.6,4.2,4.1c0,2.3-2.1,4.6-4.5,7.1c0.7-0.1,1.5-0.1,2.2-0.1h2.9v2.2h-8.9V373.6z"/>
</g>
<g>
	<path class="st4" d="M225.4,176.4h-3.6v-1.9h3.6v-3.8h2v3.8h3.6v1.9h-3.6v3.8h-2V176.4z"/>
	<path class="st4" d="M233.2,180h2.9v-8.1h-2.4v-1.6c1.3-0.3,2.3-0.6,3.1-1.1h2V180h2.5v2.1h-8V180z"/>
	<path class="st4" d="M243.1,175.6c0-4.4,1.8-6.7,4.5-6.7c2.7,0,4.5,2.3,4.5,6.7c0,4.4-1.8,6.8-4.5,6.8
		C244.9,182.4,243.1,180,243.1,175.6z M249.6,175.6c0-3.6-0.8-4.6-2-4.6s-2,1-2,4.6c0,3.6,0.9,4.7,2,4.7S249.6,179.2,249.6,175.6z"
		/>
	<path class="st4" d="M253.4,180.5l1.2-1.7c0.8,0.8,1.8,1.4,3,1.4c1.4,0,2.3-0.6,2.3-1.8c0-1.3-0.8-2-3.7-2v-1.9
		c2.4,0,3.2-0.8,3.2-1.9c0-1-0.6-1.6-1.8-1.6c-1,0-1.7,0.5-2.5,1.2l-1.4-1.6c1.2-1,2.4-1.7,4-1.7c2.6,0,4.3,1.3,4.3,3.5
		c0,1.4-0.8,2.4-2.2,2.9v0.1c1.5,0.4,2.6,1.5,2.6,3.2c0,2.4-2.1,3.8-4.7,3.8C255.7,182.4,254.3,181.6,253.4,180.5z"/>
	<path class="st4" d="M264.1,172.8c0-2.7,1.3-4.2,3.2-4.2c1.9,0,3.3,1.5,3.3,4.2c0,2.7-1.4,4.2-3.3,4.2
		C265.4,177,264.1,175.5,264.1,172.8z M268.7,172.8c0-2-0.6-2.7-1.4-2.7s-1.4,0.7-1.4,2.7s0.6,2.8,1.4,2.8S268.7,174.7,268.7,172.8z
		 M275,168.6h1.6l-7.2,13.8h-1.6L275,168.6z M273.8,178.2c0-2.7,1.4-4.2,3.2-4.2s3.3,1.5,3.3,4.2c0,2.7-1.4,4.2-3.3,4.2
		S273.8,180.8,273.8,178.2z M278.4,178.2c0-2-0.6-2.7-1.4-2.7s-1.4,0.8-1.4,2.7s0.6,2.7,1.4,2.7S278.4,180.1,278.4,178.2z"/>
</g>
<g>
	<path class="st4" d="M147.6,14.6c0,3.7,1.6,6.7,3.6,8.4v0.1h-5.6v-17h5.6v0.1C149.2,7.9,147.6,10.9,147.6,14.6z"/>
	<path class="st4" d="M162.7,19.8c-1.3,1.3-3.4,2.4-5.5,2.8c-0.3-0.5-0.8-1.2-1.3-1.6c2-0.3,4.1-1,5.2-1.8L162.7,19.8z M165.4,19v4
		h-2.1v-4h-6.9v-1.6h6.9v-0.8h-1.7l0,0.3l-1.2,0.4c0-0.2,0-0.4-0.1-0.6c-2.4,0.3-2.8,0.4-3.1,0.5c-0.1-0.3-0.3-1.1-0.5-1.5
		c0.3-0.1,0.6-0.4,1-0.8c0.2-0.2,0.5-0.5,0.8-1c-1.1,0.1-1.4,0.2-1.6,0.3c-0.1-0.3-0.3-1-0.5-1.5c0.2-0.1,0.5-0.3,0.7-0.6
		c0.2-0.3,0.9-1.4,1.3-2.4l1.6,0.5c-0.4,0.8-0.9,1.6-1.5,2.3l1-0.1c0.3-0.4,0.5-0.9,0.7-1.3l1.4,0.7v-1.3h1.6c0.2-0.5,0.3-1,0.4-1.5
		l2.1,0.4c-0.2,0.4-0.4,0.8-0.6,1.1h2.2v2c0.2-0.1,0.4-0.3,0.6-0.5c0.2-0.3,0.8-1.3,1.1-2.3h-1.8V8.8h-2.4V7.1h2.4V6.2h2.1v0.9h3.1
		v1.8h-3.1v0.9l1.3,0.4c-0.4,0.8-0.9,1.7-1.4,2.4l1-0.1c0.3-0.5,0.6-0.9,0.8-1.4l1.5,0.7c-0.6,0.9-1.2,1.8-1.9,2.6l1.3-0.4
		c0.4,0.8,0.7,2,0.8,2.8l-1.3,0.4c0-0.2,0-0.4-0.1-0.6c-2.5,0.3-3,0.4-3.3,0.6c-0.1-0.3-0.3-1.1-0.5-1.5c0.3-0.1,0.6-0.4,1-0.8
		c0.1-0.1,0.4-0.5,0.8-1c-1,0.1-1.3,0.2-1.5,0.3c-0.1-0.3-0.3-0.9-0.5-1.4v3.8h-1.8v0.8h6.9V19H165.4z M159.6,8.8h-3.3V7.1h3.3V6.2
		h2.1v0.9h2.3v1.8h-2.3v0.9h-2.1V8.8z M160,15.4c-0.1-0.3-0.2-0.6-0.3-0.9c-0.3,0.3-0.6,0.6-0.9,1L160,15.4z M160.8,14
		c0.3,0.7,0.6,1.6,0.7,2.3V12c-0.5,0.8-1.1,1.5-1.7,2.3L160.8,14z M165.3,12h-2.1v0.9h2.1V12z M163.3,15.1h2.1v-0.9h-2.1V15.1z
		 M167.2,19.1c1.7,0.5,4.1,1.5,5.3,2.2l-1.3,1.4c-1.2-0.7-3.5-1.7-5.2-2.3L167.2,19.1z M170.8,15.3c-0.1-0.3-0.2-0.7-0.3-1
		c-0.3,0.4-0.6,0.7-0.9,1.1L170.8,15.3z"/>
	<path class="st4" d="M174.6,14.9h6.8v8h-2.1v-0.8h-2.7V23h-2V14.9z M176.6,17v3.1h2.7V17H176.6z M187.6,13.4h-10.6V6.9h10.6V13.4z
		 M185.5,9h-6.3v2.4h6.3V9z M190.1,14.9v8h-2.2v-0.8H185V23H183v-8.1H190.1z M187.9,20.1V17H185v3.1H187.9z"/>
	<path class="st4" d="M197.5,13.9c0.7,0.7,2.3,2.6,2.7,3.1l-1.2,1.8c-0.3-0.6-0.9-1.5-1.5-2.4V23h-2.2v-6.4
		c-0.7,1.7-1.6,3.2-2.5,4.3c-0.2-0.6-0.7-1.5-1.1-2c1.2-1.3,2.4-3.4,3.1-5.3h-2.7v-2h3.2V9.2c-0.9,0.1-1.7,0.3-2.6,0.4
		c-0.1-0.5-0.3-1.2-0.6-1.7c2.3-0.3,5-0.9,6.6-1.5l1.4,1.7c-0.8,0.3-1.7,0.5-2.7,0.8v2.8h2.6v2h-2.6V13.9z M207.8,7.9V22h-2.2v-1.3
		h-2.9v1.4h-2.1V7.9H207.8z M205.6,18.7V10h-2.9v8.7H205.6z"/>
	<path class="st4" d="M220.7,16.2v0.6h4.2V23h-2v-0.5h-9.3V23h-1.9v-6.2h4.6v-0.6h-6.4v-1.4h9.3c-0.2-0.4-0.5-0.9-0.8-1.2
		c0.8-0.1,1.5-0.4,2.2-0.6c-0.6-0.3-1.2-0.5-1.8-0.7l0.7-1c0.8,0.3,1.6,0.6,2.5,0.9c0.4-0.3,0.8-0.6,1.1-1h-4.3v-1.1
		c-0.3-0.3-0.7-0.8-0.9-0.9c1.4-0.5,1.6-1,1.6-1.7V6.7h4.8V8c0,0.3,0,0.5,0.3,0.5h0.6c0.2,0,0.6,0,0.8-0.1c0,0.4,0.1,1,0.1,1.4
		c-0.2,0.1-0.6,0.1-0.9,0.1h-0.9c-1.3,0-1.6-0.5-1.7-1.7h-1.5c-0.1,0.7-0.4,1.4-1.2,2h4.2l0.3-0.1l1,0.4c-0.4,1-1,1.8-1.7,2.4
		c0.8,0.3,1.5,0.6,2.1,0.9l-0.7,1.1h1.5v1.4H220.7z M210.9,8h-0.6V6.8h8.2V8h-4.3l0.8,0.2c-0.1,0.1-0.1,0.3-0.2,0.4h3v1h-1.7v0.6
		h1.9v1h-1.7c0.6,0.4,1.2,0.8,1.6,1.1l-0.8,0.9c-0.3-0.3-1-0.8-1.6-1.2c-0.4,0.5-0.9,0.9-1.9,1.2h2.8c0.5,0,1.4,0,1.8-0.1
		c0,0.4,0.1,0.9,0.1,1.2c-0.4,0.1-1.1,0.1-1.8,0.1h-3.6c-1.8,0-2.2-0.6-2.2-2.1V8z M214.2,9.6c-0.2,0.2-0.4,0.4-0.5,0.6
		c-0.2-0.2-0.8-0.5-1.1-0.6c0.5-0.5,0.9-1,1.2-1.5h-1.3v4.4c0,0.6,0.1,0.8,0.8,0.8h0.4c-0.2-0.3-0.5-0.7-0.8-0.9
		c1-0.3,1.6-0.7,1.9-1.1h-1.8v-1h2.1V9.6H214.2z M222.9,21.4v-1.9H221c-1.5,0-1.9-0.3-1.9-1.4v-0.2h-1.2c-0.2,1-1.2,1.7-3.5,2
		c-0.1-0.3-0.5-0.7-0.7-1v2.6H222.9z M213.6,17.9v0.8c1.6-0.1,2.3-0.4,2.6-0.8H213.6z M221.9,19.9v1h-7.1v-1H221.9z M219.1,16.2
		h-1.2v0.6h1.2V16.2z M224.8,14.8c-0.6-0.3-1.5-0.7-2.4-1.1c-0.8,0.5-1.7,0.8-2.7,1.1H224.8z M220.7,17.9v0.2c0,0.4,0.1,0.4,0.5,0.4
		h1.4c0.1,0,0.2,0,0.2,0v-0.6H220.7z"/>
	<path class="st4" d="M234.7,19.8c-1.3,1.3-3.4,2.4-5.5,2.8c-0.3-0.5-0.8-1.2-1.3-1.6c2-0.3,4.1-1,5.2-1.8L234.7,19.8z M237.4,19v4
		h-2.1v-4h-6.9v-1.6h6.9v-0.8h-1.7l0,0.3l-1.2,0.4c0-0.2,0-0.4-0.1-0.6c-2.4,0.3-2.8,0.4-3.1,0.5c-0.1-0.3-0.3-1.1-0.5-1.5
		c0.3-0.1,0.6-0.4,1-0.8c0.2-0.2,0.5-0.5,0.8-1c-1.1,0.1-1.4,0.2-1.6,0.3c-0.1-0.3-0.3-1-0.5-1.5c0.2-0.1,0.5-0.3,0.7-0.6
		c0.2-0.3,0.9-1.4,1.3-2.4l1.6,0.5c-0.4,0.8-0.9,1.6-1.5,2.3l1-0.1c0.3-0.4,0.5-0.9,0.7-1.3l1.4,0.7v-1.3h1.6c0.2-0.5,0.3-1,0.4-1.5
		l2.1,0.4c-0.2,0.4-0.4,0.8-0.6,1.1h2.2v2c0.2-0.1,0.4-0.3,0.6-0.5c0.2-0.3,0.8-1.3,1.1-2.3h-1.8V8.8h-2.4V7.1h2.4V6.2h2.1v0.9h3.1
		v1.8h-3.1v0.9l1.3,0.4c-0.4,0.8-0.9,1.7-1.4,2.4l1-0.1c0.3-0.5,0.6-0.9,0.8-1.4l1.5,0.7c-0.6,0.9-1.2,1.8-1.9,2.6l1.3-0.4
		c0.4,0.8,0.7,2,0.8,2.8l-1.3,0.4c0-0.2,0-0.4-0.1-0.6c-2.5,0.3-3,0.4-3.3,0.6c-0.1-0.3-0.3-1.1-0.5-1.5c0.3-0.1,0.6-0.4,1-0.8
		c0.1-0.1,0.4-0.5,0.8-1c-1,0.1-1.3,0.2-1.5,0.3c-0.1-0.3-0.3-0.9-0.5-1.4v3.8h-1.8v0.8h6.9V19H237.4z M231.6,8.8h-3.3V7.1h3.3V6.2
		h2.1v0.9h2.3v1.8h-2.3v0.9h-2.1V8.8z M232,15.4c-0.1-0.3-0.2-0.6-0.3-0.9c-0.3,0.3-0.6,0.6-0.9,1L232,15.4z M232.8,14
		c0.3,0.7,0.6,1.6,0.7,2.3V12c-0.5,0.8-1.1,1.5-1.7,2.3L232.8,14z M237.3,12h-2.1v0.9h2.1V12z M235.3,15.1h2.1v-0.9h-2.1V15.1z
		 M239.2,19.1c1.7,0.5,4.1,1.5,5.3,2.2l-1.3,1.4c-1.2-0.7-3.5-1.7-5.2-2.3L239.2,19.1z M242.8,15.3c-0.1-0.3-0.2-0.7-0.3-1
		c-0.3,0.4-0.6,0.7-0.9,1.1L242.8,15.3z"/>
	<path class="st4" d="M262.7,20.9v1.7h-13.2v-1.7h5.5v-1h-3.8v-1.3c-0.3,0.4-0.7,0.8-1,1.1c-0.1-0.4-0.5-1.3-0.8-1.8
		c-0.2,1.9-0.7,3.9-1.9,5.4c-0.3-0.4-1.2-1.2-1.7-1.4c1.5-1.8,1.6-4.4,1.6-6.2v-3.2h2.4c-0.3-0.3-0.6-0.6-0.9-0.8
		c1.3-0.2,2.7-0.5,4.1-0.8c-1.1-0.3-2.3-0.5-3.4-0.7l1-0.8h-3.1V7.7h6.3c-0.2-0.3-0.5-0.7-0.7-0.9l1.4-0.7c0.4,0.5,0.9,1.1,1.2,1.6
		h6.2v1.7h-2.6l0.9,0.5c-0.6,0.3-1.4,0.6-2.2,0.9c1.1,0.3,2,0.6,2.8,0.8l-1,0.8h2.6v1.7h-13.1v1.5c0,0.6,0,1.2-0.1,1.9
		c0.9-0.8,1.6-2,2.1-3.2l1.8,0.5c-0.1,0.2-0.2,0.5-0.3,0.7h2.1v-1.1h2.1v1.1h4.4v1.7h-4.4v0.9h3.9v1.6h-3.9v1H262.7z M255,18.2v-0.9
		H252c-0.2,0.3-0.4,0.6-0.6,0.9H255z M258.6,12.5c-0.9-0.3-2-0.6-3.1-0.9c-1.3,0.3-2.6,0.6-3.9,0.9H258.6z M252.1,9.3
		c1.1,0.3,2.3,0.5,3.5,0.8c0.9-0.2,1.7-0.5,2.4-0.8H252.1z"/>
	<path class="st4" d="M264.6,14.9h6.8v8h-2.1v-0.8h-2.7V23h-2V14.9z M266.6,17v3.1h2.7V17H266.6z M277.6,13.4h-10.6V6.9h10.6V13.4z
		 M275.5,9h-6.3v2.4h6.3V9z M280.1,14.9v8h-2.2v-0.8H275V23H273v-8.1H280.1z M277.9,20.1V17H275v3.1H277.9z"/>
	<path class="st4" d="M298.3,9c0,0,0,0.7,0,1c-0.2,8-0.4,10.9-1.2,11.9c-0.5,0.7-1,0.9-1.7,1c-0.7,0.1-1.8,0.1-2.8,0
		c0-0.6-0.3-1.5-0.7-2.1c1.2,0.1,2.2,0.1,2.7,0.1c0.4,0,0.6-0.1,0.8-0.3c0.5-0.6,0.8-3.3,1-9.6h-3.9c-0.5,1.1-1,2.1-1.6,2.8
		c-0.3-0.3-0.9-0.7-1.4-1v8.4h-4.8v1.3h-1.9V9.1h2c0.2-0.9,0.5-2.1,0.5-2.9l2.3,0.3c-0.3,0.9-0.6,1.8-0.9,2.6h2.8V12
		c1-1.5,1.9-3.7,2.4-5.8l2.1,0.5c-0.2,0.8-0.4,1.5-0.7,2.3H298.3z M287.5,11h-2.9v2.9h2.9V11z M287.5,19.3v-3.5h-2.9v3.5H287.5z
		 M293.5,18.3c-0.5-1.1-1.6-2.8-2.5-4.2l1.7-1c0.9,1.2,2.1,3,2.6,4L293.5,18.3z"/>
	<path class="st4" d="M315.7,15.2V23h-2.4v-1h-12.4v-6.8h2.4v4.7h3.8v-5.7h-5.2V7.7h2.3v4.5h3v-6h2.4v6h3.1V7.7h2.4v6.5h-5.5v5.7
		h3.8v-4.7H315.7z"/>
	<path class="st4" d="M333.4,8v14.7H331v-1.4h-9.5v1.5h-2.3V8H333.4z M331,19v-8.8h-9.5V19H331z"/>
	<path class="st4" d="M343.4,17.5L343.4,17.5l0,5.5h-1.9v-0.5h-2.3V23h-1.8v-5.2c-0.2,0.1-0.5,0.2-0.7,0.3c-0.2-0.5-0.7-1.3-1-1.7
		c1.1-0.3,2.2-0.8,3.1-1.4c-0.3-0.2-0.6-0.4-0.9-0.6l1.2-1.2l1.2,0.6c0.4-0.3,0.7-0.8,1-1.2h-2.2c-0.5,0.8-1.2,1.4-2,2
		c-0.2-0.5-0.7-1.1-1.1-1.4c1.4-0.9,2.2-2.1,2.6-3.3l1.6,0.3c-0.1,0.3-0.2,0.6-0.3,0.8h2.3l0.3-0.1l0,0V9.7h-4.8v1.5h-1.5V8h3.2
		c-0.1-0.4-0.3-0.8-0.4-1.1l1.7-0.6c0.2,0.5,0.5,1.2,0.7,1.7h2.9v3.2h-1.4l0.8,0.6c-0.4,1.1-1.1,2.1-1.8,3c1,0.6,1.9,1.1,2.5,1.5
		L343.4,17.5z M342.7,17.5c-0.6-0.4-1.4-0.9-2.2-1.5c-0.7,0.6-1.5,1.1-2.3,1.5H342.7z M341.5,20.9v-1.8h-2.3v1.8H341.5z M349.9,19.5
		c1,0.6,2.3,1.5,2.9,2.1l-1.2,1.5c-0.6-0.7-2-1.7-3-2.4l1.1-1.2H347l1.3,1.4c-1.1,0.8-2.6,1.7-3.9,2.3c-0.2-0.5-0.6-1.2-0.9-1.6
		c1.1-0.5,2.6-1.4,3.4-2.1H345V10h2.3c0.1-0.4,0.1-0.8,0.2-1.2h-2.9V6.9h8v1.8h-3.2c-0.1,0.4-0.3,0.9-0.4,1.2h3.1v9.5H349.9z
		 M346.9,12.7h3.2v-1h-3.2V12.7z M346.9,15.3h3.2v-1.1h-3.2V15.3z M346.9,17.8h3.2v-1.1h-3.2V17.8z"/>
	<path class="st4" d="M357.4,23.1L357.4,23.1c2-1.8,3.6-4.8,3.6-8.5c0-3.7-1.6-6.7-3.6-8.4V6.1h5.6v17H357.4z"/>
</g>
<line class="st0" x1="81.1" y1="69" x2="489.1" y2="69"/>
<line class="st0" x1="81.1" y1="114.7" x2="489.1" y2="114.7"/>
<line class="st0" x1="81.1" y1="160.9" x2="489.1" y2="160.9"/>
<line class="st0" x1="81.1" y1="206" x2="489.1" y2="206"/>
<line class="st0" x1="81.1" y1="251.8" x2="489.1" y2="251.8"/>
<line class="st0" x1="81.1" y1="297" x2="489.1" y2="297"/>
<rect x="347.9" y="119.3" class="st1" width="81.9" height="223.6"/>
<rect x="142.7" y="245.8" class="st1" width="81.9" height="97.1"/>
<line class="st0" x1="285.1" y1="353.5" x2="285.1" y2="343"/>
<line class="st0" x1="489.1" y1="353.5" x2="489.1" y2="343"/>
<line class="st0" x1="81.1" y1="353.5" x2="81.1" y2="343"/>
<line class="st2" x1="489.1" y1="343.8" x2="81.1" y2="343.8"/>
<path class="st3" d="M188.5,212.5c83.6,46.5,121.5-42.1,128-59.6l-5.6-2.3l18-14l3.1,22.6l-5.8-2.4
	C273.3,281.9,188.5,212.5,188.5,212.5z"/>
</svg>
