<?xml version="1.0" encoding="UTF-8"?>
<svg id="_圖層_3" data-name="圖層 3" xmlns="http://www.w3.org/2000/svg" viewBox="0 0 1095.4 432.58">
  <defs>
    <style>
      .cls-1 {
        fill: none;
        stroke: #231815;
        stroke-miterlimit: 10;
      }

      .cls-2 {
        fill: #b31c31;
      }

      .cls-3 {
        fill: #005598;
      }

      .cls-4 {
        fill: #231815;
      }
    </style>
  </defs>
  <g>
    <path class="cls-4" d="M118.59,243.26h-8.32v-1.56l7.93-11.86h2.63v11.52h2.52v1.9h-2.52v5.12h-2.24v-5.12Zm0-1.9v-5.43c0-.96,.08-2.55,.13-3.54h-.1c-.47,.88-.99,1.69-1.53,2.6l-4.34,6.37h5.85Z"/>
    <path class="cls-4" d="M126.73,246.92c0-1.09,.78-1.85,1.72-1.85s1.72,.75,1.72,1.85-.78,1.79-1.72,1.79-1.72-.73-1.72-1.79Z"/>
    <path class="cls-4" d="M141.55,243.26h-8.32v-1.56l7.93-11.86h2.63v11.52h2.52v1.9h-2.52v5.12h-2.24v-5.12Zm0-1.9v-5.43c0-.96,.08-2.55,.13-3.54h-.1c-.47,.88-.99,1.69-1.53,2.6l-4.34,6.37h5.85Z"/>
    <path class="cls-4" d="M149.19,239.83c0-7.46,3.35-10.32,7.07-10.32,1.98,0,3.41,.83,4.45,1.95l-1.33,1.48c-.75-.91-1.9-1.46-3.04-1.46-2.63,0-4.81,2-4.91,7.9,1.2-1.43,2.83-2.31,4.34-2.31,3.2,0,5.28,1.92,5.28,5.69,0,3.56-2.5,5.95-5.46,5.95-3.67,0-6.4-2.96-6.4-8.89Zm2.29,1.48c.31,3.61,1.74,5.56,4.08,5.56,1.85,0,3.25-1.64,3.25-4.11s-1.14-3.93-3.43-3.93c-1.2,0-2.65,.65-3.9,2.47Z"/>
  </g>
  <g>
    <path class="cls-4" d="M240.45,291.17c5.59-5.56,8.74-8.89,8.74-11.93,0-2.11-1.14-3.61-3.51-3.61-1.56,0-2.91,.99-3.95,2.21l-1.38-1.33c1.56-1.69,3.2-2.81,5.62-2.81,3.41,0,5.54,2.16,5.54,5.43,0,3.48-3.17,6.94-7.57,11.57,.99-.08,2.13-.18,3.12-.18h5.38v2.05h-11.99v-1.4Z"/>
    <path class="cls-4" d="M256.28,291.12c0-1.09,.78-1.85,1.72-1.85s1.72,.75,1.72,1.85-.78,1.79-1.72,1.79-1.72-.73-1.72-1.79Z"/>
    <path class="cls-4" d="M263.77,290.96l1.33-1.48c.73,.91,1.87,1.46,3.04,1.46,2.6,0,4.81-2.03,4.91-7.96-1.2,1.48-2.83,2.39-4.34,2.39-3.22,0-5.3-1.95-5.3-5.75,0-3.54,2.5-5.93,5.46-5.93,3.67,0,6.4,2.96,6.4,8.92,0,7.44-3.35,10.3-7.05,10.3-1.98,0-3.43-.83-4.45-1.95Zm5.33-7.36c1.2,0,2.7-.75,3.9-2.52-.31-3.59-1.77-5.51-4.13-5.51-1.82,0-3.22,1.61-3.22,4.06s1.14,3.98,3.46,3.98Z"/>
    <path class="cls-4" d="M278.48,291.17c5.59-5.56,8.74-8.89,8.74-11.93,0-2.11-1.14-3.61-3.51-3.61-1.56,0-2.91,.99-3.95,2.21l-1.38-1.33c1.56-1.69,3.2-2.81,5.62-2.81,3.41,0,5.54,2.16,5.54,5.43,0,3.48-3.17,6.94-7.57,11.57,.99-.08,2.13-.18,3.12-.18h5.38v2.05h-11.99v-1.4Z"/>
  </g>
  <g>
    <path class="cls-4" d="M365.64,262.69l1.2-1.56c1.12,1.17,2.57,2.18,4.73,2.18s3.87-1.33,3.87-3.41c0-2.21-1.53-3.67-5.93-3.67v-1.82c3.93,0,5.28-1.53,5.28-3.48,0-1.79-1.25-2.94-3.22-2.94-1.53,0-2.89,.78-3.95,1.87l-1.27-1.48c1.43-1.35,3.12-2.31,5.33-2.31,3.2,0,5.54,1.69,5.54,4.71,0,2.24-1.38,3.67-3.38,4.39v.1c2.24,.55,4.03,2.18,4.03,4.73,0,3.3-2.73,5.28-6.11,5.28-2.99,0-4.86-1.25-6.11-2.6Z"/>
    <path class="cls-4" d="M381.87,263.49c0-1.09,.78-1.85,1.72-1.85s1.72,.75,1.72,1.85-.78,1.79-1.72,1.79-1.72-.73-1.72-1.79Z"/>
    <path class="cls-4" d="M389.02,260.22c0-2.42,1.77-4.08,3.51-5.02v-.1c-1.38-.94-2.57-2.31-2.57-4.29,0-2.83,2.26-4.73,5.23-4.73,3.25,0,5.23,2.03,5.23,4.91,0,1.95-1.43,3.61-2.55,4.47v.13c1.64,.99,3.22,2.29,3.22,4.76,0,2.78-2.39,4.94-5.98,4.94s-6.08-2.13-6.08-5.07Zm9.8,.08c0-2.42-2.34-3.28-5.04-4.34-1.51,.96-2.6,2.34-2.6,4.06,0,2.03,1.69,3.51,3.98,3.51s3.67-1.33,3.67-3.22Zm-.44-9.18c0-1.82-1.17-3.28-3.22-3.28-1.77,0-3.04,1.17-3.04,2.96,0,2.24,2.05,3.17,4.29,4.06,1.27-1.14,1.98-2.37,1.98-3.74Z"/>
    <path class="cls-4" d="M403.68,262.69l1.2-1.56c1.12,1.17,2.57,2.18,4.73,2.18s3.87-1.33,3.87-3.41c0-2.21-1.53-3.67-5.93-3.67v-1.82c3.93,0,5.28-1.53,5.28-3.48,0-1.79-1.25-2.94-3.22-2.94-1.53,0-2.89,.78-3.95,1.87l-1.27-1.48c1.43-1.35,3.12-2.31,5.33-2.31,3.2,0,5.54,1.69,5.54,4.71,0,2.24-1.38,3.67-3.38,4.39v.1c2.24,.55,4.03,2.18,4.03,4.73,0,3.3-2.73,5.28-6.11,5.28-2.99,0-4.86-1.25-6.11-2.6Z"/>
  </g>
  <g>
    <path class="cls-4" d="M504.17,224.38h-8.32v-1.56l7.93-11.86h2.63v11.52h2.52v1.9h-2.52v5.12h-2.24v-5.12Zm0-1.9v-5.43c0-.96,.08-2.55,.13-3.54h-.1c-.47,.88-.99,1.69-1.53,2.6l-4.34,6.37h5.85Z"/>
    <path class="cls-4" d="M512.31,228.05c0-1.09,.78-1.85,1.72-1.85s1.72,.75,1.72,1.85-.78,1.79-1.72,1.79-1.72-.73-1.72-1.79Z"/>
    <path class="cls-4" d="M519.46,224.77c0-2.42,1.77-4.08,3.51-5.02v-.1c-1.38-.94-2.57-2.31-2.57-4.29,0-2.83,2.26-4.73,5.23-4.73,3.25,0,5.23,2.03,5.23,4.91,0,1.95-1.43,3.61-2.55,4.47v.13c1.64,.99,3.22,2.29,3.22,4.76,0,2.78-2.39,4.94-5.98,4.94s-6.08-2.13-6.08-5.07Zm9.8,.08c0-2.42-2.34-3.28-5.04-4.34-1.51,.96-2.6,2.34-2.6,4.06,0,2.03,1.69,3.51,3.98,3.51s3.67-1.33,3.67-3.22Zm-.44-9.18c0-1.82-1.17-3.28-3.22-3.28-1.77,0-3.04,1.17-3.04,2.96,0,2.24,2.05,3.17,4.29,4.06,1.27-1.14,1.98-2.37,1.98-3.74Z"/>
    <path class="cls-4" d="M534.54,224.77c0-2.42,1.77-4.08,3.51-5.02v-.1c-1.38-.94-2.57-2.31-2.57-4.29,0-2.83,2.26-4.73,5.23-4.73,3.25,0,5.23,2.03,5.23,4.91,0,1.95-1.43,3.61-2.55,4.47v.13c1.64,.99,3.22,2.29,3.22,4.76,0,2.78-2.39,4.94-5.98,4.94s-6.08-2.13-6.08-5.07Zm9.8,.08c0-2.42-2.34-3.28-5.04-4.34-1.51,.96-2.6,2.34-2.6,4.06,0,2.03,1.69,3.51,3.98,3.51s3.67-1.33,3.67-3.22Zm-.44-9.18c0-1.82-1.17-3.28-3.22-3.28-1.77,0-3.04,1.17-3.04,2.96,0,2.24,2.05,3.17,4.29,4.06,1.27-1.14,1.98-2.37,1.98-3.74Z"/>
  </g>
  <g>
    <path class="cls-4" d="M624.44,199.51l1.17-1.56c1.09,1.09,2.47,2.11,4.68,2.11s4.06-1.64,4.06-4.21-1.56-4.11-3.95-4.11c-1.27,0-2.08,.42-3.17,1.14l-1.27-.81,.6-8.92h9.28v2.03h-7.2l-.47,5.54c.86-.47,1.69-.78,2.83-.78,3.17,0,5.75,1.82,5.75,5.82s-3.02,6.27-6.24,6.27c-2.96,0-4.78-1.25-6.06-2.52Z"/>
    <path class="cls-4" d="M640.69,200.24c0-1.09,.78-1.85,1.72-1.85s1.72,.75,1.72,1.85-.78,1.79-1.72,1.79-1.72-.73-1.72-1.79Z"/>
    <path class="cls-4" d="M648.08,193.14c0-7.46,3.35-10.32,7.07-10.32,1.98,0,3.41,.83,4.45,1.95l-1.33,1.48c-.75-.91-1.9-1.46-3.04-1.46-2.63,0-4.81,2-4.91,7.9,1.2-1.43,2.83-2.31,4.34-2.31,3.2,0,5.28,1.92,5.28,5.69,0,3.56-2.5,5.95-5.46,5.95-3.67,0-6.4-2.96-6.4-8.89Zm2.29,1.48c.31,3.61,1.74,5.56,4.08,5.56,1.85,0,3.25-1.64,3.25-4.11s-1.14-3.93-3.43-3.93c-1.2,0-2.65,.65-3.9,2.47Z"/>
    <path class="cls-4" d="M663.26,200.08l1.33-1.48c.73,.91,1.87,1.46,3.04,1.46,2.6,0,4.81-2.03,4.91-7.96-1.2,1.48-2.83,2.39-4.34,2.39-3.22,0-5.3-1.95-5.3-5.75,0-3.54,2.5-5.93,5.46-5.93,3.67,0,6.4,2.96,6.4,8.92,0,7.44-3.35,10.3-7.05,10.3-1.98,0-3.43-.83-4.45-1.95Zm5.33-7.36c1.2,0,2.7-.75,3.9-2.52-.31-3.59-1.77-5.51-4.13-5.51-1.82,0-3.22,1.61-3.22,4.06s1.14,3.98,3.46,3.98Z"/>
  </g>
  <g>
    <path class="cls-4" d="M756.03,97.36c0-2.42,1.77-4.08,3.51-5.02v-.1c-1.38-.94-2.57-2.31-2.57-4.29,0-2.83,2.26-4.73,5.23-4.73,3.25,0,5.23,2.03,5.23,4.91,0,1.95-1.43,3.61-2.55,4.47v.13c1.64,.99,3.22,2.29,3.22,4.76,0,2.78-2.39,4.94-5.98,4.94s-6.08-2.13-6.08-5.07Zm9.8,.08c0-2.42-2.34-3.28-5.04-4.34-1.51,.96-2.6,2.34-2.6,4.06,0,2.03,1.69,3.51,3.98,3.51s3.67-1.33,3.67-3.22Zm-.44-9.18c0-1.82-1.17-3.28-3.22-3.28-1.77,0-3.04,1.17-3.04,2.96,0,2.24,2.05,3.17,4.29,4.06,1.27-1.14,1.98-2.37,1.98-3.74Z"/>
    <path class="cls-4" d="M771.83,100.63c0-1.09,.78-1.85,1.72-1.85s1.72,.75,1.72,1.85-.78,1.79-1.72,1.79-1.72-.73-1.72-1.79Z"/>
    <path class="cls-4" d="M788.32,85.58h-9.23v-2.03h11.93v1.46c-4.37,5.62-5.3,9.85-5.59,17.08h-2.47c.31-6.99,1.72-11.41,5.36-16.51Z"/>
    <path class="cls-4" d="M801.73,96.97h-8.32v-1.56l7.93-11.86h2.63v11.52h2.52v1.9h-2.52v5.12h-2.24v-5.12Zm0-1.9v-5.43c0-.96,.08-2.55,.13-3.54h-.1c-.47,.88-.99,1.69-1.53,2.6l-4.34,6.37h5.85Z"/>
  </g>
  <g>
    <path class="cls-4" d="M884.47,70.49l1.33-1.48c.73,.91,1.87,1.46,3.04,1.46,2.6,0,4.81-2.03,4.92-7.96-1.2,1.48-2.83,2.39-4.34,2.39-3.22,0-5.3-1.95-5.3-5.75,0-3.54,2.5-5.93,5.46-5.93,3.67,0,6.4,2.96,6.4,8.92,0,7.44-3.35,10.3-7.05,10.3-1.98,0-3.43-.83-4.45-1.95Zm5.33-7.36c1.2,0,2.7-.75,3.9-2.52-.31-3.59-1.77-5.51-4.13-5.51-1.82,0-3.22,1.61-3.22,4.06s1.14,3.98,3.46,3.98Z"/>
    <path class="cls-4" d="M899.94,70.64c0-1.09,.78-1.85,1.72-1.85s1.72,.75,1.72,1.85-.78,1.79-1.72,1.79-1.72-.73-1.72-1.79Z"/>
    <path class="cls-4" d="M907.33,63.55c0-7.46,3.35-10.32,7.07-10.32,1.98,0,3.41,.83,4.45,1.95l-1.33,1.48c-.75-.91-1.9-1.46-3.04-1.46-2.63,0-4.81,2-4.91,7.9,1.2-1.43,2.83-2.31,4.34-2.31,3.2,0,5.28,1.92,5.28,5.69,0,3.56-2.5,5.95-5.46,5.95-3.67,0-6.4-2.96-6.4-8.89Zm2.29,1.48c.31,3.61,1.74,5.56,4.08,5.56,1.85,0,3.25-1.64,3.25-4.11s-1.14-3.93-3.43-3.93c-1.2,0-2.65,.65-3.9,2.47Z"/>
    <path class="cls-4" d="M922.17,67.37c0-2.42,1.77-4.08,3.51-5.02v-.1c-1.38-.94-2.57-2.31-2.57-4.29,0-2.83,2.26-4.73,5.23-4.73,3.25,0,5.23,2.03,5.23,4.91,0,1.95-1.43,3.61-2.55,4.47v.13c1.64,.99,3.22,2.29,3.22,4.76,0,2.78-2.39,4.94-5.98,4.94s-6.08-2.13-6.08-5.07Zm9.8,.08c0-2.42-2.34-3.28-5.04-4.34-1.51,.96-2.6,2.34-2.6,4.06,0,2.03,1.69,3.51,3.98,3.51s3.67-1.33,3.67-3.22Zm-.44-9.18c0-1.82-1.17-3.28-3.22-3.28-1.77,0-3.04,1.17-3.04,2.96,0,2.24,2.05,3.17,4.29,4.06,1.27-1.14,1.98-2.37,1.98-3.74Z"/>
  </g>
  <g>
    <path class="cls-4" d="M1006.56,48.25h4.24v-13.68h-3.38v-1.53c1.69-.29,2.91-.73,3.95-1.35h1.82v16.56h3.82v1.98h-10.45v-1.98Z"/>
    <path class="cls-4" d="M1020.62,40.89c0-6.21,2.26-9.54,5.95-9.54s5.93,3.35,5.93,9.54-2.24,9.67-5.93,9.67-5.95-3.46-5.95-9.67Zm9.57,0c0-5.43-1.46-7.64-3.61-7.64s-3.64,2.21-3.64,7.64,1.46,7.77,3.64,7.77,3.61-2.34,3.61-7.77Z"/>
    <path class="cls-4" d="M1036.33,48.77c0-1.09,.78-1.85,1.72-1.85s1.72,.75,1.72,1.85-.78,1.79-1.72,1.79-1.72-.73-1.72-1.79Z"/>
    <path class="cls-4" d="M1043.06,47.96l1.2-1.56c1.12,1.17,2.57,2.18,4.73,2.18s3.87-1.33,3.87-3.41c0-2.21-1.53-3.67-5.93-3.67v-1.82c3.93,0,5.28-1.53,5.28-3.48,0-1.79-1.25-2.94-3.22-2.94-1.53,0-2.89,.78-3.95,1.87l-1.27-1.48c1.43-1.35,3.12-2.31,5.33-2.31,3.2,0,5.54,1.69,5.54,4.71,0,2.24-1.38,3.67-3.38,4.39v.1c2.24,.55,4.03,2.18,4.03,4.73,0,3.3-2.73,5.28-6.11,5.28-2.99,0-4.86-1.25-6.11-2.6Z"/>
    <path class="cls-4" d="M1066.23,45.1h-8.32v-1.56l7.93-11.86h2.63v11.52h2.52v1.9h-2.52v5.12h-2.24v-5.12Zm0-1.9v-5.43c0-.96,.08-2.55,.13-3.54h-.1c-.47,.88-.99,1.69-1.53,2.6l-4.34,6.37h5.85Z"/>
  </g>
  <g>
    <g>
      <path class="cls-4" d="M132.9,191.03c5.59-5.56,8.74-8.89,8.74-11.93,0-2.11-1.14-3.61-3.51-3.61-1.56,0-2.91,.99-3.95,2.21l-1.38-1.33c1.56-1.69,3.2-2.81,5.62-2.81,3.41,0,5.54,2.16,5.54,5.43,0,3.48-3.17,6.94-7.57,11.57,.99-.08,2.13-.18,3.12-.18h5.38v2.05h-11.99v-1.4Z"/>
      <path class="cls-4" d="M148.11,183.1c0-6.21,2.26-9.54,5.95-9.54s5.93,3.35,5.93,9.54-2.24,9.67-5.93,9.67-5.95-3.46-5.95-9.67Zm9.57,0c0-5.43-1.46-7.64-3.61-7.64s-3.64,2.21-3.64,7.64,1.46,7.77,3.64,7.77,3.61-2.34,3.61-7.77Z"/>
      <path class="cls-4" d="M163.06,191.03c5.59-5.56,8.74-8.89,8.74-11.93,0-2.11-1.14-3.61-3.51-3.61-1.56,0-2.91,.99-3.95,2.21l-1.38-1.33c1.56-1.69,3.2-2.81,5.62-2.81,3.41,0,5.54,2.16,5.54,5.43,0,3.48-3.17,6.94-7.57,11.57,.99-.08,2.13-.18,3.12-.18h5.38v2.05h-11.99v-1.4Z"/>
      <path class="cls-4" d="M179.28,190.45h4.24v-13.68h-3.38v-1.53c1.69-.29,2.91-.73,3.95-1.35h1.82v16.56h3.82v1.98h-10.45v-1.98Z"/>
      <path class="cls-4" d="M200.16,171.79h1.72l-7.77,25.3h-1.74l7.8-25.3Z"/>
      <path class="cls-4" d="M205.2,190.45h4.24v-13.68h-3.38v-1.53c1.69-.29,2.91-.73,3.95-1.35h1.82v16.56h3.82v1.98h-10.45v-1.98Z"/>
      <path class="cls-4" d="M219.14,191.03c5.59-5.56,8.74-8.89,8.74-11.93,0-2.11-1.14-3.61-3.51-3.61-1.56,0-2.91,.99-3.95,2.21l-1.38-1.33c1.56-1.69,3.2-2.81,5.62-2.81,3.41,0,5.54,2.16,5.54,5.43,0,3.48-3.17,6.94-7.57,11.57,.99-.08,2.13-.18,3.12-.18h5.38v2.05h-11.99v-1.4Z"/>
      <path class="cls-4" d="M241.16,171.79h1.72l-7.77,25.3h-1.74l7.8-25.3Z"/>
      <path class="cls-4" d="M244.67,190.17l1.2-1.56c1.12,1.17,2.57,2.18,4.73,2.18s3.87-1.33,3.87-3.41c0-2.21-1.53-3.67-5.93-3.67v-1.82c3.93,0,5.28-1.53,5.28-3.48,0-1.79-1.25-2.94-3.22-2.94-1.53,0-2.89,.78-3.95,1.87l-1.27-1.48c1.43-1.35,3.12-2.31,5.33-2.31,3.2,0,5.54,1.69,5.54,4.71,0,2.24-1.38,3.67-3.38,4.39v.1c2.24,.55,4.03,2.18,4.03,4.73,0,3.3-2.73,5.28-6.11,5.28-2.99,0-4.86-1.25-6.11-2.6Z"/>
      <path class="cls-4" d="M261.29,190.45h4.24v-13.68h-3.38v-1.53c1.69-.29,2.91-.73,3.95-1.35h1.82v16.56h3.82v1.98h-10.45v-1.98Z"/>
      <path class="cls-4" d="M339.96,191.03c5.59-5.56,8.74-8.89,8.74-11.93,0-2.11-1.14-3.61-3.51-3.61-1.56,0-2.91,.99-3.95,2.21l-1.38-1.33c1.56-1.69,3.2-2.81,5.62-2.81,3.41,0,5.54,2.16,5.54,5.43,0,3.48-3.17,6.94-7.57,11.57,.99-.08,2.13-.18,3.12-.18h5.38v2.05h-11.99v-1.4Z"/>
      <path class="cls-4" d="M355.17,183.1c0-6.21,2.26-9.54,5.95-9.54s5.93,3.35,5.93,9.54-2.24,9.67-5.93,9.67-5.95-3.46-5.95-9.67Zm9.57,0c0-5.43-1.46-7.64-3.61-7.64s-3.64,2.21-3.64,7.64,1.46,7.77,3.64,7.77,3.61-2.34,3.61-7.77Z"/>
      <path class="cls-4" d="M370.12,191.03c5.59-5.56,8.74-8.89,8.74-11.93,0-2.11-1.14-3.61-3.51-3.61-1.56,0-2.91,.99-3.95,2.21l-1.38-1.33c1.56-1.69,3.2-2.81,5.62-2.81,3.41,0,5.54,2.16,5.54,5.43,0,3.48-3.17,6.94-7.57,11.57,.99-.08,2.13-.18,3.12-.18h5.38v2.05h-11.99v-1.4Z"/>
      <path class="cls-4" d="M385.2,191.03c5.59-5.56,8.74-8.89,8.74-11.93,0-2.11-1.14-3.61-3.51-3.61-1.56,0-2.91,.99-3.95,2.21l-1.38-1.33c1.56-1.69,3.2-2.81,5.62-2.81,3.41,0,5.54,2.16,5.54,5.43,0,3.48-3.17,6.94-7.57,11.57,.99-.08,2.13-.18,3.12-.18h5.38v2.05h-11.99v-1.4Z"/>
      <path class="cls-4" d="M407.22,171.79h1.72l-7.77,25.3h-1.74l7.8-25.3Z"/>
      <path class="cls-4" d="M411.49,190.82l1.33-1.48c.73,.91,1.87,1.46,3.04,1.46,2.6,0,4.81-2.03,4.91-7.96-1.2,1.48-2.83,2.39-4.34,2.39-3.22,0-5.3-1.95-5.3-5.75,0-3.54,2.5-5.93,5.46-5.93,3.67,0,6.4,2.96,6.4,8.92,0,7.44-3.35,10.3-7.05,10.3-1.98,0-3.43-.83-4.45-1.95Zm5.33-7.36c1.2,0,2.7-.75,3.9-2.52-.31-3.59-1.77-5.51-4.13-5.51-1.82,0-3.22,1.61-3.22,4.06s1.14,3.98,3.46,3.98Z"/>
      <path class="cls-4" d="M433.14,171.79h1.72l-7.77,25.3h-1.74l7.8-25.3Z"/>
      <path class="cls-4" d="M436.65,190.17l1.2-1.56c1.12,1.17,2.57,2.18,4.73,2.18s3.87-1.33,3.87-3.41c0-2.21-1.53-3.67-5.93-3.67v-1.82c3.93,0,5.28-1.53,5.28-3.48,0-1.79-1.25-2.94-3.22-2.94-1.53,0-2.89,.78-3.95,1.87l-1.27-1.48c1.43-1.35,3.12-2.31,5.33-2.31,3.2,0,5.54,1.69,5.54,4.71,0,2.24-1.38,3.67-3.38,4.39v.1c2.24,.55,4.03,2.18,4.03,4.73,0,3.3-2.73,5.28-6.11,5.28-2.99,0-4.86-1.25-6.11-2.6Z"/>
      <path class="cls-4" d="M452.25,183.1c0-6.21,2.26-9.54,5.95-9.54s5.93,3.35,5.93,9.54-2.24,9.67-5.93,9.67-5.95-3.46-5.95-9.67Zm9.57,0c0-5.43-1.46-7.64-3.61-7.64s-3.64,2.21-3.64,7.64,1.46,7.77,3.64,7.77,3.61-2.34,3.61-7.77Z"/>
    </g>
    <rect class="cls-3" x="110.27" y="175.47" width="16" height="16"/>
    <rect class="cls-2" x="317.24" y="175.47" width="16" height="16"/>
  </g>
  <rect class="cls-2" x="252.08" y="314" width="25.87" height="95.33"/>
  <rect class="cls-3" x="213.43" y="377.78" width="25.87" height="31.55"/>
  <rect class="cls-2" x="384.48" y="283.12" width="25.87" height="126.21"/>
  <rect class="cls-3" x="345.83" y="357.48" width="25.87" height="51.85"/>
  <rect class="cls-2" x="122.01" y="260.6" width="25.87" height="148.72"/>
  <rect class="cls-3" x="83.36" y="283.12" width="25.87" height="126.21"/>
  <rect class="cls-2" x="511.14" y="248.77" width="25.87" height="160.56"/>
  <rect class="cls-3" x="472.49" y="342.22" width="25.87" height="67.1"/>
  <rect class="cls-2" x="640.31" y="219.43" width="25.87" height="189.9"/>
  <rect class="cls-3" x="601.66" y="331.7" width="25.87" height="77.63"/>
  <rect class="cls-2" x="767.63" y="120.57" width="25.87" height="288.76"/>
  <rect class="cls-3" x="728.98" y="248.77" width="25.87" height="160.56"/>
  <rect class="cls-2" x="897.23" y="87.43" width="25.87" height="321.9"/>
  <rect class="cls-3" x="858.58" y="271.12" width="25.87" height="138.21"/>
  <rect class="cls-2" x="1025.7" y="69.7" width="25.87" height="339.63"/>
  <rect class="cls-3" x="987.05" y="249.6" width="25.87" height="159.72"/>
  <line class="cls-1" x1="54.54" y1="409.33" x2="1090.8" y2="409.33"/>
  <g>
    <path class="cls-4" d="M2.22,19.3H6.34V6.67H3.06v-1.42c1.64-.26,2.83-.67,3.84-1.25h1.77v15.29h3.71v1.82H2.22v-1.82Z"/>
    <path class="cls-4" d="M15.13,19.82c5.43-5.14,8.48-8.21,8.48-11.02,0-1.94-1.11-3.34-3.41-3.34-1.52,0-2.83,.91-3.84,2.04l-1.34-1.22c1.52-1.56,3.11-2.59,5.45-2.59,3.31,0,5.38,1.99,5.38,5.02,0,3.22-3.08,6.41-7.35,10.68,.96-.07,2.07-.17,3.03-.17h5.23v1.9H15.13v-1.3Z"/>
    <path class="cls-4" d="M2.22,85.3H6.34v-12.63H3.06v-1.42c1.64-.26,2.83-.67,3.84-1.25h1.77v15.29h3.71v1.82H2.22v-1.82Z"/>
    <path class="cls-4" d="M15.25,78.5c0-5.74,2.2-8.81,5.78-8.81s5.76,3.1,5.76,8.81-2.17,8.93-5.76,8.93-5.78-3.19-5.78-8.93Zm9.29,0c0-5.02-1.41-7.06-3.51-7.06s-3.54,2.04-3.54,7.06,1.41,7.18,3.54,7.18,3.51-2.16,3.51-7.18Z"/>
    <path class="cls-4" d="M15.15,148.75c0-2.23,1.72-3.77,3.41-4.63v-.1c-1.34-.86-2.5-2.14-2.5-3.96,0-2.62,2.2-4.37,5.08-4.37,3.16,0,5.08,1.87,5.08,4.54,0,1.8-1.39,3.34-2.47,4.13v.12c1.59,.91,3.13,2.11,3.13,4.39,0,2.57-2.32,4.56-5.81,4.56s-5.91-1.97-5.91-4.68Zm9.52,.07c0-2.23-2.27-3.02-4.9-4.01-1.46,.89-2.53,2.16-2.53,3.74,0,1.87,1.64,3.24,3.86,3.24s3.56-1.22,3.56-2.98Zm-.43-8.47c0-1.68-1.14-3.02-3.13-3.02-1.72,0-2.95,1.08-2.95,2.74,0,2.06,2,2.93,4.17,3.74,1.24-1.06,1.92-2.18,1.92-3.46Z"/>
    <path class="cls-4" d="M15.38,211.22c0-6.89,3.26-9.53,6.87-9.53,1.92,0,3.31,.77,4.32,1.8l-1.29,1.37c-.73-.84-1.84-1.34-2.96-1.34-2.55,0-4.67,1.85-4.77,7.3,1.16-1.32,2.75-2.14,4.22-2.14,3.11,0,5.13,1.78,5.13,5.26,0,3.29-2.42,5.5-5.3,5.5-3.56,0-6.21-2.74-6.21-8.21Zm2.22,1.37c.3,3.34,1.69,5.14,3.96,5.14,1.79,0,3.16-1.51,3.16-3.79s-1.11-3.62-3.33-3.62c-1.16,0-2.58,.6-3.79,2.28Z"/>
    <path class="cls-4" d="M22.6,280.39H14.52v-1.44l7.7-10.94h2.55v10.63h2.45v1.75h-2.45v4.73h-2.17v-4.73Zm0-1.75v-5.02c0-.89,.08-2.35,.13-3.26h-.1c-.45,.82-.96,1.56-1.49,2.4l-4.22,5.88h5.68Z"/>
    <path class="cls-4" d="M15.13,349.82c5.43-5.14,8.48-8.21,8.48-11.02,0-1.94-1.11-3.34-3.41-3.34-1.52,0-2.83,.91-3.84,2.04l-1.34-1.22c1.52-1.56,3.11-2.59,5.45-2.59,3.31,0,5.38,1.99,5.38,5.02,0,3.22-3.08,6.41-7.35,10.68,.96-.07,2.07-.17,3.03-.17h5.23v1.9H15.13v-1.3Z"/>
    <path class="cls-4" d="M15.25,408.5c0-5.74,2.2-8.81,5.78-8.81s5.76,3.1,5.76,8.81-2.17,8.93-5.76,8.93-5.78-3.19-5.78-8.93Zm9.29,0c0-5.02-1.41-7.06-3.51-7.06s-3.54,2.04-3.54,7.06,1.41,7.18,3.54,7.18,3.51-2.16,3.51-7.18Z"/>
  </g>
  <g>
    <path class="cls-4" d="M52.81,428.24c-.36,1.06-.99,2.23-1.54,2.98-.18-.13-.56-.42-.78-.54,.58-.71,1.11-1.72,1.41-2.7l.92,.26Zm1.84-1.05v5.21h-1.09v-5.21h-2.98v-.96h2.98v-1.58h-3.06v-.95h4.14c.28-.69,.63-1.68,.81-2.37l1.02,.21c-.27,.72-.55,1.53-.84,2.16h1.9v.95h-2.88v1.58h2.71v.96h-2.71Zm2.66-5.94h-6.57v-.93h2.94c-.2-.45-.45-.96-.66-1.37l1.08-.29c.31,.51,.65,1.15,.85,1.65h2.35v.93Zm-5.02,2.4c-.08-.56-.31-1.43-.57-2.09l.89-.21c.3,.64,.55,1.48,.61,2.04l-.93,.26Zm3.81,4.24c.48,.73,1,1.71,1.26,2.36l-.79,.45c-.24-.64-.78-1.68-1.23-2.4l.76-.4Zm7.98-3.07h-1.64v7.56h-1.08v-7.56h-2.06v.52c0,2.15-.19,5.09-1.56,7.04-.18-.21-.61-.55-.85-.67,1.26-1.8,1.38-4.37,1.38-6.36v-5.16c1.68-.27,3.58-.72,4.66-1.17l.88,.82c-1.23,.46-2.94,.84-4.51,1.08v2.85h4.77v1.05Z"/>
    <path class="cls-4" d="M79.36,427.86v1.03h-13.45v-1.03h1.2l-.24-7.98c.85-.27,1.89-.62,2.56-.95l.52,.95c-.63,.24-1.4,.45-2.08,.63l.04,1.78h1.68v.93h-1.65l.06,1.86h1.68v.93h-1.65l.04,1.85h1.96v-8.36h5.17v8.36h2c.03-.54,.06-1.16,.09-1.8h-1.69v-.93h1.72c.02-.6,.05-1.25,.06-1.86h-1.69v-.93h1.71c.02-.69,.03-1.36,.03-1.99h-1.81v-.93h2.82c-.03,2.64-.14,6.15-.26,8.45h1.17Zm-8.22,1.99c-1.21,.91-3,1.94-4.47,2.56-.13-.22-.44-.6-.66-.84,1.44-.58,3.25-1.57,4.17-2.4l.96,.68Zm-.25-1.99h3.46v-7.47h-3.46v7.47Zm2.98-6.42v.76h-2.56v-.76h2.56Zm-2.37,1.77h2.28v3.45h-2.28v-3.45Zm.58,2.73h1.09v-2.01h-1.09v2.01Zm2.61,3.13c1.59,.75,3.28,1.68,4.35,2.4l-.73,.86c-1.02-.73-2.67-1.71-4.23-2.49l.62-.76Z"/>
    <path class="cls-4" d="M94.24,419.43v13.05h-1.1v-.69h-10.29v.69h-1.06v-13.05h12.45Zm-1.1,11.35v-10.33h-10.29v10.33h10.29Zm-5.08-2.28c-1.56,.3-3.15,.62-4.38,.84l-.15-.84c1.14-.18,2.81-.48,4.48-.78l.05,.78Zm3.72-4.37c-.38,1.41-.94,2.64-1.67,3.68,.31,.79,.72,1.3,1.21,1.38,.21,.06,.36-.58,.47-1.54,.18,.18,.51,.4,.72,.5-.19,1.63-.71,2.23-1.48,1.93-.65-.13-1.15-.66-1.56-1.46-.58,.68-1.25,1.25-1.98,1.72-.13-.18-.46-.54-.66-.71,.88-.51,1.63-1.17,2.26-1.95-.4-1.2-.66-2.74-.82-4.44h-4.59v-.84h4.51c-.04-.53-.09-1.05-.12-1.59h.96c.03,.54,.06,1.06,.09,1.59h3.27v.84h-3.19c.12,1.29,.3,2.49,.56,3.45,.48-.81,.85-1.74,1.11-2.76l.92,.2Zm-4.26,.06v2.91h-3.31v-2.91h3.31Zm-.81,.71h-1.73v1.5h1.73v-1.5Zm4.77-2.66c-.33-.33-1.02-.79-1.6-1.05l.52-.55c.58,.27,1.27,.67,1.62,1.02l-.54,.58Z"/>
    <path class="cls-4" d="M108.62,424.82c-.67,.55-1.5,1.15-2.31,1.69,.69,1.98,2.11,3.68,3.99,4.4-.24,.21-.57,.63-.72,.91-1.9-.86-3.33-2.6-4.14-4.75-.23,.15-.48,.3-.71,.42,.51,1.93,.14,3.78-.67,4.41-.48,.41-.87,.53-1.53,.53-.34,0-.81-.01-1.29-.03,0-.31-.12-.75-.29-1.05,.54,.04,1.04,.08,1.35,.08,.39,0,.67-.04,.96-.32,.45-.33,.72-1.36,.58-2.58-1.71,1.3-4.27,2.55-6.42,3.21-.12-.29-.38-.69-.58-.95,2.4-.55,5.31-1.95,6.79-3.3-.1-.35-.23-.71-.41-1.05-1.47,1.01-3.78,2.05-5.56,2.61-.12-.24-.36-.64-.57-.87,1.88-.45,4.38-1.52,5.69-2.49-.2-.31-.44-.6-.72-.88-1.33,.75-2.88,1.33-4.32,1.77-.1-.22-.42-.67-.61-.88,1.89-.45,3.93-1.2,5.35-2.18h-3.42v-.97h8.63v.97h-3.72c-.33,.29-.67,.54-1.06,.8,.69,.69,1.22,1.48,1.53,2.28,1.14-.73,2.43-1.71,3.27-2.49l.92,.72Zm-10.35-1.67h-1.08v-3.07h5.62c-.17-.38-.36-.77-.56-1.1l1.14-.33c.27,.42,.57,.99,.73,1.43h5.54v3.07h-1.13v-2.04h-10.27v2.04Z"/>
    <path class="cls-4" d="M125.11,421.04v3.08h-1.08v-2.12h-10.41v2.12h-1.06v-3.08h2.38c-.29-.51-.73-1.2-1.14-1.69l.96-.41c.51,.57,1.05,1.34,1.32,1.85l-.56,.25h2.65v-2.29h1.11v2.29h2.52l-.42-.16c.45-.54,1.02-1.39,1.33-2l1.13,.39c-.42,.62-.93,1.28-1.36,1.77h2.62Zm-11.53,6.04h10.62v5.36h-1.1v-.39h-8.44v.42h-1.08v-5.38Zm1.08,.86v1.2h3.6v-1.2h-3.6Zm3.6,3.24v-1.23h-3.6v1.23h3.6Zm4.47-8.09v3.12h-7.77v-3.12h7.77Zm-1.09,.84h-5.64v1.42h5.64v-1.42Zm1.47,4h-3.78v1.2h3.78v-1.2Zm0,3.24v-1.23h-3.78v1.23h3.78Z"/>
    <path class="cls-4" d="M130.31,427.59c.54-.24,1.1-.46,1.65-.71l.23,.99c-1.58,.74-3.25,1.49-4.56,2.07l-.43-1.11c.57-.2,1.29-.5,2.07-.83v-4.62h-1.79v-1.06h1.79v-3.4h1.05v3.4h1.6v1.06h-1.6v4.2Zm8.61,3.51c.87,0,1.02-.4,1.13-2.13,.27,.2,.69,.38,1,.42-.18,2.05-.52,2.71-2.08,2.71h-3.69c-1.69,0-2.21-.4-2.21-2.03v-4.71l-1.18,.49-.44-.97,1.62-.68v-4.08h1.06v3.61l2.01-.84v-4.17h1.06v3.72l2.28-.96,.85,.29-.06,.18c-.15,2.12-.4,4.88-.78,6.57l-.92-.27c.25-1.37,.45-3.58,.57-5.47l-1.95,.82v5.51h-1.06v-5.05l-2.01,.85v5.18c0,.81,.2,1,1.17,1h3.62Z"/>
    <path class="cls-4" d="M148,419.57c-1.08,2.46-2.73,4.84-4.4,6.38-.21-.23-.69-.69-.99-.9,1.68-1.39,3.24-3.59,4.17-5.85l1.21,.38Zm4.21,7.13c1.21,1.6,2.64,3.7,3.36,5.04l-1.11,.62c-.21-.42-.5-.9-.81-1.44-7.77,.54-8.59,.58-9.18,.79-.06-.24-.27-.84-.44-1.19,.4-.09,.84-.59,1.4-1.29,.63-.69,2.55-3.37,3.79-5.91l1.24,.52c-1.29,2.33-2.83,4.65-4.39,6.44l6.93-.39c-.58-.93-1.26-1.9-1.86-2.7l1.06-.49Zm.31-7.56c.72,2.37,2.22,4.62,3.97,5.78-.27,.22-.66,.72-.87,1.04-1.7-1.26-3.14-3.42-3.94-5.69h-2.79v-1.13h3.63Z"/>
    <path class="cls-4" d="M162.41,419.09c-.41,1.05-.9,2.1-1.47,3.07v10.25h-1.08v-8.55c-.5,.69-1.02,1.32-1.54,1.86-.12-.24-.42-.81-.63-1.06,1.47-1.42,2.87-3.63,3.71-5.88l1.02,.31Zm3.73,11.4c-.89,.76-2.34,1.5-3.52,1.95-.18-.21-.62-.6-.87-.78,1.21-.36,2.56-.95,3.34-1.58l1.05,.41Zm5.56-7.83v.81h-9.76v-.81h4.35v-.81h-3.3v-.75h3.3v-.75h-3.69v-.77h3.69v-.82h1.11v.82h3.84v.77h-3.84v.75h3.45v.75h-3.45v.81h4.3Zm-.97,7.17h-7.6v-5.63h7.6v5.63Zm-1.1-4.88h-5.44v.91h5.44v-.91Zm0,1.57h-5.44v.93h5.44v-.93Zm0,1.59h-5.44v.95h5.44v-.95Zm-.85,1.9c1.05,.57,2.28,1.35,2.92,1.89l-.99,.62c-.63-.55-1.89-1.44-2.92-2.03l.99-.48Z"/>
  </g>
  <g>
    <path class="cls-4" d="M231.93,419.05c1.4,2.08,3.98,4.09,6.34,5.08-.22,.22-.6,.69-.75,.97-2.27-1.06-4.64-3-6.18-4.99-1.54,1.9-4.09,3.97-6.19,5.1-.14-.29-.44-.66-.69-.9,1.86-.87,4.1-2.56,5.58-4.21h-2.67v-1.05h4.56Zm-.06,11.86h5.85v1.02h-12.67v-1.02h5.68v-2.49h-4.2v-.99h4.2v-2.29h-3.55v-1.01h8.37v1.01h-3.67v2.29h4.26v.99h-4.26v2.49Z"/>
    <path class="cls-4" d="M244.82,429.27c-1.67,.52-3.43,1.08-4.78,1.53l-.24-1.08c.54-.15,1.22-.35,1.96-.57v-4.14h-1.66v-1.04h1.66v-3.26h-1.8v-1.05h4.57v1.05h-1.72v3.26h1.51v1.04h-1.51v3.82l1.84-.59,.17,1.02Zm8.52-5.61c-.78,1.08-1.8,2.38-2.61,3.22,.68,1.46,1.64,2.57,3.06,3.56-.25,.19-.56,.52-.71,.84-1.68-1.25-2.76-2.63-3.46-4.52v4.2c0,.68-.18,.99-.58,1.17-.44,.21-1.11,.24-2.28,.24-.06-.3-.24-.78-.41-1.08,.87,.03,1.64,.02,1.86,.02,.24-.02,.33-.09,.33-.35v-3.54c-1.23,1.24-2.5,2.47-3.52,3.44l-.69-.96c1.02-.84,2.67-2.31,4.21-3.71v-3.9h-3.63v-1.04h3.63v-2.6h1.08v2.6h3.93v1.04h-3.93v.54c.19,1.2,.42,2.23,.73,3.13,.72-.86,1.52-1.98,2.01-2.83l.97,.52Zm-7.35-.43c.66,.85,1.37,2.01,1.63,2.77l-.91,.44c-.27-.75-.95-1.95-1.59-2.8l.87-.4Zm6.12-2.16c-.36-.5-1.11-1.19-1.77-1.65l.65-.58c.64,.45,1.42,1.11,1.8,1.56l-.68,.68Z"/>
    <path class="cls-4" d="M259.62,418.99c-.41,1.05-.9,2.1-1.47,3.07v10.25h-1.08v-8.55c-.5,.69-1.02,1.32-1.54,1.86-.12-.24-.42-.81-.63-1.06,1.47-1.42,2.87-3.63,3.71-5.88l1.02,.31Zm3.73,11.4c-.89,.76-2.34,1.5-3.52,1.95-.18-.21-.62-.6-.87-.78,1.21-.36,2.56-.95,3.34-1.58l1.05,.41Zm5.56-7.83v.81h-9.76v-.81h4.35v-.81h-3.3v-.75h3.3v-.75h-3.69v-.77h3.69v-.82h1.11v.82h3.84v.77h-3.84v.75h3.45v.75h-3.45v.81h4.3Zm-.97,7.17h-7.6v-5.63h7.6v5.63Zm-1.1-4.88h-5.44v.91h5.44v-.91Zm0,1.57h-5.44v.93h5.44v-.93Zm0,1.59h-5.44v.95h5.44v-.95Zm-.85,1.9c1.05,.57,2.28,1.35,2.92,1.89l-.99,.62c-.63-.55-1.89-1.44-2.92-2.03l.99-.48Z"/>
  </g>
  <g>
    <path class="cls-4" d="M332.27,425.24v.99h-6.25c-.04,.4-.1,.79-.18,1.15h6.19v.98h-6.46c-.71,2.05-2.31,3.33-6.24,4-.09-.29-.38-.75-.58-1,3.46-.5,4.93-1.46,5.61-3h-5.04v-.98h5.35c.09-.36,.15-.75,.19-1.15h-5.88v-.99h6.01v-1.26h-4.66v-.97h4.66v-1.21h-5.49v-1.01h3.17c-.24-.52-.71-1.21-1.15-1.74l.96-.39c.55,.57,1.08,1.35,1.32,1.89l-.54,.24h3.94c.45-.62,.98-1.5,1.29-2.13l1.14,.34c-.36,.62-.81,1.26-1.2,1.79h3.19v1.01h-5.52v1.21h4.8v.97h-4.8v1.26h6.16Zm-6.13,3.29c2.05,.78,4.75,2.07,6.12,2.97l-.52,.96c-1.32-.93-4-2.28-6.07-3.11l.48-.82Z"/>
    <path class="cls-4" d="M347.18,419.39v13.05h-1.1v-.69h-10.29v.69h-1.06v-13.05h12.45Zm-1.1,11.36v-10.34h-10.29v10.34h10.29Zm-5.08-2.28c-1.56,.3-3.15,.62-4.38,.84l-.15-.84c1.14-.18,2.81-.48,4.48-.78l.05,.78Zm3.72-4.36c-.38,1.41-.95,2.64-1.67,3.67,.31,.79,.72,1.3,1.21,1.38,.21,.06,.36-.59,.46-1.54,.18,.18,.51,.4,.72,.49-.19,1.63-.71,2.23-1.48,1.94-.65-.13-1.16-.66-1.56-1.46-.58,.67-1.25,1.24-1.98,1.72-.13-.18-.46-.54-.66-.71,.88-.51,1.63-1.17,2.26-1.95-.4-1.2-.66-2.75-.82-4.44h-4.59v-.84h4.51c-.04-.52-.09-1.05-.12-1.59h.96c.03,.54,.06,1.07,.09,1.59h3.27v.84h-3.19c.12,1.29,.3,2.49,.56,3.45,.48-.81,.85-1.74,1.11-2.76l.92,.2Zm-4.26,.06v2.91h-3.31v-2.91h3.31Zm-.81,.71h-1.73v1.5h1.73v-1.5Zm4.77-2.65c-.33-.33-1.02-.79-1.6-1.05l.53-.55c.58,.27,1.27,.68,1.62,1.02l-.54,.59Z"/>
    <path class="cls-4" d="M363.06,425.42h-6.12v6.97h-1.19v-6.97h-6.04v-1.14h6.04v-5.55h1.19v5.55h6.12v1.14Z"/>
    <path class="cls-4" d="M378.45,428.97h-5.43v3.44h-1.13v-3.44h-6.93v-1.08h2.46v-4.02h4.47v-2.28h-3.65c-.67,1.15-1.47,2.18-2.28,2.96-.21-.18-.68-.55-.96-.71,1.41-1.23,2.67-3.16,3.38-5.18l1.12,.27c-.21,.53-.45,1.06-.69,1.57h8.94v1.08h-4.74v2.28h4.39v1.05h-4.39v2.97h5.43v1.08Zm-6.55-1.08v-2.97h-3.36v2.97h3.36Z"/>
    <path class="cls-4" d="M387.53,428.78h-7.32v-1.01h1.46v-6.09h-1.26v-1h1.26v-1.8h1.02v1.8h2.71v-1.8h1.03v1.8h1.1v1h-1.1v6.09h1.1v1.01Zm-4.19,.6c-.54,1.15-1.39,2.29-2.22,3.03-.21-.18-.63-.49-.9-.64,.82-.68,1.6-1.68,2.05-2.67l1.06,.29Zm-.66-7.7v1.32h2.71v-1.32h-2.71Zm0,3.69h2.71v-1.47h-2.71v1.47Zm0,2.4h2.71v-1.5h-2.71v1.5Zm2.59,1.32c.6,.67,1.29,1.61,1.58,2.22l-.9,.53c-.27-.6-.94-1.57-1.54-2.28l.87-.46Zm8.17,1.88c0,.66-.17,.99-.57,1.17-.44,.18-1.13,.21-2.24,.21-.04-.31-.21-.79-.34-1.08,.79,.02,1.54,.02,1.75,0,.23,0,.31-.07,.31-.31v-3.6h-3.17c-.15,1.79-.52,3.69-1.42,5.13-.18-.21-.63-.55-.88-.64,1.24-1.98,1.36-4.83,1.36-6.97v-5.41h5.19v11.52Zm-1.08-4.62v-2.49h-3.06v1c0,.46-.01,.97-.03,1.48h3.09Zm-3.06-5.88v2.38h3.06v-2.38h-3.06Z"/>
    <path class="cls-4" d="M400.94,419.53c-1.08,2.46-2.73,4.85-4.4,6.38-.21-.22-.69-.69-.99-.9,1.68-1.39,3.24-3.58,4.17-5.85l1.21,.38Zm4.21,7.13c1.21,1.61,2.64,3.71,3.36,5.04l-1.11,.62c-.21-.42-.5-.9-.81-1.44-7.77,.54-8.59,.59-9.18,.79-.06-.24-.27-.84-.44-1.19,.4-.09,.84-.58,1.4-1.29,.63-.69,2.55-3.38,3.79-5.91l1.24,.53c-1.29,2.32-2.83,4.65-4.39,6.44l6.93-.39c-.58-.93-1.26-1.9-1.86-2.7l1.06-.5Zm.31-7.56c.72,2.37,2.22,4.62,3.97,5.77-.27,.22-.66,.72-.87,1.04-1.7-1.26-3.14-3.42-3.94-5.68h-2.79v-1.13h3.63Z"/>
    <path class="cls-4" d="M415.35,419.04c-.41,1.05-.9,2.1-1.47,3.08v10.24h-1.08v-8.55c-.5,.69-1.02,1.32-1.54,1.86-.12-.24-.42-.81-.63-1.06,1.47-1.43,2.87-3.63,3.71-5.88l1.02,.31Zm3.73,11.4c-.89,.77-2.34,1.5-3.52,1.95-.18-.21-.62-.6-.87-.78,1.21-.36,2.56-.95,3.34-1.57l1.05,.4Zm5.56-7.83v.81h-9.76v-.81h4.35v-.81h-3.3v-.75h3.3v-.75h-3.69v-.77h3.69v-.82h1.11v.82h3.84v.77h-3.84v.75h3.45v.75h-3.45v.81h4.3Zm-.97,7.17h-7.6v-5.63h7.6v5.63Zm-1.1-4.88h-5.44v.92h5.44v-.92Zm0,1.58h-5.44v.93h5.44v-.93Zm0,1.59h-5.44v.94h5.44v-.94Zm-.85,1.9c1.05,.57,2.28,1.35,2.92,1.89l-.99,.61c-.63-.55-1.89-1.44-2.92-2.02l.99-.48Z"/>
  </g>
  <g>
    <path class="cls-4" d="M459.6,425.34v.99h-6.25c-.04,.4-.1,.79-.18,1.15h6.19v.98h-6.46c-.71,2.05-2.31,3.33-6.24,4-.09-.29-.38-.75-.58-1,3.46-.5,4.93-1.46,5.61-3h-5.04v-.98h5.36c.09-.36,.15-.75,.19-1.15h-5.88v-.99h6.01v-1.26h-4.67v-.97h4.67v-1.21h-5.49v-1.01h3.17c-.24-.52-.71-1.21-1.16-1.74l.96-.39c.56,.57,1.08,1.35,1.32,1.89l-.54,.24h3.94c.45-.62,.98-1.5,1.29-2.13l1.14,.34c-.36,.62-.81,1.26-1.2,1.79h3.2v1.01h-5.52v1.21h4.8v.97h-4.8v1.26h6.17Zm-6.13,3.29c2.05,.78,4.75,2.07,6.12,2.97l-.53,.96c-1.32-.93-4-2.28-6.08-3.11l.48-.82Z"/>
    <path class="cls-4" d="M474.51,419.49v13.05h-1.09v-.69h-10.29v.69h-1.06v-13.05h12.45Zm-1.09,11.36v-10.34h-10.29v10.34h10.29Zm-5.08-2.28c-1.56,.3-3.15,.62-4.38,.84l-.15-.84c1.14-.18,2.8-.48,4.49-.78l.04,.78Zm3.72-4.36c-.38,1.41-.95,2.64-1.67,3.67,.32,.79,.72,1.3,1.21,1.38,.21,.06,.36-.59,.46-1.54,.18,.18,.51,.4,.72,.49-.2,1.63-.71,2.23-1.49,1.94-.65-.13-1.16-.66-1.56-1.46-.58,.67-1.25,1.24-1.98,1.72-.13-.18-.46-.54-.66-.71,.88-.51,1.63-1.17,2.27-1.95-.41-1.2-.66-2.75-.83-4.44h-4.59v-.84h4.51c-.04-.52-.09-1.05-.12-1.59h.96c.03,.54,.06,1.07,.09,1.59h3.27v.84h-3.2c.12,1.29,.3,2.49,.55,3.45,.48-.81,.86-1.74,1.11-2.76l.92,.2Zm-4.26,.06v2.91h-3.32v-2.91h3.32Zm-.81,.71h-1.72v1.5h1.72v-1.5Zm4.77-2.65c-.33-.33-1.02-.79-1.61-1.05l.53-.55c.58,.27,1.27,.68,1.62,1.02l-.54,.59Z"/>
    <path class="cls-4" d="M489.5,422.62c-.4,2.49-1,4.5-1.98,6.13,.81,1.25,1.83,2.21,3.12,2.8-.24,.22-.58,.66-.77,.95-1.23-.64-2.22-1.59-3.01-2.76-.85,1.13-1.96,2.05-3.38,2.79-.12-.25-.43-.73-.64-.97,1.47-.71,2.56-1.63,3.41-2.83-.66-1.23-1.16-2.67-1.55-4.26-.3,.6-.63,1.15-.97,1.63-.18-.2-.64-.57-.88-.73l.08-.11h-1.68v3.81l2.57-.58,.1,1c-2.46,.6-5.11,1.23-6.97,1.65l-.21-1.11,.88-.18v-6.66h1.02v6.44l1.53-.33v-8.36h-3.18v-1.08h6.86v1.08h-2.6v3.27h2.04v.53c1-1.56,1.68-3.69,2.08-5.94l1.11,.2c-.18,.88-.41,1.77-.65,2.58h4.68v1.05h-1.01Zm-4.12,.26c.34,1.77,.82,3.4,1.51,4.79,.72-1.38,1.18-3.06,1.49-5.04h-2.9l-.1,.26Z"/>
    <path class="cls-4" d="M494.4,421.47v4.41c0,2.02-.17,4.88-1.28,6.7-.21-.21-.69-.54-.95-.64,1.02-1.7,1.11-4.18,1.11-6.06v-5.45h5.97c-.18-.48-.43-1.04-.67-1.47l1.09-.31c.3,.55,.65,1.26,.87,1.79h5.19v1.04h-11.34Zm4.2,.62c-.29,.82-.66,1.68-1.11,2.5v7.92h-1.05v-6.29c-.36,.5-.77,.96-1.19,1.37-.1-.27-.36-.75-.51-1,1.25-1.2,2.26-3.18,2.77-4.8l1.08,.3Zm7.14,3.13h-1.69v5.89c0,.67-.15,.99-.6,1.19-.46,.18-1.21,.19-2.35,.19-.04-.31-.22-.78-.38-1.11,.87,.04,1.68,.03,1.91,.03,.24-.01,.33-.07,.33-.31v-5.88h-4.48v-1.05h4.48v-2.23h1.1v2.23h1.69v1.05Zm-5.83,1.04c.66,.93,1.39,2.14,1.74,2.92l-.94,.46c-.35-.79-1.08-2.05-1.68-3l.89-.39Z"/>
    <path class="cls-4" d="M511.94,419.14c-.4,1.05-.9,2.1-1.47,3.08v10.24h-1.08v-8.55c-.5,.69-1.02,1.32-1.54,1.86-.12-.24-.42-.81-.63-1.06,1.47-1.43,2.87-3.63,3.71-5.88l1.02,.31Zm3.74,11.4c-.88,.77-2.34,1.5-3.53,1.95-.18-.21-.61-.6-.87-.78,1.21-.36,2.56-.95,3.34-1.57l1.05,.4Zm5.56-7.83v.81h-9.76v-.81h4.35v-.81h-3.3v-.75h3.3v-.75h-3.69v-.77h3.69v-.82h1.11v.82h3.84v.77h-3.84v.75h3.45v.75h-3.45v.81h4.3Zm-.97,7.17h-7.6v-5.63h7.6v5.63Zm-1.09-4.88h-5.45v.92h5.45v-.92Zm0,1.58h-5.45v.93h5.45v-.93Zm0,1.59h-5.45v.94h5.45v-.94Zm-.86,1.9c1.05,.57,2.28,1.35,2.92,1.89l-.99,.61c-.63-.55-1.89-1.44-2.92-2.02l.99-.48Z"/>
    <path class="cls-4" d="M523.16,425.86c0-3.55,2.13-5.71,5.04-5.71,1.53,0,2.53,.69,3.16,1.37l-.75,.9c-.55-.59-1.26-1.05-2.38-1.05-2.21,0-3.64,1.71-3.64,4.46s1.3,4.52,3.67,4.52c.78,0,1.54-.24,1.98-.65v-2.88h-2.32v-1.16h3.6v4.62c-.71,.73-1.92,1.28-3.41,1.28-2.88,0-4.95-2.12-4.95-5.69Z"/>
    <path class="cls-4" d="M534.5,420.34h1.44l4,6.95,1.17,2.26h.08c-.08-1.11-.18-2.34-.18-3.48v-5.73h1.32v11.01h-1.43l-4-6.95-1.18-2.27h-.06c.06,1.11,.17,2.28,.17,3.44v5.78h-1.32v-11.01Z"/>
    <path class="cls-4" d="M545.7,420.34h1.68l2.12,5.89c.25,.77,.51,1.53,.78,2.29h.07c.25-.77,.5-1.53,.75-2.29l2.1-5.89h1.68v11.01h-1.3v-6.09c0-.95,.1-2.28,.18-3.24h-.06l-.87,2.5-2.08,5.71h-.93l-2.08-5.71-.87-2.5h-.06c.06,.96,.17,2.29,.17,3.24v6.09h-1.26v-11.01Z"/>
    <path class="cls-4" d="M560.54,420.34h1.54l3.73,11.01h-1.47l-1.05-3.36h-4.02l-1.06,3.36h-1.41l3.74-11.01Zm-.92,6.54h3.33l-.52-1.68c-.41-1.24-.75-2.45-1.11-3.72h-.06c-.34,1.29-.71,2.47-1.09,3.72l-.54,1.68Z"/>
  </g>
  <g>
    <path class="cls-4" d="M597.24,426.77v4.21c0,.63-.17,.93-.56,1.09-.38,.18-1,.21-2.02,.21-.04-.29-.21-.74-.34-1.04,.72,.03,1.36,.01,1.54,.01,.21,0,.28-.07,.28-.28v-3.87l-1.89,.55-.33-1.08c.62-.15,1.38-.36,2.22-.6v-3.22h-2.04v-1.05h2.04v-3h1.1v3h1.86v1.05h-1.86v2.93l1.39-.41,.15,1.02-1.54,.47Zm9.4-1.2c-.6,1.8-1.63,3.21-2.92,4.29,1.13,.7,2.47,1.23,3.97,1.54-.25,.24-.55,.7-.71,1.02-1.6-.39-3.03-1.02-4.2-1.88-1.31,.88-2.82,1.48-4.4,1.89-.1-.31-.34-.78-.55-1.02,1.44-.31,2.83-.84,4.05-1.59-1.02-.95-1.84-2.1-2.44-3.43l.15-.06h-.58v-1.05h6.71l.21-.04,.72,.33Zm-5.13-4.65c0,1.34-.41,2.94-2.25,4.01-.13-.22-.52-.64-.73-.82,1.67-.92,1.93-2.15,1.93-3.21v-1.65h4.72v3.46c0,.42,.04,.57,.29,.57h1.16c.22,0,.55-.03,.75-.07,.01,.29,.04,.71,.09,.96-.2,.06-.51,.08-.81,.08h-1.26c-1.05,0-1.27-.44-1.27-1.54v-2.4h-2.61v.63Zm-.99,5.42c.53,1.09,1.32,2.05,2.28,2.87,.97-.78,1.8-1.73,2.34-2.87h-4.62Z"/>
    <path class="cls-4" d="M613.82,422.83h-4.29v-.9h4.29v.9Zm1.19,7.74c-1.2,.72-3.09,1.43-4.58,1.83-.19-.22-.57-.64-.83-.84,1.53-.31,3.33-.85,4.4-1.44l1,.45Zm-1.56-10.09h-3.58v-.87h3.58v.87Zm-1.95,3.53h9.7v6.01h-9.7v-6.01Zm1.08,1.77h7.51v-1.02h-7.51v1.02Zm0,1.74h7.51v-1.02h-7.51v1.02Zm0,1.77h7.51v-1.05h-7.51v1.05Zm3.6-8.69c-.33,.57-.72,1.1-1.13,1.5-.18-.16-.6-.45-.84-.57,.78-.71,1.39-1.76,1.72-2.85l1,.23c-.09,.29-.21,.55-.31,.82h5.02l.18-.04,.75,.26c-.38,.76-.85,1.63-1.26,2.16l-.88-.31c.22-.31,.5-.75,.71-1.19h-2.38v.2c0,.15-.02,.32-.04,.5,.79,.9,2.43,1.48,4.39,1.65-.21,.21-.5,.61-.63,.88-1.71-.24-3.15-.84-4.08-1.76-.5,.73-1.68,1.43-4.32,1.83-.12-.24-.41-.64-.6-.82,3.88-.53,4.25-1.54,4.25-2.33v-.15h-1.54Zm2.25,9.51c1.6,.5,3.36,1.14,4.41,1.62l-.97,.64c-.96-.48-2.58-1.13-4.2-1.66l.77-.6Z"/>
    <path class="cls-4" d="M629.84,427.67c-.04-.25-.12-.54-.22-.87-3.46,.54-3.93,.66-4.23,.82-.06-.22-.22-.75-.34-1.05,.31-.06,.66-.44,1.11-.97,.24-.27,.72-.89,1.26-1.7-1.59,.2-1.91,.27-2.12,.36-.06-.21-.24-.75-.36-1.02,.26-.06,.53-.38,.84-.83,.31-.43,1.35-2.14,1.96-3.76l1.05,.44c-.66,1.41-1.49,2.83-2.31,3.97l1.58-.15c.41-.64,.79-1.34,1.14-2.01l.96,.57c-.99,1.72-2.16,3.45-3.37,4.83l2.58-.38c-.18-.46-.38-.94-.55-1.36l.79-.29c.5,.99,.96,2.26,1.11,3.04l-.87,.34Zm-3.29,.78c-.15,1.27-.45,2.68-.76,3.61-.18-.1-.63-.25-.86-.33,.35-.92,.57-2.25,.72-3.45l.9,.17Zm1.52-.23c.18,.95,.36,2.16,.4,2.99l-.85,.2c-.04-.81-.2-2.06-.36-3.02l.81-.17Zm1.6-.36c.3,.78,.63,1.77,.76,2.42l-.84,.28c-.1-.66-.43-1.68-.72-2.46l.79-.24Zm8.37-3.99c-.41,2.19-1.16,3.99-2.13,5.43,.72,.92,1.59,1.63,2.64,2.1-.25,.21-.6,.63-.77,.93-1-.51-1.84-1.25-2.55-2.15-.78,.93-1.68,1.68-2.65,2.22-.15-.27-.45-.66-.71-.84,.99-.53,1.92-1.3,2.71-2.31-.74-1.23-1.29-2.67-1.7-4.26-.29,3-.87,5.42-2.22,7.3-.18-.18-.71-.55-.97-.69,1.96-2.45,2.28-6.29,2.32-11.14h-1.47v-1.05h5.29l.18-.06,.77,.12c-.17,1.23-.42,2.87-.69,4.2h1.05l.2-.06,.69,.25Zm-4.92-3.4c-.03,1.13-.06,2.21-.12,3.21h2.05c.2-1.01,.41-2.25,.55-3.21h-2.49Zm.66,4.21c.35,1.34,.83,2.58,1.47,3.64,.66-1.05,1.18-2.28,1.53-3.64h-3Z"/>
    <path class="cls-4" d="M645.48,419.53c-1.08,2.46-2.73,4.85-4.39,6.38-.21-.22-.69-.69-.99-.9,1.68-1.39,3.24-3.58,4.17-5.85l1.21,.38Zm4.21,7.13c1.21,1.61,2.64,3.71,3.36,5.04l-1.11,.62c-.21-.42-.5-.9-.81-1.44-7.77,.54-8.59,.59-9.18,.79-.06-.24-.27-.84-.43-1.19,.4-.09,.84-.58,1.39-1.29,.63-.69,2.55-3.38,3.79-5.91l1.25,.53c-1.29,2.32-2.83,4.65-4.4,6.44l6.93-.39c-.58-.93-1.26-1.9-1.86-2.7l1.06-.5Zm.32-7.56c.72,2.37,2.22,4.62,3.97,5.77-.27,.22-.66,.72-.87,1.04-1.69-1.26-3.13-3.42-3.94-5.68h-2.79v-1.13h3.63Z"/>
    <path class="cls-4" d="M668.15,430.75c0,.76-.17,1.15-.67,1.35-.53,.2-1.46,.21-2.79,.21-.04-.33-.21-.88-.39-1.2,1.03,.03,2.07,.03,2.37,.02,.29-.02,.36-.09,.36-.38v-10.01h-10.78v-1.06h11.91v11.07Zm-2.83-7.44h-8.97v-1.01h8.97v1.01Zm-6.93,6.37v1.1h-1.09v-5.87h7v4.77h-5.91Zm0-3.78v2.79h4.81v-2.79h-4.81Z"/>
    <path class="cls-4" d="M675.27,419.04c-.4,1.05-.9,2.1-1.47,3.08v10.24h-1.08v-8.55c-.5,.69-1.02,1.32-1.54,1.86-.12-.24-.42-.81-.63-1.06,1.47-1.43,2.87-3.63,3.71-5.88l1.02,.31Zm3.74,11.4c-.88,.77-2.34,1.5-3.53,1.95-.18-.21-.61-.6-.87-.78,1.21-.36,2.56-.95,3.34-1.57l1.05,.4Zm5.56-7.83v.81h-9.76v-.81h4.35v-.81h-3.3v-.75h3.3v-.75h-3.69v-.77h3.69v-.82h1.11v.82h3.84v.77h-3.84v.75h3.45v.75h-3.45v.81h4.3Zm-.97,7.17h-7.6v-5.63h7.6v5.63Zm-1.09-4.88h-5.45v.92h5.45v-.92Zm0,1.58h-5.45v.93h5.45v-.93Zm0,1.59h-5.45v.94h5.45v-.94Zm-.86,1.9c1.05,.57,2.28,1.35,2.92,1.89l-.99,.61c-.63-.55-1.89-1.44-2.92-2.02l.99-.48Z"/>
  </g>
  <g>
    <path class="cls-4" d="M717.58,426.77v4.21c0,.63-.17,.93-.56,1.09-.38,.18-1,.21-2.02,.21-.04-.29-.21-.74-.34-1.04,.72,.03,1.36,.01,1.54,.01,.21,0,.28-.07,.28-.28v-3.87l-1.89,.55-.33-1.08c.62-.15,1.38-.36,2.22-.6v-3.22h-2.04v-1.05h2.04v-3h1.1v3h1.86v1.05h-1.86v2.93l1.39-.41,.15,1.02-1.54,.47Zm9.4-1.2c-.6,1.8-1.63,3.21-2.92,4.29,1.13,.7,2.47,1.23,3.97,1.54-.25,.24-.55,.7-.71,1.02-1.6-.39-3.03-1.02-4.2-1.88-1.31,.88-2.82,1.48-4.4,1.89-.1-.31-.34-.78-.55-1.02,1.44-.31,2.83-.84,4.05-1.59-1.02-.95-1.84-2.1-2.44-3.43l.15-.06h-.58v-1.05h6.71l.21-.04,.72,.33Zm-5.13-4.65c0,1.34-.41,2.94-2.25,4.01-.13-.22-.52-.64-.73-.82,1.67-.92,1.93-2.15,1.93-3.21v-1.65h4.72v3.46c0,.42,.04,.57,.29,.57h1.16c.22,0,.55-.03,.75-.07,.01,.29,.04,.71,.09,.96-.2,.06-.51,.08-.81,.08h-1.26c-1.05,0-1.27-.44-1.27-1.54v-2.4h-2.61v.63Zm-.99,5.42c.53,1.09,1.32,2.05,2.28,2.87,.97-.78,1.8-1.73,2.34-2.87h-4.62Z"/>
    <path class="cls-4" d="M734.16,422.83h-4.29v-.9h4.29v.9Zm1.19,7.74c-1.2,.72-3.09,1.43-4.58,1.83-.19-.22-.57-.64-.83-.84,1.53-.31,3.33-.85,4.4-1.44l1,.45Zm-1.56-10.09h-3.58v-.87h3.58v.87Zm-1.95,3.53h9.7v6.01h-9.7v-6.01Zm1.08,1.77h7.51v-1.02h-7.51v1.02Zm0,1.74h7.51v-1.02h-7.51v1.02Zm0,1.77h7.51v-1.05h-7.51v1.05Zm3.6-8.69c-.33,.57-.72,1.1-1.13,1.5-.18-.16-.6-.45-.84-.57,.78-.71,1.39-1.76,1.72-2.85l1,.23c-.09,.29-.21,.55-.31,.82h5.02l.18-.04,.75,.26c-.38,.76-.85,1.63-1.26,2.16l-.88-.31c.22-.31,.5-.75,.71-1.19h-2.38v.2c0,.15-.02,.32-.04,.5,.79,.9,2.43,1.48,4.39,1.65-.21,.21-.5,.61-.63,.88-1.71-.24-3.15-.84-4.08-1.76-.5,.73-1.68,1.43-4.32,1.83-.12-.24-.41-.64-.6-.82,3.88-.53,4.25-1.54,4.25-2.33v-.15h-1.54Zm2.25,9.51c1.6,.5,3.36,1.14,4.41,1.62l-.97,.64c-.96-.48-2.58-1.13-4.2-1.66l.77-.6Z"/>
    <path class="cls-4" d="M750.18,427.67c-.04-.25-.12-.54-.22-.87-3.46,.54-3.93,.66-4.23,.82-.06-.22-.22-.75-.34-1.05,.31-.06,.66-.44,1.11-.97,.24-.27,.72-.89,1.26-1.7-1.59,.2-1.91,.27-2.12,.36-.06-.21-.24-.75-.36-1.02,.26-.06,.53-.38,.84-.83,.31-.43,1.35-2.14,1.96-3.76l1.05,.44c-.66,1.41-1.49,2.83-2.31,3.97l1.58-.15c.41-.64,.79-1.34,1.14-2.01l.96,.57c-.99,1.72-2.16,3.45-3.37,4.83l2.58-.38c-.18-.46-.38-.94-.55-1.36l.79-.29c.5,.99,.96,2.26,1.11,3.04l-.87,.34Zm-3.29,.78c-.15,1.27-.45,2.68-.76,3.61-.18-.1-.63-.25-.86-.33,.35-.92,.57-2.25,.72-3.45l.9,.17Zm1.52-.23c.18,.95,.36,2.16,.4,2.99l-.85,.2c-.04-.81-.2-2.06-.36-3.02l.81-.17Zm1.6-.36c.3,.78,.63,1.77,.76,2.42l-.84,.28c-.1-.66-.43-1.68-.72-2.46l.79-.24Zm8.37-3.99c-.41,2.19-1.16,3.99-2.13,5.43,.72,.92,1.59,1.63,2.64,2.1-.25,.21-.6,.63-.77,.93-1-.51-1.84-1.25-2.55-2.15-.78,.93-1.68,1.68-2.65,2.22-.15-.27-.45-.66-.71-.84,.99-.53,1.92-1.3,2.71-2.31-.74-1.23-1.29-2.67-1.7-4.26-.29,3-.87,5.42-2.22,7.3-.18-.18-.71-.55-.97-.69,1.96-2.45,2.28-6.29,2.32-11.14h-1.47v-1.05h5.29l.18-.06,.77,.12c-.17,1.23-.42,2.87-.69,4.2h1.05l.2-.06,.69,.25Zm-4.92-3.4c-.03,1.13-.06,2.21-.12,3.21h2.05c.2-1.01,.41-2.25,.55-3.21h-2.49Zm.66,4.21c.35,1.34,.83,2.58,1.47,3.64,.66-1.05,1.18-2.28,1.53-3.64h-3Z"/>
    <path class="cls-4" d="M765.82,419.53c-1.08,2.46-2.73,4.85-4.39,6.38-.21-.22-.69-.69-.99-.9,1.68-1.39,3.24-3.58,4.17-5.85l1.21,.38Zm4.21,7.13c1.21,1.61,2.64,3.71,3.36,5.04l-1.11,.62c-.21-.42-.5-.9-.81-1.44-7.77,.54-8.59,.59-9.18,.79-.06-.24-.27-.84-.43-1.19,.4-.09,.84-.58,1.39-1.29,.63-.69,2.55-3.38,3.79-5.91l1.25,.53c-1.29,2.32-2.83,4.65-4.4,6.44l6.93-.39c-.58-.93-1.26-1.9-1.86-2.7l1.06-.5Zm.32-7.56c.72,2.37,2.22,4.62,3.97,5.77-.27,.22-.66,.72-.87,1.04-1.69-1.26-3.13-3.42-3.94-5.68h-2.79v-1.13h3.63Z"/>
    <path class="cls-4" d="M788.49,430.75c0,.76-.17,1.15-.67,1.35-.53,.2-1.46,.21-2.79,.21-.04-.33-.21-.88-.39-1.2,1.03,.03,2.07,.03,2.37,.02,.29-.02,.36-.09,.36-.38v-10.01h-10.78v-1.06h11.91v11.07Zm-2.83-7.44h-8.97v-1.01h8.97v1.01Zm-6.93,6.37v1.1h-1.09v-5.87h7v4.77h-5.91Zm0-3.78v2.79h4.81v-2.79h-4.81Z"/>
    <path class="cls-4" d="M795.61,419.04c-.4,1.05-.9,2.1-1.47,3.08v10.24h-1.08v-8.55c-.5,.69-1.02,1.32-1.54,1.86-.12-.24-.42-.81-.63-1.06,1.47-1.43,2.87-3.63,3.71-5.88l1.02,.31Zm3.74,11.4c-.88,.77-2.34,1.5-3.53,1.95-.18-.21-.61-.6-.87-.78,1.21-.36,2.56-.95,3.34-1.57l1.05,.4Zm5.56-7.83v.81h-9.76v-.81h4.35v-.81h-3.3v-.75h3.3v-.75h-3.69v-.77h3.69v-.82h1.11v.82h3.84v.77h-3.84v.75h3.45v.75h-3.45v.81h4.3Zm-.97,7.17h-7.6v-5.63h7.6v5.63Zm-1.09-4.88h-5.45v.92h5.45v-.92Zm0,1.58h-5.45v.93h5.45v-.93Zm0,1.59h-5.45v.94h5.45v-.94Zm-.86,1.9c1.05,.57,2.28,1.35,2.92,1.89l-.99,.61c-.63-.55-1.89-1.44-2.92-2.02l.99-.48Z"/>
  </g>
  <g>
    <path class="cls-4" d="M825.28,428.24c-.36,1.06-.99,2.23-1.54,2.98-.18-.13-.55-.42-.78-.54,.58-.71,1.11-1.72,1.41-2.7l.92,.26Zm1.84-1.05v5.21h-1.09v-5.21h-2.99v-.96h2.99v-1.58h-3.06v-.95h4.14c.29-.69,.63-1.68,.81-2.37l1.02,.21c-.27,.72-.56,1.53-.84,2.16h1.9v.95h-2.88v1.58h2.71v.96h-2.71Zm2.66-5.94h-6.57v-.93h2.94c-.2-.45-.45-.96-.66-1.37l1.08-.29c.31,.51,.64,1.15,.85,1.65h2.36v.93Zm-5.03,2.4c-.07-.56-.31-1.43-.57-2.09l.88-.21c.3,.64,.55,1.48,.62,2.04l-.93,.26Zm3.81,4.24c.48,.73,1,1.71,1.26,2.36l-.79,.45c-.24-.64-.78-1.68-1.23-2.4l.77-.4Zm7.98-3.07h-1.63v7.56h-1.08v-7.56h-2.05v.52c0,2.15-.2,5.09-1.56,7.04-.18-.21-.62-.55-.85-.67,1.26-1.8,1.38-4.37,1.38-6.36v-5.16c1.68-.27,3.58-.72,4.67-1.17l.88,.82c-1.23,.46-2.94,.84-4.51,1.08v2.85h4.77v1.05Z"/>
    <path class="cls-4" d="M851.83,427.86v1.03h-13.46v-1.03h1.2l-.24-7.98c.86-.27,1.89-.62,2.57-.95l.52,.95c-.63,.24-1.39,.45-2.08,.63l.04,1.78h1.68v.93h-1.65l.06,1.86h1.68v.93h-1.65l.04,1.85h1.97v-8.36h5.17v8.36h1.99c.03-.54,.06-1.16,.09-1.8h-1.69v-.93h1.72c.02-.6,.04-1.25,.06-1.86h-1.7v-.93h1.71c.01-.69,.03-1.36,.03-1.99h-1.82v-.93h2.82c-.03,2.64-.13,6.15-.25,8.45h1.17Zm-8.22,1.99c-1.21,.91-3,1.94-4.47,2.56-.14-.22-.44-.6-.66-.84,1.44-.58,3.25-1.57,4.17-2.4l.96,.68Zm-.25-1.99h3.46v-7.47h-3.46v7.47Zm2.98-6.42v.76h-2.56v-.76h2.56Zm-2.37,1.77h2.28v3.45h-2.28v-3.45Zm.58,2.73h1.1v-2.01h-1.1v2.01Zm2.61,3.13c1.59,.75,3.29,1.68,4.35,2.4l-.73,.86c-1.02-.73-2.67-1.71-4.23-2.49l.62-.76Z"/>
    <path class="cls-4" d="M866.71,419.43v13.05h-1.09v-.69h-10.29v.69h-1.06v-13.05h12.45Zm-1.09,11.35v-10.33h-10.29v10.33h10.29Zm-5.08-2.28c-1.56,.3-3.15,.62-4.38,.84l-.15-.84c1.14-.18,2.8-.48,4.49-.78l.04,.78Zm3.72-4.37c-.38,1.41-.95,2.64-1.67,3.68,.32,.79,.72,1.3,1.21,1.38,.21,.06,.36-.58,.46-1.54,.18,.18,.51,.4,.72,.5-.2,1.63-.71,2.23-1.49,1.93-.65-.13-1.16-.66-1.56-1.46-.58,.68-1.25,1.25-1.98,1.72-.13-.18-.46-.54-.66-.71,.88-.51,1.63-1.17,2.27-1.95-.41-1.2-.66-2.74-.83-4.44h-4.59v-.84h4.51c-.04-.53-.09-1.05-.12-1.59h.96c.03,.54,.06,1.06,.09,1.59h3.27v.84h-3.2c.12,1.29,.3,2.49,.55,3.45,.48-.81,.86-1.74,1.11-2.76l.92,.2Zm-4.26,.06v2.91h-3.32v-2.91h3.32Zm-.81,.71h-1.72v1.5h1.72v-1.5Zm4.77-2.66c-.33-.33-1.02-.79-1.61-1.05l.53-.55c.58,.27,1.27,.67,1.62,1.02l-.54,.58Z"/>
    <path class="cls-4" d="M881.09,424.82c-.67,.55-1.5,1.15-2.31,1.69,.69,1.98,2.11,3.68,3.99,4.4-.24,.21-.57,.63-.72,.91-1.91-.86-3.33-2.6-4.14-4.75-.22,.15-.48,.3-.71,.42,.51,1.93,.13,3.78-.67,4.41-.48,.41-.87,.53-1.53,.53-.34,0-.81-.01-1.29-.03,0-.31-.12-.75-.29-1.05,.54,.04,1.04,.08,1.35,.08,.39,0,.67-.04,.96-.32,.45-.33,.72-1.36,.58-2.58-1.71,1.3-4.28,2.55-6.42,3.21-.12-.29-.38-.69-.58-.95,2.4-.55,5.31-1.95,6.79-3.3-.11-.35-.23-.71-.41-1.05-1.47,1.01-3.78,2.05-5.56,2.61-.12-.24-.36-.64-.57-.87,1.88-.45,4.38-1.52,5.68-2.49-.19-.31-.43-.6-.72-.88-1.33,.75-2.88,1.33-4.32,1.77-.11-.22-.42-.67-.62-.88,1.89-.45,3.93-1.2,5.35-2.18h-3.42v-.97h8.63v.97h-3.72c-.33,.29-.67,.54-1.07,.8,.69,.69,1.21,1.48,1.53,2.28,1.14-.73,2.43-1.71,3.27-2.49l.92,.72Zm-10.35-1.67h-1.08v-3.07h5.63c-.17-.38-.36-.77-.55-1.1l1.14-.33c.27,.42,.57,.99,.74,1.43h5.53v3.07h-1.13v-2.04h-10.27v2.04Z"/>
    <path class="cls-4" d="M897.92,425.28v.99h-6.25c-.04,.4-.1,.79-.18,1.15h6.19v.97h-6.46c-.71,2.05-2.31,3.33-6.24,4.01-.09-.29-.38-.75-.58-1.01,3.46-.49,4.93-1.46,5.61-3h-5.04v-.97h5.36c.09-.36,.15-.75,.19-1.15h-5.88v-.99h6.01v-1.26h-4.67v-.98h4.67v-1.21h-5.49v-1h3.17c-.24-.53-.71-1.21-1.16-1.74l.96-.39c.56,.57,1.08,1.35,1.32,1.89l-.54,.24h3.94c.45-.62,.98-1.5,1.29-2.13l1.14,.35c-.36,.62-.81,1.26-1.2,1.79h3.2v1h-5.52v1.21h4.8v.98h-4.8v1.26h6.17Zm-6.13,3.29c2.05,.78,4.75,2.07,6.12,2.97l-.53,.96c-1.32-.93-4-2.28-6.08-3.11l.48-.82Z"/>
    <path class="cls-4" d="M911.62,431.12c.6,0,.69-.39,.76-2.69,.25,.21,.74,.41,1.04,.5-.12,2.55-.42,3.25-1.72,3.25h-2.15c-1.33,0-1.69-.39-1.69-1.66v-5.34h-2.81c-.29,3.21-1,5.83-4.45,7.23-.14-.27-.45-.68-.71-.87,3.19-1.21,3.75-3.55,3.97-6.36h-3.79v-1.08h13.12v1.08h-4.21v5.32c0,.51,.12,.62,.71,.62h1.94Zm.31-10.13h-10.56v-1.06h10.56v1.06Z"/>
    <path class="cls-4" d="M928.64,430.86v1.09h-13.26v-1.09h6v-3.69h-4.62v-1.06h4.62v-3.29h-5.31v-1.09h6.58c-.58-.69-1.65-1.63-2.55-2.29l.9-.63c.96,.69,2.16,1.71,2.75,2.41l-.71,.51h4.84v1.09h-5.32v3.29h4.71v1.06h-4.71v3.69h6.07Z"/>
    <path class="cls-4" d="M934.87,426.65c-.2-.42-.64-1.25-1.04-1.92v7.69h-.99v-7.57c-.5,1.71-1.17,3.44-1.88,4.48-.12-.33-.39-.81-.57-1.08,.9-1.23,1.83-3.6,2.28-5.58h-1.92v-1.05h2.08v-2.87h.99v2.87h1.62v1.05h-1.62v.78c.38,.48,1.42,2.03,1.67,2.4l-.63,.79Zm5.58,4.41h3.66v.84h-6.85v.54h-1v-4.68c-.31,.34-.63,.67-.95,.95-.1-.21-.4-.68-.58-.87,.93-.76,1.85-1.9,2.39-3.07h-1.26v-2.91h3.42v2.91h-1.74l.57,.2c-.18,.36-.38,.73-.58,1.08h1.96c-.12-.3-.24-.62-.34-.88l.96-.26c.17,.35,.33,.78,.46,1.14h3.3v.76h-3.4v.88h2.76v.79h-2.76v.89h2.76v.79h-2.76v.9Zm-2.55-10.24h-2.61v-.87h2.61v-1.19h.97v2.8h-.97v-.75Zm-1.2,3.18h1.68v-1.38h-1.68v1.38Zm2.76,2.8h-2.21v.88h2.21v-.88Zm0,1.68h-2.21v.89h2.21v-.89Zm-2.21,2.58h2.21v-.9h-2.21v.9Zm6.3-6.3h-3.48v-2.91h3.48v2.91Zm.66-4.81v.87h-2.78v.72h-.99v-2.78h.99v1.19h2.78Zm-1.54,2.67h-1.74v1.38h1.74v-1.38Z"/>
    <path class="cls-4" d="M950.26,419.09c-.4,1.05-.9,2.1-1.47,3.07v10.25h-1.08v-8.55c-.5,.69-1.02,1.32-1.54,1.86-.12-.24-.42-.81-.63-1.06,1.47-1.42,2.87-3.63,3.71-5.88l1.02,.31Zm3.74,11.4c-.88,.76-2.34,1.5-3.53,1.95-.18-.21-.61-.6-.87-.78,1.21-.36,2.56-.95,3.34-1.58l1.05,.41Zm5.56-7.83v.81h-9.76v-.81h4.35v-.81h-3.3v-.75h3.3v-.75h-3.69v-.77h3.69v-.82h1.11v.82h3.84v.77h-3.84v.75h3.45v.75h-3.45v.81h4.3Zm-.97,7.17h-7.6v-5.63h7.6v5.63Zm-1.09-4.88h-5.45v.91h5.45v-.91Zm0,1.57h-5.45v.93h5.45v-.93Zm0,1.59h-5.45v.95h5.45v-.95Zm-.86,1.9c1.05,.57,2.28,1.35,2.92,1.89l-.99,.62c-.63-.55-1.89-1.44-2.92-2.03l.99-.48Z"/>
  </g>
  <g>
    <path class="cls-4" d="M978.89,419.11c1.39,2.09,3.97,4.1,6.34,5.09-.23,.22-.6,.69-.75,.97-2.27-1.06-4.63-3-6.18-5-1.54,1.91-4.09,3.98-6.2,5.1-.13-.29-.43-.66-.69-.9,1.86-.87,4.09-2.56,5.58-4.21h-2.67v-1.05h4.56Zm-.06,11.87h5.85v1.02h-12.67v-1.02h5.68v-2.49h-4.2v-.99h4.2v-2.29h-3.55v-1h8.37v1h-3.67v2.29h4.26v.99h-4.26v2.49Z"/>
    <path class="cls-4" d="M991.78,429.32c-1.67,.53-3.43,1.08-4.79,1.53l-.24-1.08c.54-.15,1.21-.34,1.96-.57v-4.14h-1.67v-1.04h1.67v-3.25h-1.8v-1.05h4.57v1.05h-1.72v3.25h1.51v1.04h-1.51v3.82l1.84-.58,.17,1.02Zm8.52-5.61c-.78,1.08-1.8,2.38-2.61,3.22,.67,1.46,1.63,2.56,3.06,3.55-.25,.2-.55,.53-.71,.84-1.68-1.24-2.76-2.63-3.46-4.51v4.2c0,.67-.18,.99-.58,1.17-.43,.21-1.11,.24-2.28,.24-.06-.3-.24-.78-.4-1.08,.87,.03,1.63,.02,1.86,.02,.24-.02,.33-.09,.33-.35v-3.54c-1.23,1.25-2.5,2.48-3.52,3.44l-.69-.96c1.02-.84,2.67-2.31,4.21-3.71v-3.9h-3.63v-1.04h3.63v-2.59h1.08v2.59h3.93v1.04h-3.93v.54c.2,1.2,.42,2.24,.74,3.14,.72-.86,1.51-1.98,2.01-2.84l.97,.53Zm-7.35-.44c.66,.86,1.37,2.01,1.63,2.78l-.92,.44c-.27-.75-.94-1.95-1.59-2.8l.87-.41Zm6.12-2.16c-.36-.49-1.11-1.18-1.77-1.65l.65-.59c.64,.45,1.42,1.11,1.8,1.56l-.67,.67Z"/>
    <path class="cls-4" d="M1006.82,418.79h1.09v6.96c0,2.1-.57,5.16-4.17,6.83-.19-.27-.52-.62-.79-.84,1.86-.77,2.85-2.03,3.36-3.29-1.32,.25-2.66,.51-3.69,.71l-.24-1.11c1.11-.15,2.65-.42,4.26-.69,.13-.6,.18-1.15,.18-1.61v-.4h-3.83v-1.02h3.83v-2.29h-4.04v-1.05h4.04v-2.19Zm9.04,9.99h-4.54v3.63h-1.11v-13.62h1.11v2.19h4.29v1.05h-4.29v2.29h3.99v1.04h-3.99v2.37h4.54v1.05Z"/>
    <path class="cls-4" d="M1020.8,426.77v4.21c0,.63-.17,.93-.56,1.09-.38,.18-1,.21-2.02,.21-.04-.29-.21-.74-.34-1.04,.72,.03,1.36,.01,1.54,.01,.21,0,.28-.07,.28-.28v-3.87l-1.89,.55-.33-1.08c.62-.15,1.38-.36,2.22-.6v-3.22h-2.04v-1.05h2.04v-3h1.1v3h1.86v1.05h-1.86v2.93l1.39-.41,.15,1.02-1.54,.47Zm9.4-1.2c-.6,1.8-1.63,3.21-2.92,4.29,1.13,.7,2.47,1.23,3.97,1.54-.25,.24-.55,.7-.71,1.02-1.6-.39-3.03-1.02-4.2-1.88-1.31,.88-2.82,1.48-4.4,1.89-.1-.31-.34-.78-.55-1.02,1.44-.31,2.83-.84,4.05-1.59-1.02-.95-1.84-2.1-2.44-3.43l.15-.06h-.58v-1.05h6.71l.21-.04,.72,.33Zm-5.13-4.65c0,1.34-.41,2.94-2.25,4.01-.13-.22-.52-.64-.73-.82,1.67-.92,1.93-2.15,1.93-3.21v-1.65h4.72v3.46c0,.42,.04,.57,.29,.57h1.16c.22,0,.55-.03,.75-.07,.01,.29,.04,.71,.09,.96-.2,.06-.51,.08-.81,.08h-1.26c-1.05,0-1.27-.44-1.27-1.54v-2.4h-2.61v.63Zm-.99,5.42c.53,1.09,1.32,2.05,2.28,2.87,.97-.78,1.8-1.73,2.34-2.87h-4.62Z"/>
    <path class="cls-4" d="M1037.38,422.83h-4.29v-.9h4.29v.9Zm1.19,7.74c-1.2,.72-3.09,1.43-4.58,1.83-.19-.22-.57-.64-.83-.84,1.53-.31,3.33-.85,4.4-1.44l1,.45Zm-1.56-10.09h-3.58v-.87h3.58v.87Zm-1.95,3.53h9.7v6.01h-9.7v-6.01Zm1.08,1.77h7.51v-1.02h-7.51v1.02Zm0,1.74h7.51v-1.02h-7.51v1.02Zm0,1.77h7.51v-1.05h-7.51v1.05Zm3.6-8.69c-.33,.57-.72,1.1-1.13,1.5-.18-.16-.6-.45-.84-.57,.78-.71,1.39-1.76,1.72-2.85l1,.23c-.09,.29-.21,.55-.31,.82h5.02l.18-.04,.75,.26c-.38,.76-.85,1.63-1.26,2.16l-.88-.31c.22-.31,.5-.75,.71-1.19h-2.38v.2c0,.15-.02,.32-.04,.5,.79,.9,2.43,1.48,4.39,1.65-.21,.21-.5,.61-.63,.88-1.71-.24-3.15-.84-4.08-1.76-.5,.73-1.68,1.43-4.32,1.83-.12-.24-.41-.64-.6-.82,3.88-.53,4.25-1.54,4.25-2.33v-.15h-1.54Zm2.25,9.51c1.6,.5,3.36,1.14,4.41,1.62l-.97,.64c-.96-.48-2.58-1.13-4.2-1.66l.77-.6Z"/>
    <path class="cls-4" d="M1053.4,427.67c-.04-.25-.12-.54-.22-.87-3.46,.54-3.93,.66-4.23,.82-.06-.22-.22-.75-.34-1.05,.31-.06,.66-.44,1.11-.97,.24-.27,.72-.89,1.26-1.7-1.59,.2-1.91,.27-2.12,.36-.06-.21-.24-.75-.36-1.02,.26-.06,.53-.38,.84-.83,.31-.43,1.35-2.14,1.96-3.76l1.05,.44c-.66,1.41-1.49,2.83-2.31,3.97l1.58-.15c.41-.64,.79-1.34,1.14-2.01l.96,.57c-.99,1.72-2.16,3.45-3.37,4.83l2.58-.38c-.18-.46-.38-.94-.55-1.36l.79-.29c.5,.99,.96,2.26,1.11,3.04l-.87,.34Zm-3.29,.78c-.15,1.27-.45,2.68-.76,3.61-.18-.1-.63-.25-.86-.33,.35-.92,.57-2.25,.72-3.45l.9,.17Zm1.52-.23c.18,.95,.36,2.16,.4,2.99l-.85,.2c-.04-.81-.2-2.06-.36-3.02l.81-.17Zm1.6-.36c.3,.78,.63,1.77,.76,2.42l-.84,.28c-.1-.66-.43-1.68-.72-2.46l.79-.24Zm8.37-3.99c-.41,2.19-1.16,3.99-2.13,5.43,.72,.92,1.59,1.63,2.64,2.1-.25,.21-.6,.63-.77,.93-1-.51-1.84-1.25-2.55-2.15-.78,.93-1.68,1.68-2.65,2.22-.15-.27-.45-.66-.71-.84,.99-.53,1.92-1.3,2.71-2.31-.74-1.23-1.29-2.67-1.7-4.26-.29,3-.87,5.42-2.22,7.3-.18-.18-.71-.55-.97-.69,1.96-2.45,2.28-6.29,2.32-11.14h-1.47v-1.05h5.29l.18-.06,.77,.12c-.17,1.23-.42,2.87-.69,4.2h1.05l.2-.06,.69,.25Zm-4.92-3.4c-.03,1.13-.06,2.21-.12,3.21h2.05c.2-1.01,.41-2.25,.55-3.21h-2.49Zm.66,4.21c.35,1.34,.83,2.58,1.47,3.64,.66-1.05,1.18-2.28,1.53-3.64h-3Z"/>
    <path class="cls-4" d="M1068.08,419.04c-.4,1.05-.9,2.1-1.47,3.08v10.24h-1.08v-8.55c-.5,.69-1.02,1.32-1.54,1.86-.12-.24-.42-.81-.63-1.06,1.47-1.43,2.87-3.63,3.71-5.88l1.02,.31Zm3.74,11.4c-.88,.77-2.34,1.5-3.53,1.95-.18-.21-.61-.6-.87-.78,1.21-.36,2.56-.95,3.34-1.57l1.05,.4Zm5.56-7.83v.81h-9.76v-.81h4.35v-.81h-3.3v-.75h3.3v-.75h-3.69v-.77h3.69v-.82h1.11v.82h3.84v.77h-3.84v.75h3.45v.75h-3.45v.81h4.3Zm-.97,7.17h-7.6v-5.63h7.6v5.63Zm-1.09-4.88h-5.45v.92h5.45v-.92Zm0,1.58h-5.45v.93h5.45v-.93Zm0,1.59h-5.45v.94h5.45v-.94Zm-.86,1.9c1.05,.57,2.28,1.35,2.92,1.89l-.99,.61c-.63-.55-1.89-1.44-2.92-2.02l.99-.48Z"/>
  </g>
</svg>