<?xml version="1.0" encoding="utf-8"?>
<!-- Generator: Adobe Illustrator 25.4.8, SVG Export Plug-In . SVG Version: 6.00 Build 0)  -->
<svg version="1.1" xmlns="http://www.w3.org/2000/svg" xmlns:xlink="http://www.w3.org/1999/xlink" x="0px" y="0px"
	 viewBox="0 0 1000 550" style="enable-background:new 0 0 1000 550;" xml:space="preserve">
<style type="text/css">
	.st0{display:none;}
	.st1{display:inline;opacity:0.82;}
	.st2{fill:#444344;}
	.st3{fill:#BFC1C1;}
	.st4{fill:#36C5C4;}
	.st5{fill:#FF661A;}
	.st6{fill:#FFFFFF;}
	.st7{fill:#80D1C9;}
	.st8{fill:#F9BD00;}
	.st9{fill:#4B5763;}
</style>
<g id="圖層_6" class="st0">
	<g class="st1">
		
			<image style="overflow:visible;" width="789" height="435" xlink:href="AC1EC382.jpg"  transform="matrix(1.2741 0 0 -1.2752 -11.4582 668.9364)">
		</image>
	</g>
</g>
<g id="圖層_1">
</g>
<g id="圖層_2">
	<g>
		<g>
			<path class="st2" d="M159.2,154.6c-0.6-0.6-1.6-0.6-2.2,0c-13.8,14.3-32.4,22.2-52.3,22.2c-9.9,0-19.5-1.9-28.5-5.8l5.1-0.8
				c0.9-0.1,1.4-1,1.3-1.8c-0.1-0.9-1-1.4-1.8-1.3l-9.9,1.6c-0.5,0.1-0.9,0.4-1.2,0.9c-0.2,0.5-0.2,1,0,1.4l4.7,8.8
				c0.3,0.5,0.8,0.8,1.4,0.8c0.3,0,0.5-0.1,0.7-0.2c0.8-0.4,1.1-1.4,0.7-2.2l-2.4-4.5c9.4,4,19.4,6.1,29.8,6.1
				c20.8,0,40.1-8.2,54.5-23.2C159.9,156.2,159.9,155.2,159.2,154.6z"/>
		</g>
		<g>
			<path class="st3" d="M136.5,169.6c-0.2,0-0.3,0-0.5,0c-0.8-0.1-1.6-0.2-2.4-0.3c-0.1,0-0.2,0-0.4-0.1c-0.7-0.1-1.3-0.2-1.9-0.3
				c-0.1,0-0.3-0.1-0.4-0.1c-1.4-0.3-2.8-0.7-3.9-1.1c-0.1,0-0.1-0.1-0.2-0.1c-0.6-0.2-1.1-0.4-1.6-0.6c0,0,0,0-0.1,0
				c-2.3-1.1-3.7-2.5-3.7-4c0-3.8,9.1-6.9,20.4-6.9c11.3,0,20.4,3.1,20.4,6.9c0,1.5-1.4,2.8-3.7,4c0,0-0.1,0-0.1,0
				c-0.5,0.2-1,0.4-1.5,0.6c-0.1,0-0.1,0.1-0.2,0.1c-1.2,0.4-2.5,0.8-3.9,1.1c-0.1,0-0.3,0.1-0.4,0.1c-0.6,0.1-1.3,0.2-1.9,0.3
				c-0.1,0-0.2,0-0.4,0.1c-0.8,0.1-1.6,0.2-2.4,0.3c-0.2,0-0.3,0-0.5,0c-0.7,0.1-1.3,0.1-2,0.1c-0.2,0-0.5,0-0.7,0
				c-0.8,0-1.7,0.1-2.6,0.1c-0.9,0-1.7,0-2.6-0.1c-0.2,0-0.5,0-0.7,0C137.8,169.7,137.1,169.6,136.5,169.6z"/>
		</g>
		<g>
			<path class="st4" d="M123.7,166.1c3.4,2.2,10.2,3.7,18,3.7c7.9,0,14.7-1.5,18.1-3.7c1.5-1,2.3-2,2.3-3.2v6.3
				c0,3.8-9.1,6.9-20.4,6.9c-11.2,0-20.4-3.1-20.4-6.9v-6.3C121.4,164.1,122.2,165.2,123.7,166.1z"/>
		</g>
		<g>
			<path class="st3" d="M136.5,160.1c-0.2,0-0.3,0-0.5,0c-0.8-0.1-1.6-0.2-2.4-0.3c-0.1,0-0.2,0-0.4-0.1c-0.7-0.1-1.3-0.2-1.9-0.3
				c-0.1,0-0.3-0.1-0.4-0.1c-1.4-0.3-2.8-0.7-3.9-1.1c-0.1,0-0.1-0.1-0.2-0.1c-0.6-0.2-1.1-0.4-1.6-0.6c0,0,0,0-0.1,0
				c-2.3-1.1-3.7-2.5-3.7-4c0-3.8,9.1-6.9,20.4-6.9c11.3,0,20.4,3.1,20.4,6.9c0,1.5-1.4,2.8-3.7,4c0,0-0.1,0-0.1,0
				c-0.5,0.2-1,0.4-1.5,0.6c-0.1,0-0.1,0.1-0.2,0.1c-1.2,0.4-2.5,0.8-3.9,1.1c-0.1,0-0.3,0.1-0.4,0.1c-0.6,0.1-1.3,0.2-1.9,0.3
				c-0.1,0-0.2,0-0.4,0.1c-0.8,0.1-1.6,0.2-2.4,0.3c-0.2,0-0.3,0-0.5,0c-0.7,0.1-1.3,0.1-2,0.1c-0.2,0-0.5,0-0.7,0
				c-0.8,0-1.7,0.1-2.6,0.1c-0.9,0-1.7,0-2.6-0.1c-0.2,0-0.5,0-0.7,0C137.8,160.2,137.1,160.1,136.5,160.1z"/>
		</g>
		<g>
			<path class="st4" d="M123.7,156.6c3.4,2.2,10.2,3.7,18,3.7c7.9,0,14.7-1.5,18.1-3.7c1.5-1,2.3-2,2.3-3.2v6.3
				c0,3.8-9.1,6.9-20.4,6.9c-11.2,0-20.4-3.1-20.4-6.9v-6.3C121.4,154.6,122.2,155.6,123.7,156.6z"/>
		</g>
		<g>
			<path class="st3" d="M136.5,150.5c-0.2,0-0.3,0-0.5,0c-0.8-0.1-1.6-0.2-2.4-0.3c-0.1,0-0.2,0-0.4-0.1c-0.7-0.1-1.3-0.2-1.9-0.3
				c-0.1,0-0.3-0.1-0.4-0.1c-1.4-0.3-2.8-0.7-3.9-1.1c-0.1,0-0.1-0.1-0.2-0.1c-0.6-0.2-1.1-0.4-1.6-0.6c0,0,0,0-0.1,0
				c-2.3-1.1-3.7-2.5-3.7-4c0-3.8,9.1-6.9,20.4-6.9c11.3,0,20.4,3.1,20.4,6.9c0,1.5-1.4,2.8-3.7,4c0,0-0.1,0-0.1,0
				c-0.5,0.2-1,0.4-1.5,0.6c-0.1,0-0.1,0.1-0.2,0.1c-1.2,0.4-2.5,0.8-3.9,1.1c-0.1,0-0.3,0.1-0.4,0.1c-0.6,0.1-1.3,0.2-1.9,0.3
				c-0.1,0-0.2,0-0.4,0.1c-0.8,0.1-1.6,0.2-2.4,0.3c-0.2,0-0.3,0-0.5,0c-0.7,0.1-1.3,0.1-2,0.1c-0.2,0-0.5,0-0.7,0
				c-0.8,0-1.7,0.1-2.6,0.1c-0.9,0-1.7,0-2.6-0.1c-0.2,0-0.5,0-0.7,0C137.8,150.6,137.1,150.6,136.5,150.5z"/>
		</g>
		<g>
			<path class="st4" d="M123.7,147.1c3.4,2.2,10.2,3.7,18,3.7c7.9,0,14.7-1.5,18.1-3.7c1.5-1,2.3-2,2.3-3.2v6.3
				c0,3.8-9.1,6.9-20.4,6.9c-11.2,0-20.4-3.1-20.4-6.9v-6.3C121.4,145,122.2,146.1,123.7,147.1z"/>
		</g>
		<g>
			<path class="st4" d="M141.7,139.7c-0.9,0-1.7,0-2.5-0.1l-0.5,0c-0.8,0-1.5-0.1-2.1-0.2l-0.5,0c-0.8-0.1-1.5-0.2-2.3-0.3
				c0,0-0.3-0.1-0.4-0.1c-0.6-0.1-1.3-0.2-1.8-0.3l-0.4-0.1c-1.4-0.3-2.6-0.6-3.7-1l-0.2-0.1c-0.5-0.2-1-0.4-1.4-0.6
				c-2.1-1-2.9-2-2.9-2.6c0-2.1,7.5-5.3,18.8-5.3c11.3,0,18.8,3.2,18.8,5.3c0,0.6-0.7,1.5-2.8,2.5c-0.5,0.2-1,0.4-1.5,0.6l-0.2,0.1
				c-1.1,0.4-2.4,0.7-3.7,1l-0.3,0.1c-0.7,0.1-1.3,0.2-1.9,0.3l-0.3,0.1c-0.7,0.1-1.5,0.2-2.3,0.3l-0.5,0c-0.6,0.1-1.3,0.1-1.9,0.1
				l-0.7,0C143.4,139.6,142.6,139.7,141.7,139.7z"/>
		</g>
		<g>
			<path class="st3" d="M141.7,127.5c-11.2,0-20.4,3.1-20.4,6.9c0,1.5,1.4,2.8,3.7,4c0,0,0,0,0.1,0c0.5,0.2,1,0.4,1.6,0.7
				c0.1,0,0.1,0.1,0.2,0.1c1.2,0.4,2.5,0.8,3.9,1.1c0.1,0,0.3,0.1,0.4,0.1c0.6,0.1,1.3,0.2,1.9,0.3c0.1,0,0.2,0,0.4,0.1
				c0.8,0.1,1.6,0.2,2.4,0.3c0.2,0,0.3,0,0.5,0c0.7,0.1,1.3,0.1,2,0.1c0.2,0,0.5,0,0.7,0c0.8,0,1.7,0.1,2.6,0.1c0.9,0,1.7,0,2.6-0.1
				c0.2,0,0.5,0,0.7,0c0.7,0,1.3-0.1,2-0.1c0.2,0,0.3,0,0.5,0c0.8-0.1,1.6-0.2,2.4-0.3c0.1,0,0.2,0,0.4-0.1c0.7-0.1,1.3-0.2,1.9-0.3
				c0.1,0,0.3-0.1,0.4-0.1c1.4-0.3,2.8-0.7,3.9-1.1c0.1,0,0.1-0.1,0.2-0.1c0.5-0.2,1.1-0.4,1.5-0.7c0,0,0.1,0,0.1,0
				c2.3-1.1,3.7-2.5,3.7-4C162.1,130.6,153,127.5,141.7,127.5z M157.1,135.5c0,0-0.1,0-0.1,0.1c-0.4,0.2-0.8,0.4-1.3,0.5l-0.1,0
				l-0.1,0c-1,0.4-2.2,0.7-3.5,1l-0.4,0.1c-0.6,0.1-1.2,0.2-1.8,0.3l-0.2,0l-0.1,0c-0.7,0.1-1.5,0.2-2.2,0.3l-0.2,0l-0.2,0
				c-0.6,0.1-1.3,0.1-1.9,0.1l-0.6,0c-0.9,0-1.7,0.1-2.5,0.1c-0.7,0-1.5,0-2.5-0.1l-0.7,0c-0.6,0-1.3-0.1-1.9-0.1l-0.2,0l-0.2,0
				c-0.7-0.1-1.5-0.2-2.2-0.3l-0.1,0l-0.2,0c-0.6-0.1-1.2-0.2-1.8-0.3l-0.1,0l-0.3-0.1c-1.3-0.3-2.5-0.6-3.5-1l-0.1,0l-0.1,0
				c-0.5-0.2-0.9-0.4-1.3-0.6c-0.9-0.4-1.5-0.8-1.7-1.1c1.3-1.3,7-3.7,17-3.7c10,0,15.7,2.4,17,3.7C158.5,134.6,158,135,157.1,135.5
				z"/>
		</g>
		<g>
			<path class="st4" d="M123.7,137.6c3.4,2.2,10.2,3.7,18,3.7c7.9,0,14.7-1.5,18.1-3.7c1.5-1,2.3-2,2.3-3.2v6.3
				c0,3.8-9.1,6.9-20.4,6.9c-11.2,0-20.4-3.1-20.4-6.9v-6.3C121.4,135.5,122.2,136.6,123.7,137.6z"/>
		</g>
		<g>
			<path class="st3" d="M110,181.9c-0.2,0-0.3,0-0.5,0c-0.8-0.1-1.6-0.2-2.4-0.3c-0.1,0-0.2,0-0.4-0.1c-0.7-0.1-1.3-0.2-1.9-0.3
				c-0.1,0-0.3-0.1-0.4-0.1c-1.4-0.3-2.8-0.7-3.9-1.1c-0.1,0-0.1-0.1-0.2-0.1c-0.6-0.2-1.1-0.4-1.6-0.6c0,0,0,0-0.1,0
				c-2.3-1.1-3.7-2.5-3.7-4c0-3.8,9.1-6.9,20.4-6.9c11.2,0,20.4,3.1,20.4,6.9c0,1.5-1.4,2.8-3.7,4c0,0,0,0-0.1,0
				c-0.5,0.2-1,0.4-1.6,0.6c-0.1,0-0.1,0.1-0.2,0.1c-1.2,0.4-2.5,0.8-3.9,1.1c-0.1,0-0.3,0.1-0.4,0.1c-0.6,0.1-1.3,0.2-1.9,0.3
				c-0.1,0-0.2,0-0.4,0.1c-0.8,0.1-1.6,0.2-2.4,0.3c-0.2,0-0.3,0-0.5,0c-0.7,0.1-1.3,0.1-2,0.1c-0.2,0-0.5,0-0.7,0
				c-0.9,0-1.7,0.1-2.6,0.1c-0.9,0-1.7,0-2.6-0.1c-0.2,0-0.5,0-0.7,0C111.3,182,110.7,181.9,110,181.9z"/>
		</g>
		<g>
			<path class="st5" d="M97.2,178.4c3.4,2.2,10.2,3.7,18.1,3.7c7.9,0,14.7-1.5,18.1-3.7c1.5-1,2.3-2,2.3-3.2v6.3
				c0,3.8-9.1,6.9-20.4,6.9c-11.2,0-20.4-3.1-20.4-6.9v-6.3C94.9,176.4,95.8,177.5,97.2,178.4z"/>
		</g>
		<g>
			<path class="st3" d="M110,172.3c-0.2,0-0.3,0-0.5,0c-0.8-0.1-1.6-0.2-2.4-0.3c-0.1,0-0.2,0-0.4-0.1c-0.7-0.1-1.3-0.2-1.9-0.3
				c-0.1,0-0.3-0.1-0.4-0.1c-1.4-0.3-2.8-0.7-3.9-1.1c-0.1,0-0.1-0.1-0.2-0.1c-0.6-0.2-1.1-0.4-1.6-0.6c0,0,0,0-0.1,0
				c-2.3-1.1-3.7-2.5-3.7-4c0-3.8,9.1-6.9,20.4-6.9c11.2,0,20.4,3.1,20.4,6.9c0,1.5-1.4,2.8-3.7,4c0,0,0,0-0.1,0
				c-0.5,0.2-1,0.4-1.6,0.6c-0.1,0-0.1,0.1-0.2,0.1c-1.2,0.4-2.5,0.8-3.9,1.1c-0.1,0-0.3,0.1-0.4,0.1c-0.6,0.1-1.3,0.2-1.9,0.3
				c-0.1,0-0.2,0-0.4,0.1c-0.8,0.1-1.6,0.2-2.4,0.3c-0.2,0-0.3,0-0.5,0c-0.7,0.1-1.3,0.1-2,0.1c-0.2,0-0.5,0-0.7,0
				c-0.9,0-1.7,0.1-2.6,0.1c-0.9,0-1.7,0-2.6-0.1c-0.2,0-0.5,0-0.7,0C111.3,172.5,110.7,172.4,110,172.3z"/>
		</g>
		<g>
			<path class="st5" d="M97.2,168.9c3.4,2.2,10.2,3.7,18.1,3.7c7.9,0,14.7-1.5,18.1-3.7c1.5-1,2.3-2,2.3-3.2v6.3
				c0,3.8-9.1,6.9-20.4,6.9c-11.2,0-20.4-3.1-20.4-6.9v-6.3C94.9,166.9,95.8,167.9,97.2,168.9z"/>
		</g>
		<g>
			<path class="st5" d="M115.3,161.5c-0.9,0-1.7,0-2.5-0.1l-0.5,0c-0.8,0-1.5-0.1-2.1-0.1l-0.5,0c-0.8-0.1-1.5-0.2-2.3-0.3
				c0,0-0.3-0.1-0.4-0.1c-0.6-0.1-1.2-0.2-1.8-0.3l-0.4-0.1c-1.4-0.3-2.6-0.6-3.7-1l-0.2-0.1c-0.5-0.2-1-0.4-1.4-0.6
				c-2.1-1-2.9-2-2.9-2.6c0-2.1,7.5-5.3,18.8-5.3c11.3,0,18.8,3.2,18.8,5.3c0,0.6-0.7,1.5-2.8,2.5c-0.5,0.2-1,0.4-1.5,0.6l-0.2,0.1
				c-1.1,0.4-2.4,0.7-3.7,1l-0.4,0.1c-0.6,0.1-1.2,0.2-1.8,0.3c0,0-0.3,0.1-0.3,0.1c-0.7,0.1-1.5,0.2-2.3,0.3l-0.5,0
				c-0.6,0.1-1.3,0.1-2,0.1l-0.7,0C117,161.5,116.2,161.5,115.3,161.5z"/>
		</g>
		<g>
			<path class="st3" d="M115.3,149.3c-11.2,0-20.4,3.1-20.4,6.9c0,1.5,1.4,2.8,3.7,4c0,0,0,0,0.1,0c0.5,0.2,1,0.4,1.6,0.6
				c0.1,0,0.1,0.1,0.2,0.1c1.2,0.4,2.5,0.8,3.9,1.1c0.1,0,0.3,0.1,0.4,0.1c0.6,0.1,1.3,0.2,1.9,0.3c0.1,0,0.2,0,0.4,0.1
				c0.8,0.1,1.6,0.2,2.4,0.3c0.2,0,0.3,0,0.5,0c0.7,0.1,1.3,0.1,2,0.1c0.2,0,0.5,0,0.7,0c0.8,0,1.7,0.1,2.6,0.1c0.9,0,1.7,0,2.6-0.1
				c0.2,0,0.5,0,0.7,0c0.7,0,1.3-0.1,2-0.1c0.2,0,0.3,0,0.5,0c0.8-0.1,1.6-0.2,2.4-0.3c0.1,0,0.2,0,0.4-0.1c0.7-0.1,1.3-0.2,1.9-0.3
				c0.1,0,0.3-0.1,0.4-0.1c1.4-0.3,2.8-0.7,3.9-1.1c0.1,0,0.1-0.1,0.2-0.1c0.5-0.2,1.1-0.4,1.6-0.6c0,0,0,0,0.1,0
				c2.3-1.1,3.7-2.5,3.7-4C135.7,152.4,126.5,149.3,115.3,149.3z M130.6,157.3c0,0-0.1,0-0.1,0.1c-0.4,0.2-0.8,0.4-1.3,0.5
				c0,0-0.1,0-0.1,0l-0.1,0c-1,0.4-2.2,0.7-3.5,1l-0.3,0.1l-0.1,0c-0.6,0.1-1.2,0.2-1.8,0.3l-0.2,0l-0.1,0c-0.7,0.1-1.5,0.2-2.2,0.3
				l-0.2,0l-0.2,0c-0.6,0.1-1.2,0.1-1.9,0.1l-0.1,0l-0.6,0c-0.9,0-1.7,0.1-2.5,0.1c-0.7,0-1.5,0-2.5-0.1l-0.6,0l-0.1,0
				c-0.6,0-1.3-0.1-1.9-0.1l-0.2,0l-0.2,0c-0.8-0.1-1.5-0.2-2.2-0.3l-0.1,0l-0.2,0c-0.6-0.1-1.2-0.2-1.8-0.3l-0.1,0l-0.3-0.1
				c-1.3-0.3-2.5-0.6-3.5-1l-0.1,0c0,0-0.1,0-0.1,0c-0.5-0.2-0.9-0.4-1.3-0.6c-0.9-0.5-1.5-0.8-1.7-1.1c1.3-1.3,7-3.7,17-3.7
				c10,0,15.7,2.4,17,3.7C132,156.4,131.5,156.8,130.6,157.3z"/>
		</g>
		<g>
			<path class="st5" d="M97.2,159.4c3.4,2.2,10.2,3.7,18.1,3.7c7.9,0,14.7-1.5,18.1-3.7c1.5-1,2.3-2,2.3-3.2v6.3
				c0,3.8-9.1,6.9-20.4,6.9c-11.2,0-20.4-3.1-20.4-6.9v-6.3C94.9,157.3,95.8,158.4,97.2,159.4z"/>
		</g>
		<g>
			<path class="st2" d="M153.1,46.5l-2.7-9.7c-0.2-0.8-1.1-1.3-2-1.1c-0.8,0.2-1.3,1.1-1.1,2l1.4,4.8c-12.8-9.1-28.2-14-43.9-14
				c-24.7,0-48,12.1-62.1,32.4c-0.5,0.7-0.3,1.7,0.4,2.2c0.3,0.2,0.6,0.3,0.9,0.3c0.5,0,1-0.2,1.3-0.7c13.6-19.4,35.9-31,59.5-31
				c15.1,0,29.8,4.7,42,13.4l-5.2-0.3c-0.9-0.1-1.6,0.6-1.7,1.5c0,0.9,0.6,1.6,1.5,1.7l10,0.5c0,0,0.1,0,0.1,0
				c0.5,0,0.9-0.2,1.2-0.6C153.1,47.5,153.2,47,153.1,46.5z"/>
		</g>
		<g>
			<path class="st5" d="M39.1,54c0,11.2,9.1,20.2,20.2,20.2S79.6,65.2,79.6,54c0-11.2-9.1-20.2-20.2-20.2S39.1,42.9,39.1,54z"/>
		</g>
		<g>
			<path class="st5" d="M59.4,75.9c-12,0-21.8-9.8-21.8-21.8c0-12,9.8-21.8,21.8-21.8S81.2,42,81.2,54
				C81.2,66.1,71.4,75.9,59.4,75.9z M59.4,35.4c-10.3,0-18.7,8.4-18.7,18.7c0,10.3,8.4,18.7,18.7,18.7C69.6,72.7,78,64.3,78,54
				C78,43.7,69.6,35.4,59.4,35.4z"/>
		</g>
		<g>
			<path class="st6" d="M59.4,52.4c-2.6,0-3.9-1.1-3.9-3.4c0-1.9,1.7-3.4,3.9-3.4c2.1,0,3.9,1.5,3.9,3.4c0,0.9,0.7,1.6,1.6,1.6
				c0.9,0,1.6-0.7,1.6-1.6c0-3.1-2.3-5.7-5.5-6.4v-1.3c0-0.9-0.7-1.6-1.6-1.6c-0.9,0-1.6,0.7-1.6,1.6v1.3c-3.1,0.7-5.5,3.3-5.5,6.4
				c0,3.2,1.9,6.5,7,6.5c2.6,0,3.9,1.1,3.9,3.4c0,1.9-1.7,3.4-3.9,3.4c-2.1,0-3.9-1.5-3.9-3.4c0-0.9-0.7-1.6-1.6-1.6
				s-1.6,0.7-1.6,1.6c0,3.1,2.3,5.7,5.5,6.4v1.3c0,0.9,0.7,1.6,1.6,1.6c0.9,0,1.6-0.7,1.6-1.6v-1.3c3.1-0.7,5.5-3.3,5.5-6.4
				C66.4,55.8,64.5,52.4,59.4,52.4z"/>
		</g>
		<g>
			<path class="st2" d="M58.2,160c-16.6-13.8-26.1-34.2-26.1-55.8c0-9.4,1.8-18.6,5.3-27.2l0.8,5.1c0.1,0.8,0.8,1.3,1.6,1.3
				c0.1,0,0.2,0,0.3,0c0.9-0.1,1.4-1,1.3-1.8l-1.6-9.9c-0.1-0.5-0.4-0.9-0.9-1.2c-0.5-0.2-1-0.2-1.4,0l-8.9,4.7
				c-0.8,0.4-1.1,1.4-0.7,2.1c0.4,0.8,1.4,1.1,2.1,0.7l4.4-2.4c-3.7,9-5.5,18.6-5.5,28.5c0,22.6,9.9,43.8,27.3,58.2
				c0.3,0.2,0.7,0.4,1,0.4c0.5,0,0.9-0.2,1.2-0.6C59,161.6,58.9,160.6,58.2,160z"/>
		</g>
		<g>
			<path class="st7" d="M81.7,140.8c0-10.6-6.1-26.2-17.7-33.4c-2.2-2.7,0-6,0-6c2.8-3.8,1.1-10.6,1.1-10.6
				c-4.1,3.7-10.6,3.7-14.7,0c-4.1-3.7-10.6-3.7-14.7,0c-4.1,3.7-10.6,3.7-14.7,0c0,0-1.5,6.8,1.3,10.6c0,0,2.2,3.4,0,6
				c-11.6,7.3-17.7,22.8-17.7,33.4c0,15.8-0.9,27.9,38.5,27.9C82.6,168.7,81.7,156.6,81.7,140.8z"/>
		</g>
		<g>
			<path class="st4" d="M66.3,121.8c-1.3-5.6-4.8-10.2-6.9-12.5c1.7-0.5,3.2-1.2,4.6-1.9c-2.2-2.7,0-6,0-6
				c-5.4,2.9-12.7,4.1-20.8,4.1c-8.1,0-15.4-1.2-20.8-4.1c0,0,2.2,3.4,0,6c5.4,2.9,12.7,4.1,20.8,4.1c4.6,0,8.8-0.4,12.7-1.3
				c1.1,1,5.9,6,7.3,12.3c0.2,0.7,0.8,1.2,1.5,1.2c0.1,0,0.2,0,0.4,0C66,123.5,66.5,122.6,66.3,121.8z"/>
		</g>
		<g>
			<path class="st3" d="M25.2,139.7c0,9.9,8.1,18,18,18c9.9,0,18-8.1,18-18c0-9.9-8.1-18-18-18C33.2,121.7,25.2,129.7,25.2,139.7z"
				/>
		</g>
		<g>
			<path class="st2" d="M43.2,138.1c-2.6,0-3.9-1.1-3.9-3.4c0-1.9,1.7-3.4,3.9-3.4c2.1,0,3.9,1.5,3.9,3.4c0,0.9,0.7,1.6,1.6,1.6
				c0.9,0,1.6-0.7,1.6-1.6c0-3.1-2.3-5.7-5.5-6.4V127c0-0.9-0.7-1.6-1.6-1.6c-0.9,0-1.6,0.7-1.6,1.6v1.3c-3.1,0.7-5.5,3.3-5.5,6.4
				c0,3.2,1.9,6.5,7,6.5c2.6,0,3.9,1.1,3.9,3.4c0,1.9-1.7,3.4-3.9,3.4c-2.1,0-3.9-1.5-3.9-3.4c0-0.9-0.7-1.6-1.6-1.6
				c-0.9,0-1.6,0.7-1.6,1.6c0,3.1,2.3,5.7,5.5,6.4v1.3c0,0.9,0.7,1.6,1.6,1.6c0.9,0,1.6-0.7,1.6-1.6V151c3.1-0.7,5.5-3.3,5.5-6.4
				C50.2,141.5,48.4,138.1,43.2,138.1z"/>
		</g>
		<g>
			<path class="st2" d="M177.6,134.9l-4.7,2.4c5-10.2,7.6-21.6,7.6-33.1c0-17.6-6.2-34.8-17.4-48.3c-0.6-0.7-1.6-0.8-2.2-0.2
				c-0.7,0.6-0.8,1.6-0.2,2.2c10.7,13,16.7,29.4,16.7,46.3c0,10.9-2.5,21.6-7.1,31.3l-0.7-4.9c-0.1-0.9-0.9-1.5-1.8-1.3
				c-0.9,0.1-1.5,0.9-1.3,1.8l1.5,9.9c0.1,0.5,0.4,0.9,0.8,1.2c0.2,0.1,0.5,0.2,0.7,0.2c0.3,0,0.5-0.1,0.7-0.2l8.9-4.6
				c0.8-0.4,1.1-1.4,0.7-2.1C179.3,134.8,178.4,134.5,177.6,134.9z"/>
		</g>
		<g>
			
				<rect x="106.3" y="52.1" transform="matrix(-1 -1.224647e-16 1.224647e-16 -1 305.9231 152.0318)" class="st7" width="93.2" height="47.8"/>
		</g>
		<g>
			
				<rect x="101.5" y="56.9" transform="matrix(-1 -1.224647e-16 1.224647e-16 -1 296.2947 161.6572)" class="st4" width="93.2" height="47.8"/>
		</g>
		<g>
			
				<rect x="96.7" y="61.8" transform="matrix(-1 -1.224647e-16 1.224647e-16 -1 286.673 171.2826)" class="st7" width="93.2" height="47.8"/>
		</g>
		<g>
			
				<rect x="91.9" y="66.6" transform="matrix(-1 -1.224647e-16 1.224647e-16 -1 277.0401 180.9155)" class="st4" width="93.2" height="47.8"/>
		</g>
		<g>
			<path class="st7" d="M97.6,100.7V80.2c4.4,0,8-3.6,8-8h65.9c0,4.4,3.6,8,8,8v20.5c-4.4,0-8,3.6-8,8h-65.9
				C105.5,104.3,102,100.7,97.6,100.7z"/>
		</g>
		<g>
			<path class="st5" d="M155.9,90.5c0,3.7,3,6.7,6.7,6.7c3.7,0,6.7-3,6.7-6.7c0-3.7-3-6.7-6.7-6.7C158.9,83.8,155.9,86.8,155.9,90.5
				z"/>
		</g>
		<g>
			<path class="st5" d="M107.8,90.5c0,3.7,3,6.7,6.7,6.7c3.7,0,6.7-3,6.7-6.7c0-3.7-3-6.7-6.7-6.7C110.8,83.8,107.8,86.8,107.8,90.5
				z"/>
		</g>
		<g>
			<path class="st2" d="M138.5,88.9c-2.6,0-3.9-1.1-3.9-3.4c0-1.9,1.7-3.4,3.9-3.4c2.1,0,3.9,1.5,3.9,3.4c0,0.9,0.7,1.6,1.6,1.6
				s1.6-0.7,1.6-1.6c0-3.1-2.3-5.7-5.5-6.4v-1.3c0-0.9-0.7-1.6-1.6-1.6s-1.6,0.7-1.6,1.6v1.3c-3.1,0.7-5.5,3.3-5.5,6.4
				c0,3.2,1.8,6.6,7,6.6c2.6,0,3.9,1.1,3.9,3.4c0,1.9-1.7,3.4-3.9,3.4c-2.1,0-3.9-1.5-3.9-3.4c0-0.9-0.7-1.6-1.6-1.6
				c-0.9,0-1.6,0.7-1.6,1.6c0,3.1,2.3,5.7,5.5,6.4v1.3c0,0.9,0.7,1.6,1.6,1.6s1.6-0.7,1.6-1.6v-1.3c3.1-0.7,5.5-3.3,5.5-6.4
				C145.6,92.3,143.7,88.9,138.5,88.9z"/>
		</g>
		<g>
			<path class="st3" d="M192,32.3h-25.9c-0.9,0-1.6-0.7-1.6-1.6c0-0.9,0.7-1.6,1.6-1.6H192c0.9,0,1.6,0.7,1.6,1.6
				C193.6,31.5,192.9,32.3,192,32.3z"/>
		</g>
		<g>
			<path class="st3" d="M192,22.7h-25.9c-0.9,0-1.6-0.7-1.6-1.6s0.7-1.6,1.6-1.6H192c0.9,0,1.6,0.7,1.6,1.6S192.9,22.7,192,22.7z"/>
		</g>
		<g>
			<path class="st3" d="M176.6,41.8h-10.5c-0.9,0-1.6-0.7-1.6-1.6c0-0.9,0.7-1.6,1.6-1.6h10.5c0.9,0,1.6,0.7,1.6,1.6
				C178.2,41.1,177.5,41.8,176.6,41.8z"/>
		</g>
		<g>
			<path class="st2" d="M100,134.5c-0.9,0.1-1.5,0.9-1.4,1.7c0.1,0.8,0.8,1.4,1.6,1.4c0.1,0,0.1,0,0.2,0c0.9-0.1,1.5-0.9,1.4-1.7
				C101.6,135,100.9,134.4,100,134.5z"/>
		</g>
		<g>
			<path class="st2" d="M75.9,127.3c-0.7-0.5-1.7-0.4-2.2,0.2c-0.6,0.7-0.4,1.7,0.2,2.2c0.3,0.2,0.6,0.4,1,0.4
				c0.5,0,0.9-0.2,1.2-0.6C76.7,128.9,76.6,127.9,75.9,127.3z"/>
		</g>
		<g>
			<path class="st2" d="M78,147.4c-0.7-0.6-1.7-0.4-2.2,0.2c-0.6,0.7-0.5,1.7,0.2,2.2c0,0,0,0,0,0c0,0,0,0,0,0
				c0.3,0.2,0.6,0.4,1,0.4c0.5,0,0.9-0.2,1.2-0.6C78.8,149,78.7,148,78,147.4C78,147.4,78,147.4,78,147.4z"/>
		</g>
		<g>
			<path class="st2" d="M71.7,137.5c-0.9,0.1-1.5,0.9-1.4,1.7c0.1,0.8,0.8,1.4,1.6,1.4c0,0,0.1,0,0.2,0c0.9-0.1,1.5-0.9,1.4-1.7
				C73.3,138,72.5,137.4,71.7,137.5z"/>
		</g>
		<g>
			<path class="st2" d="M84.3,121.8c-0.9,0.1-1.5,0.9-1.4,1.7c0.1,0.8,0.8,1.4,1.6,1.4c0,0,0.1,0,0.2,0c0.9-0.1,1.5-0.9,1.4-1.7
				C86,122.4,85.2,121.7,84.3,121.8z"/>
		</g>
		<g>
			<path class="st2" d="M95.8,145.5c-0.6,0.7-0.4,1.7,0.2,2.2c0.3,0.2,0.7,0.3,1,0.3c0.5,0,0.9-0.2,1.2-0.6c0.5-0.7,0.4-1.7-0.2-2.2
				C97.4,144.7,96.4,144.8,95.8,145.5z"/>
		</g>
		<g>
			<path class="st2" d="M87.3,150.1c-0.9,0.1-1.5,0.9-1.4,1.7c0.1,0.8,0.8,1.4,1.6,1.4c0.1,0,0.1,0,0.2,0c0.9-0.1,1.5-0.9,1.4-1.7
				C89,150.7,88.2,150.1,87.3,150.1z"/>
		</g>
		<g>
			<path class="st2" d="M96,125.3c-0.7-0.6-1.7-0.5-2.2,0.2c-0.6,0.7-0.4,1.7,0.2,2.2c0.3,0.2,0.6,0.4,1,0.4c0.5,0,0.9-0.2,1.2-0.6
				C96.7,126.8,96.6,125.8,96,125.3z"/>
		</g>
	</g>
	<g>
		<g>
			<polygon class="st5" points="379.3,352.5 369.3,362.4 374.2,362.4 374.2,397.2 384.3,397.2 384.3,362.4 389.2,362.4 			"/>
		</g>
		<g>
			<polygon class="st5" points="313.6,424.7 303.6,434.6 308.5,434.6 308.5,469.4 318.7,469.4 318.7,434.6 323.5,434.6 			"/>
		</g>
		<g>
			<path class="st7" d="M338.7,420.9c12.6-24.6-22.4-45.2-39.8-37.6C300,403,317.1,424,338.7,420.9z"/>
		</g>
		<g>
			<path class="st7" d="M362.1,413.3c-11.2-25.3,21.5-38.1,41.2-33.9C400,399.8,378.4,424.1,362.1,413.3z"/>
		</g>
		<g>
			<path class="st2" d="M394.1,384.9c-0.4-0.8-1.3-1.1-2.1-0.7c-11.8,5.8-30.3,21.9-40.7,45.2c2-22.9,1.8-67.1-21.9-102.5
				c-0.5-0.7-1.5-0.9-2.2-0.4c-0.7,0.5-0.9,1.5-0.4,2.2c26.4,39.3,22.9,90,20.6,108.4c-9.3-28.6-27.2-41.7-35.2-47.5
				c-0.7-0.5-1.7-0.4-2.2,0.4c-0.5,0.7-0.4,1.7,0.3,2.2c8.3,6.1,27.8,20.3,36,52.5c0,0,0,0.1,0,0.1c0,0.1,0.1,0.2,0.1,0.3
				c0,0.1,0.1,0.2,0.1,0.3c0.1,0.1,0.1,0.2,0.2,0.2c0.1,0.1,0.1,0.2,0.2,0.2c0.1,0.1,0.2,0.1,0.3,0.1c0,0,0,0,0,0
				c0.1,0,0.1,0.1,0.2,0.1c0,0,0,0,0.1,0c0,0,0,0,0.1,0c0,0,0,0,0,0c0.1,0,0.2,0,0.3,0c0,0,0,0,0,0h0c0.1,0,0.3,0,0.4,0
				c0,0,0,0,0.1,0c0,0,0,0,0,0c0.1,0,0.1-0.1,0.1-0.1c0.5-0.2,0.9-0.7,0.9-1.2c7.7-30,30.5-50.8,44-57.5
				C394.2,386.6,394.5,385.7,394.1,384.9z"/>
		</g>
		<g>
			<path class="st5" d="M315.4,347.4c0,13.2,10.7,24,24,24s24-10.7,24-24s-10.7-24-24-24S315.4,334.1,315.4,347.4z"/>
		</g>
		<g>
			<path class="st5" d="M339.3,372.9c-14.1,0-25.6-11.5-25.6-25.6c0-14.1,11.5-25.6,25.6-25.6c14.1,0,25.6,11.5,25.6,25.6
				C364.9,361.5,353.4,372.9,339.3,372.9z M339.3,325c-12.3,0-22.4,10-22.4,22.4c0,12.3,10.1,22.4,22.4,22.4
				c12.4,0,22.4-10,22.4-22.4C361.7,335,351.7,325,339.3,325z"/>
		</g>
		<g>
			<path class="st6" d="M339.3,345.8c-3.2,0-4.9-1.5-4.9-4.3c0-2.4,2.2-4.3,4.9-4.3c2.7,0,4.9,1.9,4.9,4.3c0,0.9,0.7,1.6,1.6,1.6
				c0.9,0,1.6-0.7,1.6-1.6c0-3.6-2.8-6.6-6.5-7.3v-1.8c0-0.9-0.7-1.6-1.6-1.6c-0.9,0-1.6,0.7-1.6,1.6v1.8c-3.7,0.7-6.5,3.7-6.5,7.3
				c0,3.6,2.1,7.5,8.1,7.5c3.2,0,4.9,1.5,4.9,4.3c0,2.4-2.2,4.3-4.9,4.3c-2.7,0-4.9-1.9-4.9-4.3c0-0.9-0.7-1.6-1.6-1.6
				c-0.9,0-1.6,0.7-1.6,1.6c0,3.6,2.8,6.6,6.5,7.3v1.8c0,0.9,0.7,1.6,1.6,1.6c0.9,0,1.6-0.7,1.6-1.6v-1.8c3.7-0.7,6.5-3.7,6.5-7.3
				C347.4,349.6,345.3,345.8,339.3,345.8z"/>
		</g>
		<g>
			<rect x="334.2" y="443.6" class="st7" width="26.9" height="32.5"/>
		</g>
		<g>
			<rect x="295" y="457.5" class="st7" width="26.9" height="18.6"/>
		</g>
		<g>
			<rect x="373.5" y="427.6" class="st7" width="26.9" height="48.5"/>
		</g>
		<g>
			<path class="st2" d="M423.4,422.3c0-0.2,0-0.4,0-0.5c0,0,0-0.1,0-0.1c0-0.2-0.1-0.3-0.2-0.5c0,0,0,0,0,0c0,0,0,0,0,0c0,0,0,0,0,0
				c-0.1-0.1-0.3-0.3-0.4-0.4c0,0-0.1,0-0.1-0.1c-0.2-0.1-0.3-0.1-0.5-0.2c0,0-0.1,0-0.1,0c-0.1,0-0.1,0-0.2,0l-10.8,0.4
				c-0.9,0-1.6,0.8-1.5,1.6c0,0.9,0.8,1.6,1.6,1.5l5.7-0.2l-46.9,35l-14.4-9.5c-0.6-0.4-1.3-0.3-1.8,0.1L325,470.6l-14.9-9.5
				c-0.5-0.4-1.3-0.3-1.8,0.1l-27.7,20.2c-0.7,0.5-0.9,1.5-0.4,2.2c0.3,0.4,0.8,0.7,1.3,0.7c0.3,0,0.6-0.1,0.9-0.3l26.8-19.6
				l14.9,9.5c0.6,0.4,1.3,0.3,1.8-0.1l28.5-21.2l14.4,9.5c0.6,0.4,1.3,0.3,1.8-0.1l48.1-35.8l-1.7,5.8c-0.2,0.8,0.2,1.7,1.1,2
				c0.2,0,0.3,0.1,0.5,0.1c0.7,0,1.3-0.5,1.5-1.1l3.1-10.3c0-0.1,0-0.1,0-0.2C423.4,422.3,423.4,422.3,423.4,422.3z"/>
		</g>
		<g>
			<path class="st3" d="M305.2,366.1h-27.9c-0.9,0-1.6-0.7-1.6-1.6s0.7-1.6,1.6-1.6h27.9c0.9,0,1.6,0.7,1.6,1.6
				S306.1,366.1,305.2,366.1z"/>
		</g>
		<g>
			<path class="st3" d="M305.2,355.9h-27.9c-0.9,0-1.6-0.7-1.6-1.6s0.7-1.6,1.6-1.6h27.9c0.9,0,1.6,0.7,1.6,1.6
				S306.1,355.9,305.2,355.9z"/>
		</g>
		<g>
			<path class="st3" d="M293.8,376.4h-16.4c-0.9,0-1.6-0.7-1.6-1.6c0-0.9,0.7-1.6,1.6-1.6h16.4c0.9,0,1.6,0.7,1.6,1.6
				C295.4,375.7,294.6,376.4,293.8,376.4z"/>
		</g>
		<g>
			<path class="st2" d="M446.8,394.8H419c-0.9,0-1.6-0.7-1.6-1.6s0.7-1.6,1.6-1.6h27.9c0.9,0,1.6,0.7,1.6,1.6
				S447.7,394.8,446.8,394.8z"/>
		</g>
		<g>
			<path class="st2" d="M446.8,384.5H419c-0.9,0-1.6-0.7-1.6-1.6c0-0.9,0.7-1.6,1.6-1.6h27.9c0.9,0,1.6,0.7,1.6,1.6
				C448.4,383.8,447.7,384.5,446.8,384.5z"/>
		</g>
		<g>
			<path class="st2" d="M435.4,405.1H419c-0.9,0-1.6-0.7-1.6-1.6c0-0.9,0.7-1.6,1.6-1.6h16.4c0.9,0,1.6,0.7,1.6,1.6
				C437,404.4,436.3,405.1,435.4,405.1z"/>
		</g>
		<g>
			<g>
				<path class="st5" d="M297.7,420.9c-0.9,0.1-1.5,0.8-1.5,1.7c0.1,0.8,0.8,1.5,1.6,1.5c0,0,0.1,0,0.1,0c0.9-0.1,1.5-0.8,1.5-1.7
					C299.4,421.5,298.6,420.8,297.7,420.9z"/>
			</g>
			<g>
				<path class="st5" d="M288.7,418.3c-0.7-0.5-1.7-0.3-2.2,0.4c-0.5,0.7-0.3,1.7,0.4,2.2c0,0,0,0,0.1,0c0.3,0.2,0.6,0.3,0.9,0.3
					c0.5,0,1-0.2,1.3-0.7C289.6,419.9,289.4,418.9,288.7,418.3C288.7,418.4,288.7,418.3,288.7,418.3z"/>
			</g>
			<g>
				<path class="st5" d="M289.7,391.8c-0.8,0.4-1.2,1.3-0.8,2.1c0.2,0.6,0.8,1,1.4,1c0.2,0,0.4-0.1,0.7-0.1c0.8-0.4,1.2-1.3,0.8-2.1
					C291.5,391.8,290.5,391.4,289.7,391.8z"/>
			</g>
			<g>
				<path class="st5" d="M281.5,409.4c-0.8,0.2-1.4,1.1-1.1,1.9c0.2,0.7,0.8,1.2,1.5,1.2c0.1,0,0.3,0,0.4,0c0.9-0.2,1.4-1.1,1.2-1.9
					C283.2,409.7,282.3,409.2,281.5,409.4z"/>
			</g>
			<g>
				<path class="st5" d="M283.6,399.1c-0.8-0.4-1.7,0-2.1,0.7c-0.4,0.8-0.1,1.7,0.7,2.1c0.2,0.1,0.5,0.2,0.7,0.2
					c0.6,0,1.2-0.3,1.4-0.9C284.7,400.4,284.4,399.5,283.6,399.1z"/>
			</g>
			<g>
				<path class="st5" d="M301.3,390.9c-0.8-0.2-1.7,0.2-2,1.1c-0.2,0.8,0.3,1.7,1.1,2c0.1,0.1,0.3,0.1,0.4,0.1
					c0.7,0,1.3-0.5,1.5-1.2C302.6,392,302.1,391.2,301.3,390.9z"/>
			</g>
			<g>
				<path class="st5" d="M310.7,397.7c-0.5-0.7-1.5-0.9-2.2-0.4c-0.7,0.5-0.9,1.5-0.4,2.2c0.3,0.4,0.8,0.7,1.3,0.7
					c0.3,0,0.6-0.1,0.9-0.3C311,399.4,311.2,398.4,310.7,397.7z"/>
			</g>
			<g>
				<path class="st5" d="M312.1,407.1c-0.9-0.1-1.6,0.6-1.7,1.4c-0.1,0.9,0.6,1.6,1.4,1.7c0.1,0,0.1,0,0.2,0c0.8,0,1.5-0.6,1.6-1.4
					C313.6,408,313,407.2,312.1,407.1z"/>
			</g>
			<g>
				<path class="st5" d="M306.3,417c-0.6,0.6-0.6,1.6,0,2.2c0.3,0.3,0.7,0.5,1.1,0.5c0.4,0,0.8-0.2,1.1-0.5c0.6-0.6,0.6-1.6,0-2.2
					C307.9,416.4,306.9,416.4,306.3,417z"/>
			</g>
		</g>
		<g>
			<path class="st4" d="M292.1,442.6c0,6-4.9,10.9-10.9,10.9c-6,0-10.9-4.9-10.9-10.9c0-6,4.9-10.9,10.9-10.9
				C287.2,431.7,292.1,436.6,292.1,442.6z"/>
		</g>
		<g>
			<path class="st2" d="M281.3,450.9c-0.5,0-1-0.2-1.3-0.6l-6.8-9c-0.5-0.7-0.4-1.7,0.3-2.2c0.7-0.5,1.7-0.4,2.2,0.3l5.4,7.1
				l8.5-14.5c0.4-0.8,1.4-1,2.2-0.6c0.8,0.4,1,1.4,0.6,2.2l-9.7,16.5C282.4,450.6,281.9,450.9,281.3,450.9
				C281.4,450.9,281.3,450.9,281.3,450.9z"/>
		</g>
	</g>
	<g>
		<g>
			<path class="st3" d="M894.7,483.9c-7.6,0-13.8-6.2-13.8-13.7c0-7.6,6.2-13.8,13.8-13.8c7.6,0,13.7,6.2,13.7,13.8
				C908.5,477.7,902.3,483.9,894.7,483.9z M894.7,459.6c-5.8,0-10.6,4.7-10.6,10.6c0,5.8,4.7,10.6,10.6,10.6
				c5.8,0,10.6-4.7,10.6-10.6C905.3,464.3,900.6,459.6,894.7,459.6z"/>
		</g>
		<g>
			<path class="st7" d="M816,344.2v115c0,6,4.9,10.9,10.9,10.9h135.7c6,0,10.9-4.9,10.9-10.9v-115H816z"/>
		</g>
		<g>
			<path class="st4" d="M975.5,330.4H814.3c-2.8,0-5.1,2.3-5.1,5.1v3.7c0,2.8,2.3,5.1,5.1,5.1h161.2c2.8,0,5.1-2.3,5.1-5.1v-3.7
				C980.6,332.7,978.3,330.4,975.5,330.4z"/>
		</g>
		<g>
			<polygon class="st5" points="856.4,484.4 864.2,476.7 860.4,476.7 860.4,449.9 852.4,449.9 852.4,476.7 848.6,476.7 			"/>
		</g>
		<g>
			<polygon class="st6" points="902.1,409.3 894.3,417 898.1,417 898.1,432.7 906.1,432.7 906.1,417 909.9,417 			"/>
		</g>
		<g>
			<path class="st3" d="M899.9,319v36.6h33.2v12.8c0,0.9,0.7,1.6,1.6,1.6c0.9,0,1.6-0.7,1.6-1.6v-12.8h6.9V319H899.9z"/>
		</g>
		<g>
			<path class="st2" d="M935.4,338.9h-27.9c-0.9,0-1.6-0.7-1.6-1.6c0-0.9,0.7-1.6,1.6-1.6h27.9c0.9,0,1.6,0.7,1.6,1.6
				C937,338.2,936.3,338.9,935.4,338.9z"/>
		</g>
		<g>
			<path class="st2" d="M935.4,328.6h-27.9c-0.9,0-1.6-0.7-1.6-1.6c0-0.9,0.7-1.6,1.6-1.6h27.9c0.9,0,1.6,0.7,1.6,1.6
				C937,327.9,936.3,328.6,935.4,328.6z"/>
		</g>
		<g>
			<path class="st2" d="M928.7,349.2h-21.1c-0.9,0-1.6-0.7-1.6-1.6c0-0.9,0.7-1.6,1.6-1.6h21.1c0.9,0,1.6,0.7,1.6,1.6
				C930.3,348.5,929.6,349.2,928.7,349.2z"/>
		</g>
		<g>
			<path class="st3" d="M978.7,403.7c0,0,0-0.1,0-0.1c0.1-0.2,0.1-0.4,0.1-0.5c0-0.2,0-0.4-0.1-0.5c0,0,0-0.1,0-0.1
				c-0.1-0.2-0.2-0.3-0.3-0.4c0,0,0,0-0.1-0.1c-0.1-0.1-0.1-0.1-0.2-0.2l-8.5-5.4c-0.7-0.5-1.7-0.2-2.2,0.5
				c-0.5,0.7-0.2,1.7,0.5,2.2l3.9,2.4h-41.1c-0.4,0-0.8,0.2-1.1,0.5l-27.9,27.9h-46.5c-0.4,0-0.8,0.2-1.1,0.5l-26.2,26.2
				c-0.6,0.6-0.6,1.6,0,2.2c0.3,0.3,0.7,0.5,1.1,0.5c0.4,0,0.8-0.2,1.1-0.5l25.7-25.7h46.5c0.4,0,0.8-0.2,1.1-0.5l27.9-27.9h40.5
				l-3.9,2.4c-0.7,0.5-1,1.4-0.5,2.2c0.3,0.5,0.8,0.7,1.3,0.7c0.3,0,0.6-0.1,0.8-0.2l8.5-5.4c0.1-0.1,0.2-0.1,0.2-0.2
				c0,0,0,0,0.1-0.1C978.5,404,978.6,403.9,978.7,403.7z"/>
		</g>
		<g>
			<path class="st5" d="M949.9,422.3c0,0,0-0.1,0-0.1c-0.1-0.2-0.2-0.3-0.3-0.4c0,0,0,0-0.1-0.1c-0.1-0.1-0.1-0.1-0.2-0.2l-8.5-5.4
				c-0.7-0.5-1.7-0.2-2.2,0.5s-0.2,1.7,0.5,2.2l3.9,2.4h-13.1l-17.5-17.6c-0.3-0.3-0.7-0.5-1.1-0.5h-37.3l-43.8-43.7v-4.4H824V388
				h6.1v-24l42,41.9c0.3,0.3,0.7,0.5,1.1,0.5h37.3l17.5,17.6c0.3,0.3,0.7,0.5,1.1,0.5H943l-3.9,2.4c-0.7,0.5-1,1.4-0.5,2.2
				c0.3,0.5,0.8,0.7,1.3,0.7c0.3,0,0.6-0.1,0.8-0.2l8.5-5.4c0.1-0.1,0.2-0.1,0.2-0.2c0,0,0,0,0.1-0.1c0.1-0.1,0.2-0.3,0.3-0.4
				c0,0,0-0.1,0-0.1c0.1-0.2,0.1-0.4,0.1-0.5S950,422.5,949.9,422.3z"/>
		</g>
		<g>
			<circle class="st8" cx="873.3" cy="404.6" r="5.4"/>
		</g>
		<g>
			<path class="st2" d="M993.3,353.8l-8.5-5.4c-0.7-0.5-1.7-0.2-2.2,0.5c-0.5,0.7-0.2,1.7,0.5,2.2l3.9,2.4h-33.6
				c-0.4,0-0.8,0.2-1.1,0.5L934,372.3h-58.2c-0.4,0-0.8,0.2-1.1,0.5l-44.6,44.6V388H824v34.3h4.3h1.3h0.6v-0.5l46.4-46.4h58.2
				c0.4,0,0.8-0.2,1.1-0.5l18.2-18.2H987l-3.9,2.4c-0.7,0.5-1,1.4-0.5,2.2c0.3,0.5,0.8,0.7,1.3,0.7c0.3,0,0.6-0.1,0.8-0.2l8.5-5.4
				c0.5-0.3,0.7-0.8,0.7-1.3C994,354.6,993.7,354.1,993.3,353.8z"/>
		</g>
		<g>
			<path class="st2" d="M873.3,411.6c-3.9,0-7-3.1-7-7s3.1-7,7-7c3.9,0,7,3.1,7,7S877.1,411.6,873.3,411.6z M873.3,400.8
				c-2.1,0-3.8,1.7-3.8,3.8s1.7,3.8,3.8,3.8c2.1,0,3.8-1.7,3.8-3.8S875.4,400.8,873.3,400.8z"/>
		</g>
		<g>
			<path class="st2" d="M940.1,373.8c0,3-2.4,5.4-5.4,5.4c-3,0-5.4-2.4-5.4-5.4c0-3,2.4-5.4,5.4-5.4
				C937.7,368.4,940.1,370.8,940.1,373.8z"/>
		</g>
		<g>
			<path class="st6" d="M934.7,380.8c-3.9,0-7-3.1-7-7c0-3.8,3.1-7,7-7c3.8,0,7,3.1,7,7C941.7,377.7,938.5,380.8,934.7,380.8z
				 M934.7,370c-2.1,0-3.8,1.7-3.8,3.8c0,2.1,1.7,3.8,3.8,3.8c2.1,0,3.8-1.7,3.8-3.8C938.5,371.7,936.8,370,934.7,370z"/>
		</g>
		<g>
			<path class="st6" d="M861.7,451.5c0,3-2.4,5.4-5.4,5.4c-3,0-5.4-2.4-5.4-5.4c0-3,2.4-5.4,5.4-5.4
				C859.3,446.1,861.7,448.5,861.7,451.5z"/>
		</g>
		<g>
			<path class="st6" d="M967.7,438.5C967.7,438.5,967.7,438.5,967.7,438.5c0-0.2-0.1-0.3-0.1-0.5c0-0.1-0.1-0.2-0.1-0.2
				c0,0,0,0,0-0.1c-0.2-0.3-0.4-0.6-0.8-0.7l-8.2-5.2c-0.7-0.5-1.7-0.2-2.2,0.5c-0.5,0.7-0.2,1.7,0.5,2.2l3.8,2.4h-41
				c-0.4,0-0.8,0.2-1.1,0.5L906,449.9h-48.9l-27-27v-0.6H824V442h6.1v-14.6l25.2,25.2c0.3,0.3,0.7,0.5,1.1,0.5h50.2
				c0.4,0,0.8-0.2,1.1-0.5l12.5-12.5h40.5l-3.9,2.5c-0.7,0.5-1,1.4-0.5,2.2c0.3,0.5,0.8,0.7,1.3,0.7c0.3,0,0.6-0.1,0.8-0.2l8.5-5.4
				C967.4,439.6,967.7,439.1,967.7,438.5C967.7,438.6,967.7,438.6,967.7,438.5L967.7,438.5z"/>
		</g>
		<g>
			<path class="st2" d="M856.3,458.4c-3.9,0-7-3.1-7-7c0-3.9,3.1-7,7-7c3.8,0,7,3.1,7,7C863.3,455.3,860.1,458.4,856.3,458.4z
				 M856.3,447.6c-2.1,0-3.8,1.7-3.8,3.8s1.7,3.8,3.8,3.8c2.1,0,3.8-1.7,3.8-3.8S858.4,447.6,856.3,447.6z"/>
		</g>
		<g>
			<path class="st3" d="M907.5,431.3c0,3-2.4,5.4-5.4,5.4c-3,0-5.4-2.4-5.4-5.4c0-3,2.4-5.4,5.4-5.4
				C905.1,425.9,907.5,428.4,907.5,431.3z"/>
		</g>
		<g>
			<path class="st2" d="M902.1,438.3c-3.9,0-7-3.1-7-7s3.1-7,7-7c3.8,0,7,3.1,7,7S906,438.3,902.1,438.3z M902.1,427.5
				c-2.1,0-3.8,1.7-3.8,3.8s1.7,3.8,3.8,3.8c2.1,0,3.8-1.7,3.8-3.8S904.2,427.5,902.1,427.5z"/>
		</g>
		<g>
			<rect x="824" y="441.9" class="st3" width="6.1" height="19.8"/>
		</g>
		<g>
			<path class="st2" d="M978.1,476.7H952c-0.9,0-1.6-0.7-1.6-1.6c0-0.9,0.7-1.6,1.6-1.6h26.1c0.9,0,1.6,0.7,1.6,1.6
				C979.7,476,979,476.7,978.1,476.7z"/>
		</g>
		<g>
			<path class="st2" d="M978.1,466.5H952c-0.9,0-1.6-0.7-1.6-1.6c0-0.9,0.7-1.6,1.6-1.6h26.1c0.9,0,1.6,0.7,1.6,1.6
				C979.7,465.8,979,466.5,978.1,466.5z"/>
		</g>
		<g>
			<path class="st2" d="M969.9,487H952c-0.9,0-1.6-0.7-1.6-1.6c0-0.9,0.7-1.6,1.6-1.6h17.9c0.9,0,1.6,0.7,1.6,1.6
				C971.5,486.3,970.8,487,969.9,487z"/>
		</g>
		<g>
			<path class="st2" d="M859.1,355.7c-0.1-0.9,0.6-1.6,1.5-1.7l0,0c0.9-0.1,1.6,0.6,1.7,1.5l0,0c0.1,0.9-0.6,1.6-1.5,1.7l0,0
				c0,0-0.1,0-0.1,0l0,0C859.9,357.2,859.2,356.6,859.1,355.7z M847.4,352.7L847.4,352.7C847.4,352.7,847.3,352.7,847.4,352.7
				L847.4,352.7c-0.7-0.6-0.8-1.6-0.2-2.3l0,0c0.6-0.6,1.5-0.7,2.2-0.2l0,0c0,0,0,0,0,0l0,0l0,0l0,0c0,0,0,0,0,0l0,0h0l0,0
				c0.7,0.6,0.7,1.6,0.1,2.2l0,0c-0.3,0.4-0.7,0.5-1.2,0.5l0,0C848,353.1,847.7,352.9,847.4,352.7z M871.2,351.1
				c-0.7-0.6-0.7-1.6-0.1-2.2l0,0c0.6-0.7,1.6-0.7,2.2-0.1l0,0c0.6,0.6,0.7,1.6,0.1,2.2l0,0c-0.3,0.4-0.7,0.5-1.2,0.5l0,0
				C871.9,351.5,871.5,351.3,871.2,351.1z M841.1,339.9c0-0.9,0.6-1.6,1.5-1.7l0,0c0.9-0.1,1.6,0.6,1.7,1.5l0,0
				c0.1,0.9-0.6,1.6-1.5,1.7l0,0c0,0-0.1,0-0.1,0l0,0C841.8,341.4,841.1,340.8,841.1,339.9z M874.8,337.7c-0.1-0.9,0.6-1.6,1.5-1.7
				l0,0c0.9-0.1,1.6,0.6,1.7,1.5l0,0c0.1,0.9-0.6,1.6-1.5,1.7l0,0c-0.1,0-0.1,0-0.1,0l0,0C875.6,339.2,874.9,338.6,874.8,337.7z
				 M845.8,328.8c-0.7-0.6-0.7-1.6-0.2-2.2l0,0c0.6-0.7,1.6-0.7,2.2-0.1l0,0c0.7,0.6,0.7,1.6,0.2,2.2l0,0l0,0l0,0
				c-0.3,0.4-0.8,0.5-1.2,0.5l0,0C846.5,329.2,846.1,329,845.8,328.8z M869.7,327.2L869.7,327.2L869.7,327.2
				c-0.7-0.6-0.7-1.6-0.2-2.2l0,0c0.6-0.7,1.6-0.7,2.2-0.2l0,0c0.7,0.6,0.7,1.6,0.2,2.2l0,0c-0.3,0.4-0.8,0.5-1.2,0.5l0,0
				C870.3,327.6,870,327.5,869.7,327.2z M856.8,322c-0.1-0.9,0.6-1.6,1.5-1.7l0,0c0.9-0.1,1.6,0.6,1.7,1.5l0,0
				c0.1,0.9-0.6,1.6-1.5,1.7l0,0l0,0l0,0c0,0-0.1,0-0.1,0l0,0C857.6,323.4,856.9,322.8,856.8,322z"/>
		</g>
		<g>
			<path class="st5" d="M809.3,396.8c0,2.5-2,4.5-4.5,4.5c-2.5,0-4.5-2-4.5-4.5c0-2.5,2-4.5,4.5-4.5
				C807.3,392.3,809.3,394.3,809.3,396.8z"/>
		</g>
		<g>
			<path class="st2" d="M809.3,411c0,2.5-2,4.5-4.5,4.5c-2.5,0-4.5-2-4.5-4.5c0-2.5,2-4.5,4.5-4.5
				C807.3,406.5,809.3,408.6,809.3,411z"/>
		</g>
		<g>
			<path class="st4" d="M809.3,425.3c0,2.5-2,4.5-4.5,4.5c-2.5,0-4.5-2-4.5-4.5c0-2.5,2-4.5,4.5-4.5
				C807.3,420.8,809.3,422.8,809.3,425.3z"/>
		</g>
		<g>
			<path class="st3" d="M809.3,439.6c0,2.5-2,4.5-4.5,4.5c-2.5,0-4.5-2-4.5-4.5c0-2.5,2-4.5,4.5-4.5
				C807.3,435.1,809.3,437.1,809.3,439.6z"/>
		</g>
	</g>
	<g>
		<g>
			<polygon class="st3" points="386.6,16.7 376.7,26.7 381.6,26.7 381.6,61.4 391.7,61.4 391.7,26.7 396.6,26.7 			"/>
		</g>
		<g>
			<path class="st7" d="M432.3,179.2H286.4c-1.9,0-3.5,1.6-3.5,3.5v5.1c0,1.9,1.6,3.5,3.5,3.5h145.9c1.9,0,3.5-1.6,3.5-3.5v-5.1
				C435.8,180.8,434.2,179.2,432.3,179.2z"/>
		</g>
		<g>
			<path class="st7" d="M282.9,78.8L359.3,25l76.4,53.7H282.9z"/>
		</g>
		<g>
			<path class="st5" d="M357.8,47.6c0.4-1.1,0.7-2.3,1-3.5c0.2-1.2,0.4-2.4,0.4-3.6L352,38c-0.1-0.7-0.2-1.4-0.4-2.1l5.6-5.2
				c-1-2.2-2.4-4.2-4-6l-6.9,3.2c-0.6-0.4-1.1-0.8-1.8-1.2l0.3-7.6c-1.1-0.4-2.3-0.7-3.5-1c-1.2-0.2-2.4-0.4-3.6-0.4l-2.6,7.2
				c-0.7,0.1-1.4,0.2-2.1,0.4l-5.2-5.6c-2.2,1-4.2,2.4-6,4l3.2,6.9c-0.4,0.6-0.8,1.1-1.2,1.7l-7.6-0.2c-0.4,1.1-0.7,2.3-1,3.5
				c-0.2,1.2-0.4,2.4-0.4,3.6l7.2,2.6c0.1,0.7,0.2,1.4,0.4,2.1l-5.6,5.2c1,2.2,2.4,4.2,4,6l6.9-3.2c0.6,0.4,1.1,0.8,1.7,1.2
				l-0.2,7.6c1.1,0.4,2.3,0.7,3.5,1c1.2,0.2,2.4,0.4,3.6,0.4l2.6-7.2c0.7-0.1,1.4-0.2,2.1-0.4l5.2,5.6c2.2-1,4.2-2.4,6-4l-3.2-6.9
				c0.4-0.5,0.8-1.1,1.2-1.7L357.8,47.6z"/>
		</g>
		<g>
			<path class="st6" d="M345.4,41.6c-0.9,4.6-5.3,7.6-10,6.7c-4.6-0.9-7.6-5.4-6.7-10c0.9-4.6,5.4-7.6,10-6.7
				C343.3,32.5,346.3,36.9,345.4,41.6z"/>
		</g>
		<g>
			<path class="st5" d="M382.5,61.3c0-0.8,0-1.6-0.1-2.4c-0.1-0.8-0.3-1.6-0.5-2.3l-5.1-0.1c-0.2-0.4-0.4-0.8-0.7-1.2l2.4-4.4
				c-1.1-1.2-2.4-2.1-3.8-2.9l-3.7,3.5c-0.4-0.1-0.9-0.3-1.3-0.4l-1.5-4.8c-0.8,0-1.6,0-2.4,0.1c-0.8,0.1-1.6,0.3-2.3,0.5l-0.1,5.1
				c-0.4,0.2-0.8,0.4-1.2,0.7l-4.5-2.4c-1.2,1.1-2.1,2.4-2.9,3.8l3.5,3.7c-0.2,0.4-0.3,0.9-0.4,1.3l-4.8,1.5c0,0.8,0,1.6,0.1,2.4
				c0.1,0.8,0.3,1.6,0.5,2.3l5.1,0.1c0.2,0.4,0.4,0.8,0.7,1.2l-2.4,4.5c1.1,1.2,2.4,2.1,3.8,2.9l3.7-3.5c0.4,0.2,0.9,0.3,1.3,0.4
				l1.5,4.8c0.8,0,1.6,0,2.4-0.1c0.8-0.1,1.6-0.3,2.3-0.5l0.1-5.1c0.4-0.2,0.8-0.4,1.2-0.7l4.5,2.4c1.2-1.1,2.1-2.4,2.9-3.8
				l-3.5-3.7c0.1-0.4,0.3-0.9,0.4-1.3L382.5,61.3z"/>
		</g>
		<g>
			<path class="st6" d="M373.1,60.2c0.4,2.9-1.6,5.6-4.6,6c-2.9,0.4-5.6-1.6-6-4.6c-0.4-2.9,1.6-5.6,4.6-6
				C370,55.2,372.7,57.3,373.1,60.2z"/>
		</g>
		<g>
			<rect x="300.8" y="99" class="st5" width="116.9" height="59.9"/>
		</g>
		<g>
			<path class="st5" d="M308,141.8v-25.7c5.5,0,10-4.5,10-10h82.7c0,5.5,4.5,10,10,10v25.7c-5.5,0-10,4.5-10,10H318
				C318,146.3,313.5,141.8,308,141.8z"/>
		</g>
		<g>
			<path class="st5" d="M400.7,153.4H318c-0.9,0-1.6-0.7-1.6-1.6c0-4.6-3.8-8.4-8.4-8.4c-0.9,0-1.6-0.7-1.6-1.6v-25.7
				c0-0.9,0.7-1.6,1.6-1.6c4.6,0,8.4-3.8,8.4-8.4c0-0.9,0.7-1.6,1.6-1.6h82.7c0.9,0,1.6,0.7,1.6,1.6c0,4.6,3.8,8.4,8.4,8.4
				c0.9,0,1.6,0.7,1.6,1.6v25.7c0,0.9-0.7,1.6-1.6,1.6c-4.6,0-8.4,3.8-8.4,8.4C402.2,152.7,401.5,153.4,400.7,153.4z M319.4,150.2
				h79.8c0.7-5.1,4.8-9.2,9.9-9.9v-22.7c-5.1-0.7-9.2-4.8-9.9-9.9h-79.8c-0.7,5.1-4.8,9.2-9.9,9.9v22.7
				C314.7,141,318.7,145.1,319.4,150.2z"/>
		</g>
		<g>
			<path class="st6" d="M381.1,129c0,6.8,3.8,12.4,8.4,12.4s8.4-5.5,8.4-12.4c0-6.8-3.8-12.4-8.4-12.4S381.1,122.1,381.1,129z"/>
		</g>
		<g>
			<path class="st6" d="M320.7,129c0,6.8,3.8,12.4,8.4,12.4s8.4-5.5,8.4-12.4c0-6.8-3.8-12.4-8.4-12.4S320.7,122.1,320.7,129z"/>
		</g>
		<g>
			<path class="st2" d="M359.3,127.4c-4.3,0-5.3-2.5-5.3-4.6c0-2.6,2.4-4.6,5.3-4.6c2.9,0,5.3,2.1,5.3,4.6c0,0.9,0.7,1.6,1.6,1.6
				c0.9,0,1.6-0.7,1.6-1.6c0-3.8-3-7-6.8-7.7v-2c0-0.9-0.7-1.6-1.6-1.6c-0.9,0-1.6,0.7-1.6,1.6v2c-3.9,0.7-6.8,3.9-6.8,7.7
				c0,3.8,2.2,7.8,8.4,7.8c4.3,0,5.3,2.5,5.3,4.6c0,2.6-2.4,4.6-5.3,4.6c-2.9,0-5.3-2.1-5.3-4.6c0-0.9-0.7-1.6-1.6-1.6
				c-0.9,0-1.6,0.7-1.6,1.6c0,3.8,2.9,7,6.8,7.7v2c0,0.9,0.7,1.6,1.6,1.6c0.9,0,1.6-0.7,1.6-1.6v-2c3.9-0.7,6.8-3.9,6.8-7.7
				C367.7,131.4,365.5,127.4,359.3,127.4z"/>
		</g>
		<g>
			<rect x="291.9" y="165.3" class="st4" width="134.9" height="7.5"/>
		</g>
		<g>
			<rect x="291.9" y="85.1" class="st4" width="134.9" height="7.5"/>
		</g>
		<g>
			<path class="st2" d="M413.6,72.6c-0.1-0.9,0.5-1.7,1.3-1.8l0,0c0,0,0,0,0,0l0,0c0.9-0.1,1.7,0.5,1.8,1.4l0,0
				c0.1,0.9-0.5,1.7-1.4,1.8l0,0c-0.1,0-0.1,0-0.2,0l0,0C414.4,73.9,413.7,73.3,413.6,72.6z M401.7,70.3
				C401.7,70.3,401.7,70.3,401.7,70.3L401.7,70.3L401.7,70.3L401.7,70.3c-0.7-0.6-0.9-1.6-0.3-2.3l0,0c0.5-0.7,1.5-0.8,2.2-0.3l0,0
				c0,0,0,0,0,0l0,0l0,0l0,0c0.7,0.5,0.8,1.5,0.3,2.2l0,0c-0.3,0.4-0.8,0.6-1.3,0.6l0,0C402.3,70.6,402,70.5,401.7,70.3z
				 M425.4,67.1c-0.7-0.5-0.8-1.5-0.3-2.2l0,0c0.5-0.7,1.5-0.8,2.2-0.3l0,0c0.7,0.5,0.8,1.5,0.3,2.2l0,0c-0.3,0.4-0.8,0.6-1.3,0.6
				l0,0C426,67.4,425.7,67.3,425.4,67.1z M394.6,58c-0.1-0.9,0.5-1.7,1.4-1.8l0,0c0.9-0.1,1.7,0.5,1.8,1.4l0,0
				c0.1,0.9-0.5,1.7-1.4,1.8l0,0c-0.1,0-0.1,0-0.2,0l0,0C395.4,59.4,394.7,58.8,394.6,58z M428.1,53.5c-0.1-0.9,0.5-1.7,1.4-1.8l0,0
				c0.9-0.1,1.7,0.5,1.8,1.3l0,0c0.1,0.9-0.5,1.7-1.4,1.8l0,0c-0.1,0-0.1,0-0.2,0l0,0C428.9,54.9,428.2,54.3,428.1,53.5z
				 M398.5,46.6c-0.7-0.5-0.8-1.5-0.3-2.2l0,0c0.5-0.7,1.5-0.8,2.2-0.3l0,0c0.7,0.5,0.8,1.5,0.3,2.2l0,0c-0.3,0.4-0.8,0.6-1.3,0.6
				l0,0C399.2,46.9,398.8,46.8,398.5,46.6z M422.2,43.4L422.2,43.4L422.2,43.4c-0.7-0.5-0.8-1.5-0.3-2.2l0,0
				c0.5-0.7,1.5-0.8,2.2-0.3l0,0c0.7,0.5,0.8,1.5,0.3,2.2l0,0c-0.3,0.4-0.8,0.6-1.3,0.6l0,0C422.9,43.7,422.5,43.6,422.2,43.4z
				 M409.1,39c-0.1-0.9,0.5-1.7,1.3-1.8h0c0.9-0.1,1.7,0.5,1.8,1.4l0,0c0.1,0.9-0.5,1.7-1.4,1.8l0,0c-0.1,0-0.1,0-0.2,0l0,0
				C409.9,40.4,409.2,39.8,409.1,39z"/>
		</g>
		<g>
			<path class="st2" d="M313,136.7h-28c-0.9,0-1.6-0.7-1.6-1.6c0-0.9,0.7-1.6,1.6-1.6h28c0.9,0,1.6,0.7,1.6,1.6
				C314.5,136,313.8,136.7,313,136.7z"/>
		</g>
		<g>
			<path class="st2" d="M313,124.7h-28c-0.9,0-1.6-0.7-1.6-1.6c0-0.9,0.7-1.6,1.6-1.6h28c0.9,0,1.6,0.7,1.6,1.6
				C314.5,124,313.8,124.7,313,124.7z"/>
		</g>
		<g>
			<path class="st2" d="M304.2,148.8H285c-0.9,0-1.6-0.7-1.6-1.6s0.7-1.6,1.6-1.6h19.2c0.9,0,1.6,0.7,1.6,1.6S305,148.8,304.2,148.8
				z"/>
		</g>
		<g>
			<path class="st7" d="M398.7,149.7c0,9.7,7.9,17.6,17.6,17.6c9.7,0,17.6-7.9,17.6-17.6c0-9.7-7.9-17.6-17.6-17.6
				C406.5,132.1,398.7,140,398.7,149.7z"/>
		</g>
		<g>
			<path class="st3" d="M416.2,168.9c-10.6,0-19.2-8.6-19.2-19.2c0-10.6,8.6-19.2,19.2-19.2c10.6,0,19.2,8.6,19.2,19.2
				C435.4,160.3,426.8,168.9,416.2,168.9z M416.2,133.7c-8.8,0-16,7.2-16,16c0,8.8,7.2,16,16,16c8.8,0,16-7.2,16-16
				C432.3,140.9,425.1,133.7,416.2,133.7z"/>
		</g>
		<g>
			<path class="st2" d="M416.2,148.1c-2.1,0-3.2-0.9-3.2-2.7c0-1.5,1.4-2.7,3.2-2.7c1.7,0,3.2,1.2,3.2,2.7c0,0.9,0.7,1.6,1.6,1.6
				c0.9,0,1.6-0.7,1.6-1.6c0-2.7-2-5-4.7-5.7v-1c0-0.9-0.7-1.6-1.6-1.6c-0.9,0-1.6,0.7-1.6,1.6v1c-2.7,0.7-4.7,2.9-4.7,5.7
				c0,3.6,2.5,5.9,6.3,5.9c2.1,0,3.2,0.9,3.2,2.7c0,1.5-1.4,2.7-3.2,2.7c-1.7,0-3.2-1.2-3.2-2.7c0-0.9-0.7-1.6-1.6-1.6
				c-0.9,0-1.6,0.7-1.6,1.6c0,2.7,2,5,4.7,5.7v1c0,0.9,0.7,1.6,1.6,1.6c0.9,0,1.6-0.7,1.6-1.6v-1c2.7-0.7,4.7-2.9,4.7-5.7
				C422.6,150.4,420.1,148.1,416.2,148.1z"/>
		</g>
	</g>
	<g>
		<g>
			<polygon class="st3" points="654.6,35 578.2,35 578.2,168.3 680.4,168.3 680.4,60.8 			"/>
		</g>
		<g>
			<polygon class="st5" points="664.9,24.8 588.5,24.8 588.5,158 690.6,158 690.6,50.5 664.9,50.5 			"/>
		</g>
		<g>
			<polygon class="st5" points="664.9,50.5 690.6,50.5 664.9,24.8 			"/>
		</g>
		<g>
			<path class="st4" d="M617.7,93.1h-52.9c-5.5,0-10,4.5-10,10v74.7c0,5.5,4.5,10,10,10h52.9c5.5,0,10-4.5,10-10v-74.7
				C627.7,97.6,623.3,93.1,617.7,93.1z"/>
		</g>
		<g>
			<path class="st6" d="M618.1,100.4h-53.6c-1.3,0-2.3,1-2.3,2.3v9.9c0,1.3,1,2.3,2.3,2.3h53.6c1.3,0,2.3-1,2.3-2.3v-9.9
				C620.5,101.4,619.4,100.4,618.1,100.4z"/>
		</g>
		<g>
			<path class="st3" d="M585.3,122.2h-20.8c-1.3,0-2.3,1-2.3,2.3v20.8c0,1.3,1,2.3,2.3,2.3h20.8c1.3,0,2.3-1,2.3-2.3v-20.8
				C587.7,123.3,586.6,122.2,585.3,122.2z"/>
		</g>
		<g>
			<path class="st3" d="M585.3,155h-20.8c-1.3,0-2.3,1-2.3,2.3v20.8c0,1.3,1,2.3,2.3,2.3h20.8c1.3,0,2.3-1,2.3-2.3v-20.8
				C587.7,156.1,586.6,155,585.3,155z"/>
		</g>
		<g>
			<path class="st3" d="M618.1,122.2h-20.8c-1.3,0-2.3,1-2.3,2.3v20.8c0,1.3,1,2.3,2.3,2.3h20.8c1.3,0,2.3-1,2.3-2.3v-20.8
				C620.5,123.3,619.4,122.2,618.1,122.2z"/>
		</g>
		<g>
			<path class="st3" d="M618.1,155h-20.8c-1.3,0-2.3,1-2.3,2.3v20.8c0,1.3,1,2.3,2.3,2.3h20.8c1.3,0,2.3-1,2.3-2.3v-20.8
				C620.5,156.1,619.4,155,618.1,155z"/>
		</g>
		<g>
			<path class="st2" d="M615,165.6h-14.6c-0.9,0-1.6-0.7-1.6-1.6c0-0.9,0.7-1.6,1.6-1.6H615c0.9,0,1.6,0.7,1.6,1.6
				C616.6,164.9,615.9,165.6,615,165.6z"/>
		</g>
		<g>
			<path class="st2" d="M615,174.1h-14.6c-0.9,0-1.6-0.7-1.6-1.6c0-0.9,0.7-1.6,1.6-1.6H615c0.9,0,1.6,0.7,1.6,1.6
				C616.6,173.4,615.9,174.1,615,174.1z"/>
		</g>
		<g>
			<path class="st2" d="M582.3,133.4h-5.7v-5.7c0-0.9-0.7-1.6-1.6-1.6c-0.9,0-1.6,0.7-1.6,1.6v5.7h-5.7c-0.9,0-1.6,0.7-1.6,1.6
				c0,0.9,0.7,1.6,1.6,1.6h5.7v5.7c0,0.9,0.7,1.6,1.6,1.6c0.9,0,1.6-0.7,1.6-1.6v-5.7h5.7c0.9,0,1.6-0.7,1.6-1.6
				C583.9,134.1,583.2,133.4,582.3,133.4z"/>
		</g>
		<g>
			<path class="st2" d="M577.3,168.3l4.5-4.5c0.6-0.6,0.6-1.6,0-2.2c-0.6-0.6-1.6-0.6-2.2,0L575,166l-4.5-4.5
				c-0.6-0.6-1.6-0.6-2.2,0c-0.6,0.6-0.6,1.6,0,2.2l4.5,4.5l-4.5,4.5c-0.6,0.6-0.6,1.6,0,2.2c0.3,0.3,0.7,0.5,1.1,0.5
				c0.4,0,0.8-0.2,1.1-0.5l4.5-4.5l4.5,4.5c0.3,0.3,0.7,0.5,1.1,0.5c0.4,0,0.8-0.2,1.1-0.5c0.6-0.6,0.6-1.6,0-2.2L577.3,168.3z"/>
		</g>
		<g>
			<path class="st2" d="M615,136.6h-14.6c-0.9,0-1.6-0.7-1.6-1.6c0-0.9,0.7-1.6,1.6-1.6H615c0.9,0,1.6,0.7,1.6,1.6
				C616.6,135.9,615.9,136.6,615,136.6z"/>
		</g>
		<g>
			<path class="st2" d="M613.2,109.3c-0.4,0-0.8-0.2-1.1-0.5c-0.3-0.3-0.5-0.7-0.5-1.1c0-0.4,0.2-0.8,0.5-1.1c0.6-0.6,1.7-0.6,2.2,0
				c0.3,0.3,0.5,0.7,0.5,1.1c0,0.4-0.2,0.8-0.5,1.1C614,109.1,613.6,109.3,613.2,109.3z"/>
		</g>
		<g>
			<path class="st2" d="M603.8,107.7c0-0.9,0.7-1.6,1.6-1.6l0,0c0.9,0,1.6,0.7,1.6,1.6l0,0c0,0.9-0.7,1.6-1.6,1.6l0,0
				C604.5,109.2,603.8,108.5,603.8,107.7z"/>
		</g>
		<g>
			<path class="st2" d="M597.7,109.3c-0.4,0-0.8-0.2-1.1-0.5c-0.3-0.3-0.5-0.7-0.5-1.1c0-0.4,0.2-0.8,0.5-1.1c0.6-0.6,1.6-0.6,2.2,0
				c0.3,0.3,0.5,0.7,0.5,1.1c0,0.4-0.2,0.8-0.5,1.1C598.5,109.1,598.1,109.3,597.7,109.3z"/>
		</g>
		<g>
			<polygon class="st6" points="667.5,114.3 658.8,111.1 647.7,119.6 638,116.1 627.7,124.1 627.7,133.7 639.6,136.4 647.7,129.2 
				660.4,130.2 670.7,120.7 680.4,123.2 680.4,102.9 			"/>
		</g>
		<g>
			<polygon class="st3" points="660.4,130.2 647.7,129.2 639.6,136.4 627.7,133.7 627.7,147.7 680.4,147.7 680.4,123.2 670.7,120.7 
							"/>
		</g>
		<g>
			<path class="st4" d="M606.1,44.2h-48.9c-0.9,0-1.6-0.7-1.6-1.6c0-0.9,0.7-1.6,1.6-1.6h48.9c0.9,0,1.6,0.7,1.6,1.6
				C607.7,43.5,607,44.2,606.1,44.2z"/>
		</g>
		<g>
			<path class="st4" d="M598.2,54.4h-40.9c-0.9,0-1.6-0.7-1.6-1.6c0-0.9,0.7-1.6,1.6-1.6h40.9c0.9,0,1.6,0.7,1.6,1.6
				C599.8,53.7,599.1,54.4,598.2,54.4z"/>
		</g>
		<g>
			<path class="st4" d="M582.3,64.7h-25.1c-0.9,0-1.6-0.7-1.6-1.6s0.7-1.6,1.6-1.6h25.1c0.9,0,1.6,0.7,1.6,1.6
				S583.2,64.7,582.3,64.7z"/>
		</g>
		<g>
			<path class="st4" d="M590.2,75h-33c-0.9,0-1.6-0.7-1.6-1.6c0-0.9,0.7-1.6,1.6-1.6h33c0.9,0,1.6,0.7,1.6,1.6
				C591.8,74.3,591.1,75,590.2,75z"/>
		</g>
		<g>
			<path class="st4" d="M572.8,85.2h-15.5c-0.9,0-1.6-0.7-1.6-1.6c0-0.9,0.7-1.6,1.6-1.6h15.5c0.9,0,1.6,0.7,1.6,1.6
				C574.4,84.5,573.7,85.2,572.8,85.2z"/>
		</g>
		<g>
			<path class="st2" d="M638,124.1c-0.9,0-1.6-0.7-1.6-1.6v-18.9c0-0.9,0.7-1.6,1.6-1.6h31.4c0.9,0,1.6,0.7,1.6,1.6
				c0,0.9-0.7,1.6-1.6,1.6h-29.8v17.4C639.6,123.4,638.8,124.1,638,124.1z"/>
		</g>
		<g>
			<path class="st6" d="M655.1,95.6H638c-0.9,0-1.6-0.7-1.6-1.6c0-0.9,0.7-1.6,1.6-1.6h17.1c0.9,0,1.6,0.7,1.6,1.6
				C656.7,94.9,656,95.6,655.1,95.6z"/>
		</g>
		<g>
			<path class="st6" d="M669.4,86.1H638c-0.9,0-1.6-0.7-1.6-1.6c0-0.9,0.7-1.6,1.6-1.6h31.4c0.9,0,1.6,0.7,1.6,1.6
				C670.9,85.4,670.2,86.1,669.4,86.1z"/>
		</g>
		<g>
			<path class="st6" d="M663,76.6h-25c-0.9,0-1.6-0.7-1.6-1.6c0-0.9,0.7-1.6,1.6-1.6h25c0.9,0,1.6,0.7,1.6,1.6
				C664.6,75.9,663.9,76.6,663,76.6z"/>
		</g>
		<g>
			<path class="st2" d="M667.9,188c-0.4,0-0.8-0.2-1.1-0.5c-0.6-0.6-0.6-1.6,0-2.2l22.4-22.4c0.6-0.6,1.6-0.6,2.2,0
				c0.6,0.6,0.6,1.6,0,2.2L669,187.6C668.7,187.9,668.3,188,667.9,188z"/>
		</g>
		<g>
			<ellipse class="st6" cx="686.1" cy="182.2" rx="4.2" ry="4.2"/>
		</g>
		<g>
			<path class="st2" d="M686.1,188c-1.5,0-3-0.6-4.1-1.7c-2.3-2.3-2.3-5.9,0-8.2c2.3-2.3,5.9-2.3,8.2,0c2.3,2.3,2.3,5.9,0,8.2
				C689.1,187.5,687.6,188,686.1,188z M686.1,179.6c-0.7,0-1.3,0.3-1.9,0.8c-1,1-1,2.7,0,3.7c1,1,2.7,1,3.7,0c1-1,1-2.7,0-3.7
				C687.5,179.9,686.8,179.6,686.1,179.6z"/>
		</g>
		<g>
			<path class="st6" d="M675.1,171.2c-1.6,1.6-4.3,1.6-6,0c-1.6-1.6-1.6-4.3,0-6c1.6-1.6,4.3-1.6,6,0
				C676.7,166.9,676.7,169.6,675.1,171.2z"/>
		</g>
		<g>
			<path class="st2" d="M672.1,174c-1.5,0-3-0.6-4.1-1.7c-2.3-2.3-2.3-5.9,0-8.2c2.3-2.3,5.9-2.3,8.2,0c2.3,2.3,2.3,5.9,0,8.2
				C675.1,173.5,673.6,174,672.1,174z M672.1,165.6c-0.7,0-1.3,0.3-1.9,0.8c-1,1-1,2.7,0,3.7c1,1,2.7,1,3.7,0c1-1,1-2.7,0-3.7
				C673.5,165.9,672.8,165.6,672.1,165.6z"/>
		</g>
		<g>
			<rect x="619.9" y="20" class="st7" width="32" height="36.9"/>
		</g>
		<g>
			<path class="st2" d="M635.9,36.6c-2.4,0-3.6-1.1-3.6-3.1c0-1.7,1.6-3.1,3.6-3.1c2,0,3.6,1.4,3.6,3.1c0,0.9,0.7,1.6,1.6,1.6
				c0.9,0,1.6-0.7,1.6-1.6c0-3-2.2-5.4-5.2-6.1v-1.2c0-0.9-0.7-1.6-1.6-1.6c-0.9,0-1.6,0.7-1.6,1.6v1.2c-3,0.7-5.2,3.1-5.2,6.1
				c0,3.1,1.8,6.3,6.8,6.3c2.4,0,3.6,1.1,3.6,3.1c0,1.7-1.6,3.1-3.6,3.1c-2,0-3.6-1.4-3.6-3.1c0-0.9-0.7-1.6-1.6-1.6
				c-0.9,0-1.6,0.7-1.6,1.6c0,3,2.2,5.4,5.2,6.1v1.2c0,0.9,0.7,1.6,1.6,1.6c0.9,0,1.6-0.7,1.6-1.6V49c3-0.7,5.2-3.1,5.2-6.1
				C642.7,39.9,640.9,36.6,635.9,36.6z"/>
		</g>
	</g>
	<g>
		<g>
			<rect x="829.7" y="28.3" class="st7" width="123.4" height="156.6"/>
		</g>
		<g>
			<rect x="841.6" y="36" class="st6" width="99.7" height="137.6"/>
		</g>
		<g>
			<path class="st5" d="M906.4,24.6c0-8.3-6.7-15-15-15c-8.3,0-15,6.7-15,15h-15.8v14h61.7v-14H906.4z"/>
		</g>
		<g>
			<path class="st3" d="M898,24.6c0,3.6-2.9,6.5-6.5,6.5c-3.6,0-6.5-2.9-6.5-6.5s2.9-6.5,6.5-6.5C895,18,898,21,898,24.6z"/>
		</g>
		<g>
			<path class="st2" d="M929.6,155.3h-31.3c-0.9,0-1.6-0.7-1.6-1.6c0-0.9,0.7-1.6,1.6-1.6h31.3c0.9,0,1.6,0.7,1.6,1.6
				C931.1,154.6,930.4,155.3,929.6,155.3z"/>
		</g>
		<g>
			<path class="st2" d="M929.6,165.7h-31.3c-0.9,0-1.6-0.7-1.6-1.6s0.7-1.6,1.6-1.6h31.3c0.9,0,1.6,0.7,1.6,1.6
				S930.4,165.7,929.6,165.7z"/>
		</g>
		<g>
			<path class="st2" d="M913.7,60.3h-94.6c-0.9,0-1.6-0.7-1.6-1.6s0.7-1.6,1.6-1.6h94.6c0.9,0,1.6,0.7,1.6,1.6
				S914.6,60.3,913.7,60.3z"/>
		</g>
		<g>
			<path class="st2" d="M874.1,70.7h-18.6c-0.9,0-1.6-0.7-1.6-1.6c0-0.9,0.7-1.6,1.6-1.6h18.6c0.9,0,1.6,0.7,1.6,1.6
				C875.7,70,875,70.7,874.1,70.7z"/>
		</g>
		<g>
			<path class="st2" d="M845.5,70.7h-26.5c-0.9,0-1.6-0.7-1.6-1.6c0-0.9,0.7-1.6,1.6-1.6h26.5c0.9,0,1.6,0.7,1.6,1.6
				C847.1,70,846.4,70.7,845.5,70.7z"/>
		</g>
		<g>
			<path class="st2" d="M859.8,81h-40.8c-0.9,0-1.6-0.7-1.6-1.6c0-0.9,0.7-1.6,1.6-1.6h40.8c0.9,0,1.6,0.7,1.6,1.6
				C861.4,80.3,860.7,81,859.8,81z"/>
		</g>
		<g>
			<path class="st3" d="M929.6,88.1h-20.9H893h-56.5h-17.4c-0.9,0-1.6,0.7-1.6,1.6v53.7c0,0.9,0.7,1.6,1.6,1.6h17.4H893h15.6h20.9
				c0.9,0,1.6-0.7,1.6-1.6V89.7C931.1,88.8,930.4,88.1,929.6,88.1z M907,114.9h-12.5v-10.2H907V114.9z M910.2,104.7H928v10.2h-17.8
				V104.7z M891.4,114.9h-53.3v-10.2h53.3V114.9z M834.9,114.9h-14.3v-10.2h14.3V114.9z M820.6,118.1h14.3v10.2h-14.3V118.1z
				 M838.1,118.1h53.3v10.2h-53.3V118.1z M894.6,118.1H907v10.2h-12.5V118.1z M910.2,118.1H928v10.2h-17.8V118.1z M928,91.3v10.2
				h-17.8V91.3H928z M907,91.3v10.2h-12.5V91.3H907z M891.4,91.3v10.2h-53.3V91.3H891.4z M834.9,91.3v10.2h-14.3V91.3H834.9z
				 M820.6,131.5h14.3v10.2h-14.3V131.5z M838.1,131.5h53.3v10.2h-53.3V131.5z M894.6,131.5H907v10.2h-12.5V131.5z M910.2,141.8
				v-10.2H928v10.2H910.2z"/>
		</g>
		<g>
			<path class="st3" d="M855.6,165.7h-36.6c-0.9,0-1.6-0.7-1.6-1.6v-10.4c0-0.9,0.7-1.6,1.6-1.6h36.6c0.9,0,1.6,0.7,1.6,1.6v10.4
				C857.2,165,856.5,165.7,855.6,165.7z M820.6,162.5H854v-7.2h-33.4V162.5z"/>
		</g>
		<g>
			<polygon class="st5" points="967.5,75.9 970.1,67.9 972.7,75.9 			"/>
		</g>
		<g>
			<path class="st3" d="M966.7,173.1v8c0,2.8,1.5,3.9,3.4,3.9c1.9,0,3.4-1.1,3.4-3.9v-8H966.7z"/>
		</g>
		<g>
			<rect x="963.3" y="113.1" class="st4" width="13.5" height="60.4"/>
		</g>
		<g>
			<rect x="967.5" y="113.1" class="st7" width="5.2" height="60.4"/>
		</g>
		<g>
			<path class="st3" d="M973.5,75.9h-2.1h-2.6h-2.1c-1.7,6.1-3.3,14.4-3.3,23.6l0,0v13.5h4.2h5.2h4.2V99.6
				C976.9,90.4,975.2,82,973.5,75.9z"/>
		</g>
		<g>
			<path class="st5" d="M859.4,179.2c0,9.7,7.9,17.6,17.6,17.6s17.6-7.9,17.6-17.6c0-9.7-7.9-17.6-17.6-17.6
				S859.4,169.5,859.4,179.2z"/>
		</g>
		<g>
			<path class="st5" d="M877,198.4c-10.6,0-19.2-8.6-19.2-19.2c0-10.6,8.6-19.2,19.2-19.2c10.6,0,19.2,8.6,19.2,19.2
				C896.1,189.8,887.5,198.4,877,198.4z M877,163.2c-8.8,0-16,7.2-16,16c0,8.8,7.2,16,16,16c8.8,0,16-7.2,16-16
				C893,170.4,885.8,163.2,877,163.2z"/>
		</g>
		<g>
			<path class="st6" d="M877,177.7c-2.1,0-3.2-0.9-3.2-2.7c0-1.5,1.4-2.7,3.2-2.7c1.7,0,3.2,1.2,3.2,2.7c0,0.9,0.7,1.6,1.6,1.6
				c0.9,0,1.6-0.7,1.6-1.6c0-2.7-2-5-4.7-5.7v-1c0-0.9-0.7-1.6-1.6-1.6c-0.9,0-1.6,0.7-1.6,1.6v1c-2.7,0.7-4.7,2.9-4.7,5.7
				c0,3.6,2.5,5.9,6.3,5.9c2.1,0,3.2,0.9,3.2,2.7c0,1.5-1.4,2.7-3.2,2.7c-1.7,0-3.2-1.2-3.2-2.7c0-0.9-0.7-1.6-1.6-1.6
				c-0.9,0-1.6,0.7-1.6,1.6c0,2.7,2,5,4.7,5.7v1c0,0.9,0.7,1.6,1.6,1.6c0.9,0,1.6-0.7,1.6-1.6v-1c2.7-0.7,4.7-2.9,4.7-5.7
				C883.3,180,880.8,177.7,877,177.7z"/>
		</g>
		<g>
			<path class="st2" d="M946.9,52.8c-0.2-0.9,0.4-1.7,1.3-1.8l0,0c0.9-0.2,1.7,0.4,1.8,1.3l0,0c0.1,0.9-0.4,1.7-1.3,1.8l0,0
				c0,0,0,0,0,0l0,0c-0.1,0-0.2,0-0.3,0l0,0C947.7,54.1,947,53.6,946.9,52.8z M937.1,52c-0.8-0.4-1-1.4-0.6-2.2l0,0
				c0.4-0.8,1.4-1,2.2-0.6l0,0c0.8,0.4,1,1.4,0.6,2.2l0,0c-0.3,0.5-0.8,0.8-1.4,0.8l0,0C937.6,52.2,937.3,52.2,937.1,52z
				 M956.7,48.3c-0.7-0.6-0.8-1.6-0.2-2.2l0,0c0.6-0.7,1.6-0.8,2.2-0.2l0,0c0.7,0.6,0.7,1.6,0.2,2.2l0,0c-0.3,0.4-0.8,0.5-1.2,0.5
				l0,0C957.4,48.7,957,48.6,956.7,48.3z M929.4,43c-0.3-0.8,0.1-1.7,1-2l0,0c0.8-0.3,1.7,0.1,2,1l0,0c0.3,0.8-0.1,1.7-0.9,2l0,0
				c-0.2,0.1-0.4,0.1-0.6,0.1l0,0C930.3,44,929.7,43.6,929.4,43z M959.9,37.1c0-0.1,0-0.1,0-0.1l0,0c0-0.9,0.7-1.6,1.6-1.6l0,0
				c0.9,0,1.6,0.7,1.6,1.6l0,0c0,0,0,0,0,0l0,0c0,0,0,0,0,0l0,0c0,0.9-0.7,1.6-1.6,1.6l0,0C960.6,38.6,959.9,37.9,959.9,37.1z
				 M930.4,33.1c-0.8-0.3-1.3-1.2-1-2l0,0l0,0l0,0c0.3-0.8,1.2-1.3,2-1l0,0c0.8,0.3,1.3,1.2,1,2l0,0c-0.2,0.6-0.8,1-1.5,1l0,0
				C930.7,33.2,930.5,33.2,930.4,33.1z M956.5,27.9L956.5,27.9c-0.6-0.7-0.5-1.7,0.2-2.2l0,0c0.7-0.6,1.7-0.5,2.2,0.2l0,0
				c0.6,0.7,0.5,1.7-0.2,2.2l0,0c-0.3,0.2-0.7,0.4-1,0.4l0,0C957.3,28.4,956.8,28.3,956.5,27.9z M936.4,24.2
				c-0.4-0.8-0.2-1.7,0.6-2.2l0,0c0.8-0.4,1.7-0.2,2.2,0.6l0,0c0.4,0.7,0.2,1.7-0.6,2.2l0,0c-0.3,0.2-0.5,0.2-0.8,0.2l0,0
				C937.3,25,936.7,24.7,936.4,24.2z M948.1,23.1c-0.9-0.2-1.4-1-1.3-1.8l0,0c0.1-0.9,1-1.4,1.8-1.3l0,0c0.9,0.1,1.4,1,1.3,1.8l0,0
				c-0.1,0.8-0.8,1.3-1.6,1.3l0,0C948.3,23.1,948.2,23.1,948.1,23.1z"/>
		</g>
	</g>
	<g>
		<g>
			<polygon class="st3" points="595.1,375.3 576,394.4 585.4,394.4 585.4,461.2 604.8,461.2 604.8,394.4 614.2,394.4 			"/>
		</g>
		<g>
			<polygon class="st3" points="540.4,396.3 521.3,415.4 530.6,415.4 530.6,445.6 550.1,445.6 550.1,415.4 559.5,415.4 			"/>
		</g>
		<g>
			<polygon class="st3" points="705.9,350.9 686.8,369.9 696.1,369.9 696.1,436.7 715.6,436.7 715.6,369.9 725,369.9 			"/>
		</g>
		<g>
			<path class="st4" d="M700,481c-0.2,0-0.3,0-0.5,0c-0.8-0.1-1.6-0.2-2.4-0.3c-0.1,0-0.2,0-0.4-0.1c-0.7-0.1-1.3-0.2-1.9-0.3
				c-0.1,0-0.3-0.1-0.4-0.1c-1.4-0.3-2.8-0.7-3.9-1.1c-0.1,0-0.1-0.1-0.2-0.1c-0.6-0.2-1.1-0.4-1.6-0.6c0,0,0,0-0.1,0
				c-2.3-1.1-3.7-2.5-3.7-4c0-3.8,9.1-6.9,20.4-6.9c11.2,0,20.4,3.1,20.4,6.9c0,1.5-1.4,2.8-3.7,4c0,0-0.1,0-0.1,0
				c-0.5,0.2-1,0.4-1.6,0.6c-0.1,0-0.1,0.1-0.2,0.1c-1.2,0.4-2.5,0.8-3.9,1.1c-0.1,0-0.3,0.1-0.4,0.1c-0.6,0.1-1.3,0.2-1.9,0.3
				c-0.1,0-0.2,0-0.4,0.1c-0.8,0.1-1.6,0.2-2.4,0.3c-0.2,0-0.3,0-0.5,0c-0.7,0.1-1.3,0.1-2,0.1c-0.2,0-0.5,0-0.7,0
				c-0.8,0-1.7,0.1-2.6,0.1c-0.9,0-1.7,0-2.6-0.1c-0.2,0-0.5,0-0.7,0C701.3,481.1,700.7,481.1,700,481z"/>
		</g>
		<g>
			<path class="st7" d="M687.3,477.5c3.4,2.2,10.2,3.7,18.1,3.7c7.9,0,14.7-1.5,18.1-3.7c1.5-0.9,2.3-2,2.3-3.2v6.3
				c0,3.8-9.1,6.9-20.4,6.9c-11.2,0-20.4-3.1-20.4-6.9v-6.3C685,475.5,685.8,476.6,687.3,477.5z"/>
		</g>
		<g>
			<path class="st4" d="M700,471.5c-0.2,0-0.3,0-0.5,0c-0.8-0.1-1.6-0.2-2.4-0.3c-0.1,0-0.2,0-0.4-0.1c-0.7-0.1-1.3-0.2-1.9-0.3
				c-0.1,0-0.3-0.1-0.4-0.1c-1.4-0.3-2.8-0.7-3.9-1.1c-0.1,0-0.1-0.1-0.2-0.1c-0.6-0.2-1.1-0.4-1.6-0.6c0,0,0,0-0.1,0
				c-2.3-1.1-3.7-2.5-3.7-4c0-3.8,9.1-6.9,20.4-6.9c11.2,0,20.4,3.1,20.4,6.9c0,1.5-1.4,2.8-3.7,4c0,0-0.1,0-0.1,0
				c-0.5,0.2-1,0.4-1.6,0.6c-0.1,0-0.1,0.1-0.2,0.1c-1.2,0.4-2.5,0.8-3.9,1.1c-0.1,0-0.3,0.1-0.4,0.1c-0.6,0.1-1.3,0.2-1.9,0.3
				c-0.1,0-0.2,0-0.4,0.1c-0.8,0.1-1.6,0.2-2.4,0.3c-0.2,0-0.3,0-0.5,0c-0.7,0.1-1.3,0.1-2,0.1c-0.2,0-0.5,0-0.7,0
				c-0.8,0-1.7,0.1-2.6,0.1c-0.9,0-1.7,0-2.6-0.1c-0.2,0-0.5,0-0.7,0C701.3,471.6,700.7,471.5,700,471.5z"/>
		</g>
		<g>
			<path class="st7" d="M687.3,468c3.4,2.2,10.2,3.7,18.1,3.7c7.9,0,14.7-1.5,18.1-3.7c1.5-1,2.3-2,2.3-3.2v6.3
				c0,3.8-9.1,6.9-20.4,6.9c-11.2,0-20.4-3.1-20.4-6.9v-6.3C685,466,685.8,467.1,687.3,468z"/>
		</g>
		<g>
			<path class="st4" d="M700,452.4c-0.2,0-0.3,0-0.5,0c-0.8-0.1-1.6-0.2-2.4-0.3c-0.1,0-0.2,0-0.4-0.1c-0.7-0.1-1.3-0.2-1.9-0.3
				c-0.1,0-0.3-0.1-0.4-0.1c-1.4-0.3-2.8-0.7-3.9-1.1c-0.1,0-0.1-0.1-0.2-0.1c-0.6-0.2-1.1-0.4-1.6-0.6c0,0,0,0-0.1,0
				c-2.3-1.1-3.7-2.5-3.7-4c0-3.8,9.1-6.9,20.4-6.9c11.2,0,20.4,3.1,20.4,6.9c0,1.5-1.4,2.8-3.7,4c0,0-0.1,0-0.1,0
				c-0.5,0.2-1,0.4-1.6,0.6c-0.1,0-0.1,0.1-0.2,0.1c-1.2,0.4-2.5,0.8-3.9,1.1c-0.1,0-0.3,0.1-0.4,0.1c-0.6,0.1-1.3,0.2-1.9,0.3
				c-0.1,0-0.2,0-0.4,0.1c-0.8,0.1-1.6,0.2-2.4,0.3c-0.2,0-0.3,0-0.5,0c-0.7,0.1-1.3,0.1-2,0.1c-0.2,0-0.5,0-0.7,0
				c-0.8,0-1.7,0.1-2.6,0.1c-0.9,0-1.7,0-2.6-0.1c-0.2,0-0.5,0-0.7,0C701.3,452.6,700.7,452.5,700,452.4z"/>
		</g>
		<g>
			<path class="st4" d="M700,462c-0.2,0-0.3,0-0.5,0c-0.8-0.1-1.6-0.2-2.4-0.3c-0.1,0-0.2,0-0.4-0.1c-0.7-0.1-1.3-0.2-1.9-0.3
				c-0.1,0-0.3-0.1-0.4-0.1c-1.4-0.3-2.8-0.7-3.9-1.1c-0.1,0-0.1-0.1-0.2-0.1c-0.6-0.2-1.1-0.4-1.6-0.6c0,0,0,0-0.1,0
				c-2.3-1.1-3.7-2.5-3.7-4c0-3.8,9.1-6.9,20.4-6.9c11.2,0,20.4,3.1,20.4,6.9c0,1.5-1.4,2.8-3.7,4c0,0-0.1,0-0.1,0
				c-0.5,0.2-1,0.4-1.6,0.6c-0.1,0-0.1,0.1-0.2,0.1c-1.2,0.4-2.5,0.8-3.9,1.1c-0.1,0-0.3,0.1-0.4,0.1c-0.6,0.1-1.3,0.2-1.9,0.3
				c-0.1,0-0.2,0-0.4,0.1c-0.8,0.1-1.6,0.2-2.4,0.3c-0.2,0-0.3,0-0.5,0c-0.7,0.1-1.3,0.1-2,0.1c-0.2,0-0.5,0-0.7,0
				c-0.8,0-1.7,0.1-2.6,0.1c-0.9,0-1.7,0-2.6-0.1c-0.2,0-0.5,0-0.7,0C701.3,462.1,700.7,462,700,462z"/>
		</g>
		<g>
			<path class="st7" d="M687.3,458.5c3.4,2.2,10.2,3.7,18.1,3.7c7.9,0,14.7-1.5,18.1-3.7c1.5-1,2.3-2,2.3-3.2v6.4
				c0,3.8-9.1,6.9-20.4,6.9c-11.2,0-20.4-3.1-20.4-6.9v-6.4C685,456.5,685.8,457.6,687.3,458.5z"/>
		</g>
		<g>
			<path class="st7" d="M687.3,449c3.4,2.2,10.2,3.7,18.1,3.7c7.9,0,14.7-1.5,18.1-3.7c1.5-1,2.3-2,2.3-3.2v6.3
				c0,3.8-9.1,6.9-20.4,6.9c-11.2,0-20.4-3.1-20.4-6.9v-6.3C685,447,685.8,448,687.3,449z"/>
		</g>
		<g>
			<path class="st4" d="M700,442.9c-0.2,0-0.3,0-0.5,0c-0.8-0.1-1.6-0.2-2.4-0.3c-0.1,0-0.2,0-0.4-0.1c-0.7-0.1-1.3-0.2-1.9-0.3
				c-0.1,0-0.3-0.1-0.4-0.1c-1.4-0.3-2.8-0.7-3.9-1.1c-0.1,0-0.1-0.1-0.2-0.1c-0.6-0.2-1.1-0.4-1.6-0.6c0,0,0,0-0.1,0
				c-2.3-1.1-3.7-2.5-3.7-4c0-3.8,9.1-6.9,20.4-6.9c11.2,0,20.4,3.1,20.4,6.9c0,1.5-1.4,2.8-3.7,4c0,0-0.1,0-0.1,0
				c-0.5,0.2-1,0.4-1.6,0.6c-0.1,0-0.1,0.1-0.2,0.1c-1.2,0.4-2.5,0.8-3.9,1.1c-0.1,0-0.3,0.1-0.4,0.1c-0.6,0.1-1.3,0.2-1.9,0.3
				c-0.1,0-0.2,0-0.4,0.1c-0.8,0.1-1.6,0.2-2.4,0.3c-0.2,0-0.3,0-0.5,0c-0.7,0.1-1.3,0.1-2,0.1c-0.2,0-0.5,0-0.7,0
				c-0.8,0-1.7,0.1-2.6,0.1c-0.9,0-1.7,0-2.6-0.1c-0.2,0-0.5,0-0.7,0C701.3,443,700.7,443,700,442.9z"/>
		</g>
		<g>
			<path class="st7" d="M687.3,439.5c3.4,2.2,10.2,3.7,18.1,3.7c7.9,0,14.7-1.5,18.1-3.7c1.5-1,2.3-2,2.3-3.2v6.3
				c0,3.8-9.1,6.9-20.4,6.9c-11.2,0-20.4-3.1-20.4-6.9v-6.3C685,437.4,685.8,438.5,687.3,439.5z"/>
		</g>
		<g>
			<path class="st4" d="M700,433.4c-0.2,0-0.3,0-0.5,0c-0.8-0.1-1.6-0.2-2.4-0.3c-0.1,0-0.2,0-0.4-0.1c-0.7-0.1-1.3-0.2-1.9-0.3
				c-0.1,0-0.3-0.1-0.4-0.1c-1.4-0.3-2.8-0.7-3.9-1.1c-0.1,0-0.1-0.1-0.2-0.1c-0.6-0.2-1.1-0.4-1.6-0.7c0,0,0,0-0.1,0
				c-2.3-1.1-3.7-2.5-3.7-4c0-3.8,9.1-6.9,20.4-6.9c11.2,0,20.4,3.1,20.4,6.9c0,1.5-1.4,2.8-3.7,4c0,0-0.1,0-0.1,0
				c-0.5,0.2-1,0.4-1.6,0.7c-0.1,0-0.1,0.1-0.2,0.1c-1.2,0.4-2.5,0.8-3.9,1.1c-0.1,0-0.3,0.1-0.4,0.1c-0.6,0.1-1.3,0.2-1.9,0.3
				c-0.1,0-0.2,0-0.4,0.1c-0.8,0.1-1.6,0.2-2.4,0.3c-0.2,0-0.3,0-0.5,0c-0.7,0.1-1.3,0.1-2,0.1c-0.2,0-0.5,0-0.7,0
				c-0.8,0-1.7,0.1-2.6,0.1c-0.9,0-1.7,0-2.6-0.1c-0.2,0-0.5,0-0.7,0C701.3,433.5,700.7,433.5,700,433.4z"/>
		</g>
		<g>
			<path class="st7" d="M687.3,429.9c3.4,2.2,10.2,3.7,18.1,3.7c7.9,0,14.7-1.5,18.1-3.7c1.5-0.9,2.3-2,2.3-3.2v6.3
				c0,3.8-9.1,6.9-20.4,6.9c-11.2,0-20.4-3.1-20.4-6.9v-6.3C685,427.9,685.8,429,687.3,429.9z"/>
		</g>
		<g>
			<path class="st7" d="M705.3,422.5c-0.8,0-1.7,0-2.5-0.1l-0.7,0c-0.7,0-1.3-0.1-2-0.1l-0.5,0c-0.8-0.1-1.5-0.2-2.3-0.3l-0.2,0
				c-0.8-0.1-1.4-0.2-2-0.4l-0.4-0.1c-1.4-0.3-2.6-0.6-3.7-1l-0.2-0.1c-0.5-0.2-1-0.4-1.4-0.6c-2.1-1-2.9-2-2.9-2.6
				c0-2.1,7.5-5.3,18.8-5.3s18.8,3.2,18.8,5.3c0,0.6-0.7,1.5-2.8,2.5c-0.5,0.2-1,0.4-1.5,0.6c0,0-0.2,0.1-0.2,0.1
				c-1.1,0.4-2.3,0.7-3.7,1l-0.4,0.1c-0.6,0.1-1.2,0.2-1.8,0.3l-0.3,0.1c-0.8,0.1-1.5,0.2-2.3,0.3l-0.5,0c-0.6,0.1-1.3,0.1-1.9,0.1
				l-0.7,0C707,422.5,706.2,422.5,705.3,422.5z"/>
		</g>
		<g>
			<path class="st4" d="M705.3,410.4c-11.2,0-20.4,3.1-20.4,6.9c0,1.5,1.4,2.8,3.7,4c0,0,0,0,0.1,0c0.5,0.2,1,0.4,1.6,0.6
				c0.1,0,0.1,0.1,0.2,0.1c1.2,0.4,2.5,0.8,3.9,1.1c0.1,0,0.3,0.1,0.4,0.1c0.6,0.1,1.3,0.2,1.9,0.3c0.1,0,0.2,0,0.4,0.1
				c0.8,0.1,1.6,0.2,2.4,0.3c0.2,0,0.3,0,0.5,0c0.7,0.1,1.3,0.1,2,0.1c0.2,0,0.5,0,0.7,0c0.8,0,1.7,0.1,2.6,0.1c0.9,0,1.7,0,2.6-0.1
				c0.2,0,0.5,0,0.7,0c0.7,0,1.3-0.1,2-0.1c0.2,0,0.3,0,0.5,0c0.8-0.1,1.6-0.2,2.4-0.3c0.1,0,0.2,0,0.4-0.1c0.7-0.1,1.3-0.2,1.9-0.3
				c0.1,0,0.3-0.1,0.4-0.1c1.4-0.3,2.8-0.7,3.9-1.1c0.1,0,0.1-0.1,0.2-0.1c0.6-0.2,1.1-0.4,1.6-0.6c0,0,0.1,0,0.1,0
				c2.3-1.1,3.7-2.5,3.7-4C725.7,413.5,716.6,410.4,705.3,410.4z M720.6,418.3c0,0-0.1,0-0.1,0.1c-0.4,0.2-0.8,0.4-1.3,0.5l-0.1,0
				l-0.1,0c-1,0.4-2.2,0.7-3.5,1l-0.3,0.1l-0.1,0c-0.6,0.1-1.2,0.2-1.8,0.3l-0.2,0l-0.1,0c-0.7,0.1-1.5,0.2-2.2,0.3l-0.2,0l-0.2,0
				c-0.6,0.1-1.2,0.1-1.9,0.1l-0.6,0c-0.9,0-1.7,0.1-2.5,0.1c-0.7,0-1.5,0-2.5-0.1l-0.7,0c-0.6,0-1.3-0.1-1.9-0.1l-0.2,0l-0.2,0
				c-0.8-0.1-1.5-0.2-2.2-0.3l-0.1,0l-0.2,0c-0.6-0.1-1.2-0.2-1.8-0.3l-0.1,0l-0.3-0.1c-1.3-0.3-2.5-0.6-3.5-1l-0.1,0l-0.1,0
				c-0.5-0.2-0.9-0.4-1.3-0.6c-0.9-0.5-1.5-0.8-1.7-1.1c1.3-1.3,7-3.7,17-3.7c10,0,15.7,2.4,17,3.7
				C722.1,417.5,721.5,417.9,720.6,418.3z"/>
		</g>
		<g>
			<path class="st7" d="M687.3,420.4c3.4,2.2,10.2,3.7,18.1,3.7c7.9,0,14.7-1.5,18.1-3.7c1.5-1,2.3-2,2.3-3.2v6.3
				c0,3.8-9.1,6.9-20.4,6.9c-11.2,0-20.4-3.1-20.4-6.9v-6.3C685,418.4,685.8,419.5,687.3,420.4z"/>
		</g>
		<g>
			<polygon class="st3" points="650.3,385.8 631.2,404.8 640.6,404.8 640.6,471.6 660.1,471.6 660.1,404.8 669.4,404.8 			"/>
		</g>
		<g>
			<path class="st7" d="M644.5,471.5c-0.2,0-0.3,0-0.5,0c-0.8-0.1-1.6-0.2-2.4-0.3c-0.1,0-0.2,0-0.4-0.1c-0.7-0.1-1.3-0.2-1.9-0.3
				c-0.1,0-0.3-0.1-0.4-0.1c-1.4-0.3-2.8-0.7-3.9-1.1c-0.1,0-0.1-0.1-0.2-0.1c-0.6-0.2-1.1-0.4-1.6-0.6c0,0-0.1,0-0.1,0
				c-2.3-1.1-3.7-2.5-3.7-4c0-3.8,9.1-6.9,20.4-6.9c11.2,0,20.4,3.1,20.4,6.9c0,1.5-1.4,2.8-3.7,4c0,0,0,0-0.1,0
				c-0.5,0.2-1,0.4-1.6,0.6c-0.1,0-0.1,0.1-0.2,0.1c-1.2,0.4-2.5,0.8-3.9,1.1c-0.1,0-0.3,0.1-0.4,0.1c-0.6,0.1-1.3,0.2-1.9,0.3
				c-0.1,0-0.2,0-0.4,0.1c-0.8,0.1-1.6,0.2-2.4,0.3c-0.2,0-0.3,0-0.5,0c-0.7,0.1-1.3,0.1-2,0.1c-0.2,0-0.5,0-0.7,0
				c-0.9,0-1.7,0.1-2.6,0.1c-0.9,0-1.7,0-2.6-0.1c-0.2,0-0.5,0-0.7,0C645.8,471.6,645.1,471.5,644.5,471.5z"/>
		</g>
		<g>
			<path class="st7" d="M644.5,481c-0.2,0-0.3,0-0.5,0c-0.8-0.1-1.6-0.2-2.4-0.3c-0.1,0-0.2,0-0.4-0.1c-0.7-0.1-1.3-0.2-1.9-0.3
				c-0.1,0-0.3-0.1-0.4-0.1c-1.4-0.3-2.8-0.7-3.9-1.1c-0.1,0-0.1-0.1-0.2-0.1c-0.6-0.2-1.1-0.4-1.6-0.6c0,0-0.1,0-0.1,0
				c-2.3-1.1-3.7-2.5-3.7-4c0-3.8,9.1-6.9,20.4-6.9c11.2,0,20.4,3.1,20.4,6.9c0,1.5-1.4,2.8-3.7,4c0,0,0,0-0.1,0
				c-0.5,0.2-1,0.4-1.6,0.6c-0.1,0-0.1,0.1-0.2,0.1c-1.2,0.4-2.5,0.8-3.9,1.1c-0.1,0-0.3,0.1-0.4,0.1c-0.6,0.1-1.3,0.2-1.9,0.3
				c-0.1,0-0.2,0-0.4,0.1c-0.8,0.1-1.6,0.2-2.4,0.3c-0.2,0-0.3,0-0.5,0c-0.7,0.1-1.3,0.1-2,0.1c-0.2,0-0.5,0-0.7,0
				c-0.9,0-1.7,0.1-2.6,0.1c-0.9,0-1.7,0-2.6-0.1c-0.2,0-0.5,0-0.7,0C645.8,481.1,645.1,481.1,644.5,481z"/>
		</g>
		<g>
			<path class="st4" d="M631.7,477.5c3.4,2.2,10.2,3.7,18.1,3.7c7.8,0,14.7-1.5,18.1-3.7c1.5-0.9,2.3-2,2.3-3.2v6.3
				c0,3.8-9.1,6.9-20.4,6.9c-11.2,0-20.4-3.1-20.4-6.9v-6.3C629.4,475.5,630.3,476.6,631.7,477.5z"/>
		</g>
		<g>
			<path class="st4" d="M631.7,468c3.4,2.2,10.2,3.7,18.1,3.7c7.8,0,14.7-1.5,18.1-3.7c1.5-1,2.3-2,2.3-3.2v6.3
				c0,3.8-9.1,6.9-20.4,6.9c-11.2,0-20.4-3.1-20.4-6.9v-6.3C629.4,466,630.3,467.1,631.7,468z"/>
		</g>
		<g>
			<path class="st7" d="M644.5,462c-0.2,0-0.3,0-0.5,0c-0.8-0.1-1.6-0.2-2.4-0.3c-0.1,0-0.2,0-0.4-0.1c-0.7-0.1-1.3-0.2-1.9-0.3
				c-0.1,0-0.3-0.1-0.4-0.1c-1.4-0.3-2.8-0.7-3.9-1.1c-0.1,0-0.1-0.1-0.2-0.1c-0.6-0.2-1.1-0.4-1.6-0.6c0,0-0.1,0-0.1,0
				c-2.3-1.1-3.7-2.5-3.7-4c0-3.8,9.1-6.9,20.4-6.9c11.2,0,20.4,3.1,20.4,6.9c0,1.5-1.4,2.8-3.7,4c0,0,0,0-0.1,0
				c-0.5,0.2-1,0.4-1.6,0.6c-0.1,0-0.1,0.1-0.2,0.1c-1.2,0.4-2.5,0.8-3.9,1.1c-0.1,0-0.3,0.1-0.4,0.1c-0.6,0.1-1.3,0.2-1.9,0.3
				c-0.1,0-0.2,0-0.4,0.1c-0.8,0.1-1.6,0.2-2.4,0.3c-0.2,0-0.3,0-0.5,0c-0.7,0.1-1.3,0.1-2,0.1c-0.2,0-0.5,0-0.7,0
				c-0.9,0-1.7,0.1-2.6,0.1c-0.9,0-1.7,0-2.6-0.1c-0.2,0-0.5,0-0.7,0C645.8,462.1,645.1,462,644.5,462z"/>
		</g>
		<g>
			<path class="st4" d="M631.7,458.5c3.4,2.2,10.2,3.7,18.1,3.7c7.8,0,14.7-1.5,18.1-3.7c1.5-1,2.3-2,2.3-3.2v6.4
				c0,3.8-9.1,6.9-20.4,6.9c-11.2,0-20.4-3.1-20.4-6.9v-6.4C629.4,456.5,630.3,457.6,631.7,458.5z"/>
		</g>
		<g>
			<path class="st7" d="M644.5,452.4c-0.2,0-0.3,0-0.5,0c-0.8-0.1-1.6-0.2-2.4-0.3c-0.1,0-0.2,0-0.4-0.1c-0.7-0.1-1.3-0.2-1.9-0.3
				c-0.1,0-0.3-0.1-0.4-0.1c-1.4-0.3-2.8-0.7-3.9-1.1c-0.1,0-0.1-0.1-0.2-0.1c-0.6-0.2-1.1-0.4-1.6-0.6c0,0-0.1,0-0.1,0
				c-2.3-1.1-3.7-2.5-3.7-4c0-3.8,9.1-6.9,20.4-6.9c11.2,0,20.4,3.1,20.4,6.9c0,1.5-1.4,2.8-3.7,4c0,0,0,0-0.1,0
				c-0.5,0.2-1,0.4-1.6,0.6c-0.1,0-0.1,0.1-0.2,0.1c-1.2,0.4-2.5,0.8-3.9,1.1c-0.1,0-0.3,0.1-0.4,0.1c-0.6,0.1-1.3,0.2-1.9,0.3
				c-0.1,0-0.2,0-0.4,0.1c-0.8,0.1-1.6,0.2-2.4,0.3c-0.2,0-0.3,0-0.5,0c-0.7,0.1-1.3,0.1-2,0.1c-0.2,0-0.5,0-0.7,0
				c-0.9,0-1.7,0.1-2.6,0.1c-0.9,0-1.7,0-2.6-0.1c-0.2,0-0.5,0-0.7,0C645.8,452.6,645.1,452.5,644.5,452.4z"/>
		</g>
		<g>
			<path class="st4" d="M631.7,449c3.4,2.2,10.2,3.7,18.1,3.7c7.8,0,14.7-1.5,18.1-3.7c1.5-1,2.3-2,2.3-3.2v6.3
				c0,3.8-9.1,6.9-20.4,6.9c-11.2,0-20.4-3.1-20.4-6.9v-6.3C629.4,447,630.3,448,631.7,449z"/>
		</g>
		<g>
			<path class="st4" d="M649.8,441.6c-0.9,0-1.7,0-2.5-0.1l-0.6,0c-0.7,0-1.3-0.1-2-0.1l-0.5,0c-0.8-0.1-1.5-0.2-2.3-0.3l-0.2,0
				c-0.8-0.1-1.4-0.2-2-0.4l-0.4-0.1c-1.4-0.3-2.6-0.6-3.7-1l-0.2-0.1c-0.5-0.2-1-0.4-1.4-0.6c-2.1-1-2.9-2-2.9-2.6
				c0-2.1,7.5-5.3,18.8-5.3s18.8,3.2,18.8,5.3c0,0.6-0.7,1.5-2.8,2.5c-0.5,0.2-1,0.4-1.5,0.6c0,0-0.2,0.1-0.2,0.1
				c-1.1,0.4-2.4,0.7-3.7,1l-0.4,0.1c-0.6,0.1-1.2,0.2-1.8,0.3l-0.3,0.1c-0.8,0.1-1.5,0.2-2.3,0.3l-0.5,0c-0.6,0.1-1.3,0.1-1.9,0.1
				l-0.7,0C651.5,441.5,650.6,441.6,649.8,441.6z"/>
		</g>
		<g>
			<path class="st7" d="M649.8,429.4c-11.2,0-20.4,3.1-20.4,6.9c0,1.5,1.4,2.8,3.7,4c0,0,0.1,0,0.1,0c0.5,0.2,1,0.4,1.6,0.6
				c0.1,0,0.1,0.1,0.2,0.1c1.2,0.4,2.5,0.8,3.9,1.1c0.1,0,0.3,0.1,0.4,0.1c0.6,0.1,1.3,0.2,1.9,0.3c0.1,0,0.2,0,0.4,0.1
				c0.8,0.1,1.6,0.2,2.4,0.3c0.2,0,0.3,0,0.5,0c0.7,0.1,1.3,0.1,2,0.1c0.2,0,0.5,0,0.7,0c0.8,0,1.7,0.1,2.6,0.1c0.9,0,1.7,0,2.6-0.1
				c0.2,0,0.5,0,0.7,0c0.7,0,1.3-0.1,2-0.1c0.2,0,0.3,0,0.5,0c0.8-0.1,1.6-0.2,2.4-0.3c0.1,0,0.2,0,0.4-0.1c0.7-0.1,1.3-0.2,1.9-0.3
				c0.1,0,0.3-0.1,0.4-0.1c1.4-0.3,2.8-0.7,3.9-1.1c0.1,0,0.1-0.1,0.2-0.1c0.5-0.2,1.1-0.4,1.6-0.6c0,0,0,0,0.1,0
				c2.3-1.1,3.7-2.5,3.7-4C670.1,432.5,661,429.4,649.8,429.4z M665.1,437.4c0,0-0.1,0-0.1,0.1c-0.4,0.2-0.8,0.4-1.3,0.5l-0.1,0
				l-0.1,0c-1,0.4-2.2,0.7-3.5,1l-0.4,0.1c-0.6,0.1-1.2,0.2-1.8,0.3l-0.2,0l-0.1,0c-0.7,0.1-1.5,0.2-2.2,0.3l-0.2,0l-0.2,0
				c-0.6,0.1-1.3,0.1-1.9,0.1l-0.6,0c-0.9,0-1.7,0.1-2.5,0.1c-0.7,0-1.5,0-2.5-0.1l-0.7,0c-0.6,0-1.3-0.1-1.9-0.1l-0.2,0l-0.2,0
				c-0.8-0.1-1.5-0.2-2.2-0.3l-0.1,0l-0.2,0c-0.6-0.1-1.2-0.2-1.8-0.3l-0.1,0l-0.3-0.1c-1.3-0.3-2.5-0.6-3.5-1l-0.1,0l-0.1,0
				c-0.5-0.2-0.9-0.4-1.3-0.6c-0.9-0.5-1.5-0.9-1.7-1.1c1.3-1.3,7-3.7,17-3.7c10,0,15.7,2.4,17,3.7
				C666.5,436.5,666,436.9,665.1,437.4z"/>
		</g>
		<g>
			<path class="st4" d="M631.7,439.5c3.4,2.2,10.2,3.7,18.1,3.7c7.8,0,14.7-1.5,18.1-3.7c1.5-1,2.3-2,2.3-3.2v6.3
				c0,3.8-9.1,6.9-20.4,6.9c-11.2,0-20.4-3.1-20.4-6.9v-6.3C629.4,437.4,630.3,438.5,631.7,439.5z"/>
		</g>
		<g>
			
				<rect x="521.1" y="482.8" transform="matrix(-1 -1.224647e-16 1.224647e-16 -1 1135.5005 968.8336)" class="st5" width="93.2" height="3.2"/>
		</g>
		<g>
			
				<rect x="521.1" y="479.7" transform="matrix(-1 -1.224647e-16 1.224647e-16 -1 1135.5005 962.4882)" class="st5" width="93.2" height="3.2"/>
		</g>
		<g>
			
				<rect x="521.1" y="476.5" transform="matrix(-1 -1.224647e-16 1.224647e-16 -1 1135.5005 956.1419)" class="st5" width="93.2" height="3.2"/>
		</g>
		<g>
			
				<rect x="521.1" y="473.3" transform="matrix(-1 -1.224647e-16 1.224647e-16 -1 1135.5005 949.7957)" class="st5" width="93.2" height="3.2"/>
		</g>
		<g>
			
				<rect x="521.1" y="470.1" transform="matrix(-1 -1.224647e-16 1.224647e-16 -1 1135.5005 943.4495)" class="st5" width="93.2" height="3.2"/>
		</g>
		<g>
			
				<rect x="521.1" y="467" transform="matrix(-1 -1.224647e-16 1.224647e-16 -1 1135.5005 937.1032)" class="st5" width="93.2" height="3.2"/>
		</g>
		<g>
			
				<rect x="521.1" y="463.8" transform="matrix(-1 -1.224647e-16 1.224647e-16 -1 1135.5005 930.7577)" class="st5" width="93.2" height="3.2"/>
		</g>
		<g>
			<polygon class="st5" points="614.4,463.8 521.1,463.8 530.6,440.2 567.8,440.2 604.8,440.2 			"/>
		</g>
		<g>
			<path class="st3" d="M528.9,460.5l6.3-17.1c2.1,0,14.1,0,32.5,0c18.4,0,30.5,0,32.5,0l6.3,17.1
				C602.5,460.5,533,460.5,528.9,460.5z"/>
		</g>
		<g>
			<path class="st5" d="M586.2,452c0,1.8,2.9,3.2,6.5,3.2c3.6,0,6.5-1.4,6.5-3.2s-2.9-3.2-6.5-3.2
				C589.1,448.8,586.2,450.2,586.2,452z"/>
		</g>
		<g>
			<path class="st5" d="M536.3,452c0,1.8,2.9,3.2,6.5,3.2c3.6,0,6.5-1.4,6.5-3.2s-2.9-3.2-6.5-3.2
				C539.2,448.8,536.3,450.2,536.3,452z"/>
		</g>
		<g>
			<path class="st5" d="M577.8,452c0,3.6-4.5,6.6-10.1,6.6c-5.6,0-10.1-2.9-10.1-6.6c0-3.6,4.5-6.6,10.1-6.6
				C573.3,445.4,577.8,448.4,577.8,452z"/>
		</g>
		<g>
			<path class="st3" d="M622,351.9c-0.5-0.9-0.8-2-0.8-3.2c0-3.6,2.9-6.4,6.4-6.4c1.7,0,3.2,0.6,4.3,1.7c0.7-5.7,5.6-10.1,11.5-10.1
				c6.4,0,11.6,5.2,11.6,11.6c0,0.7-0.1,1.4-0.2,2.1c0.6-0.1,1.3-0.2,2-0.2c5.4,0,9.8,4.4,9.8,9.8c0,5.4-4.4,9.8-9.8,9.8
				c-3.4,0-31,0-33.3,0c-4.2,0-7.6-3.4-7.6-7.6C615.8,355.7,618.5,352.6,622,351.9z"/>
		</g>
		<g>
			<path class="st4" d="M628.9,357.7c-0.6-1-0.9-2.2-0.9-3.4c0-3.9,3.1-7,7-7c1.8,0,3.5,0.7,4.7,1.8c0.8-6.2,6.1-11,12.5-11
				c7,0,12.6,5.7,12.6,12.6c0,0.8-0.1,1.6-0.2,2.3c0.7-0.2,1.4-0.2,2.2-0.2c5.9,0,10.6,4.8,10.6,10.6c0,5.9-4.8,10.6-10.6,10.6
				c-3.7,0-33.8,0-36.3,0c-4.6,0-8.3-3.7-8.3-8.3C622.2,361.7,625.1,358.4,628.9,357.7z"/>
		</g>
		<g>
			<path class="st5" d="M709.1,335.6l9.9-17.2l-19.8,1.2l3.1,4.9l-48.6,30.5c-1-0.6-2.1-1-3.3-1c-2,0-3.7,1-4.8,2.4l-46.2-6.1
				c-1.1-1-2.6-1.7-4.2-1.7c-2.3,0-4.3,1.3-5.3,3.2l-46,17.6c-1-0.7-2.1-1-3.4-1c-3.4,0-6.1,2.7-6.1,6.1c0,3.4,2.7,6.1,6.1,6.1
				c2.7,0,4.9-1.7,5.7-4.1l45-17.2c1.1,1,2.5,1.6,4,1.6c2,0,3.7-1,4.9-2.5l46.1,6.1c1.1,1.1,2.6,1.7,4.3,1.7c3,0,5.4-2.1,6-4.9
				l49.5-31.1L709.1,335.6z"/>
		</g>
		<g>
			<path class="st2" d="M579.4,334.6h-45.1c-0.9,0-1.6-0.7-1.6-1.6c0-0.9,0.7-1.6,1.6-1.6h45.1c0.9,0,1.6,0.7,1.6,1.6
				C581,333.8,580.3,334.6,579.4,334.6z"/>
		</g>
		<g>
			<path class="st2" d="M579.4,345.6h-45.1c-0.9,0-1.6-0.7-1.6-1.6s0.7-1.6,1.6-1.6h45.1c0.9,0,1.6,0.7,1.6,1.6
				S580.3,345.6,579.4,345.6z"/>
		</g>
		<g>
			<path class="st2" d="M552,356.6h-17.6c-0.9,0-1.6-0.7-1.6-1.6c0-0.9,0.7-1.6,1.6-1.6H552c0.9,0,1.6,0.7,1.6,1.6
				C553.5,355.9,552.8,356.6,552,356.6z"/>
		</g>
	</g>
	<g>
		<path class="st9" d="M152,353.4l-40.1-23.2c-0.3,1.1-0.8,2.1-1.4,3.1l39.7,22.9C150.7,355.3,151.3,354.3,152,353.4z"/>
		<path class="st9" d="M82.7,333.4c-0.6-1-1-2-1.4-3.1l-40.1,23.2c0.7,0.9,1.3,1.8,1.8,2.8L82.7,333.4z"/>
		<path class="st9" d="M26.5,379.2v45.6c0.7-0.1,1.4-0.1,2.1-0.1c0.4,0,0.8,0,1.3,0.1v-45.4c-0.4,0-0.8,0.1-1.3,0.1
			C27.9,379.4,27.2,379.3,26.5,379.2z"/>
		<path class="st9" d="M40.8,451.1l40.9,23.6c0.4-1,0.9-2,1.5-3l-40.5-23.4C42.2,449.3,41.5,450.2,40.8,451.1z"/>
		<path class="st9" d="M163.3,379.3v45.4c0.4,0,0.8-0.1,1.3-0.1c0.7,0,1.4,0.1,2.1,0.1v-45.6c-0.7,0.1-1.4,0.2-2.1,0.2
			C164.2,379.4,163.8,379.3,163.3,379.3z"/>
		<path class="st9" d="M110,471.7c0.6,0.9,1.1,1.9,1.5,3l40.9-23.6c-0.7-0.9-1.4-1.8-1.9-2.8L110,471.7z"/>
		<path class="st4" d="M150.2,367.5L150.2,367.5l-12.4,7.2l-0.6-1.1c-0.5-0.9-1.3-0.8-1.7,0l-2.6,5c-0.5,0.9,0,1.6,0.9,1.6l5.6,0.2
			c1,0,1.4-0.6,0.9-1.5l-0.7-1.2l12.4-7.2l2-1.2c2.1,3.6,6.1,6.1,10.6,6.1c6.8,0,12.2-5.5,12.2-12.2c0-6.8-5.5-12.2-12.2-12.2
			c-6.8,0-12.2,5.5-12.2,12.2c0,0.9,0.1,1.9,0.3,2.7L150.2,367.5z M165,352.9c1.3,0,2.4,1.1,2.4,2.4c0,1.3-1.1,2.4-2.4,2.4
			c-1.3,0-2.4-1.1-2.4-2.4C162.6,354,163.7,352.9,165,352.9z M161.6,359.1c0-0.6,0.5-1.1,1.1-1.1h1.6c0,0,0,0.1,0,0.1l0.5,1
			c0,0.1,0.1,0.1,0.2,0l0.5-1c0,0,0-0.1,0-0.1h1.7c0.6,0,1.1,0.5,1.1,1.1v5.6c0,0.6-0.5,1.1-1.1,1.1v0.1v0.1v5.5
			c0,0.6-0.5,1.1-1.1,1.1c-0.6,0-1.1-0.5-1.1-1.1c0,0.6-0.5,1.1-1.1,1.1s-1.1-0.5-1.1-1.1v-5.5V366v-0.1c-0.6,0-1.1-0.5-1.1-1.1
			V359.1z"/>
		<path class="st4" d="M164.6,428.5c-3.8,0-7.2,1.8-9.5,4.5l-1.8-1l-12.4-7.2l0.7-1.2c0.5-0.8,0.1-1.5-0.9-1.5l-5.6,0.2
			c-1,0-1.4,0.8-1,1.6l2.6,5c0.5,0.9,1.2,0.9,1.7,0l0.7-1.1l12.4,7.2l0,0l1.7,1c-0.6,1.4-0.9,3-0.9,4.6c0,6.8,5.5,12.2,12.2,12.2
			c6.8,0,12.2-5.5,12.2-12.2C176.8,433.9,171.4,428.5,164.6,428.5z M164.6,430.8c1.3,0,2.4,1.1,2.4,2.4s-1.1,2.4-2.4,2.4
			c-1.3,0-2.4-1.1-2.4-2.4S163.3,430.8,164.6,430.8z M168,442.6c0,0.6-0.5,1.1-1.1,1.1v0.1v0.1v5.5c0,0.6-0.5,1.1-1.1,1.1
			c-0.6,0-1.1-0.5-1.1-1.1c0,0.6-0.5,1.1-1.1,1.1c-0.6,0-1.1-0.5-1.1-1.1V444v-0.1v-0.1c-0.6,0-1.1-0.5-1.1-1.1V437
			c0-0.6,0.5-1.1,1.1-1.1h1.6c0,0,0,0.1,0,0.1l0.5,1c0,0.1,0.1,0.1,0.2,0l0.5-1c0,0,0-0.1,0-0.1h1.7c0.6,0,1.1,0.5,1.1,1.1V442.6z"
			/>
		<path class="st4" d="M98.4,468.5v-2.2h0v-14.3h1.3c1,0,1.4-0.7,0.8-1.5l-3-4.8c-0.5-0.8-1.4-0.8-1.9,0l-3,4.8
			c-0.5,0.8-0.1,1.5,0.8,1.5h1.3v14.3v2.2c-5.9,0.9-10.5,5.9-10.5,12.1c0,6.8,5.5,12.2,12.2,12.2s12.2-5.5,12.2-12.2
			C108.8,474.5,104.3,469.4,98.4,468.5z M94.9,471.3h3.4c0.4,0.4,0.7,1,0.7,1.7c0,1.3-1.1,2.4-2.4,2.4c-1.3,0-2.4-1.1-2.4-2.4
			C94.2,472.4,94.5,471.8,94.9,471.3z M100,482.5c0,0.6-0.5,1.1-1.1,1.1v0.1v0.1v5.5c0,0.6-0.5,1.1-1.1,1.1c-0.6,0-1.1-0.5-1.1-1.1
			c0,0.6-0.5,1.1-1.1,1.1c-0.6,0-1.1-0.5-1.1-1.1v-5.5v-0.1v-0.1c-0.6,0-1.1-0.5-1.1-1.1v-5.6c0-0.6,0.5-1.1,1.1-1.1h1.6
			c0,0,0,0.1,0,0.1l0.5,1c0,0.1,0.1,0.1,0.2,0l0.5-1c0,0,0-0.1,0-0.1h1.7c0.6,0,1.1,0.5,1.1,1.1V482.5z"/>
		<path class="st4" d="M40.1,436.6l2.7-1.6l0,0l12.4-7.2l0.6,1.1c0.5,0.9,1.3,0.8,1.7,0l2.6-5c0.5-0.9,0-1.6-1-1.6l-5.6-0.2
			c-1,0-1.4,0.6-0.9,1.5l0.7,1.2L41,432l-2.6,1.5c-2.2-3-5.8-5-9.8-5c-6.8,0-12.2,5.5-12.2,12.2c0,6.8,5.5,12.2,12.2,12.2
			c6.8,0,12.2-5.5,12.2-12.2C40.8,439.3,40.6,437.9,40.1,436.6z M28.2,430.8c1.3,0,2.4,1.1,2.4,2.4s-1.1,2.4-2.4,2.4
			c-1.3,0-2.4-1.1-2.4-2.4S26.9,430.8,28.2,430.8z M31.6,442.6c0,0.6-0.5,1.1-1.1,1.1v0.1v0.1v5.5c0,0.6-0.5,1.1-1.1,1.1
			c-0.6,0-1.1-0.5-1.1-1.1c0,0.6-0.5,1.1-1.1,1.1c-0.6,0-1.1-0.5-1.1-1.1V444v-0.1v-0.1c-0.6,0-1.1-0.5-1.1-1.1V437
			c0-0.6,0.5-1.1,1.1-1.1h1.6c0,0,0,0.1,0,0.1l0.5,1c0,0.1,0.1,0.1,0.2,0l0.5-1c0,0,0-0.1,0-0.1h1.7c0.6,0,1.1,0.5,1.1,1.1V442.6z"
			/>
		<path class="st4" d="M28.6,375.6c4.5,0,8.4-2.4,10.5-6l1.9,1.1l12.4,7.2l-0.7,1.2c-0.5,0.8-0.1,1.5,0.9,1.5l5.6-0.2
			c1,0,1.4-0.8,1-1.6l-2.6-5c-0.5-0.9-1.2-0.9-1.7,0l-0.6,1.1l-12.4-7.2l0,0l-2.3-1.3c0.2-0.9,0.3-1.8,0.3-2.8
			c0-6.8-5.5-12.2-12.2-12.2c-6.8,0-12.2,5.5-12.2,12.2C16.4,370.1,21.8,375.6,28.6,375.6z M28.2,353.4c1.3,0,2.4,1.1,2.4,2.4
			s-1.1,2.4-2.4,2.4c-1.3,0-2.4-1.1-2.4-2.4S26.9,353.4,28.2,353.4z M24.8,359.6c0-0.6,0.5-1.1,1.1-1.1h1.6c0,0,0,0.1,0,0.1l0.5,1
			c0,0.1,0.1,0.1,0.2,0l0.5-1c0,0,0-0.1,0-0.1h1.7c0.6,0,1.1,0.5,1.1,1.1v5.6c0,0.6-0.5,1.1-1.1,1.1v0.1v0.1v5.5
			c0,0.6-0.5,1.1-1.1,1.1c-0.6,0-1.1-0.5-1.1-1.1c0,0.6-0.5,1.1-1.1,1.1c-0.6,0-1.1-0.5-1.1-1.1v-5.5v-0.1v-0.1
			c-0.6,0-1.1-0.5-1.1-1.1V359.6z"/>
		<path class="st4" d="M94.8,337.6v0.9v14.3h-1.3c-1,0-1.4,0.7-0.8,1.5l3,4.8c0.5,0.8,1.4,0.8,1.9,0l3-4.8c0.5-0.8,0.1-1.5-0.8-1.5
			h-1.3v-14.3h0v-0.9c5.9-0.9,10.4-6,10.4-12.1c0-6.8-5.5-12.2-12.2-12.2s-12.2,5.5-12.2,12.2C84.4,331.6,88.9,336.7,94.8,337.6z
			 M96.6,315.5c1.3,0,2.4,1.1,2.4,2.4c0,1.3-1.1,2.4-2.4,2.4c-1.3,0-2.4-1.1-2.4-2.4C94.2,316.6,95.3,315.5,96.6,315.5z M93.2,321.7
			c0-0.6,0.5-1.1,1.1-1.1h1.6c0,0,0,0.1,0,0.1l0.5,1c0,0.1,0.1,0.1,0.2,0l0.5-1c0,0,0-0.1,0-0.1h1.7c0.6,0,1.1,0.5,1.1,1.1v5.6
			c0,0.6-0.5,1.1-1.1,1.1v0.1v0.1v5.5c0,0.6-0.5,1.1-1.1,1.1c-0.6,0-1.1-0.5-1.1-1.1c0,0.6-0.5,1.1-1.1,1.1c-0.6,0-1.1-0.5-1.1-1.1
			v-5.5v-0.1v-0.1c-0.6,0-1.1-0.5-1.1-1.1V321.7z"/>
		<path class="st5" d="M96.6,362.8c-21.8,0-39.5,17.7-39.5,39.5c0,21.8,17.7,39.5,39.5,39.5c21.8,0,39.5-17.7,39.5-39.5
			C136.1,380.5,118.4,362.8,96.6,362.8z M96.6,374.4c6.2,0,11.1,5,11.1,11.1c0,6.1-5,11.1-11.1,11.1c-6.1,0-11.1-5-11.1-11.1
			C85.5,379.4,90.5,374.4,96.6,374.4z M107.5,411.4c-1.5,0.5-3.2-0.2-3.7-1.4l-0.7-1.7v7.9c0,0,0,0,0,0h0l-2.8,11.8
			c-0.1,0.9-1,1.6-1.9,1.6c-0.7,0-1.2,0-1.5,0c-0.1,0-0.1,0-0.2,0c-0.1,0-0.2,0-0.2,0c-0.3,0-0.8,0-1.5,0c-0.9,0-1.8-0.7-1.9-1.6
			l-2.8-11.8h0c0,0,0,0,0,0v-7.9l-0.7,1.7c-0.5,1.2-2.2,1.9-3.7,1.4c-1.5-0.5-2.3-1.9-1.7-3.1l3.9-8.8c0.4-1,1.7-1.6,2.9-1.6
			c0.1,0,0.1,0,0.2,0h5.7h5.7c0.1,0,0.1,0,0.2,0c1.3-0.1,2.5,0.6,2.9,1.6l3.9,8.8C109.7,409.5,109,410.9,107.5,411.4z"/>
	</g>
</g>
</svg>
