<?xml version="1.0" encoding="utf-8"?>
<!-- Generator: Adobe Illustrator 25.4.8, SVG Export Plug-In . SVG Version: 6.00 Build 0)  -->
<svg version="1.1" id="圖層_1" xmlns="http://www.w3.org/2000/svg" xmlns:xlink="http://www.w3.org/1999/xlink" x="0px" y="0px"
	 viewBox="0 0 500 388.7" style="enable-background:new 0 0 500 388.7;" xml:space="preserve">
<style type="text/css">
	.st0{fill:#FD8000;}
	.st1{fill:none;stroke:#D3D3D3;stroke-miterlimit:10;}
	.st2{fill:none;stroke:#7F7F7F;stroke-width:2;stroke-miterlimit:10;}
	.st3{fill:#FED6AC;}
	.st4{fill:#231815;}
	.st5{fill:#707070;}
</style>
<g>
	<polygon class="st0" points="3.7,650.9 7.3,650.9 13.4,653.9 21.3,655.4 26.2,674.6 32.7,674.6 41.8,662.7 47.1,671.3 53.1,658.8 
		62.7,634.6 68.3,654.6 76.3,651.6 83.1,649.7 88.4,654.6 96.1,654.6 104.7,641.4 110.4,647.5 119.1,654.6 125.9,636.9 132,648.2 
		139.9,630.4 146,614.9 152.8,642.5 160,644.7 166.1,637.6 174.4,644.8 181.2,659.6 186.9,651.3 195.6,636.1 203.2,634.6 
		209.7,620.9 215,631.2 222.9,647.1 229.9,777.4 236.6,720.3 244.5,660.7 251.7,667.5 258.9,669.4 266.7,652.4 270.7,632.3 
		278.6,632.3 285.4,612.8 291.5,604.8 299.8,616.4 305.9,594.6 314.6,561.1 321.4,639.5 329.4,657.7 335.8,610.3 341.1,618.3 
		349.1,609.6 357.1,583 362.4,578.5 368.7,583.8 378.3,566.7 383.6,577.4 391.7,558.8 398.4,507.7 406.3,561.1 411.6,554.6 
		419.6,545.9 424.2,556.5 431.4,548.6 448.9,539.6 448.9,787.8 3.7,787.8 	"/>
</g>
<text transform="matrix(1 0 0 1 3.1888 809.4473)" class="st4" style="font-family:'SourceHanSansTC-Bold-B5pc-H'; font-size:14px;">2017</text>
<text transform="matrix(1 0 0 1 63.068 809.4473)" class="st4" style="font-family:'SourceHanSansTC-Bold-B5pc-H'; font-size:14px;">2018</text>
<text transform="matrix(1 0 0 1 145.5197 809.4473)" class="st4" style="font-family:'SourceHanSansTC-Bold-B5pc-H'; font-size:14px;">2019</text>
<text transform="matrix(1 0 0 1 229.3933 809.4473)" class="st4" style="font-family:'SourceHanSansTC-Bold-B5pc-H'; font-size:14px;">2020</text>
<text transform="matrix(1 0 0 1 311.0027 809.4473)" class="st4" style="font-family:'SourceHanSansTC-Bold-B5pc-H'; font-size:14px;">2021</text>
<text transform="matrix(1 0 0 1 391.1825 809.4473)" class="st4" style="font-family:'SourceHanSansTC-Bold-B5pc-H'; font-size:14px;">2022</text>
<text transform="matrix(1 0 0 1 420.6108 451.928)" class="st4" style="font-family:'SourceHanSansTC-Regular-B5pc-H'; font-size:16px;">(10億盧比)</text>
<text transform="matrix(1 0 0 1 122.9112 454.6454)" class="st4" style="font-family:'SourceHanSansTC-Bold-B5pc-H'; font-size:18px;">【 印度國內消費稅收 】</text>
<text transform="matrix(1 0 0 1 460.1074 484.8443)"><tspan x="0" y="0" class="st5" style="font-family:'SourceHanSansTC-Bold-B5pc-H'; font-size:14px;">1800</tspan><tspan x="0" y="40" class="st5" style="font-family:'SourceHanSansTC-Bold-B5pc-H'; font-size:14px;">1600</tspan><tspan x="0" y="80" class="st5" style="font-family:'SourceHanSansTC-Bold-B5pc-H'; font-size:14px;">1400</tspan><tspan x="0" y="120" class="st5" style="font-family:'SourceHanSansTC-Bold-B5pc-H'; font-size:14px;">1200</tspan><tspan x="0" y="160" class="st5" style="font-family:'SourceHanSansTC-Bold-B5pc-H'; font-size:14px;">1000</tspan><tspan x="8.2" y="200" class="st5" style="font-family:'SourceHanSansTC-Bold-B5pc-H'; font-size:14px;">800</tspan><tspan x="8.2" y="240" class="st5" style="font-family:'SourceHanSansTC-Bold-B5pc-H'; font-size:14px;">600</tspan><tspan x="8.2" y="280" class="st5" style="font-family:'SourceHanSansTC-Bold-B5pc-H'; font-size:14px;">400</tspan></text>
<line class="st1" x1="457.1" y1="481" x2="449.5" y2="481"/>
<line class="st1" x1="457.1" y1="462" x2="449.5" y2="462"/>
<line class="st1" x1="457.1" y1="520.4" x2="449.5" y2="520.4"/>
<line class="st1" x1="457.1" y1="558.8" x2="449.5" y2="558.8"/>
<line class="st1" x1="457.1" y1="599.1" x2="449.5" y2="599.1"/>
<line class="st1" x1="457.1" y1="639.5" x2="449.5" y2="639.5"/>
<line class="st1" x1="457.1" y1="680" x2="449.5" y2="680"/>
<line class="st1" x1="457.1" y1="720.3" x2="449.5" y2="720.3"/>
<line class="st1" x1="457.1" y1="760.8" x2="449.5" y2="760.8"/>
<line class="st1" x1="403.9" y1="795.7" x2="403.9" y2="788.2"/>
<line class="st1" x1="327.1" y1="795.5" x2="327.1" y2="787.9"/>
<line class="st1" x1="241.3" y1="795.7" x2="241.3" y2="788.2"/>
<line class="st1" x1="158.4" y1="794.7" x2="158.4" y2="787.2"/>
<line class="st1" x1="76.3" y1="796.5" x2="76.3" y2="788.9"/>
<line class="st1" x1="13.4" y1="795.7" x2="13.4" y2="788.2"/>
<line class="st2" x1="3.7" y1="787.8" x2="449" y2="787.8"/>
<line class="st1" x1="449" y1="787.8" x2="449" y2="460.8"/>
<g>
	<g>
		<polygon class="st3" points="188.8,613.2 169,578.9 225.7,548.2 245.6,582.5 		"/>
		<polygon class="st3" points="281.7,538.7 208.4,526.3 255.9,608.4 		"/>
	</g>
	
		<text transform="matrix(0.8655 -0.5009 0.5009 0.8655 194.1328 595.936)" class="st4" style="font-family:'SourceHanSansTC-Bold-B5pc-H'; font-size:18px;">穩定成長</text>
</g>
<g>
	<polygon class="st0" points="3.7,226.9 7.3,226.9 13.4,229.9 21.3,231.4 26.2,250.6 32.7,250.6 41.8,238.7 47.1,247.3 53.1,234.8 
		62.7,210.6 68.3,230.6 76.3,227.6 83.1,225.7 88.4,230.6 96.1,230.6 104.7,217.4 110.4,223.5 119.1,230.6 125.9,212.9 132,224.2 
		139.9,206.4 146,190.9 152.8,218.5 160,220.7 166.1,213.6 174.4,220.8 181.2,235.6 186.9,227.3 195.6,212.1 203.2,210.6 
		209.7,196.9 215,207.2 222.9,223.1 229.9,353.4 236.6,296.3 244.5,236.7 251.7,243.5 258.9,245.4 266.7,228.4 270.7,208.3 
		278.6,208.3 285.4,188.8 291.5,180.8 299.8,192.4 305.9,170.6 314.6,137.1 321.4,215.5 329.4,233.7 335.8,186.3 341.1,194.3 
		349.1,185.6 357.1,159 362.4,154.5 368.7,159.8 378.3,142.7 383.6,153.4 391.7,134.8 398.4,83.7 406.3,137.1 411.6,130.6 
		419.6,121.9 424.2,132.5 431.4,124.6 448.9,115.6 448.9,363.8 3.7,363.8 	"/>
</g>
<g>
	<path class="st4" d="M3.8,384.3c2.7-2.6,4.5-4.3,4.5-5.8c0-1-0.6-1.6-1.6-1.6c-0.8,0-1.4,0.5-1.9,1.1l-1.1-1.1c1-1,1.9-1.6,3.3-1.6
		c2,0,3.3,1.2,3.3,3.2c0,1.8-1.6,3.6-3.5,5.5c0.5-0.1,1.2-0.1,1.7-0.1h2.3v1.7H3.8V384.3z"/>
	<path class="st4" d="M12.1,380.3c0-3.4,1.4-5.2,3.5-5.2c2.1,0,3.5,1.8,3.5,5.2c0,3.4-1.4,5.3-3.5,5.3
		C13.4,385.6,12.1,383.8,12.1,380.3z M17.1,380.3c0-2.8-0.7-3.6-1.6-3.6s-1.6,0.8-1.6,3.6c0,2.8,0.7,3.7,1.6,3.7
		S17.1,383.2,17.1,380.3z"/>
	<path class="st4" d="M20.8,383.8h2.2v-6.3h-1.9v-1.3c1-0.2,1.8-0.5,2.4-0.9h1.5v8.4h1.9v1.7h-6.2V383.8z"/>
	<path class="st4" d="M33.3,377.1h-4.7v-1.7h6.9v1.3c-2.4,2.9-2.7,4.9-2.9,8.8h-2.1C30.7,382,31.4,379.8,33.3,377.1z"/>
</g>
<g>
	<path class="st4" d="M63.7,384.3c2.7-2.6,4.5-4.3,4.5-5.8c0-1-0.6-1.6-1.6-1.6c-0.8,0-1.4,0.5-1.9,1.1l-1.1-1.1
		c1-1,1.9-1.6,3.3-1.6c2,0,3.3,1.2,3.3,3.2c0,1.8-1.6,3.6-3.5,5.5c0.5-0.1,1.2-0.1,1.7-0.1h2.3v1.7h-6.9V384.3z"/>
	<path class="st4" d="M71.9,380.3c0-3.4,1.4-5.2,3.5-5.2c2.1,0,3.5,1.8,3.5,5.2c0,3.4-1.4,5.3-3.5,5.3
		C73.3,385.6,71.9,383.8,71.9,380.3z M77,380.3c0-2.8-0.7-3.6-1.6-3.6s-1.6,0.8-1.6,3.6c0,2.8,0.7,3.7,1.6,3.7S77,383.2,77,380.3z"
		/>
	<path class="st4" d="M80.7,383.8h2.2v-6.3h-1.9v-1.3c1-0.2,1.8-0.5,2.4-0.9H85v8.4h1.9v1.7h-6.2V383.8z"/>
	<path class="st4" d="M88.5,382.9c0-1.2,0.8-2,1.8-2.6v-0.1c-0.8-0.6-1.4-1.3-1.4-2.4c0-1.7,1.3-2.7,3.1-2.7c1.8,0,3,1.1,3,2.7
		c0,1-0.7,1.8-1.3,2.3v0.1c0.9,0.5,1.7,1.3,1.7,2.6c0,1.6-1.4,2.8-3.5,2.8C89.9,385.6,88.5,384.5,88.5,382.9z M93.5,382.8
		c0-1-1-1.4-2.3-1.9c-0.5,0.4-1,1.1-1,1.8c0,0.9,0.8,1.5,1.7,1.5C92.9,384.2,93.5,383.7,93.5,382.8z M93.3,378
		c0-0.8-0.5-1.4-1.4-1.4c-0.7,0-1.3,0.4-1.3,1.3c0,0.9,0.8,1.4,1.9,1.8C93.1,379.2,93.3,378.6,93.3,378z"/>
</g>
<g>
	<path class="st4" d="M146.1,384.3c2.7-2.6,4.5-4.3,4.5-5.8c0-1-0.6-1.6-1.6-1.6c-0.8,0-1.4,0.5-1.9,1.1l-1.1-1.1
		c1-1,1.9-1.6,3.3-1.6c2,0,3.3,1.2,3.3,3.2c0,1.8-1.6,3.6-3.5,5.5c0.5-0.1,1.2-0.1,1.7-0.1h2.3v1.7h-6.9V384.3z"/>
	<path class="st4" d="M154.4,380.3c0-3.4,1.4-5.2,3.5-5.2c2.1,0,3.5,1.8,3.5,5.2c0,3.4-1.4,5.3-3.5,5.3
		C155.8,385.6,154.4,383.8,154.4,380.3z M159.5,380.3c0-2.8-0.7-3.6-1.6-3.6s-1.6,0.8-1.6,3.6c0,2.8,0.7,3.7,1.6,3.7
		S159.5,383.2,159.5,380.3z"/>
	<path class="st4" d="M163.2,383.8h2.2v-6.3h-1.9v-1.3c1-0.2,1.8-0.5,2.4-0.9h1.5v8.4h1.9v1.7h-6.2V383.8z"/>
	<path class="st4" d="M171,384.5l1.1-1.2c0.4,0.4,1,0.7,1.6,0.7c1.2,0,2.2-0.9,2.3-3.5c-0.6,0.7-1.5,1.1-2.1,1.1c-1.7,0-3-1-3-3.1
		c0-2.1,1.5-3.3,3.3-3.3c2,0,3.7,1.5,3.7,5c0,3.9-1.9,5.5-4,5.5C172.5,385.6,171.6,385.1,171,384.5z M174.2,380.2
		c0.5,0,1.2-0.3,1.7-1.1c-0.2-1.7-0.9-2.3-1.8-2.3c-0.8,0-1.4,0.6-1.4,1.8C172.7,379.6,173.3,380.2,174.2,380.2z"/>
</g>
<g>
	<path class="st4" d="M230,384.3c2.7-2.6,4.5-4.3,4.5-5.8c0-1-0.6-1.6-1.6-1.6c-0.8,0-1.4,0.5-1.9,1.1l-1.1-1.1c1-1,1.9-1.6,3.3-1.6
		c2,0,3.3,1.2,3.3,3.2c0,1.8-1.6,3.6-3.5,5.5c0.5-0.1,1.2-0.1,1.7-0.1h2.3v1.7H230V384.3z"/>
	<path class="st4" d="M238.3,380.3c0-3.4,1.4-5.2,3.5-5.2c2.1,0,3.5,1.8,3.5,5.2c0,3.4-1.4,5.3-3.5,5.3
		C239.6,385.6,238.3,383.8,238.3,380.3z M243.3,380.3c0-2.8-0.7-3.6-1.6-3.6s-1.6,0.8-1.6,3.6c0,2.8,0.7,3.7,1.6,3.7
		S243.3,383.2,243.3,380.3z"/>
	<path class="st4" d="M246.5,384.3c2.7-2.6,4.5-4.3,4.5-5.8c0-1-0.6-1.6-1.6-1.6c-0.8,0-1.4,0.5-1.9,1.1l-1.1-1.1
		c1-1,1.9-1.6,3.3-1.6c2,0,3.3,1.2,3.3,3.2c0,1.8-1.6,3.6-3.5,5.5c0.5-0.1,1.2-0.1,1.7-0.1h2.3v1.7h-6.9V384.3z"/>
	<path class="st4" d="M254.7,380.3c0-3.4,1.4-5.2,3.5-5.2c2.1,0,3.5,1.8,3.5,5.2c0,3.4-1.4,5.3-3.5,5.3
		C256.1,385.6,254.7,383.8,254.7,380.3z M259.8,380.3c0-2.8-0.7-3.6-1.6-3.6s-1.6,0.8-1.6,3.6c0,2.8,0.7,3.7,1.6,3.7
		S259.8,383.2,259.8,380.3z"/>
</g>
<g>
	<path class="st4" d="M311.6,384.3c2.7-2.6,4.5-4.3,4.5-5.8c0-1-0.6-1.6-1.6-1.6c-0.8,0-1.4,0.5-1.9,1.1l-1.1-1.1
		c1-1,1.9-1.6,3.3-1.6c2,0,3.3,1.2,3.3,3.2c0,1.8-1.6,3.6-3.5,5.5c0.5-0.1,1.2-0.1,1.7-0.1h2.3v1.7h-6.9V384.3z"/>
	<path class="st4" d="M319.9,380.3c0-3.4,1.4-5.2,3.5-5.2c2.1,0,3.5,1.8,3.5,5.2c0,3.4-1.4,5.3-3.5,5.3
		C321.3,385.6,319.9,383.8,319.9,380.3z M324.9,380.3c0-2.8-0.7-3.6-1.6-3.6s-1.6,0.8-1.6,3.6c0,2.8,0.7,3.7,1.6,3.7
		S324.9,383.2,324.9,380.3z"/>
	<path class="st4" d="M328.1,384.3c2.7-2.6,4.5-4.3,4.5-5.8c0-1-0.6-1.6-1.6-1.6c-0.8,0-1.4,0.5-1.9,1.1l-1.1-1.1
		c1-1,1.9-1.6,3.3-1.6c2,0,3.3,1.2,3.3,3.2c0,1.8-1.6,3.6-3.5,5.5c0.5-0.1,1.2-0.1,1.7-0.1h2.3v1.7h-6.9V384.3z"/>
	<path class="st4" d="M336.9,383.8h2.2v-6.3h-1.9v-1.3c1-0.2,1.8-0.5,2.4-0.9h1.5v8.4h1.9v1.7h-6.2V383.8z"/>
</g>
<g>
	<path class="st4" d="M391.8,384.3c2.7-2.6,4.5-4.3,4.5-5.8c0-1-0.6-1.6-1.6-1.6c-0.8,0-1.4,0.5-1.9,1.1l-1.1-1.1
		c1-1,1.9-1.6,3.3-1.6c2,0,3.3,1.2,3.3,3.2c0,1.8-1.6,3.6-3.5,5.5c0.5-0.1,1.2-0.1,1.7-0.1h2.3v1.7h-6.9V384.3z"/>
	<path class="st4" d="M400,380.3c0-3.4,1.4-5.2,3.5-5.2c2.1,0,3.5,1.8,3.5,5.2c0,3.4-1.4,5.3-3.5,5.3
		C401.4,385.6,400,383.8,400,380.3z M405.1,380.3c0-2.8-0.7-3.6-1.6-3.6s-1.6,0.8-1.6,3.6c0,2.8,0.7,3.7,1.6,3.7
		S405.1,383.2,405.1,380.3z"/>
	<path class="st4" d="M408.3,384.3c2.7-2.6,4.5-4.3,4.5-5.8c0-1-0.6-1.6-1.6-1.6c-0.8,0-1.4,0.5-1.9,1.1l-1.1-1.1
		c1-1,1.9-1.6,3.3-1.6c2,0,3.3,1.2,3.3,3.2c0,1.8-1.6,3.6-3.5,5.5c0.5-0.1,1.2-0.1,1.7-0.1h2.3v1.7h-6.9V384.3z"/>
	<path class="st4" d="M416.5,384.3c2.7-2.6,4.5-4.3,4.5-5.8c0-1-0.6-1.6-1.6-1.6c-0.8,0-1.4,0.5-1.9,1.1l-1.1-1.1
		c1-1,1.9-1.6,3.3-1.6c2,0,3.3,1.2,3.3,3.2c0,1.8-1.6,3.6-3.5,5.5c0.5-0.1,1.2-0.1,1.7-0.1h2.3v1.7h-6.9V384.3z"/>
</g>
<g>
	<path class="st4" d="M422.1,23c0-3.1,0.9-5.7,2.4-8.1l0.9,0.4c-1.4,2.3-2,5-2,7.7c0,2.7,0.7,5.4,2,7.7l-0.9,0.4
		C423,28.7,422.1,26.1,422.1,23z"/>
	<path class="st4" d="M427.4,26.7h2.6v-8.4H428v-0.9c1-0.2,1.8-0.4,2.4-0.8h1.1v10.2h2.4v1.2h-6.4V26.7z"/>
	<path class="st4" d="M435.7,22.2c0-3.8,1.4-5.9,3.7-5.9c2.3,0,3.6,2.1,3.6,5.9c0,3.8-1.4,6-3.6,6C437.1,28.1,435.7,26,435.7,22.2z
		 M441.6,22.2c0-3.3-0.9-4.7-2.2-4.7c-1.3,0-2.2,1.4-2.2,4.7c0,3.3,0.9,4.8,2.2,4.8C440.7,27,441.6,25.5,441.6,22.2z"/>
	<path class="st4" d="M449.2,14.9c-0.4,1.2-1,2.5-1.7,3.7v10.5h-1.1v-8.7c-0.4,0.6-0.9,1.2-1.3,1.7c-0.1-0.3-0.5-0.9-0.7-1.2
		c1.5-1.6,2.9-3.9,3.7-6.4L449.2,14.9z M448.3,28.2c0.5-0.7,1-1.8,1.3-2.6l0.9,0.4c-0.3,0.8-0.8,2-1.3,2.7L448.3,28.2z M455,18.6
		c0.3-0.5,0.5-1.1,0.7-1.6h-6.4v-0.9h4c-0.2-0.4-0.4-1-0.6-1.4l1.1-0.2c0.2,0.5,0.5,1.2,0.7,1.6h4.1V17h-2.8l1.1,0.3
		c-0.3,0.4-0.5,0.9-0.7,1.3h3v1h-10.6v-1h2.9c-0.1-0.4-0.3-0.9-0.6-1.3l1-0.2c0.3,0.4,0.5,1,0.6,1.3l-0.8,0.2H455z M457.8,24.8h-4.6
		c0.8,0.5,1.6,1.1,2.1,1.6l-0.8,0.7c-0.5-0.5-1.5-1.3-2.3-1.8l0.6-0.4h-3v-4.4h8V24.8z M456.7,21.2H451v1h5.7V21.2z M456.7,23H451v1
		h5.7V23z M455.3,28.1c0.5,0,0.6-0.1,0.7-1.2c0.3,0.2,0.7,0.3,1,0.4c-0.1,1.4-0.5,1.8-1.5,1.8h-2.6c-1.4,0-1.8-0.3-1.8-1.4v-2.1h1.1
		v2.1c0,0.4,0.1,0.4,0.8,0.4H455.3z M457.3,25.4c0.7,0.9,1.6,2,1.9,2.8l-1,0.5c-0.4-0.8-1.2-2-1.9-2.9L457.3,25.4z"/>
	<path class="st4" d="M463,21.3c0,2.3-0.2,5.6-1.5,7.8c-0.2-0.2-0.7-0.5-1-0.6c1.2-2.1,1.3-5.1,1.3-7.2v-4.1h5v-2.7h1.2v1h5.7v0.9
		H468v0.8h5.7l0.2,0l0.8,0.2c-0.3,0.8-0.6,1.6-1,2.1l-1-0.4c0.2-0.3,0.3-0.7,0.5-1.1h-5.1v0.7l4-0.2l0,0.7l-4,0.2v0.1
		c0,0.4,0.1,0.6,0.6,0.6h3.6c0.4,0,1.3,0,1.6-0.1c0,0.3,0,0.6,0.1,0.8c-0.3,0.1-1,0.1-1.6,0.1h-3.9c-1.2,0-1.5-0.4-1.5-1.3l-3.1,0.2
		l0-0.8l3.2-0.2v-0.8H463V21.3z M475,27.9v0.9h-12.7v-0.9h1.4v-2.2h10v2.2H475z M464.3,21.5h8.8V25h-8.8V21.5z M464.8,27.9h1.9v-1.4
		h-1.9V27.9z M465.3,23h2.7v-0.7h-2.7V23z M465.3,24.4h2.7v-0.8h-2.7V24.4z M467.7,26.5v1.4h1.9v-1.4H467.7z M471.9,22.2h-2.8V23
		h2.8V22.2z M471.9,23.6h-2.8v0.8h2.8V23.6z M470.6,26.5v1.4h1.9v-1.4H470.6z"/>
	<path class="st4" d="M483.4,25.9c0,0.3,0.1,0.8,0.1,1.1c-4.6,1.2-5.2,1.4-5.6,1.7c-0.1-0.3-0.4-0.8-0.6-1c0.2-0.2,0.6-0.5,0.6-1.2
		V14.5h1.2v4.9h4.1v1.2h-4.1v6.3L483.4,25.9z M489.1,27.7c0.8,0,0.8-0.6,1-2.9c0.3,0.2,0.8,0.4,1.1,0.5c-0.2,2.6-0.5,3.5-2,3.5h-2.7
		c-1.6,0-2-0.5-2-2.2V14.5h1.2v4.9h4.3v1.2h-4.3v6c0,0.9,0.1,1,0.9,1H489.1z"/>
	<path class="st4" d="M492.5,30.6c1.4-2.3,2-5,2-7.7c0-2.7-0.7-5.4-2-7.7l0.9-0.4c1.5,2.4,2.4,5,2.4,8.1c0,3.2-0.9,5.7-2.4,8.1
		L492.5,30.6z"/>
</g>
<g>
	<path class="st4" d="M146.3,23.8c0,3.7,1.6,6.7,3.6,8.4v0.1h-5.6v-17h5.6v0.1C147.9,17.1,146.3,20.1,146.3,23.8z"/>
	<path class="st4" d="M157.8,27.4c1.4-0.4,3-0.9,4.5-1.4l0.3,1.9c-2.5,0.9-5.2,1.8-7.3,2.4l-0.5-2.1l0.8-0.2V17.5
		c1.9-0.4,3.9-1.1,5.2-1.7l1.6,1.7c-1.4,0.6-3.1,1-4.7,1.4v2.6h4.5v2.1h-4.5V27.4z M170.8,27.2c0,1-0.2,1.7-0.9,2.1
		c-0.7,0.4-1.6,0.4-2.8,0.4c-0.1-0.6-0.5-1.7-0.8-2.3c0.8,0,1.7,0,2,0c0.3,0,0.3-0.1,0.3-0.3v-8.4h-3.2v13.4h-2.2V16.6h7.5V27.2z"/>
	<path class="st4" d="M176.2,21.7c0,3-0.2,7.5-1.7,10.5c-0.4-0.3-1.4-0.8-2-0.9c1.4-2.8,1.6-6.8,1.6-9.5v-4.8h6.7
		c-0.1-0.4-0.3-0.8-0.4-1.2l2.2-0.5c0.3,0.5,0.5,1.1,0.7,1.7h5.9v2h-13V21.7z M188.1,26.4c-0.8,1.4-1.8,2.5-3.2,3.3
		c1.4,0.3,2.9,0.5,4.5,0.6c-0.4,0.5-1,1.3-1.2,1.9c-2.2-0.2-4.1-0.6-5.8-1.3c-1.7,0.6-3.7,1-5.7,1.2c-0.2-0.5-0.6-1.3-0.9-1.8
		c1.5-0.1,2.9-0.3,4.3-0.6c-0.8-0.6-1.6-1.2-2.2-2l0.7-0.3h-1.9v-1.7h9.7l0.4-0.1L188.1,26.4z M179,25v-2.8h-2.4v-1.7h2.4v-1.2h2
		v1.2h3.3v-1.2h2.1v1.2h2.6v1.7h-2.6V25H179z M180.1,27.4c0.6,0.6,1.4,1.1,2.4,1.5c0.9-0.4,1.7-0.9,2.4-1.5H180.1z M181,22.2v1.2
		h3.3v-1.2H181z"/>
	<path class="st4" d="M206.7,16.2v16.1h-2.1v-0.8h-11.2v0.8h-2V16.2H206.7z M204.5,29.6V18.1h-2.2c0.6,0.3,1.2,0.7,1.5,1l-0.7,0.8
		h0.9v1.5h-3.2c0.1,1,0.2,1.9,0.3,2.8c0.4-0.7,0.6-1.4,0.8-2.3l1.6,0.3c-0.4,1.6-1.1,3-1.9,4.1c0.2,0.6,0.5,0.9,0.8,1
		c0.2,0.1,0.4-0.6,0.4-1.7c0.3,0.3,1,0.8,1.3,1c-0.3,2.2-1.2,2.9-2.4,2.4c-0.5-0.2-1-0.6-1.4-1.2c-0.6,0.6-1.2,1.1-1.9,1.5
		c-0.2-0.3-0.8-1-1.2-1.3c0.2-0.1,0.4-0.2,0.6-0.4c-1.4,0.2-2.9,0.4-4.1,0.6l-0.2-1.6c1.3-0.1,3.2-0.4,5.1-0.6l0,0.9
		c0.3-0.3,0.6-0.6,0.9-0.9c-0.4-1.3-0.6-2.9-0.8-4.7h-5v-1.5h4.9c0-0.5-0.1-1-0.1-1.5h1.8c0,0.5,0,1,0.1,1.5h1.9
		c-0.4-0.3-0.9-0.7-1.4-1l0.8-0.8h-8.7v11.5H204.5z M198.5,25.6h-4v-3.4h4V25.6z M197,23.3h-1.2v1.2h1.2V23.3z"/>
	<path class="st4" d="M224.3,29.7c0,1.2-0.2,1.8-1,2.1c-0.8,0.3-1.9,0.4-3.5,0.4c-0.1-0.6-0.4-1.6-0.7-2.2c1,0,2.2,0,2.5,0
		c0.3,0,0.4-0.1,0.4-0.4v-3.2c-0.4,0.5-0.9,1.1-1.2,1.6c-1.9-1.1-3.1-2.8-3.9-4.9c-0.8,2.3-2.1,3.9-4.1,5c-0.2-0.3-0.6-0.9-1-1.3
		v5.4h-2.2V19.4h6.4c-0.1-0.5-0.1-0.9-0.1-1.4h-3v-1.9h4.9c0,1.2,0.1,2.2,0.3,3.3h6.1V29.7z M212,26.2c1.8-1,2.9-2.6,3.5-4.7H212
		V26.2z M218.7,21.5c0.6,2,1.7,3.5,3.4,4.5v-4.5H218.7z"/>
	<path class="st4" d="M229.8,24.1c-0.7-0.5-2.3-1.4-3.4-1.9l1.2-1.6c1,0.5,2.6,1.3,3.4,1.7L229.8,24.1z M232.1,26.3
		c-1,1.9-2.1,3.9-3.2,5.7l-1.8-1.4c1-1.4,2.3-3.6,3.4-5.7L232.1,26.3z M230.8,19.3c-0.7-0.6-2.2-1.5-3.2-2.1l1.3-1.5
		c1,0.5,2.5,1.4,3.3,1.9L230.8,19.3z M242.5,29.9c0,1-0.2,1.6-0.9,1.9c-0.7,0.3-1.6,0.4-3,0.4c-0.1-0.6-0.4-1.5-0.6-2
		c0.8,0.1,1.8,0.1,2.1,0c0.3,0,0.4-0.1,0.4-0.3v-2.5c-1.8,0.5-3.7,1-5.2,1.3l-0.6-1.8c1.5-0.3,3.7-0.8,5.8-1.3v-3.3h-5.8V26
		c0,2-0.1,4.7-1.1,6.4c-0.4-0.3-1.2-1-1.7-1.2c0.8-1.5,0.9-3.5,0.9-5.2v-5.5h3.9v-5h2.2v5h3.8V29.9z M233.8,20.1
		c-0.2-0.9-0.9-2.3-1.6-3.3l1.8-0.8c0.7,1,1.5,2.3,1.8,3.2L233.8,20.1z M235.8,23c1.4,0.3,3.1,0.9,4,1.4l-0.9,1.5
		c-0.9-0.5-2.6-1.2-4-1.6L235.8,23z M243.2,16.5c-0.6,1.3-1.3,2.5-1.8,3.4l-1.9-0.7c0.5-0.9,1.2-2.4,1.6-3.4L243.2,16.5z"/>
	<path class="st4" d="M257.2,29.5c1.5,0.5,2.9,1,3.9,1.5l-1.6,1.3c-1.2-0.6-3.2-1.4-5.1-2.1l0.7-0.7h-4.4l1.3,0.6
		c-1.5,0.9-3.8,1.7-5.6,2.2c-0.3-0.4-1.1-1.2-1.5-1.5c1.6-0.3,3.4-0.7,4.7-1.2h-2.4v-5.3c-0.4,0.1-0.9,0.2-1.3,0.3
		c-0.2-0.5-0.7-1.3-1-1.7c2.1-0.3,3.4-0.7,4.2-1.3h-2.9c0.2-0.9,0.4-2.2,0.5-3.3h3.4v-0.7h-4.1v-1.3h4.1v-0.8h1.9v0.8h2v-0.8h2v0.8
		h3.8v3.2H256v0.8h5c0,0,0,0.3,0,0.6c-0.1,1.1-0.2,1.7-0.5,2.1c-0.3,0.3-0.6,0.4-1,0.4c-0.1,0-0.2,0-0.3,0v6.2H257.2z M248.2,20.2
		h1.7c0.1-0.3,0.1-0.5,0.1-0.8h-1.7L248.2,20.2z M249.2,23.8v0.7h7.7v-0.7H249.2z M249.2,25.6v0.7h7.7v-0.7H249.2z M249.2,28.3h7.7
		v-0.8h-7.7V28.3z M251.5,21.4c-0.2,0.4-0.5,0.8-0.8,1.1h3.3v-1.1H251.5z M254,19.4h-2c0,0.3,0,0.5-0.1,0.8h2.1V19.4z M252,18.2h2
		v-0.7h-2V18.2z M256,17.4v0.7h1.9v-0.7H256z M256,21.4v1.1h1.6c-0.1-0.2-0.1-0.4-0.3-0.6c0.4,0.1,0.8,0.1,1,0.1
		c0.2,0,0.3,0,0.4-0.1c0.1-0.1,0.1-0.2,0.1-0.5H256z"/>
	<path class="st4" d="M277.1,30.1c0.3,0,0.4-0.2,0.4-1.9c0.4,0.4,1.3,0.7,1.8,0.8c-0.2,2.4-0.7,3.1-2,3.1h-1.2c-1.6,0-2-0.6-2-2.5
		v-3.6h-0.9c-0.3,2.9-1,5.1-4,6.4c-0.2-0.5-0.8-1.3-1.2-1.7c2.5-1,3-2.6,3.1-4.7H270v-4.8c-0.1,0.1-0.3,0.3-0.4,0.4
		c-0.2-0.2-0.4-0.5-0.7-0.8v1.9H267v0.3c0.5,0.4,1.8,2.1,2.1,2.4l-1.2,1.7c-0.2-0.5-0.5-1.2-0.9-1.8v7.1h-1.9v-6.6
		c-0.5,1.5-1.1,2.9-1.8,3.8c-0.2-0.6-0.7-1.5-1-2.1c0.8-1.2,1.7-3.1,2.2-4.8h-1.9v-2h2.5v-2.2c-0.6,0.1-1.2,0.2-1.7,0.3
		c-0.1-0.5-0.4-1.2-0.6-1.7c1.8-0.3,3.9-0.9,5.2-1.5l1.2,1.7c-0.7,0.3-1.4,0.5-2.2,0.7v2.6h1.7c-0.2-0.2-0.5-0.4-0.6-0.6
		c1.4-1,2.7-2.6,3.5-4.2l2,0.6c-0.7,1.4-1.7,2.8-2.7,3.9h6.4c-0.8-1.2-2-2.6-3-3.7l1.5-1c1.4,1.4,3.1,3.4,3.8,4.7l-1.6,1.2
		c-0.1-0.1-0.2-0.3-0.3-0.5v5.1h-1.4v3.6c0,0.5,0,0.6,0.3,0.6H277.1z M272.1,24.1h3.5v-2h-3.5V24.1z"/>
	<path class="st4" d="M296.3,20.8c-0.5,2.7-1.2,4.9-2.2,6.8c1,1.2,2.1,2.2,3.4,2.9c-0.5,0.4-1.1,1.2-1.5,1.8
		c-1.2-0.7-2.3-1.7-3.2-2.8c-1,1.2-2.1,2.2-3.6,3c-0.3-0.5-0.9-1.4-1.4-1.7c1.5-0.8,2.8-1.7,3.7-3c-0.7-1.2-1.3-2.5-1.7-3.9
		c-0.3,0.5-0.6,0.9-0.9,1.3c-0.3-0.4-0.8-1.2-1.3-1.7v9h-2.1v-4.6c-2.9,1-3.5,1.3-3.9,1.7c-0.1-0.5-0.5-1.5-0.8-2
		c0.3-0.2,0.7-0.5,0.7-1.3v-8.7h2.1v8.8l1.9-0.6v-9.9h2.1v7.1c1.4-1.7,2.2-4.5,2.7-7.4l2.2,0.4c-0.2,1-0.4,2-0.6,3h5.5v2H296.3z
		 M291.3,20.8c-0.1,0.2-0.1,0.3-0.2,0.5c0.4,1.5,1,3,1.7,4.3c0.7-1.4,1.1-3,1.4-4.8H291.3z"/>
	<path class="st4" d="M302.1,32.3L302.1,32.3c2-1.8,3.6-4.8,3.6-8.5c0-3.7-1.6-6.7-3.6-8.4v-0.1h5.6v17H302.1z"/>
</g>
<g>
	<path class="st5" d="M461.3,59.2h2.2v-6.3h-1.9v-1.3c1-0.2,1.8-0.5,2.4-0.9h1.5v8.4h1.9v1.7h-6.2V59.2z"/>
	<path class="st5" d="M469,58.3c0-1.2,0.8-2,1.8-2.5v-0.1c-0.8-0.6-1.4-1.3-1.4-2.4c0-1.7,1.3-2.7,3.1-2.7c1.8,0,3,1.1,3,2.7
		c0,1-0.7,1.8-1.3,2.3v0.1c0.9,0.5,1.7,1.3,1.7,2.6c0,1.6-1.4,2.8-3.5,2.8C470.5,61,469,59.9,469,58.3z M474,58.2c0-1-1-1.4-2.3-1.9
		c-0.5,0.4-1,1.1-1,1.8c0,0.9,0.8,1.5,1.7,1.5C473.4,59.6,474,59.1,474,58.2z M473.9,53.4c0-0.8-0.5-1.4-1.4-1.4
		c-0.7,0-1.3,0.4-1.3,1.3c0,0.9,0.8,1.4,1.9,1.8C473.6,54.6,473.9,54,473.9,53.4z"/>
	<path class="st5" d="M477.2,55.7c0-3.4,1.4-5.2,3.5-5.2c2.1,0,3.5,1.8,3.5,5.2c0,3.4-1.4,5.3-3.5,5.3
		C478.6,61,477.2,59.2,477.2,55.7z M482.3,55.7c0-2.8-0.7-3.6-1.6-3.6s-1.6,0.8-1.6,3.6c0,2.8,0.7,3.7,1.6,3.7
		S482.3,58.6,482.3,55.7z"/>
	<path class="st5" d="M485.5,55.7c0-3.4,1.4-5.2,3.5-5.2c2.1,0,3.5,1.8,3.5,5.2c0,3.4-1.4,5.3-3.5,5.3
		C486.8,61,485.5,59.2,485.5,55.7z M490.5,55.7c0-2.8-0.7-3.6-1.6-3.6s-1.6,0.8-1.6,3.6c0,2.8,0.7,3.7,1.6,3.7
		S490.5,58.6,490.5,55.7z"/>
	<path class="st5" d="M461.3,99.2h2.2v-6.3h-1.9v-1.3c1-0.2,1.8-0.5,2.4-0.9h1.5v8.4h1.9v1.7h-6.2V99.2z"/>
	<path class="st5" d="M469,96.1c0-3.9,1.9-5.5,4-5.5c1.3,0,2.2,0.5,2.8,1.2l-1.1,1.2c-0.4-0.4-1-0.7-1.6-0.7c-1.2,0-2.2,0.9-2.3,3.5
		c0.6-0.7,1.5-1.1,2.1-1.1c1.7,0,3,1,3,3.1c0,2.1-1.5,3.4-3.3,3.4C470.8,101,469,99.5,469,96.1z M471,97.1c0.2,1.7,0.9,2.4,1.8,2.4
		c0.8,0,1.4-0.6,1.4-1.8c0-1.1-0.6-1.7-1.5-1.7C472.1,96,471.5,96.3,471,97.1z"/>
	<path class="st5" d="M477.2,95.7c0-3.4,1.4-5.2,3.5-5.2c2.1,0,3.5,1.8,3.5,5.2c0,3.4-1.4,5.3-3.5,5.3
		C478.6,101,477.2,99.2,477.2,95.7z M482.3,95.7c0-2.8-0.7-3.6-1.6-3.6s-1.6,0.8-1.6,3.6c0,2.8,0.7,3.7,1.6,3.7
		S482.3,98.6,482.3,95.7z"/>
	<path class="st5" d="M485.5,95.7c0-3.4,1.4-5.2,3.5-5.2c2.1,0,3.5,1.8,3.5,5.2c0,3.4-1.4,5.3-3.5,5.3
		C486.8,101,485.5,99.2,485.5,95.7z M490.5,95.7c0-2.8-0.7-3.6-1.6-3.6s-1.6,0.8-1.6,3.6c0,2.8,0.7,3.7,1.6,3.7
		S490.5,98.6,490.5,95.7z"/>
	<path class="st5" d="M461.3,139.2h2.2v-6.3h-1.9v-1.3c1-0.2,1.8-0.5,2.4-0.9h1.5v8.4h1.9v1.7h-6.2V139.2z"/>
	<path class="st5" d="M473.1,138.3h-4.4v-1.4l3.9-6.2h2.5v6h1.2v1.6H475v2.5h-1.9V138.3z M473.1,136.8v-2c0-0.6,0-1.6,0.1-2.2h-0.1
		c-0.3,0.5-0.5,1.1-0.8,1.6l-1.6,2.5H473.1z"/>
	<path class="st5" d="M477.2,135.7c0-3.4,1.4-5.2,3.5-5.2c2.1,0,3.5,1.8,3.5,5.2c0,3.4-1.4,5.3-3.5,5.3
		C478.6,141,477.2,139.2,477.2,135.7z M482.3,135.7c0-2.8-0.7-3.6-1.6-3.6s-1.6,0.8-1.6,3.6c0,2.8,0.7,3.7,1.6,3.7
		S482.3,138.6,482.3,135.7z"/>
	<path class="st5" d="M485.5,135.7c0-3.4,1.4-5.2,3.5-5.2c2.1,0,3.5,1.8,3.5,5.2c0,3.4-1.4,5.3-3.5,5.3
		C486.8,141,485.5,139.2,485.5,135.7z M490.5,135.7c0-2.8-0.7-3.6-1.6-3.6s-1.6,0.8-1.6,3.6c0,2.8,0.7,3.7,1.6,3.7
		S490.5,138.6,490.5,135.7z"/>
	<path class="st5" d="M461.3,179.2h2.2v-6.3h-1.9v-1.3c1-0.2,1.8-0.5,2.4-0.9h1.5v8.4h1.9v1.7h-6.2V179.2z"/>
	<path class="st5" d="M469,179.7c2.7-2.6,4.5-4.3,4.5-5.8c0-1-0.6-1.6-1.6-1.6c-0.8,0-1.4,0.5-1.9,1.1l-1.1-1.1c1-1,1.9-1.6,3.3-1.6
		c2,0,3.3,1.2,3.3,3.2c0,1.8-1.6,3.6-3.5,5.5c0.5-0.1,1.2-0.1,1.7-0.1h2.3v1.7H469V179.7z"/>
	<path class="st5" d="M477.2,175.7c0-3.4,1.4-5.2,3.5-5.2c2.1,0,3.5,1.8,3.5,5.2c0,3.4-1.4,5.3-3.5,5.3
		C478.6,181,477.2,179.2,477.2,175.7z M482.3,175.7c0-2.8-0.7-3.6-1.6-3.6s-1.6,0.8-1.6,3.6c0,2.8,0.7,3.7,1.6,3.7
		S482.3,178.6,482.3,175.7z"/>
	<path class="st5" d="M485.5,175.7c0-3.4,1.4-5.2,3.5-5.2c2.1,0,3.5,1.8,3.5,5.2c0,3.4-1.4,5.3-3.5,5.3
		C486.8,181,485.5,179.2,485.5,175.7z M490.5,175.7c0-2.8-0.7-3.6-1.6-3.6s-1.6,0.8-1.6,3.6c0,2.8,0.7,3.7,1.6,3.7
		S490.5,178.6,490.5,175.7z"/>
	<path class="st5" d="M461.3,219.2h2.2v-6.3h-1.9v-1.3c1-0.2,1.8-0.5,2.4-0.9h1.5v8.4h1.9v1.7h-6.2V219.2z"/>
	<path class="st5" d="M469,215.7c0-3.4,1.4-5.2,3.5-5.2c2.1,0,3.5,1.8,3.5,5.2c0,3.4-1.4,5.3-3.5,5.3C470.4,221,469,219.2,469,215.7
		z M474,215.7c0-2.8-0.7-3.6-1.6-3.6s-1.6,0.8-1.6,3.6c0,2.8,0.7,3.7,1.6,3.7S474,218.6,474,215.7z"/>
	<path class="st5" d="M477.2,215.7c0-3.4,1.4-5.2,3.5-5.2c2.1,0,3.5,1.8,3.5,5.2c0,3.4-1.4,5.3-3.5,5.3
		C478.6,221,477.2,219.2,477.2,215.7z M482.3,215.7c0-2.8-0.7-3.6-1.6-3.6s-1.6,0.8-1.6,3.6c0,2.8,0.7,3.7,1.6,3.7
		S482.3,218.6,482.3,215.7z"/>
	<path class="st5" d="M485.5,215.7c0-3.4,1.4-5.2,3.5-5.2c2.1,0,3.5,1.8,3.5,5.2c0,3.4-1.4,5.3-3.5,5.3
		C486.8,221,485.5,219.2,485.5,215.7z M490.5,215.7c0-2.8-0.7-3.6-1.6-3.6s-1.6,0.8-1.6,3.6c0,2.8,0.7,3.7,1.6,3.7
		S490.5,218.6,490.5,215.7z"/>
	<path class="st5" d="M469,258.3c0-1.2,0.8-2,1.8-2.5v-0.1c-0.8-0.6-1.4-1.3-1.4-2.4c0-1.7,1.3-2.7,3.1-2.7c1.8,0,3,1.1,3,2.7
		c0,1-0.7,1.8-1.3,2.3v0.1c0.9,0.5,1.7,1.3,1.7,2.6c0,1.6-1.4,2.8-3.5,2.8C470.5,261,469,259.9,469,258.3z M474,258.2
		c0-1-1-1.4-2.3-1.9c-0.5,0.4-1,1.1-1,1.8c0,0.9,0.8,1.5,1.7,1.5C473.4,259.6,474,259.1,474,258.2z M473.9,253.4
		c0-0.8-0.5-1.4-1.4-1.4c-0.7,0-1.3,0.4-1.3,1.3c0,0.9,0.8,1.4,1.9,1.8C473.6,254.6,473.9,254,473.9,253.4z"/>
	<path class="st5" d="M477.2,255.7c0-3.4,1.4-5.2,3.5-5.2c2.1,0,3.5,1.8,3.5,5.2c0,3.4-1.4,5.3-3.5,5.3
		C478.6,261,477.2,259.2,477.2,255.7z M482.3,255.7c0-2.8-0.7-3.6-1.6-3.6s-1.6,0.8-1.6,3.6c0,2.8,0.7,3.7,1.6,3.7
		S482.3,258.6,482.3,255.7z"/>
	<path class="st5" d="M485.5,255.7c0-3.4,1.4-5.2,3.5-5.2c2.1,0,3.5,1.8,3.5,5.2c0,3.4-1.4,5.3-3.5,5.3
		C486.8,261,485.5,259.2,485.5,255.7z M490.5,255.7c0-2.8-0.7-3.6-1.6-3.6s-1.6,0.8-1.6,3.6c0,2.8,0.7,3.7,1.6,3.7
		S490.5,258.6,490.5,255.7z"/>
	<path class="st5" d="M469,296.1c0-3.9,1.9-5.5,4-5.5c1.3,0,2.2,0.5,2.8,1.2l-1.1,1.2c-0.4-0.4-1-0.7-1.6-0.7
		c-1.2,0-2.2,0.9-2.3,3.5c0.6-0.7,1.5-1.1,2.1-1.1c1.7,0,3,1,3,3.1c0,2.1-1.5,3.4-3.3,3.4C470.8,301,469,299.5,469,296.1z
		 M471,297.1c0.2,1.7,0.9,2.4,1.8,2.4c0.8,0,1.4-0.6,1.4-1.8c0-1.1-0.6-1.7-1.5-1.7C472.1,296,471.5,296.3,471,297.1z"/>
	<path class="st5" d="M477.2,295.7c0-3.4,1.4-5.2,3.5-5.2c2.1,0,3.5,1.8,3.5,5.2c0,3.4-1.4,5.3-3.5,5.3
		C478.6,301,477.2,299.2,477.2,295.7z M482.3,295.7c0-2.8-0.7-3.6-1.6-3.6s-1.6,0.8-1.6,3.6c0,2.8,0.7,3.7,1.6,3.7
		S482.3,298.6,482.3,295.7z"/>
	<path class="st5" d="M485.5,295.7c0-3.4,1.4-5.2,3.5-5.2c2.1,0,3.5,1.8,3.5,5.2c0,3.4-1.4,5.3-3.5,5.3
		C486.8,301,485.5,299.2,485.5,295.7z M490.5,295.7c0-2.8-0.7-3.6-1.6-3.6s-1.6,0.8-1.6,3.6c0,2.8,0.7,3.7,1.6,3.7
		S490.5,298.6,490.5,295.7z"/>
	<path class="st5" d="M473.1,338.3h-4.4v-1.4l3.9-6.2h2.5v6h1.2v1.6H475v2.5h-1.9V338.3z M473.1,336.8v-2c0-0.6,0-1.6,0.1-2.2h-0.1
		c-0.3,0.5-0.5,1.1-0.8,1.6l-1.6,2.5H473.1z"/>
	<path class="st5" d="M477.2,335.7c0-3.4,1.4-5.2,3.5-5.2c2.1,0,3.5,1.8,3.5,5.2c0,3.4-1.4,5.3-3.5,5.3
		C478.6,341,477.2,339.2,477.2,335.7z M482.3,335.7c0-2.8-0.7-3.6-1.6-3.6s-1.6,0.8-1.6,3.6c0,2.8,0.7,3.7,1.6,3.7
		S482.3,338.6,482.3,335.7z"/>
	<path class="st5" d="M485.5,335.7c0-3.4,1.4-5.2,3.5-5.2c2.1,0,3.5,1.8,3.5,5.2c0,3.4-1.4,5.3-3.5,5.3
		C486.8,341,485.5,339.2,485.5,335.7z M490.5,335.7c0-2.8-0.7-3.6-1.6-3.6s-1.6,0.8-1.6,3.6c0,2.8,0.7,3.7,1.6,3.7
		S490.5,338.6,490.5,335.7z"/>
</g>
<line class="st1" x1="457.1" y1="57" x2="449.5" y2="57"/>
<line class="st1" x1="457.1" y1="38" x2="449.5" y2="38"/>
<line class="st1" x1="457.1" y1="96.4" x2="449.5" y2="96.4"/>
<line class="st1" x1="457.1" y1="134.8" x2="449.5" y2="134.8"/>
<line class="st1" x1="457.1" y1="175.1" x2="449.5" y2="175.1"/>
<line class="st1" x1="457.1" y1="215.5" x2="449.5" y2="215.5"/>
<line class="st1" x1="457.1" y1="256" x2="449.5" y2="256"/>
<line class="st1" x1="457.1" y1="296.3" x2="449.5" y2="296.3"/>
<line class="st1" x1="457.1" y1="336.8" x2="449.5" y2="336.8"/>
<line class="st1" x1="403.9" y1="371.7" x2="403.9" y2="364.2"/>
<line class="st1" x1="327.1" y1="371.5" x2="327.1" y2="363.9"/>
<line class="st1" x1="241.3" y1="371.7" x2="241.3" y2="364.2"/>
<line class="st1" x1="158.4" y1="370.7" x2="158.4" y2="363.2"/>
<line class="st1" x1="76.3" y1="372.5" x2="76.3" y2="364.9"/>
<line class="st1" x1="13.4" y1="371.7" x2="13.4" y2="364.2"/>
<line class="st2" x1="3.7" y1="363.8" x2="449" y2="363.8"/>
<line class="st1" x1="449" y1="363.8" x2="449" y2="36.8"/>
<g>
	<g>
		<polygon class="st3" points="188.8,189.2 169,154.9 225.7,124.2 245.6,158.5 		"/>
		<polygon class="st3" points="281.7,114.7 208.4,102.3 255.9,184.4 		"/>
	</g>
	<g>
		<path class="st4" d="M197.2,166c-0.4-0.3-1.1-0.8-1.7-1.2l3.5,6l-1.6,0.9l-3.2-5.5c0.3,1.4,0.4,2.8,0.4,4
			c-0.5-0.5-1.3-1.1-1.9-1.4c0.2-1.4-0.1-3.5-0.5-5.3l-1.7,1l-1-1.7l1.9-1.1l-1.1-1.9c-0.4,0.4-0.8,0.7-1.2,1.1
			c-0.3-0.4-0.9-0.9-1.3-1.2c1.2-1.1,2.5-2.5,3.2-3.6l1.8,1c-0.3,0.5-0.7,0.9-1.2,1.4l1.3,2.2l1.5-0.8l1,1.7l-1.5,0.8l0.3,0.5
			c0.6,0.2,2.4,0.9,2.9,1.1L197.2,166z M195.1,156.5c-0.4,0.2-0.8,0.5-1.2,0.7c-0.3-0.3-0.8-0.8-1.1-1c2.8-1.7,5.9-4,7.6-5.5
			l1.7,0.5c-0.5,0.5-1.1,1-1.8,1.6l1.4-0.3c0,0.5,0.1,1.1,0,1.7l1-0.6l0.7,1.1l-3.2,1.8l0.4,0.6l3.8-2.2l0.6,1.1l-9.1,5.3l-0.6-1.1
			l3.5-2l-0.4-0.6l-3.1,1.8l-0.7-1.1l0.8-0.4c-0.3-0.2-0.7-0.4-1-0.5L195.1,156.5z M197.7,154.8c-0.6,0.5-1.3,0.9-1.9,1.3
			c0.4,0.2,0.8,0.3,1.1,0.5l-0.6,0.8l1.9-1.1c-0.3-0.2-0.8-0.5-1.1-0.7L197.7,154.8z M207,161.1l-3.8,2.2c0.6,0.1,1.3,0.3,1.7,0.4
			l-0.5,1.5c-0.7-0.2-1.9-0.5-2.7-0.7l0.2-0.4l-3.1,1.8l-0.6-1l6.5-3.8l-0.3-0.6l-6.9,4l-0.6-1l6.9-4l-0.3-0.5l-6.5,3.7l-0.6-1
			l8.1-4.7l0.9,1.5l0.7-0.4l0.6,1l-0.7,0.4L207,161.1z M200.1,155.2c0.1-0.7,0.1-1.5,0-2.2c-0.6,0.5-1.3,1-2,1.5
			c0.4,0.2,0.9,0.5,1.2,0.7l-0.6,0.8L200.1,155.2z M199.4,169.6c0.1-1-0.1-2.3-0.4-3.3l1.7-0.2c0.2,1,0.5,2.3,0.5,3.3L199.4,169.6z
			 M208.5,165.1c-0.4-0.3-1-0.7-1.6-1.1c0.6,1.4,0.4,2-0.7,2.6l-1.9,1.1c-1.6,0.9-2.2,0.7-3-0.6l-0.9-1.6l1.6-0.9l0.9,1.6
			c0.2,0.4,0.3,0.4,0.8,0.1l1.5-0.8c0.3-0.2,0.4-0.4,0-1.1c0.4,0,1.2-0.1,1.7-0.3c-0.4-0.3-0.9-0.6-1.3-0.8l1-1.3
			c1,0.5,2.2,1.2,2.9,1.8L208.5,165.1z"/>
		<path class="st4" d="M209,153.1l-1.8,1.1l-2.3-3.9l5.8-3.3c-0.4-0.3-0.9-0.7-1.3-1l1.6-1.6c0.6,0.4,1.4,0.9,1.9,1.3l5.4-3.1
			l2.3,3.9l-1.9,1.1l-1.2-2.2l-9.6,5.5L209,153.1z M218.8,156.5c0.6-0.3,1.2-0.6,1.9-1c0.8-0.5,3.4-2,4.4-2.6c0,0.6,0.2,1.7,0.4,2.3
			l-3.9,2.2c-2.9,1.7-5.3,2.4-8.1,1c0.2,1.5,0.1,2.9-0.4,4.2c-0.5-0.2-1.7-0.4-2.2-0.4c1-2.2,0.5-4.9-0.8-7.7l2-0.9
			c0.3,0.7,0.5,1.4,0.8,2.1c1.2,1,2.4,1.3,3.5,1.3l-3.1-5.3l-3.3,1.9l-1-1.8l8.6-5l1,1.8l-3.3,1.9l1.1,1.8l4.3-2.5l1,1.7l-4.3,2.5
			L218.8,156.5z"/>
		<path class="st4" d="M236.5,137c0.5,2.4,0.7,4.7,0.4,6.9c1.1,0.9,2,1.2,2.5,0.9c0.4-0.2,0.1-1.1-0.9-3.1c0.7,0.2,1.6,0.2,2.2,0.1
			c1.4,3.1,1.1,4.1-0.3,4.9c-1.1,0.6-2.4,0.3-3.8-0.5c-0.3,1.3-0.8,2.5-1.4,3.6c-0.5-0.2-1.6-0.6-2.2-0.8c0.8-1.3,1.4-2.8,1.7-4.4
			c-1.5-1.5-3.2-3.4-4.7-5.7l-4.5,2.6l1,1.7l3.8-2.2c0,0,0.3,0.5,0.4,0.7c1.8,3.3,2.6,4.7,2.5,5.4c-0.1,0.6-0.3,0.9-0.7,1.2
			c-0.4,0.3-1,0.7-1.8,1.1c-0.3-0.5-1-1.1-1.5-1.4c0.6-0.3,1.1-0.6,1.4-0.7c0.2-0.1,0.3-0.2,0.4-0.5c0-0.3-0.3-1.1-1.4-3.1l-2,1.2
			c1.3,2.3,2.7,5.5,2.5,8.2c-0.5-0.2-1.8-0.4-2.3-0.4c0.1-2.6-1.4-5.3-2.5-7.4l-2.6-4.6l6.4-3.7c-0.5-0.7-0.9-1.5-1.4-2.3l1.9-1.1
			c0.4,0.8,0.9,1.5,1.4,2.3l2.4-1.4c-0.8-0.1-1.9-0.2-2.8-0.2l0.5-1.8c1.1-0.1,2.7,0,3.5,0.2l-0.3,1.2l1.6-0.9l1.1,1.8l-4.8,2.8
			c1,1.5,2.1,2.8,3.1,3.9c0-1.4-0.1-2.8-0.5-4.3L236.5,137z"/>
		<path class="st4" d="M255.7,131.9c-0.5,1.1-1.1,2.3-1.8,3.3c1.3,0,2.7-0.2,4.3-0.8c-0.2,0.6-0.3,1.7-0.2,2.3
			c-3.9,1.2-7.1,0.6-10.1-1.5l-2.2,1.3l1.9,3.3l3-2.7c0.2,0.6,0.6,1.4,0.8,1.7c-3.2,3-4,3.7-4.3,4.1l0,0.1c-0.4-0.4-1.3-1.1-1.8-1.4
			c0.2-0.4,0.5-1,0.1-1.7l-1.5-2.5l-2.3,1.3l-0.9-1.6l2.6-1.5l-4-6.9l9.8-5.7l0.9,1.5l-7.9,4.6l0.5,0.9l7.5-4.3l0.8,1.4l-7.5,4.3
			l0.5,0.8l7.5-4.3l0.8,1.4l-7.5,4.3l0.5,0.8l9.6-5.5l0.9,1.6l-1.7,1L255.7,131.9z M249.9,134.1c0.7,0.4,1.4,0.7,2.2,0.8
			c0.5-0.9,1.1-2,1.4-2.9L249.9,134.1z"/>
	</g>
</g>
</svg>
