<?xml version="1.0" encoding="utf-8"?>
<!-- Generator: Adobe Illustrator 25.4.8, SVG Export Plug-In . SVG Version: 6.00 Build 0)  -->
<svg version="1.1" id="圖層_1" xmlns="http://www.w3.org/2000/svg" xmlns:xlink="http://www.w3.org/1999/xlink" x="0px" y="0px"
	 viewBox="0 0 500 388.7" style="enable-background:new 0 0 500 388.7;" xml:space="preserve">
<style type="text/css">
	.st0{fill:none;stroke:#D3D3D3;stroke-miterlimit:10;}
	.st1{fill:#BE1E2D;}
	.st2{fill:#FD8000;}
	.st3{fill:none;stroke:#7F7F7F;stroke-width:2;stroke-miterlimit:10;}
	.st4{fill:#707070;}
	.st5{fill:#231815;}
</style>
<text transform="matrix(1 0 0 1 20.9943 517.881)" class="st4" style="font-family:'SourceHanSansTC-Bold-B5pc-H'; font-size:14px;">400.0</text>
<text transform="matrix(1 0 0 1 52.1943 557.881)" class="st4" style="font-family:'SourceHanSansTC-Bold-B5pc-H'; font-size:14px;">  </text>
<text transform="matrix(1 0 0 1 20.9943 597.881)" class="st4" style="font-family:'SourceHanSansTC-Bold-B5pc-H'; font-size:14px;">300.0</text>
<text transform="matrix(1 0 0 1 55.3943 637.881)" class="st4" style="font-family:'SourceHanSansTC-Bold-B5pc-H'; font-size:14px;"> </text>
<text transform="matrix(1 0 0 1 20.9943 677.881)" class="st4" style="font-family:'SourceHanSansTC-Bold-B5pc-H'; font-size:14px;">200.0</text>
<text transform="matrix(1 0 0 1 55.3943 717.881)" class="st4" style="font-family:'SourceHanSansTC-Bold-B5pc-H'; font-size:14px;"> </text>
<text transform="matrix(1 0 0 1 20.9943 757.881)" class="st4" style="font-family:'SourceHanSansTC-Bold-B5pc-H'; font-size:14px;">100.0</text>
<text transform="matrix(1 0 0 1 55.3943 797.881)" class="st4" style="font-family:'SourceHanSansTC-Bold-B5pc-H'; font-size:14px;"> </text>
<text transform="matrix(1 0 0 1 37.4943 837.881)" class="st4" style="font-family:'SourceHanSansTC-Bold-B5pc-H'; font-size:14px;">0.0</text>
<text transform="matrix(1 0 0 1 20 499.7179)" class="st5" style="font-family:'SourceHanSansTC-Regular-B5pc-H'; font-size:14px;">(百萬人)</text>
<g>
	
		<text transform="matrix(1 0 0 1 185.5031 504.5355)" class="st5" style="font-family:'SourceHanSansTC-Bold-B5pc-H'; font-size:18px;">【 中產階級規模 】</text>
</g>
<line class="st0" x1="67.5" y1="833.5" x2="67.5" y2="506.6"/>
<g>
	
		<text transform="matrix(1 0 0 1 82.5434 521.8843)" class="st4" style="font-family:'SourceHanSansTC-Bold-B5pc-H'; font-size:14px;">371.7</text>
	
		<text transform="matrix(1 0 0 1 77.0304 859.1366)" class="st1" style="font-family:'SourceHanSansTC-Bold-B5pc-H'; font-size:24px;">印度</text>
	<rect x="81.9" y="530.8" class="st1" width="38.5" height="302.7"/>
</g>
<g>
	
		<text transform="matrix(1 0 0 1 138.8643 577.0778)" class="st4" style="font-family:'SourceHanSansTC-Bold-B5pc-H'; font-size:14px;">304.4</text>
	
		<text transform="matrix(1 0 0 1 143.5047 853.1366)" class="st5" style="font-family:'SourceHanSansTC-Bold-B5pc-H'; font-size:14px;">中國</text>
	<rect x="138.3" y="585.4" class="st2" width="38.5" height="248.1"/>
</g>
<g>
	
		<text transform="matrix(1 0 0 1 202.0478 758.2704)" class="st4" style="font-family:'SourceHanSansTC-Bold-B5pc-H'; font-size:14px;">80.2</text>
	
		<text transform="matrix(1 0 0 1 202.6433 853.1366)" class="st5" style="font-family:'SourceHanSansTC-Bold-B5pc-H'; font-size:14px;">印尼</text>
	<rect x="197.4" y="767.7" class="st2" width="38.5" height="65.7"/>
</g>
<g>
	
		<text transform="matrix(1 0 0 1 259.8698 811.9169)" class="st4" style="font-family:'SourceHanSansTC-Bold-B5pc-H'; font-size:14px;">17.8</text>
	
		<text transform="matrix(1 0 0 1 260.5983 853.1366)" class="st5" style="font-family:'SourceHanSansTC-Bold-B5pc-H'; font-size:14px;">南韓</text>
	<rect x="255.5" y="819.3" class="st2" width="38.5" height="14.1"/>
</g>
<g>
	
		<text transform="matrix(1 0 0 1 316.1546 805.9167)" class="st4" style="font-family:'SourceHanSansTC-Bold-B5pc-H'; font-size:14px;">25.2</text>
	
		<text transform="matrix(1 0 0 1 317.0437 853.1366)" class="st5" style="font-family:'SourceHanSansTC-Bold-B5pc-H'; font-size:14px;">泰國</text>
	<rect x="311.4" y="813.5" class="st2" width="38.5" height="19.9"/>
</g>
<g>
	
		<text transform="matrix(1 0 0 1 375.8544 819.9169)" class="st4" style="font-family:'SourceHanSansTC-Bold-B5pc-H'; font-size:14px;">7.5</text>
	
		<text transform="matrix(1 0 0 1 371.9842 853.1366)" class="st5" style="font-family:'SourceHanSansTC-Bold-B5pc-H'; font-size:14px;">台灣</text>
	<rect x="367.1" y="826.4" class="st2" width="38.5" height="7.1"/>
</g>
<g>
	
		<text transform="matrix(1 0 0 1 430.7018 819.9169)" class="st4" style="font-family:'SourceHanSansTC-Bold-B5pc-H'; font-size:14px;">8.4</text>
	
		<text transform="matrix(1 0 0 1 413.5032 853.1366)" class="st5" style="font-family:'SourceHanSansTC-Bold-B5pc-H'; font-size:14px;">馬來西亞</text>
	<rect x="422.1" y="826.4" class="st2" width="38.5" height="7.1"/>
</g>
<line class="st3" x1="474.6" y1="833.1" x2="67.5" y2="833.1"/>
<g>
	<path class="st4" d="M25.7,40.3h-4.5v-1.4l3.9-6.2h2.5v6h1.2v1.6h-1.2v2.5h-1.9C25.7,42.8,25.7,40.3,25.7,40.3z M25.7,38.8v-2
		c0-0.6,0-1.6,0.1-2.2h-0.1c-0.3,0.5-0.5,1.1-0.8,1.6l-1.6,2.5L25.7,38.8L25.7,38.8z"/>
	<path class="st4" d="M29.8,37.8c0-3.4,1.4-5.2,3.5-5.2s3.5,1.8,3.5,5.2s-1.4,5.3-3.5,5.3C31.2,43,29.8,41.2,29.8,37.8z M34.9,37.8
		c0-2.8-0.7-3.6-1.6-3.6s-1.6,0.8-1.6,3.6s0.7,3.7,1.6,3.7S34.9,40.6,34.9,37.8z"/>
	<path class="st4" d="M38.1,37.8c0-3.4,1.4-5.2,3.5-5.2s3.5,1.8,3.5,5.2s-1.4,5.3-3.5,5.3C39.4,43,38.1,41.2,38.1,37.8z M43.1,37.8
		c0-2.8-0.7-3.6-1.6-3.6s-1.6,0.8-1.6,3.6s0.7,3.7,1.6,3.7S43.1,40.6,43.1,37.8z"/>
	<path class="st4" d="M46.7,41.7c0-0.8,0.5-1.3,1.3-1.3c0.7,0,1.3,0.6,1.3,1.3c0,0.8-0.5,1.3-1.3,1.3S46.7,42.5,46.7,41.7z"/>
	<path class="st4" d="M50.8,37.8c0-3.4,1.4-5.2,3.5-5.2s3.5,1.8,3.5,5.2s-1.4,5.3-3.5,5.3C52.2,43,50.8,41.2,50.8,37.8z M55.9,37.8
		c0-2.8-0.7-3.6-1.6-3.6s-1.6,0.8-1.6,3.6s0.7,3.7,1.6,3.7S55.9,40.6,55.9,37.8z"/>
	<path class="st4" d="M21.3,121.6l1-1.3c0.6,0.6,1.4,1.1,2.3,1.1c1.1,0,1.8-0.5,1.8-1.4c0-1-0.6-1.6-2.9-1.6v-1.5
		c1.9,0,2.5-0.6,2.5-1.5c0-0.8-0.5-1.2-1.4-1.2c-0.7,0-1.3,0.4-2,0.9l-1.1-1.3c0.9-0.8,1.9-1.3,3.1-1.3c2,0,3.4,1,3.4,2.7
		c0,1.1-0.6,1.8-1.7,2.3v0.1c1.2,0.3,2.1,1.2,2.1,2.5c0,1.8-1.7,2.9-3.6,2.9C23.1,123,22,122.4,21.3,121.6z"/>
	<path class="st4" d="M29.8,117.8c0-3.4,1.4-5.2,3.5-5.2s3.5,1.8,3.5,5.2c0,3.4-1.4,5.3-3.5,5.3C31.2,123,29.8,121.2,29.8,117.8z
		 M34.9,117.8c0-2.8-0.7-3.6-1.6-3.6s-1.6,0.8-1.6,3.6c0,2.8,0.7,3.7,1.6,3.7S34.9,120.6,34.9,117.8z"/>
	<path class="st4" d="M38.1,117.8c0-3.4,1.4-5.2,3.5-5.2s3.5,1.8,3.5,5.2c0,3.4-1.4,5.3-3.5,5.3C39.4,123,38.1,121.2,38.1,117.8z
		 M43.1,117.8c0-2.8-0.7-3.6-1.6-3.6s-1.6,0.8-1.6,3.6c0,2.8,0.7,3.7,1.6,3.7S43.1,120.6,43.1,117.8z"/>
	<path class="st4" d="M46.7,121.7c0-0.8,0.5-1.3,1.3-1.3c0.7,0,1.3,0.6,1.3,1.3c0,0.8-0.5,1.3-1.3,1.3S46.7,122.5,46.7,121.7z"/>
	<path class="st4" d="M50.8,117.8c0-3.4,1.4-5.2,3.5-5.2s3.5,1.8,3.5,5.2c0,3.4-1.4,5.3-3.5,5.3C52.2,123,50.8,121.2,50.8,117.8z
		 M55.9,117.8c0-2.8-0.7-3.6-1.6-3.6s-1.6,0.8-1.6,3.6c0,2.8,0.7,3.7,1.6,3.7S55.9,120.6,55.9,117.8z"/>
	<path class="st4" d="M21.5,201.7c2.7-2.6,4.5-4.3,4.5-5.8c0-1-0.6-1.6-1.6-1.6c-0.8,0-1.4,0.5-1.9,1.1l-1.1-1.1
		c1-1,1.9-1.6,3.3-1.6c2,0,3.3,1.2,3.3,3.2c0,1.8-1.6,3.6-3.5,5.5c0.5-0.1,1.2-0.1,1.7-0.1h2.3v1.7h-6.9v-1.3H21.5z"/>
	<path class="st4" d="M29.8,197.8c0-3.4,1.4-5.2,3.5-5.2s3.5,1.8,3.5,5.2c0,3.4-1.4,5.3-3.5,5.3C31.2,203,29.8,201.2,29.8,197.8z
		 M34.9,197.8c0-2.8-0.7-3.6-1.6-3.6s-1.6,0.8-1.6,3.6c0,2.8,0.7,3.7,1.6,3.7S34.9,200.6,34.9,197.8z"/>
	<path class="st4" d="M38.1,197.8c0-3.4,1.4-5.2,3.5-5.2s3.5,1.8,3.5,5.2c0,3.4-1.4,5.3-3.5,5.3C39.4,203,38.1,201.2,38.1,197.8z
		 M43.1,197.8c0-2.8-0.7-3.6-1.6-3.6s-1.6,0.8-1.6,3.6c0,2.8,0.7,3.7,1.6,3.7S43.1,200.6,43.1,197.8z"/>
	<path class="st4" d="M46.7,201.7c0-0.8,0.5-1.3,1.3-1.3c0.7,0,1.3,0.6,1.3,1.3c0,0.8-0.5,1.3-1.3,1.3S46.7,202.5,46.7,201.7z"/>
	<path class="st4" d="M50.8,197.8c0-3.4,1.4-5.2,3.5-5.2s3.5,1.8,3.5,5.2c0,3.4-1.4,5.3-3.5,5.3C52.2,203,50.8,201.2,50.8,197.8z
		 M55.9,197.8c0-2.8-0.7-3.6-1.6-3.6s-1.6,0.8-1.6,3.6c0,2.8,0.7,3.7,1.6,3.7S55.9,200.6,55.9,197.8z"/>
	<path class="st4" d="M22.1,281.2h2.2v-6.3h-1.9v-1.3c1-0.2,1.8-0.5,2.4-0.9h1.5v8.4h1.9v1.7H22v-1.6H22.1z"/>
	<path class="st4" d="M29.8,277.8c0-3.4,1.4-5.2,3.5-5.2s3.5,1.8,3.5,5.2c0,3.4-1.4,5.3-3.5,5.3C31.2,283,29.8,281.2,29.8,277.8z
		 M34.9,277.8c0-2.8-0.7-3.6-1.6-3.6s-1.6,0.8-1.6,3.6c0,2.8,0.7,3.7,1.6,3.7S34.9,280.6,34.9,277.8z"/>
	<path class="st4" d="M38.1,277.8c0-3.4,1.4-5.2,3.5-5.2s3.5,1.8,3.5,5.2c0,3.4-1.4,5.3-3.5,5.3C39.4,283,38.1,281.2,38.1,277.8z
		 M43.1,277.8c0-2.8-0.7-3.6-1.6-3.6s-1.6,0.8-1.6,3.6c0,2.8,0.7,3.7,1.6,3.7S43.1,280.6,43.1,277.8z"/>
	<path class="st4" d="M46.7,281.7c0-0.8,0.5-1.3,1.3-1.3c0.7,0,1.3,0.6,1.3,1.3c0,0.8-0.5,1.3-1.3,1.3S46.7,282.5,46.7,281.7z"/>
	<path class="st4" d="M50.8,277.8c0-3.4,1.4-5.2,3.5-5.2s3.5,1.8,3.5,5.2c0,3.4-1.4,5.3-3.5,5.3C52.2,283,50.8,281.2,50.8,277.8z
		 M55.9,277.8c0-2.8-0.7-3.6-1.6-3.6s-1.6,0.8-1.6,3.6c0,2.8,0.7,3.7,1.6,3.7S55.9,280.6,55.9,277.8z"/>
	<path class="st4" d="M38.1,357.8c0-3.4,1.4-5.2,3.5-5.2s3.5,1.8,3.5,5.2s-1.4,5.3-3.5,5.3C39.4,363,38.1,361.2,38.1,357.8z
		 M43.1,357.8c0-2.8-0.7-3.6-1.6-3.6s-1.6,0.8-1.6,3.6s0.7,3.7,1.6,3.7S43.1,360.6,43.1,357.8z"/>
	<path class="st4" d="M46.7,361.7c0-0.8,0.5-1.3,1.3-1.3c0.7,0,1.3,0.6,1.3,1.3c0,0.8-0.5,1.3-1.3,1.3S46.7,362.5,46.7,361.7z"/>
	<path class="st4" d="M50.8,357.8c0-3.4,1.4-5.2,3.5-5.2s3.5,1.8,3.5,5.2s-1.4,5.3-3.5,5.3C52.2,363,50.8,361.2,50.8,357.8z
		 M55.9,357.8c0-2.8-0.7-3.6-1.6-3.6s-1.6,0.8-1.6,3.6s0.7,3.7,1.6,3.7S55.9,360.6,55.9,357.8z"/>
</g>
<g>
	<path class="st5" d="M21.2,21.3c0-2.7,0.8-5,2.1-7.1l0.8,0.4c-1.2,2-1.8,4.4-1.8,6.7c0,2.4,0.6,4.7,1.8,6.7l-0.8,0.4
		C22,26.3,21.2,24.1,21.2,21.3z"/>
	<path class="st5" d="M32.2,15.7c-0.2,0.7-0.4,1.4-0.5,2.1h4.7v9h-1.1v-0.9h-7v0.9h-1v-9h3.4c0.1-0.6,0.3-1.4,0.4-2.1h-5.4v-1h12.1
		v1H32.2z M35.3,18.8h-7v2.5h7V18.8z M35.3,24.9v-2.6h-7v2.6H35.3z"/>
	<path class="st5" d="M42.7,15.7h-3.1v-0.9h3.1v-0.9h1v0.9h1.7v0.9h-1.7v0.9h-1V15.7z M51.2,25.7c0,0.5-0.1,0.7-0.4,0.9
		c-0.4,0.2-0.9,0.2-1.8,0.2c-0.1-0.3-0.2-0.6-0.3-0.9c0.7,0,1.2,0,1.3,0c0.2,0,0.2-0.1,0.2-0.2v-2.9h-4v1.5l1.8-0.1
		c-0.2-0.3-0.4-0.6-0.6-0.9l0.8-0.3c0.6,0.8,1.2,1.8,1.4,2.5l-0.8,0.3c-0.1-0.3-0.2-0.5-0.3-0.8c-2.3,0.2-4.6,0.3-6.1,0.3l-0.1-0.9
		c0.8,0,1.9-0.1,3-0.1v-1.5h-3.9v4h-1v-4h-0.6v-0.9h0.6v-0.5h1v0.5h3.8V21h-4v-4.2h9.1V21h-4.1v0.9h5V25.7z M42.1,18.5h3v-1h-3V18.5
		z M45.2,20.3v-1h-3v1H45.2z M51.8,14.8v0.9h-3.2v0.9h-1v-0.9H46v-0.9h1.6v-0.9h1v0.9H51.8z M49.2,17.5h-3v1h3V17.5z M49.2,19.3h-3
		v1h3V19.3z"/>
	<path class="st5" d="M60.2,14c0,0.5,0,1.2-0.1,2c0.2,1.7,1.1,7.5,6,9.7c-0.3,0.2-0.6,0.6-0.8,0.9c-3.5-1.6-5-5.1-5.7-7.7
		c-0.6,2.8-2.1,5.9-5.5,7.8c-0.2-0.3-0.5-0.6-0.8-0.8C59.1,23,59,16.2,59.1,14H60.2z"/>
	<path class="st5" d="M67.3,28.1c1.2-2,1.8-4.4,1.8-6.7c0-2.4-0.6-4.7-1.8-6.7l0.8-0.4c1.3,2.1,2.1,4.4,2.1,7.1c0,2.8-0.8,5-2.1,7.1
		L67.3,28.1z"/>
</g>
<g>
	<g>
		<path class="st5" d="M208.8,23.7c0,3.7,1.6,6.7,3.6,8.4v0.1h-5.6v-17h5.6v0.1C210.4,16.9,208.8,20,208.8,23.7z"/>
		<path class="st5" d="M233,18.4v9h-2.3v-0.9h-4.1v5.6h-2.3v-5.6h-4.1v1h-2v-9.1h6.2v-3.1h2.3v3.1H233z M224.4,24.3v-3.9h-4.1v3.9
			H224.4z M230.7,24.3v-3.9h-4.1v3.9H230.7z"/>
		<path class="st5" d="M252,29.9v1.7h-13.2v-1.7h5.5v-1h-3.8v-1.3c-0.3,0.4-0.7,0.8-1,1.1c-0.1-0.4-0.5-1.3-0.8-1.8
			c-0.2,1.9-0.7,3.9-1.9,5.4c-0.3-0.4-1.2-1.2-1.7-1.4c1.5-1.8,1.6-4.4,1.6-6.2v-3.2h2.4c-0.3-0.3-0.6-0.6-0.9-0.8
			c1.3-0.2,2.7-0.5,4.1-0.8c-1.1-0.3-2.3-0.5-3.4-0.7l1-0.8h-3.1v-1.7h6.3c-0.2-0.3-0.5-0.7-0.7-0.9l1.4-0.7
			c0.4,0.5,0.9,1.1,1.2,1.6h6.2v1.7h-2.6l0.9,0.5c-0.6,0.3-1.4,0.6-2.2,0.9c1.1,0.3,2,0.6,2.8,0.8l-1,0.8h2.6v1.7h-13.1v1.5
			c0,0.6,0,1.2-0.1,1.9c0.9-0.8,1.6-2,2.1-3.2l1.8,0.5c-0.1,0.2-0.2,0.5-0.3,0.7h2.1v-1.1h2.1v1.1h4.4v1.7h-4.4v0.9h3.9v1.6h-3.9v1
			h5.7V29.9z M244.2,27.2v-0.9h-2.9c-0.2,0.3-0.4,0.6-0.6,0.9H244.2z M247.9,21.5c-0.9-0.3-2-0.6-3.1-0.9c-1.3,0.3-2.6,0.6-3.9,0.9
			H247.9z M241.4,18.4c1.1,0.3,2.3,0.5,3.5,0.8c0.9-0.2,1.7-0.5,2.4-0.8H241.4z"/>
		<path class="st5" d="M259.4,16.7c-0.5,1.5-1.2,3.3-1.7,4.7c1.2,1.4,1.4,2.7,1.4,3.8c0,1.2-0.3,1.9-0.8,2.4c-0.3,0.2-0.6,0.3-1,0.4
			c-0.3,0-0.7,0.1-1.1,0c0-0.5-0.2-1.3-0.5-1.8c0.3,0,0.6,0,0.8,0c0.2,0,0.4,0,0.5-0.1c0.2-0.2,0.3-0.6,0.3-1.1c0-0.9-0.3-2-1.4-3.3
			c0.4-1.1,0.8-2.5,1.1-3.7h-1.4v14.2h-1.9V16.1h4L258,16L259.4,16.7z M263.9,20.8c0,0.5,0.1,1.2,0.3,1.7c-3.5,0.8-4.1,1.1-4.6,1.3
			c-0.1-0.6-0.3-1.5-0.6-2c0.3-0.1,0.6-0.3,0.6-0.9v-5.5h2.1v2.1h2.2v1.8h-2.2v2L263.9,20.8z M265.4,23.4c-0.2,0.3-0.5,0.7-0.7,1
			h4.2V32h-2.2v-0.5h-4.6v0.6H260v-7.7h2.6c0.2-0.5,0.4-1,0.5-1.5L265.4,23.4z M266.7,26.1h-4.6v1.1h4.6V26.1z M266.7,29.9v-1.2
			h-4.6v1.2H266.7z M267.8,21.6c0.3,0,0.4-0.3,0.4-1.7c0.4,0.3,1.2,0.6,1.8,0.8c-0.2,2.1-0.7,2.8-2,2.8h-1.5c-1.7,0-2.1-0.6-2.1-2.4
			v-5.6h2.1v2.1h2.9v1.8h-2.9v1.7c0,0.5,0.1,0.6,0.4,0.6h0.9V21.6z"/>
		<path class="st5" d="M273.6,27.4c-0.1,1.6-0.4,3.3-0.8,4.4c-0.4-0.2-1.2-0.5-1.6-0.6c0.4-1.1,0.6-2.7,0.7-4.1L273.6,27.4z
			 M271.2,20.5c0.4-0.1,0.7-0.4,1-1c0.4-0.5,1.5-2.5,2.1-4.3l2,0.8c-0.6,1.5-1.5,3-2.4,4.3l1.3-0.1c0.5-0.8,0.9-1.6,1.3-2.4l1.8,1.1
			c-1,1.8-2.4,3.7-3.7,5.2l1.9-0.3c-0.2-0.4-0.3-0.8-0.5-1.2l1.4-0.5c0.6,1.1,1.1,2.6,1.3,3.6l-1.6,0.6c0-0.3-0.1-0.6-0.2-0.9
			c-3.8,0.7-4.5,0.8-4.9,1.1c-0.1-0.4-0.4-1.4-0.7-1.9c0.5-0.1,0.9-0.5,1.5-1.2c0.2-0.3,0.7-0.8,1.2-1.5c-1.4,0.2-1.8,0.3-2.1,0.4
			C271.8,22,271.5,21,271.2,20.5z M275.5,27c0.2,1.2,0.4,2.6,0.5,3.6l-1.5,0.4c0-1-0.2-2.5-0.4-3.6L275.5,27z M287.6,21.4
			c-0.5,2.7-1.3,5-2.4,6.8c0.8,0.8,1.7,1.5,2.8,2c-0.5,0.4-1.1,1.2-1.4,1.8c-1-0.5-1.9-1.2-2.6-2.1c-0.8,0.9-1.6,1.6-2.6,2.2
			c-0.3-0.5-0.9-1.2-1.4-1.6c1-0.5,1.9-1.3,2.6-2.3c-0.5-0.9-1-2-1.4-3.1c-0.4,2.7-1,5.1-2.2,6.9c-0.3-0.3-1.3-1.1-1.8-1.3
			c0.3-0.4,0.5-0.8,0.8-1.3l-1.2,0.5c-0.1-0.8-0.5-2-0.8-2.9l1.4-0.5c0.3,0.8,0.6,1.8,0.8,2.6c1.2-2.8,1.5-6.6,1.5-11h-1.5v-2h6.1
			l0.3-0.1l1.5,0.2c-0.2,1.5-0.5,3.4-0.8,4.9h0.7l0.3-0.1L287.6,21.4z M281.7,18c0,1-0.1,2.1-0.1,3h1.6c0.2-1,0.4-2.1,0.5-3H281.7z
			 M282.5,23c0.3,1.2,0.8,2.4,1.4,3.4c0.6-1,1-2.2,1.3-3.4H282.5z"/>
		<path class="st5" d="M295.2,29.4c-0.4-0.7-1.1-1.7-1.8-2.6c-0.5,1.9-1.3,3.7-2.9,5.1c-0.3-0.5-1-1.2-1.5-1.5
			c2-1.5,2.6-3.9,2.8-6.2h-2.5v-2h2.6v-0.3v-2h-2.3V18h2.3v-2.6h2V18h2.3v1.9h-2.3v2v0.3h2.5v1.9h-2.6v0.4c0.8,0.8,2.5,2.8,2.9,3.3
			L295.2,29.4z M304,29.9c0.3,0,0.4-0.2,0.4-2.1c0.4,0.3,1.2,0.6,1.8,0.8c-0.2,2.6-0.7,3.2-1.9,3.2h-1.2c-1.6,0-1.9-0.6-1.9-2.4
			v-3.2h-1c-0.3,2.6-1.1,4.7-4.3,5.9c-0.2-0.5-0.8-1.2-1.2-1.6c2.6-0.9,3.2-2.4,3.4-4.3h-1.2V15.9h8v10.3H303v3.1
			c0,0.5,0,0.5,0.3,0.5L304,29.9L304,29.9z M299,18.8h3.9v-1.1H299V18.8z M299,21.6h3.9v-1.1H299V21.6z M299,24.3h3.9v-1.1H299V24.3
			z"/>
		<path class="st5" d="M312.3,25.9c-0.2-0.6-0.5-1.4-0.9-2.2V32h-1.9v-6.8c-0.4,1.4-0.9,2.6-1.5,3.5c-0.2-0.6-0.7-1.6-1-2.2
			c1-1.4,1.9-3.9,2.4-5.9h-2v-2h2.1v-3.4h1.9v3.3h1.8v2h-1.8v0.3c0.5,0.7,1.9,3,2.2,3.5L312.3,25.9z M319.9,28.3
			c1.4,0.7,3.3,1.6,4.2,2.2l-1.3,1.5c-1-0.7-3-1.8-4.5-2.5l1.1-1.2h-0.6c-0.7,1.8-2.2,3-5.4,3.8c-0.2-0.5-0.7-1.3-1.1-1.7
			c2.3-0.4,3.4-1.1,4.1-2.1h-3.5v-1.8h4.2c0.1-0.3,0.1-0.7,0.1-1h-3.4v-5.9h9v5.9h-3.4c0,0.4-0.1,0.7-0.1,1h4.4v1.8H319.9z
			 M314.9,18.3h-1.8v-1.7h1.8v-1.3h1.9v1.3h1.3v1.7h-1.3v1h-1.9V18.3z M315.8,21.8h4.9V21h-4.9V21.8z M315.8,24h4.9v-0.8h-4.9V24z
			 M319.8,18.2h-1.3v-1.7h1.3v-1.2h1.9v1.2h2.1v1.7h-2.1v1h-1.9V18.2z"/>
		<path class="st5" d="M328.7,32.2L328.7,32.2c2-1.8,3.6-4.8,3.6-8.5s-1.6-6.7-3.6-8.4v-0.1h5.6v17H328.7z"/>
	</g>
</g>
<line class="st0" x1="67.5" y1="358.5" x2="67.5" y2="31.6"/>
<g>
	<g>
		<path class="st4" d="M82.9,45.6l1-1.3c0.6,0.6,1.4,1.1,2.3,1.1c1.1,0,1.8-0.5,1.8-1.4c0-1-0.6-1.6-2.9-1.6v-1.5
			c1.9,0,2.5-0.6,2.5-1.5c0-0.8-0.5-1.2-1.4-1.2c-0.7,0-1.3,0.4-2,0.9l-1.1-1.3c0.9-0.8,1.9-1.3,3.1-1.3c2,0,3.4,1,3.4,2.7
			c0,1.1-0.6,1.8-1.7,2.3v0.1c1.2,0.3,2.1,1.2,2.1,2.5c0,1.8-1.7,2.9-3.6,2.9C84.7,47,83.6,46.4,82.9,45.6z"/>
		<path class="st4" d="M96.1,38.5h-4.7v-1.7h6.9v1.3c-2.4,2.9-2.7,4.9-2.9,8.8h-2.1C93.5,43.4,94.2,41.2,96.1,38.5z"/>
		<path class="st4" d="M100.1,45.2h2.2v-6.3h-1.9v-1.3c1-0.2,1.8-0.5,2.4-0.9h1.5v8.4h1.9v1.7H100L100.1,45.2L100.1,45.2z"/>
		<path class="st4" d="M108.2,45.7c0-0.8,0.5-1.3,1.3-1.3c0.7,0,1.3,0.6,1.3,1.3c0,0.8-0.5,1.3-1.3,1.3
			C108.8,47,108.2,46.5,108.2,45.7z"/>
		<path class="st4" d="M117.1,38.5h-4.7v-1.7h6.9v1.3c-2.4,2.9-2.7,4.9-2.9,8.8h-2.1C114.6,43.4,115.2,41.2,117.1,38.5z"/>
	</g>
	<g>
		<path class="st1" d="M82.1,379.8c1.9-0.6,4-1.2,6-1.8l0.4,2.5c-3.3,1.2-6.9,2.4-9.7,3.2l-0.6-2.8l1.1-0.3v-14
			c2.5-0.6,5.2-1.4,7-2.3l2.2,2.3c-1.9,0.7-4.2,1.3-6.3,1.8v3.4h6v2.8h-6L82.1,379.8L82.1,379.8z M99.3,379.5c0,1.4-0.3,2.3-1.2,2.8
			c-0.9,0.5-2.1,0.6-3.7,0.6c-0.1-0.8-0.6-2.2-1.1-3c1.1,0,2.3,0,2.6,0c0.4,0,0.5-0.1,0.5-0.5v-11.2h-4.2v17.9h-2.9v-20.7h10V379.5z
			"/>
		<path class="st1" d="M106.6,372.2c0,4-0.3,10-2.3,13.9c-0.6-0.4-1.9-1-2.6-1.2c1.9-3.7,2.1-9,2.1-12.7v-6.4h9
			c-0.2-0.6-0.4-1.1-0.6-1.6l2.9-0.6c0.3,0.7,0.7,1.5,0.9,2.2h7.9v2.7h-17.3C106.6,368.5,106.6,372.2,106.6,372.2z M122.4,378.4
			c-1,1.9-2.4,3.3-4.2,4.4c1.8,0.4,3.8,0.7,6,0.9c-0.6,0.6-1.3,1.8-1.6,2.5c-2.9-0.3-5.5-0.8-7.8-1.8c-2.3,0.8-4.9,1.3-7.6,1.6
			c-0.2-0.7-0.7-1.8-1.2-2.4c2-0.2,3.9-0.4,5.7-0.8c-1.1-0.7-2.1-1.6-2.9-2.6l1-0.4h-2.6v-2.2h12.9l0.5-0.1L122.4,378.4z
			 M110.3,376.6v-3.7h-3.2v-2.2h3.2v-1.6h2.7v1.6h4.4v-1.6h2.8v1.6h3.5v2.2h-3.5v3.7H110.3z M111.8,379.8c0.8,0.8,1.9,1.4,3.2,1.9
			c1.2-0.5,2.3-1.2,3.2-1.9H111.8z M113,372.9v1.6h4.4v-1.6H113z"/>
	</g>
	<rect x="81.9" y="55.8" class="st1" width="38.5" height="302.7"/>
</g>
<g>
	<g>
		<path class="st4" d="M139.2,100.8l1-1.3c0.6,0.6,1.4,1.1,2.3,1.1c1.1,0,1.8-0.5,1.8-1.4c0-1-0.6-1.6-2.9-1.6v-1.5
			c1.9,0,2.5-0.6,2.5-1.5c0-0.8-0.5-1.2-1.4-1.2c-0.7,0-1.3,0.4-2,0.9l-1.1-1.3c0.9-0.8,1.9-1.3,3.1-1.3c2,0,3.4,1,3.4,2.7
			c0,1.1-0.6,1.8-1.7,2.3v0.1c1.2,0.3,2.1,1.2,2.1,2.5c0,1.8-1.7,2.9-3.6,2.9C141,102.2,139.9,101.6,139.2,100.8z"/>
		<path class="st4" d="M147.7,96.9c0-3.4,1.4-5.2,3.5-5.2s3.5,1.8,3.5,5.2s-1.4,5.3-3.5,5.3S147.7,100.4,147.7,96.9z M152.8,96.9
			c0-2.8-0.7-3.6-1.6-3.6s-1.6,0.8-1.6,3.6c0,2.8,0.7,3.7,1.6,3.7S152.8,99.8,152.8,96.9z"/>
		<path class="st4" d="M160,99.5h-4.4v-1.4l3.9-6.2h2.5v6h1.2v1.6H162v2.5h-1.9v-2.5H160z M160,98v-2c0-0.6,0-1.6,0.1-2.2H160
			c-0.3,0.5-0.5,1.1-0.8,1.6l-1.6,2.5h2.4V98z"/>
		<path class="st4" d="M164.5,100.9c0-0.8,0.5-1.3,1.3-1.3c0.7,0,1.3,0.6,1.3,1.3c0,0.8-0.5,1.3-1.3,1.3
			C165.1,102.2,164.5,101.7,164.5,100.9z"/>
		<path class="st4" d="M172.8,99.5h-4.4v-1.4l3.9-6.2h2.5v6h1.2v1.6h-1.2v2.5h-1.9v-2.5H172.8z M172.8,98v-2c0-0.6,0-1.6,0.1-2.2
			h-0.1c-0.3,0.5-0.5,1.1-0.8,1.6l-1.6,2.5h2.4V98z"/>
	</g>
	<g>
		<path class="st5" d="M156.2,368.7v7h-1.8V375h-3.2v4.4h-1.8V375h-3.2v0.8h-1.7v-7.1h4.8v-2.5h1.8v2.4L156.2,368.7L156.2,368.7z
			 M149.6,373.3v-3h-3.2v3H149.6z M154.5,373.3v-3h-3.2v3H154.5z"/>
		<path class="st5" d="M170.4,366.8v12.5h-1.7v-0.6H160v0.6h-1.6v-12.5H170.4z M168.8,377.3v-9h-1.7c0.4,0.2,0.9,0.5,1.1,0.8
			l-0.6,0.6h0.7v1.2h-2.5c0.1,0.8,0.2,1.5,0.3,2.1c0.3-0.5,0.5-1.1,0.7-1.8l1.3,0.3c-0.3,1.2-0.8,2.3-1.5,3.2
			c0.2,0.4,0.4,0.7,0.6,0.8c0.2,0,0.3-0.5,0.3-1.3c0.3,0.3,0.8,0.6,1,0.8c-0.2,1.7-1,2.3-1.9,1.8c-0.4-0.1-0.8-0.5-1.1-0.9
			c-0.4,0.4-0.9,0.9-1.5,1.2c-0.2-0.3-0.6-0.8-0.9-1c0.2-0.1,0.3-0.2,0.5-0.3c-1.1,0.2-2.2,0.3-3.2,0.5l-0.2-1.2
			c1-0.1,2.5-0.3,3.9-0.5v0.7c0.3-0.2,0.5-0.5,0.7-0.7c-0.3-1-0.5-2.3-0.6-3.7h-3.9v-1.2h3.8c0-0.4,0-0.8-0.1-1.2h1.4
			c0,0.4,0,0.8,0.1,1.2h1.5c-0.3-0.3-0.7-0.5-1.1-0.7l0.6-0.6h-6.8v9L168.8,377.3L168.8,377.3z M164.1,374.2H161v-2.7h3.1V374.2z
			 M162.9,372.4H162v0.9h0.9V372.4z"/>
	</g>
	<rect x="138.3" y="110.4" class="st2" width="38.5" height="248.1"/>
</g>
<g>
	<g>
		<path class="st4" d="M202.7,280.7c0-1.2,0.8-2,1.8-2.5v-0.1c-0.8-0.6-1.4-1.3-1.4-2.4c0-1.7,1.3-2.7,3.1-2.7s3,1.1,3,2.7
			c0,1-0.7,1.8-1.3,2.3v0.1c0.9,0.5,1.7,1.3,1.7,2.6c0,1.6-1.4,2.8-3.5,2.8C204.1,283.4,202.7,282.3,202.7,280.7z M207.7,280.6
			c0-1-1-1.4-2.3-1.9c-0.5,0.4-1,1.1-1,1.8c0,0.9,0.8,1.5,1.7,1.5C207.1,282,207.7,281.5,207.7,280.6z M207.5,275.8
			c0-0.8-0.5-1.4-1.4-1.4c-0.7,0-1.3,0.4-1.3,1.3s0.8,1.4,1.9,1.8C207.3,276.9,207.5,276.4,207.5,275.8z"/>
		<path class="st4" d="M210.9,278.1c0-3.4,1.4-5.2,3.5-5.2s3.5,1.8,3.5,5.2c0,3.4-1.4,5.3-3.5,5.3
			C212.2,283.4,210.9,281.6,210.9,278.1z M215.9,278.1c0-2.8-0.7-3.6-1.6-3.6s-1.6,0.8-1.6,3.6c0,2.8,0.7,3.7,1.6,3.7
			S215.9,281,215.9,278.1z"/>
		<path class="st4" d="M219.5,282.1c0-0.8,0.5-1.3,1.3-1.3c0.7,0,1.3,0.6,1.3,1.3c0,0.8-0.5,1.3-1.3,1.3
			C220,283.4,219.5,282.8,219.5,282.1z"/>
		<path class="st4" d="M223.6,282c2.7-2.6,4.5-4.3,4.5-5.8c0-1-0.6-1.6-1.6-1.6c-0.8,0-1.4,0.5-1.9,1.1l-1.1-1.1
			c1-1,1.9-1.6,3.3-1.6c2,0,3.3,1.2,3.3,3.2c0,1.8-1.6,3.6-3.5,5.5c0.5-0.1,1.2-0.1,1.7-0.1h2.3v1.7h-6.9V282H223.6z"/>
	</g>
	<g>
		<path class="st5" d="M205.6,375.6c1.1-0.3,2.3-0.7,3.5-1.1l0.2,1.4c-1.9,0.7-4,1.4-5.6,1.9l-0.4-1.7l0.6-0.2v-8.2
			c1.4-0.3,3-0.8,4.1-1.3l1.3,1.3c-1.1,0.4-2.4,0.8-3.7,1.1v2h3.5v1.6h-3.5L205.6,375.6L205.6,375.6z M215.6,375.4
			c0,0.8-0.2,1.3-0.7,1.6s-1.2,0.3-2.2,0.3c-0.1-0.5-0.4-1.3-0.6-1.8c0.6,0,1.3,0,1.5,0s0.3-0.1,0.3-0.3v-6.5h-2.5v10.4h-1.7v-11.9
			h5.8L215.6,375.4L215.6,375.4z"/>
		<path class="st5" d="M220.3,371.5c0,2.4-0.3,5.7-1.8,7.9c-0.3-0.3-1.1-0.7-1.5-0.9c1.4-2.2,1.6-5.3,1.6-7.6v-4h10.3v4.6H220.3z
			 M220.3,368.4v1.6h6.9v-1.6H220.3z M227.3,377.5c0.8,0,1-0.3,1.1-1.7c0.4,0.3,1.1,0.5,1.6,0.6c-0.2,2.1-0.7,2.7-2.5,2.7h-3.1
			c-2.1,0-2.7-0.5-2.7-2.3v-4.9h1.7v1.5h5.5v1.4h-5.5v2c0,0.6,0.1,0.7,1.1,0.7H227.3z"/>
	</g>
	<rect x="197.4" y="292.7" class="st2" width="38.5" height="65.7"/>
</g>
<g>
	<g>
		<path class="st4" d="M261,335.2h2.2v-6.3h-1.9v-1.3c1-0.2,1.8-0.5,2.4-0.9h1.5v8.4h1.9v1.7h-6.2v-1.6H261z"/>
		<path class="st4" d="M273.4,328.5h-4.7v-1.7h6.9v1.3c-2.4,2.9-2.7,4.9-2.9,8.8h-2.1C270.9,333.4,271.5,331.2,273.4,328.5z"/>
		<path class="st4" d="M277.3,335.7c0-0.8,0.5-1.3,1.3-1.3c0.7,0,1.3,0.6,1.3,1.3c0,0.8-0.5,1.3-1.3,1.3
			C277.9,337.1,277.3,336.5,277.3,335.7z"/>
		<path class="st4" d="M281.5,334.3c0-1.2,0.8-2,1.8-2.5v-0.1c-0.8-0.6-1.4-1.3-1.4-2.4c0-1.7,1.3-2.7,3.1-2.7c1.8,0,3,1.1,3,2.7
			c0,1-0.7,1.8-1.3,2.3v0.1c0.9,0.5,1.7,1.3,1.7,2.6c0,1.6-1.4,2.8-3.5,2.8C283,337.1,281.5,335.9,281.5,334.3z M286.6,334.2
			c0-1-1-1.4-2.3-1.9c-0.5,0.4-1,1.1-1,1.8c0,0.9,0.8,1.5,1.7,1.5C285.9,335.6,286.6,335.1,286.6,334.2z M286.4,329.5
			c0-0.8-0.5-1.4-1.4-1.4c-0.7,0-1.3,0.4-1.3,1.3s0.8,1.4,1.9,1.8C286.1,330.6,286.4,330,286.4,329.5z"/>
	</g>
	<g>
		<path class="st5" d="M268.5,369v1h4.7v7.6c0,0.8-0.2,1.2-0.8,1.4c-0.6,0.2-1.4,0.2-2.5,0.2c-0.1-0.4-0.3-1-0.5-1.4
			c0.7,0,1.6,0,1.8,0c0.3,0,0.3-0.1,0.3-0.3v-6.1h-5.2c0.3,0.5,0.6,1.1,0.8,1.5l-1.1,0.3h2.1H268c0.3-0.5,0.7-1.3,0.9-1.8l1.4,0.4
			c-0.3,0.5-0.6,1-0.8,1.4h1.2v1.3h-2.4v0.9h2.7v1.3h-2.7v2h-1.6v-2h-2.5v-1.3h2.6v-0.9h-2.3v-1.3h1.2c-0.1-0.4-0.4-1-0.7-1.5
			l1.3-0.4h-2.7v7.7h-1.7v-9.3h4.8v-1h-5.3v-1.6h5.3V366h1.8v1.1h5.3v1.6h-5.3V369z"/>
		<path class="st5" d="M278.8,375.5h2.1v1.5h-2.1v2.3h-1.6V377H275v-1.5h2.2v-0.8h-1.7v-5h1.7v-0.8h-2v-1.5h2v-1.2h1.6v1.3h2.1v1.5
			h-2.1v0.8h1.8v5h-1.8V375.5z M276.9,371.7h2.2v-0.6h-2.2V371.7z M276.9,373.5h2.2v-0.6h-2.2V373.5z M288.1,369.3v1.3h-7.2v-1.3
			h1.9c0-0.2,0.1-0.5,0.1-0.7h-1.4v-1.3h1.5c0-0.4,0.1-0.7,0.1-1l1.6,0.1c0,0.3-0.1,0.6-0.1,0.9h2.5v2H288.1z M285.9,376.7h2.1v1.3
			h-2.1v1.4h-1.6V378h-2.9c0.2-0.6,0.4-1.4,0.6-2.1h-0.8v-1.3h3.1v-0.5h-2.6V371h5.7v3.1h-1.5v0.5h1.9v1.3h-1.9L285.9,376.7
			L285.9,376.7z M283.3,373h2.5v-0.9h-2.5V373z M284.4,376.7v-0.9h-0.9c-0.1,0.3-0.1,0.6-0.2,0.9H284.4z M284.4,368.5
			c0,0.3-0.1,0.5-0.1,0.7h1.4v-0.7H284.4z"/>
	</g>
	<rect x="255.5" y="344.3" class="st2" width="38.5" height="14.1"/>
</g>
<g>
	<g>
		<path class="st4" d="M316.7,329.7c2.7-2.6,4.5-4.3,4.5-5.8c0-1-0.6-1.6-1.6-1.6c-0.8,0-1.4,0.5-1.9,1.1l-1.1-1.1
			c1-1,1.9-1.6,3.3-1.6c2,0,3.3,1.2,3.3,3.2c0,1.8-1.6,3.6-3.5,5.5c0.5-0.1,1.2-0.1,1.7-0.1h2.3v1.7h-6.9L316.7,329.7L316.7,329.7z"
			/>
		<path class="st4" d="M324.7,329.7l1-1.3c0.6,0.6,1.3,1.1,2.3,1.1c1.1,0,1.8-0.6,1.8-1.8c0-1.1-0.7-1.8-1.8-1.8
			c-0.6,0-1,0.2-1.6,0.5l-0.9-0.6l0.3-5h5.5v1.7h-3.8l-0.2,2.2c0.4-0.2,0.8-0.3,1.2-0.3c1.7,0,3.2,1,3.2,3.1c0,2.2-1.7,3.5-3.6,3.5
			C326.6,331.1,325.5,330.4,324.7,329.7z"/>
		<path class="st4" d="M333.6,329.7c0-0.8,0.5-1.3,1.3-1.3c0.7,0,1.3,0.6,1.3,1.3c0,0.8-0.5,1.3-1.3,1.3
			C334.1,331.1,333.6,330.5,333.6,329.7z"/>
		<path class="st4" d="M337.8,329.7c2.7-2.6,4.5-4.3,4.5-5.8c0-1-0.6-1.6-1.6-1.6c-0.8,0-1.4,0.5-1.9,1.1l-1.1-1.1
			c1-1,1.9-1.6,3.3-1.6c2,0,3.3,1.2,3.3,3.2c0,1.8-1.6,3.6-3.5,5.5c0.5-0.1,1.2-0.1,1.7-0.1h2.3v1.7h-6.9L337.8,329.7L337.8,329.7z"
			/>
	</g>
	<g>
		<path class="st5" d="M327.6,372.7c0.8,0.8,1.9,1.5,3.2,1.8c-0.4,0.3-0.9,0.9-1.1,1.4c-0.7-0.3-1.4-0.7-2-1.1c-0.5,0.5-1,1-1.3,1.2
			c1,0.5,2.1,1.2,2.8,1.7l-1,1.1c-0.7-0.5-2.1-1.4-3.1-1.9l1-1l-0.9-0.6c0.4-0.4,1-1,1.3-1.5l0.4,0.3c-0.4-0.4-0.9-0.9-1.2-1.4h-3.2
			c-0.4,0.6-0.9,1.1-1.5,1.6l0.5-0.4c0.4,0.4,1,0.9,1.2,1.3l-1.2,0.9c-0.2-0.3-0.7-0.9-1.1-1.3c-0.6,0.4-1.2,0.9-1.9,1.2
			c-0.2-0.4-0.8-1-1.2-1.2c1.3-0.6,2.3-1.3,3.1-2.1h-2.7v-1.4h3.8c0.2-0.2,0.3-0.5,0.4-0.7h-2.7v-1.3h3.3c0.1-0.2,0.1-0.4,0.2-0.7
			h-4.2v-1.3h4.5c0.1-0.4,0.1-0.8,0.1-1.2l1.8,0.1c0,0.4-0.1,0.7-0.2,1.1h5v1.3h-5.3c-0.1,0.2-0.1,0.4-0.2,0.7h4.9v1.3h-5.4
			c-0.1,0.2-0.2,0.5-0.3,0.7h7v1.4L327.6,372.7L327.6,372.7z M322.8,377.1c-1.1,0.6-2.4,1.2-3.4,1.8l-0.8-1.3c1-0.4,2.5-1,3.9-1.7
			L322.8,377.1z M323.2,373.1h1.6v4.7c0,0.7-0.1,1.1-0.7,1.3c-0.5,0.2-1.2,0.2-2.2,0.2c-0.1-0.4-0.3-1-0.5-1.4c0.6,0,1.3,0,1.5,0
			s0.3,0,0.3-0.2L323.2,373.1L323.2,373.1z"/>
		<path class="st5" d="M344,366.8v12.5h-1.7v-0.6h-8.7v0.6H332v-12.5H344z M342.3,377.3v-9h-1.7c0.4,0.2,0.9,0.5,1.1,0.8l-0.6,0.6
			h0.7v1.2h-2.5c0.1,0.8,0.2,1.5,0.3,2.1c0.3-0.5,0.5-1.1,0.7-1.8l1.3,0.3c-0.3,1.2-0.8,2.3-1.5,3.2c0.2,0.4,0.4,0.7,0.6,0.8
			c0.2,0,0.3-0.5,0.3-1.3c0.3,0.3,0.8,0.6,1,0.8c-0.2,1.7-1,2.3-1.9,1.8c-0.4-0.1-0.8-0.5-1.1-0.9c-0.4,0.4-0.9,0.9-1.5,1.2
			c-0.2-0.3-0.6-0.8-0.9-1c0.2-0.1,0.3-0.2,0.5-0.3c-1.1,0.2-2.2,0.3-3.2,0.5l-0.2-1.2c1-0.1,2.5-0.3,3.9-0.5v0.7
			c0.3-0.2,0.5-0.5,0.7-0.7c-0.3-1-0.5-2.3-0.6-3.7h-3.9v-1.2h3.8c0-0.4,0-0.8-0.1-1.2h1.4c0,0.4,0,0.8,0.1,1.2h1.5
			c-0.3-0.3-0.7-0.5-1.1-0.7l0.6-0.6h-6.8v9L342.3,377.3L342.3,377.3z M337.6,374.2h-3.1v-2.7h3.1V374.2z M336.5,372.4h-0.9v0.9h0.9
			V372.4z"/>
	</g>
	<rect x="311.4" y="338.5" class="st2" width="38.5" height="19.9"/>
</g>
<g>
	<g>
		<path class="st4" d="M381.2,336.5h-4.7v-1.7h6.9v1.3c-2.4,2.9-2.7,4.9-2.9,8.8h-2.1C378.6,341.4,379.2,339.2,381.2,336.5z"/>
		<path class="st4" d="M385,343.7c0-0.8,0.5-1.3,1.3-1.3c0.7,0,1.3,0.6,1.3,1.3c0,0.8-0.5,1.3-1.3,1.3
			C385.6,345.1,385,344.5,385,343.7z"/>
		<path class="st4" d="M389,343.7l1-1.3c0.6,0.6,1.3,1.1,2.3,1.1c1.1,0,1.8-0.6,1.8-1.8c0-1.1-0.7-1.8-1.8-1.8c-0.6,0-1,0.2-1.6,0.5
			l-0.9-0.6l0.3-5h5.5v1.7h-3.8l-0.2,2.2c0.4-0.2,0.8-0.3,1.2-0.3c1.7,0,3.2,1,3.2,3.1c0,2.2-1.7,3.5-3.6,3.5
			C390.8,345.1,389.7,344.4,389,343.7z"/>
	</g>
	<g>
		<path class="st5" d="M381.4,367.5c1.3,1.2,3,2.9,3.7,4.1l-1.4,1c-0.2-0.3-0.4-0.7-0.7-1.1c-7.4,0.4-8.4,0.4-9.2,0.6
			c-0.1-0.3-0.4-1.2-0.5-1.6c0.4-0.1,0.7-0.4,1.2-0.8c0.5-0.4,2-2.1,3-3.8l1.7,0.7c-0.9,1.3-2,2.5-3.1,3.6l5.7-0.2
			c-0.5-0.6-1.1-1.2-1.6-1.7L381.4,367.5z M374.2,373.2h9.4v6.1h-1.8v-0.7h-5.9v0.7h-1.7V373.2z M375.9,374.8v2.2h5.9v-2.2H375.9z"
			/>
		<path class="st5" d="M388.3,372.7c-0.4-0.4-1.3-1.1-2-1.4l0.9-1.2c0.7,0.3,1.6,0.9,2.1,1.3L388.3,372.7z M388.6,369.1
			c-0.4-0.5-1.3-1.1-2-1.5l1-1.1c0.7,0.4,1.6,1,2,1.4L388.6,369.1z M386.6,378.3c0.5-1.1,1.2-2.9,1.7-4.5l1.3,0.8
			c-0.4,1.5-1,3.1-1.6,4.5L386.6,378.3z M390.3,371.6c-0.1,0.7-0.3,1.4-0.6,1.9c-0.2-0.2-0.5-0.4-0.7-0.5c0.3-0.4,0.4-1,0.5-1.6
			L390.3,371.6z M392.1,371.1c0-0.1-0.1-0.3-0.1-0.4c-1.8,0.3-2.1,0.3-2.4,0.4c0-0.1-0.2-0.5-0.3-0.7c0.2,0,0.4-0.2,0.7-0.5
			c0.1-0.1,0.4-0.5,0.7-0.9c-0.7,0.1-1,0.1-1.1,0.2c-0.1-0.1-0.2-0.5-0.3-0.7c0.2,0,0.3-0.2,0.4-0.4c0.2-0.2,0.6-1,0.9-1.8l0.9,0.3
			c-0.2,0.5-0.5,1.1-0.9,1.5h0.6c0.1-0.2,0.2-0.4,0.3-0.6l0.9,0.4c-0.4,0.7-0.9,1.4-1.5,2l0.8-0.1c-0.1-0.1-0.1-0.3-0.2-0.4l0.7-0.3
			c0.3,0.5,0.5,1.1,0.6,1.5L392.1,371.1z M398.9,376.3c0,0,0,0.4-0.1,0.6c-0.2,1.1-0.5,1.7-0.9,2s-0.7,0.3-1.3,0.4
			c-0.5,0-1.3,0-2.2,0c0-0.4-0.2-0.9-0.4-1.2c0.8,0.1,1.8,0.1,2.1,0.1c0.3,0,0.5,0,0.6-0.1c0.2-0.1,0.3-0.3,0.4-0.7H390
			c0.2-0.7,0.5-1.6,0.6-2.4h6v-0.4h-6.4v-0.9h7.9v2.3h-6.2l-0.1,0.4L398.9,376.3L398.9,376.3z M390.8,373.3c0-0.4-0.1-1.1-0.3-1.6
			l0.7-0.2c0.2,0.5,0.3,1.1,0.3,1.6L390.8,373.3z M392,372.9c-0.1-0.4-0.2-1-0.4-1.5l0.6-0.2c0.2,0.4,0.4,1,0.4,1.4L392,372.9z
			 M395.9,368.5h-3.3v-0.9h1.3c-0.1-0.3-0.3-0.7-0.4-1l1.1-0.2c0.2,0.3,0.4,0.8,0.5,1.1l-0.6,0.1h1.4V368.5z M393,371.1h2.7v2.1H393
			V371.1z M395.6,369.6h-2.7v-0.8h2.7V369.6z M395.6,370.7h-2.7v-0.8h2.7V370.7z M393.9,372.4h0.7v-0.6h-0.7V372.4z M396.9,371.6
			c-0.1,0.7-0.3,1.4-0.6,1.9c-0.2-0.1-0.5-0.4-0.7-0.5c0.3-0.4,0.4-1,0.5-1.6L396.9,371.6z M398.7,371.1c0-0.1-0.1-0.3-0.1-0.4
			c-1.8,0.3-2.1,0.3-2.4,0.4c0-0.2-0.2-0.5-0.3-0.7c0.2,0,0.4-0.2,0.7-0.5c0.1-0.1,0.4-0.5,0.7-0.9c-0.7,0.1-1,0.1-1.1,0.2
			c0-0.1-0.2-0.5-0.3-0.7c0.2,0,0.3-0.2,0.4-0.4c0.2-0.2,0.6-1,0.9-1.8l0.9,0.3c-0.2,0.5-0.5,1.1-0.9,1.5h0.7
			c0.1-0.2,0.2-0.4,0.3-0.6l0.9,0.4c-0.4,0.7-0.9,1.4-1.5,2l0.8-0.1c-0.1-0.1-0.1-0.2-0.2-0.4l0.7-0.2c0.3,0.4,0.5,1.1,0.6,1.5
			L398.7,371.1z M397.4,373.4c0-0.4-0.1-1.2-0.3-1.7l0.7-0.2c0.2,0.5,0.3,1.3,0.3,1.7L397.4,373.4z M398.9,371.2
			c0.2,0.5,0.4,1.2,0.5,1.7l-0.7,0.3c-0.1-0.5-0.3-1.2-0.5-1.8L398.9,371.2z"/>
	</g>
	<rect x="367.1" y="351.4" class="st2" width="38.5" height="7.1"/>
</g>
<g>
	<g>
		<path class="st4" d="M431.3,342.3c0-1.2,0.8-2,1.8-2.5v-0.1c-0.8-0.6-1.4-1.3-1.4-2.4c0-1.7,1.3-2.7,3.1-2.7c1.8,0,3,1.1,3,2.7
			c0,1-0.7,1.8-1.3,2.3v0.1c0.9,0.5,1.7,1.3,1.7,2.6c0,1.6-1.4,2.8-3.5,2.8C432.8,345.1,431.3,343.9,431.3,342.3z M436.3,342.2
			c0-1-1-1.4-2.3-1.9c-0.5,0.4-1,1.1-1,1.8c0,0.9,0.8,1.5,1.7,1.5C435.7,343.6,436.3,343.1,436.3,342.2z M436.2,337.5
			c0-0.8-0.5-1.4-1.4-1.4c-0.7,0-1.3,0.4-1.3,1.3s0.8,1.4,1.9,1.8C435.9,338.6,436.2,338,436.2,337.5z"/>
		<path class="st4" d="M439.9,343.7c0-0.8,0.5-1.3,1.3-1.3c0.7,0,1.3,0.6,1.3,1.3c0,0.8-0.5,1.3-1.3,1.3
			C440.4,345.1,439.9,344.5,439.9,343.7z"/>
		<path class="st4" d="M448.2,342.4h-4.4V341l3.9-6.2h2.5v6h1.2v1.6h-1.2v2.5h-2V342.4z M448.2,340.8v-2c0-0.6,0-1.6,0.1-2.2h-0.1
			c-0.3,0.5-0.5,1.1-0.8,1.6l-1.6,2.5h2.4V340.8z"/>
	</g>
	<g>
		<path class="st5" d="M413.8,378.4c0.8-0.7,1.3-1.9,1.5-3.2l1.5,0.4c-0.3,1.4-0.7,2.7-1.6,3.6L413.8,378.4z M426.7,373.4
			c0,0,0,0.4,0,0.7c-0.2,2.9-0.4,4.2-0.8,4.6c-0.3,0.4-0.6,0.5-1.1,0.5c-0.4,0.1-1,0.1-1.7,0c0-0.5-0.2-1.1-0.5-1.5
			c0.6,0.1,1.1,0.1,1.3,0.1c0.2,0,0.3,0,0.5-0.2s0.3-1,0.5-2.8h-9.3v-8.1h10v1.4h-4.2v0.9h3.7v1.3h-3.7v0.9h3.7v1.3h-3.7v0.9
			L426.7,373.4L426.7,373.4z M417.3,368.2v0.9h2.5v-0.9H417.3z M419.8,370.4h-2.5v0.9h2.5V370.4z M417.3,373.4h2.5v-0.9h-2.5V373.4z
			 M418.7,375.7c0.3,0.9,0.5,2.1,0.5,2.9l-1.5,0.3c0-0.8-0.2-2-0.5-2.9L418.7,375.7z M421,375.5c0.4,0.8,0.7,1.9,0.8,2.5l-1.4,0.4
			c-0.1-0.7-0.4-1.8-0.8-2.6L421,375.5z M422.9,377.6c-0.2-0.5-0.6-1.4-1-2l1.2-0.4c0.4,0.6,0.9,1.4,1,1.9L422.9,377.6z"/>
		<path class="st5" d="M439.5,374.5c-0.4-0.4-1.1-1-1.8-1.6c-0.3,0.5-0.6,0.9-0.9,1.2c-0.2-0.2-0.7-0.5-1.1-0.7
			c1.2,1.7,3.3,3.1,5.4,3.9c-0.4,0.4-1,1.1-1.2,1.5c-1.7-0.8-3.3-2-4.5-3.5v4.1h-1.8v-4c-1.3,1.5-2.8,2.7-4.5,3.5
			c-0.3-0.4-0.8-1.1-1.2-1.4c2.3-0.9,4.5-2.6,5.7-4.5v-3.2h-5.1v-1.6h5.1v-1.7h1.8v1.7h5.3v1.6h-5.3v3.1c0.1,0.1,0.1,0.2,0.2,0.3
			c0.9-0.8,1.5-2,1.8-3.4l1.6,0.3c-0.1,0.5-0.3,1-0.5,1.5c0.8,0.6,1.8,1.4,2.3,1.8L439.5,374.5z M432.3,370c-0.1,0.5-0.3,1-0.5,1.5
			c0.5,0.4,1,0.9,1.4,1.2l-1.1,1.2c-0.2-0.3-0.6-0.6-0.9-1c-0.5,0.8-1,1.4-1.6,1.9c-0.3-0.3-0.9-0.8-1.3-1.1
			c1.2-0.9,2.1-2.4,2.5-4.1L432.3,370z"/>
		<path class="st5" d="M450.7,368.6v1.5h3.5v9.1h-1.7v-0.8h-8v0.8h-1.6v-9.1h3.3v-1.5h-4V367h12.5v1.6H450.7z M452.5,376.9v-1.7
			h-0.1h-1.5c-1.5,0-1.8-0.5-1.8-2.1v-1.5h-1.5c-0.1,1.5-0.6,3-2.6,3.9c-0.1-0.2-0.3-0.5-0.6-0.7v2.1H452.5z M444.5,371.7v2.5
			c1.3-0.7,1.6-1.6,1.7-2.5H444.5z M449.1,368.6h-1.5v1.5h1.5V368.6z M450.7,371.7v1.5c0,0.5,0.1,0.5,0.4,0.5h1.1c0.1,0,0.2,0,0.3,0
			v-2H450.7z"/>
		<path class="st5" d="M468.8,377.2v1.5h-12.7v-1.5h4v-2h-3v-5h3v-1.7h-3.7V367h12.2v1.5h-3.9v1.7h3.1v5.1h-3.1v2L468.8,377.2
			L468.8,377.2z M461.7,373.8v3.4h1.5v-3.4h3v-2.2h-3v-3.1h-1.4v3.1h-3v2.2H461.7z"/>
	</g>
	<rect x="422.1" y="351.4" class="st2" width="38.5" height="7.1"/>
</g>
<line class="st3" x1="474.6" y1="358.1" x2="67.5" y2="358.1"/>
</svg>
