<?xml version="1.0" encoding="utf-8"?>
<!-- Generator: Adobe Illustrator 25.4.8, SVG Export Plug-In . SVG Version: 6.00 Build 0)  -->
<svg version="1.1" xmlns="http://www.w3.org/2000/svg" xmlns:xlink="http://www.w3.org/1999/xlink" x="0px" y="0px"
	 viewBox="0 0 500 275" style="enable-background:new 0 0 500 275;" xml:space="preserve">
<style type="text/css">
	.st0{display:none;}
	.st1{display:inline;}
	.st2{display:inline;fill:none;stroke:#D3D3D3;stroke-width:1.1667;stroke-miterlimit:10;}
	.st3{display:inline;fill:none;stroke:#7F7F7F;stroke-width:2.3333;stroke-miterlimit:10;}
	
		.st4{display:inline;fill:none;stroke:#D83712;stroke-width:4.6666;stroke-linecap:round;stroke-linejoin:round;stroke-miterlimit:10;}
	.st5{clip-path:url(#SVGID_00000031166903886194483730000013138433743397892012_);fill:#D83712;}
	.st6{fill:#FED6AC;}
	.st7{display:inline;fill:none;stroke:#D3D3D3;stroke-width:0.5714;stroke-miterlimit:10;}
	.st8{display:inline;fill:none;stroke:#7F7F7F;stroke-width:1.1428;stroke-miterlimit:10;}
	
		.st9{display:inline;fill:none;stroke:#D83712;stroke-width:2.2856;stroke-linecap:round;stroke-linejoin:round;stroke-miterlimit:10;}
	.st10{clip-path:url(#SVGID_00000155832058171259066770000004147838661699122861_);fill:#D83712;}
	.st11{fill:#231815;}
	.st12{font-family:'SourceHanSansTC-Bold-B5pc-H';}
	.st13{font-size:9.7956px;}
	.st14{font-size:8.8157px;}
	.st15{fill:none;stroke:#D3D3D3;stroke-width:1.1667;stroke-miterlimit:10;}
	.st16{fill:none;stroke:#7F7F7F;stroke-width:2.3333;stroke-miterlimit:10;}
	.st17{fill:none;stroke:#D83712;stroke-width:4.6666;stroke-linecap:round;stroke-linejoin:round;stroke-miterlimit:10;}
	.st18{clip-path:url(#SVGID_00000068635919264533931940000017484586158399876749_);fill:#D83712;}
	.st19{fill:none;stroke:#D3D3D3;stroke-width:0.7461;stroke-miterlimit:10;}
	.st20{fill:none;stroke:#7F7F7F;stroke-width:1.4922;stroke-miterlimit:10;}
	.st21{fill:none;stroke:#D83712;stroke-width:2.9892;stroke-linecap:round;stroke-linejoin:round;stroke-miterlimit:10;}
	.st22{clip-path:url(#SVGID_00000016040205639279792190000015069220899443570827_);fill:#D83712;}
	.st23{enable-background:new    ;}
	.st24{fill:#707070;}
	.st25{clip-path:url(#SVGID_00000182522405837880089080000010889817752206749602_);fill:#D83712;}
</style>
<g id="圖層_2" class="st0">
	<g class="st1">
		
			<image style="overflow:visible;" width="845" height="609" xlink:href="120C7378.png"  transform="matrix(0.5878 0 0 0.5386 1.5867 0.8073)">
		</image>
	</g>
</g>
<g id="圖層_1" class="st0">
	<line class="st2" x1="1161.9" y1="-268.2" x2="1689.6" y2="-268.2"/>
	<line class="st2" x1="1161.9" y1="-174.9" x2="1689.6" y2="-174.9"/>
	<line class="st2" x1="1161.9" y1="-86" x2="1689.6" y2="-86"/>
	<line class="st2" x1="1161.9" y1="7.3" x2="1689.6" y2="7.3"/>
	<line class="st2" x1="1161.9" y1="97.4" x2="1689.6" y2="97.4"/>
	<line class="st3" x1="1161.9" y1="190.7" x2="1689.6" y2="190.7"/>
	<path class="st4" d="M1165.9,183l17.9-2.5l6.1-4.9l9.8-6.9c0,0,15.5-11.8,18.4-24.1l12.5-2.5l10.5-3l11-7.4l16.6-9.4l17.8-16.4
		l23.4-7.7l16-13.8h7l25.9-20.7l18.3-15.3l11.1-16.7l37.9-23.1L1453-18h20.9l8.5-4.4l8.5-33.5l16-14.2l14.5-24.7l11.5-2.5l12-2.5
		l5.5-3l8-17.7h8.5l8-3.9l10-10.8l8-4.4l11-4.4h5.5l15-16.7l8.5-6.9l10.5-12.8l11-11.3l9-8.9l3.5-4.9h8"/>
	<g class="st1">
		<g>
			<defs>
				<polygon id="SVGID_1_" points="1648.2,-240.2 1686.6,-212.9 1673.2,-189.3 1650.7,-214.1 				"/>
			</defs>
			<clipPath id="SVGID_00000179623378370374485080000001007964033810839481_">
				<use xlink:href="#SVGID_1_"  style="overflow:visible;"/>
			</clipPath>
			<path style="clip-path:url(#SVGID_00000179623378370374485080000001007964033810839481_);fill:#D83712;" d="M1651.7-216.2
				c-0.2-0.6-3.7-0.9,7.6,0.4c14.2,1.7,20.4-2,23.2,0.8c1.3,1.4,1,3-0.1,6c-3.3,9.4-9.8,19.1-11.1,18.2c-1.3-0.9,5.2-7.5-0.7-13.7
				c-1.7-1.7-1.4-3.5-10.7-7C1645.8-216.7,1651.9-215.7,1651.7-216.2"/>
		</g>
	</g>
	<g class="st1">
		<text transform="matrix(1 0 0 1 1160.3412 219.6686)" class="st11 st12" style="font-size:20px;">2017</text>
		<text transform="matrix(1 0 0 1 1241.5326 219.6686)" class="st11 st12" style="font-size:20px;">2018</text>
		<text transform="matrix(1 0 0 1 1333.0476 219.6686)" class="st11 st12" style="font-size:20px;">2019</text>
		<text transform="matrix(1 0 0 1 1429.4907 219.6686)" class="st11 st12" style="font-size:20px;">2020</text>
		<text transform="matrix(1 0 0 1 1523.7726 219.6686)" class="st11 st12" style="font-size:20px;">2021</text>
		<text transform="matrix(1 0 0 1 1618.6765 219.6686)" class="st11 st12" style="font-size:20px;">2022</text>
	</g>
	
		<text transform="matrix(1 0 0 1 1078.4698 -297.7615)" style="display:inline;fill:#231815; font-family:'SourceHanSansTC-Regular-B5pc-H'; font-size:16px;">(10億美元)</text>
	<text transform="matrix(1 0 0 1 1121.7734 -264.7969)" class="st12" style="display:inline;fill:#707070; font-size:16px;">250</text>
	<text transform="matrix(1 0 0 1 1121.7734 -172.7969)" class="st12" style="display:inline;fill:#707070; font-size:16px;">200</text>
	<text transform="matrix(1 0 0 1 1121.7734 -80.7969)" class="st12" style="display:inline;fill:#707070; font-size:16px;">150</text>
	<text transform="matrix(1 0 0 1 1121.7734 11.2031)" class="st12" style="display:inline;fill:#707070; font-size:16px;">100</text>
	<text transform="matrix(1 0 0 1 1131.1733 103.2031)" class="st12" style="display:inline;fill:#707070; font-size:16px;">50</text>
	<text transform="matrix(1 0 0 1 1140.5734 195.203)" class="st12" style="display:inline;fill:#707070; font-size:16px;">0</text>
	<g class="st1">
		<g>
			<rect x="1286" y="-53.8" transform="matrix(0.816 -0.578 0.578 0.816 272.61 788.5092)" class="st6" width="178" height="39.6"/>
			<polygon class="st6" points="1491,-116.2 1416.9,-121.8 1471.7,-44.4 			"/>
		</g>
		<text transform="matrix(0.816 -0.578 0.578 0.816 1318.9038 13.6172)" class="st11 st12" style="font-size:18px;">外資直接投資累積金額</text>
	</g>
	<line class="st7" x1="-8.4" y1="23.1" x2="250" y2="23.1"/>
	<line class="st7" x1="-8.4" y1="68.8" x2="250" y2="68.8"/>
	<line class="st7" x1="-8.4" y1="112.3" x2="250" y2="112.3"/>
	<line class="st7" x1="-8.4" y1="158" x2="250" y2="158"/>
	<line class="st7" x1="-8.4" y1="202.1" x2="250" y2="202.1"/>
	<line class="st8" x1="-8.4" y1="247.8" x2="250" y2="247.8"/>
	<path class="st9" d="M-6.4,244l8.8-1.2l3-2.4l4.8-3.4c0,0,7.6-5.8,9-11.8l6.1-1.2l5.1-1.5l5.4-3.6l8.1-4.6l8.7-8l11.5-3.8l7.8-6.8
		h3.4L88,185.6l9-7.5l5.4-8.2l18.6-11.3l13.2-13h10.2l4.2-2.2l4.2-16.4l7.8-7l7.1-12.1l5.6-1.2l5.9-1.2l2.7-1.5l3.9-8.7h4.2l3.9-1.9
		l4.9-5.3l3.9-2.2l5.4-2.2h2.7l7.3-8.2l4.2-3.4l5.1-6.3l5.4-5.5l4.4-4.4l1.7-2.4h3.9"/>
	<g class="st1">
		<g>
			<defs>
				<polygon id="SVGID_00000103252674309541508880000017715890531412337086_" points="229.8,36.8 248.6,50.1 242,61.7 231,49.6 				
					"/>
			</defs>
			<clipPath id="SVGID_00000155118734142119776190000014577648725841504904_">
				<use xlink:href="#SVGID_00000103252674309541508880000017715890531412337086_"  style="overflow:visible;"/>
			</clipPath>
			<path style="clip-path:url(#SVGID_00000155118734142119776190000014577648725841504904_);fill:#D83712;" d="M231.5,48.5
				c-0.1-0.3-1.8-0.4,3.7,0.2c7,0.8,10-1,11.4,0.4c0.6,0.7,0.5,1.5,0,2.9c-1.6,4.6-4.8,9.4-5.4,8.9c-0.6-0.4,2.5-3.7-0.3-6.7
				c-0.8-0.8-0.7-1.7-5.2-3.4C228.6,48.3,231.6,48.8,231.5,48.5"/>
		</g>
	</g>
	<g class="st1">
		<text transform="matrix(1 0 0 1 -9.1782 261.9854)" class="st11 st12 st13">2017</text>
		<text transform="matrix(1 0 0 1 30.5879 261.9854)" class="st11 st12 st13">2018</text>
		<text transform="matrix(1 0 0 1 75.4092 261.9854)" class="st11 st12 st13">2019</text>
		<text transform="matrix(1 0 0 1 122.6455 261.9854)" class="st11 st12 st13">2020</text>
		<text transform="matrix(1 0 0 1 168.8223 261.9854)" class="st11 st12 st13">2021</text>
		<text transform="matrix(1 0 0 1 215.3047 261.9854)" class="st11 st12 st13">2022</text>
	</g>
	
		<text transform="matrix(1 0 0 1 -49.2773 8.5596)" style="display:inline;fill:#231815; font-family:'SourceHanSansTC-Regular-B5pc-H'; font-size:7.8365px;">(10億美元)</text>
	<text transform="matrix(1 0 0 1 -28.0679 24.7041)" class="st12" style="display:inline;fill:#707070; font-size:7.8365px;">250</text>
	<text transform="matrix(1 0 0 1 -28.0679 69.7646)" class="st12" style="display:inline;fill:#707070; font-size:7.8365px;">200</text>
	<text transform="matrix(1 0 0 1 -28.0679 114.8232)" class="st12" style="display:inline;fill:#707070; font-size:7.8365px;">150</text>
	<text transform="matrix(1 0 0 1 -28.0679 159.8838)" class="st12" style="display:inline;fill:#707070; font-size:7.8365px;">100</text>
	<text transform="matrix(1 0 0 1 -23.4644 204.9424)" class="st12" style="display:inline;fill:#707070; font-size:7.8365px;">50</text>
	<text transform="matrix(1 0 0 1 -18.8604 250.002)" class="st12" style="display:inline;fill:#707070; font-size:7.8365px;">0</text>
	<g class="st1">
		<g>
			
				<rect x="52.4" y="128.1" transform="matrix(0.816 -0.578 0.578 0.816 -61.9688 80.8015)" class="st6" width="87.2" height="19.4"/>
			<polygon class="st6" points="152.8,97.5 116.5,94.8 143.3,132.7 			"/>
		</g>
		<text transform="matrix(0.816 -0.578 0.578 0.816 68.4818 161.065)" class="st11 st12 st14">外資直接投資累積金額</text>
	</g>
</g>
<g id="圖層_1_拷貝">
	<line class="st15" x1="1161.9" y1="-268.2" x2="1689.6" y2="-268.2"/>
	<line class="st15" x1="1161.9" y1="-174.9" x2="1689.6" y2="-174.9"/>
	<line class="st15" x1="1161.9" y1="-86" x2="1689.6" y2="-86"/>
	<line class="st15" x1="1161.9" y1="7.3" x2="1689.6" y2="7.3"/>
	<line class="st15" x1="1161.9" y1="97.4" x2="1689.6" y2="97.4"/>
	<line class="st16" x1="1161.9" y1="190.7" x2="1689.6" y2="190.7"/>
	<path class="st17" d="M1165.9,183l17.9-2.5l6.1-4.9l9.8-6.9c0,0,15.5-11.8,18.4-24.1l12.5-2.5l10.5-3l11-7.4l16.6-9.4l17.8-16.4
		l23.4-7.7l16-13.8h7l25.9-20.7l18.3-15.3l11.1-16.7l37.9-23.1L1453-18h20.9l8.5-4.4l8.5-33.5l16-14.2l14.5-24.7l11.5-2.5l12-2.5
		l5.5-3l8-17.7h8.5l8-3.9l10-10.8l8-4.4l11-4.4h5.5l15-16.7l8.5-6.9l10.5-12.8l11-11.3l9-8.9l3.5-4.9h8"/>
	<g>
		<g>
			<defs>
				<polygon id="SVGID_00000109738984087361866850000016783217076822735488_" points="1648.2,-240.2 1686.6,-212.9 1673.2,-189.3 
					1650.7,-214.1 				"/>
			</defs>
			<clipPath id="SVGID_00000154400078374980302150000005319255014935308223_">
				<use xlink:href="#SVGID_00000109738984087361866850000016783217076822735488_"  style="overflow:visible;"/>
			</clipPath>
			<path style="clip-path:url(#SVGID_00000154400078374980302150000005319255014935308223_);fill:#D83712;" d="M1651.7-216.2
				c-0.2-0.6-3.7-0.9,7.6,0.4c14.2,1.7,20.4-2,23.2,0.8c1.3,1.4,1,3-0.1,6c-3.3,9.4-9.8,19.1-11.1,18.2c-1.3-0.9,5.2-7.5-0.7-13.7
				c-1.7-1.7-1.4-3.5-10.7-7C1645.8-216.7,1651.9-215.7,1651.7-216.2"/>
		</g>
	</g>
	<g>
		<text transform="matrix(1 0 0 1 1160.3412 219.6686)" class="st11 st12" style="font-size:20px;">2017</text>
		<text transform="matrix(1 0 0 1 1241.5326 219.6686)" class="st11 st12" style="font-size:20px;">2018</text>
		<text transform="matrix(1 0 0 1 1333.0476 219.6686)" class="st11 st12" style="font-size:20px;">2019</text>
		<text transform="matrix(1 0 0 1 1429.4907 219.6686)" class="st11 st12" style="font-size:20px;">2020</text>
		<text transform="matrix(1 0 0 1 1523.7726 219.6686)" class="st11 st12" style="font-size:20px;">2021</text>
		<text transform="matrix(1 0 0 1 1618.6765 219.6686)" class="st11 st12" style="font-size:20px;">2022</text>
	</g>
	
		<text transform="matrix(1 0 0 1 1078.4698 -297.7615)" class="st11" style="font-family:'SourceHanSansTC-Regular-B5pc-H'; font-size:16px;">(10億美元)</text>
	<text transform="matrix(1 0 0 1 1121.7734 -264.7969)" class="st24 st12" style="font-size:16px;">250</text>
	<text transform="matrix(1 0 0 1 1121.7734 -172.7969)" class="st24 st12" style="font-size:16px;">200</text>
	<text transform="matrix(1 0 0 1 1121.7734 -80.7969)" class="st24 st12" style="font-size:16px;">150</text>
	<text transform="matrix(1 0 0 1 1121.7734 11.2031)" class="st24 st12" style="font-size:16px;">100</text>
	<text transform="matrix(1 0 0 1 1131.1733 103.2031)" class="st24 st12" style="font-size:16px;">50</text>
	<text transform="matrix(1 0 0 1 1140.5734 195.203)" class="st24 st12" style="font-size:16px;">0</text>
	<g>
		<g>
			<rect x="1286" y="-53.8" transform="matrix(0.816 -0.578 0.578 0.816 272.61 788.5092)" class="st6" width="178" height="39.6"/>
			<polygon class="st6" points="1491,-116.2 1416.9,-121.8 1471.7,-44.4 			"/>
		</g>
		<text transform="matrix(0.816 -0.578 0.578 0.816 1318.9038 13.6172)" class="st11 st12" style="font-size:18px;">外資直接投資累積金額</text>
	</g>
	<line class="st19" x1="45.7" y1="118.3" x2="486.3" y2="118.3"/>
	<line class="st19" x1="45.7" y1="72.3" x2="486.3" y2="72.3"/>
	<line class="st19" x1="45.7" y1="25.3" x2="486.3" y2="25.3"/>
	<line class="st19" x1="45.7" y1="164" x2="486.3" y2="164"/>
	<line class="st19" x1="45.7" y1="208.1" x2="486.3" y2="208.1"/>
	<line class="st20" x1="45.7" y1="253.8" x2="486.3" y2="253.8"/>
	<path class="st21" d="M51.6,251.5l15-1.2l5.1-2.4l8.2-3.4c0,0,13-5.8,15.4-11.8l10.5-1.2l8.8-1.5l9.2-3.6l13.9-4.6l14.9-8l19.6-3.8
		l13.4-6.8h5.9l21.7-10.1l15.3-7.5l9.3-8.2l31.7-11.3l22.5-13h17.5l7.1-2.2l7.1-16.4l13.4-7l12.1-12.1l9.6-1.2l10.1-1.2l4.6-1.5
		l6.7-8.7h7.1l6.7-1.9l8.4-5.3l6.7-2.2l9.2-2.2h4.6l12.6-8.2l7.1-3.4l8.8-6.3l9.2-5.5l7.5-4.4l2.9-2.4h6.7"/>
	<g>
		<g>
			<defs>
				<polygon id="SVGID_00000030480266258946369510000005381205823147721386_" points="471.3,42.5 487.4,59.5 478.5,69.5 470,55.3 
									"/>
			</defs>
			<clipPath id="SVGID_00000085956685627851104690000000333025179533093543_">
				<use xlink:href="#SVGID_00000030480266258946369510000005381205823147721386_"  style="overflow:visible;"/>
			</clipPath>
			<path style="clip-path:url(#SVGID_00000085956685627851104690000000333025179533093543_);fill:#D83712;" d="M470.7,54.4
				c0-0.3-1.7-0.8,3.7,1c6.8,2.3,10.2,1.1,11.3,2.7c0.5,0.8,0.2,1.5-0.6,2.9c-2.6,4.2-6.7,8.2-7.2,7.6c-0.5-0.6,3.3-3.1,1-6.6
				c-0.7-1-0.3-1.8-4.5-4.4C467.8,53.5,470.7,54.6,470.7,54.4"/>
		</g>
	</g>
	<g class="st23">
		<path class="st11" d="M44.5,271.5c3.5-3.3,5.8-5.6,5.8-7.5c0-1.3-0.7-2.1-2-2.1c-1,0-1.8,0.6-2.4,1.4l-1.4-1.4
			c1.2-1.3,2.4-2,4.2-2c2.5,0,4.2,1.6,4.2,4.1c0,2.3-2.1,4.6-4.5,7.1c0.7-0.1,1.5-0.1,2.2-0.1h2.9v2.2h-8.9V271.5z"/>
		<path class="st11" d="M55.1,266.4c0-4.4,1.8-6.7,4.5-6.7s4.5,2.3,4.5,6.7c0,4.4-1.8,6.8-4.5,6.8S55.1,270.8,55.1,266.4z
			 M61.7,266.4c0-3.6-0.8-4.6-2-4.6s-2,1-2,4.6c0,3.6,0.9,4.7,2,4.7S61.7,270.1,61.7,266.4z"/>
		<path class="st11" d="M66.4,270.8h2.9v-8.1h-2.4v-1.6c1.3-0.3,2.3-0.6,3.1-1.1h2v10.8h2.5v2.1h-8V270.8z"/>
		<path class="st11" d="M82.4,262.2h-6V260h8.9v1.6c-3,3.7-3.5,6.3-3.7,11.4h-2.7C79.1,268.5,80,265.7,82.4,262.2z"/>
	</g>
	<g class="st23">
		<path class="st11" d="M124.2,271.5c3.5-3.3,5.8-5.6,5.8-7.5c0-1.3-0.7-2.1-2-2.1c-1,0-1.8,0.6-2.4,1.4l-1.4-1.4
			c1.2-1.3,2.4-2,4.2-2c2.5,0,4.2,1.6,4.2,4.1c0,2.3-2.1,4.6-4.5,7.1c0.7-0.1,1.5-0.1,2.2-0.1h2.9v2.2h-8.9V271.5z"/>
		<path class="st11" d="M134.8,266.4c0-4.4,1.8-6.7,4.5-6.7s4.5,2.3,4.5,6.7c0,4.4-1.8,6.8-4.5,6.8S134.8,270.8,134.8,266.4z
			 M141.3,266.4c0-3.6-0.8-4.6-2-4.6s-2,1-2,4.6c0,3.6,0.9,4.7,2,4.7S141.3,270.1,141.3,266.4z"/>
		<path class="st11" d="M146.1,270.8h2.9v-8.1h-2.4v-1.6c1.3-0.3,2.3-0.6,3.1-1.1h2v10.8h2.5v2.1h-8V270.8z"/>
		<path class="st11" d="M156.1,269.7c0-1.6,1.1-2.6,2.3-3.3v-0.1c-1-0.7-1.8-1.7-1.8-3.1c0-2.1,1.7-3.5,4-3.5c2.4,0,3.9,1.4,3.9,3.5
			c0,1.3-0.9,2.3-1.7,2.9v0.1c1.2,0.7,2.2,1.6,2.2,3.4c0,2-1.8,3.6-4.5,3.6C158,273.2,156.1,271.8,156.1,269.7z M162.5,269.6
			c0-1.3-1.2-1.8-3-2.5c-0.7,0.6-1.2,1.4-1.2,2.3c0,1.2,1,2,2.2,2C161.7,271.4,162.5,270.7,162.5,269.6z M162.3,263.5
			c0-1.1-0.6-1.8-1.8-1.8c-0.9,0-1.6,0.6-1.6,1.6c0,1.2,1,1.7,2.4,2.3C162,264.9,162.3,264.2,162.3,263.5z"/>
	</g>
	<g class="st23">
		<path class="st11" d="M200.3,271.5c3.5-3.3,5.8-5.6,5.8-7.5c0-1.3-0.7-2.1-2-2.1c-1,0-1.8,0.6-2.4,1.4l-1.4-1.4
			c1.2-1.3,2.4-2,4.2-2c2.5,0,4.2,1.6,4.2,4.1c0,2.3-2.1,4.6-4.5,7.1c0.7-0.1,1.5-0.1,2.2-0.1h2.9v2.2h-8.9V271.5z"/>
		<path class="st11" d="M211,266.4c0-4.4,1.8-6.7,4.5-6.7s4.5,2.3,4.5,6.7c0,4.4-1.8,6.8-4.5,6.8S211,270.8,211,266.4z M217.5,266.4
			c0-3.6-0.8-4.6-2-4.6s-2,1-2,4.6c0,3.6,0.9,4.7,2,4.7S217.5,270.1,217.5,266.4z"/>
		<path class="st11" d="M222.2,270.8h2.9v-8.1h-2.4v-1.6c1.3-0.3,2.3-0.6,3.1-1.1h2v10.8h2.5v2.1h-8V270.8z"/>
		<path class="st11" d="M232.3,271.7l1.4-1.6c0.5,0.5,1.3,1,2.1,1c1.5,0,2.8-1.1,2.9-4.5c-0.7,0.9-1.9,1.5-2.7,1.5
			c-2.2,0-3.8-1.3-3.8-4c0-2.6,1.9-4.3,4.2-4.3c2.5,0,4.8,1.9,4.8,6.4c0,5-2.5,7.1-5.1,7.1C234.3,273.2,233.1,272.5,232.3,271.7z
			 M236.4,266.2c0.7,0,1.5-0.4,2.2-1.4c-0.3-2.2-1.2-3-2.3-3c-1,0-1.8,0.8-1.8,2.3C234.5,265.5,235.3,266.2,236.4,266.2z"/>
	</g>
	<g class="st23">
		<path class="st11" d="M274.4,271.5c3.5-3.3,5.8-5.6,5.8-7.5c0-1.3-0.7-2.1-2-2.1c-1,0-1.8,0.6-2.4,1.4l-1.4-1.4
			c1.2-1.3,2.4-2,4.2-2c2.5,0,4.2,1.6,4.2,4.1c0,2.3-2.1,4.6-4.5,7.1c0.7-0.1,1.5-0.1,2.2-0.1h2.9v2.2h-8.9V271.5z"/>
		<path class="st11" d="M285,266.4c0-4.4,1.8-6.7,4.5-6.7c2.7,0,4.5,2.3,4.5,6.7c0,4.4-1.8,6.8-4.5,6.8
			C286.8,273.2,285,270.8,285,266.4z M291.5,266.4c0-3.6-0.8-4.6-2-4.6s-2,1-2,4.6c0,3.6,0.9,4.7,2,4.7S291.5,270.1,291.5,266.4z"/>
		<path class="st11" d="M295.6,271.5c3.5-3.3,5.8-5.6,5.8-7.5c0-1.3-0.7-2.1-2-2.1c-1,0-1.8,0.6-2.4,1.4l-1.4-1.4
			c1.2-1.3,2.4-2,4.2-2c2.5,0,4.2,1.6,4.2,4.1c0,2.3-2.1,4.6-4.5,7.1c0.7-0.1,1.5-0.1,2.2-0.1h2.9v2.2h-8.9V271.5z"/>
		<path class="st11" d="M306.2,266.4c0-4.4,1.8-6.7,4.5-6.7c2.7,0,4.5,2.3,4.5,6.7c0,4.4-1.8,6.8-4.5,6.8
			C308,273.2,306.2,270.8,306.2,266.4z M312.7,266.4c0-3.6-0.8-4.6-2-4.6s-2,1-2,4.6c0,3.6,0.9,4.7,2,4.7S312.7,270.1,312.7,266.4z"
			/>
	</g>
	<g class="st23">
		<path class="st11" d="M353.4,271.5c3.5-3.3,5.8-5.6,5.8-7.5c0-1.3-0.7-2.1-2-2.1c-1,0-1.8,0.6-2.4,1.4l-1.4-1.4
			c1.2-1.3,2.4-2,4.2-2c2.5,0,4.2,1.6,4.2,4.1c0,2.3-2.1,4.6-4.5,7.1c0.7-0.1,1.5-0.1,2.2-0.1h2.9v2.2h-8.9V271.5z"/>
		<path class="st11" d="M364,266.4c0-4.4,1.8-6.7,4.5-6.7c2.7,0,4.5,2.3,4.5,6.7c0,4.4-1.8,6.8-4.5,6.8
			C365.8,273.2,364,270.8,364,266.4z M370.5,266.4c0-3.6-0.8-4.6-2-4.6s-2,1-2,4.6c0,3.6,0.9,4.7,2,4.7S370.5,270.1,370.5,266.4z"/>
		<path class="st11" d="M374.6,271.5c3.5-3.3,5.8-5.6,5.8-7.5c0-1.3-0.7-2.1-2-2.1c-1,0-1.8,0.6-2.4,1.4l-1.4-1.4
			c1.2-1.3,2.4-2,4.2-2c2.5,0,4.2,1.6,4.2,4.1c0,2.3-2.1,4.6-4.5,7.1c0.7-0.1,1.5-0.1,2.2-0.1h2.9v2.2h-8.9V271.5z"/>
		<path class="st11" d="M385.9,270.8h2.9v-8.1h-2.4v-1.6c1.3-0.3,2.3-0.6,3.1-1.1h2v10.8h2.5v2.1h-8V270.8z"/>
	</g>
	<g class="st23">
		<path class="st11" d="M427.6,271.5c3.5-3.3,5.8-5.6,5.8-7.5c0-1.3-0.7-2.1-2-2.1c-1,0-1.8,0.6-2.4,1.4l-1.4-1.4
			c1.2-1.3,2.4-2,4.2-2c2.5,0,4.2,1.6,4.2,4.1c0,2.3-2.1,4.6-4.5,7.1c0.7-0.1,1.5-0.1,2.2-0.1h2.9v2.2h-8.9V271.5z"/>
		<path class="st11" d="M438.3,266.4c0-4.4,1.8-6.7,4.5-6.7c2.7,0,4.5,2.3,4.5,6.7c0,4.4-1.8,6.8-4.5,6.8
			C440.1,273.2,438.3,270.8,438.3,266.4z M444.8,266.4c0-3.6-0.8-4.6-2-4.6s-2,1-2,4.6c0,3.6,0.9,4.7,2,4.7S444.8,270.1,444.8,266.4
			z"/>
		<path class="st11" d="M448.9,271.5c3.5-3.3,5.8-5.6,5.8-7.5c0-1.3-0.7-2.1-2-2.1c-1,0-1.8,0.6-2.4,1.4l-1.4-1.4
			c1.2-1.3,2.4-2,4.2-2c2.5,0,4.2,1.6,4.2,4.1c0,2.3-2.1,4.6-4.5,7.1c0.7-0.1,1.5-0.1,2.2-0.1h2.9v2.2h-8.9V271.5z"/>
		<path class="st11" d="M459.5,271.5c3.5-3.3,5.8-5.6,5.8-7.5c0-1.3-0.7-2.1-2-2.1c-1,0-1.8,0.6-2.4,1.4l-1.4-1.4
			c1.2-1.3,2.4-2,4.2-2c2.5,0,4.2,1.6,4.2,4.1c0,2.3-2.1,4.6-4.5,7.1c0.7-0.1,1.5-0.1,2.2-0.1h2.9v2.2h-8.9V271.5z"/>
	</g>
	<g class="st23">
		<path class="st11" d="M10.4,10.2c0-2.7,0.8-5,2.1-7.1l0.8,0.4c-1.2,2-1.8,4.4-1.8,6.7s0.6,4.7,1.8,6.7l-0.8,0.4
			C11.2,15.2,10.4,13,10.4,10.2z"/>
		<path class="st11" d="M15.1,13.5h2.3V6.1h-1.8V5.3c0.9-0.2,1.6-0.4,2.1-0.7h1v8.9h2.1v1.1h-5.6V13.5z"/>
		<path class="st11" d="M22.3,9.5c0-3.3,1.2-5.1,3.2-5.1c2,0,3.2,1.8,3.2,5.1c0,3.3-1.2,5.2-3.2,5.2C23.5,14.7,22.3,12.9,22.3,9.5z
			 M27.5,9.5c0-2.9-0.8-4.1-1.9-4.1c-1.2,0-2,1.2-2,4.1c0,2.9,0.8,4.2,2,4.2C26.7,13.7,27.5,12.5,27.5,9.5z"/>
		<path class="st11" d="M34.1,3.2c-0.4,1.1-0.9,2.2-1.5,3.2v9.2h-1V8c-0.4,0.5-0.8,1.1-1.2,1.5c-0.1-0.3-0.4-0.8-0.6-1
			c1.3-1.4,2.5-3.4,3.3-5.6L34.1,3.2z M33.3,14.8c0.4-0.6,0.9-1.6,1.1-2.3l0.8,0.4c-0.3,0.7-0.7,1.7-1.1,2.4L33.3,14.8z M39.2,6.4
			c0.2-0.4,0.4-1,0.6-1.4h-5.6V4.2h3.5c-0.1-0.4-0.3-0.9-0.5-1.2l1-0.2c0.2,0.4,0.5,1,0.6,1.4h3.6V5h-2.5l0.9,0.2
			c-0.2,0.4-0.4,0.8-0.6,1.1h2.6v0.9h-9.3V6.4H36c-0.1-0.3-0.3-0.8-0.5-1.1L36.4,5c0.2,0.3,0.5,0.8,0.6,1.1l-0.7,0.2H39.2z
			 M41.7,11.8h-4c0.7,0.4,1.4,1,1.8,1.4l-0.7,0.6c-0.4-0.4-1.3-1.1-2-1.6l0.5-0.4h-2.6V8h7V11.8z M40.7,8.7h-5v0.9h5V8.7z
			 M40.7,10.2h-5v0.9h5V10.2z M39.5,14.7c0.4,0,0.5-0.1,0.6-1.1c0.2,0.1,0.6,0.3,0.9,0.3c-0.1,1.2-0.4,1.6-1.3,1.6h-2.3
			c-1.2,0-1.6-0.3-1.6-1.2v-1.8h1v1.8c0,0.3,0.1,0.4,0.7,0.4H39.5z M41.2,12.4c0.6,0.8,1.4,1.8,1.7,2.5L42,15.3
			c-0.3-0.7-1-1.8-1.6-2.5L41.2,12.4z"/>
		<path class="st11" d="M56.6,8.9v0.9h-5.8c0,0.4-0.1,0.7-0.2,1.1h5.8v0.9h-6c-0.7,1.9-2.2,3.1-5.8,3.7c-0.1-0.3-0.4-0.7-0.5-0.9
			c3.2-0.5,4.6-1.4,5.2-2.8h-4.7v-0.9h5c0.1-0.3,0.1-0.7,0.2-1.1h-5.5V8.9h5.6V7.8h-4.4V6.9h4.4V5.7h-5.1V4.8h3
			c-0.2-0.5-0.7-1.1-1.1-1.6l0.9-0.4c0.5,0.5,1,1.3,1.2,1.8l-0.5,0.2h3.7c0.4-0.6,0.9-1.4,1.2-2l1.1,0.3c-0.3,0.6-0.8,1.2-1.1,1.7h3
			v0.9h-5.2v1.1h4.5v0.9h-4.5v1.2H56.6z M50.9,12c1.9,0.7,4.4,1.9,5.7,2.8l-0.5,0.9c-1.2-0.9-3.7-2.1-5.7-2.9L50.9,12z"/>
		<path class="st11" d="M69.1,14.4c0.6,0,0.6-0.4,0.7-2.5c0.2,0.2,0.7,0.4,1,0.5c-0.1,2.4-0.4,3-1.6,3h-2c-1.2,0-1.6-0.4-1.6-1.6v-5
			h-2.6c-0.3,3-0.9,5.4-4.2,6.8c-0.1-0.3-0.4-0.6-0.7-0.8c3-1.1,3.5-3.3,3.7-5.9h-3.5v-1h12.3v1h-3.9v5c0,0.5,0.1,0.6,0.7,0.6H69.1z
			 M69.4,4.9h-9.9v-1h9.9V4.9z"/>
		<path class="st11" d="M72,16.9c1.2-2,1.8-4.4,1.8-6.7S73.2,5.5,72,3.5l0.8-0.4c1.3,2.1,2.1,4.4,2.1,7.1c0,2.8-0.8,5-2.1,7.1
			L72,16.9z"/>
	</g>
	<g class="st23">
		<path class="st24" d="M12.1,30.6c2.7-2.6,4.5-4.3,4.5-5.8c0-1-0.6-1.6-1.6-1.6c-0.8,0-1.4,0.5-1.9,1.1L12,23.1
			c1-1,1.9-1.6,3.3-1.6c2,0,3.3,1.2,3.3,3.2c0,1.8-1.6,3.6-3.5,5.5c0.5-0.1,1.2-0.1,1.7-0.1H19v1.7h-6.9V30.6z"/>
		<path class="st24" d="M20.1,30.6l1-1.3c0.6,0.6,1.3,1.1,2.3,1.1c1.1,0,1.8-0.6,1.8-1.8c0-1.1-0.7-1.8-1.8-1.8
			c-0.6,0-1,0.2-1.6,0.5l-0.9-0.6l0.3-5h5.5v1.7H23l-0.2,2.2c0.4-0.2,0.8-0.3,1.2-0.3c1.7,0,3.2,1,3.2,3.1c0,2.2-1.7,3.5-3.6,3.5
			C21.9,32,20.8,31.4,20.1,30.6z"/>
		<path class="st24" d="M28.6,26.7c0-3.4,1.4-5.2,3.5-5.2c2.1,0,3.5,1.8,3.5,5.2c0,3.4-1.4,5.3-3.5,5.3C30,32,28.6,30.1,28.6,26.7z
			 M33.6,26.7c0-2.8-0.7-3.6-1.6-3.6s-1.6,0.8-1.6,3.6c0,2.8,0.7,3.7,1.6,3.7S33.6,29.5,33.6,26.7z"/>
	</g>
	<g class="st23">
		<path class="st24" d="M12.1,75.7c2.7-2.6,4.5-4.3,4.5-5.8c0-1-0.6-1.6-1.6-1.6c-0.8,0-1.4,0.5-1.9,1.1L12,68.2
			c1-1,1.9-1.6,3.3-1.6c2,0,3.3,1.2,3.3,3.2c0,1.8-1.6,3.6-3.5,5.5c0.5-0.1,1.2-0.1,1.7-0.1H19v1.7h-6.9V75.7z"/>
		<path class="st24" d="M20.3,71.8c0-3.4,1.4-5.2,3.5-5.2c2.1,0,3.5,1.8,3.5,5.2c0,3.4-1.4,5.3-3.5,5.3
			C21.7,77.1,20.3,75.2,20.3,71.8z M25.4,71.8c0-2.8-0.7-3.6-1.6-3.6s-1.6,0.8-1.6,3.6c0,2.8,0.7,3.7,1.6,3.7S25.4,74.6,25.4,71.8z"
			/>
		<path class="st24" d="M28.6,71.8c0-3.4,1.4-5.2,3.5-5.2c2.1,0,3.5,1.8,3.5,5.2c0,3.4-1.4,5.3-3.5,5.3C30,77.1,28.6,75.2,28.6,71.8
			z M33.6,71.8c0-2.8-0.7-3.6-1.6-3.6s-1.6,0.8-1.6,3.6c0,2.8,0.7,3.7,1.6,3.7S33.6,74.6,33.6,71.8z"/>
	</g>
	<g class="st23">
		<path class="st24" d="M12.6,120.3h2.2V114H13v-1.3c1-0.2,1.8-0.5,2.4-0.9h1.5v8.4h1.9v1.7h-6.2V120.3z"/>
		<path class="st24" d="M20.1,120.7l1-1.3c0.6,0.6,1.3,1.1,2.3,1.1c1.1,0,1.8-0.6,1.8-1.8c0-1.1-0.7-1.8-1.8-1.8
			c-0.6,0-1,0.2-1.6,0.5l-0.9-0.6l0.3-5h5.5v1.7H23l-0.2,2.2c0.4-0.2,0.8-0.3,1.2-0.3c1.7,0,3.2,1,3.2,3.1c0,2.2-1.7,3.5-3.6,3.5
			C21.9,122.1,20.8,121.5,20.1,120.7z"/>
		<path class="st24" d="M28.6,116.8c0-3.4,1.4-5.2,3.5-5.2c2.1,0,3.5,1.8,3.5,5.2c0,3.4-1.4,5.3-3.5,5.3
			C30,122.1,28.6,120.3,28.6,116.8z M33.6,116.8c0-2.8-0.7-3.6-1.6-3.6s-1.6,0.8-1.6,3.6c0,2.8,0.7,3.7,1.6,3.7
			S33.6,119.6,33.6,116.8z"/>
	</g>
	<g class="st23">
		<path class="st24" d="M12.6,165.3h2.2V159H13v-1.3c1-0.2,1.8-0.5,2.4-0.9h1.5v8.4h1.9v1.7h-6.2V165.3z"/>
		<path class="st24" d="M20.3,161.9c0-3.4,1.4-5.2,3.5-5.2c2.1,0,3.5,1.8,3.5,5.2c0,3.4-1.4,5.3-3.5,5.3
			C21.7,167.2,20.3,165.3,20.3,161.9z M25.4,161.9c0-2.8-0.7-3.6-1.6-3.6s-1.6,0.8-1.6,3.6c0,2.8,0.7,3.7,1.6,3.7
			S25.4,164.7,25.4,161.9z"/>
		<path class="st24" d="M28.6,161.9c0-3.4,1.4-5.2,3.5-5.2c2.1,0,3.5,1.8,3.5,5.2c0,3.4-1.4,5.3-3.5,5.3
			C30,167.2,28.6,165.3,28.6,161.9z M33.6,161.9c0-2.8-0.7-3.6-1.6-3.6s-1.6,0.8-1.6,3.6c0,2.8,0.7,3.7,1.6,3.7
			S33.6,164.7,33.6,161.9z"/>
	</g>
	<g class="st23">
		<path class="st24" d="M16.4,210.8l1-1.3c0.6,0.6,1.3,1.1,2.3,1.1c1.1,0,1.8-0.6,1.8-1.8c0-1.1-0.7-1.8-1.8-1.8
			c-0.6,0-1,0.2-1.6,0.5l-0.9-0.6l0.3-5h5.5v1.7h-3.8l-0.2,2.2c0.4-0.2,0.8-0.3,1.2-0.3c1.7,0,3.2,1,3.2,3.1c0,2.2-1.7,3.5-3.6,3.5
			C18.3,212.2,17.2,211.6,16.4,210.8z"/>
		<path class="st24" d="M24.9,206.9c0-3.4,1.4-5.2,3.5-5.2c2.1,0,3.5,1.8,3.5,5.2c0,3.4-1.4,5.3-3.5,5.3
			C26.3,212.2,24.9,210.4,24.9,206.9z M30,206.9c0-2.8-0.7-3.6-1.6-3.6s-1.6,0.8-1.6,3.6c0,2.8,0.7,3.7,1.6,3.7S30,209.8,30,206.9z"
			/>
	</g>
	<g class="st23">
		<path class="st24" d="M21.3,252c0-3.4,1.4-5.2,3.5-5.2c2.1,0,3.5,1.8,3.5,5.2c0,3.4-1.4,5.3-3.5,5.3
			C22.7,257.3,21.3,255.4,21.3,252z M26.4,252c0-2.8-0.7-3.6-1.6-3.6s-1.6,0.8-1.6,3.6c0,2.8,0.7,3.7,1.6,3.7S26.4,254.8,26.4,252z"
			/>
	</g>
	<g>
		<g>
			
				<rect x="162.8" y="119.6" transform="matrix(0.8676 -0.4972 0.4972 0.8676 -36.3671 134.484)" class="st6" width="143.1" height="31.8"/>
			<polygon class="st6" points="333.6,78.7 274.7,68.5 312.6,134.7 			"/>
		</g>
		<g class="st23">
			<path class="st11" d="M186.6,157.1l1.2-0.3c2.3,5.4,2.3,9.5,0.3,12.6c-0.5-0.2-1.4-0.5-2-0.5c1-1.5,1.6-3.2,1.6-5.1
				c-0.7-0.3-1.7-0.6-2.6-0.9c0,0.5,0,0.9-0.1,1.3c-0.4-0.1-1.3-0.2-1.8-0.2c0.4-1.9-0.1-4.4-0.9-6.8l1.7-0.6
				c0.2,0.6,0.4,1.2,0.5,1.8l1.9-1.1L186.6,157.1z M184.8,160.1c0.1,0.4,0.1,0.8,0.2,1.1c0.8,0.2,1.7,0.4,2.5,0.7
				c-0.2-0.9-0.4-1.9-0.8-2.9L184.8,160.1z M195.1,160c-0.8-0.4-2.1-0.8-3.4-1.2l3.7,6.4l-1.6,0.9l-6.7-11.7l1.6-0.9l2.4,4.2
				l0.3-0.7c1.4,0.4,3.3,0.9,4.4,1.3L195.1,160z"/>
			<path class="st11" d="M197.3,150.9l-3.2,1.8l-0.6-1.1l3.2-1.8L197.3,150.9z M202,148.9c1.1,0.3,2.6-0.2,4.3-1.1
				c-0.1,0.5-0.2,1.2-0.1,1.7c-1.5,0.6-2.8,0.9-4,0.6c-0.2,0.8-0.9,1.9-2.9,3.4c-0.2-0.2-0.6-0.4-1-0.5l-3.3,1.9l-0.7-1.1l3.8-2.2
				l0.4,0.8c2.3-1.6,2.2-2.4,2-2.8l-0.1-0.2l-0.8,0.4c0,0.6-0.1,1.1-0.3,1.6c-0.4-0.1-1.1-0.1-1.5-0.1c0.3-0.9,0.4-2.1,0.2-3.1
				l1.5-0.5c0,0.2,0.1,0.5,0.1,0.7l3.6-2l0.2-0.2l1.2-0.3c0.1,0.9,0.1,1.9,0,2.6l-1.4,0.2c0-0.3,0-0.6,0-1l-1.4,0.8l0.1,0.3
				L202,148.9z M206.5,156.1c1.4-0.2,2.9-0.4,3.9-0.5l-0.9,1.6c-1,0-2.6,0.1-4.1,0.4l0.4-1.1l-3.5,2l1.4-0.1c-0.7,1.2-1.9,2.8-3,3.9
				c-0.4-0.1-1.3-0.4-1.7-0.5c1.1-0.9,2.2-2.1,2.8-3l-1.8,1l-2.9-5.1l8.4-4.8l2.9,5.1L206.5,156.1z M199.3,155.4l5.4-3.1l-0.3-0.5
				l-5.4,3.1L199.3,155.4z M200.1,156.8l5.4-3.1l-0.3-0.5l-5.4,3.1L200.1,156.8z M200.9,158.2l5.4-3.1l-0.3-0.6l-5.4,3.1
				L200.9,158.2z"/>
			<path class="st11" d="M222.6,147.4l0.8,1.3l-11.5,6.6l-0.8-1.3l1.6-0.9l-4.1-7.2l2.9-1.7c-0.1-0.2-0.2-0.5-0.3-0.7L207,146
				l-0.8-1.3l4.5-2.6c-0.2-0.3-0.3-0.7-0.5-1l1.8-0.8c0.1,0.3,0.2,0.6,0.3,0.8l4.7-2.7l0.8,1.3l-5,2.8c0.1,0.2,0.2,0.5,0.2,0.7
				l3.8-2.2l4.1,7.2L222.6,147.4z M210.8,146.3l0.4,0.7l5.3-3l-0.4-0.7L210.8,146.3z M217.1,145l-5.3,3l0.4,0.6l5.3-3L217.1,145z
				 M213.2,150.4l5.3-3l-0.4-0.7l-5.3,3L213.2,150.4z M214.2,152.2l5.3-3l-0.4-0.7l-5.3,3L214.2,152.2z"/>
			<path class="st11" d="M225.6,141.3c-0.3,0.3-0.6,0.7-1,1l1.7,3c0.4,0.7,0.5,1.1,0.2,1.6c-0.2,0.4-0.8,0.8-1.6,1.3
				c-0.2-0.4-0.8-0.9-1.2-1.2c0.5-0.2,0.9-0.5,1-0.6c0.2-0.1,0.2-0.2,0.1-0.3l-1.5-2.6l-1,1l-1.1-1.2c0.4-0.3,0.8-0.8,1.3-1.3
				l-1.3-2.2l-1.3,0.8l-0.8-1.4l1.3-0.8l-1.4-2.4l1.4-0.8l1.4,2.4l1.1-0.6l0.8,1.4l-1.1,0.6l1.1,1.8l0.8-0.8L225.6,141.3z
				 M232.6,138.5c0.2,0.9,0.2,1.7,0,2.5c1-0.1,2-0.2,2.8-0.1l-0.3,1.6c-0.8-0.1-1.9,0-3,0.1c-0.6,1.1-1.6,2.2-3.1,3.5
				c-0.3-0.4-0.9-0.7-1.4-0.9c1.1-0.8,1.9-1.6,2.5-2.3c-0.9,0.1-1.8,0.3-2.6,0.4c0.1-0.5,0.1-1.2,0.2-1.9l-1.5,0.8l-0.7-1.3l2.2-1.3
				c0-0.5-0.1-1-0.1-1.4l-2.6,1.5l-0.7-1.3l1.8-1c-0.3-0.3-0.9-0.7-1.4-0.9l0.8-0.9l-1.8,1l-0.7-1.3l2.7-1.6
				c-0.3-0.2-0.6-0.5-0.9-0.7l1.5-1.2c0.4,0.2,0.9,0.5,1.3,0.8l2.3-1.3l0.7,1.3l-2,1.2l1.3-0.3c0,0.6,0,1.2,0,1.7l1.8-1l0.7,1.3
				l-4.5,2.6l1.3-0.4c0,0.4,0.1,0.7,0.1,1.1l1.6-0.9c-0.1-0.3-0.2-0.6-0.3-0.8l1.5-0.6c0.1,0.2,0.2,0.4,0.2,0.6l1-0.6l0.7,1.3
				L232.6,138.5z M225.8,135.4c0.5,0.2,1.1,0.6,1.4,0.9l-0.7,0.8l1.9-1.1c0-0.6-0.1-1.4-0.2-2L225.8,135.4z M229.3,140.5
				c0,0.4,0,0.7-0.1,1c0.6-0.1,1.1-0.2,1.7-0.3c0.2-0.6,0.2-1.2,0.1-1.8L229.3,140.5z"/>
			<path class="st11" d="M237.5,135l1.7,3c0.4,0.7,0.5,1.2,0.2,1.6c-0.3,0.5-0.9,0.9-1.7,1.4c-0.3-0.4-0.8-0.8-1.2-1.1
				c0.5-0.3,1-0.6,1.2-0.7c0.2-0.1,0.2-0.2,0.1-0.4l-1.5-2.6l-1.1,1.1L234,136c0.4-0.4,0.9-0.8,1.4-1.3l-1.3-2.2l-1.5,0.9l-0.8-1.4
				l1.5-0.9l-1.4-2.4l1.5-0.8l1.4,2.4l1.3-0.8l0.8,1.4l-1.3,0.8l1.1,1.8l0.8-0.8l1,1.3L237.5,135z M238.1,132.2
				c-0.3-0.2-1.2-0.5-1.6-0.5c1.1-1.5,0.8-2.5,0.3-3.4L236,127l4.4-2.5l1.6,2.7c0.2,0.4,0.3,0.5,0.5,0.4l0.7-0.4
				c0.2-0.1,0.5-0.3,0.7-0.5c0.2,0.4,0.6,0.9,0.8,1.2c-0.1,0.2-0.4,0.4-0.7,0.6l-0.8,0.5c-1.2,0.7-1.8,0.3-2.5-0.9l-0.8-1.3
				l-1.6,0.9C238.9,128.8,239.4,130.4,238.1,132.2z M244.7,129.1c0.4,1.8,0.4,3.4-0.1,4.9c1.1-0.1,2.2-0.3,3.4-0.7
				c-0.1,0.5-0.2,1.4-0.1,1.9c-1.4,0.4-2.8,0.6-4,0.5c-0.7,1.2-1.6,2.3-2.7,3.3c-0.4-0.3-1.1-0.8-1.5-1c1-0.8,1.8-1.7,2.4-2.6
				c-1.1-0.3-2.1-0.8-3.1-1.4l0.4-0.4l-0.7,0.4l-0.8-1.4l5.4-3.1l0.2-0.2L244.7,129.1z M240.3,133c0.8,0.4,1.6,0.7,2.5,0.9
				c0.3-0.8,0.5-1.7,0.4-2.6L240.3,133z"/>
			<path class="st11" d="M247.5,122.1l-3.2,1.8l-0.6-1.1l3.2-1.8L247.5,122.1z M252.2,120.1c1.1,0.3,2.6-0.2,4.3-1.1
				c-0.1,0.5-0.2,1.2-0.1,1.7c-1.5,0.6-2.8,0.9-4,0.6c-0.2,0.8-0.9,1.9-2.9,3.4c-0.2-0.2-0.6-0.4-1-0.5l-3.3,1.9l-0.7-1.1l3.8-2.2
				l0.4,0.8c2.3-1.6,2.2-2.4,2-2.8l-0.1-0.2l-0.8,0.4c0,0.6-0.1,1.1-0.3,1.6c-0.4-0.1-1.1-0.1-1.5-0.1c0.3-0.9,0.4-2.1,0.2-3.1
				l1.5-0.5c0,0.2,0.1,0.5,0.1,0.7l3.6-2l0.2-0.2l1.2-0.3c0.1,0.9,0.1,1.9,0,2.6l-1.4,0.2c0-0.3,0-0.6,0-1l-1.4,0.8l0.1,0.3
				L252.2,120.1z M256.8,127.3c1.4-0.2,2.9-0.4,3.9-0.5l-0.9,1.6c-1,0-2.6,0.1-4.1,0.4l0.4-1.1l-3.5,2l1.4-0.1
				c-0.7,1.2-1.9,2.8-3,3.9c-0.4-0.1-1.3-0.4-1.7-0.5c1.1-0.9,2.2-2.1,2.8-3l-1.8,1l-2.9-5.1l8.4-4.8l2.9,5.1L256.8,127.3z
				 M249.6,126.6l5.4-3.1l-0.3-0.5l-5.4,3.1L249.6,126.6z M250.3,128l5.4-3.1l-0.3-0.5l-5.4,3.1L250.3,128z M251.2,129.4l5.4-3.1
				l-0.3-0.6l-5.4,3.1L251.2,129.4z"/>
			<path class="st11" d="M267.2,120.2l0.9,1.6c0.4,0.7,0.4,1.1,0.1,1.6c-0.4,0.5-1,0.9-1.8,1.3c-0.3-0.4-0.8-0.8-1.3-1
				c0.5-0.3,1.1-0.6,1.3-0.7c0.2-0.1,0.2-0.2,0.1-0.3l-0.8-1.5c-2.9,1.9-3.5,2.2-3.8,2.6c-0.2-0.2-0.8-0.8-1.1-1
				c0.5-0.3,0.9-0.8,1.5-1.5c0.2-0.3,0.7-0.8,1.2-1.5c-1.6,1.1-1.9,1.4-2.1,1.6c-0.2-0.2-0.8-0.7-1.1-1c0.3-0.2,0.5-0.5,0.7-0.8
				c0.2-0.2,0.5-0.7,0.8-1.3l-2.1,1.2l-2.6-4.6l9.3-5.3l2.6,4.6l-2.6,1.5l1.3,0.2c-0.9,1.5-1.9,2.9-2.9,4.2l3.5-2.2
				c-0.4-0.1-0.7-0.1-1.1-0.2l0.7-1.3c1.3,0.1,2.9,0.5,3.8,0.8l-0.6,1.5c-0.3-0.1-0.6-0.3-1-0.4L267.2,120.2z M259.4,115.9l2.4-1.4
				l-0.4-0.6l-2.4,1.4L259.4,115.9z M260.4,117.6l2.4-1.4l-0.4-0.6L260,117L260.4,117.6z M265.1,122.6c-0.4,1.1-1.2,2.6-1.9,3.6
				c-0.4-0.1-1.2-0.3-1.7-0.3c0.8-0.9,1.6-2.1,2-3.1L265.1,122.6z M265.5,111.6l-2.5,1.5l0.4,0.6l2.5-1.5L265.5,111.6z M265.1,117.2
				c0.3-0.4,0.5-0.9,0.8-1.3l-2,1.2c-0.3,0.5-0.6,1-0.9,1.5L265.1,117.2z M266.4,113.3l-2.5,1.5l0.4,0.6l2.5-1.5L266.4,113.3z
				 M269,119.5c1.2-0.1,2.9-0.1,3.9,0l-0.7,1.5c-0.9-0.2-2.6-0.2-3.9-0.1L269,119.5z"/>
			<path class="st11" d="M276.6,113.8c-0.3-0.2-0.8-0.5-1.3-0.7l2.8,4.9l-1.5,0.8l-2.5-4.4c0.1,1.1,0.2,2.2,0,3.1
				c-0.4-0.3-1-0.8-1.5-1c0.2-1.2,0.2-3-0.1-4.5l-1.6,0.9l-0.8-1.4l1.7-1l-0.8-1.4c-0.4,0.4-0.9,0.7-1.3,1c-0.2-0.3-0.7-0.7-1.1-0.9
				c1.2-1,2.5-2.2,3.2-3.1l1.6,0.6c-0.4,0.4-0.8,0.9-1.2,1.3l1,1.7l1.2-0.7l-0.1-0.2l2.8-1.6l-0.2-0.4l-2.2,1.3l-0.5-0.9l2.2-1.3
				l-0.2-0.4l-2.4,1.4l-0.5-0.9l2.4-1.4l-0.3-0.6l1.5-0.9l0.3,0.6l2.6-1.5l0.5,0.9l-2.6,1.5l0.2,0.4l2.3-1.3l0.5,0.9l-2.3,1.3
				l0.2,0.4l2.8-1.6l0.5,0.9l-7.1,4.1l0.4,0.7l-1.2,0.7l0.2,0.4c0.6,0.1,2.1,0.6,2.4,0.7L276.6,113.8z M283.3,112.2
				c1,0,2.2,0,2.9,0.1l-0.9,1.5c-0.7-0.1-1.9-0.2-2.9-0.3l0.5-1l-2.3,1.3l1.2,0.1c-0.4,1-1.3,2.3-2.1,3.2c-0.4-0.1-1-0.3-1.4-0.4
				c0.7-0.7,1.4-1.8,1.8-2.6l-1.1,0.6l-2.9-5.1l5.8-3.3l2.9,5.1L283.3,112.2z M278.1,110.3l3-1.7l-0.3-0.5l-3,1.7L278.1,110.3z
				 M278.9,111.7l3-1.7l-0.3-0.5l-3,1.7L278.9,111.7z M279.7,113.1l3-1.7l-0.3-0.5l-3,1.7L279.7,113.1z"/>
			<path class="st11" d="M290.1,102.1l0.7,1.3l4-2.3l0.8,1.3l-2,1.1l1.5-0.3c0,1-0.1,2-0.2,2.8l2.7-1.5l0.8,1.4l-10.9,6.2l-0.8-1.4
				l2.5-1.4c-0.5-0.5-1.4-1-2.2-1.4l0.8-1l-1.8,1l-0.8-1.3l4-2.3l-0.7-1.3l-2.5,1.5l-0.4-0.6c-0.4,0.6-0.8,1.1-1.2,1.6
				c-0.5-0.3-1.2-0.7-1.8-0.8c2-2,3.5-4.6,3.6-7.1l1.8-0.2c0,0.2,0,0.5-0.1,0.7c1.9,0.4,4.5,0.3,6.7-0.3c-0.2,0.5-0.3,1.4-0.3,1.9
				c-0.7,0.1-1.4,0.2-2.1,0.3l0.4,0.7L290.1,102.1z M290.8,99.9c-1.1,0-2.1-0.2-3.1-0.4c-0.2,1-0.6,1.9-1.1,2.8L290.8,99.9z
				 M288.1,106.7c0.8,0.4,1.7,0.9,2.2,1.4l-0.8,1l1.8-1.1l-1.4-2.4L288.1,106.7z M291.6,104.7l1.4,2.4l1.6-0.9l-1,0.1
				c0.1-0.8,0-1.9-0.1-2.7L291.6,104.7z"/>
			<path class="st11" d="M302.9,98.6L302.9,98.6l2.2,3.9l-1.3,0.7l-0.2-0.3l-1.6,0.9l0.2,0.3l-1.2,0.7l-2.1-3.6
				c-0.1,0.1-0.2,0.3-0.4,0.4c-0.3-0.3-1-0.7-1.4-0.8c0.6-0.7,1.2-1.4,1.6-2.2c-0.3,0-0.6,0-0.9,0l0.3-1.3l1.1,0
				c0.1-0.4,0.2-0.8,0.2-1.2l-1.5,0.9c-0.1,0.7-0.2,1.5-0.6,2.2c-0.3-0.2-0.9-0.5-1.3-0.6c0.6-1.2,0.7-2.4,0.5-3.4l1.3-0.4
				c0.1,0.2,0.1,0.5,0.1,0.7l1.6-0.9l0.2-0.2l0,0l-0.5-1l-3.4,1.9l0.6,1.1l-1.1,0.6l-1.3-2.3l2.2-1.3c-0.2-0.2-0.5-0.5-0.7-0.6
				l1-1.1c0.4,0.3,0.8,0.6,1.2,0.9l2-1.1l1.3,2.3l-1,0.6l0.8,0.1c0.2,1,0.1,1.9-0.1,2.8c0.9,0,1.8,0,2.4,0.1L302.9,98.6z
				 M302.4,98.8c-0.6-0.1-1.3-0.1-2.1-0.1c-0.3,0.7-0.6,1.3-1,1.9L302.4,98.8z M308.3,97.3c0.9,0,2.2,0.1,2.9,0.3l-0.3,1.5
				c-0.7-0.2-2.1-0.4-3-0.5l0.3-1.3l-1.9,1.1l1.4,0.4c-0.4,1-1.1,2.3-1.8,3.2c-0.3-0.2-0.9-0.6-1.2-0.7c0.6-0.8,1.2-2,1.5-2.8
				l-1.3,0.8l-3.8-6.6l1.6-0.9c-0.1-0.3-0.2-0.6-0.4-0.9l-2,1.2l-0.7-1.3l5.6-3.2l0.7,1.3l-2.2,1.3c0.1,0.3,0.2,0.7,0.2,1l2.2-1.2
				l3.8,6.6L308.3,97.3z M302.9,101.7l-0.7-1.2l-1.6,0.9l0.7,1.2L302.9,101.7z M303.4,93.8l2.2-1.3l-0.4-0.7l-2.2,1.3L303.4,93.8z
				 M304.5,95.6l2.2-1.3l-0.4-0.7l-2.2,1.3L304.5,95.6z M305.5,97.4l2.2-1.3l-0.4-0.7l-2.2,1.3L305.5,97.4z"/>
		</g>
	</g>
	<line class="st19" x1="45.7" y1="431.1" x2="486.3" y2="431.1"/>
	<line class="st19" x1="45.7" y1="385.1" x2="486.3" y2="385.1"/>
	<line class="st19" x1="45.7" y1="338.1" x2="486.3" y2="338.1"/>
	<line class="st19" x1="45.7" y1="476.8" x2="486.3" y2="476.8"/>
	<line class="st19" x1="45.7" y1="520.9" x2="486.3" y2="520.9"/>
	<line class="st20" x1="45.7" y1="566.6" x2="486.3" y2="566.6"/>
	<path class="st21" d="M51.6,564.3l15-1.2l5.1-2.4l8.2-3.4c0,0,13-5.8,15.4-11.8l10.5-1.2l8.8-1.5l9.2-3.6l13.9-4.6l14.9-8l19.6-3.8
		l13.4-6.8h5.9l21.7-10.1l15.3-7.5l9.3-8.2l31.7-11.3l22.5-13h17.5l7.1-2.2l7.1-16.4l13.4-7l12.1-12.1l9.6-1.2l10.1-1.2l4.6-1.5
		l6.7-8.7h7.1l6.7-1.9l8.4-5.3l6.7-2.2l9.2-2.2h4.6l12.6-8.2l7.1-3.4l8.8-6.3l9.2-5.5l7.5-4.4l2.9-2.4h6.7"/>
	<g>
		<g>
			<defs>
				<polygon id="SVGID_00000127016105840308922870000015174063189260136893_" points="471.3,355.3 487.4,372.3 478.5,382.2 
					470,368.1 				"/>
			</defs>
			<clipPath id="SVGID_00000090279623276918673780000016181178950528461474_">
				<use xlink:href="#SVGID_00000127016105840308922870000015174063189260136893_"  style="overflow:visible;"/>
			</clipPath>
			<path style="clip-path:url(#SVGID_00000090279623276918673780000016181178950528461474_);fill:#D83712;" d="M470.7,367.2
				c0-0.3-1.7-0.8,3.7,1c6.8,2.3,10.2,1.1,11.3,2.7c0.5,0.8,0.2,1.5-0.6,2.9c-2.6,4.2-6.7,8.2-7.2,7.6s3.3-3.1,1-6.6
				c-0.7-1-0.3-1.8-4.5-4.4C467.8,366.3,470.7,367.4,470.7,367.2"/>
		</g>
	</g>
	<text transform="matrix(1 0 0 1 43.7385 585.7536)" class="st11 st12" style="font-size:18px;">2017</text>
	<text transform="matrix(1 0 0 1 123.4204 585.7536)" class="st11 st12" style="font-size:18px;">2018</text>
	<text transform="matrix(1 0 0 1 199.568 585.7536)" class="st11 st12" style="font-size:18px;">2019</text>
	<text transform="matrix(1 0 0 1 273.5833 585.7536)" class="st11 st12" style="font-size:18px;">2020</text>
	<text transform="matrix(1 0 0 1 352.6022 585.7536)" class="st11 st12" style="font-size:18px;">2021</text>
	<text transform="matrix(1 0 0 1 426.8741 585.7536)" class="st11 st12" style="font-size:18px;">2022</text>
	
		<text transform="matrix(1 0 0 1 9.1153 327.3278)" class="st11" style="font-family:'SourceHanSansTC-Regular-B5pc-H'; font-size:14px;">(10億美元)</text>
	<text transform="matrix(1 0 0 1 11.463 344.571)" class="st24 st12" style="font-size:14px;">250</text>
	<text transform="matrix(1 0 0 1 11.463 389.6315)" class="st24 st12" style="font-size:14px;">200</text>
	<text transform="matrix(1 0 0 1 11.463 434.6901)" class="st24 st12" style="font-size:14px;">150</text>
	<text transform="matrix(1 0 0 1 11.463 479.7507)" class="st24 st12" style="font-size:14px;">100</text>
	<text transform="matrix(1 0 0 1 16.0665 524.8093)" class="st24 st12" style="font-size:14px;">50</text>
	<text transform="matrix(1 0 0 1 20.6705 569.8688)" class="st24 st12" style="font-size:14px;">0</text>
	<g>
		<g>
			
				<rect x="162.8" y="432.4" transform="matrix(0.8676 -0.4972 0.4972 0.8676 -191.8807 175.8863)" class="st6" width="143.1" height="31.8"/>
			<polygon class="st6" points="333.6,391.5 274.7,381.3 312.6,447.5 			"/>
		</g>
		<text transform="matrix(0.8676 -0.4972 0.4972 0.8676 185.8396 482.0948)" class="st11 st12" style="font-size:14.4726px;">外資直接投資累積金額</text>
	</g>
</g>
</svg>
