<?xml version="1.0" encoding="UTF-8"?>
<svg id="_圖層_4" data-name="圖層 4" xmlns="http://www.w3.org/2000/svg" viewBox="0 0 1168.46 464.8">
  <defs>
    <style>
      .cls-1 {
        fill: #8064a2;
      }

      .cls-2 {
        stroke: #000;
        stroke-miterlimit: 10;
      }

      .cls-2, .cls-3 {
        fill: none;
      }

      .cls-4 {
        fill: #b31c31;
      }

      .cls-3 {
        stroke: #005598;
        stroke-linecap: round;
        stroke-linejoin: round;
        stroke-width: 4px;
      }

      .cls-5 {
        fill: #231815;
      }
    </style>
  </defs>
  <g>
    <path class="cls-5" d="M8.23,38.99c0-1.95,1.43-3.3,2.83-4.05v-.08c-1.11-.76-2.08-1.87-2.08-3.46,0-2.29,1.83-3.82,4.22-3.82,2.62,0,4.22,1.64,4.22,3.97,0,1.57-1.15,2.92-2.06,3.61v.1c1.32,.8,2.6,1.85,2.6,3.84,0,2.25-1.93,3.99-4.83,3.99s-4.91-1.72-4.91-4.09Zm7.92,.06c0-1.95-1.89-2.65-4.07-3.51-1.22,.78-2.1,1.89-2.1,3.28,0,1.64,1.36,2.83,3.21,2.83s2.96-1.07,2.96-2.6Zm-.36-7.41c0-1.47-.94-2.65-2.6-2.65-1.43,0-2.46,.94-2.46,2.39,0,1.81,1.66,2.56,3.46,3.28,1.03-.92,1.6-1.91,1.6-3.02Z"/>
    <path class="cls-5" d="M19.97,35.28c0-5.02,1.83-7.71,4.81-7.71s4.79,2.71,4.79,7.71-1.81,7.81-4.79,7.81-4.81-2.79-4.81-7.81Zm7.73,0c0-4.39-1.18-6.17-2.92-6.17s-2.94,1.78-2.94,6.17,1.18,6.28,2.94,6.28,2.92-1.89,2.92-6.28Z"/>
    <path class="cls-5" d="M15.77,62.48h-7.45v-1.64h9.64v1.18c-3.53,4.54-4.28,7.96-4.51,13.79h-1.99c.25-5.65,1.39-9.22,4.33-13.33Z"/>
    <path class="cls-5" d="M19.97,68.28c0-5.02,1.83-7.71,4.81-7.71s4.79,2.71,4.79,7.71-1.81,7.81-4.79,7.81-4.81-2.79-4.81-7.81Zm7.73,0c0-4.39-1.18-6.17-2.92-6.17s-2.94,1.78-2.94,6.17,1.18,6.28,2.94,6.28,2.92-1.89,2.92-6.28Z"/>
    <path class="cls-5" d="M8.42,101.91c0-6.03,2.71-8.34,5.71-8.34,1.6,0,2.75,.67,3.59,1.57l-1.07,1.2c-.61-.73-1.53-1.18-2.46-1.18-2.12,0-3.88,1.62-3.97,6.38,.97-1.15,2.29-1.87,3.51-1.87,2.58,0,4.26,1.55,4.26,4.6,0,2.88-2.02,4.81-4.41,4.81-2.96,0-5.17-2.39-5.17-7.18Zm1.85,1.2c.25,2.92,1.41,4.49,3.3,4.49,1.49,0,2.62-1.32,2.62-3.32s-.92-3.17-2.77-3.17c-.97,0-2.14,.52-3.15,1.99Z"/>
    <path class="cls-5" d="M19.97,101.28c0-5.02,1.83-7.71,4.81-7.71s4.79,2.71,4.79,7.71-1.81,7.81-4.79,7.81-4.81-2.79-4.81-7.81Zm7.73,0c0-4.39-1.18-6.17-2.92-6.17s-2.94,1.78-2.94,6.17,1.18,6.28,2.94,6.28,2.92-1.89,2.92-6.28Z"/>
    <path class="cls-5" d="M7.87,140.05l.94-1.26c.88,.88,1.99,1.7,3.78,1.7s3.28-1.32,3.28-3.4-1.26-3.32-3.19-3.32c-1.03,0-1.68,.34-2.56,.92l-1.03-.65,.48-7.2h7.5v1.64h-5.82l-.38,4.47c.69-.38,1.36-.63,2.29-.63,2.56,0,4.64,1.47,4.64,4.7s-2.44,5.06-5.04,5.06c-2.39,0-3.86-1.01-4.89-2.04Z"/>
    <path class="cls-5" d="M19.97,134.28c0-5.02,1.83-7.71,4.81-7.71s4.79,2.71,4.79,7.71-1.81,7.81-4.79,7.81-4.81-2.79-4.81-7.81Zm7.73,0c0-4.39-1.18-6.17-2.92-6.17s-2.94,1.78-2.94,6.17,1.18,6.28,2.94,6.28,2.92-1.89,2.92-6.28Z"/>
    <path class="cls-5" d="M14.43,170.68H7.71v-1.26l6.4-9.57h2.12v9.3h2.04v1.53h-2.04v4.14h-1.81v-4.14Zm0-1.53v-4.39c0-.78,.06-2.06,.1-2.86h-.08c-.38,.71-.8,1.36-1.24,2.1l-3.51,5.14h4.72Z"/>
    <path class="cls-5" d="M19.97,167.28c0-5.02,1.83-7.71,4.81-7.71s4.79,2.71,4.79,7.71-1.81,7.81-4.79,7.81-4.81-2.79-4.81-7.81Zm7.73,0c0-4.39-1.18-6.17-2.92-6.17s-2.94,1.78-2.94,6.17,1.18,6.28,2.94,6.28,2.92-1.89,2.92-6.28Z"/>
    <path class="cls-5" d="M7.9,205.99l.97-1.26c.9,.94,2.08,1.76,3.82,1.76s3.13-1.07,3.13-2.75c0-1.78-1.24-2.96-4.79-2.96v-1.47c3.17,0,4.26-1.24,4.26-2.81,0-1.45-1.01-2.37-2.6-2.37-1.24,0-2.33,.63-3.19,1.51l-1.03-1.2c1.15-1.09,2.52-1.87,4.3-1.87,2.58,0,4.47,1.36,4.47,3.8,0,1.81-1.11,2.96-2.73,3.55v.08c1.81,.44,3.25,1.76,3.25,3.82,0,2.67-2.2,4.26-4.93,4.26-2.41,0-3.93-1.01-4.93-2.1Z"/>
    <path class="cls-5" d="M19.97,200.28c0-5.02,1.83-7.71,4.81-7.71s4.79,2.71,4.79,7.71-1.81,7.81-4.79,7.81-4.81-2.79-4.81-7.81Zm7.73,0c0-4.39-1.18-6.17-2.92-6.17s-2.94,1.78-2.94,6.17,1.18,6.28,2.94,6.28,2.92-1.89,2.92-6.28Z"/>
    <path class="cls-5" d="M8.21,239.68c4.51-4.49,7.05-7.18,7.05-9.64,0-1.7-.92-2.92-2.83-2.92-1.26,0-2.35,.8-3.19,1.78l-1.11-1.07c1.26-1.36,2.58-2.27,4.54-2.27,2.75,0,4.47,1.74,4.47,4.39,0,2.81-2.56,5.61-6.11,9.34,.8-.06,1.72-.15,2.52-.15h4.35v1.66H8.21v-1.13Z"/>
    <path class="cls-5" d="M19.97,233.28c0-5.02,1.83-7.71,4.81-7.71s4.79,2.71,4.79,7.71-1.81,7.81-4.79,7.81-4.81-2.79-4.81-7.81Zm7.73,0c0-4.39-1.18-6.17-2.92-6.17s-2.94,1.78-2.94,6.17,1.18,6.28,2.94,6.28,2.92-1.89,2.92-6.28Z"/>
    <path class="cls-5" d="M9.13,272.22h3.42v-11.04h-2.73v-1.24c1.36-.23,2.35-.59,3.19-1.09h1.47v13.38h3.09v1.6H9.13v-1.6Z"/>
    <path class="cls-5" d="M19.97,266.28c0-5.02,1.83-7.71,4.81-7.71s4.79,2.71,4.79,7.71-1.81,7.81-4.79,7.81-4.81-2.79-4.81-7.81Zm7.73,0c0-4.39-1.18-6.17-2.92-6.17s-2.94,1.79-2.94,6.17,1.18,6.28,2.94,6.28,2.92-1.89,2.92-6.28Z"/>
    <path class="cls-5" d="M19.97,299.28c0-5.02,1.83-7.71,4.81-7.71s4.79,2.71,4.79,7.71-1.81,7.81-4.79,7.81-4.81-2.79-4.81-7.81Zm7.73,0c0-4.39-1.18-6.17-2.92-6.17s-2.94,1.79-2.94,6.17,1.18,6.28,2.94,6.28,2.92-1.89,2.92-6.28Z"/>
    <path class="cls-5" d="M.97,333.2H6.34v1.47H.97v-1.47Z"/>
    <path class="cls-5" d="M9.13,338.22h3.42v-11.04h-2.73v-1.24c1.36-.23,2.35-.59,3.19-1.09h1.47v13.38h3.09v1.6H9.13v-1.6Z"/>
    <path class="cls-5" d="M19.97,332.28c0-5.02,1.83-7.71,4.81-7.71s4.79,2.71,4.79,7.71-1.81,7.81-4.79,7.81-4.81-2.79-4.81-7.81Zm7.73,0c0-4.39-1.18-6.17-2.92-6.17s-2.94,1.79-2.94,6.17,1.18,6.28,2.94,6.28,2.92-1.89,2.92-6.28Z"/>
    <path class="cls-5" d="M.97,366.2H6.34v1.47H.97v-1.47Z"/>
    <path class="cls-5" d="M8.21,371.68c4.51-4.49,7.05-7.18,7.05-9.64,0-1.7-.92-2.92-2.83-2.92-1.26,0-2.35,.8-3.19,1.79l-1.11-1.07c1.26-1.36,2.58-2.27,4.54-2.27,2.75,0,4.47,1.74,4.47,4.39,0,2.81-2.56,5.61-6.11,9.34,.8-.06,1.72-.15,2.52-.15h4.35v1.66H8.21v-1.13Z"/>
    <path class="cls-5" d="M19.97,365.28c0-5.02,1.83-7.71,4.81-7.71s4.79,2.71,4.79,7.71-1.81,7.81-4.79,7.81-4.81-2.79-4.81-7.81Zm7.73,0c0-4.39-1.18-6.17-2.92-6.17s-2.94,1.79-2.94,6.17,1.18,6.28,2.94,6.28,2.92-1.89,2.92-6.28Z"/>
  </g>
  <g>
    <path class="cls-5" d="M43.68,458.23v6.72h-1.4v-8.69h1.01c3.89,3.18,6.82,3.86,11.83,4.07v1.8c-4.84-.23-7.9-1.25-11.43-3.9Z"/>
    <path class="cls-5" d="M40.82,449.95v-1.25l17.52,5.66v1.27l-17.52-5.68Z"/>
    <path class="cls-5" d="M53.75,447.22v-3.09h-9.47v2.46h-1.06c-.2-1.23-.5-2.12-.94-2.88v-1.33h11.47v-2.78h1.37v7.61h-1.37Z"/>
    <path class="cls-5" d="M54.14,438.01c-3.85-4.07-6.16-6.36-8.26-6.36-1.46,0-2.5,.83-2.5,2.56,0,1.14,.68,2.12,1.53,2.88l-.92,1c-1.17-1.14-1.94-2.33-1.94-4.09,0-2.48,1.49-4.03,3.76-4.03,2.41,0,4.81,2.31,8.01,5.51-.05-.72-.13-1.55-.13-2.27v-3.92h1.42v8.73h-.97Z"/>
    <path class="cls-5" d="M40.82,422.92v-1.25l17.52,5.66v1.27l-17.52-5.68Z"/>
    <path class="cls-5" d="M54.14,421.02c-3.85-4.07-6.16-6.36-8.26-6.36-1.46,0-2.5,.83-2.5,2.56,0,1.14,.68,2.12,1.53,2.88l-.92,1c-1.17-1.14-1.94-2.33-1.94-4.09,0-2.48,1.49-4.03,3.76-4.03,2.41,0,4.81,2.31,8.01,5.51-.05-.72-.13-1.55-.13-2.27v-3.92h1.42v8.73h-.97Z"/>
    <path class="cls-5" d="M48.65,410.89c-4.3,0-6.61-1.65-6.61-4.34s2.32-4.32,6.61-4.32,6.7,1.63,6.7,4.32-2.39,4.34-6.7,4.34Zm0-6.97c-3.76,0-5.29,1.06-5.29,2.63s1.53,2.65,5.29,2.65,5.38-1.06,5.38-2.65-1.62-2.63-5.38-2.63Z"/>
    <path class="cls-5" d="M48.65,400.85c-4.3,0-6.61-1.65-6.61-4.34s2.32-4.32,6.61-4.32,6.7,1.63,6.7,4.32-2.39,4.34-6.7,4.34Zm0-6.97c-3.76,0-5.29,1.06-5.29,2.63s1.53,2.65,5.29,2.65,5.38-1.06,5.38-2.65-1.62-2.63-5.38-2.63Z"/>
    <path class="cls-5" d="M43.68,384.09v6.72h-1.4v-8.69h1.01c3.89,3.18,6.82,3.86,11.83,4.07v1.8c-4.84-.23-7.9-1.25-11.43-3.9Z"/>
  </g>
  <g>
    <path class="cls-5" d="M113.56,458.25v6.72h-1.4v-8.69h1.01c3.89,3.18,6.82,3.86,11.83,4.07v1.8c-4.84-.23-7.9-1.25-11.43-3.9Z"/>
    <path class="cls-5" d="M110.7,449.97v-1.25l17.52,5.66v1.27l-17.52-5.68Z"/>
    <path class="cls-5" d="M123.43,448.36l-1.08-.87c.81-.81,1.51-1.87,1.51-3.45,0-1.65-.92-2.82-2.36-2.82-1.53,0-2.54,1.12-2.54,4.32h-1.26c0-2.86-1.06-3.84-2.41-3.84-1.24,0-2.03,.91-2.03,2.35,0,1.12,.54,2.1,1.3,2.88l-1.03,.93c-.94-1.04-1.6-2.27-1.6-3.88,0-2.33,1.17-4.03,3.26-4.03,1.55,0,2.54,1,3.04,2.46h.07c.38-1.63,1.51-2.93,3.28-2.93,2.29,0,3.65,1.99,3.65,4.45,0,2.18-.86,3.54-1.8,4.45Z"/>
    <path class="cls-5" d="M123.63,437.2v-3.09h-9.47v2.46h-1.06c-.2-1.23-.5-2.12-.94-2.88v-1.33h11.47v-2.78h1.37v7.61h-1.37Z"/>
    <path class="cls-5" d="M110.7,422.94v-1.25l17.52,5.66v1.27l-17.52-5.68Z"/>
    <path class="cls-5" d="M124.03,421.04c-3.85-4.07-6.16-6.36-8.26-6.36-1.46,0-2.5,.83-2.5,2.56,0,1.14,.68,2.12,1.53,2.88l-.92,1c-1.17-1.14-1.94-2.33-1.94-4.09,0-2.48,1.49-4.03,3.76-4.03,2.41,0,4.81,2.31,8.01,5.51-.05-.72-.13-1.55-.13-2.27v-3.92h1.42v8.73h-.97Z"/>
    <path class="cls-5" d="M118.53,410.91c-4.3,0-6.61-1.65-6.61-4.34s2.32-4.32,6.61-4.32,6.7,1.63,6.7,4.32-2.39,4.34-6.7,4.34Zm0-6.97c-3.76,0-5.29,1.06-5.29,2.63s1.53,2.65,5.29,2.65,5.38-1.06,5.38-2.65-1.62-2.63-5.38-2.63Z"/>
    <path class="cls-5" d="M118.53,400.87c-4.3,0-6.61-1.65-6.61-4.34s2.32-4.32,6.61-4.32,6.7,1.63,6.7,4.32-2.39,4.34-6.7,4.34Zm0-6.97c-3.76,0-5.29,1.06-5.29,2.63s1.53,2.65,5.29,2.65,5.38-1.06,5.38-2.65-1.62-2.63-5.38-2.63Z"/>
    <path class="cls-5" d="M121.72,390.91c-1.67,0-2.83-1.29-3.48-2.56h-.07c-.65,1-1.6,1.88-2.97,1.88-1.96,0-3.28-1.65-3.28-3.81,0-2.37,1.4-3.81,3.4-3.81,1.35,0,2.5,1.04,3.1,1.86h.09c.68-1.19,1.58-2.35,3.29-2.35,1.93,0,3.42,1.74,3.42,4.36s-1.48,4.43-3.51,4.43Zm-6.3-6.82c-1.26,0-2.27,.85-2.27,2.35,0,1.29,.81,2.22,2.05,2.22,1.55,0,2.2-1.5,2.81-3.12-.79-.93-1.64-1.44-2.59-1.44Zm6.36-.32c-1.67,0-2.27,1.7-3.01,3.67,.67,1.1,1.62,1.89,2.81,1.89,1.4,0,2.43-1.23,2.43-2.9s-.92-2.67-2.23-2.67Z"/>
  </g>
  <g>
    <path class="cls-5" d="M184.45,458.06v6.72h-1.4v-8.69h1.01c3.89,3.18,6.82,3.86,11.83,4.07v1.8c-4.84-.23-7.9-1.25-11.43-3.9Z"/>
    <path class="cls-5" d="M181.58,449.78v-1.25l17.52,5.66v1.27l-17.52-5.68Z"/>
    <path class="cls-5" d="M194.31,448.17l-1.08-.87c.81-.81,1.51-1.87,1.51-3.45,0-1.65-.92-2.82-2.36-2.82-1.53,0-2.54,1.12-2.54,4.32h-1.26c0-2.86-1.06-3.84-2.41-3.84-1.24,0-2.03,.91-2.03,2.35,0,1.12,.54,2.1,1.3,2.88l-1.03,.93c-.94-1.04-1.6-2.27-1.6-3.88,0-2.33,1.17-4.03,3.26-4.03,1.55,0,2.54,1,3.04,2.46h.07c.38-1.63,1.51-2.93,3.28-2.93,2.29,0,3.65,1.99,3.65,4.45,0,2.18-.86,3.54-1.8,4.45Z"/>
    <path class="cls-5" d="M194.51,437.01v-3.09h-9.47v2.46h-1.06c-.2-1.23-.5-2.12-.94-2.88v-1.33h11.47v-2.78h1.37v7.61h-1.37Z"/>
    <path class="cls-5" d="M181.58,422.75v-1.25l17.52,5.66v1.27l-17.52-5.68Z"/>
    <path class="cls-5" d="M194.91,420.85c-3.85-4.07-6.16-6.36-8.26-6.36-1.46,0-2.5,.83-2.5,2.56,0,1.14,.68,2.12,1.53,2.88l-.92,1c-1.17-1.14-1.94-2.33-1.94-4.09,0-2.48,1.49-4.03,3.76-4.03,2.41,0,4.81,2.31,8.01,5.51-.05-.72-.13-1.55-.13-2.27v-3.92h1.42v8.73h-.97Z"/>
    <path class="cls-5" d="M189.42,410.72c-4.3,0-6.61-1.65-6.61-4.34s2.32-4.32,6.61-4.32,6.7,1.63,6.7,4.32-2.39,4.34-6.7,4.34Zm0-6.97c-3.76,0-5.29,1.06-5.29,2.63s1.53,2.65,5.29,2.65,5.38-1.06,5.38-2.65-1.62-2.63-5.38-2.63Z"/>
    <path class="cls-5" d="M189.42,400.68c-4.3,0-6.61-1.65-6.61-4.34s2.32-4.32,6.61-4.32,6.7,1.63,6.7,4.32-2.39,4.34-6.7,4.34Zm0-6.97c-3.76,0-5.29,1.06-5.29,2.63s1.53,2.65,5.29,2.65,5.38-1.06,5.38-2.65-1.62-2.63-5.38-2.63Z"/>
    <path class="cls-5" d="M194.77,390.47l-1.03-.97c.63-.53,1.01-1.36,1.01-2.22,0-1.89-1.4-3.5-5.51-3.58,1.03,.87,1.66,2.06,1.66,3.16,0,2.35-1.35,3.86-3.98,3.86-2.45,0-4.1-1.82-4.1-3.98,0-2.67,2.05-4.66,6.18-4.66,5.15,0,7.13,2.44,7.13,5.13,0,1.44-.58,2.5-1.35,3.24Zm-5.1-3.88c0-.87-.52-1.97-1.75-2.84-2.48,.23-3.82,1.29-3.82,3.01,0,1.33,1.12,2.35,2.81,2.35s2.75-.83,2.75-2.52Z"/>
  </g>
  <g>
    <path class="cls-5" d="M257.33,458.18v6.72h-1.4v-8.69h1.01c3.89,3.18,6.82,3.86,11.83,4.07v1.8c-4.84-.23-7.9-1.25-11.43-3.9Z"/>
    <path class="cls-5" d="M254.47,449.91v-1.25l17.52,5.66v1.27l-17.52-5.68Z"/>
    <path class="cls-5" d="M267.2,448.29l-1.08-.87c.81-.81,1.51-1.87,1.51-3.45,0-1.65-.92-2.82-2.36-2.82-1.53,0-2.54,1.12-2.54,4.32h-1.26c0-2.86-1.06-3.84-2.41-3.84-1.24,0-2.03,.91-2.03,2.35,0,1.12,.54,2.1,1.3,2.88l-1.03,.93c-.94-1.04-1.6-2.27-1.6-3.88,0-2.33,1.17-4.03,3.26-4.03,1.55,0,2.54,1,3.04,2.46h.07c.38-1.63,1.51-2.93,3.28-2.93,2.29,0,3.65,1.99,3.65,4.45,0,2.18-.86,3.54-1.8,4.45Z"/>
    <path class="cls-5" d="M267.4,437.14v-3.09h-9.47v2.46h-1.06c-.2-1.23-.5-2.12-.94-2.88v-1.33h11.47v-2.78h1.37v7.61h-1.37Z"/>
    <path class="cls-5" d="M254.47,422.88v-1.25l17.52,5.66v1.27l-17.52-5.68Z"/>
    <path class="cls-5" d="M267.79,420.98c-3.85-4.07-6.16-6.36-8.26-6.36-1.46,0-2.5,.83-2.5,2.56,0,1.14,.68,2.12,1.53,2.88l-.92,1c-1.17-1.14-1.94-2.33-1.94-4.09,0-2.48,1.49-4.03,3.76-4.03,2.41,0,4.81,2.31,8.01,5.51-.05-.72-.13-1.55-.13-2.27v-3.92h1.42v8.73h-.97Z"/>
    <path class="cls-5" d="M262.3,410.84c-4.3,0-6.61-1.65-6.61-4.34s2.32-4.32,6.61-4.32,6.7,1.63,6.7,4.32-2.39,4.34-6.7,4.34Zm0-6.97c-3.76,0-5.29,1.06-5.29,2.63s1.53,2.65,5.29,2.65,5.38-1.06,5.38-2.65-1.62-2.63-5.38-2.63Z"/>
    <path class="cls-5" d="M267.4,400.07v-3.09h-9.47v2.46h-1.06c-.2-1.23-.5-2.12-.94-2.88v-1.33h11.47v-2.78h1.37v7.61h-1.37Z"/>
    <path class="cls-5" d="M262.3,390.77c-4.3,0-6.61-1.65-6.61-4.34s2.32-4.32,6.61-4.32,6.7,1.63,6.7,4.32-2.39,4.34-6.7,4.34Zm0-6.97c-3.76,0-5.29,1.06-5.29,2.63s1.53,2.65,5.29,2.65,5.38-1.06,5.38-2.65-1.62-2.63-5.38-2.63Z"/>
  </g>
  <g>
    <path class="cls-5" d="M330.21,457.85v6.72h-1.4v-8.69h1.01c3.89,3.18,6.82,3.86,11.83,4.07v1.8c-4.84-.23-7.9-1.25-11.43-3.9Z"/>
    <path class="cls-5" d="M327.35,449.57v-1.25l17.52,5.66v1.27l-17.52-5.68Z"/>
    <path class="cls-5" d="M340.08,447.96l-1.08-.87c.81-.81,1.51-1.87,1.51-3.45,0-1.65-.92-2.82-2.36-2.82-1.53,0-2.54,1.12-2.54,4.32h-1.26c0-2.86-1.06-3.84-2.41-3.84-1.24,0-2.03,.91-2.03,2.35,0,1.12,.54,2.1,1.3,2.88l-1.03,.93c-.94-1.04-1.6-2.27-1.6-3.88,0-2.33,1.17-4.03,3.26-4.03,1.55,0,2.54,1,3.04,2.46h.07c.38-1.63,1.51-2.93,3.28-2.93,2.29,0,3.65,1.99,3.65,4.45,0,2.18-.86,3.54-1.8,4.45Z"/>
    <path class="cls-5" d="M340.28,436.8v-3.09h-9.47v2.46h-1.06c-.2-1.23-.5-2.12-.94-2.88v-1.33h11.47v-2.78h1.37v7.61h-1.37Z"/>
    <path class="cls-5" d="M327.35,422.54v-1.25l17.52,5.66v1.27l-17.52-5.68Z"/>
    <path class="cls-5" d="M340.68,420.64c-3.85-4.07-6.16-6.36-8.26-6.36-1.46,0-2.5,.83-2.5,2.56,0,1.14,.68,2.12,1.53,2.88l-.92,1c-1.17-1.14-1.94-2.33-1.94-4.09,0-2.48,1.49-4.03,3.76-4.03,2.41,0,4.81,2.31,8.01,5.51-.05-.72-.13-1.55-.13-2.27v-3.92h1.42v8.73h-.97Z"/>
    <path class="cls-5" d="M335.18,410.51c-4.3,0-6.61-1.65-6.61-4.34s2.32-4.32,6.61-4.32,6.7,1.63,6.7,4.32-2.39,4.34-6.7,4.34Zm0-6.97c-3.76,0-5.29,1.06-5.29,2.63s1.53,2.65,5.29,2.65,5.38-1.06,5.38-2.65-1.62-2.63-5.38-2.63Z"/>
    <path class="cls-5" d="M340.28,399.73v-3.09h-9.47v2.46h-1.06c-.2-1.23-.5-2.12-.94-2.88v-1.33h11.47v-2.78h1.37v7.61h-1.37Z"/>
    <path class="cls-5" d="M340.28,389.69v-3.09h-9.47v2.46h-1.06c-.2-1.23-.5-2.12-.94-2.88v-1.33h11.47v-2.78h1.37v7.61h-1.37Z"/>
  </g>
  <g>
    <path class="cls-5" d="M402.1,458.16v6.72h-1.4v-8.69h1.01c3.89,3.18,6.82,3.86,11.83,4.07v1.8c-4.84-.23-7.9-1.25-11.43-3.9Z"/>
    <path class="cls-5" d="M399.23,449.89v-1.25l17.52,5.66v1.27l-17.52-5.68Z"/>
    <path class="cls-5" d="M411.96,448.27l-1.08-.87c.81-.81,1.51-1.87,1.51-3.45,0-1.65-.92-2.82-2.36-2.82-1.53,0-2.54,1.12-2.54,4.32h-1.26c0-2.86-1.06-3.84-2.41-3.84-1.24,0-2.03,.91-2.03,2.35,0,1.12,.54,2.1,1.3,2.88l-1.03,.93c-.94-1.04-1.6-2.27-1.6-3.88,0-2.33,1.17-4.03,3.26-4.03,1.55,0,2.54,1,3.04,2.46h.07c.38-1.63,1.51-2.93,3.28-2.93,2.29,0,3.65,1.99,3.65,4.45,0,2.18-.86,3.54-1.8,4.45Z"/>
    <path class="cls-5" d="M412.16,437.12v-3.09h-9.47v2.46h-1.06c-.2-1.23-.5-2.12-.94-2.88v-1.33h11.47v-2.78h1.37v7.61h-1.37Z"/>
    <path class="cls-5" d="M399.23,422.86v-1.25l17.52,5.66v1.27l-17.52-5.68Z"/>
    <path class="cls-5" d="M412.56,420.96c-3.85-4.07-6.16-6.36-8.26-6.36-1.46,0-2.5,.83-2.5,2.56,0,1.14,.68,2.12,1.53,2.88l-.92,1c-1.17-1.14-1.94-2.33-1.94-4.09,0-2.48,1.49-4.03,3.76-4.03,2.41,0,4.81,2.31,8.01,5.51-.05-.72-.13-1.55-.13-2.27v-3.92h1.42v8.73h-.97Z"/>
    <path class="cls-5" d="M407.07,410.82c-4.3,0-6.61-1.65-6.61-4.34s2.32-4.32,6.61-4.32,6.7,1.63,6.7,4.32-2.39,4.34-6.7,4.34Zm0-6.97c-3.76,0-5.29,1.06-5.29,2.63s1.53,2.65,5.29,2.65,5.38-1.06,5.38-2.65-1.62-2.63-5.38-2.63Z"/>
    <path class="cls-5" d="M412.16,400.05v-3.09h-9.47v2.46h-1.06c-.2-1.23-.5-2.12-.94-2.88v-1.33h11.47v-2.78h1.37v7.61h-1.37Z"/>
    <path class="cls-5" d="M412.56,390.84c-3.85-4.07-6.16-6.36-8.26-6.36-1.46,0-2.5,.83-2.5,2.56,0,1.14,.68,2.12,1.53,2.88l-.92,1c-1.17-1.14-1.94-2.33-1.94-4.09,0-2.48,1.49-4.03,3.76-4.03,2.41,0,4.81,2.31,8.01,5.51-.05-.72-.13-1.55-.13-2.27v-3.92h1.42v8.73h-.97Z"/>
  </g>
  <g>
    <path class="cls-5" d="M473.98,458.04v6.72h-1.4v-8.69h1.01c3.89,3.18,6.82,3.86,11.83,4.07v1.8c-4.84-.23-7.9-1.25-11.43-3.9Z"/>
    <path class="cls-5" d="M471.12,449.76v-1.25l17.52,5.66v1.27l-17.52-5.68Z"/>
    <path class="cls-5" d="M483.85,448.15l-1.08-.87c.81-.81,1.51-1.87,1.51-3.45,0-1.65-.92-2.82-2.36-2.82-1.53,0-2.54,1.12-2.54,4.32h-1.26c0-2.86-1.06-3.84-2.41-3.84-1.24,0-2.03,.91-2.03,2.35,0,1.12,.54,2.1,1.3,2.88l-1.03,.93c-.94-1.04-1.6-2.27-1.6-3.88,0-2.33,1.17-4.03,3.26-4.03,1.55,0,2.54,1,3.04,2.46h.07c.38-1.63,1.51-2.93,3.28-2.93,2.29,0,3.65,1.99,3.65,4.45,0,2.18-.86,3.54-1.8,4.45Z"/>
    <path class="cls-5" d="M484.04,436.99v-3.09h-9.47v2.46h-1.06c-.2-1.23-.5-2.12-.94-2.88v-1.33h11.47v-2.78h1.37v7.61h-1.37Z"/>
    <path class="cls-5" d="M471.12,422.73v-1.25l17.52,5.66v1.27l-17.52-5.68Z"/>
    <path class="cls-5" d="M484.44,420.83c-3.85-4.07-6.16-6.36-8.26-6.36-1.46,0-2.5,.83-2.5,2.56,0,1.14,.68,2.12,1.53,2.88l-.92,1c-1.17-1.14-1.94-2.33-1.94-4.09,0-2.48,1.49-4.03,3.76-4.03,2.41,0,4.81,2.31,8.01,5.51-.05-.72-.13-1.55-.13-2.27v-3.92h1.42v8.73h-.97Z"/>
    <path class="cls-5" d="M478.95,410.7c-4.3,0-6.61-1.65-6.61-4.34s2.32-4.32,6.61-4.32,6.7,1.63,6.7,4.32-2.39,4.34-6.7,4.34Zm0-6.97c-3.76,0-5.29,1.06-5.29,2.63s1.53,2.65,5.29,2.65,5.38-1.06,5.38-2.65-1.62-2.63-5.38-2.63Z"/>
    <path class="cls-5" d="M484.04,399.92v-3.09h-9.47v2.46h-1.06c-.2-1.23-.5-2.12-.94-2.88v-1.33h11.47v-2.78h1.37v7.61h-1.37Z"/>
    <path class="cls-5" d="M483.85,391l-1.08-.87c.81-.81,1.51-1.87,1.51-3.45s-.92-2.82-2.36-2.82c-1.53,0-2.54,1.12-2.54,4.32h-1.26c0-2.86-1.06-3.84-2.41-3.84-1.24,0-2.03,.91-2.03,2.35,0,1.12,.54,2.1,1.3,2.88l-1.03,.93c-.94-1.04-1.6-2.27-1.6-3.88,0-2.33,1.17-4.03,3.26-4.03,1.55,0,2.54,1,3.04,2.46h.07c.38-1.63,1.51-2.94,3.28-2.94,2.29,0,3.65,1.99,3.65,4.45,0,2.18-.86,3.54-1.8,4.45Z"/>
  </g>
  <g>
    <path class="cls-5" d="M547.86,458.54v6.72h-1.4v-8.69h1.01c3.89,3.18,6.82,3.86,11.83,4.07v1.8c-4.84-.23-7.9-1.25-11.43-3.9Z"/>
    <path class="cls-5" d="M545,450.26v-1.25l17.52,5.66v1.27l-17.52-5.68Z"/>
    <path class="cls-5" d="M557.73,448.65l-1.08-.87c.81-.81,1.51-1.88,1.51-3.45s-.92-2.82-2.36-2.82c-1.53,0-2.54,1.12-2.54,4.32h-1.26c0-2.86-1.06-3.84-2.41-3.84-1.24,0-2.03,.91-2.03,2.35,0,1.12,.54,2.1,1.3,2.88l-1.03,.93c-.94-1.04-1.6-2.27-1.6-3.88,0-2.33,1.17-4.03,3.26-4.03,1.55,0,2.54,1,3.04,2.46h.07c.38-1.63,1.51-2.94,3.28-2.94,2.29,0,3.66,1.99,3.66,4.45,0,2.18-.86,3.54-1.8,4.45Z"/>
    <path class="cls-5" d="M557.93,437.5v-3.09h-9.47v2.46h-1.06c-.2-1.23-.5-2.12-.94-2.88v-1.33h11.47v-2.78h1.37v7.61h-1.37Z"/>
    <path class="cls-5" d="M545,423.23v-1.25l17.52,5.66v1.27l-17.52-5.68Z"/>
    <path class="cls-5" d="M558.33,421.34c-3.85-4.07-6.16-6.36-8.26-6.36-1.46,0-2.5,.83-2.5,2.56,0,1.14,.68,2.12,1.53,2.88l-.92,1c-1.17-1.14-1.94-2.33-1.94-4.09,0-2.48,1.49-4.03,3.76-4.03,2.41,0,4.81,2.31,8.01,5.51-.05-.72-.13-1.55-.13-2.27v-3.92h1.42v8.73h-.97Z"/>
    <path class="cls-5" d="M552.83,411.2c-4.3,0-6.61-1.65-6.61-4.34s2.32-4.32,6.61-4.32,6.7,1.63,6.7,4.32-2.39,4.34-6.7,4.34Zm0-6.97c-3.76,0-5.29,1.06-5.29,2.63s1.53,2.65,5.29,2.65,5.38-1.06,5.38-2.65-1.62-2.63-5.38-2.63Z"/>
    <path class="cls-5" d="M557.93,400.42v-3.09h-9.47v2.46h-1.06c-.2-1.23-.5-2.12-.94-2.88v-1.33h11.47v-2.78h1.37v7.61h-1.37Z"/>
    <path class="cls-5" d="M555.75,385.61v6.06h-1.08l-8.21-5.78v-1.91h7.98v-1.84h1.31v1.84h3.55v1.63h-3.55Zm-1.31,0h-3.76c-.67,0-1.76-.06-2.45-.09v.08c.61,.34,1.17,.72,1.8,1.12l4.41,3.16v-4.26Z"/>
  </g>
  <g>
    <path class="cls-5" d="M620.75,458.08v6.72h-1.4v-8.69h1.01c3.89,3.18,6.82,3.86,11.83,4.07v1.8c-4.84-.23-7.9-1.25-11.43-3.9Z"/>
    <path class="cls-5" d="M617.88,449.8v-1.25l17.52,5.66v1.27l-17.52-5.68Z"/>
    <path class="cls-5" d="M630.61,448.19l-1.08-.87c.81-.81,1.51-1.88,1.51-3.45s-.92-2.82-2.36-2.82c-1.53,0-2.54,1.12-2.54,4.32h-1.26c0-2.86-1.06-3.84-2.41-3.84-1.24,0-2.03,.91-2.03,2.35,0,1.12,.54,2.1,1.3,2.88l-1.03,.93c-.94-1.04-1.6-2.27-1.6-3.88,0-2.33,1.17-4.03,3.26-4.03,1.55,0,2.54,1,3.04,2.46h.07c.38-1.63,1.51-2.94,3.28-2.94,2.29,0,3.66,1.99,3.66,4.45,0,2.18-.86,3.54-1.8,4.45Z"/>
    <path class="cls-5" d="M630.81,437.03v-3.09h-9.47v2.46h-1.06c-.2-1.23-.5-2.12-.94-2.88v-1.33h11.47v-2.78h1.37v7.61h-1.37Z"/>
    <path class="cls-5" d="M617.88,422.77v-1.25l17.52,5.66v1.27l-17.52-5.68Z"/>
    <path class="cls-5" d="M631.21,420.87c-3.85-4.07-6.16-6.36-8.26-6.36-1.46,0-2.5,.83-2.5,2.56,0,1.14,.68,2.12,1.53,2.88l-.92,1c-1.17-1.14-1.94-2.33-1.94-4.09,0-2.48,1.49-4.03,3.76-4.03,2.41,0,4.81,2.31,8.01,5.51-.05-.72-.13-1.55-.13-2.27v-3.92h1.42v8.73h-.97Z"/>
    <path class="cls-5" d="M625.72,410.74c-4.3,0-6.61-1.65-6.61-4.34s2.32-4.32,6.61-4.32,6.7,1.63,6.7,4.32-2.39,4.34-6.7,4.34Zm0-6.97c-3.76,0-5.29,1.06-5.29,2.63s1.53,2.65,5.29,2.65,5.38-1.06,5.38-2.65-1.62-2.63-5.38-2.63Z"/>
    <path class="cls-5" d="M630.81,399.96v-3.09h-9.47v2.46h-1.06c-.2-1.23-.5-2.12-.94-2.88v-1.33h11.47v-2.78h1.37v7.61h-1.37Z"/>
    <path class="cls-5" d="M630.67,391.06l-1.08-.85c.76-.8,1.46-1.8,1.46-3.41s-1.13-2.95-2.92-2.95-2.84,1.14-2.84,2.88c0,.93,.29,1.52,.79,2.31l-.56,.93-6.18-.44v-6.76h1.4v5.25l3.84,.34c-.32-.62-.54-1.23-.54-2.06,0-2.31,1.26-4.18,4.03-4.18s4.34,2.2,4.34,4.54c0,2.16-.86,3.48-1.75,4.41Z"/>
  </g>
  <g>
    <path class="cls-5" d="M691.63,458.27v6.72h-1.4v-8.69h1.01c3.89,3.18,6.82,3.86,11.83,4.07v1.8c-4.84-.23-7.9-1.25-11.43-3.9Z"/>
    <path class="cls-5" d="M688.77,449.99v-1.25l17.52,5.66v1.27l-17.52-5.68Z"/>
    <path class="cls-5" d="M701.5,448.38l-1.08-.87c.81-.81,1.51-1.88,1.51-3.45s-.92-2.82-2.36-2.82c-1.53,0-2.54,1.12-2.54,4.32h-1.26c0-2.86-1.06-3.84-2.41-3.84-1.24,0-2.04,.91-2.04,2.35,0,1.12,.54,2.1,1.3,2.88l-1.03,.93c-.94-1.04-1.6-2.27-1.6-3.88,0-2.33,1.17-4.03,3.26-4.03,1.55,0,2.54,1,3.04,2.46h.07c.38-1.63,1.51-2.94,3.28-2.94,2.29,0,3.65,1.99,3.65,4.45,0,2.18-.86,3.54-1.8,4.45Z"/>
    <path class="cls-5" d="M701.69,437.22v-3.09h-9.47v2.46h-1.06c-.2-1.23-.5-2.12-.94-2.88v-1.33h11.47v-2.78h1.37v7.61h-1.37Z"/>
    <path class="cls-5" d="M688.77,422.96v-1.25l17.52,5.66v1.27l-17.52-5.68Z"/>
    <path class="cls-5" d="M702.09,421.06c-3.85-4.07-6.16-6.36-8.26-6.36-1.46,0-2.5,.83-2.5,2.56,0,1.14,.68,2.12,1.53,2.88l-.92,1c-1.17-1.14-1.94-2.33-1.94-4.09,0-2.48,1.49-4.03,3.76-4.03,2.41,0,4.81,2.31,8.01,5.51-.05-.72-.13-1.55-.13-2.27v-3.92h1.42v8.73h-.97Z"/>
    <path class="cls-5" d="M696.6,410.93c-4.3,0-6.61-1.65-6.61-4.34s2.32-4.32,6.61-4.32,6.7,1.63,6.7,4.32-2.39,4.34-6.7,4.34Zm0-6.97c-3.76,0-5.29,1.06-5.29,2.63s1.53,2.65,5.29,2.65,5.38-1.06,5.38-2.65-1.62-2.63-5.38-2.63Z"/>
    <path class="cls-5" d="M701.69,400.15v-3.09h-9.47v2.46h-1.06c-.2-1.23-.5-2.12-.94-2.88v-1.33h11.47v-2.78h1.37v7.61h-1.37Z"/>
    <path class="cls-5" d="M697.14,390.76c-5.17,0-7.15-2.44-7.15-5.15,0-1.44,.58-2.48,1.35-3.24l1.03,.97c-.63,.55-1.01,1.38-1.01,2.22,0,1.91,1.39,3.5,5.47,3.58-.99-.87-1.6-2.06-1.6-3.16,0-2.33,1.33-3.84,3.94-3.84,2.47,0,4.12,1.82,4.12,3.98,0,2.67-2.05,4.66-6.16,4.66Zm1.03-1.67c2.5-.23,3.85-1.27,3.85-2.97,0-1.34-1.13-2.37-2.84-2.37s-2.72,.83-2.72,2.5c0,.87,.45,1.93,1.71,2.84Z"/>
  </g>
  <g>
    <path class="cls-5" d="M763.51,458.23v6.72h-1.4v-8.69h1.01c3.89,3.18,6.82,3.86,11.83,4.07v1.8c-4.84-.23-7.9-1.25-11.43-3.9Z"/>
    <path class="cls-5" d="M760.65,449.95v-1.25l17.52,5.66v1.27l-17.52-5.68Z"/>
    <path class="cls-5" d="M773.38,448.34l-1.08-.87c.81-.81,1.51-1.87,1.51-3.45,0-1.65-.92-2.82-2.36-2.82-1.53,0-2.54,1.12-2.54,4.32h-1.26c0-2.86-1.06-3.84-2.41-3.84-1.24,0-2.03,.91-2.03,2.35,0,1.12,.54,2.1,1.3,2.88l-1.03,.93c-.94-1.04-1.6-2.27-1.6-3.88,0-2.33,1.17-4.03,3.26-4.03,1.55,0,2.54,1,3.04,2.46h.07c.38-1.63,1.51-2.93,3.28-2.93,2.29,0,3.66,1.99,3.66,4.45,0,2.18-.86,3.54-1.8,4.45Z"/>
    <path class="cls-5" d="M773.58,437.18v-3.09h-9.47v2.46h-1.06c-.2-1.23-.5-2.12-.94-2.88v-1.33h11.47v-2.78h1.37v7.61h-1.37Z"/>
    <path class="cls-5" d="M760.65,422.92v-1.25l17.52,5.66v1.27l-17.52-5.68Z"/>
    <path class="cls-5" d="M773.97,421.02c-3.85-4.07-6.16-6.36-8.26-6.36-1.46,0-2.5,.83-2.5,2.56,0,1.14,.68,2.12,1.53,2.88l-.92,1c-1.17-1.14-1.94-2.33-1.94-4.09,0-2.48,1.49-4.03,3.76-4.03,2.41,0,4.81,2.31,8.01,5.51-.05-.72-.13-1.55-.13-2.27v-3.92h1.42v8.73h-.97Z"/>
    <path class="cls-5" d="M768.48,410.89c-4.3,0-6.61-1.65-6.61-4.34s2.32-4.32,6.61-4.32,6.7,1.63,6.7,4.32-2.39,4.34-6.7,4.34Zm0-6.97c-3.76,0-5.29,1.06-5.29,2.63s1.53,2.65,5.29,2.65,5.38-1.06,5.38-2.65-1.62-2.63-5.38-2.63Z"/>
    <path class="cls-5" d="M773.58,400.11v-3.09h-9.47v2.46h-1.06c-.2-1.23-.5-2.12-.94-2.88v-1.33h11.47v-2.78h1.37v7.61h-1.37Z"/>
    <path class="cls-5" d="M763.51,384.09v6.72h-1.4v-8.69h1.01c3.89,3.18,6.82,3.86,11.83,4.07v1.8c-4.84-.23-7.9-1.25-11.43-3.9Z"/>
  </g>
  <g>
    <path class="cls-5" d="M839.4,458.25v6.72h-1.4v-8.69h1.01c3.89,3.18,6.82,3.86,11.83,4.07v1.8c-4.84-.23-7.9-1.25-11.43-3.9Z"/>
    <path class="cls-5" d="M836.53,449.97v-1.25l17.52,5.66v1.27l-17.52-5.68Z"/>
    <path class="cls-5" d="M849.26,448.36l-1.08-.87c.81-.81,1.51-1.87,1.51-3.45,0-1.65-.92-2.82-2.36-2.82-1.53,0-2.54,1.12-2.54,4.32h-1.26c0-2.86-1.06-3.84-2.41-3.84-1.24,0-2.04,.91-2.04,2.35,0,1.12,.54,2.1,1.3,2.88l-1.03,.93c-.94-1.04-1.6-2.27-1.6-3.88,0-2.33,1.17-4.03,3.26-4.03,1.55,0,2.54,1,3.04,2.46h.07c.38-1.63,1.51-2.93,3.28-2.93,2.29,0,3.65,1.99,3.65,4.45,0,2.18-.86,3.54-1.8,4.45Z"/>
    <path class="cls-5" d="M849.46,437.2v-3.09h-9.47v2.46h-1.06c-.2-1.23-.5-2.12-.94-2.88v-1.33h11.47v-2.78h1.37v7.61h-1.37Z"/>
    <path class="cls-5" d="M836.53,422.94v-1.25l17.52,5.66v1.27l-17.52-5.68Z"/>
    <path class="cls-5" d="M849.86,421.04c-3.85-4.07-6.16-6.36-8.26-6.36-1.46,0-2.5,.83-2.5,2.56,0,1.14,.68,2.12,1.53,2.88l-.92,1c-1.17-1.14-1.94-2.33-1.94-4.09,0-2.48,1.49-4.03,3.76-4.03,2.41,0,4.81,2.31,8.01,5.51-.05-.72-.13-1.55-.13-2.27v-3.92h1.42v8.73h-.97Z"/>
    <path class="cls-5" d="M844.37,410.91c-4.3,0-6.61-1.65-6.61-4.34s2.32-4.32,6.61-4.32,6.7,1.63,6.7,4.32-2.39,4.34-6.7,4.34Zm0-6.97c-3.76,0-5.29,1.06-5.29,2.63s1.53,2.65,5.29,2.65,5.38-1.06,5.38-2.65-1.62-2.63-5.38-2.63Z"/>
    <path class="cls-5" d="M849.46,400.13v-3.09h-9.47v2.46h-1.06c-.2-1.23-.5-2.12-.94-2.88v-1.33h11.47v-2.78h1.37v7.61h-1.37Z"/>
    <path class="cls-5" d="M847.55,390.91c-1.67,0-2.83-1.29-3.47-2.56h-.07c-.65,1-1.6,1.88-2.97,1.88-1.96,0-3.28-1.65-3.28-3.81,0-2.37,1.4-3.81,3.4-3.81,1.35,0,2.5,1.04,3.1,1.86h.09c.68-1.19,1.58-2.35,3.29-2.35,1.93,0,3.42,1.74,3.42,4.36s-1.48,4.43-3.51,4.43Zm-6.3-6.82c-1.26,0-2.27,.85-2.27,2.35,0,1.29,.81,2.22,2.05,2.22,1.55,0,2.2-1.5,2.81-3.12-.79-.93-1.64-1.44-2.59-1.44Zm6.36-.32c-1.67,0-2.27,1.7-3.01,3.67,.67,1.1,1.62,1.89,2.81,1.89,1.4,0,2.43-1.23,2.43-2.9s-.92-2.67-2.23-2.67Z"/>
  </g>
  <g>
    <path class="cls-5" d="M912.28,458.06v6.72h-1.4v-8.69h1.01c3.89,3.18,6.82,3.86,11.83,4.07v1.8c-4.84-.23-7.9-1.25-11.43-3.9Z"/>
    <path class="cls-5" d="M909.42,449.78v-1.25l17.52,5.66v1.27l-17.52-5.68Z"/>
    <path class="cls-5" d="M922.15,448.17l-1.08-.87c.81-.81,1.51-1.87,1.51-3.45,0-1.65-.92-2.82-2.36-2.82-1.53,0-2.54,1.12-2.54,4.32h-1.26c0-2.86-1.06-3.84-2.41-3.84-1.24,0-2.04,.91-2.04,2.35,0,1.12,.54,2.1,1.3,2.88l-1.03,.93c-.94-1.04-1.6-2.27-1.6-3.88,0-2.33,1.17-4.03,3.26-4.03,1.55,0,2.54,1,3.04,2.46h.07c.38-1.63,1.51-2.93,3.28-2.93,2.29,0,3.65,1.99,3.65,4.45,0,2.18-.86,3.54-1.8,4.45Z"/>
    <path class="cls-5" d="M922.34,437.01v-3.09h-9.47v2.46h-1.06c-.2-1.23-.5-2.12-.94-2.88v-1.33h11.47v-2.78h1.37v7.61h-1.37Z"/>
    <path class="cls-5" d="M909.42,422.75v-1.25l17.52,5.66v1.27l-17.52-5.68Z"/>
    <path class="cls-5" d="M922.74,420.85c-3.85-4.07-6.16-6.36-8.26-6.36-1.46,0-2.5,.83-2.5,2.56,0,1.14,.68,2.12,1.53,2.88l-.92,1c-1.17-1.14-1.94-2.33-1.94-4.09,0-2.48,1.49-4.03,3.76-4.03,2.41,0,4.81,2.31,8.01,5.51-.05-.72-.13-1.55-.13-2.27v-3.92h1.42v8.73h-.97Z"/>
    <path class="cls-5" d="M917.25,410.72c-4.3,0-6.61-1.65-6.61-4.34s2.32-4.32,6.61-4.32,6.7,1.63,6.7,4.32-2.39,4.34-6.7,4.34Zm0-6.97c-3.76,0-5.29,1.06-5.29,2.63s1.53,2.65,5.29,2.65,5.38-1.06,5.38-2.65-1.62-2.63-5.38-2.63Z"/>
    <path class="cls-5" d="M922.34,399.94v-3.09h-9.47v2.46h-1.06c-.2-1.23-.5-2.12-.94-2.88v-1.33h11.47v-2.78h1.37v7.61h-1.37Z"/>
    <path class="cls-5" d="M922.6,390.47l-1.03-.97c.63-.53,1.01-1.36,1.01-2.22,0-1.89-1.4-3.5-5.51-3.58,1.03,.87,1.66,2.06,1.66,3.16,0,2.35-1.35,3.86-3.98,3.86-2.45,0-4.11-1.82-4.11-3.98,0-2.67,2.05-4.66,6.18-4.66,5.15,0,7.13,2.44,7.13,5.13,0,1.44-.58,2.5-1.35,3.24Zm-5.1-3.88c0-.87-.52-1.97-1.75-2.84-2.48,.23-3.82,1.29-3.82,3.01,0,1.33,1.12,2.35,2.81,2.35s2.75-.83,2.75-2.52Z"/>
  </g>
  <g>
    <path class="cls-5" d="M984.16,458.18v6.72h-1.4v-8.69h1.01c3.89,3.18,6.82,3.86,11.83,4.07v1.8c-4.84-.23-7.9-1.25-11.43-3.9Z"/>
    <path class="cls-5" d="M981.3,449.91v-1.25l17.52,5.66v1.27l-17.52-5.68Z"/>
    <path class="cls-5" d="M994.03,448.29l-1.08-.87c.81-.81,1.51-1.87,1.51-3.45,0-1.65-.92-2.82-2.36-2.82-1.53,0-2.54,1.12-2.54,4.32h-1.26c0-2.86-1.06-3.84-2.41-3.84-1.24,0-2.04,.91-2.04,2.35,0,1.12,.54,2.1,1.3,2.88l-1.03,.93c-.94-1.04-1.6-2.27-1.6-3.88,0-2.33,1.17-4.03,3.26-4.03,1.55,0,2.54,1,3.04,2.46h.07c.38-1.63,1.51-2.93,3.28-2.93,2.29,0,3.65,1.99,3.65,4.45,0,2.18-.86,3.54-1.8,4.45Z"/>
    <path class="cls-5" d="M994.23,437.14v-3.09h-9.47v2.46h-1.06c-.2-1.23-.5-2.12-.94-2.88v-1.33h11.47v-2.78h1.37v7.61h-1.37Z"/>
    <path class="cls-5" d="M981.3,422.88v-1.25l17.52,5.66v1.27l-17.52-5.68Z"/>
    <path class="cls-5" d="M994.62,420.98c-3.85-4.07-6.16-6.36-8.26-6.36-1.46,0-2.5,.83-2.5,2.56,0,1.14,.68,2.12,1.53,2.88l-.92,1c-1.17-1.14-1.94-2.33-1.94-4.09,0-2.48,1.49-4.03,3.76-4.03,2.41,0,4.81,2.31,8.01,5.51-.05-.72-.13-1.55-.13-2.27v-3.92h1.42v8.73h-.97Z"/>
    <path class="cls-5" d="M989.13,410.84c-4.3,0-6.61-1.65-6.61-4.34s2.32-4.32,6.61-4.32,6.7,1.63,6.7,4.32-2.39,4.34-6.7,4.34Zm0-6.97c-3.76,0-5.29,1.06-5.29,2.63s1.53,2.65,5.29,2.65,5.38-1.06,5.38-2.65-1.62-2.63-5.38-2.63Z"/>
    <path class="cls-5" d="M994.62,400.9c-3.85-4.07-6.16-6.36-8.26-6.36-1.46,0-2.5,.83-2.5,2.56,0,1.14,.68,2.12,1.53,2.88l-.92,1c-1.17-1.14-1.94-2.33-1.94-4.09,0-2.48,1.49-4.03,3.76-4.03,2.41,0,4.81,2.31,8.01,5.51-.05-.72-.13-1.55-.13-2.27v-3.92h1.42v8.73h-.97Z"/>
    <path class="cls-5" d="M989.13,390.77c-4.3,0-6.61-1.65-6.61-4.34s2.32-4.32,6.61-4.32,6.7,1.63,6.7,4.32-2.39,4.34-6.7,4.34Zm0-6.97c-3.76,0-5.29,1.06-5.29,2.63s1.53,2.65,5.29,2.65,5.38-1.06,5.38-2.65-1.62-2.63-5.38-2.63Z"/>
  </g>
  <g>
    <path class="cls-5" d="M1056.8,457.85v6.72h-1.4v-8.69h1.01c3.89,3.18,6.82,3.86,11.83,4.07v1.8c-4.84-.23-7.9-1.25-11.43-3.9Z"/>
    <path class="cls-5" d="M1053.93,449.57v-1.25l17.52,5.66v1.27l-17.52-5.68Z"/>
    <path class="cls-5" d="M1066.66,447.96l-1.08-.87c.81-.81,1.51-1.87,1.51-3.45,0-1.65-.92-2.82-2.36-2.82-1.53,0-2.54,1.12-2.54,4.32h-1.26c0-2.86-1.06-3.84-2.41-3.84-1.24,0-2.04,.91-2.04,2.35,0,1.12,.54,2.1,1.3,2.88l-1.03,.93c-.94-1.04-1.6-2.27-1.6-3.88,0-2.33,1.17-4.03,3.26-4.03,1.55,0,2.54,1,3.04,2.46h.07c.38-1.63,1.51-2.93,3.28-2.93,2.29,0,3.65,1.99,3.65,4.45,0,2.18-.86,3.54-1.8,4.45Z"/>
    <path class="cls-5" d="M1066.86,436.8v-3.09h-9.47v2.46h-1.06c-.2-1.23-.5-2.12-.94-2.88v-1.33h11.47v-2.78h1.37v7.61h-1.37Z"/>
    <path class="cls-5" d="M1053.93,422.54v-1.25l17.52,5.66v1.27l-17.52-5.68Z"/>
    <path class="cls-5" d="M1067.26,420.64c-3.85-4.07-6.16-6.36-8.26-6.36-1.46,0-2.5,.83-2.5,2.56,0,1.14,.68,2.12,1.53,2.88l-.92,1c-1.17-1.14-1.94-2.33-1.94-4.09,0-2.48,1.49-4.03,3.76-4.03,2.41,0,4.81,2.31,8.01,5.51-.05-.72-.13-1.55-.13-2.27v-3.92h1.42v8.73h-.97Z"/>
    <path class="cls-5" d="M1061.77,410.51c-4.3,0-6.61-1.65-6.61-4.34s2.32-4.32,6.61-4.32,6.7,1.63,6.7,4.32-2.39,4.34-6.7,4.34Zm0-6.97c-3.76,0-5.29,1.06-5.29,2.63s1.53,2.65,5.29,2.65,5.38-1.06,5.38-2.65-1.62-2.63-5.38-2.63Z"/>
    <path class="cls-5" d="M1067.26,400.56c-3.85-4.07-6.16-6.36-8.26-6.36-1.46,0-2.5,.83-2.5,2.56,0,1.14,.68,2.12,1.53,2.88l-.92,1c-1.17-1.14-1.94-2.33-1.94-4.09,0-2.48,1.49-4.03,3.76-4.03,2.41,0,4.81,2.31,8.01,5.51-.05-.72-.13-1.55-.13-2.27v-3.92h1.42v8.73h-.97Z"/>
    <path class="cls-5" d="M1066.86,389.69v-3.09h-9.47v2.46h-1.06c-.2-1.23-.5-2.12-.94-2.88v-1.33h11.47v-2.78h1.37v7.61h-1.37Z"/>
  </g>
  <g>
    <path class="cls-5" d="M1124.1,458.16v6.72h-1.4v-8.69h1.01c3.89,3.18,6.82,3.86,11.83,4.07v1.8c-4.84-.23-7.9-1.25-11.43-3.9Z"/>
    <path class="cls-5" d="M1121.23,449.88v-1.25l17.52,5.66v1.27l-17.52-5.68Z"/>
    <path class="cls-5" d="M1133.96,448.27l-1.08-.87c.81-.81,1.51-1.88,1.51-3.45s-.92-2.82-2.36-2.82c-1.53,0-2.54,1.12-2.54,4.32h-1.26c0-2.86-1.06-3.84-2.41-3.84-1.24,0-2.04,.91-2.04,2.35,0,1.12,.54,2.1,1.3,2.88l-1.03,.93c-.94-1.04-1.6-2.27-1.6-3.88,0-2.33,1.17-4.03,3.26-4.03,1.55,0,2.54,1,3.04,2.46h.07c.38-1.63,1.51-2.94,3.28-2.94,2.29,0,3.65,1.99,3.65,4.45,0,2.18-.86,3.54-1.8,4.45Z"/>
    <path class="cls-5" d="M1134.16,437.12v-3.09h-9.47v2.46h-1.06c-.2-1.23-.5-2.12-.94-2.88v-1.33h11.47v-2.78h1.37v7.61h-1.37Z"/>
    <path class="cls-5" d="M1121.23,422.85v-1.25l17.52,5.66v1.27l-17.52-5.68Z"/>
    <path class="cls-5" d="M1134.56,420.96c-3.85-4.07-6.16-6.36-8.26-6.36-1.46,0-2.5,.83-2.5,2.56,0,1.14,.68,2.12,1.53,2.88l-.92,1c-1.17-1.14-1.94-2.33-1.94-4.09,0-2.48,1.49-4.03,3.76-4.03,2.41,0,4.81,2.31,8.01,5.51-.05-.72-.13-1.55-.13-2.27v-3.92h1.42v8.73h-.97Z"/>
    <path class="cls-5" d="M1129.07,410.82c-4.3,0-6.61-1.65-6.61-4.34s2.32-4.32,6.61-4.32,6.7,1.63,6.7,4.32-2.39,4.34-6.7,4.34Zm0-6.97c-3.76,0-5.29,1.06-5.29,2.63s1.53,2.65,5.29,2.65,5.38-1.06,5.38-2.65-1.62-2.63-5.38-2.63Z"/>
    <path class="cls-5" d="M1134.56,400.88c-3.85-4.07-6.16-6.36-8.26-6.36-1.46,0-2.5,.83-2.5,2.56,0,1.14,.68,2.12,1.53,2.88l-.92,1c-1.17-1.14-1.94-2.33-1.94-4.09,0-2.48,1.49-4.03,3.76-4.03,2.41,0,4.81,2.31,8.01,5.51-.05-.72-.13-1.55-.13-2.27v-3.92h1.42v8.73h-.97Z"/>
    <path class="cls-5" d="M1134.56,390.84c-3.85-4.07-6.16-6.36-8.26-6.36-1.46,0-2.5,.83-2.5,2.56,0,1.14,.68,2.12,1.53,2.88l-.92,1c-1.17-1.14-1.94-2.33-1.94-4.09,0-2.48,1.49-4.03,3.76-4.03,2.41,0,4.81,2.31,8.01,5.51-.05-.72-.13-1.55-.13-2.27v-3.92h1.42v8.73h-.97Z"/>
  </g>
  <line class="cls-2" x1="42.81" y1="370.82" x2="1131.11" y2="370.82"/>
  <line class="cls-2" x1="44.24" y1="370.82" x2="44.24" y2="33.11"/>
  <g>
    <path class="cls-4" d="M155.89,356.95v2.86h7.33v1.43h-7.33v5.12h8.27v1.45h-18.04v-1.45h8.15v-5.12h-7.2v-1.43h7.2v-2.86h-4.54v-1.15c-1.07,.59-2.2,1.11-3.34,1.51-.23-.42-.65-1.03-1.05-1.41,3.91-1.28,7.77-3.74,9.76-6.84l1.43,.67c-.15,.23-.34,.5-.52,.76,2.08,2.23,5.77,4.41,8.97,5.42-.38,.32-.86,.94-1.09,1.34-1.09-.4-2.25-.94-3.38-1.6v1.3h-4.62Zm-5.75,4.75c.8,1.18,1.66,2.75,2,3.76l-1.37,.57c-.29-.97-1.13-2.63-1.93-3.8l1.3-.52Zm10.12-6.19c-1.89-1.11-3.74-2.52-5.1-3.95-1.39,1.51-3.07,2.86-4.91,3.95h10.02Zm-2.46,10.06c.74-1.03,1.68-2.69,2.18-3.86l1.49,.57c-.78,1.32-1.74,2.81-2.5,3.8l-1.18-.5Z"/>
    <path class="cls-4" d="M166.83,350.17h9.85v1.36h-9.85v-1.36Zm9.53,16.52c0,.67-.13,1.03-.59,1.26-.44,.19-1.15,.21-2.25,.21-.04-.36-.23-.86-.4-1.22,.78,.02,1.47,.02,1.66,.02,.21-.02,.27-.08,.27-.29v-7.31h-6.68v9.01h-1.26v-10.22h9.24v8.54Zm-.69-9.72h-7.83v-4.24h7.83v4.24Zm-3.32,6.8v4.07h-1.2v-4.07h-2.16v-1.07h2.86c.5-.88,1.11-2.1,1.41-2.98l1.05,.42c-.44,.84-.92,1.79-1.39,2.56h1.47v1.07h-2.04Zm1.91-9.91h-5.06v1.97h5.06v-1.97Zm-4.07,5.94c.5,.78,1.01,1.79,1.22,2.44l-.94,.36c-.19-.65-.69-1.7-1.18-2.48l.9-.31Zm14.42,8.63c-.06-.5-.19-1.07-.36-1.72-2.44,.46-4.96,.88-6.84,1.26l-.38-1.45c.97-.13,2.16-.31,3.46-.55v-4.68h-3.11v-7.89h3.11v-3.99h1.39v3.99h3.04v7.89h-3.04v4.49l2.02-.36c-.27-.9-.61-1.85-.94-2.67l1.13-.29c.78,1.81,1.53,4.2,1.74,5.61l-1.22,.36Zm-6.05-8.5h2.04v-5.19h-2.04v5.19Zm5.14-5.19h-1.93v5.19h1.93v-5.19Z"/>
    <path class="cls-4" d="M191,358.86c-.76-.67-2.23-1.6-3.42-2.16l.86-1.07c1.2,.52,2.69,1.38,3.44,2.02l-.88,1.22Zm-2.81,8.36c.84-1.64,2.04-4.41,2.9-6.8l1.2,.88c-.78,2.18-1.83,4.83-2.73,6.78l-1.36-.86Zm1.39-17.68c1.24,.53,2.83,1.45,3.63,2.1l-.92,1.2c-.76-.67-2.33-1.64-3.59-2.23l.88-1.07Zm6.42,3.51c-.67,1.36-1.47,2.58-2.25,3.53-.31-.25-.96-.67-1.36-.86,1.49-1.6,2.77-4.03,3.53-6.47l1.53,.38c-.23,.67-.5,1.34-.78,2h9.59v1.43h-10.27Zm9.07,7.73c-.1,1.3-.19,2.37-.27,3.23h1.41v1.39h-1.6c-.21,1.13-.42,1.74-.71,2.1-.38,.5-.82,.67-1.45,.74-.59,.06-1.64,.02-2.65-.04-.04-.4-.19-.94-.4-1.32,1.07,.08,2.06,.11,2.44,.11s.59-.04,.78-.29c.19-.19,.34-.61,.48-1.28h-9.28c.25-1.24,.52-2.9,.76-4.62h-1.93v-1.43h2.14c.19-1.49,.38-2.98,.5-4.28h10.04s-.02,.55-.02,.74c-.06,1.32-.13,2.5-.17,3.55h1.66v1.43h-1.72Zm-1.76,3.23c.1-.84,.21-1.89,.29-3.23h-7.58c-.15,1.16-.31,2.27-.46,3.23h7.75Zm-6.7-7.58c-.13,.95-.25,1.93-.38,2.92h4.41c-.44-.69-1.43-1.68-2.31-2.35l.86-.57c.88,.65,1.91,1.64,2.37,2.31l-.88,.61h2.98c.06-.88,.11-1.83,.15-2.92h-7.2Zm2.08,4.41c.92,.71,2.02,1.76,2.54,2.52l-.96,.65c-.48-.71-1.55-1.83-2.48-2.6l.9-.57Z"/>
    <path class="cls-4" d="M210.45,362.53v1.7h-1.2v-12.79h4.6v11.09h-3.4Zm0-9.68v8.25h2.18v-8.25h-2.18Zm15.03,8.88v-.92h-2.86v-3.63h1.03v2.58h1.83v-2.67h1.28v11.3h-1.28v-3.51h-1.83v3.34h-1.03v-4.37h2.86v-.99h-4.09v5.52h-1.26v-5.52h-3.99c-.02,.34-.06,.65-.13,.99h2.86v4.37h-1.03v-3.34h-2.06c-.36,1.3-1.03,2.54-2.21,3.53-.21-.21-.69-.55-1.01-.71,2.1-1.79,2.39-4.3,2.39-6.38v-4.18h1.24v2.62h1.68v-2.58h1.01v3.63h-2.69v.92h3.93v-5.31h-5.04v-1.07h4.93v-1.28h-5.79v-1.03h5.79v-1.22h-4.85v-1.05h4.85v-1.53h1.45v1.53h5v2.16h1.3v1.15h-1.3v2.33h-5.08v5.31h4.09Zm-4.01-8.69h3.61v-1.22h-3.61v1.22Zm0,2.31h3.61v-1.28h-3.61v1.28Z"/>
  </g>
  <g>
    <path class="cls-4" d="M329.1,251.15v1.38h-8.75c-.06,.57-.15,1.11-.25,1.62h8.67v1.37h-9.05c-.99,2.88-3.23,4.66-8.73,5.61-.13-.4-.52-1.05-.82-1.41,4.85-.69,6.91-2.04,7.85-4.2h-7.05v-1.37h7.5c.13-.5,.21-1.05,.27-1.62h-8.23v-1.38h8.42v-1.76h-6.53v-1.37h6.53v-1.7h-7.69v-1.41h4.43c-.34-.73-.99-1.7-1.62-2.44l1.34-.55c.78,.8,1.51,1.89,1.85,2.65l-.76,.34h5.52c.63-.86,1.37-2.1,1.81-2.98l1.6,.48c-.5,.86-1.13,1.76-1.68,2.5h4.47v1.41h-7.73v1.7h6.72v1.37h-6.72v1.76h8.63Zm-8.59,4.6c2.88,1.09,6.66,2.9,8.57,4.16l-.74,1.34c-1.85-1.3-5.61-3.19-8.5-4.35l.67-1.15Z"/>
    <path class="cls-4" d="M349.45,242.96v18.27h-1.53v-.97h-14.4v.97h-1.49v-18.27h17.43Zm-1.53,15.89v-14.47h-14.4v14.47h14.4Zm-7.12-3.19c-2.18,.42-4.41,.86-6.13,1.18l-.21-1.18c1.6-.25,3.93-.67,6.28-1.09l.06,1.09Zm5.21-6.11c-.52,1.97-1.32,3.7-2.33,5.14,.44,1.11,1.01,1.83,1.7,1.93,.29,.08,.5-.82,.65-2.16,.25,.25,.71,.57,1.01,.69-.27,2.29-.99,3.13-2.08,2.71-.9-.19-1.62-.92-2.18-2.04-.82,.95-1.74,1.74-2.77,2.41-.19-.25-.65-.76-.92-.99,1.24-.71,2.29-1.64,3.17-2.73-.57-1.68-.92-3.84-1.15-6.21h-6.43v-1.18h6.32c-.06-.74-.13-1.47-.17-2.23h1.34c.04,.76,.08,1.49,.13,2.23h4.58v1.18h-4.47c.17,1.81,.42,3.49,.78,4.83,.67-1.13,1.2-2.44,1.55-3.86l1.28,.27Zm-5.96,.08v4.07h-4.64v-4.07h4.64Zm-1.13,.99h-2.42v2.1h2.42v-2.1Zm6.68-3.72c-.46-.46-1.43-1.11-2.25-1.47l.73-.78c.82,.38,1.79,.95,2.27,1.43l-.76,.82Z"/>
    <path class="cls-4" d="M371.05,258.96v1.53h-18.56v-1.53h8.4v-5.17h-6.47v-1.49h6.47v-4.6h-7.43v-1.53h9.22c-.82-.97-2.31-2.29-3.57-3.21l1.26-.88c1.34,.96,3.02,2.39,3.84,3.38l-.99,.71h6.78v1.53h-7.45v4.6h6.59v1.49h-6.59v5.17h8.5Z"/>
    <path class="cls-4" d="M379.25,253.06c-.27-.59-.9-1.74-1.45-2.69v10.77h-1.39v-10.6c-.69,2.39-1.64,4.81-2.62,6.28-.17-.46-.55-1.13-.8-1.51,1.26-1.72,2.56-5.04,3.19-7.81h-2.69v-1.47h2.92v-4.01h1.39v4.01h2.27v1.47h-2.27v1.09c.52,.67,1.99,2.83,2.33,3.36l-.88,1.11Zm7.81,6.17h5.12v1.18h-9.59v.76h-1.41v-6.55c-.44,.48-.88,.94-1.32,1.32-.15-.29-.57-.95-.82-1.22,1.3-1.07,2.58-2.67,3.34-4.3h-1.76v-4.07h4.79v4.07h-2.44l.8,.27c-.25,.5-.53,1.03-.82,1.51h2.75c-.17-.42-.34-.86-.48-1.24l1.34-.36c.23,.48,.46,1.09,.65,1.6h4.62v1.07h-4.77v1.24h3.86v1.11h-3.86v1.24h3.86v1.11h-3.86v1.26Zm-3.57-14.34h-3.65v-1.22h3.65v-1.66h1.37v3.93h-1.37v-1.05Zm-1.68,4.45h2.35v-1.93h-2.35v1.93Zm3.86,3.93h-3.09v1.24h3.09v-1.24Zm0,2.35h-3.09v1.24h3.09v-1.24Zm-3.09,3.61h3.09v-1.26h-3.09v1.26Zm8.82-8.82h-4.87v-4.07h4.87v4.07Zm.92-6.74v1.22h-3.88v1.01h-1.39v-3.88h1.39v1.66h3.88Zm-2.16,3.74h-2.44v1.93h2.44v-1.93Z"/>
    <path class="cls-4" d="M305.56,272.5c-.48,1.41-1.09,2.81-1.76,4.14v14.61h-1.45v-12.09c-.63,1.01-1.32,1.91-1.99,2.71-.15-.34-.59-1.09-.86-1.45,1.89-2.04,3.61-5.17,4.68-8.33l1.39,.42Zm13.02,2.96v1.32h-13.29v-1.32h13.29Zm-12.07,8.99h10.62v6.68h-1.39v-.76h-7.87v.82h-1.36v-6.74Zm10.41-4.7h-10.12v-1.28h10.12v1.28Zm-10.12,1.66h10.12v1.28h-10.12v-1.28Zm1.07,4.35v3.32h7.87v-3.32h-7.87Zm3.7-10.41c-.27-.73-.92-1.93-1.45-2.79l1.32-.54c.61,.88,1.24,1.99,1.53,2.73l-1.41,.61Z"/>
    <path class="cls-4" d="M328.36,276.84h-7.56v-1.28h7.56v1.28Zm-6.74,1.47h5.9v1.24h-5.9v-1.24Zm0,2.73h5.9v1.24h-5.9v-1.24Zm5.88,8.86h-4.62v.99h-1.26v-7.05h5.88v6.07Zm-4.62-4.77v3.46h3.34v-3.46h-3.34Zm1.6-9.8c-.32-.76-.97-1.93-1.47-2.79l1.11-.63c.57,.86,1.22,1.97,1.53,2.71l-1.18,.71Zm15.41,8.31h-4.93v7.52h-1.51v-7.52h-5.1v-1.47h5.1v-7.54h-4.3v-1.47h10.33v1.47h-4.51v7.54h4.93v1.47Zm-9.05-7.87c.59,1.66,1.05,3.78,1.18,5.16l-1.34,.34c-.11-1.41-.55-3.55-1.09-5.16l1.26-.34Zm5.35,5.12c.5-1.39,1.09-3.67,1.39-5.29l1.47,.38c-.5,1.76-1.13,3.93-1.66,5.27l-1.2-.36Z"/>
    <path class="cls-4" d="M346.84,282.26c-.25,1.7-.65,3.19-1.15,4.47,1.34,2.42,4.03,2.75,7.98,2.75,2.18,0,5.23-.1,7.37-.27-.23,.34-.44,1.05-.52,1.49-1.95,.11-4.58,.17-6.84,.17-4.3,0-6.93-.46-8.57-2.9-.71,1.41-1.62,2.48-2.65,3.25-.21-.34-.74-.86-1.05-1.07,1.89-1.3,3.23-3.63,3.88-6.87h-2c-.5,0-1.05,.13-1.2,.29-.11-.38-.42-1.09-.59-1.41,.31-.08,.65-.23,.96-.61,.46-.48,1.62-2.16,2.44-3.44h-3.11v-1.28h4.01l.25-.11,1.05,.44c-.82,1.22-2.31,3.42-3.4,4.83h2.1l.27-.04,.76,.29Zm-1.87-6.19c-.52-.86-1.6-2.31-2.5-3.34l1.2-.65c.9,1.03,1.99,2.37,2.54,3.21l-1.24,.78Zm6.26-1.36h-4.01v-1.18h4.01v-1.53h1.3v1.53h2.18v-1.53h1.3v1.53h4.3v1.18h-4.3v1.07h3.32v5.48h-11.3v-5.48h3.19v-1.07Zm-2.16,13.54v-6.05h9.26v6.05h-9.26Zm.17-10.18h1.99v-1.34h-1.99v1.34Zm0,2.25h1.99v-1.34h-1.99v1.34Zm1.3,4.39h6.26v-1.43h-6.26v1.43Zm0,2.48h6.26v-1.47h-6.26v1.47Zm2-12.47v1.07h2.18v-1.07h-2.18Zm2.18,3.36v-1.34h-2.18v1.34h2.18Zm-2.18,.9v1.34h2.18v-1.34h-2.18Zm3.49-2.25v1.34h2.1v-1.34h-2.1Zm2.1,2.25h-2.1v1.34h2.1v-1.34Z"/>
    <path class="cls-4" d="M369.75,276.84h-7.1v-1.3h7.1v1.3Zm-6.3,4.2h5.67v1.24h-5.67v-1.24Zm5.69,8.88h-4.39v.95h-1.3v-7.03h5.69v6.09Zm-.02-10.37h-5.65v-1.24h5.65v1.24Zm-4.37,5.58v3.49h3.11v-3.49h-3.11Zm1.62-9.76c-.29-.74-.97-1.93-1.49-2.81l1.16-.53c.57,.86,1.24,2,1.55,2.73l-1.22,.61Zm14.82,13.86c0,.82-.19,1.26-.71,1.49-.53,.23-1.41,.25-2.83,.25-.06-.36-.27-.97-.46-1.34,1.07,.04,2.02,.04,2.31,.02,.27-.02,.38-.1,.38-.42v-7.96h-7.64c-.02,3.11-.31,7.2-1.91,9.93-.23-.23-.82-.65-1.09-.78,1.55-2.75,1.7-6.68,1.7-9.66v-7.83h10.27v16.29Zm-8.96-14.89v2.25h3.15v-2.25h-3.15Zm0,5.65h3.15v-2.12h-3.15v2.12Zm2.08,7.58v.97h-1.15v-5.88h5.61v4.91h-4.45Zm0-3.74v2.56h3.23v-2.56h-3.23Zm5.56-9.49h-3.17v2.25h3.17v-2.25Zm0,5.65v-2.12h-3.17v2.12h3.17Z"/>
    <path class="cls-4" d="M390.8,273.42c-.69,1.7-1.51,3.74-2.29,5.4,1.68,1.74,2.08,3.23,2.08,4.56,0,1.11-.27,2.02-.86,2.44-.32,.23-.71,.36-1.16,.4-.46,.06-1.03,.06-1.51,.04-.02-.4-.17-.99-.42-1.41,.55,.08,.99,.08,1.34,.04,.29,0,.55-.06,.71-.19,.38-.23,.5-.8,.48-1.47,0-1.15-.44-2.58-2.12-4.24,.67-1.47,1.36-3.28,1.85-4.7h-3.09v16.86h-1.38v-18.29h5.1l.25-.06,1.01,.63Zm10.92,.82c-.8,1.64-2.04,3-3.51,4.09,1.43,.78,3.06,1.39,4.81,1.7-.32,.29-.74,.88-.92,1.26-1.89-.44-3.63-1.15-5.14-2.14-1.74,1.01-3.67,1.74-5.65,2.23-.17-.36-.5-.9-.78-1.24,1.81-.38,3.61-1.01,5.23-1.87-.76-.63-1.43-1.32-1.97-2.06-.63,.59-1.3,1.18-2.06,1.7-.23-.34-.69-.84-1.03-1.05,2.16-1.39,3.72-3.3,4.56-4.85l1.57,.27c-.29,.5-.63,1.01-.99,1.53h4.66l.25-.08,.97,.5Zm-3.63,12.35h4.66v1.37h-4.66v3.23h-1.51v-3.23h-5.48c.4-1.13,.88-2.79,1.22-4.22h-.8v-1.39h5.06v-1.58h1.51v1.58h4.12v1.39h-4.12v2.86Zm-1.51,0v-2.86h-2.83c-.23,.92-.53,1.95-.76,2.86h3.59Zm-1.91-11.32c.59,.84,1.39,1.6,2.31,2.29,1.05-.74,1.95-1.58,2.65-2.52h-4.75l-.21,.23Z"/>
  </g>
  <g>
    <path class="cls-4" d="M615.44,200.11v1.34h-18.31v-1.34h8.67c-.21-.63-.48-1.39-.74-1.97l1.45-.38c.29,.73,.67,1.66,.9,2.35h8.02Zm-1.16,15.18c0,.82-.21,1.18-.82,1.41-.63,.19-1.68,.21-3.46,.21-.08-.38-.27-.86-.48-1.2,1.3,.04,2.52,.02,2.86,0s.46-.11,.46-.44v-9.49h-4.24v1.37c0,.46,.06,.63,.4,.63h1.89c.31,0,.86-.02,1.15-.08,.02,.36,.06,.78,.11,1.11-.25,.11-.76,.11-1.22,.11h-2.2c-1.28,0-1.53-.55-1.53-1.79v-1.34h-2.37c-.31,2.18-1.3,3.34-4.2,3.99-.13-.34-.46-.84-.76-1.09,2.46-.44,3.28-1.28,3.57-2.9h-3.61v11.21h-1.49v-12.51h9.7c.55-.84,1.2-2.02,1.53-2.86l1.57,.36c-.5,.84-1.07,1.76-1.62,2.5h4.77v10.81Zm-11.38-13.77c.46,.73,1.05,1.72,1.32,2.33l-1.34,.55c-.29-.61-.86-1.66-1.3-2.44l1.32-.44Zm.84,12.83v.97h-1.37v-5.73h7.66v4.77h-6.3Zm0-3.59v2.44h5v-2.44h-5Z"/>
    <path class="cls-4" d="M618.57,207.9h7.41v8.94h-1.53v-.94h-4.39v1.13h-1.49v-9.13Zm1.49,1.51v4.98h4.39v-4.98h-4.39Zm12.97-3.72h-11.42v-6.95h11.42v6.95Zm-1.57-5.46h-8.34v3.97h8.34v-3.97Zm4.62,7.66v8.99h-1.53v-.99h-4.77v1.13h-1.51v-9.13h7.81Zm-1.53,6.49v-4.98h-4.77v4.98h4.77Z"/>
    <path class="cls-4" d="M644.15,198.37c-.46,1.39-1.01,2.75-1.62,4.05v14.59h-1.51v-11.74c-.63,1.03-1.3,2-1.99,2.81-.13-.38-.55-1.22-.82-1.6,1.83-2.08,3.48-5.27,4.49-8.53l1.45,.4Zm11.8,3.04c-.71,1.41-1.68,2.58-2.86,3.57,1.43,.84,3.17,1.49,5.21,1.87-.27,.32-.67,.88-.86,1.26-2.16-.48-3.99-1.28-5.46-2.27-1.55,1.07-3.36,1.85-5.31,2.46-.19-.31-.65-.92-.95-1.22,1.89-.48,3.61-1.18,5.08-2.1-.95-.76-1.68-1.6-2.25-2.42-.59,.76-1.2,1.43-1.83,2-.21-.21-.71-.61-1.05-.84v9.83h-1.37v-13.21h1.37v3.19c1.64-1.39,3.11-3.51,3.95-5.69l1.41,.36c-.27,.65-.57,1.3-.92,1.93h7.52v1.28h-1.68Zm1.72,10.77c-2.08,2.48-5.98,3.97-10.41,4.75-.17-.38-.53-.92-.82-1.24,4.22-.63,8.02-1.95,9.89-4.07l1.34,.57Zm-4.09-4.39c-1.28,1.32-3.42,2.42-5.4,3.07-.23-.27-.57-.67-.88-.92,1.87-.55,3.97-1.51,5.08-2.63l1.2,.48Zm1.99,2.02c-1.62,1.74-4.39,3.04-7.18,3.82-.19-.32-.52-.78-.82-1.03,2.65-.63,5.4-1.81,6.8-3.28l1.2,.48Zm-6.26-8.33c.59,.97,1.45,1.89,2.58,2.73,.99-.78,1.8-1.7,2.41-2.79h-4.96l-.04,.06Z"/>
    <path class="cls-4" d="M678.63,214.58v1.53h-18.69v-1.53h2.86v-9.83h1.57v9.83h4.62v-13.67h-8.25v-1.51h17.2v1.51h-7.35v5.59h6.55v1.53h-6.55v6.55h8.04Z"/>
    <path class="cls-4" d="M688.06,209.29l-1.43,1.2c-1.37-1.66-3.15-3.44-4.64-4.66l1.37-1.2c1.49,1.22,3.4,3.11,4.7,4.66Z"/>
    <path class="cls-4" d="M601.85,227.93c-.02,.76-.04,1.8-.15,3.04,.31,2.5,1.57,11.27,8.99,14.57-.44,.36-.9,.88-1.13,1.32-5.25-2.46-7.5-7.64-8.5-11.55-.97,4.2-3.19,8.9-8.31,11.63-.27-.42-.78-.9-1.26-1.22,8.71-4.41,8.59-14.61,8.65-17.8h1.72Z"/>
    <path class="cls-4" d="M623.55,239.64c1.09,3.34,3.02,5.63,4.89,5.61,.63-.02,.86-.86,.99-3.07,.36,.31,.92,.61,1.36,.73-.25,3.07-.88,3.86-2.42,3.86-2.83,.02-5.23-2.96-6.45-7.14h-6.32v5.19l5.67-1.6c.02,.44,.1,1.11,.19,1.45-6.3,1.87-7.12,2.1-7.64,2.46-.13-.42-.48-1.11-.74-1.43,.38-.19,.92-.67,.92-1.53v-15.24h14.84v6.07h-6.15c.06,1.11,.23,2.16,.46,3.17h7.24v1.47h-6.87Zm-7.94-9.24v3.13h11.7v-3.13h-11.7Zm5.94,7.77c-.19-1.01-.36-2.06-.42-3.17h-5.52v3.17h5.94Z"/>
    <path class="cls-4" d="M651.2,231.25c-.48,1.62-1.28,2.96-2.29,4.03,1.05,.97,2.31,1.7,3.72,2.16-.29,.23-.69,.76-.86,1.09-1.45-.52-2.71-1.34-3.78-2.37-1.05,.86-2.29,1.55-3.72,2.1-.15-.32-.55-.92-.8-1.2,1.39-.46,2.6-1.09,3.61-1.89-.69-.86-1.3-1.83-1.76-2.88-.38,.48-.76,.9-1.2,1.28-.19-.23-.65-.71-.97-.94v5.38h-1.24v-5.63h-2.58v5.96h-1.07v-5.96h-2.6v6.19h-1.2v-7.24h3.63v-3.46h1.39v3.46h3.67v1.24c1.37-1.13,2.42-2.81,2.96-4.7l1.32,.27c-.19,.63-.42,1.28-.71,1.87h5.71v1.24h-1.24Zm-15.26-.02c-.25-.65-.86-1.68-1.41-2.42l1.11-.48c.59,.69,1.2,1.66,1.45,2.33l-1.16,.57Zm14.55,13.08c0,.8-.19,1.2-.84,1.41-.67,.23-1.76,.23-3.51,.23-.08-.4-.32-.92-.53-1.3,1.32,.02,2.56,.02,2.9,.02,.34-.02,.44-.1,.44-.38v-3.25h-5.23v6h-1.53v-6h-4.85v4.98h-1.53v-6.34h6.38v-1.3h1.53v1.3h6.76v4.64Zm-12.85-10.98c-.19,1.24-.5,2.54-.95,3.42-.19-.11-.57-.34-.84-.42,.46-.88,.71-2.04,.88-3.19l.9,.19Zm3.02-.19c.44,1.05,.8,2.41,.9,3.28l-.84,.25c-.08-.88-.42-2.25-.84-3.3l.78-.23Zm2.6-4.39c-.61,.9-1.26,1.85-1.81,2.48l-.94-.42c.48-.71,1.11-1.83,1.45-2.56l1.3,.5Zm2.92,2.5c.42,1.13,1.03,2.16,1.81,3.07,.76-.84,1.34-1.87,1.74-3.07h-3.55Z"/>
    <path class="cls-4" d="M673.4,244.85v1.34h-17.91v-17.55h17.51v1.34h-15.98v14.87h16.38Zm-15.33-10.54c1.03,.42,2.31,1.18,2.94,1.76l-.86,1.03c-.61-.59-1.85-1.39-2.9-1.87l.82-.92Zm3.55,4.87c-.78,1.49-1.76,3.3-2.62,4.68l-1.09-.99c.78-1.11,1.91-2.96,2.77-4.64l.94,.95Zm-.57-5.88c-.57-.61-1.74-1.41-2.75-1.89l.84-.92c.99,.46,2.21,1.2,2.79,1.83l-.88,.99Zm8.02,.88v1.76h2.98v1.16h-2.98v1.74h2.98v1.18h-2.98v1.89h3.63v1.26h-8.13v.88h-1.41v-8.29c-.46,.63-.92,1.2-1.41,1.7-.17-.27-.67-.86-.97-1.11,1.55-1.47,2.92-3.72,3.72-6l1.28,.36c-.25,.76-.59,1.51-.92,2.22h3.25c-.25-.61-.61-1.34-.92-1.91l1.37-.4c.46,.71,.92,1.62,1.18,2.31h2.98v1.26h-3.65Zm-1.43,0h-3.07v1.76h3.07v-1.76Zm0,2.92h-3.07v1.74h3.07v-1.74Zm0,2.92h-3.07v1.89h3.07v-1.89Z"/>
    <path class="cls-4" d="M693.04,233.18c-.57,3.44-1.45,6.24-2.79,8.5,1.15,1.74,2.64,3.11,4.49,3.95-.38,.29-.82,.9-1.07,1.3-1.76-.9-3.21-2.23-4.39-3.88-1.28,1.68-2.96,3.02-5.1,4.07-.15-.38-.61-1.09-.92-1.43,2.21-1.01,3.88-2.33,5.12-4.09-.97-1.74-1.68-3.78-2.25-6.03-.46,.92-.99,1.76-1.51,2.52-.25-.29-.84-.88-1.2-1.13l.11-.13h-5.5v6.61l5.52-1.99c0,.46,.1,1.11,.21,1.47-6.07,2.33-6.84,2.69-7.31,3.11-.11-.46-.38-1.22-.63-1.6,.32-.15,.65-.44,.65-1.18v-7.96h5.56v-4.43h-5.82v-1.53h7.35v7.43c1.64-2.16,2.77-5.48,3.46-8.92l1.51,.29c-.25,1.24-.55,2.44-.92,3.57h6.78v1.47h-1.36Zm-5.98,.21c.48,2.5,1.22,4.79,2.25,6.74,1.01-1.89,1.68-4.2,2.1-6.95h-4.26l-.08,.21Z"/>
  </g>
  <g>
    <path class="cls-4" d="M856.67,206.53c-.5,1.49-1.38,3.13-2.16,4.18-.25-.19-.78-.59-1.09-.76,.82-.99,1.55-2.42,1.97-3.78l1.28,.36Zm2.58-1.47v7.29h-1.53v-7.29h-4.18v-1.34h4.18v-2.21h-4.28v-1.32h5.79c.4-.97,.88-2.35,1.13-3.32l1.43,.29c-.38,1.01-.78,2.14-1.18,3.02h2.67v1.32h-4.03v2.21h3.8v1.34h-3.8Zm3.72-8.31h-9.2v-1.3h4.12c-.27-.63-.63-1.34-.92-1.91l1.51-.4c.44,.71,.9,1.62,1.2,2.31h3.3v1.3Zm-7.03,3.36c-.11-.78-.44-1.99-.8-2.92l1.24-.29c.42,.9,.78,2.08,.86,2.86l-1.3,.36Zm5.33,5.94c.67,1.03,1.41,2.39,1.76,3.3l-1.11,.63c-.34-.9-1.09-2.35-1.72-3.36l1.07-.57Zm11.17-4.3h-2.29v10.58h-1.51v-10.58h-2.88v.74c0,3-.27,7.12-2.18,9.85-.25-.29-.86-.78-1.2-.94,1.76-2.52,1.93-6.11,1.93-8.9v-7.22c2.35-.38,5.02-1.01,6.53-1.64l1.24,1.16c-1.72,.65-4.12,1.18-6.32,1.51v3.99h6.68v1.47Z"/>
    <path class="cls-4" d="M890.29,210.75c1.49,0,1.72-.4,1.87-2.83,.38,.25,.99,.48,1.43,.57-.27,2.92-.78,3.67-3.25,3.67h-6.11c-2.75,0-3.53-.48-3.53-2.37v-6.01h-2.25v1.43c0,2.25-.57,5.19-3.17,7.22-.21-.31-.76-.9-1.07-1.09,2.37-1.83,2.79-4.26,2.79-6.15v-1.41h-2.41v-1.45h9.57v1.45h-1.99v6.01c0,.78,.31,.96,2.06,.96h6.07Zm-13.63-12.89h-1.53v-3.59h17.57v3.59h-1.55v-2.14h-14.49v2.14Zm-.61,.36h7.31v1.45h-7.31v-1.45Zm14.87,9.59c0,.8-.19,1.2-.74,1.45-.59,.21-1.45,.25-2.81,.23-.06-.4-.27-.96-.48-1.36,1.01,.02,1.91,.02,2.18,.02,.27-.02,.36-.08,.36-.36v-6.34h-5.31v-1.41h5.31v-2.63h1.49v2.63h2.31v1.41h-2.31v6.36Zm-4.87-5.23c.82,1.07,1.58,2.5,1.89,3.51l-1.32,.59c-.27-.99-1.01-2.52-1.79-3.61l1.22-.48Z"/>
    <path class="cls-4" d="M902.06,210.54c0,.8-.19,1.24-.69,1.47-.52,.25-1.34,.27-2.73,.27-.06-.38-.25-1.01-.42-1.41,.96,.06,1.85,.04,2.1,.04,.27-.02,.38-.13,.38-.4v-5.71c-.82,.5-1.62,.97-2.37,1.43l-.57-1.22c-.15,2.58-.57,5.38-1.53,7.45-.27-.25-.88-.61-1.24-.74,1.39-2.94,1.49-7.14,1.49-10.18v-7.54h5.58v16.52Zm-4.2-9.01c0,.97-.02,2.08-.08,3.21,.8-.32,1.83-.78,2.92-1.28v-2.81l-.84,.71c-.44-.61-1.26-1.53-1.99-2.25v2.41Zm0-6.09v3.23l.69-.5c.76,.67,1.64,1.55,2.14,2.18v-4.91h-2.83Zm11.59,2v2.39h4.28v7.85c0,.76-.11,1.24-.65,1.51-.5,.27-1.32,.27-2.48,.27-.06-.44-.27-1.09-.46-1.53,.88,.02,1.6,.02,1.83,0,.25,0,.31-.06,.31-.29v-6.38h-2.83v11.13h-1.53v-11.13h-2.67v8.11h-1.43v-9.53h4.09v-2.39h-5.02v-1.47h5.02v-2.56h1.53v2.56h5.04v1.47h-5.04Z"/>
    <path class="cls-4" d="M926.67,201.53c-.06,.65-.11,1.3-.21,1.91,.99,4.49,3.42,6.82,8.94,7.43-.31,.31-.67,.96-.86,1.41-4.79-.71-7.33-2.6-8.71-6.15-1.01,3-3.17,5.12-8.29,6.28-.15-.42-.53-1.01-.82-1.34,7.03-1.41,7.94-4.68,8.33-9.53h1.62Zm6.68,1.32c-1.7-1.24-5.04-3.11-7.81-4.45-1.13,2.27-3.32,3.82-7.66,4.68-.13-.36-.5-.94-.76-1.26,6.63-1.22,7.62-4.01,8.04-8.57h1.57c-.13,1.43-.31,2.71-.67,3.84,2.75,1.26,6.3,3.09,8.11,4.37l-.82,1.38Zm-12.24,4.77c-.65-.88-1.91-2.37-2.9-3.46l1.13-.78c1.01,1.03,2.31,2.46,2.96,3.3l-1.2,.94Zm.06-9.03c-.61-.86-1.81-2.29-2.75-3.32l1.16-.82c.94,.99,2.2,2.33,2.81,3.17l-1.22,.97Zm7.89,8.42c.82-.99,1.89-2.54,2.5-3.7l1.49,.54c-.82,1.3-1.89,2.73-2.73,3.67l-1.26-.52Zm4.14-11.97c-.86,1.24-1.95,2.56-2.81,3.42l-1.28-.5c.84-.9,1.95-2.35,2.56-3.42l1.53,.5Z"/>
    <path class="cls-4" d="M956.42,195.63v1.43h-14.28v4.77c0,3.28-.38,7.71-2.98,10.65-.23-.29-.88-.76-1.24-.95,1.62-1.81,2.27-4.12,2.52-6.36-.92,.59-1.85,1.18-2.69,1.7l-.57-1.41c.86-.44,2.1-1.15,3.38-1.89,.04-.61,.04-1.18,.04-1.74v-1.03l-1.28,.59c-.34-.97-1.2-2.48-1.93-3.63l1.26-.5c.69,1.03,1.53,2.46,1.95,3.38v-5h7.37c-.25-.65-.61-1.47-.92-2.1l1.49-.4c.46,.8,.94,1.83,1.16,2.5h6.72Zm-1.93,9.28c-.84,2.16-2.29,3.74-4.07,4.89,1.58,.65,3.49,1.05,5.65,1.26-.29,.34-.69,.94-.86,1.36-2.48-.31-4.58-.88-6.34-1.76-1.83,.86-3.95,1.43-6.11,1.79-.13-.4-.4-.99-.67-1.32,1.89-.23,3.74-.65,5.35-1.32-1.43-1.01-2.52-2.31-3.32-3.93h-.46v-1.34h9.62l.27-.06,.95,.44Zm-1.81-3.46c0,.57,.06,.76,.38,.76h1.62c.32,0,.74-.02,1.03-.11,.04,.44,.11,1.05,.15,1.43-.27,.11-.74,.11-1.16,.11h-1.68c-1.51,0-1.85-.59-1.85-2.21v-1.74h-4.41v.61c0,1.51-.61,3.15-3.28,4.16-.15-.34-.65-.94-.95-1.18,2.37-.82,2.77-1.91,2.77-3.04v-1.89h7.37v3.11Zm-7.05,4.43c.74,1.34,1.85,2.42,3.3,3.23,1.47-.82,2.69-1.87,3.49-3.23h-6.78Z"/>
    <path class="cls-4" d="M958.11,202.62c.5-1.41,.88-3.7,1.03-5.35l1.24,.19c-.11,1.66-.48,4.05-.99,5.61l-1.28-.44Zm3.17-9.38h1.45v19.15h-1.45v-19.15Zm2.67,3.02c.5,.99,1.09,2.31,1.32,3.09l-1.11,.61c-.23-.84-.8-2.21-1.28-3.23l1.07-.46Zm13.48,3.76v1.2h-12.77v-1.2h5.52v-1.47h-4.41v-1.13h4.41v-1.32h-4.98v-1.2h4.98v-1.64h1.53v1.64h5.06v1.2h-5.06v1.32h4.51v1.13h-4.51v1.47h5.71Zm-1.3,10.71c0,.8-.17,1.2-.73,1.41-.61,.25-1.53,.25-3.02,.25-.06-.4-.25-.97-.44-1.34,1.05,.04,2.06,.04,2.33,.02,.29-.02,.38-.1,.38-.36v-1.58h-7.35c-.21,1.26-.61,2.52-1.39,3.53-.23-.32-.82-.9-1.13-1.07,1.16-1.57,1.28-3.7,1.28-5.33v-3.84h10.08v8.31Zm-1.49-2.75v-1.6h-7.12c0,.48-.02,1.05-.06,1.6h7.18Zm-7.12-4.39v1.62h7.12v-1.62h-7.12Z"/>
  </g>
  <g>
    <path class="cls-1" d="M773.42,309.5c-1,1.29-2.19,2.61-3.31,3.72,1.71,.45,3.62,.57,5.81,.36-.44,.73-.86,2.1-1.02,2.95-5.48,.33-9.35-1.44-12.54-5.11l-3.29,.96,1.43,4.88,4.75-2.49c.08,.78,.31,1.93,.48,2.51-5.15,2.83-6.33,3.5-6.87,3.96l-.1,.16c-.37-.59-1.32-1.86-1.95-2.38,.43-.43,.93-1.17,.66-2.12l-1.09-3.73-3.36,.98-.71-2.42,3.82-1.12-2.97-10.18,14.54-4.25,.65,2.24-11.73,3.43,.37,1.27,11.08-3.24,.62,2.12-11.08,3.24,.35,1.2,11.08-3.24,.62,2.12-11.08,3.24,.36,1.25,14.15-4.13,.71,2.42-2.49,.73,2.13,.7Zm-8.19,1.07c.76,.73,1.61,1.31,2.55,1.78,.97-1.06,2.01-2.29,2.71-3.32l-5.25,1.53Z"/>
    <path class="cls-1" d="M783.51,306.28c-.13-.29-.28-.62-.46-.97-3.99,1.82-4.69,2.27-5.13,2.65-.29-.47-1.09-1.61-1.62-2.2,.58-.34,.93-1,1.42-2.07,.16-.4,.51-1.17,.85-2.22-1.62,.7-2.09,.99-2.39,1.25-.29-.47-1.05-1.54-1.55-2.13,.43-.25,.67-.79,.93-1.6,.27-.78,.9-3.69,.93-6.32l2.79,.29c-.24,2.1-.75,4.37-1.38,6.3l1.51-.56c.31-1.17,.58-2.37,.73-3.57l2.75,.77c-.4,1.87-.97,3.78-1.68,5.64l1.56-.98c.98,1.39,2.1,3.26,2.62,4.44l-1.9,1.28Zm-3.14,2.09c.43,2.17,.72,4.54,.67,6.16-.5-.1-1.64-.12-2.24-.12,.15-1.54-.19-3.75-.63-5.74l2.19-.29Zm1.61-5.02c-.28-.52-.6-1.02-.88-1.47-.32,.77-.65,1.54-.99,2.26l1.87-.8Zm.57,4.01c.7,1.47,1.49,3.39,1.93,4.74l-1.93,.94c-.38-1.31-1.16-3.29-1.82-4.77l1.81-.9Zm1.97-1.3c.67,.91,1.43,2.08,1.87,2.9l-1.68,1.17c-.39-.81-1.18-2.08-1.82-2.97l1.63-1.1Zm13.49-5.62c-.82,1.12-1.59,2.34-2.33,3.31,1.29,1.08,2.75,1.9,4.29,2.2-.43,.68-.97,1.91-1.16,2.71-1.61-.53-3.1-1.55-4.44-2.88l.58,1.98c.36,1.22,.35,1.95-.33,2.62-.65,.61-1.71,.98-3.19,1.41-.31-.71-.94-1.68-1.47-2.3,.87-.2,1.81-.48,2.08-.58,.3-.09,.37-.18,.3-.44l-2.31-7.92-4.4,1.29-2.45-8.39,3.27-.96c.06-.92,.07-1.9,.02-2.66l3.29-.36c-.15,.77-.34,1.5-.49,2.19l4.93-1.44,2.45,8.39-4.03,1.18,.22,.74c.4,.58,.81,1.14,1.23,1.64,.55-.94,1.09-2.02,1.4-2.83l2.55,1.11Zm-7.56,2.03c.28,3.79-.65,6.94-2.61,9.12-.49-.46-1.46-1.15-2.1-1.46,1.2-1.2,1.97-3.1,2.18-5.04l-2.07,.61-.65-2.21,3.06-.9,.39-.19,1.8,.07Zm-3.82-6.56l5.85-1.71-.34-1.15-5.85,1.71,.34,1.15Zm.92,3.13l5.85-1.71-.36-1.22-5.85,1.71,.36,1.22Z"/>
    <path class="cls-1" d="M822.75,299.12c.44,1.5,.34,2.38-.5,3.1-.84,.72-2.3,1.2-4.38,1.8-.32-.76-1.1-1.88-1.71-2.5,1.39-.3,2.92-.78,3.38-.94,.44-.13,.54-.28,.42-.7l-3.43-11.75-13.55,3.96,4.38,14.98-2.74,.8-5.16-17.65,6.36-1.86c.12-1.38,.16-2.97,.1-4.2l3.62-.53c-.15,1.29-.37,2.66-.63,3.84l9.61-2.81,4.23,14.47Zm-12.09,1.68l.47,1.61-2.47,.72-2.77-9.47,8.99-2.63,2.29,7.86-6.52,1.91Zm-1.59-5.46l.9,3.06,4.01-1.17-.9-3.06-4.01,1.17Z"/>
    <path class="cls-1" d="M847.66,291.09l.81,2.76-20.94,6.12-.81-2.76,8.25-2.41-5.07-17.35,2.95-.86,1.93,6.59,8.13-2.38,.81,2.79-8.13,2.38,2.33,7.97,9.75-2.85Z"/>
  </g>
  <g>
    <path class="cls-4" d="M986.83,11.17c-.29,1.83-.76,3.4-1.39,4.72,1.41,2.18,4.03,2.5,7.83,2.5,2.18,0,5.23-.1,7.37-.27-.23,.34-.44,1.05-.5,1.49-1.97,.11-4.58,.17-6.87,.17-4.2,0-6.8-.44-8.44-2.71-.78,1.32-1.7,2.33-2.77,3.07-.23-.32-.76-.86-1.03-1.07,1.99-1.28,3.51-3.59,4.2-6.87h-2.29c-.55,0-1.09,.13-1.24,.29-.11-.38-.42-1.09-.57-1.43,.29-.08,.63-.21,1.01-.61,.48-.48,1.72-2.14,2.62-3.42h-3.36v-1.28h4.35l.27-.11,1.03,.48c-.88,1.22-2.48,3.38-3.67,4.79h2.39l.27-.04,.78,.29Zm-2.02-6.19c-.55-.86-1.7-2.31-2.63-3.34l1.15-.69c.95,1.01,2.08,2.35,2.67,3.19l-1.2,.84Zm4.56,11.91h-1.41V6.16h6.03c-1.24-.61-2.75-1.28-4.01-1.74l.99-.88c.9,.32,1.95,.74,2.94,1.16,1.01-.46,2.06-1.07,2.9-1.68h-8.8V1.79h10.25l.31-.08,.95,.74c-1.11,1.05-2.69,2.1-4.24,2.88,.63,.32,1.2,.57,1.64,.84h2.6V15.44c0,.76-.17,1.09-.71,1.32-.52,.21-1.41,.23-2.79,.23-.04-.38-.25-.88-.42-1.24,1.03,.02,1.89,.02,2.14,.02,.27-.02,.36-.08,.36-.36v-1.95h-3.76v3.42h-1.36v-3.42h-3.59v3.42Zm0-9.53v1.85h3.59v-1.85h-3.59Zm3.59,4.91v-1.91h-3.59v1.91h3.59Zm5.12-4.91h-3.76v1.85h3.76v-1.85Zm0,4.91v-1.91h-3.76v1.91h3.76Z"/>
    <path class="cls-4" d="M1007.93,18.33c0,.74-.15,1.13-.61,1.37-.44,.23-1.16,.25-2.31,.25-.04-.34-.21-.92-.38-1.28,.82,.02,1.53,.02,1.76,0,.23,0,.31-.08,.31-.34v-6.13c-.61,.57-1.24,1.11-1.85,1.66l-.48-.92c-.17,2.46-.53,5.14-1.34,7.22-.19-.27-.69-.78-.97-.94,1.09-2.98,1.2-7.12,1.2-10.12V1.68h4.66V18.33Zm-3.44-9.24c0,1.03-.02,2.16-.08,3.38,.63-.4,1.45-1.01,2.31-1.66v-2.58l-.84,.59c-.29-.52-.84-1.24-1.39-1.89v2.16Zm0-5.98v3.19l.55-.34c.61,.67,1.28,1.49,1.68,2.08V3.11h-2.23Zm11.74,14.24c-2.52,.59-5.14,1.13-7.1,1.57l-.36-1.36c1.05-.19,2.46-.44,3.95-.76,.46-1.07,.97-2.58,1.22-3.63l1.41,.42c-.38,.94-.82,2.02-1.24,2.94l1.99-.42,.13,1.24Zm-4.39-13.16h-3.04v-1.28h3.04V.93h1.43v1.97h2.81v1.28h-2.81v1.72h2.67v1.28h-6.68v-1.28h2.58v-1.72Zm3.8,8.63h-6.17v-4.35h6.17v4.35Zm-4.87,3.8c-.15-.8-.57-2.04-1.01-2.96l1.13-.36c.46,.9,.9,2.1,1.05,2.9l-1.18,.42Zm3.51-7.01h-3.51v2.08h3.51v-2.08Zm7.01,3.95c-.99,2.75-2.77,5.17-5.12,6.66-.23-.38-.65-.84-1.03-1.11,2.16-1.24,3.9-3.51,4.77-5.94l1.39,.4Zm-.27-5.98c-.9,2.06-2.39,4.07-3.97,5.38-.27-.34-.71-.74-1.09-1.01,1.43-1.11,2.92-3.02,3.67-4.83l1.39,.46Zm-.15-5.77c-.9,1.93-2.35,3.91-3.78,5.19-.27-.34-.74-.74-1.09-.99,1.32-1.09,2.75-2.94,3.51-4.64l1.36,.44Z"/>
    <path class="cls-4" d="M1030.63,12.35l-1.43,1.2c-1.37-1.66-3.15-3.44-4.64-4.66l1.37-1.2c1.49,1.22,3.4,3.11,4.7,4.66Z"/>
    <path class="cls-4" d="M1052.72,10.84h-4.51v9.26h-1.57V10.84h-6.4c-.17,3.46-1.07,6.87-5.33,9.3-.23-.36-.78-.92-1.11-1.18,3.88-2.18,4.74-5.12,4.91-8.13h-4.7v-1.51h4.72V4.67c-1.34,.38-2.69,.73-3.99,1.03-.08-.38-.34-.95-.57-1.26,3.32-.78,7.01-1.93,9.09-3.19l1.18,1.28c-1.18,.61-2.63,1.16-4.18,1.66v5.14h6.38V1.33h1.57v8h4.51v1.51Z"/>
    <path class="cls-4" d="M1054.87,18.42c.82-1.15,1.64-2.94,2.14-4.24l1.34,.59c-.57,1.28-1.3,3.13-2.06,4.32l-1.43-.67Zm8.9-5.63h-5.82V2.86h4.87c.31-.67,.63-1.55,.8-2.16l1.81,.32c-.29,.65-.65,1.32-.99,1.85h6.26V12.79h-6.8c1.07,.92,2.27,2.27,2.81,3.15l-1.26,.78c-.53-.92-1.72-2.31-2.79-3.3l1.11-.63Zm3.36,5.48c1.11,0,1.3-.31,1.41-2.44,.36,.27,1.01,.5,1.45,.59-.21,2.67-.71,3.3-2.75,3.3h-4.79c-2.44,0-3.07-.44-3.07-2.1v-3.42h1.55v3.4c0,.57,.23,.67,1.6,.67h4.6Zm-7.66-12.49h9.68v-1.68h-9.68v1.68Zm0,2.88h9.68v-1.68h-9.68v1.68Zm0,2.88h9.68v-1.68h-9.68v1.68Zm11.74,2.31c.99,1.26,2.02,3,2.39,4.16l-1.45,.67c-.36-1.15-1.37-2.94-2.33-4.24l1.38-.59Z"/>
    <path class="cls-4" d="M1083.13,12.35l-1.43,1.2c-1.37-1.66-3.15-3.44-4.64-4.66l1.37-1.2c1.49,1.22,3.4,3.11,4.7,4.66Z"/>
    <path class="cls-4" d="M1091.72,1.45c-.44,1.37-1.01,2.77-1.64,4.12v14.53h-1.49V8.34c-.61,1.03-1.3,1.97-1.97,2.81-.15-.38-.57-1.2-.82-1.6,1.81-2.1,3.49-5.29,4.49-8.53l1.43,.42Zm12.96,8.71c-.78,1.91-1.79,3.65-2.98,5.17,.48,2.08,1.16,3.3,1.95,3.3,.42,0,.65-1.01,.71-3.46,.32,.31,.82,.65,1.18,.8-.23,3.19-.69,4.16-2.08,4.16s-2.27-1.26-2.92-3.4c-.95,1.01-1.95,1.89-3,2.65-.21-.29-.74-.86-1.05-1.13,1.32-.84,2.54-1.91,3.63-3.15-.38-1.79-.63-3.91-.8-6.3h-3.4v3.21l2.81-.76,.17,1.41c-.99,.29-2,.55-2.98,.84v4.7c0,.92-.21,1.32-.78,1.57-.59,.25-1.55,.29-2.98,.29-.06-.42-.27-1.05-.48-1.47,1.07,.02,2.06,.02,2.35,0,.32,0,.42-.08,.42-.4v-4.3l-3.19,.88-.44-1.51c.99-.21,2.27-.53,3.63-.9v-3.57h-3.46v-1.39h3.46v-3.34c-1.01,.27-2.06,.5-3.02,.71-.04-.36-.27-.88-.46-1.22,2.35-.54,5.1-1.32,6.66-2.1l1.15,1.2c-.82,.36-1.81,.71-2.86,1.03v3.72h3.36c-.11-1.97-.15-4.07-.17-6.26h1.53c-.02,2.23,.02,4.33,.1,6.26h4.33v1.39h-4.26c.13,1.76,.29,3.36,.52,4.7,.78-1.13,1.43-2.37,1.95-3.7l1.39,.38Zm-.82-4.01c-.4-1.05-1.32-2.73-2.16-3.97l1.18-.5c.86,1.22,1.81,2.86,2.21,3.88l-1.22,.59Z"/>
    <path class="cls-4" d="M1107.28,19.05c1.22-.95,1.91-2.6,2.27-4.24l1.32,.44c-.4,1.72-1.03,3.55-2.33,4.6l-1.26-.8Zm4.41-7.96v1.66h13.75s-.02,.44-.04,.67c-.25,3.99-.48,5.5-1.01,6.09-.36,.38-.73,.5-1.3,.55-.52,.04-1.51,.04-2.54-.02-.02-.4-.17-.97-.4-1.32,1.01,.1,1.93,.1,2.27,.1s.55-.02,.69-.21c.34-.36,.55-1.55,.76-4.51h-13.73V2.88h5.23c.27-.67,.57-1.47,.71-2.04l1.79,.25c-.29,.61-.63,1.24-.95,1.78h6.24v5.35h-11.46v1.58h14.51v1.28h-14.51Zm0-6.95v2.83h9.93v-2.83h-9.93Zm1.95,11.09c.38,1.22,.59,2.77,.59,3.8l-1.37,.21c.04-1.03-.15-2.6-.48-3.82l1.26-.19Zm3.34-.17c.53,1.09,1.01,2.54,1.11,3.42l-1.26,.36c-.13-.9-.55-2.37-1.05-3.48l1.2-.29Zm3.65,2.79c-.25-.76-.9-1.91-1.53-2.77l1.09-.4c.63,.82,1.3,1.95,1.57,2.69l-1.13,.48Z"/>
    <path class="cls-4" d="M1134.44,16.82v3.28h-1.47v-3.28h-4.75v-1.38h4.75v-1.49h-3.88V6.85h9.34v7.1h-3.99v1.49h4.68v1.38h-4.68Zm-1.22-11.09h-4.3V1.56h4.3V5.74Zm-1.2-3.09h-1.91v1.99h1.91v-1.99Zm-1.62,7.16h2.62v-1.74h-2.62v1.74Zm0,2.92h2.62v-1.76h-2.62v1.76Zm8.21-6.99h-4.39V1.56h4.39V5.74Zm-1.55,2.33h-2.69v1.74h2.69v-1.74Zm0,2.9h-2.69v1.76h2.69v-1.76Zm.34-8.31h-1.99v1.99h1.99v-1.99Zm9.37,6.74c-.69,2.04-1.72,4.05-3.02,5.82,.54,1.91,1.22,3.07,1.99,3.11,.44,.02,.76-1.13,.88-3.21,.29,.31,.92,.69,1.2,.84-.42,3.3-1.22,4.24-2.06,4.2-1.37-.06-2.39-1.34-3.15-3.53-1.2,1.36-2.56,2.5-4.03,3.28-.25-.36-.73-.82-1.13-1.09,1.76-.84,3.36-2.18,4.7-3.82-.46-1.83-.78-4.07-1.03-6.63l-2.25,.29-.19-1.43,2.33-.29c-.15-1.83-.25-3.8-.31-5.86h1.47c.04,1.97,.15,3.91,.29,5.69l4.89-.61,.19,1.41-4.96,.63c.19,1.95,.42,3.72,.74,5.21,.94-1.45,1.7-3.04,2.22-4.68l1.22,.69Zm-.9-3.91c-.42-.99-1.45-2.48-2.42-3.55l1.16-.65c.99,1.05,2.06,2.48,2.52,3.46l-1.26,.73Z"/>
    <path class="cls-4" d="M1168.45,11.76h-2.6v3.55h-6.3v2.79c0,1.01-.27,1.45-1.01,1.7-.74,.23-2,.25-3.91,.25-.11-.44-.36-1.09-.61-1.51,1.53,.04,3,.04,3.42,.02,.4-.02,.52-.13,.52-.48v-2.77h-6.66v-1.28h6.66v-2.27h-8.73v-1.3h8.73v-2.18h-6.3v-1.3h11.72l-1.28-.46c.84-.97,1.93-2.56,2.52-3.65l1.62,.55c-.86,1.26-1.91,2.63-2.77,3.57h2.37v3.49h2.6v1.3Zm-1.74-9.72c-4.05,.78-10.43,1.24-15.77,1.39-.04-.38-.27-.88-.44-1.24,5.27-.19,11.61-.63,15.14-1.34l1.07,1.2Zm-13.02,4.58c-.21-.71-.78-1.79-1.36-2.56l1.45-.46c.61,.76,1.2,1.8,1.43,2.48l-1.51,.55Zm4.7-.06c-.13-.78-.59-1.93-1.05-2.81l1.41-.38c.5,.86,.99,2.02,1.15,2.75l-1.51,.44Zm1.16,3.91h4.75v-2.18h-4.75v2.18Zm4.75,1.3h-4.75v2.27h4.75v-2.27Z"/>
    <path class="cls-4" d="M1014.88,42.35l-1.43,1.2c-1.37-1.66-3.15-3.44-4.64-4.66l1.37-1.2c1.49,1.22,3.4,3.11,4.7,4.66Z"/>
    <path class="cls-4" d="M1024.27,43.55c-.04-.31-.13-.71-.23-1.13-4.45,.67-5.08,.82-5.5,1.03-.08-.32-.32-1.07-.5-1.45,.46-.11,.94-.63,1.55-1.39,.32-.38,.97-1.26,1.72-2.37-2.16,.25-2.6,.34-2.9,.48-.08-.32-.31-.99-.48-1.39,.36-.08,.71-.5,1.15-1.15,.44-.61,1.91-3.02,2.77-5.27l1.39,.57c-.92,1.97-2.06,3.99-3.19,5.58l2.16-.19c.53-.88,1.07-1.83,1.51-2.79l1.34,.8c-1.34,2.39-2.98,4.83-4.66,6.76l3.3-.42c-.23-.71-.46-1.43-.71-2.06l1.2-.34c.57,1.39,1.16,3.21,1.36,4.3l-1.28,.42Zm-4.03,1.01c-.21,1.83-.61,3.84-1.07,5.17-.27-.15-.92-.36-1.24-.48,.48-1.3,.8-3.17,1.01-4.89l1.3,.21Zm2.04-.25c.27,1.39,.53,3.19,.59,4.41l-1.26,.21c-.04-1.18-.27-3-.52-4.43l1.2-.19Zm1.95-.54c.42,1.11,.9,2.56,1.07,3.51l-1.15,.4c-.19-.96-.63-2.44-1.03-3.55l1.11-.36Zm12.83,4.41v1.43h-11.99v-1.43h5.35v-3.99h-4.18v-1.41h9.97v1.41h-4.26v3.99h5.1Zm-8.99-6.11c-.44-1.09-1.43-2.71-2.5-4.14,.82-1.28,1.72-2.88,2.21-3.86l1.36,.36c-.57,1.07-1.36,2.41-2.08,3.46,.92,1.22,1.85,2.69,2.31,3.63l-1.3,.55Zm8.78-8.67h-11.07v-1.43h11.07v1.43Zm-4.09,1.05c-.59,1.05-1.41,2.39-2.1,3.42,.92,1.2,1.89,2.65,2.37,3.57l-1.3,.59c-.44-1.09-1.47-2.71-2.6-4.12,.86-1.26,1.78-2.83,2.27-3.82l1.36,.36Zm2.71,7.62c-.52-1.09-1.64-2.73-2.81-4.14,.88-1.28,1.85-2.88,2.33-3.86l1.39,.38c-.61,1.07-1.45,2.39-2.16,3.44,.99,1.18,2.02,2.62,2.52,3.57l-1.26,.61Z"/>
    <path class="cls-4" d="M1039.68,36.95c1.11,.57,2.54,1.49,3.28,2.18l-.82,1.07c-.69-.69-2.12-1.66-3.23-2.29l.78-.96Zm-.57,12.01c.82-1.62,1.95-4.3,2.77-6.61l1.05,.78c-.78,2.16-1.8,4.72-2.64,6.61l-1.18-.78Zm3.38-14.17c-.61-.82-1.93-1.97-3.02-2.75l.84-.9c1.09,.73,2.42,1.85,3.07,2.63l-.88,1.03Zm11.86,6.38h1.47v8.94h-1.47v-3.32h-7.6c-.36,1.22-1.05,2.42-2.37,3.34-.25-.27-.8-.67-1.18-.84,2.16-1.51,2.48-3.7,2.48-5.31v-2.79h1.45v1.37h7.22v-1.39Zm-5.54-5.27s-.02,.32-.02,.5c-.08,2.67-.15,3.7-.46,4.05-.19,.25-.44,.38-.84,.4-.27,.04-.73,.04-1.13,.02-.02-.34-.13-.76-.27-1.05,.46,.04,.78,.04,.94,.04,.19,.02,.29-.02,.38-.15,.15-.21,.19-.9,.27-2.75h-1.2c-.29,1.95-1.03,3.38-2.41,4.28-.11-.23-.46-.67-.69-.88,1.13-.73,1.74-1.87,1.99-3.4h-1.2v-1.07h4.64Zm9.03-1.7h-13.79v-1.28h5.96c-.11-.61-.27-1.39-.48-1.97l1.43-.19c.25,.67,.5,1.58,.61,2.16h6.28v1.28Zm-3.49,11.34v-1.72h-7.22v.19c0,.48-.02,1.01-.1,1.53h7.33Zm-4.96-9.13c-.15-.5-.54-1.22-.92-1.74l.88-.38c.42,.5,.82,1.18,.99,1.64l-.95,.48Zm3.86-1.76c-.61,.71-1.38,1.45-1.99,2.02v4.43h-1.2v-4.43c.69-.67,1.6-1.72,2.06-2.44l1.13,.42Zm3.86,1.26c-.4,.21-.84,.4-1.34,.59,.42,1.51,1.11,2.96,2.12,3.65-.25,.19-.57,.57-.73,.84-1.09-.88-1.83-2.5-2.23-4.22-.42,.13-.84,.23-1.22,.34v2.65l1.68-.48c.02,.27,.1,.67,.17,.88-2.14,.71-2.56,.9-2.79,1.09v-.02c-.11-.25-.36-.78-.53-1.03,.21-.15,.46-.46,.46-1.26v-2.54c1.24-.32,2.64-.8,3.44-1.28l.96,.8Z"/>
    <path class="cls-4" d="M1078.01,43.65c-1.2,.88-2.65,1.79-3.93,2.46,1.39,1.11,3.15,1.93,5.21,2.35-.36,.34-.78,.92-.99,1.36-4.22-1.09-7.08-3.59-8.65-7.37h-.15c-.82,.86-1.85,1.68-2.98,2.42v3.13l4.93-1.07c-.02,.4,0,1.01,.06,1.3-5.44,1.32-6.13,1.53-6.59,1.83-.1-.36-.4-.97-.61-1.26,.27-.15,.69-.48,.69-1.28v-1.74c-1.36,.73-2.77,1.32-4.12,1.74-.21-.36-.63-.9-.99-1.22,2.71-.69,5.67-2.16,7.64-3.84h-4.05v-2.75h-3v-1.34h3v-2.65h12.26v2.65h3.04v1.34h-3.04v2.75h-4.56c.5,1.07,1.18,2.02,1.99,2.83,1.24-.74,2.69-1.76,3.57-2.52l1.24,.88Zm.54-9.49h-17.97v-1.28h8.42c-.29-.52-.63-1.15-.97-1.64l1.53-.42c.44,.61,.95,1.45,1.26,2.06h7.73v1.28Zm-13.56,2.77v1.53h9.22v-1.53h-9.22Zm0,4.28h9.22v-1.6h-9.22v1.6Z"/>
    <path class="cls-4" d="M1086.79,41.19c-.31,1.87-.8,3.46-1.47,4.79,1.41,2.1,3.99,2.42,7.73,2.42,2.16,0,5.19-.1,7.31-.27-.23,.34-.44,1.05-.53,1.49-1.93,.11-4.54,.17-6.8,.17-4.12,0-6.72-.42-8.34-2.65-.8,1.3-1.78,2.29-2.9,3.02-.21-.34-.71-.88-1.03-1.09,2.12-1.26,3.7-3.55,4.41-6.87h-2.42c-.54,0-1.09,.13-1.24,.29-.11-.38-.44-1.13-.61-1.47,.32-.08,.67-.23,1.03-.61,.5-.48,1.74-2.12,2.65-3.38h-3.42v-1.28h4.37l.36-.15,1.07,.52c-.92,1.22-2.52,3.38-3.74,4.79h2.52l.27-.04,.78,.31Zm-2.12-6.24c-.59-.86-1.72-2.31-2.67-3.34l1.18-.69c.95,1.01,2.1,2.35,2.69,3.19l-1.2,.84Zm9.17,9.03c0,.42,.06,1.01,.11,1.34-4.41,1.37-5.04,1.6-5.46,1.89-.08-.34-.4-.92-.61-1.22,.29-.15,.71-.5,.71-1.32v-12.81h8.96v7.81h-7.5v5.38l3.78-1.07Zm-3.78-10.81v1.97h6.03v-1.97h-6.03Zm6.03,5.21v-2.06h-6.03v2.06h6.03Zm-3.25,2.06c.74,.53,1.53,1.13,2.31,1.79,1.13-.71,2.52-1.74,3.34-2.52l1.2,.95c-1.07,.86-2.42,1.74-3.55,2.39,1.26,1.07,2.41,2.18,3.13,3.04l-1.18,.9c-1.26-1.6-4.03-4.07-6.32-5.75l1.07-.8Z"/>
    <path class="cls-4" d="M1114.72,36.13c-.27,1.87-1.11,2.92-3.61,3.49-.08-.21-.27-.53-.48-.78v.29c0,3.13-.32,7.73-2.31,10.92-.23-.23-.84-.63-1.18-.74,1.89-3.07,2.12-7.22,2.12-10.18v-2.31c-.25,.23-.48,.44-.76,.67-.23-.31-.67-.73-1.01-.92h-1.37v3.84l2.06-.65,.21,1.43-2.27,.76v6.32c0,.86-.21,1.28-.73,1.53-.48,.25-1.28,.31-2.6,.29-.06-.38-.25-1.01-.46-1.45,.9,.02,1.74,.02,1.97,0,.25,0,.36-.06,.36-.38v-5.86l-2.5,.82-.4-1.49c.8-.23,1.79-.55,2.9-.86v-4.3h-2.6v-1.45h2.6v-4.2h1.47v4.2h2.23v.69c1.6-1.53,2.71-3.38,3.3-4.91l1.43,.23c-.17,.4-.36,.78-.57,1.2h3.78l.23-.06,.97,.61c-.27,.69-.69,1.45-1.11,2.1h4.47v1.16h-2.94v1.34c0,.44,.04,.59,.36,.59h1.39c.27,0,.78,0,1.03-.08,.02,.36,.02,.69,.08,1.01-.21,.1-.67,.1-1.07,.1h-1.74c-1.13,0-1.34-.52-1.34-1.64v-1.32h-1.89Zm-4.09,2.44c1.87-.42,2.54-1.11,2.75-2.44h-2.75v2.44Zm10.41,1.78v1.03h-10.29v-1.03h4.45c-.21-.5-.46-1.03-.69-1.47l1.2-.38c.34,.57,.67,1.3,.92,1.85h4.41Zm-9.11-6.91c-.31,.5-.67,1.03-1.05,1.53h4.01c.27-.44,.52-1.01,.76-1.53h-3.72Zm-.44,12.62h8.69v3.99h-1.43v-.78h-5.86v.82h-1.41v-4.03Zm8.53-2.81h-8.36v-.95h8.36v.95Zm-8.36,.9h8.36v.95h-8.36v-.95Zm1.24,2.83v1.34h5.86v-1.34h-5.86Z"/>
    <path class="cls-4" d="M1138.4,44.87c-.95,1.26-2.31,2.23-3.91,2.96,2.29,.53,4.83,.84,7.45,.99-.27,.32-.59,.88-.74,1.26-3.13-.21-6.13-.67-8.73-1.47-2.73,.88-5.9,1.3-9.01,1.51-.1-.38-.36-.92-.55-1.28,2.54-.1,5.19-.4,7.5-.94-1.01-.42-1.93-.88-2.75-1.43-.84,.5-1.76,.97-2.79,1.39-.21-.36-.63-.8-.95-1.01,.97-.36,1.85-.78,2.63-1.2-.32-.27-.61-.57-.9-.84l1.2-.59c.25,.27,.53,.53,.84,.76,.8-.52,1.47-1.07,1.97-1.64-.53-.19-.71-.57-.71-1.34v-1.51h1.28v1.51c0,.44,.17,.52,1.09,.52h3.34c.65,0,.78-.17,.84-1.26,.29,.19,.74,.34,1.09,.4-.13,1.47-.52,1.85-1.76,1.85h-3.51c-.25,.29-.55,.57-.82,.84h6.66l.29-.08,.95,.61Zm-13.56-2.9h-1.36v-2.96h2.98v-5.19h4.87c.08-.31,.19-.65,.27-.97h-7.89v-1.2h17.78v1.2h-8.25c-.13,.36-.27,.67-.38,.97h6v5.19h2.71v2.96h-1.41v-1.95h-7.94c.76,.36,1.6,.92,2.04,1.34l-.88,.69c-.48-.48-1.41-1.15-2.18-1.49l.74-.55h-7.1v1.95Zm.17,1.05c.8-.55,1.53-1.55,2.02-2.37l1.09,.57c-.52,.86-1.24,1.93-2.08,2.63l-1.03-.82Zm2.94-8.31v.88h9.39v-.88h-9.39Zm9.39,1.7h-9.39v.88h9.39v-.88Zm-9.39,2.6h9.39v-.9h-9.39v.9Zm1.37,6.34c-.17,.13-.36,.27-.53,.4,1.03,.61,2.27,1.13,3.65,1.53,1.47-.48,2.69-1.13,3.61-1.93h-6.74Zm8.36-4.89c.86,.67,1.89,1.68,2.35,2.39l-1.11,.61c-.44-.69-1.43-1.74-2.33-2.48l1.09-.53Z"/>
  </g>
  <polyline class="cls-3" points="45.35 304.58 45.35 308.75 48.76 308.75 50.94 310.65 55.2 304.58 57.85 299.66 61.27 295.87 65.06 295.87 67.33 295.87 67.33 300.41 68.29 299.26 69.22 298.14 72.26 298.9 72.26 295.87 74.15 298.9 76.05 299.28 76.05 297.38 78.32 298.9 78.32 295.87 80.61 295.87 82.87 295.87 82.87 298.14 84.76 295.87 84.76 300.41 87.03 301.17 88.33 297.55 88.93 295.87 91.96 298.52 93.86 295.87 96.13 292.46 98.02 290.18 101.06 290.18 104.85 288.29 108.26 291.32 108.26 293.97 111.29 295.49 111.29 297.38 113.94 297.76 116.59 299.47 118.87 299.47 120.82 299.47 123.41 299.47 126.45 297.76 126.45 302.31 126.45 305.34 128.72 305.34 128.72 307.99 130.61 310.65 130.61 314.06 130.61 316.71 130.61 319.74 130.61 322.01 132.89 323.53 132.89 326.18 132.89 330.35 132.89 334.52 132.89 338.31 136.68 343.23 138.19 336.41 140.85 337.17 140.85 343.23 140.85 355.36 143.12 346.65 143.99 345.25 145.01 343.61 145.01 338.69 147.29 340.58 147.29 336.03 147.29 334.14 148.04 332.48 149.18 323.15 151.83 321.82 151.83 323.53 151.83 328.46 153.73 328.08 154.37 327.18 155.62 325.42 158.66 325.8 158.66 328.08 158.66 330.35 160.93 334.9 162.45 333 162.45 339.82 163.86 333.93 164.72 330.35 164.72 326.18 166.61 327.7 166.61 321.82 168.51 324.67 168.51 320.12 168.51 318.22 168.51 315.19 171.16 317.09 171.16 311.78 173.06 313.68 173.06 309.13 173.06 304.58 175.33 301.93 175.33 304.2 177.6 300.41 177.6 304.58 180.26 299.28 183.67 297 185.94 293.97 187.7 292.46 189.35 288.29 189.35 282.22 191.25 282.22 194.28 282.22 196.93 280.33 198.82 276.54 198.82 271.99 203.75 269.34 207.54 269.34 210.19 267.45 210.19 264.79 213.22 264.79 215.88 264.79 217.39 260.25 219.29 260.25 221.56 256.46 221.56 253.11 226.49 255.32 226.49 257.59 230.28 257.59 230.28 254.56 232.93 251.53 235.2 247.36 237.1 247.36 239.37 243.57 242.02 243.57 242.02 240.92 243.92 240.92 243.92 243.57 243.92 245.47 246.19 248.12 249.22 251.15 249.22 253.11 251.88 251.53 254.15 246.98 257.59 246.6 257.59 242.43 259.83 239.02 263.25 235.23 268.17 235.23 271.96 229.93 274.23 224.62 276.51 221.97 279.92 221.97 281.43 218.56 283.33 222.73 285.6 225.38 289.39 224.62 289.39 221.21 292.05 218.56 295.46 218.56 298.87 216.29 301.52 213.63 305.69 213.63 305.69 217.8 309.1 213.63 312.51 208.33 314.78 205.3 320.47 203.02 323.5 203.02 325.47 207.95 327.67 209.85 329.18 205.3 330.7 203.02 332.97 200.75 334.87 200.75 334.87 206.43 334.87 217.42 337.52 210.98 337.52 215.91 339.41 212.12 339.41 216.67 342.07 213.63 342.07 219.32 344.34 216.29 344.34 223.11 344.34 225.76 346.61 231.07 348.51 218.94 348.51 213.26 351.54 207.95 354.19 214.77 356.85 213.26 356.85 225.76 359.5 214.01 361.39 217.05 364.05 213.26 366.32 209.85 368.21 204.92 368.21 199.23 372 195.07 375.03 191.28 379.2 191.28 382.23 191.28 384.51 195.82 386.4 191.28 389.81 191.28 389.81 195.07 389.81 198.86 389.81 201.89 393.35 204.92 395.12 202.27 397.77 196.2 397.77 192.79 400.8 191.28 403.83 188.25 403.83 184.83 407.62 182.94 410.28 182.94 413.31 180.67 413.31 178.39 413.31 174.22 417.86 174.22 420.13 169.68 423.16 172.33 425.81 171.95 425.81 174.98 428.09 169.68 432.26 166.65 434.15 163.23 437.18 159.45 439.46 159.45 439.46 161.72 443.25 162.48 447.03 159.45 450.45 159.45 450.45 157.17 453.86 157.17 455.37 153 457.65 153 457.65 149.21 460.68 146.94 463.24 149.21 463.24 151.49 464.85 154.52 464.85 157.93 466.36 160.2 466.36 163.23 468.63 166.27 468.63 170.43 468.63 172.33 472.05 166.65 472.05 163.23 473.56 159.45 473.56 157.55 475.46 158.31 475.46 162.48 478.87 163.99 478.87 165.89 481.14 168.54 484.17 168.54 485.69 163.99 485.69 160.2 489.86 159.07 491.75 154.9 493.65 151.49 495.92 153.76 500.85 152.25 503.88 152.25 506.91 151.49 509.18 149.21 511.83 150.35 511.83 152.62 518.28 146.94 522.07 146.94 526.23 141.63 528.89 141.63 536.09 135.57 545.18 135.57 547.08 137.47 549.4 137.85 552 133.68 555.41 135.57 559.96 138.22 559.96 140.88 562.23 143.91 564.51 138.6 569.06 138.98 572.09 141.63 573.98 147.7 573.98 154.14 575.88 146.94 579.29 146.94 583.08 145.42 588 140.88 591.03 144.67 595.58 144.67 595.58 141.26 599 138.98 601.27 140.88 606.55 140.88 609.22 144.29 613.39 145.8 613.39 148.46 616.42 148.46 616.42 151.49 620.21 153.76 620.21 156.79 622.49 157.93 622.49 163.99 625.9 160.2 628.17 160.96 631.2 164.37 631.2 169.3 633.48 159.45 636.51 158.69 639.92 159.07 639.92 163.99 642.95 164.37 645.6 174.22 649.77 173.47 649.77 176.12 651.67 184.08 654.32 176.88 656.21 178.77 656.21 189.38 661.52 180.29 661.52 173.47 661.52 168.54 663.79 165.51 669.89 164.75 672.13 159.45 677.04 158.63 679.75 156.05 679.75 153.38 685.03 156.47 688.13 153.52 688.13 147.7 688.13 143.53 690.24 146.09 694.71 141.85 697.05 139.63 701 141.31 706.61 139.36 706.61 135.57 710.02 139.74 710.02 144.29 710.02 148.08 714.57 147.7 714.57 144.29 718.74 142.77 718.74 140.5 722.15 138.6 724.8 138.6 728.97 137.09 731.62 133.68 734.52 136.9 738.77 133.68 741.47 130.3 745.27 130.3 750.57 127.61 753.22 127.61 757.77 127.61 759.67 127.61 761.94 125.34 766.49 125.34 768.76 122.69 772.55 122.69 778.61 122.69 784.3 122.69 784.3 125.34 788.85 124.96 794.91 122.69 797.94 124.58 799.83 126.48 799.83 131.4 806.65 131.4 809.69 132.16 813.1 129.51 816.89 134.06 822.54 133.24 826.74 132.54 828.84 132.69 831.54 130.12 837.35 127.99 841.9 127.99 845.31 126.86 850.23 127.99 850.23 130.65 855.16 131.02 855.16 134.06 860.85 134.43 863.88 140.5 863.88 134.06 866.15 130.27 869.56 125.72 872.54 120.41 877.14 117.38 880.93 113.97 883.96 109.42 891.54 109.42 895.71 105.63 895.71 99.95 902.91 99.95 908.13 96.99 912 96.99 914.28 100.33 915.79 96.99 919.2 96.99 919.2 99.19 925.65 99.57 930.57 96.99 933.98 91.61 940.8 88.2 946.49 84.79 948 87.82 948 90.48 951.41 185.21 953.78 145.05 955.58 135.57 955.58 129.51 959.37 137.47 961.27 127.99 964.3 115.49 964.3 104.12 969.98 104.5 972.48 101.97 976.8 93.89 981.35 93.13 984.38 89.34 987.79 90.86 987.79 94.65 989.69 94.27 989.69 90.48 994.23 91.23 995.75 95.4 995.75 84.79 1003.91 72.51 1013.6 67.36 1017.73 70.01 1017.73 75.32 1020.76 78.35 1024.17 76.46 1024.17 72.67 1029.48 70.39 1032.51 70.01 1035.92 67.36 1038.19 67.36 1040.09 62.06 1043.5 62.06 1047.67 65.47 1050.7 64.71 1053.73 62.06 1056.76 58.27 1060.17 62.81 1068.13 62.06 1068.13 65.85 1070.41 71.53 1073.16 67.74 1076.47 66.6 1079.5 65.09 1085.56 77.59 1091.19 90.48 1092.95 101.98 1093.83 107.66 1096.93 100.33 1096.93 110.56 1100.92 110.18 1102.28 116.56 1104.51 121.55 1107.16 127.99 1109.81 117.38 1109.81 135.57 1117.77 137.85 1117.77 128.37 1121.18 121.55 1124.21 118.14 1127.25 132.16 1129.52 132.92 1132.57 148.46"/>
  <g>
    <line class="cls-2" x1="44.24" y1="100.28" x2="31.45" y2="100.28"/>
    <line class="cls-2" x1="44.24" y1="67.03" x2="31.45" y2="67.03"/>
    <line class="cls-2" x1="44.24" y1="168.57" x2="31.45" y2="168.57"/>
    <line class="cls-2" x1="44.24" y1="134.42" x2="31.45" y2="134.42"/>
    <line class="cls-2" x1="44.24" y1="33.77" x2="31.45" y2="33.77"/>
    <g>
      <line class="cls-2" x1="44.24" y1="53.83" x2="40.45" y2="53.83"/>
      <line class="cls-2" x1="44.24" y1="37.79" x2="40.45" y2="37.79"/>
      <line class="cls-2" x1="44.24" y1="61.85" x2="40.45" y2="61.85"/>
      <line class="cls-2" x1="44.24" y1="45.81" x2="40.45" y2="45.81"/>
    </g>
    <g>
      <line class="cls-2" x1="44.24" y1="87.67" x2="40.45" y2="87.67"/>
      <line class="cls-2" x1="44.24" y1="71.62" x2="40.45" y2="71.62"/>
      <line class="cls-2" x1="44.24" y1="95.69" x2="40.45" y2="95.69"/>
      <line class="cls-2" x1="44.24" y1="79.64" x2="40.45" y2="79.64"/>
    </g>
    <g>
      <line class="cls-2" x1="44.24" y1="120.49" x2="40.45" y2="120.49"/>
      <line class="cls-2" x1="44.24" y1="104.44" x2="40.45" y2="104.44"/>
      <line class="cls-2" x1="44.24" y1="128.51" x2="40.45" y2="128.51"/>
      <line class="cls-2" x1="44.24" y1="112.47" x2="40.45" y2="112.47"/>
    </g>
    <g>
      <line class="cls-2" x1="44.24" y1="155.32" x2="40.45" y2="155.32"/>
      <line class="cls-2" x1="44.24" y1="139.27" x2="40.45" y2="139.27"/>
      <line class="cls-2" x1="44.24" y1="163.34" x2="40.45" y2="163.34"/>
      <line class="cls-2" x1="44.24" y1="147.29" x2="40.45" y2="147.29"/>
    </g>
    <line class="cls-2" x1="44.24" y1="201.96" x2="31.45" y2="201.96"/>
    <g>
      <line class="cls-2" x1="44.24" y1="188.71" x2="40.45" y2="188.71"/>
      <line class="cls-2" x1="44.24" y1="172.67" x2="40.45" y2="172.67"/>
      <line class="cls-2" x1="44.24" y1="196.74" x2="40.45" y2="196.74"/>
      <line class="cls-2" x1="44.24" y1="180.69" x2="40.45" y2="180.69"/>
    </g>
    <line class="cls-2" x1="44.24" y1="235.73" x2="31.45" y2="235.73"/>
    <g>
      <line class="cls-2" x1="44.24" y1="222.48" x2="40.45" y2="222.48"/>
      <line class="cls-2" x1="44.24" y1="206.44" x2="40.45" y2="206.44"/>
      <line class="cls-2" x1="44.24" y1="230.51" x2="40.45" y2="230.51"/>
      <line class="cls-2" x1="44.24" y1="214.46" x2="40.45" y2="214.46"/>
    </g>
    <line class="cls-2" x1="44.24" y1="269.5" x2="31.45" y2="269.5"/>
    <g>
      <line class="cls-2" x1="44.24" y1="256.26" x2="40.45" y2="256.26"/>
      <line class="cls-2" x1="44.24" y1="240.21" x2="40.45" y2="240.21"/>
      <line class="cls-2" x1="44.24" y1="264.28" x2="40.45" y2="264.28"/>
      <line class="cls-2" x1="44.24" y1="248.23" x2="40.45" y2="248.23"/>
    </g>
    <line class="cls-2" x1="44.24" y1="303.28" x2="31.45" y2="303.28"/>
    <g>
      <line class="cls-2" x1="44.24" y1="290.03" x2="40.45" y2="290.03"/>
      <line class="cls-2" x1="44.24" y1="273.98" x2="40.45" y2="273.98"/>
      <line class="cls-2" x1="44.24" y1="298.05" x2="40.45" y2="298.05"/>
      <line class="cls-2" x1="44.24" y1="282" x2="40.45" y2="282"/>
    </g>
    <line class="cls-2" x1="44.24" y1="336.81" x2="31.45" y2="336.81"/>
    <g>
      <line class="cls-2" x1="44.24" y1="323.56" x2="40.45" y2="323.56"/>
      <line class="cls-2" x1="44.24" y1="307.52" x2="40.45" y2="307.52"/>
      <line class="cls-2" x1="44.24" y1="331.59" x2="40.45" y2="331.59"/>
      <line class="cls-2" x1="44.24" y1="315.54" x2="40.45" y2="315.54"/>
    </g>
    <line class="cls-2" x1="44.24" y1="370.58" x2="31.45" y2="370.58"/>
    <g>
      <line class="cls-2" x1="44.24" y1="357.33" x2="40.45" y2="357.33"/>
      <line class="cls-2" x1="44.24" y1="341.29" x2="40.45" y2="341.29"/>
      <line class="cls-2" x1="44.24" y1="365.36" x2="40.45" y2="365.36"/>
      <line class="cls-2" x1="44.24" y1="349.31" x2="40.45" y2="349.31"/>
    </g>
  </g>
  <path class="cls-1" d="M1017.92,246.75l-56.1-8.67s4.17,4.03,14,16.84c-1.29,.64-2.65,1.32-4.08,2.04-3.13,1.56-6.59,3.3-10.36,5.18-1.85,.93-3.77,1.89-5.76,2.89-2.04,1-4.16,2.03-6.35,3.1-2.19,1.07-4.45,2.17-6.77,3.3-2.29,1.06-4.64,2.16-7.05,3.28-1.21,.56-2.43,1.13-3.67,1.71-1.24,.57-2.49,1.17-3.79,1.73-2.58,1.14-5.22,2.3-7.92,3.49-1.35,.59-2.71,1.19-4.09,1.8-1.39,.58-2.79,1.16-4.21,1.76-2.83,1.18-5.72,2.39-8.66,3.61-2.96,1.17-5.97,2.36-9.02,3.57-1.53,.6-3.07,1.21-4.62,1.82-1.56,.58-3.14,1.17-4.72,1.76-3.17,1.17-6.38,2.39-9.65,3.57-3.28,1.15-6.6,2.31-9.96,3.48-3.35,1.21-6.78,2.27-10.23,3.42-1.73,.57-3.46,1.13-5.2,1.7l-1.31,.43-1.32,.4c-.88,.27-1.76,.54-2.65,.81-14.11,4.44-28.87,8.47-43.98,12.18-7.55,1.89-15.21,3.55-22.91,5.23-3.86,.78-7.73,1.56-11.6,2.34l-1.45,.29-1.46,.27-2.92,.53-5.84,1.06c-15.59,2.75-31.28,5.02-46.79,6.78-15.52,1.7-30.85,2.9-45.73,3.67-3.72,.16-7.41,.32-11.07,.47l-1.37,.06-1.37,.03c-.91,.02-1.82,.04-2.72,.06-1.81,.04-3.61,.08-5.41,.12-1.79,.04-3.58,.08-5.35,.12-1.77,0-3.54,.01-5.29,.02-1.75,0-3.5,.01-5.23,.02-1.73,0-3.45,.03-5.16-.01-6.83-.12-13.49-.17-19.92-.46-1.61-.06-3.2-.12-4.78-.17-1.58-.06-3.15-.1-4.7-.2-3.1-.17-6.15-.34-9.13-.51-1.49-.09-2.97-.15-4.43-.26-1.46-.11-2.9-.22-4.33-.33-2.85-.22-5.64-.43-8.36-.63-1.36-.09-2.7-.23-4.02-.36-1.32-.13-2.62-.25-3.91-.37-2.57-.25-5.07-.48-7.49-.71-4.83-.55-9.35-1.07-13.53-1.55-.52-.06-1.04-.12-1.55-.18-.51-.07-1.02-.14-1.52-.2-1-.14-1.98-.27-2.93-.4-1.91-.26-3.74-.51-5.47-.74-1.73-.24-3.37-.46-4.91-.67-1.54-.24-2.98-.46-4.32-.67-2.68-.42-4.96-.77-6.81-1.06-3.7-.57-5.67-.91-5.67-.91,0,0,1.95,.45,5.61,1.22,1.83,.39,4.09,.87,6.75,1.43,1.33,.28,2.76,.59,4.28,.91,1.53,.29,3.15,.61,4.87,.94,1.72,.33,3.53,.68,5.43,1.04,.95,.18,1.92,.37,2.91,.56,.5,.1,1,.19,1.51,.29,.51,.09,1.02,.18,1.54,.26,4.16,.71,8.66,1.48,13.47,2.3,2.41,.37,4.9,.74,7.46,1.13,1.28,.19,2.58,.39,3.9,.59,1.32,.2,2.65,.41,4.01,.58,2.71,.36,5.5,.72,8.35,1.1,1.43,.19,2.87,.38,4.33,.57,1.46,.19,2.94,.33,4.43,.51,2.99,.33,6.04,.67,9.15,1.02,1.55,.19,3.13,.32,4.71,.46,1.59,.15,3.19,.29,4.8,.44,6.46,.65,13.15,1.07,20.03,1.57,1.72,.14,3.45,.2,5.2,.3,1.75,.09,3.5,.18,5.27,.27,1.77,.09,3.55,.18,5.34,.28,1.79,.06,3.59,.12,5.4,.18,1.81,.06,3.63,.12,5.46,.18,.92,.03,1.83,.06,2.75,.09l1.38,.04,1.39,.02c3.7,.05,7.44,.09,11.2,.14,15.07,.06,30.66-.3,46.49-1.16,15.83-.92,31.89-2.34,47.91-4.26l6-.75,3-.38,1.5-.19,1.5-.22c3.99-.58,7.98-1.16,11.96-1.73,7.94-1.28,15.86-2.54,23.67-4.04,15.64-2.93,30.97-6.22,45.67-9.97,.92-.23,1.84-.45,2.76-.68l1.37-.34,1.36-.36c1.82-.49,3.63-.97,5.43-1.45,3.6-.98,7.18-1.88,10.68-2.93,3.51-1.01,6.99-2.02,10.42-3.01,3.42-1.03,6.79-2.1,10.12-3.12,1.66-.52,3.32-1.03,4.96-1.54,1.63-.54,3.25-1.08,4.86-1.61,3.21-1.07,6.38-2.12,9.49-3.16,3.09-1.09,6.13-2.17,9.12-3.23,1.49-.53,2.97-1.05,4.44-1.57,1.45-.55,2.89-1.09,4.32-1.62,2.85-1.07,5.64-2.12,8.37-3.15,1.36-.5,2.71-1.05,4.05-1.58,1.33-.53,2.65-1.06,3.95-1.58,2.6-1.04,5.13-2.05,7.6-3.04,2.38-1,4.7-1.98,6.94-2.93,2.24-.95,4.42-1.86,6.51-2.74,2.13-.92,4.18-1.81,6.15-2.67,3.87-1.67,7.42-3.21,10.63-4.6,2.17-.94,4.18-1.81,6.03-2.61,3.21,8.73,5.14,13.62,4.64,24.54l24.4-56.05c.15-.25-.02-.57-.32-.57Z"/>
</svg>