<?xml version="1.0" encoding="UTF-8"?>
<svg id="_圖層_2" data-name="圖層 2" xmlns="http://www.w3.org/2000/svg" viewBox="0 0 1067.41 410.24">
  <defs>
    <style>
      .cls-1 {
        stroke: #000;
      }

      .cls-1, .cls-2, .cls-3, .cls-4, .cls-5, .cls-6, .cls-7, .cls-8 {
        fill: none;
      }

      .cls-1, .cls-2, .cls-3, .cls-8 {
        stroke-miterlimit: 10;
      }

      .cls-9 {
        fill: #6a518e;
      }

      .cls-10 {
        fill: #89a546;
      }

      .cls-2 {
        stroke: #7f7f7f;
      }

      .cls-3, .cls-8 {
        stroke: #707070;
      }

      .cls-4 {
        stroke: #9bbb59;
      }

      .cls-4, .cls-5, .cls-6, .cls-7 {
        stroke-linecap: round;
        stroke-linejoin: round;
        stroke-width: 6px;
      }

      .cls-5 {
        stroke: #4e81bd;
      }

      .cls-11 {
        fill: #306daa;
      }

      .cls-6 {
        stroke: #8064a2;
      }

      .cls-12 {
        fill: #aa2d2d;
      }

      .cls-13 {
        fill: #231815;
      }

      .cls-7 {
        stroke: #c0504d;
      }

      .cls-8 {
        stroke-dasharray: 0 0 3 3;
      }
    </style>
  </defs>
  <g>
    <path class="cls-11" d="M1014.76,111.66c-.69,1.68-1.54,3.36-2.52,4.92v16.39h-1.85v-13.68c-.85,1.1-1.75,2.11-2.65,2.98-.21-.38-.72-1.3-1.08-1.7,2.52-2.28,4.9-5.81,6.34-9.41l1.75,.5Zm6.39,18.24c-1.51,1.22-4.01,2.4-6.04,3.12-.31-.34-1.05-.96-1.49-1.25,2.08-.58,4.39-1.51,5.73-2.52l1.8,.65Zm9.53-12.53v1.3h-16.72v-1.3h7.45v-1.3h-5.65v-1.2h5.65v-1.2h-6.32v-1.22h6.32v-1.32h1.9v1.32h6.57v1.22h-6.57v1.2h5.91v1.2h-5.91v1.3h7.37Zm-1.67,11.47h-13.02v-9h13.02v9Zm-1.88-7.8h-9.32v1.46h9.32v-1.46Zm0,2.52h-9.32v1.49h9.32v-1.49Zm0,2.54h-9.32v1.51h9.32v-1.51Zm-1.46,3.05c1.8,.91,3.9,2.16,5.01,3.02l-1.69,.98c-1.08-.89-3.24-2.3-5.01-3.24l1.69-.77Z"/>
    <path class="cls-11" d="M1049.5,120.97c1.75,1.8,4.42,3.26,7.24,3.96-.44,.34-.95,1.01-1.23,1.49-1.41-.43-2.77-1.08-4.03-1.82v.02c-.33,4.85-.69,6.77-1.41,7.46-.46,.48-.95,.62-1.7,.7-.72,.05-2.05,.05-3.44-.05-.03-.5-.26-1.2-.57-1.68,1.36,.14,2.67,.14,3.16,.14,.46,0,.72-.05,.95-.24,.46-.43,.77-1.9,1.05-5.47h-6.21c-.69,3.58-2.44,6.14-7.86,7.54-.21-.46-.69-1.15-1.1-1.51,4.85-1.1,6.37-3.17,7.01-6.02h-3.98v-.89c-1.05,.67-2.16,1.25-3.39,1.8-.18-.46-.77-1.13-1.21-1.46,2.57-1.03,4.65-2.42,6.27-3.96h-5.52v-1.61h7.01c.67-.79,1.21-1.61,1.69-2.45h-7.14v-1.58h4.26c-.41-.82-1.28-2.06-2.08-2.95l1.52-.72c.85,.91,1.8,2.16,2.23,3l-1.39,.67h3.36c.62-1.42,1-2.88,1.21-4.27l2,.19c-.26,1.37-.64,2.74-1.16,4.08h3.06c.85-1.01,1.9-2.54,2.47-3.6l1.75,.55c-.69,1.06-1.51,2.16-2.31,3.05h4.13v1.58h-9.81c-.44,.84-.9,1.66-1.49,2.45h13.04v1.61h-6.39Zm.85,2.88c-1.18-.84-2.21-1.82-3-2.88h-5.75c-.9,1.03-1.93,1.99-3.13,2.88h11.89Z"/>
  </g>
  <g>
    <path class="cls-12" d="M1016.71,170.23c0,.91-.21,1.44-.82,1.75-.62,.29-1.57,.31-3.21,.31-.08-.43-.28-1.2-.51-1.66,1.1,.02,2.08,.02,2.39,.02,.31-.02,.44-.14,.44-.46v-6.53c-1.08,.62-2.13,1.2-3.08,1.75l-.72-1.44c-.18,2.95-.69,6.12-1.9,8.52-.33-.26-1.1-.67-1.54-.84,1.72-3.36,1.85-8.14,1.85-11.64v-8.57h7.11v18.77Zm-5.39-10.22c0,1.13-.03,2.4-.1,3.72,1.03-.38,2.36-.96,3.78-1.61v-2.74l-.98,.74c-.56-.77-1.69-1.94-2.7-2.86v2.74Zm0-6.91v3.72l.87-.62c1,.84,2.13,1.92,2.8,2.69v-5.78h-3.67Zm19.08,8.4c-.98,2.95-2.59,5.26-4.7,7.03,1.62,1.1,3.49,1.9,5.65,2.4-.46,.38-.98,1.08-1.26,1.56-2.23-.62-4.21-1.58-5.88-2.83-1.82,1.25-3.9,2.16-6.11,2.81-.21-.48-.67-1.15-1.03-1.54,2.03-.5,4.01-1.32,5.75-2.45-1.64-1.54-2.93-3.41-3.85-5.57l.36-.12h-1.31v-1.68h10.84l.31-.07,1.23,.46Zm-8.12-7.34c0,2.11-.69,4.66-3.8,6.36-.23-.36-.9-.98-1.23-1.25,2.8-1.49,3.26-3.43,3.26-5.14v-2.64h7.81v5.59c0,.65,.05,.86,.38,.86h1.41c.28,0,.8-.05,1.1-.12,.03,.46,.1,1.08,.15,1.49-.31,.1-.8,.12-1.21,.12h-1.59c-1.7,0-2.05-.67-2.05-2.4v-3.86h-4.24v.98Zm-1.51,8.64c.82,1.75,2,3.34,3.49,4.66,1.54-1.27,2.83-2.83,3.65-4.66h-7.14Z"/>
    <path class="cls-12" d="M1041.21,167.63c-1.51,1.73-3.95,3.34-6.09,4.37-.28-.29-1.03-.91-1.44-1.18,2.18-.89,4.44-2.28,5.78-3.77l1.75,.58Zm15.54-2.64v1.46h-10.53v6.1h-1.87v-6.1h-10.45v-1.46h22.86Zm-15.36-11.98h-7.22v-1.49h22.08v1.49h-7.24v1.85h5.98v5.47h-19.29v-5.47h5.68v-1.85Zm-4.37,10.32v-1.42h16.62v1.42h-16.62Zm.46-4.37h3.9v-2.76h-3.9v2.76Zm9.71-5.95h-4.03v1.85h4.03v-1.85Zm-4.03,5.95h4.03v-2.76h-4.03v2.76Zm5.86-2.76v2.76h4.11v-2.76h-4.11Zm1.36,10.92c2.08,1.06,4.8,2.64,6.21,3.74l-1.46,1.03c-1.31-1.08-4.01-2.71-6.11-3.84l1.36-.94Z"/>
  </g>
  <g>
    <path class="cls-10" d="M953.36,230.35h-3.16v15.89c0,1.27-.33,1.92-1.31,2.18-1.03,.34-2.8,.34-5.32,.34-.13-.5-.51-1.39-.82-1.9,2.05,.1,4.16,.07,4.75,.05,.57-.02,.75-.19,.75-.7v-15.87h-17.62v-1.78h22.73v1.78Zm-18.26,12.41v1.92h-1.85v-10.82h10.43v8.9h-8.58Zm0-7.18v5.47h6.7v-5.47h-6.7Z"/>
    <path class="cls-10" d="M976.26,241.97h3.11v1.42h-3.11v3.67c0,.86-.21,1.3-.9,1.51-.75,.26-1.85,.26-3.54,.26-.08-.46-.33-1.06-.56-1.49,1.28,.05,2.44,.05,2.8,.02s.44-.07,.44-.34v-3.65h-8.04v1.25h-4.34v4.18h-1.7v-4.18h-4.54v-1.58h4.54v-1.94h-3.62v-8.28h3.62v-1.78h-4.21v-1.56h4.21v-2.59h1.7v2.59h3.98v1.56h-3.98v1.78h3.7v8.28h-3.7v1.94h4.24v-1.08h8.14v-1.27h1.77v1.27Zm-18.05-5.66h2.39v-2.14h-2.39v2.14Zm0,3.46h2.39v-2.18h-2.39v2.18Zm6.14-5.59h-2.39v2.14h2.39v-2.14Zm0,3.41h-2.39v2.18h2.39v-2.18Zm2.03,1.63c1.49-.02,3.42-.02,5.52-.07v-1.56h-4.67v-6.24h4.67v-1.3h-5.26v-1.42h5.26v-1.73h1.67v1.73h5.5v1.42h-5.5v1.3h4.88v6.24h-1.8c1.16,.91,2.29,2.14,2.88,2.98l-1.33,.77c-.18-.29-.44-.65-.75-1.01-4.03,.12-8.12,.22-10.94,.26l-.13-1.37Zm2.77,4.39c1.03,.79,2.05,1.94,2.54,2.76l-1.41,.86c-.46-.86-1.46-2.09-2.41-2.9l1.28-.72Zm-.36-9.7h3.11v-1.46h-3.11v1.46Zm3.11,2.57v-1.49h-3.11v1.49h3.11Zm1.67-4.03v1.46h3.29v-1.46h-3.29Zm3.29,2.54h-3.29v1.49h3.29v-1.49Zm-3.29,4.13l2.75-.05c-.36-.36-.75-.74-1.13-1.06l.9-.43h-2.52v1.54Z"/>
    <path class="cls-10" d="M986.51,239.71v6.84c0,1.01-.23,1.49-.85,1.8-.59,.31-1.57,.38-3.08,.38-.08-.5-.33-1.25-.57-1.78,1.03,.02,1.95,.02,2.23,.02,.33,0,.44-.1,.44-.41v-6.24c-1,.34-1.93,.65-2.8,.91l-.49-1.7c.92-.26,2.05-.62,3.29-1.01v-5.18h-3.03v-1.66h3.03v-4.8h1.82v4.8h2.57v1.66h-2.57v4.61l2.41-.79,.31,1.61-2.72,.94Zm10.84,3.36c-1,2.86-3.18,4.73-8.17,5.76-.15-.41-.62-1.03-.95-1.39,4.31-.82,6.27-2.21,7.22-4.37h-6.47v-1.46h2.16v-7.44c-.23,.22-.49,.43-.72,.62-.23-.34-.8-.91-1.16-1.15,2.49-1.97,4.11-4.63,4.96-6.74l1.77,.24c-.21,.53-.46,1.03-.75,1.58h3.93l.28-.07,1.13,.7c-.51,1.06-1.26,2.23-1.98,3.22h4.75v9.05h1.64v1.46h-7.65Zm-2.95-12.89c-.49,.82-1.08,1.61-1.72,2.38h4.08c.51-.65,1.08-1.56,1.52-2.38h-3.88Zm1.52,11.42c.18-.72,.31-1.51,.38-2.38h1.85c-.08,.84-.21,1.66-.36,2.38h3.93v-7.56h-4.47l1.21,.29c-.18,.41-.41,.84-.67,1.25,1.41,.79,3,1.85,3.83,2.62l-.92,.98c-.77-.74-2.23-1.78-3.6-2.57-.82,1.06-1.8,1.97-2.77,2.66-.26-.24-.9-.67-1.23-.84,1.64-1.06,3.06-2.62,3.85-4.39h-4.21v7.56h3.18Zm3.18,1.78c2,1.3,4.7,3.19,6.06,4.34l-1.23,1.13c-1.33-1.18-3.98-3.17-5.98-4.54l1.16-.94Z"/>
    <path class="cls-10" d="M1015.86,232.42h-8.58v-1.46h8.58v1.46Zm-.64,14.93h-5.47v1.13h-1.51v-8.06h6.99v6.94Zm-.13-11.83h-6.83v-1.42h6.83v1.42Zm-6.83,1.7h6.83v1.42h-6.83v-1.42Zm1.49,4.68v3.96h3.93v-3.96h-3.93Zm2.03-11.21c-.36-.86-1.21-2.21-1.93-3.22l1.28-.77c.77,.96,1.62,2.23,2.03,3.1l-1.39,.89Zm8.19,3.5c-.92,1.18-1.98,2.11-3.13,2.81-.26-.34-.8-.91-1.18-1.2,1.1-.6,2.16-1.54,3.03-2.71-.62-.55-1.54-1.22-2.36-1.68l1.05-1.15c.72,.41,1.59,.98,2.23,1.51,.46-.82,.87-1.68,1.16-2.54h-3.75v-1.46h4.39l.31-.05,1.16,.36c-.54,2.16-1.41,4.08-2.52,5.62h6.09c-1.28-1.78-2.26-3.94-2.9-6.26l1.59-.29c.21,.7,.44,1.37,.72,2.04,.69-.55,1.46-1.2,1.95-1.68l1.16,.96c-.77,.72-1.72,1.42-2.54,1.97,.23,.46,.51,.94,.82,1.39,.77-.5,1.67-1.15,2.21-1.61l1.13,.96c-.8,.65-1.75,1.22-2.59,1.7,.9,1.1,1.93,2.02,3.08,2.66-.46,.26-1,.86-1.31,1.27-1.18-.72-2.26-1.7-3.16-2.93v1.27h-6.63v-.96Zm7.73,8.95c-.62,1.18-1.36,2.54-2,3.58h4.85v1.46h-14.46v-1.46h7.83c.69-1.13,1.52-2.83,1.93-4.03l1.85,.46Zm.62-.67h-10.09v-5.69h10.09v5.69Zm-7.78,4.2c-.18-.91-.77-2.38-1.49-3.48l1.67-.41c.75,1.08,1.36,2.5,1.54,3.41l-1.72,.48Zm6.06-8.47h-6.7v2.86h6.7v-2.86Z"/>
    <path class="cls-10" d="M1049.5,236.74c1.75,1.8,4.42,3.26,7.24,3.96-.44,.34-.95,1.01-1.23,1.49-1.41-.43-2.77-1.08-4.03-1.82v.02c-.33,4.85-.69,6.77-1.41,7.46-.46,.48-.95,.62-1.7,.7-.72,.05-2.05,.05-3.44-.05-.03-.5-.26-1.2-.57-1.68,1.36,.14,2.67,.14,3.16,.14,.46,0,.72-.05,.95-.24,.46-.43,.77-1.9,1.05-5.47h-6.21c-.69,3.58-2.44,6.14-7.86,7.54-.21-.46-.69-1.15-1.1-1.51,4.85-1.1,6.37-3.17,7.01-6.02h-3.98v-.89c-1.05,.67-2.16,1.25-3.39,1.8-.18-.46-.77-1.13-1.21-1.46,2.57-1.03,4.65-2.42,6.27-3.96h-5.52v-1.61h7.01c.67-.79,1.21-1.61,1.69-2.45h-7.14v-1.58h4.26c-.41-.82-1.28-2.06-2.08-2.95l1.52-.72c.85,.91,1.8,2.16,2.23,3l-1.39,.67h3.36c.62-1.42,1-2.88,1.21-4.27l2,.19c-.26,1.37-.64,2.74-1.16,4.08h3.06c.85-1.01,1.9-2.54,2.47-3.6l1.75,.55c-.69,1.06-1.51,2.16-2.31,3.05h4.13v1.58h-9.81c-.44,.84-.9,1.66-1.49,2.45h13.04v1.61h-6.39Zm.85,2.88c-1.18-.84-2.21-1.82-3-2.88h-5.75c-.9,1.03-1.93,1.99-3.13,2.88h11.89Z"/>
  </g>
  <g>
    <path class="cls-9" d="M1016.68,281.5c-3.21,.89-6.63,1.82-9.12,2.52l-.51-1.7c1.13-.26,2.52-.6,4.03-1.01v-5.81h-3.24v-1.66h3.24v-5.11h-3.54v-1.63h8.76v1.63h-3.39v5.11h3.16v1.66h-3.16v5.35l3.54-.94,.23,1.58Zm12.04,4.56c.59,0,.69-.36,.77-2.83,.36,.31,1.13,.58,1.59,.7-.13,2.93-.62,3.67-2.16,3.67h-2.49c-1.82,0-2.29-.5-2.29-2.23v-5.33h-2.52c-.51,3.82-1.9,6.43-6.88,7.87-.18-.41-.69-1.13-1.08-1.46,4.52-1.15,5.68-3.31,6.09-6.41h-2.29v-13.13h11.99v13.13h-3.49v5.33c0,.6,.1,.7,.74,.7h2Zm-9.45-15.24h8.32v-2.4h-8.32v2.4Zm0,3.82h8.32v-2.4h-8.32v2.4Zm0,3.89h8.32v-2.45h-8.32v2.45Z"/>
    <path class="cls-9" d="M1045.62,274.66v3.26h8.96v1.63h-8.96v5.86h10.12v1.66h-22.06v-1.66h9.96v-5.86h-8.81v-1.63h8.81v-3.26h-5.55v-1.32c-1.31,.67-2.7,1.27-4.08,1.73-.28-.48-.8-1.18-1.28-1.61,4.78-1.46,9.5-4.27,11.94-7.82l1.75,.77c-.18,.26-.41,.58-.64,.86,2.54,2.54,7.06,5.04,10.97,6.19-.46,.36-1.05,1.08-1.34,1.54-1.33-.46-2.75-1.08-4.13-1.82v1.49h-5.65Zm-7.04,5.42c.98,1.34,2.03,3.14,2.44,4.3l-1.67,.65c-.36-1.1-1.39-3-2.36-4.34l1.59-.6Zm12.38-7.08c-2.31-1.27-4.57-2.88-6.24-4.51-1.7,1.73-3.75,3.26-6.01,4.51h12.25Zm-3,11.5c.9-1.18,2.05-3.07,2.67-4.42l1.82,.65c-.95,1.51-2.13,3.22-3.06,4.34l-1.44-.58Z"/>
  </g>
  <g>
    <rect class="cls-2" x=".47" y=".47" width="1066.36" height="409.26"/>
    <g>
      <g>
        <line class="cls-3" x1="69.25" y1="51.55" x2="70.75" y2="51.55"/>
        <line class="cls-8" x1="73.75" y1="51.55" x2="1051.52" y2="51.55"/>
        <line class="cls-3" x1="1053.02" y1="51.55" x2="1054.52" y2="51.55"/>
      </g>
      <g>
        <line class="cls-3" x1="69.25" y1="94" x2="70.75" y2="94"/>
        <line class="cls-8" x1="73.75" y1="94" x2="1051.52" y2="94"/>
        <line class="cls-3" x1="1053.02" y1="94" x2="1054.52" y2="94"/>
      </g>
      <g>
        <line class="cls-3" x1="69.25" y1="136.44" x2="70.75" y2="136.44"/>
        <line class="cls-8" x1="73.75" y1="136.44" x2="1051.52" y2="136.44"/>
        <line class="cls-3" x1="1053.02" y1="136.44" x2="1054.52" y2="136.44"/>
      </g>
      <g>
        <line class="cls-3" x1="69.25" y1="177.33" x2="70.75" y2="177.33"/>
        <line class="cls-8" x1="73.75" y1="177.33" x2="1051.52" y2="177.33"/>
        <line class="cls-3" x1="1053.02" y1="177.33" x2="1054.52" y2="177.33"/>
      </g>
      <g>
        <line class="cls-3" x1="69.25" y1="220.69" x2="70.75" y2="220.69"/>
        <line class="cls-8" x1="73.75" y1="220.69" x2="1051.52" y2="220.69"/>
        <line class="cls-3" x1="1053.02" y1="220.69" x2="1054.52" y2="220.69"/>
      </g>
      <g>
        <line class="cls-3" x1="69.25" y1="262.63" x2="70.75" y2="262.63"/>
        <line class="cls-8" x1="73.75" y1="262.63" x2="1051.52" y2="262.63"/>
        <line class="cls-3" x1="1053.02" y1="262.63" x2="1054.52" y2="262.63"/>
      </g>
      <g>
        <line class="cls-1" x1="69.02" y1="306.3" x2="1054.52" y2="306.3"/>
        <line class="cls-1" x1="69.25" y1="307.3" x2="69.25" y2="320.1"/>
        <line class="cls-1" x1="128.91" y1="307.3" x2="128.91" y2="320.1"/>
        <line class="cls-1" x1="188.57" y1="307.3" x2="188.57" y2="320.1"/>
        <line class="cls-1" x1="248.23" y1="307.3" x2="248.23" y2="320.1"/>
        <line class="cls-1" x1="307.89" y1="307.3" x2="307.89" y2="320.1"/>
        <line class="cls-1" x1="367.55" y1="307.3" x2="367.55" y2="320.1"/>
        <line class="cls-1" x1="427.21" y1="307.3" x2="427.21" y2="320.1"/>
        <line class="cls-1" x1="486.88" y1="307.3" x2="486.88" y2="320.1"/>
        <line class="cls-1" x1="546.54" y1="307.3" x2="546.54" y2="320.1"/>
        <line class="cls-1" x1="606.2" y1="307.3" x2="606.2" y2="320.1"/>
        <line class="cls-1" x1="665.86" y1="307.3" x2="665.86" y2="320.1"/>
        <line class="cls-1" x1="725.52" y1="307.3" x2="725.52" y2="320.1"/>
        <line class="cls-1" x1="785.18" y1="307.3" x2="785.18" y2="320.1"/>
        <line class="cls-1" x1="844.84" y1="307.3" x2="844.84" y2="320.1"/>
        <line class="cls-1" x1="904.5" y1="307.3" x2="904.5" y2="320.1"/>
        <line class="cls-1" x1="964.17" y1="307.3" x2="964.17" y2="320.1"/>
        <line class="cls-1" x1="1023.83" y1="307.3" x2="1023.83" y2="320.1"/>
      </g>
      <g>
        <path class="cls-13" d="M15.77,47.62c0-6.89,3.26-9.53,6.87-9.53,1.92,0,3.31,.77,4.32,1.8l-1.29,1.37c-.73-.84-1.84-1.34-2.96-1.34-2.55,0-4.67,1.85-4.77,7.3,1.16-1.32,2.75-2.14,4.22-2.14,3.11,0,5.13,1.78,5.13,5.26,0,3.29-2.42,5.5-5.3,5.5-3.56,0-6.21-2.74-6.21-8.21Zm2.22,1.37c.3,3.34,1.69,5.14,3.96,5.14,1.79,0,3.16-1.51,3.16-3.79s-1.11-3.62-3.33-3.62c-1.16,0-2.58,.6-3.79,2.28Z"/>
        <path class="cls-13" d="M29.66,46.9c0-5.74,2.2-8.81,5.78-8.81s5.76,3.1,5.76,8.81-2.17,8.93-5.76,8.93-5.78-3.19-5.78-8.93Zm9.29,0c0-5.02-1.41-7.06-3.51-7.06s-3.54,2.04-3.54,7.06,1.41,7.18,3.54,7.18,3.51-2.16,3.51-7.18Z"/>
        <path class="cls-13" d="M15.12,96.5l1.14-1.44c1.06,1.01,2.4,1.94,4.55,1.94s3.94-1.51,3.94-3.89-1.52-3.79-3.84-3.79c-1.24,0-2.02,.38-3.08,1.06l-1.24-.74,.58-8.23h9.02v1.87h-7l-.45,5.11c.83-.43,1.64-.72,2.75-.72,3.08,0,5.58,1.68,5.58,5.38s-2.93,5.78-6.06,5.78c-2.88,0-4.65-1.15-5.88-2.33Z"/>
        <path class="cls-13" d="M29.66,89.9c0-5.74,2.2-8.81,5.78-8.81s5.76,3.1,5.76,8.81-2.17,8.93-5.76,8.93-5.78-3.19-5.78-8.93Zm9.29,0c0-5.02-1.41-7.06-3.51-7.06s-3.54,2.04-3.54,7.06,1.41,7.18,3.54,7.18,3.51-2.16,3.51-7.18Z"/>
        <path class="cls-13" d="M23,136.79H14.91v-1.44l7.7-10.94h2.55v10.63h2.45v1.75h-2.45v4.73h-2.17v-4.73Zm0-1.75v-5.02c0-.89,.08-2.35,.13-3.26h-.1c-.45,.82-.96,1.56-1.49,2.4l-4.22,5.88h5.68Z"/>
        <path class="cls-13" d="M29.66,132.9c0-5.74,2.2-8.81,5.78-8.81s5.76,3.1,5.76,8.81-2.17,8.93-5.76,8.93-5.78-3.19-5.78-8.93Zm9.29,0c0-5.02-1.41-7.06-3.51-7.06s-3.54,2.04-3.54,7.06,1.41,7.18,3.54,7.18,3.51-2.16,3.51-7.18Z"/>
        <path class="cls-13" d="M15.14,182.43l1.16-1.44c1.09,1.08,2.5,2.02,4.6,2.02s3.76-1.22,3.76-3.14c0-2.04-1.49-3.38-5.76-3.38v-1.68c3.81,0,5.13-1.42,5.13-3.22,0-1.66-1.21-2.71-3.13-2.71-1.49,0-2.8,.72-3.84,1.73l-1.24-1.37c1.39-1.25,3.03-2.14,5.18-2.14,3.11,0,5.38,1.56,5.38,4.34,0,2.06-1.34,3.38-3.28,4.06v.1c2.17,.5,3.91,2.02,3.91,4.37,0,3.05-2.65,4.87-5.93,4.87-2.9,0-4.72-1.15-5.93-2.4Z"/>
        <path class="cls-13" d="M29.66,175.9c0-5.74,2.2-8.81,5.78-8.81s5.76,3.1,5.76,8.81-2.17,8.93-5.76,8.93-5.78-3.19-5.78-8.93Zm9.29,0c0-5.02-1.41-7.06-3.51-7.06s-3.54,2.04-3.54,7.06,1.41,7.18,3.54,7.18,3.51-2.16,3.51-7.18Z"/>
        <path class="cls-13" d="M15.52,226.22c5.43-5.14,8.48-8.21,8.48-11.02,0-1.94-1.11-3.34-3.41-3.34-1.52,0-2.83,.91-3.84,2.04l-1.34-1.22c1.52-1.56,3.11-2.59,5.45-2.59,3.31,0,5.38,1.99,5.38,5.02,0,3.22-3.08,6.41-7.35,10.68,.96-.07,2.07-.17,3.03-.17h5.23v1.9H15.52v-1.3Z"/>
        <path class="cls-13" d="M29.66,218.9c0-5.74,2.2-8.81,5.78-8.81s5.76,3.1,5.76,8.81-2.17,8.93-5.76,8.93-5.78-3.19-5.78-8.93Zm9.29,0c0-5.02-1.41-7.06-3.51-7.06s-3.54,2.04-3.54,7.06,1.41,7.18,3.54,7.18,3.51-2.16,3.51-7.18Z"/>
        <path class="cls-13" d="M16.63,268.7h4.12v-12.63h-3.28v-1.42c1.64-.26,2.83-.67,3.84-1.25h1.77v15.29h3.71v1.82h-10.15v-1.82Z"/>
        <path class="cls-13" d="M29.66,261.9c0-5.74,2.2-8.81,5.78-8.81s5.76,3.1,5.76,8.81-2.17,8.93-5.76,8.93-5.78-3.19-5.78-8.93Zm9.29,0c0-5.02-1.41-7.06-3.51-7.06s-3.54,2.04-3.54,7.06,1.41,7.18,3.54,7.18,3.51-2.16,3.51-7.18Z"/>
        <path class="cls-13" d="M29.66,304.9c0-5.74,2.2-8.81,5.78-8.81s5.76,3.1,5.76,8.81-2.17,8.93-5.76,8.93-5.78-3.19-5.78-8.93Zm9.29,0c0-5.02-1.41-7.06-3.51-7.06s-3.54,2.04-3.54,7.06,1.41,7.18,3.54,7.18,3.51-2.16,3.51-7.18Z"/>
      </g>
      <g>
        <path class="cls-13" d="M31.46,385.84c.37-6.84,.46-10.81-1.31-12.68-1.23-1.29-2.85-1.52-4.37-.07-1.01,.96-1.3,2.39-1.26,3.78l-1.66,.03c.02-1.99,.43-3.68,1.99-5.17,2.2-2.09,4.83-2.07,6.74-.06,2.03,2.14,2,6.2,1.86,11.74,.59-.65,1.27-1.42,1.91-2.02l3.48-3.3,1.2,1.26-7.74,7.35-.82-.86Z"/>
        <path class="cls-13" d="M36.24,372.05c-3.62-3.81-4.1-7.24-1.72-9.51s5.78-1.58,9.39,2.22c3.62,3.81,4.19,7.31,1.81,9.57s-5.86,1.53-9.48-2.29Zm6.18-5.86c-3.17-3.33-5.39-3.8-6.79-2.48-1.41,1.34-1.06,3.59,2.1,6.92,3.17,3.33,5.47,3.88,6.88,2.54,1.39-1.32,.97-3.65-2.2-6.99Z"/>
        <path class="cls-13" d="M50.5,367.1l2.74-2.6-7.97-8.39-2.18,2.07-.89-.94c.92-1.21,1.46-2.23,1.76-3.25l1.17-1.12,9.65,10.17,2.47-2.34,1.15,1.21-6.75,6.41-1.15-1.21Z"/>
        <path class="cls-13" d="M59.53,358.95v-1.72c.99,.11,2.05-.25,2.8-.97,1.68-1.59,1.92-4.19-1.46-7.9,.09,1.64-.44,3.21-1.41,4.13-2.08,1.98-4.56,2.05-6.77-.28-2.06-2.17-1.84-5.17,.07-6.98,2.37-2.25,5.86-2.1,9.33,1.55,4.33,4.56,3.83,8.38,1.45,10.64-1.28,1.21-2.7,1.59-4.01,1.53Zm-.85-7.78c.77-.73,1.31-2.12,1.05-3.94-2.29-2.01-4.35-2.3-5.88-.85-1.18,1.12-1.14,2.97,.28,4.47,1.41,1.48,3.06,1.74,4.55,.32Z"/>
        <path class="cls-13" d="M62.01,334.39l1.11-1.05,9.72,20.29-1.13,1.07-9.7-20.31Z"/>
        <path class="cls-13" d="M75.72,343.16l2.74-2.6-7.97-8.39-2.18,2.07-.89-.94c.92-1.21,1.46-2.23,1.76-3.25l1.17-1.12,9.65,10.17,2.47-2.34,1.15,1.21-6.75,6.41-1.15-1.21Z"/>
        <path class="cls-13" d="M84.63,335.36c.37-6.84,.46-10.81-1.31-12.68-1.23-1.29-2.84-1.52-4.37-.07-1.01,.96-1.3,2.39-1.26,3.78l-1.66,.03c.02-1.99,.43-3.68,1.99-5.17,2.2-2.09,4.83-2.07,6.74-.06,2.03,2.14,2,6.2,1.86,11.74,.59-.65,1.27-1.42,1.91-2.02l3.48-3.3,1.2,1.26-7.74,7.35-.82-.86Z"/>
      </g>
      <g>
        <path class="cls-13" d="M91.08,385.84c.37-6.84,.46-10.81-1.31-12.68-1.23-1.29-2.85-1.52-4.37-.07-1.01,.96-1.3,2.39-1.26,3.78l-1.66,.03c.02-1.99,.43-3.68,1.99-5.17,2.2-2.09,4.83-2.07,6.74-.06,2.03,2.14,2,6.2,1.86,11.74,.59-.65,1.27-1.42,1.91-2.02l3.48-3.3,1.2,1.26-7.74,7.35-.82-.86Z"/>
        <path class="cls-13" d="M95.87,372.05c-3.62-3.81-4.1-7.24-1.72-9.51s5.78-1.58,9.39,2.22c3.62,3.81,4.19,7.31,1.81,9.57s-5.86,1.53-9.48-2.29Zm6.18-5.86c-3.17-3.33-5.39-3.8-6.79-2.48-1.41,1.34-1.06,3.59,2.1,6.92,3.17,3.33,5.47,3.88,6.88,2.54,1.39-1.32,.97-3.65-2.2-6.99Z"/>
        <path class="cls-13" d="M109.72,368.15c.37-6.84,.46-10.81-1.31-12.68-1.23-1.29-2.84-1.52-4.37-.07-1.01,.96-1.3,2.39-1.26,3.78l-1.66,.03c.02-1.99,.43-3.68,1.99-5.17,2.2-2.09,4.83-2.07,6.74-.06,2.03,2.14,2,6.2,1.86,11.74,.59-.65,1.27-1.42,1.91-2.02l3.47-3.3,1.2,1.26-7.74,7.35-.82-.86Z"/>
        <path class="cls-13" d="M114.5,354.36c-3.62-3.81-4.1-7.24-1.71-9.51,2.38-2.26,5.78-1.58,9.39,2.22,3.62,3.81,4.19,7.31,1.81,9.57-2.38,2.26-5.86,1.53-9.48-2.29Zm6.18-5.86c-3.17-3.33-5.39-3.8-6.79-2.48-1.41,1.34-1.06,3.59,2.1,6.92s5.47,3.88,6.88,2.54c1.39-1.32,.97-3.65-2.2-6.99Z"/>
        <path class="cls-13" d="M121.63,334.39l1.11-1.05,9.72,20.29-1.13,1.07-9.7-20.31Z"/>
        <path class="cls-13" d="M130.4,339.26c-3.62-3.81-4.1-7.24-1.71-9.51s5.78-1.58,9.39,2.22c3.62,3.81,4.19,7.31,1.81,9.57s-5.86,1.53-9.48-2.29Zm6.18-5.86c-3.17-3.33-5.39-3.8-6.79-2.48-1.41,1.34-1.06,3.59,2.1,6.92,3.17,3.33,5.47,3.88,6.88,2.54,1.39-1.32,.97-3.65-2.2-6.99Z"/>
        <path class="cls-13" d="M144.26,335.36c.37-6.84,.46-10.81-1.31-12.68-1.23-1.29-2.84-1.52-4.37-.07-1.01,.96-1.3,2.39-1.26,3.78l-1.66,.03c.02-1.99,.43-3.68,1.99-5.17,2.2-2.09,4.83-2.07,6.74-.06,2.03,2.14,2,6.2,1.86,11.74,.59-.65,1.27-1.42,1.91-2.02l3.48-3.3,1.2,1.26-7.74,7.35-.82-.86Z"/>
      </g>
      <g>
        <path class="cls-13" d="M151.37,386.78c.37-6.84,.46-10.81-1.31-12.68-1.23-1.29-2.85-1.52-4.37-.07-1.01,.96-1.3,2.39-1.26,3.78l-1.66,.03c.02-1.99,.43-3.68,1.99-5.17,2.2-2.09,4.83-2.07,6.74-.06,2.03,2.14,2,6.2,1.86,11.74,.59-.65,1.27-1.42,1.91-2.02l3.48-3.3,1.2,1.26-7.74,7.35-.82-.86Z"/>
        <path class="cls-13" d="M156.15,372.99c-3.62-3.81-4.1-7.24-1.72-9.51s5.78-1.58,9.39,2.22c3.62,3.81,4.19,7.31,1.81,9.57s-5.86,1.53-9.48-2.29Zm6.18-5.86c-3.17-3.33-5.39-3.8-6.79-2.48-1.41,1.34-1.06,3.59,2.1,6.92,3.17,3.33,5.47,3.88,6.88,2.54,1.39-1.32,.97-3.65-2.2-6.99Z"/>
        <path class="cls-13" d="M170.01,369.09c.37-6.84,.46-10.81-1.31-12.68-1.23-1.29-2.84-1.52-4.37-.07-1.01,.96-1.3,2.39-1.26,3.78l-1.66,.03c.02-1.99,.43-3.68,1.99-5.17,2.2-2.09,4.83-2.07,6.74-.06,2.03,2.14,2,6.2,1.86,11.74,.59-.65,1.27-1.42,1.91-2.02l3.47-3.3,1.2,1.26-7.74,7.35-.82-.86Z"/>
        <path class="cls-13" d="M174.79,355.29c-3.62-3.81-4.1-7.24-1.71-9.51,2.38-2.26,5.78-1.58,9.39,2.22,3.62,3.81,4.19,7.31,1.81,9.57-2.38,2.26-5.86,1.53-9.48-2.29Zm6.18-5.86c-3.17-3.33-5.39-3.8-6.79-2.48-1.41,1.34-1.06,3.59,2.1,6.92s5.47,3.88,6.88,2.54c1.39-1.32,.97-3.65-2.2-6.99Z"/>
        <path class="cls-13" d="M181.92,335.33l1.11-1.05,9.72,20.29-1.13,1.07-9.7-20.31Z"/>
        <path class="cls-13" d="M190.69,340.2c-3.62-3.81-4.1-7.24-1.71-9.51s5.78-1.58,9.39,2.22c3.62,3.81,4.19,7.31,1.81,9.57s-5.86,1.53-9.48-2.29Zm6.18-5.86c-3.17-3.33-5.39-3.8-6.79-2.48-1.41,1.34-1.06,3.59,2.1,6.92,3.17,3.33,5.47,3.88,6.88,2.54,1.39-1.32,.97-3.65-2.2-6.99Z"/>
        <path class="cls-13" d="M207.35,329.3l-5.37,5.1-.91-.96-1.79-12.14,1.7-1.61,6.71,7.07,1.63-1.55,1.11,1.17-1.63,1.55,2.98,3.14-1.44,1.37-2.98-3.14Zm-1.11-1.17l-3.17-3.33c-.56-.59-1.43-1.61-1.98-2.25l-.07,.06c.21,.83,.35,1.64,.52,2.54l.91,6.57,3.78-3.59Z"/>
      </g>
      <g>
        <path class="cls-13" d="M211.19,386.93c.37-6.84,.46-10.81-1.31-12.68-1.23-1.29-2.85-1.52-4.37-.07-1.01,.96-1.3,2.39-1.26,3.78l-1.66,.03c.02-1.99,.43-3.68,1.99-5.17,2.2-2.09,4.83-2.07,6.74-.06,2.03,2.14,2,6.2,1.86,11.74,.59-.65,1.27-1.42,1.91-2.02l3.48-3.3,1.2,1.26-7.74,7.35-.82-.86Z"/>
        <path class="cls-13" d="M215.97,373.13c-3.62-3.81-4.1-7.24-1.72-9.51s5.78-1.58,9.39,2.22c3.62,3.81,4.19,7.31,1.81,9.57s-5.86,1.53-9.48-2.29Zm6.18-5.86c-3.17-3.33-5.39-3.8-6.79-2.48-1.41,1.34-1.06,3.59,2.1,6.92,3.17,3.33,5.47,3.88,6.88,2.54,1.39-1.32,.97-3.65-2.2-6.99Z"/>
        <path class="cls-13" d="M229.83,369.23c.37-6.84,.46-10.81-1.31-12.68-1.23-1.29-2.84-1.52-4.37-.07-1.01,.96-1.3,2.39-1.26,3.78l-1.66,.03c.02-1.99,.43-3.68,1.99-5.17,2.2-2.09,4.83-2.07,6.74-.06,2.03,2.14,2,6.2,1.86,11.74,.59-.65,1.27-1.42,1.91-2.02l3.47-3.3,1.2,1.26-7.74,7.35-.82-.86Z"/>
        <path class="cls-13" d="M234.61,355.44c-3.62-3.81-4.1-7.24-1.71-9.51,2.38-2.26,5.78-1.58,9.39,2.22,3.62,3.81,4.19,7.31,1.81,9.57-2.38,2.26-5.86,1.53-9.48-2.29Zm6.18-5.86c-3.17-3.33-5.39-3.8-6.79-2.48-1.41,1.34-1.06,3.59,2.1,6.92s5.47,3.88,6.88,2.54c1.39-1.32,.97-3.65-2.2-6.99Z"/>
        <path class="cls-13" d="M241.74,335.47l1.11-1.05,9.72,20.29-1.13,1.07-9.7-20.31Z"/>
        <path class="cls-13" d="M250.51,340.34c-3.62-3.81-4.1-7.24-1.71-9.51s5.78-1.58,9.39,2.22c3.62,3.81,4.19,7.31,1.81,9.57s-5.86,1.53-9.48-2.29Zm6.18-5.86c-3.17-3.33-5.39-3.8-6.79-2.48-1.41,1.34-1.06,3.59,2.1,6.92,3.17,3.33,5.47,3.88,6.88,2.54,1.39-1.32,.97-3.65-2.2-6.99Z"/>
        <path class="cls-13" d="M260.37,331.9c-4.35-4.58-3.85-8.39-1.45-10.67,1.28-1.21,2.68-1.58,4.01-1.53v1.72c-1.01-.1-2.07,.27-2.8,.97-1.7,1.61-1.94,4.18,1.43,7.86-.06-1.61,.48-3.16,1.46-4.08,2.06-1.96,4.53-2.05,6.72,.26,2.08,2.19,1.86,5.18-.06,7-2.37,2.25-5.86,2.1-9.31-1.54Zm2.34-.49c2.31,2.03,4.37,2.35,5.88,.91,1.19-1.13,1.14-3-.29-4.51-1.39-1.47-3.03-1.71-4.5-.31-.77,.73-1.33,2.02-1.08,3.91Z"/>
      </g>
      <g>
        <path class="cls-13" d="M270.75,386.2c.37-6.84,.46-10.81-1.31-12.68-1.23-1.29-2.85-1.52-4.37-.07-1.01,.96-1.3,2.39-1.26,3.78l-1.66,.03c.02-1.99,.43-3.68,1.99-5.17,2.2-2.09,4.83-2.07,6.74-.06,2.03,2.14,2,6.2,1.86,11.74,.59-.65,1.27-1.42,1.91-2.02l3.48-3.3,1.2,1.26-7.74,7.35-.82-.86Z"/>
        <path class="cls-13" d="M275.53,372.4c-3.62-3.81-4.1-7.24-1.72-9.51s5.78-1.58,9.39,2.22c3.62,3.81,4.19,7.31,1.81,9.57s-5.86,1.53-9.48-2.29Zm6.18-5.86c-3.17-3.33-5.39-3.8-6.79-2.48-1.41,1.34-1.06,3.59,2.1,6.92,3.17,3.33,5.47,3.88,6.88,2.54,1.39-1.32,.97-3.65-2.2-6.99Z"/>
        <path class="cls-13" d="M289.39,368.5c.37-6.84,.46-10.81-1.31-12.68-1.23-1.29-2.84-1.52-4.37-.07-1.01,.96-1.3,2.39-1.26,3.78l-1.66,.03c.02-1.99,.43-3.68,1.99-5.17,2.2-2.09,4.83-2.07,6.74-.06,2.03,2.14,2,6.2,1.86,11.74,.59-.65,1.27-1.42,1.91-2.02l3.47-3.3,1.2,1.26-7.74,7.35-.82-.86Z"/>
        <path class="cls-13" d="M294.17,354.71c-3.62-3.81-4.1-7.24-1.71-9.51,2.38-2.26,5.78-1.58,9.39,2.22,3.62,3.81,4.19,7.31,1.81,9.57-2.38,2.26-5.86,1.53-9.48-2.29Zm6.18-5.86c-3.17-3.33-5.39-3.8-6.79-2.48-1.41,1.34-1.06,3.59,2.1,6.92s5.47,3.88,6.88,2.54c1.39-1.32,.97-3.65-2.2-6.99Z"/>
        <path class="cls-13" d="M301.29,334.75l1.11-1.05,9.72,20.29-1.13,1.07-9.7-20.31Z"/>
        <path class="cls-13" d="M310.07,339.62c-3.62-3.81-4.1-7.24-1.71-9.51s5.78-1.58,9.39,2.22c3.62,3.81,4.19,7.31,1.81,9.57s-5.86,1.53-9.48-2.29Zm6.18-5.86c-3.17-3.33-5.39-3.8-6.79-2.48-1.41,1.34-1.06,3.59,2.1,6.92,3.17,3.33,5.47,3.88,6.88,2.54,1.39-1.32,.97-3.65-2.2-6.99Z"/>
        <path class="cls-13" d="M322,333.66c-1.41-1.48-1.24-3.59-.66-5.23l-.06-.06c-1.43,.27-3.01,.16-4.16-1.06-1.65-1.74-1.3-4.29,.62-6.11,2.1-1.99,4.55-1.96,6.24-.19,1.14,1.2,1.18,3.09,.96,4.31l.08,.08c1.63-.4,3.41-.57,4.85,.94,1.62,1.71,1.33,4.5-.98,6.7-2.27,2.15-5.17,2.42-6.88,.62Zm.74-11.32c-1.06-1.12-2.67-1.29-3.99-.03-1.14,1.08-1.28,2.58-.24,3.68,1.3,1.37,3.17,.69,5.13-.14,.16-1.48-.1-2.66-.91-3.51Zm5.63,5.36c-1.41-1.48-3.42-.58-5.79,.43-.41,1.52-.32,3.03,.68,4.08,1.18,1.25,3.14,1.12,4.61-.28,1.41-1.34,1.59-3.06,.49-4.23Z"/>
      </g>
      <g>
        <path class="cls-13" d="M330.66,385.92c.37-6.84,.46-10.81-1.31-12.68-1.23-1.29-2.85-1.52-4.37-.07-1.01,.96-1.3,2.39-1.26,3.78l-1.66,.03c.02-1.99,.43-3.68,1.99-5.17,2.2-2.09,4.83-2.07,6.74-.06,2.03,2.14,2,6.2,1.86,11.74,.59-.65,1.27-1.42,1.91-2.02l3.48-3.3,1.2,1.26-7.74,7.35-.82-.86Z"/>
        <path class="cls-13" d="M335.45,372.13c-3.62-3.81-4.1-7.24-1.72-9.51s5.78-1.58,9.39,2.22c3.62,3.81,4.19,7.31,1.81,9.57s-5.86,1.53-9.48-2.29Zm6.18-5.86c-3.17-3.33-5.39-3.8-6.79-2.48-1.41,1.34-1.06,3.59,2.1,6.92,3.17,3.33,5.47,3.88,6.88,2.54,1.39-1.32,.97-3.65-2.2-6.99Z"/>
        <path class="cls-13" d="M349.3,368.23c.37-6.84,.46-10.81-1.31-12.68-1.23-1.29-2.84-1.52-4.37-.07-1.01,.96-1.3,2.39-1.26,3.78l-1.66,.03c.02-1.99,.43-3.68,1.99-5.17,2.2-2.09,4.83-2.07,6.74-.06,2.03,2.14,2,6.2,1.86,11.74,.59-.65,1.27-1.42,1.91-2.02l3.47-3.3,1.2,1.26-7.74,7.35-.82-.86Z"/>
        <path class="cls-13" d="M354.08,354.43c-3.62-3.81-4.1-7.24-1.71-9.51,2.38-2.26,5.78-1.58,9.39,2.22,3.62,3.81,4.19,7.31,1.81,9.57-2.38,2.26-5.86,1.53-9.48-2.29Zm6.18-5.86c-3.17-3.33-5.39-3.8-6.79-2.48-1.41,1.34-1.06,3.59,2.1,6.92s5.47,3.88,6.88,2.54c1.39-1.32,.97-3.65-2.2-6.99Z"/>
        <path class="cls-13" d="M361.21,334.47l1.11-1.05,9.72,20.29-1.13,1.07-9.7-20.31Z"/>
        <path class="cls-13" d="M374.93,343.23l2.74-2.6-7.97-8.39-2.18,2.07-.89-.94c.92-1.21,1.46-2.23,1.76-3.25l1.17-1.12,9.65,10.17,2.47-2.34,1.15,1.21-6.75,6.41-1.15-1.21Z"/>
        <path class="cls-13" d="M379.3,330.49c-3.62-3.81-4.1-7.24-1.72-9.51,2.38-2.26,5.78-1.58,9.39,2.22,3.62,3.81,4.19,7.31,1.81,9.57-2.38,2.26-5.86,1.53-9.48-2.29Zm6.18-5.86c-3.17-3.33-5.39-3.8-6.79-2.48-1.41,1.34-1.06,3.59,2.1,6.92,3.17,3.33,5.47,3.88,6.88,2.54,1.39-1.32,.97-3.65-2.2-6.99Z"/>
      </g>
      <g>
        <path class="cls-13" d="M389.2,385.84c.37-6.84,.46-10.81-1.31-12.68-1.23-1.29-2.85-1.52-4.37-.07-1.01,.96-1.3,2.39-1.26,3.78l-1.66,.03c.02-1.99,.43-3.68,1.99-5.17,2.2-2.09,4.83-2.07,6.74-.06,2.03,2.14,2,6.2,1.86,11.74,.59-.65,1.27-1.42,1.91-2.02l3.48-3.3,1.2,1.26-7.74,7.35-.82-.86Z"/>
        <path class="cls-13" d="M393.98,372.05c-3.62-3.81-4.1-7.24-1.72-9.51s5.78-1.58,9.39,2.22c3.62,3.81,4.19,7.31,1.81,9.57s-5.86,1.53-9.48-2.29Zm6.18-5.86c-3.17-3.33-5.39-3.8-6.79-2.48-1.41,1.34-1.06,3.59,2.1,6.92,3.17,3.33,5.47,3.88,6.88,2.54,1.39-1.32,.97-3.65-2.2-6.99Z"/>
        <path class="cls-13" d="M407.84,368.15c.37-6.84,.46-10.81-1.31-12.68-1.23-1.29-2.84-1.52-4.37-.07-1.01,.96-1.3,2.39-1.26,3.78l-1.66,.03c.02-1.99,.43-3.68,1.99-5.17,2.2-2.09,4.83-2.07,6.74-.06,2.03,2.14,2,6.2,1.86,11.74,.59-.65,1.27-1.42,1.91-2.02l3.47-3.3,1.2,1.26-7.74,7.35-.82-.86Z"/>
        <path class="cls-13" d="M412.62,354.36c-3.62-3.81-4.1-7.24-1.71-9.51,2.38-2.26,5.78-1.58,9.39,2.22,3.62,3.81,4.19,7.31,1.81,9.57-2.38,2.26-5.86,1.53-9.48-2.29Zm6.18-5.86c-3.17-3.33-5.39-3.8-6.79-2.48-1.41,1.34-1.06,3.59,2.1,6.92s5.47,3.88,6.88,2.54c1.39-1.32,.97-3.65-2.2-6.99Z"/>
        <path class="cls-13" d="M419.75,334.39l1.11-1.05,9.72,20.29-1.13,1.07-9.7-20.31Z"/>
        <path class="cls-13" d="M433.46,343.16l2.74-2.6-7.97-8.39-2.18,2.07-.89-.94c.92-1.21,1.46-2.23,1.76-3.25l1.17-1.12,9.65,10.17,2.47-2.34,1.15,1.21-6.75,6.41-1.15-1.21Z"/>
        <path class="cls-13" d="M442.38,335.36c.37-6.84,.46-10.81-1.31-12.68-1.23-1.29-2.84-1.52-4.37-.07-1.01,.96-1.3,2.39-1.26,3.78l-1.66,.03c.02-1.99,.43-3.68,1.99-5.17,2.2-2.09,4.83-2.07,6.74-.06,2.03,2.14,2,6.2,1.86,11.74,.59-.65,1.27-1.42,1.91-2.02l3.48-3.3,1.2,1.26-7.74,7.35-.82-.86Z"/>
      </g>
      <g>
        <path class="cls-13" d="M448.82,385.84c.37-6.84,.46-10.81-1.31-12.68-1.23-1.29-2.85-1.52-4.37-.07-1.01,.96-1.3,2.39-1.26,3.78l-1.66,.03c.02-1.99,.43-3.68,1.99-5.17,2.2-2.09,4.83-2.07,6.74-.06,2.03,2.14,2,6.2,1.86,11.74,.59-.65,1.27-1.42,1.91-2.02l3.48-3.3,1.2,1.26-7.74,7.35-.82-.86Z"/>
        <path class="cls-13" d="M453.61,372.05c-3.62-3.81-4.1-7.24-1.72-9.51s5.78-1.58,9.39,2.22c3.62,3.81,4.19,7.31,1.81,9.57s-5.86,1.53-9.48-2.29Zm6.18-5.86c-3.17-3.33-5.39-3.8-6.79-2.48-1.41,1.34-1.06,3.59,2.1,6.92,3.17,3.33,5.47,3.88,6.88,2.54,1.39-1.32,.97-3.65-2.2-6.99Z"/>
        <path class="cls-13" d="M467.46,368.15c.37-6.84,.46-10.81-1.31-12.68-1.23-1.29-2.84-1.52-4.37-.07-1.01,.96-1.3,2.39-1.26,3.78l-1.66,.03c.02-1.99,.43-3.68,1.99-5.17,2.2-2.09,4.83-2.07,6.74-.06,2.03,2.14,2,6.2,1.86,11.74,.59-.65,1.27-1.42,1.91-2.02l3.47-3.3,1.2,1.26-7.74,7.35-.82-.86Z"/>
        <path class="cls-13" d="M477.18,358.25l2.74-2.6-7.97-8.39-2.18,2.07-.89-.94c.92-1.21,1.46-2.23,1.76-3.25l1.17-1.12,9.65,10.17,2.47-2.34,1.15,1.21-6.75,6.41-1.15-1.21Z"/>
        <path class="cls-13" d="M479.37,334.39l1.11-1.05,9.72,20.29-1.13,1.07-9.7-20.31Z"/>
        <path class="cls-13" d="M488.14,339.26c-3.62-3.81-4.1-7.24-1.71-9.51s5.78-1.58,9.39,2.22c3.62,3.81,4.19,7.31,1.81,9.57s-5.86,1.53-9.48-2.29Zm6.18-5.86c-3.17-3.33-5.39-3.8-6.79-2.48-1.41,1.34-1.06,3.59,2.1,6.92,3.17,3.33,5.47,3.88,6.88,2.54,1.39-1.32,.97-3.65-2.2-6.99Z"/>
        <path class="cls-13" d="M502,335.36c.37-6.84,.46-10.81-1.31-12.68-1.23-1.29-2.84-1.52-4.37-.07-1.01,.96-1.3,2.39-1.26,3.78l-1.66,.03c.02-1.99,.43-3.68,1.99-5.17,2.2-2.09,4.83-2.07,6.74-.06,2.03,2.14,2,6.2,1.86,11.74,.59-.65,1.27-1.42,1.91-2.02l3.48-3.3,1.2,1.26-7.74,7.35-.82-.86Z"/>
      </g>
      <g>
        <path class="cls-13" d="M509.11,386.78c.37-6.84,.46-10.81-1.31-12.68-1.23-1.29-2.85-1.52-4.37-.07-1.01,.96-1.3,2.39-1.26,3.78l-1.66,.03c.02-1.99,.43-3.68,1.99-5.17,2.2-2.09,4.83-2.07,6.74-.06,2.03,2.14,2,6.2,1.86,11.74,.59-.65,1.27-1.42,1.91-2.02l3.48-3.3,1.2,1.26-7.74,7.35-.82-.86Z"/>
        <path class="cls-13" d="M513.89,372.99c-3.62-3.81-4.1-7.24-1.72-9.51s5.78-1.58,9.39,2.22c3.62,3.81,4.19,7.31,1.81,9.57s-5.86,1.53-9.48-2.29Zm6.18-5.86c-3.17-3.33-5.39-3.8-6.79-2.48-1.41,1.34-1.06,3.59,2.1,6.92,3.17,3.33,5.47,3.88,6.88,2.54,1.39-1.32,.97-3.65-2.2-6.99Z"/>
        <path class="cls-13" d="M527.75,369.09c.37-6.84,.46-10.81-1.31-12.68-1.23-1.29-2.84-1.52-4.37-.07-1.01,.96-1.3,2.39-1.26,3.78l-1.66,.03c.02-1.99,.43-3.68,1.99-5.17,2.2-2.09,4.83-2.07,6.74-.06,2.03,2.14,2,6.2,1.86,11.74,.59-.65,1.27-1.42,1.91-2.02l3.47-3.3,1.2,1.26-7.74,7.35-.82-.86Z"/>
        <path class="cls-13" d="M537.47,359.19l2.74-2.6-7.97-8.39-2.18,2.07-.89-.94c.92-1.21,1.46-2.23,1.76-3.25l1.17-1.12,9.65,10.17,2.47-2.34,1.15,1.21-6.75,6.41-1.15-1.21Z"/>
        <path class="cls-13" d="M539.66,335.33l1.11-1.05,9.72,20.29-1.13,1.07-9.7-20.31Z"/>
        <path class="cls-13" d="M548.43,340.2c-3.62-3.81-4.1-7.24-1.71-9.51s5.78-1.58,9.39,2.22c3.62,3.81,4.19,7.31,1.81,9.57s-5.86,1.53-9.48-2.29Zm6.18-5.86c-3.17-3.33-5.39-3.8-6.79-2.48-1.41,1.34-1.06,3.59,2.1,6.92,3.17,3.33,5.47,3.88,6.88,2.54,1.39-1.32,.97-3.65-2.2-6.99Z"/>
        <path class="cls-13" d="M565.09,329.3l-5.37,5.1-.91-.96-1.79-12.14,1.7-1.61,6.71,7.07,1.63-1.55,1.11,1.17-1.63,1.55,2.98,3.14-1.44,1.37-2.98-3.14Zm-1.11-1.17l-3.17-3.33c-.56-.59-1.43-1.61-1.98-2.25l-.07,.06c.21,.83,.35,1.64,.52,2.54l.91,6.57,3.78-3.59Z"/>
      </g>
      <g>
        <path class="cls-13" d="M568.93,386.93c.37-6.84,.46-10.81-1.31-12.68-1.23-1.29-2.85-1.52-4.37-.07-1.01,.96-1.3,2.39-1.26,3.78l-1.66,.03c.02-1.99,.43-3.68,1.99-5.17,2.2-2.09,4.83-2.07,6.74-.06,2.03,2.14,2,6.2,1.86,11.74,.59-.65,1.27-1.42,1.91-2.02l3.47-3.3,1.2,1.26-7.74,7.35-.82-.86Z"/>
        <path class="cls-13" d="M573.71,373.13c-3.62-3.81-4.1-7.24-1.72-9.51,2.38-2.26,5.78-1.58,9.39,2.22,3.62,3.81,4.19,7.31,1.81,9.57-2.38,2.26-5.86,1.53-9.48-2.29Zm6.18-5.86c-3.17-3.33-5.39-3.8-6.79-2.48-1.41,1.34-1.06,3.59,2.1,6.92,3.17,3.33,5.47,3.88,6.88,2.54,1.39-1.32,.97-3.65-2.2-6.99Z"/>
        <path class="cls-13" d="M587.57,369.23c.37-6.84,.46-10.81-1.31-12.68-1.23-1.29-2.84-1.52-4.37-.07-1.01,.96-1.3,2.39-1.26,3.78l-1.66,.03c.02-1.99,.43-3.68,1.99-5.17,2.2-2.09,4.83-2.07,6.74-.06,2.03,2.14,2,6.2,1.86,11.74,.59-.65,1.27-1.42,1.91-2.02l3.47-3.3,1.2,1.26-7.74,7.35-.82-.86Z"/>
        <path class="cls-13" d="M597.29,359.33l2.74-2.6-7.97-8.39-2.18,2.07-.89-.94c.93-1.21,1.46-2.23,1.76-3.25l1.18-1.12,9.65,10.17,2.47-2.34,1.15,1.21-6.75,6.41-1.15-1.21Z"/>
        <path class="cls-13" d="M599.48,335.47l1.11-1.05,9.72,20.29-1.13,1.07-9.7-20.31Z"/>
        <path class="cls-13" d="M608.25,340.34c-3.62-3.81-4.1-7.24-1.71-9.51,2.38-2.26,5.78-1.58,9.39,2.22,3.62,3.81,4.19,7.31,1.81,9.57-2.38,2.26-5.86,1.53-9.48-2.29Zm6.18-5.86c-3.17-3.33-5.39-3.8-6.79-2.48-1.41,1.34-1.06,3.59,2.1,6.92s5.47,3.88,6.88,2.54c1.39-1.32,.97-3.65-2.2-6.99Z"/>
        <path class="cls-13" d="M618.11,331.9c-4.35-4.58-3.85-8.39-1.45-10.67,1.28-1.21,2.68-1.58,4.01-1.53v1.72c-1.01-.1-2.07,.27-2.8,.97-1.7,1.61-1.94,4.18,1.43,7.86-.06-1.61,.48-3.16,1.46-4.08,2.06-1.96,4.53-2.05,6.72,.26,2.07,2.19,1.86,5.18-.06,7-2.37,2.25-5.86,2.1-9.31-1.54Zm2.34-.49c2.31,2.03,4.37,2.35,5.88,.91,1.19-1.13,1.14-3-.29-4.51-1.39-1.47-3.03-1.71-4.5-.31-.77,.73-1.33,2.02-1.08,3.91Z"/>
      </g>
      <g>
        <path class="cls-13" d="M628.49,386.2c.37-6.84,.46-10.81-1.31-12.68-1.23-1.29-2.85-1.52-4.37-.07-1.01,.96-1.3,2.39-1.26,3.78l-1.66,.03c.02-1.99,.43-3.68,1.99-5.17,2.2-2.09,4.83-2.07,6.74-.06,2.03,2.14,2,6.2,1.86,11.74,.59-.65,1.27-1.42,1.91-2.02l3.48-3.3,1.2,1.26-7.74,7.35-.82-.86Z"/>
        <path class="cls-13" d="M633.27,372.4c-3.62-3.81-4.1-7.24-1.72-9.51s5.78-1.58,9.39,2.22c3.62,3.81,4.19,7.31,1.81,9.57s-5.86,1.53-9.48-2.29Zm6.18-5.86c-3.17-3.33-5.39-3.8-6.79-2.48-1.41,1.34-1.06,3.59,2.1,6.92,3.17,3.33,5.47,3.88,6.88,2.54,1.39-1.32,.97-3.65-2.2-6.99Z"/>
        <path class="cls-13" d="M647.13,368.5c.37-6.84,.46-10.81-1.31-12.68-1.23-1.29-2.84-1.52-4.37-.07-1.01,.96-1.3,2.39-1.26,3.78l-1.66,.03c.02-1.99,.43-3.68,1.99-5.17,2.2-2.09,4.83-2.07,6.74-.06,2.03,2.14,2,6.2,1.86,11.74,.59-.65,1.27-1.42,1.91-2.02l3.47-3.3,1.2,1.26-7.74,7.35-.82-.86Z"/>
        <path class="cls-13" d="M656.85,358.6l2.74-2.6-7.97-8.39-2.18,2.07-.89-.94c.92-1.21,1.46-2.23,1.76-3.25l1.17-1.12,9.65,10.17,2.47-2.34,1.15,1.21-6.75,6.41-1.15-1.21Z"/>
        <path class="cls-13" d="M659.04,334.75l1.11-1.05,9.72,20.29-1.13,1.07-9.7-20.31Z"/>
        <path class="cls-13" d="M667.81,339.62c-3.62-3.81-4.1-7.24-1.71-9.51s5.78-1.58,9.39,2.22c3.62,3.81,4.19,7.31,1.81,9.57s-5.86,1.53-9.48-2.29Zm6.18-5.86c-3.17-3.33-5.39-3.8-6.79-2.48-1.41,1.34-1.06,3.59,2.1,6.92,3.17,3.33,5.47,3.88,6.88,2.54,1.39-1.32,.97-3.65-2.2-6.99Z"/>
        <path class="cls-13" d="M679.74,333.66c-1.41-1.48-1.24-3.59-.66-5.23l-.06-.06c-1.43,.27-3.01,.16-4.16-1.06-1.65-1.74-1.3-4.29,.62-6.11,2.1-1.99,4.55-1.96,6.24-.19,1.14,1.2,1.18,3.09,.96,4.31l.08,.08c1.63-.4,3.41-.57,4.85,.94,1.62,1.71,1.33,4.5-.98,6.7-2.27,2.15-5.17,2.42-6.88,.62Zm.74-11.32c-1.06-1.12-2.67-1.29-3.99-.03-1.14,1.08-1.28,2.58-.24,3.68,1.3,1.37,3.17,.69,5.13-.14,.16-1.48-.1-2.66-.91-3.51Zm5.63,5.36c-1.41-1.48-3.42-.58-5.79,.43-.41,1.52-.32,3.03,.68,4.08,1.18,1.25,3.14,1.12,4.61-.28,1.41-1.34,1.59-3.06,.49-4.23Z"/>
      </g>
      <g>
        <path class="cls-13" d="M688.41,385.92c.37-6.84,.46-10.81-1.31-12.68-1.23-1.29-2.85-1.52-4.37-.07-1.01,.96-1.3,2.39-1.26,3.78l-1.66,.03c.02-1.99,.43-3.68,1.99-5.17,2.2-2.09,4.83-2.07,6.74-.06,2.03,2.14,2,6.2,1.86,11.74,.59-.65,1.27-1.42,1.91-2.02l3.48-3.3,1.2,1.26-7.74,7.35-.82-.86Z"/>
        <path class="cls-13" d="M693.19,372.13c-3.62-3.81-4.1-7.24-1.72-9.51s5.78-1.58,9.39,2.22c3.62,3.81,4.19,7.31,1.81,9.57s-5.86,1.53-9.48-2.29Zm6.18-5.86c-3.17-3.33-5.39-3.8-6.79-2.48-1.41,1.34-1.06,3.59,2.1,6.92,3.17,3.33,5.47,3.88,6.88,2.54,1.39-1.32,.97-3.65-2.2-6.99Z"/>
        <path class="cls-13" d="M707.04,368.23c.37-6.84,.46-10.81-1.31-12.68-1.23-1.29-2.84-1.52-4.37-.07-1.01,.96-1.3,2.39-1.26,3.78l-1.66,.03c.02-1.99,.43-3.68,1.99-5.17,2.2-2.09,4.83-2.07,6.74-.06,2.03,2.14,2,6.2,1.86,11.74,.59-.65,1.27-1.42,1.91-2.02l3.47-3.3,1.2,1.26-7.74,7.35-.82-.86Z"/>
        <path class="cls-13" d="M716.77,358.33l2.74-2.6-7.97-8.39-2.18,2.07-.89-.94c.92-1.21,1.46-2.23,1.76-3.25l1.17-1.12,9.65,10.17,2.47-2.34,1.15,1.21-6.75,6.41-1.15-1.21Z"/>
        <path class="cls-13" d="M718.95,334.47l1.11-1.05,9.72,20.29-1.13,1.07-9.7-20.31Z"/>
        <path class="cls-13" d="M732.67,343.23l2.74-2.6-7.97-8.39-2.18,2.07-.89-.94c.92-1.21,1.46-2.23,1.76-3.25l1.17-1.12,9.65,10.17,2.47-2.34,1.15,1.21-6.75,6.41-1.15-1.21Z"/>
        <path class="cls-13" d="M737.04,330.49c-3.62-3.81-4.1-7.24-1.72-9.51,2.38-2.26,5.78-1.58,9.39,2.22,3.62,3.81,4.19,7.31,1.81,9.57-2.38,2.26-5.86,1.53-9.48-2.29Zm6.18-5.86c-3.17-3.33-5.39-3.8-6.79-2.48-1.41,1.34-1.06,3.59,2.1,6.92,3.17,3.33,5.47,3.88,6.88,2.54,1.39-1.32,.97-3.65-2.2-6.99Z"/>
      </g>
      <g>
        <path class="cls-13" d="M746.94,385.84c.37-6.84,.46-10.81-1.31-12.68-1.23-1.29-2.85-1.52-4.37-.07-1.01,.96-1.3,2.39-1.26,3.78l-1.66,.03c.02-1.99,.43-3.68,1.99-5.17,2.2-2.09,4.83-2.07,6.74-.06,2.03,2.14,2,6.2,1.86,11.74,.59-.65,1.27-1.42,1.91-2.02l3.48-3.3,1.2,1.26-7.74,7.35-.82-.86Z"/>
        <path class="cls-13" d="M751.72,372.05c-3.62-3.81-4.1-7.24-1.72-9.51s5.78-1.58,9.39,2.22c3.62,3.81,4.19,7.31,1.81,9.57s-5.86,1.53-9.48-2.29Zm6.18-5.86c-3.17-3.33-5.39-3.8-6.79-2.48-1.41,1.34-1.06,3.59,2.1,6.92,3.17,3.33,5.47,3.88,6.88,2.54,1.39-1.32,.97-3.65-2.2-6.99Z"/>
        <path class="cls-13" d="M765.58,368.15c.37-6.84,.46-10.81-1.31-12.68-1.23-1.29-2.84-1.52-4.37-.07-1.01,.96-1.3,2.39-1.26,3.78l-1.66,.03c.02-1.99,.43-3.68,1.99-5.17,2.2-2.09,4.83-2.07,6.74-.06,2.03,2.14,2,6.2,1.86,11.74,.59-.65,1.27-1.42,1.91-2.02l3.47-3.3,1.2,1.26-7.74,7.35-.82-.86Z"/>
        <path class="cls-13" d="M775.3,358.25l2.74-2.6-7.97-8.39-2.18,2.07-.89-.94c.92-1.21,1.46-2.23,1.76-3.25l1.17-1.12,9.65,10.17,2.47-2.34,1.15,1.21-6.75,6.41-1.15-1.21Z"/>
        <path class="cls-13" d="M777.49,334.39l1.11-1.05,9.72,20.29-1.13,1.07-9.7-20.31Z"/>
        <path class="cls-13" d="M791.2,343.16l2.74-2.6-7.97-8.39-2.18,2.07-.89-.94c.92-1.21,1.46-2.23,1.76-3.25l1.17-1.12,9.65,10.17,2.47-2.34,1.15,1.21-6.75,6.41-1.15-1.21Z"/>
        <path class="cls-13" d="M800.12,335.36c.37-6.84,.46-10.81-1.31-12.68-1.23-1.29-2.84-1.52-4.37-.07-1.01,.96-1.3,2.39-1.26,3.78l-1.66,.03c.02-1.99,.43-3.68,1.99-5.17,2.2-2.09,4.83-2.07,6.74-.06,2.03,2.14,2,6.2,1.86,11.74,.59-.65,1.27-1.42,1.91-2.02l3.48-3.3,1.2,1.26-7.74,7.35-.82-.86Z"/>
      </g>
      <g>
        <path class="cls-13" d="M806.56,385.84c.37-6.84,.46-10.81-1.31-12.68-1.23-1.29-2.85-1.52-4.37-.07-1.01,.96-1.3,2.39-1.26,3.78l-1.66,.03c.02-1.99,.43-3.68,1.99-5.17,2.2-2.09,4.83-2.07,6.74-.06,2.03,2.14,2,6.2,1.86,11.74,.59-.65,1.27-1.42,1.91-2.02l3.48-3.3,1.2,1.26-7.74,7.35-.82-.86Z"/>
        <path class="cls-13" d="M811.35,372.05c-3.62-3.81-4.1-7.24-1.72-9.51s5.78-1.58,9.39,2.22c3.62,3.81,4.19,7.31,1.81,9.57s-5.86,1.53-9.48-2.29Zm6.18-5.86c-3.17-3.33-5.39-3.8-6.79-2.48-1.41,1.34-1.06,3.59,2.1,6.92,3.17,3.33,5.47,3.88,6.88,2.54,1.39-1.32,.97-3.65-2.2-6.99Z"/>
        <path class="cls-13" d="M825.2,368.15c.37-6.84,.46-10.81-1.31-12.68-1.23-1.29-2.84-1.52-4.37-.07-1.01,.96-1.3,2.39-1.26,3.78l-1.66,.03c.02-1.99,.43-3.68,1.99-5.17,2.2-2.09,4.83-2.07,6.74-.06,2.03,2.14,2,6.2,1.86,11.74,.59-.65,1.27-1.42,1.91-2.02l3.47-3.3,1.2,1.26-7.74,7.35-.82-.86Z"/>
        <path class="cls-13" d="M834.52,359.3c.37-6.84,.46-10.81-1.31-12.68-1.23-1.29-2.84-1.52-4.37-.07-1.01,.96-1.3,2.39-1.26,3.78l-1.66,.03c.02-1.99,.43-3.68,1.99-5.17,2.2-2.09,4.83-2.07,6.74-.06,2.03,2.14,2,6.2,1.86,11.74,.59-.65,1.27-1.42,1.91-2.02l3.47-3.3,1.2,1.26-7.74,7.35-.82-.86Z"/>
        <path class="cls-13" d="M837.11,334.39l1.11-1.05,9.72,20.29-1.13,1.07-9.7-20.31Z"/>
        <path class="cls-13" d="M845.88,339.26c-3.62-3.81-4.1-7.24-1.71-9.51s5.78-1.58,9.39,2.22c3.62,3.81,4.19,7.31,1.81,9.57s-5.86,1.53-9.48-2.29Zm6.18-5.86c-3.17-3.33-5.39-3.8-6.79-2.48-1.41,1.34-1.06,3.59,2.1,6.92,3.17,3.33,5.47,3.88,6.88,2.54,1.39-1.32,.97-3.65-2.2-6.99Z"/>
        <path class="cls-13" d="M859.74,335.36c.37-6.84,.46-10.81-1.31-12.68-1.23-1.29-2.84-1.52-4.37-.07-1.01,.96-1.3,2.39-1.26,3.78l-1.66,.03c.02-1.99,.43-3.68,1.99-5.17,2.2-2.09,4.83-2.07,6.74-.06,2.03,2.14,2,6.2,1.86,11.74,.59-.65,1.27-1.42,1.91-2.02l3.48-3.3,1.2,1.26-7.74,7.35-.82-.86Z"/>
      </g>
      <g>
        <path class="cls-13" d="M866.85,386.78c.37-6.84,.46-10.81-1.31-12.68-1.23-1.29-2.85-1.52-4.37-.07-1.01,.96-1.3,2.39-1.26,3.78l-1.66,.03c.02-1.99,.43-3.68,1.99-5.17,2.2-2.09,4.83-2.07,6.74-.06,2.03,2.14,2,6.2,1.86,11.74,.59-.65,1.27-1.42,1.91-2.02l3.48-3.3,1.2,1.26-7.74,7.35-.82-.86Z"/>
        <path class="cls-13" d="M871.63,372.99c-3.62-3.81-4.1-7.24-1.72-9.51s5.78-1.58,9.39,2.22c3.62,3.81,4.19,7.31,1.81,9.57s-5.86,1.53-9.48-2.29Zm6.18-5.86c-3.17-3.33-5.39-3.8-6.79-2.48-1.41,1.34-1.06,3.59,2.1,6.92,3.17,3.33,5.47,3.88,6.88,2.54,1.39-1.32,.97-3.65-2.2-6.99Z"/>
        <path class="cls-13" d="M885.49,369.09c.37-6.84,.46-10.81-1.31-12.68-1.23-1.29-2.84-1.52-4.37-.07-1.01,.96-1.3,2.39-1.26,3.78l-1.66,.03c.02-1.99,.43-3.68,1.99-5.17,2.2-2.09,4.83-2.07,6.74-.06,2.03,2.14,2,6.2,1.86,11.74,.59-.65,1.27-1.42,1.91-2.02l3.47-3.3,1.2,1.26-7.74,7.35-.82-.86Z"/>
        <path class="cls-13" d="M894.81,360.24c.37-6.84,.46-10.81-1.31-12.68-1.23-1.29-2.84-1.52-4.37-.07-1.01,.96-1.3,2.39-1.26,3.78l-1.66,.03c.02-1.99,.43-3.68,1.99-5.17,2.2-2.09,4.83-2.07,6.74-.06,2.03,2.14,2,6.2,1.86,11.74,.59-.65,1.27-1.42,1.91-2.02l3.47-3.3,1.2,1.26-7.74,7.35-.82-.86Z"/>
        <path class="cls-13" d="M897.4,335.33l1.11-1.05,9.72,20.29-1.13,1.07-9.7-20.31Z"/>
        <path class="cls-13" d="M906.17,340.2c-3.62-3.81-4.1-7.24-1.71-9.51s5.78-1.58,9.39,2.22c3.62,3.81,4.19,7.31,1.81,9.57s-5.86,1.53-9.48-2.29Zm6.18-5.86c-3.17-3.33-5.39-3.8-6.79-2.48-1.41,1.34-1.06,3.59,2.1,6.92,3.17,3.33,5.47,3.88,6.88,2.54,1.39-1.32,.97-3.65-2.2-6.99Z"/>
        <path class="cls-13" d="M922.83,329.3l-5.37,5.1-.91-.96-1.79-12.14,1.7-1.61,6.71,7.07,1.63-1.55,1.11,1.17-1.63,1.55,2.98,3.14-1.44,1.37-2.98-3.14Zm-1.11-1.17l-3.17-3.33c-.56-.59-1.43-1.61-1.98-2.25l-.07,.06c.21,.83,.35,1.64,.52,2.54l.91,6.57,3.78-3.59Z"/>
      </g>
      <g>
        <path class="cls-13" d="M926.67,386.93c.37-6.84,.46-10.81-1.31-12.68-1.23-1.29-2.85-1.52-4.37-.07-1.01,.96-1.3,2.39-1.26,3.78l-1.66,.03c.02-1.99,.43-3.68,1.99-5.17,2.2-2.09,4.83-2.07,6.74-.06,2.03,2.14,2,6.2,1.86,11.74,.59-.65,1.27-1.42,1.91-2.02l3.48-3.3,1.2,1.26-7.74,7.35-.82-.86Z"/>
        <path class="cls-13" d="M931.45,373.13c-3.62-3.81-4.1-7.24-1.72-9.51s5.78-1.58,9.39,2.22c3.62,3.81,4.19,7.31,1.81,9.57s-5.86,1.53-9.48-2.29Zm6.18-5.86c-3.17-3.33-5.39-3.8-6.79-2.48-1.41,1.34-1.06,3.59,2.1,6.92,3.17,3.33,5.47,3.88,6.88,2.54,1.39-1.32,.97-3.65-2.2-6.99Z"/>
        <path class="cls-13" d="M945.31,369.23c.37-6.84,.46-10.81-1.31-12.68-1.23-1.29-2.84-1.52-4.37-.07-1.01,.96-1.3,2.39-1.26,3.78l-1.66,.03c.02-1.99,.43-3.68,1.99-5.17,2.2-2.09,4.83-2.07,6.74-.06,2.03,2.14,2,6.2,1.86,11.74,.59-.65,1.27-1.42,1.91-2.02l3.47-3.3,1.2,1.26-7.74,7.35-.82-.86Z"/>
        <path class="cls-13" d="M954.63,360.39c.37-6.84,.46-10.81-1.31-12.68-1.23-1.29-2.84-1.52-4.37-.07-1.01,.96-1.3,2.39-1.26,3.78l-1.66,.03c.02-1.99,.43-3.68,1.99-5.17,2.2-2.09,4.83-2.07,6.74-.06,2.03,2.14,2,6.2,1.86,11.74,.59-.65,1.27-1.42,1.91-2.02l3.47-3.3,1.2,1.26-7.74,7.35-.82-.86Z"/>
        <path class="cls-13" d="M957.22,335.47l1.11-1.05,9.72,20.29-1.13,1.07-9.7-20.31Z"/>
        <path class="cls-13" d="M965.99,340.34c-3.62-3.81-4.1-7.24-1.71-9.51s5.78-1.58,9.39,2.22c3.62,3.81,4.19,7.31,1.81,9.57s-5.86,1.53-9.48-2.29Zm6.18-5.86c-3.17-3.33-5.39-3.8-6.79-2.48-1.41,1.34-1.06,3.59,2.1,6.92,3.17,3.33,5.47,3.88,6.88,2.54,1.39-1.32,.97-3.65-2.2-6.99Z"/>
        <path class="cls-13" d="M975.85,331.9c-4.35-4.58-3.85-8.39-1.45-10.67,1.28-1.21,2.68-1.58,4.01-1.53v1.72c-1.01-.1-2.07,.27-2.8,.97-1.7,1.61-1.94,4.18,1.43,7.86-.06-1.61,.48-3.16,1.46-4.08,2.06-1.96,4.53-2.05,6.72,.26,2.08,2.19,1.86,5.18-.06,7-2.37,2.25-5.86,2.1-9.31-1.54Zm2.34-.49c2.31,2.03,4.37,2.35,5.88,.91,1.19-1.13,1.14-3-.29-4.51-1.39-1.47-3.03-1.71-4.5-.31-.77,.73-1.33,2.02-1.08,3.91Z"/>
      </g>
      <g>
        <path class="cls-13" d="M986.23,386.2c.37-6.84,.46-10.81-1.31-12.68-1.23-1.29-2.85-1.52-4.37-.07-1.01,.96-1.3,2.39-1.26,3.78l-1.66,.03c.02-1.99,.43-3.68,1.99-5.17,2.2-2.09,4.83-2.07,6.74-.06,2.03,2.14,2,6.2,1.86,11.74,.59-.65,1.27-1.42,1.91-2.02l3.48-3.3,1.2,1.26-7.74,7.35-.82-.86Z"/>
        <path class="cls-13" d="M991.01,372.4c-3.62-3.81-4.1-7.24-1.71-9.51,2.38-2.26,5.78-1.58,9.39,2.22,3.62,3.81,4.19,7.31,1.81,9.57-2.38,2.26-5.86,1.53-9.48-2.29Zm6.18-5.86c-3.17-3.33-5.39-3.8-6.79-2.48-1.41,1.34-1.06,3.59,2.1,6.92s5.47,3.88,6.88,2.54c1.39-1.32,.97-3.65-2.2-6.99Z"/>
        <path class="cls-13" d="M1004.87,368.5c.37-6.84,.46-10.81-1.31-12.68-1.23-1.29-2.84-1.52-4.37-.07-1.01,.96-1.3,2.39-1.26,3.78l-1.66,.03c.02-1.99,.43-3.68,1.99-5.17,2.2-2.09,4.83-2.07,6.74-.06,2.03,2.14,2,6.2,1.86,11.74,.59-.65,1.27-1.42,1.91-2.02l3.47-3.3,1.2,1.26-7.74,7.35-.82-.86Z"/>
        <path class="cls-13" d="M1014.19,359.66c.37-6.84,.46-10.81-1.31-12.68-1.23-1.29-2.85-1.52-4.37-.07-1.01,.96-1.3,2.39-1.26,3.78l-1.66,.03c.02-1.99,.43-3.68,1.99-5.17,2.2-2.09,4.83-2.07,6.74-.06,2.03,2.14,2,6.2,1.86,11.74,.59-.65,1.27-1.42,1.91-2.02l3.47-3.3,1.2,1.26-7.74,7.35-.82-.86Z"/>
        <path class="cls-13" d="M1016.78,334.75l1.11-1.05,9.72,20.29-1.13,1.07-9.71-20.31Z"/>
        <path class="cls-13" d="M1025.55,339.62c-3.62-3.81-4.1-7.24-1.71-9.51,2.38-2.26,5.78-1.58,9.39,2.22,3.62,3.81,4.19,7.31,1.81,9.57-2.38,2.26-5.86,1.53-9.48-2.29Zm6.18-5.86c-3.17-3.33-5.39-3.8-6.79-2.48-1.41,1.34-1.06,3.59,2.1,6.92,3.17,3.33,5.47,3.88,6.88,2.54,1.39-1.32,.97-3.65-2.2-6.99Z"/>
        <path class="cls-13" d="M1037.48,333.66c-1.41-1.48-1.24-3.59-.66-5.23l-.06-.06c-1.43,.27-3.01,.16-4.16-1.06-1.65-1.74-1.3-4.29,.62-6.11,2.1-1.99,4.55-1.96,6.24-.19,1.14,1.2,1.18,3.09,.96,4.31l.08,.08c1.63-.4,3.41-.57,4.85,.94,1.62,1.71,1.33,4.5-.98,6.7-2.27,2.15-5.17,2.42-6.88,.62Zm.74-11.32c-1.06-1.12-2.66-1.29-3.99-.03-1.14,1.08-1.28,2.58-.24,3.68,1.3,1.37,3.18,.69,5.13-.14,.15-1.48-.1-2.66-.91-3.51Zm5.63,5.36c-1.41-1.48-3.42-.58-5.79,.43-.41,1.52-.31,3.03,.68,4.08,1.18,1.25,3.14,1.12,4.62-.28,1.41-1.34,1.59-3.06,.49-4.23Z"/>
      </g>
      <polyline class="cls-6" points="82.52 271.52 112.08 266.04 174.59 284.99 203.03 275.51 235.93 280.77 262.9 275.51 292.46 297.1 322.77 293.32 348.54 303.18 403.11 303.18 442.52 288.02 474.99 303.85 531.2 297.1 592.59 277.41 618.42 288.8 678.23 284.94 709.3 288.85 771.43 282.02 799.49 297.87 860.88 288.02 890.63 291.7 945.76 294.84 1010.19 303.85 1038.23 292.57"/>
      <polyline class="cls-4" points="82.52 248.61 115.87 254.1 143.15 254.1 174.59 259.22 206.82 259.22 262.14 244.82 294.55 249.21 352.52 223.42 381 230.99 414.48 223.42 444.04 223.42 475.11 214.5 537.64 220.29 596.89 231.45 654.19 225.33 739.62 232.69 770.69 233.45 801.01 207.68 831.32 211.1 862.4 207.68 889.68 207.68 922.01 218.14 955.62 211.1 1008.67 207.68 1042.83 219.15"/>
      <polyline class="cls-7" points="82.52 175.85 112.84 179.64 144.67 179.64 174.59 160.69 204.54 152.35 262.14 152.35 293.97 120.52 325.81 129.62 352.33 125.1 382.04 109.36 412.21 99.52 440.25 95.51 473.14 103.61 561.77 76.57 591.07 93.24 621.39 82.1 651.7 93.24 679.74 93.24 712.71 104.29 741.05 106 772.21 118.25 799.49 106.88 890.44 154.63 923.79 168.1 951.07 168.1 1038.23 185.83"/>
      <polyline class="cls-5" points="82.52 99.83 143.91 87.18 174.59 90.21 204.54 106.12 230.31 106.12 294.73 131.2 350.96 138.86 379.62 149.32 410.69 168.1 441.01 185.52 472.84 173.58 560.37 203.89 592.03 192.74 658.66 189.64 682.02 185.83 712.33 168.1 741.63 171.83 772.16 160.81 799.49 178.88 831.32 168.1 860.12 159.93 889.68 131.2 920.75 117.49 948.8 120.52 979.41 108.67 1009.43 105.37 1038.23 95.51"/>
    </g>
  </g>
</svg>