<?xml version="1.0" encoding="UTF-8"?>
<svg id="_圖層_4" data-name="圖層 4" xmlns="http://www.w3.org/2000/svg" xmlns:xlink="http://www.w3.org/1999/xlink" viewBox="0 0 1066.14 408.39">
  <defs>
    <style>
      .cls-1 {
        fill: #fff;
      }

      .cls-2 {
        stroke: #000;
      }

      .cls-2, .cls-3 {
        stroke-miterlimit: 10;
      }

      .cls-2, .cls-3, .cls-4, .cls-5 {
        fill: none;
      }

      .cls-3 {
        stroke: #005598;
      }

      .cls-4 {
        stroke: #c31b31;
        stroke-dasharray: 0 15;
        stroke-width: 3px;
      }

      .cls-4, .cls-5 {
        stroke-linecap: round;
        stroke-linejoin: round;
      }

      .cls-5 {
        stroke: #2b2b2b;
      }

      .cls-6 {
        fill: #005598;
      }

      .cls-7 {
        fill: #c31b31;
      }

      .cls-8 {
        fill: #231815;
      }

      .cls-9 {
        fill: url(#_未命名漸層_19);
      }
    </style>
    <linearGradient id="_未命名漸層_19" data-name="未命名漸層 19" x1="504.82" y1="397.86" x2="504.82" y2="29.52" gradientUnits="userSpaceOnUse">
      <stop offset=".19" stop-color="#c9caca"/>
      <stop offset="1" stop-color="#dcdddd"/>
    </linearGradient>
  </defs>
  <line class="cls-2" x1="568.17" y1="396.94" x2="568.17" y2="393.14"/>
  <line class="cls-2" x1="722.34" y1="257.12" x2="722.34" y2="253.32"/>
  <g>
    <path class="cls-9" d="M0,233.9l.88-1.14,.88-2.4,.63,1.77v1.77l1.39-1.77v1.77l1.14-1.77,1.01,1.77v-1.77l1.14,.51,.51-2.27,.88-2.15,1.01,1.14v-1.14l1.01,1.01,1.01-1.89h.76v-1.01l1.39,1.52,1.26-.13v-2.02l.63-2.02,1.01-1.64v2.15l1.01-3.28,.88,1.14,.63-1.14,.76,2.02,.76-1.39,.76,1.39,.76-1.01,1.01,2.4,.76-1.39v2.65l.88-.38v6.95l.76-1.77,1.01-2.02,1.26,.63,.51-1.58,.76,1.83,1.14-1.83,1.01,.95v6.32l1.26-2.27,.76-2.4,.63-1.64,.76-2.65,.76-2.53,.51-2.27,1.14-1.01v-1.52l1.26,2.27,1.01,.38,.63-1.26,1.01-1.39,1.14-2.4,.88-1.64,1.01,1.14,.41-.61,.35-.52h1.52v1.01l1.77-1.01v1.14l1.52-1.14,.63,1.89,1.14-1.89v2.78l1.39-1.01v1.77l.76,1.77v13.52l.76-3.03v4.55h1.01v12.38l.76-4.8v7.07l1.26-1.89v2.91l1.14-1.39v19.58l.76-2.4,1.14,4.93v-18.57l1.14,2.27,.51-2.27,.63,2.78,.63,8.72,1.01-16.67,.88-2.78v20.34l1.01-9.47v9.35l1.26-3.28,.88,35.24,.63-30.69,.63,29.68,1.39-15.28,2.27,51.41,1.01-15.92,.88-14.02,1.01-1.77v44.59l1.52-19.07,1.14,18.06,.63-11.12,1.14,10.99,.88-1.89,2.91,23.12,1.39-29.43,.88,1.26,1.89-24.25,2.02,11.75,1.39-11.12,.76,17.81,1.01-15.54,.88,18.95,1.52-7.96,.76,5.56,.63-6.44,1.01,5.81v-22.61l1.14,2.65,1.52-8.46,.63,6.44v-12.63l1.26,4.8,.63-10.23,1.26,4.29,1.52-11.37,1.64,9.35,1.26-1.77,1.64-11.87,1.39,7.96,1.01-3.16,.63,14.15,1.39-8.21,1.26,1.39,1.14-4.42,.88-.13,.63-4.8,.88,.63v-3.41l1.89,2.27,1.52-10.86,.76,3.92,1.39-1.26v13.26l1.39-2.78,.76,1.77,1.14-4.17,1.01,1.89,1.01-2.53,.63,1.77,.88-5.05,.88,1.39,.88-6.57,1.39,3.28,1.14,10.74,.63-8.46,.63,9.47,1.52-4.8,1.39,.63v-2.4l1.14,.25v-11.87l2.15,4.04,1.52-6.19,1.39,3.79,1.52-2.4,1.26,.38v-5.05l1.14-3.16v-1.64l2.02,.76,1.64-1.64,1.14,.13,1.39-3.66h1.26v-5.05l1.52-1.01,1.14,.38v-7.96l2.15-4.29,.76-3.92,1.01,4.29,2.15,1.64,1.01,26.27,1.14-5.81,.88-.63v-2.65l1.77,.63v-5.05l.88-4.93,1.77,3.16,1.52,1.26,1.52-.51,.63-2.15,1.89-2.4,1.39,1.64v10.48l1.64-4.55v5.81l2.15,4.04,.76-3.54,.88-7.58,1.01-2.15,1.14-1.77,1.77-1.26,1.39-6.44,1.26,3.41,.63-2.78,1.77,2.4,1.26-2.78v-1.39l3.41,3.92v-2.91l1.89-6.69,2.4,2.27,1.39-3.03,.88-1.89,2.02-.76,.76-3.03,1.26,3.54,1.39,5.18,1.64-4.17,1.52,4.04v-4.17l1.89,2.91v-4.8l2.27,2.53v-4.17l1.52-1.01,.88-2.78,1.01,.13,1.52-2.78,1.01-.76,.88-2.53,2.27-1.26,2.27,.38,.88,2.78,.76-6.44,1.52,1.77,2.02-1.26,1.39-2.15,2.15,1.52,2.02-.51,1.52-2.15,1.26-4.42h1.01l1.52-3.66,1.77-3.16,1.64-2.65,2.15-.63,1.14-3.92,1.39-9.73,1.01,18.19,.63,4.17v-5.56l1.39,7.33,.88-1.14,.63,14.78,1.77-8.84,1.39,8.21,1.52,.25,.76-6.69,1.64-5.31,1.26,4.8,1.52,3.16,2.27,6.06,1.52,4.93,1.39-4.04,1.77,10.11,1.77-1.14,1.64-13.77,1.64,1.14,1.01-1.77,1.52,.63v-3.28l2.65,.38,1.01,2.91,.51-8.34,1.89,6.44v-4.8l1.89-3.41v-3.03l1.14-3.03,.88-2.27,1.64-3.92v-2.4l1.89,4.04v2.65l2.78,.38,1.39,.51v3.16l1.26,2.78,2.4,.38,1.26-1.89,2.02-2.02,.76-.63,1.52,3.92-.63,3.92,1.89,2.53,.88,3.03,.63,5.31v5.05l2.4,1.89,1.89-1.77,.76-3.54,.88-5.05,.76-4.42v-10.61l1.39-5.81,1.14,1.64v-2.53l2.4,.38v-3.79l1.52-1.01,.88-2.78,1.77,3.03,1.14-.38,1.52-7.07,1.52-3.79,1.52,3.41,.76,3.66,.63,1.01h2.27l.63,.88,1.26-1.52v-5.05l1.64-2.4h4.8l.63-2.02,1.39-1.89,2.78-1.01,.63-2.65,1.26-.88h2.02l1.39,2.4,1.01,1.89,2.27,1.01,1.77,1.52v-3.03l.63-2.27,2.02-1.52,1.26-2.91v-2.15l1.52,3.79,2.65,2.27,1.01,1.01,2.78-.51v-2.53l.63-2.15,1.01-1.89,2.78,.63,1.14-.63,1.01-2.4,.63,4.8v1.14l1.77-1.39,1.14-2.53,.76-3.03,1.01-3.92,.76-3.03v-1.01h1.77v2.15l2.15,.88,.76-.88,1.64,1.26,.88,2.53,1.01,1.64,.88-2.15,1.26-3.16v-3.28l.63-2.65h3.92l3.41,.76-.63,3.79v4.55l.63,3.54,1.39-4.42,.88,4.8,.88,3.41,.76,1.89,1.01-9.98,.76-4.29,1.26-1.64,1.14-1.77v-2.02l1.39-1.64,1.01-2.4,1.14-2.15,.76-1.14h2.91l2.53-1.01v-1.77l3.16,.88,2.02,1.77,1.01,2.15,1.77,2.53,1.39,.88,1.89-6.69,.63,9.47v5.31l2.27-1.39,.88-9.85,1.26,2.53,.88,3.66,1.26,4.8v3.41l1.14,2.53,1.26-1.01v-8.46l2.15,1.64,.76-1.64,1.01-2.78v-3.41l1.39-2.02,.76-2.78,1.26-2.27,1.52-2.27,2.27-1.14h2.91v7.96l1.77-.63,.63-3.54,1.39,1.26,.63,2.15,1.52,2.53,2.53-.38v-7.2l.51-2.15h2.65v1.14l2.15,.25v-4.04l1.26-2.02,.88-2.27v-3.28l.63-3.79h1.89l2.4-2.02,1.52-1.89v-2.15l2.4-1.39h3.79v-6.57h1.26l2.4,2.91v2.65l2.78,1.01v-5.56l1.26,3.79,1.77-4.8h3.54l.76-1.39,.63-1.52h2.4l1.39,2.91,.76-.13,2.65,3.16,.63-3.03,.51-2.91,1.14-2.78h1.01v2.78l1.14,3.16v3.66l1.89,2.15,.24,5.56,.52,4.17,1.01-.63v-3.41l.76-3.79v-3.28l1.14-3.79,1.01,2.02,1.39,3.16,.88,2.02,.63,.63,.81-.25,.96-2.02v-1.64l2.15-.38,1.13-2.02v-3.54l2.65-.13,1.89-.88,3.41,.63,3.16-.25,1.01-3.92,4.17,.63,1.26-.63,.88-1.89,1.14-1.01h3.03v2.02l1.01,1.14,1.26,1.39,1.26,.63v1.64l.63,1.89,.63,2.15,1.39,.38,.12-7.33v-1.77l2.16-.63,1.39-1.52,1.39-1.26,1.14-2.27,1.14-.88h1.89l1.01-2.65,1.52-1.77,1.89-1.14v-2.4l1.01-1.39h.88l1.39,1.01v1.77l.76,.51,1.01-.25v-1.52l.88-1.52v-3.03h3.16l1.52,1.01,2.53,1.14,.12,2.53,.25,3.66v1.39l.52,2.4v1.77l.63,1.89,1.01-1.39v-6.32l1.14-2.65,.88-2.53,.63-.76,1.14-1.52v-2.4l1.14-2.15,1.26-2.02,1.14,1.39,.63,.88,.88,1.39,1.14-1.14v-1.01h.88l1.77,.88,.88,1.52,1.64-.38v-3.54l1.14,1.01,1.39,1.39,1.77-1.26v-1.77l3.03-1.39h1.01l1.52-1.01,2.15-2.02,1.52-1.89h1.64v2.53l.63,2.4,1.01,2.78v.88l2.27-.25,.88-2.4,.63-3.92v-2.02l1.39-1.77,1.39-.88,2.27,1.01,1.26,.51v-3.54l2.4-1.89h1.89l3.03-1.52h.88l1.01,1.39,1.77,1.77,.76,1.77,1.64,3.03,1.52,1.26h2.02l1.39-1.89,1.64,.63v1.39l.88,1.52v2.02h1.26v5.68l1.01,1.77v3.03l1.26-.13,1.39-1.77,.63-3.28v-2.15l1.77-2.53v-2.4l1.26-.13,1.39,.88v1.77l.76,2.27v7.33l1.89,.63,1.01,3.41-.11,2.53,1.24-.13,.63-2.02,.76-4.67,.63,2.02,.76,3.16v2.27l1.01-1.14v-4.04l1.77-2.4,1.01-1.89,1.14-2.78v-1.14l1.52,2.27,.63,1.64v2.4l.63,1.64,1.52-.13,1.01-.88v-3.28l.88-3.41v-3.41l1.26-2.78v-1.77l1.39-1.89,.88-1.89,1.01-1.77,1.64-3.03,1.01-1.64,2.02-1.26s2.15-.88,2.4-1.26,1.77-2.15,1.77-2.15l1.52,1.26,1.01-3.41,2.53-1.39,.76-1.26,.88-1.39,.76-1.14,1.77-2.27v-2.91l2.02-2.65,2.02-1.01,1.26,1.26v5.94l2.4,.51,1.14-1.26,.76-1.39v-1.39l1.64-1.01,1.01-1.14,.63-.63,2.27-.25,1.77-1.26,1.77,1.26,1.64-.13h2.78l-.76,2.4v1.26l.13,3.28v1.89l-.13,2.78,.13,1.14,1.52-2.27v-4.29l.76,.25,.63,4.17v7.33l1.39-4.29v10.11l1.52-4.55v3.66l1.01-6.06,1.01,3.28,1.26-.51v-9.85l1.64,6.82,.76-15.54,1.39-1.39,1.26,3.03v2.02l1.26-1.39v-4.93h1.14l1.26,9.35h1.39l1.14-9.35h.76v10.23l1.89-4.55,.63,9.73,.76,3.92,1.26-.76,1.01-13.01,1.77-7.07,1.39-3.66v-5.43h5.05l.76,2.27v1.39l1.64,.88,.76-4.55h2.15l1.01,10.99,.76,2.15,1.52,1.39,1.26,.76,1.64-.38v-3.16l1.26-2.15,1.64-.38v5.94l.63,2.02,1.01,.51,1.64,.38,1.26,13.01,.88,1.77,1.39,2.15,.76,15.92h2.02l1.39,.25v3.28l.76,1.89,.63,2.15,1.14,1.26,1.89,1.14,.88-4.17v-10.23l1.52-5.18v-4.17l1.14-3.41v-2.02l1.39-3.16v-1.89l1.64,3.41v6.69l.63,2.02v1.64l2.4,.13,1.39-2.15v-4.67l.76-2.4v-4.04l1.26-.76,.88,3.54v12l.63,4.42v2.27l.63,1.39,1.64,.38,.76-1.52,.63-5.56v-1.52l2.15,.25,1.14,11.75,.88,2.78,1.14,2.53,1.26,3.16v6.19l.88,4.04v2.15l2.27-1.01v-4.67l.76-4.93,.76-10.74,1.77,.51v9.35l1.77-.51,1.14-9.98,1.52,.63v2.4l.76,3.92,.88,3.66,.88,15.28,1.26,2.78,1.26-.51,.63-13.39,1.01,.13,3.03,13.77,1.52-.63,1.77-25.14,1.39-4.67,1.26-5.43,1.39-2.65,1.01-2.27,.88-3.79,1.01-.25v7.33l1.89-.13v-8.46l1.77-3.28,1.52-1.77,.88-1.89v-3.54l.76-2.15,1.26-.13,1.52,11.24,1.52-.38,1.39-6.82,1.01,.51,1.01,11.24v2.02l1.89-1.01,.63-2.02,1.39,.76,.63,1.01,.76,1.14v9.6l1.52,.88,1.26-.63,.76-5.31,1.14,.63v7.07l2.15-1.01,.88-8.21,1.64,.13,1.01,6.82,1.77,18.19,1.89-.13v-3.54l1.52,.51v15.66h1.26l.76-14.65h1.26l1.01,20.08,1.77-.76,1.52-3.92,1.14-17.31,1.14,.25,1.14,20.97,1.77,1.26v17.94l2.15-.13,1.89,8.59,1.52-.63v-12l2.53,.25,1.52-8.97,1.14,.13,.88,23.87,1.26,1.64h1.77v-4.17l1.01-4.17v-2.02l1.89-.25,1.14,2.4,3.28-25.52,1.26,.13,.88,6.69,2.15-1.01v-7.83l1.26-.13v8.08l3.16-6.95,1.26,1.64,4.8,52.93,1.26,1.01,1.39-.88v-5.81l1.26-.13v15.41l3.28-.76v-12.63h2.15l2.4-18.32,1.39-.13,2.15,12,1.26,2.53,1.26,2.27,1.39-.51v-3.79l1.77-1.64,1.39-1.39,.76-2.4v-3.03l1.26-1.89h1.77l2.27,10.61,1.77,2.53,1.77,.88v-9.09l1.77,.13,2.02,3.41v-13.89l3.41-6.95,2.02,3.28,1.14,2.02,1.26,4.67,1.64-.13v-16.8l1.52-7.07,.76-4.04,1.01-1.01,1.14,1.52,1.26,4.93,1.52-.25v-7.71l2.53-.51,1.39,.88v1.89l1.77,1.52,1.01-.13v-11.12l4.17-1.89v-2.15l-.76-3.66,.13-2.78,3.28-2.53,1.14-.38,2.78,2.4,2.02,7.58,.76,13.64,2.53,.13,1.14-9.73,2.4,.13-.63,20.46,1.39,.88,1.39,3.16,.76,5.81,.76,1.64V397.86H0V233.9Z"/>
    <path class="cls-5" d="M0,233.9l.88-1.14,.88-2.4,.63,1.77v1.77l1.39-1.77v1.77l1.14-1.77,1.01,1.77v-1.77l1.14,.51,.51-2.27,.88-2.15,1.01,1.14v-1.14l1.01,1.01,1.01-1.89h.76v-1.01l1.39,1.52,1.26-.13v-2.02l.63-2.02,1.01-1.64v2.15l1.01-3.28,.88,1.14,.63-1.14,.76,2.02,.76-1.39,.76,1.39,.76-1.01,1.01,2.4,.76-1.39v2.65l.88-.38v6.95l.76-1.77,1.01-2.02,1.26,.63,.51-1.58,.76,1.83,1.14-1.83,1.01,.95v6.32l1.26-2.27,.76-2.4,.63-1.64,.76-2.65,.76-2.53,.51-2.27,1.14-1.01v-1.52l1.26,2.27,1.01,.38,.63-1.26,1.01-1.39,1.14-2.4,.88-1.64,1.01,1.14,.41-.61,.35-.52h1.52v1.01l1.77-1.01v1.14l1.52-1.14,.63,1.89,1.14-1.89v2.78l1.39-1.01v1.77l.76,1.77v13.52l.76-3.03v4.55h1.01v12.38l.76-4.8v7.07l1.26-1.89v2.91l1.14-1.39v19.58l.76-2.4,1.14,4.93v-18.57l1.14,2.27,.51-2.27,.63,2.78,.63,8.72,1.01-16.67,.88-2.78v20.34l1.01-9.47v9.35l1.26-3.28,.88,35.24,.63-30.69,.63,29.68,1.39-15.28,2.27,51.41,1.01-15.92,.88-14.02,1.01-1.77v44.59l1.52-19.07,1.14,18.06,.63-11.12,1.14,10.99,.88-1.89,2.91,23.12,1.39-29.43,.88,1.26,1.89-24.25,2.02,11.75,1.39-11.12,.76,17.81,1.01-15.54,.88,18.95,1.52-7.96,.76,5.56,.63-6.44,1.01,5.81v-22.61l1.14,2.65,1.52-8.46,.63,6.44v-12.63l1.26,4.8,.63-10.23,1.26,4.29,1.52-11.37,1.64,9.35,1.26-1.77,1.64-11.87,1.39,7.96,1.01-3.16,.63,14.15,1.39-8.21,1.26,1.39,1.14-4.42,.88-.13,.63-4.8,.88,.63v-3.41l1.89,2.27,1.52-10.86,.76,3.92,1.39-1.26v13.26l1.39-2.78,.76,1.77,1.14-4.17,1.01,1.89,1.01-2.53,.63,1.77,.88-5.05,.88,1.39,.88-6.57,1.39,3.28,1.14,10.74,.63-8.46,.63,9.47,1.52-4.8,1.39,.63v-2.4l1.14,.25v-11.87l2.15,4.04,1.52-6.19,1.39,3.79,1.52-2.4,1.26,.38v-5.05l1.14-3.16v-1.64l2.02,.76,1.64-1.64,1.14,.13,1.39-3.66h1.26v-5.05l1.52-1.01,1.14,.38v-7.96l2.15-4.29,.76-3.92,1.01,4.29,2.15,1.64,1.01,26.27,1.14-5.81,.88-.63v-2.65l1.77,.63v-5.05l.88-4.93,1.77,3.16,1.52,1.26,1.52-.51,.63-2.15,1.89-2.4,1.39,1.64v10.48l1.64-4.55v5.81l2.15,4.04,.76-3.54,.88-7.58,1.01-2.15,1.14-1.77,1.77-1.26,1.39-6.44,1.26,3.41,.63-2.78,1.77,2.4,1.26-2.78v-1.39l3.41,3.92v-2.91l1.89-6.69,2.4,2.27,1.39-3.03,.88-1.89,2.02-.76,.76-3.03,1.26,3.54,1.39,5.18,1.64-4.17,1.52,4.04v-4.17l1.89,2.91v-4.8l2.27,2.53v-4.17l1.52-1.01,.88-2.78,1.01,.13,1.52-2.78,1.01-.76,.88-2.53,2.27-1.26,2.27,.38,.88,2.78,.76-6.44,1.52,1.77,2.02-1.26,1.39-2.15,2.15,1.52,2.02-.51,1.52-2.15,1.26-4.42h1.01l1.52-3.66,1.77-3.16,1.64-2.65,2.15-.63,1.14-3.92,1.39-9.73,1.01,18.19,.63,4.17v-5.56l1.39,7.33,.88-1.14,.63,14.78,1.77-8.84,1.39,8.21,1.52,.25,.76-6.69,1.64-5.31,1.26,4.8,1.52,3.16,2.27,6.06,1.52,4.93,1.39-4.04,1.77,10.11,1.77-1.14,1.64-13.77,1.64,1.14,1.01-1.77,1.52,.63v-3.28l2.65,.38,1.01,2.91,.51-8.34,1.89,6.44v-4.8l1.89-3.41v-3.03l1.14-3.03,.88-2.27,1.64-3.92v-2.4l1.89,4.04v2.65l2.78,.38,1.39,.51v3.16l1.26,2.78,2.4,.38,1.26-1.89,2.02-2.02,.76-.63,1.52,3.92-.63,3.92,1.89,2.53,.88,3.03,.63,5.31v5.05l2.4,1.89,1.89-1.77,.76-3.54,.88-5.05,.76-4.42v-10.61l1.39-5.81,1.14,1.64v-2.53l2.4,.38v-3.79l1.52-1.01,.88-2.78,1.77,3.03,1.14-.38,1.52-7.07,1.52-3.79,1.52,3.41,.76,3.66,.63,1.01h2.27l.63,.88,1.26-1.52v-5.05l1.64-2.4h4.8l.63-2.02,1.39-1.89,2.78-1.01,.63-2.65,1.26-.88h2.02l1.39,2.4,1.01,1.89,2.27,1.01,1.77,1.52v-3.03l.63-2.27,2.02-1.52,1.26-2.91v-2.15l1.52,3.79,2.65,2.27,1.01,1.01,2.78-.51v-2.53l.63-2.15,1.01-1.89,2.78,.63,1.14-.63,1.01-2.4,.63,4.8v1.14l1.77-1.39,1.14-2.53,.76-3.03,1.01-3.92,.76-3.03v-1.01h1.77v2.15l2.15,.88,.76-.88,1.64,1.26,.88,2.53,1.01,1.64,.88-2.15,1.26-3.16v-3.28l.63-2.65h3.92l3.41,.76-.63,3.79v4.55l.63,3.54,1.39-4.42,.88,4.8,.88,3.41,.76,1.89,1.01-9.98,.76-4.29,1.26-1.64,1.14-1.77v-2.02l1.39-1.64,1.01-2.4,1.14-2.15,.76-1.14h2.91l2.53-1.01v-1.77l3.16,.88,2.02,1.77,1.01,2.15,1.77,2.53,1.39,.88,1.89-6.69,.63,9.47v5.31l2.27-1.39,.88-9.85,1.26,2.53,.88,3.66,1.26,4.8v3.41l1.14,2.53,1.26-1.01v-8.46l2.15,1.64,.76-1.64,1.01-2.78v-3.41l1.39-2.02,.76-2.78,1.26-2.27,1.52-2.27,2.27-1.14h2.91v7.96l1.77-.63,.63-3.54,1.39,1.26,.63,2.15,1.52,2.53,2.53-.38v-7.2l.51-2.15h2.65v1.14l2.15,.25v-4.04l1.26-2.02,.88-2.27v-3.28l.63-3.79h1.89l2.4-2.02,1.52-1.89v-2.15l2.4-1.39h3.79v-6.57h1.26l2.4,2.91v2.65l2.78,1.01v-5.56l1.26,3.79,1.77-4.8h3.54l.76-1.39,.63-1.52h2.4l1.39,2.91,.76-.13,2.65,3.16,.63-3.03,.51-2.91,1.14-2.78h1.01v2.78l1.14,3.16v3.66l1.89,2.15,.24,5.56,.52,4.17,1.01-.63v-3.41l.76-3.79v-3.28l1.14-3.79,1.01,2.02,1.39,3.16,.88,2.02,.63,.63,.81-.25,.96-2.02v-1.64l2.15-.38,1.13-2.02v-3.54l2.65-.13,1.89-.88,3.41,.63,3.16-.25,1.01-3.92,4.17,.63,1.26-.63,.88-1.89,1.14-1.01h3.03v2.02l1.01,1.14,1.26,1.39,1.26,.63v1.64l.63,1.89,.63,2.15,1.39,.38,.12-7.33v-1.77l2.16-.63,1.39-1.52,1.39-1.26,1.14-2.27,1.14-.88h1.89l1.01-2.65,1.52-1.77,1.89-1.14v-2.4l1.01-1.39h.88l1.39,1.01v1.77l.76,.51,1.01-.25v-1.52l.88-1.52v-3.03h3.16l1.52,1.01,2.53,1.14,.12,2.53,.25,3.66v1.39l.52,2.4v1.77l.63,1.89,1.01-1.39v-6.32l1.14-2.65,.88-2.53,.63-.76,1.14-1.52v-2.4l1.14-2.15,1.26-2.02,1.14,1.39,.63,.88,.88,1.39,1.14-1.14v-1.01h.88l1.77,.88,.88,1.52,1.64-.38v-3.54l1.14,1.01,1.39,1.39,1.77-1.26v-1.77l3.03-1.39h1.01l1.52-1.01,2.15-2.02,1.52-1.89h1.64v2.53l.63,2.4,1.01,2.78v.88l2.27-.25,.88-2.4,.63-3.92v-2.02l1.39-1.77,1.39-.88,2.27,1.01,1.26,.51v-3.54l2.4-1.89h1.89l3.03-1.52h.88l1.01,1.39,1.77,1.77,.76,1.77,1.64,3.03,1.52,1.26h2.02l1.39-1.89,1.64,.63v1.39l.88,1.52v2.02h1.26v5.68l1.01,1.77v3.03l1.26-.13,1.39-1.77,.63-3.28v-2.15l1.77-2.53v-2.4l1.26-.13,1.39,.88v1.77l.76,2.27v7.33l1.89,.63,1.01,3.41-.11,2.53,1.24-.13,.63-2.02,.76-4.67,.63,2.02,.76,3.16v2.27l1.01-1.14v-4.04l1.77-2.4,1.01-1.89,1.14-2.78v-1.14l1.52,2.27,.63,1.64v2.4l.63,1.64,1.52-.13,1.01-.88v-3.28l.88-3.41v-3.41l1.26-2.78v-1.77l1.39-1.89,.88-1.89,1.01-1.77,1.64-3.03,1.01-1.64,2.02-1.26s2.15-.88,2.4-1.26,1.77-2.15,1.77-2.15l1.52,1.26,1.01-3.41,2.53-1.39,.76-1.26,.88-1.39,.76-1.14,1.77-2.27v-2.91l2.02-2.65,2.02-1.01,1.26,1.26v5.94l2.4,.51,1.14-1.26,.76-1.39v-1.39l1.64-1.01,1.01-1.14,.63-.63,2.27-.25,1.77-1.26,1.77,1.26,1.64-.13h2.78l-.76,2.4v1.26l.13,3.28v1.89l-.13,2.78,.13,1.14,1.52-2.27v-4.29l.76,.25,.63,4.17v7.33l1.39-4.29v10.11l1.52-4.55v3.66l1.01-6.06,1.01,3.28,1.26-.51v-9.85l1.64,6.82,.76-15.54,1.39-1.39,1.26,3.03v2.02l1.26-1.39v-4.93h1.14l1.26,9.35h1.39l1.14-9.35h.76v10.23l1.89-4.55,.63,9.73,.76,3.92,1.26-.76,1.01-13.01,1.77-7.07,1.39-3.66v-5.43h5.05l.76,2.27v1.39l1.64,.88,.76-4.55h2.15l1.01,10.99,.76,2.15,1.52,1.39,1.26,.76,1.64-.38v-3.16l1.26-2.15,1.64-.38v5.94l.63,2.02,1.01,.51,1.64,.38,1.26,13.01,.88,1.77,1.39,2.15,.76,15.92h2.02l1.39,.25v3.28l.76,1.89,.63,2.15,1.14,1.26,1.89,1.14,.88-4.17v-10.23l1.52-5.18v-4.17l1.14-3.41v-2.02l1.39-3.16v-1.89l1.64,3.41v6.69l.63,2.02v1.64l2.4,.13,1.39-2.15v-4.67l.76-2.4v-4.04l1.26-.76,.88,3.54v12l.63,4.42v2.27l.63,1.39,1.64,.38,.76-1.52,.63-5.56v-1.52l2.15,.25,1.14,11.75,.88,2.78,1.14,2.53,1.26,3.16v6.19l.88,4.04v2.15l2.27-1.01v-4.67l.76-4.93,.76-10.74,1.77,.51v9.35l1.77-.51,1.14-9.98,1.52,.63v2.4l.76,3.92,.88,3.66,.88,15.28,1.26,2.78,1.26-.51,.63-13.39,1.01,.13,3.03,13.77,1.52-.63,1.77-25.14,1.39-4.67,1.26-5.43,1.39-2.65,1.01-2.27,.88-3.79,1.01-.25v7.33l1.89-.13v-8.46l1.77-3.28,1.52-1.77,.88-1.89v-3.54l.76-2.15,1.26-.13,1.52,11.24,1.52-.38,1.39-6.82,1.01,.51,1.01,11.24v2.02l1.89-1.01,.63-2.02,1.39,.76,.63,1.01,.76,1.14v9.6l1.52,.88,1.26-.63,.76-5.31,1.14,.63v7.07l2.15-1.01,.88-8.21,1.64,.13,1.01,6.82,1.77,18.19,1.89-.13v-3.54l1.52,.51v15.66h1.26l.76-14.65h1.26l1.01,20.08,1.77-.76,1.52-3.92,1.14-17.31,1.14,.25,1.14,20.97,1.77,1.26v17.94l2.15-.13,1.89,8.59,1.52-.63v-12l2.53,.25,1.52-8.97,1.14,.13,.88,23.87,1.26,1.64h1.77v-4.17l1.01-4.17v-2.02l1.89-.25,1.14,2.4,3.28-25.52,1.26,.13,.88,6.69,2.15-1.01v-7.83l1.26-.13v8.08l3.16-6.95,1.26,1.64,4.8,52.93,1.26,1.01,1.39-.88v-5.81l1.26-.13v15.41l3.28-.76v-12.63h2.15l2.4-18.32,1.39-.13,2.15,12,1.26,2.53,1.26,2.27,1.39-.51v-3.79l1.77-1.64,1.39-1.39,.76-2.4v-3.03l1.26-1.89h1.77l2.27,10.61,1.77,2.53,1.77,.88v-9.09l1.77,.13,2.02,3.41v-13.89l3.41-6.95,2.02,3.28,1.14,2.02,1.26,4.67,1.64-.13v-16.8l1.52-7.07,.76-4.04,1.01-1.01,1.14,1.52,1.26,4.93,1.52-.25v-7.71l2.53-.51,1.39,.88v1.89l1.77,1.52,1.01-.13v-11.12l4.17-1.89v-2.15l-.76-3.66,.13-2.78,3.28-2.53,1.14-.38,2.78,2.4,2.02,7.58,.76,13.64,2.53,.13,1.14-9.73,2.4,.13-.63,20.46,1.39,.88,1.39,3.16,.76,5.81,.76,1.64"/>
  </g>
  <line class="cls-2" x1=".82" y1="397.94" x2="1026.07" y2="397.94"/>
  <line class="cls-2" x1=".82" y1="397.94" x2=".82" y2="385.14"/>
  <line class="cls-2" x1="284.59" y1="397.94" x2="284.59" y2="394.14"/>
  <line class="cls-2" x1="252.38" y1="397.94" x2="252.38" y2="394.14"/>
  <line class="cls-2" x1="221.3" y1="397.94" x2="221.3" y2="394.14"/>
  <line class="cls-2" x1="158.29" y1="397.94" x2="158.29" y2="394.14"/>
  <line class="cls-2" x1="95.33" y1="397.94" x2="95.33" y2="394.14"/>
  <line class="cls-2" x1="32.33" y1="397.94" x2="32.33" y2="394.14"/>
  <line class="cls-2" x1="1023.84" y1="397.86" x2="1023.84"/>
  <line class="cls-2" x1="1023.84" y1="397.86" x2="1036.63" y2="397.86"/>
  <line class="cls-2" x1="1023.84" y1="71.64" x2="1036.63" y2="71.64"/>
  <line class="cls-2" x1="1023.84" y1="39.39" x2="1027.63" y2="39.39"/>
  <line class="cls-2" x1="1023.84" y1="136.93" x2="1036.63" y2="136.93"/>
  <line class="cls-2" x1="1023.84" y1="103.67" x2="1027.63" y2="103.67"/>
  <line class="cls-2" x1="1023.84" y1="202.11" x2="1036.63" y2="202.11"/>
  <line class="cls-2" x1="1023.84" y1="168.85" x2="1027.63" y2="168.85"/>
  <line class="cls-2" x1="1023.84" y1="267.39" x2="1036.63" y2="267.39"/>
  <line class="cls-2" x1="1023.84" y1="233.13" x2="1027.63" y2="233.13"/>
  <line class="cls-2" x1="1023.84" y1="333.91" x2="1036.63" y2="333.91"/>
  <line class="cls-2" x1="1023.84" y1="300.65" x2="1027.63" y2="300.65"/>
  <line class="cls-2" x1="1023.84" y1="364.93" x2="1027.63" y2="364.93"/>
  <line class="cls-2" x1="1023.84" y1="5.13" x2="1036.63" y2="5.13"/>
  <g>
    <path class="cls-8" d="M1039.07,11.12l.57-.72c.53,.5,1.2,.97,2.27,.97s1.97-.75,1.97-1.94-.76-1.9-1.92-1.9c-.62,0-1.01,.19-1.54,.53l-.62-.37,.29-4.11h4.51v.94h-3.5l-.23,2.55c.42-.22,.82-.36,1.38-.36,1.54,0,2.79,.84,2.79,2.69s-1.47,2.89-3.03,2.89c-1.44,0-2.33-.58-2.94-1.16Z"/>
    <path class="cls-8" d="M1046.35,7.82c0-2.87,1.1-4.4,2.89-4.4s2.88,1.55,2.88,4.4-1.09,4.46-2.88,4.46-2.89-1.6-2.89-4.46Zm4.65,0c0-2.51-.71-3.53-1.76-3.53s-1.77,1.02-1.77,3.53,.71,3.59,1.77,3.59,1.76-1.08,1.76-3.59Z"/>
    <path class="cls-8" d="M1053.35,7.82c0-2.87,1.1-4.4,2.89-4.4s2.88,1.55,2.88,4.4-1.09,4.46-2.88,4.46-2.89-1.6-2.89-4.46Zm4.65,0c0-2.51-.71-3.53-1.76-3.53s-1.77,1.02-1.77,3.53,.71,3.59,1.77,3.59,1.76-1.08,1.76-3.59Z"/>
    <path class="cls-8" d="M1060.36,7.82c0-2.87,1.1-4.4,2.89-4.4s2.88,1.55,2.88,4.4-1.09,4.46-2.88,4.46-2.89-1.6-2.89-4.46Zm4.65,0c0-2.51-.71-3.53-1.76-3.53s-1.77,1.02-1.77,3.53,.71,3.59,1.77,3.59,1.76-1.08,1.76-3.59Z"/>
    <path class="cls-8" d="M1043.01,74.76h-4.04v-.72l3.85-5.47h1.28v5.31h1.23v.88h-1.23v2.36h-1.09v-2.36Zm0-.88v-2.51c0-.44,.04-1.17,.06-1.63h-.05c-.23,.41-.48,.78-.75,1.2l-2.11,2.94h2.84Z"/>
    <path class="cls-8" d="M1046.08,76.12l.57-.72c.53,.5,1.2,.97,2.27,.97s1.97-.75,1.97-1.94-.76-1.9-1.92-1.9c-.62,0-1.01,.19-1.54,.53l-.62-.37,.29-4.11h4.51v.94h-3.5l-.23,2.55c.42-.22,.82-.36,1.38-.36,1.54,0,2.79,.84,2.79,2.69s-1.47,2.89-3.03,2.89c-1.44,0-2.33-.58-2.94-1.16Z"/>
    <path class="cls-8" d="M1053.35,72.82c0-2.87,1.1-4.4,2.89-4.4s2.88,1.55,2.88,4.4-1.09,4.46-2.88,4.46-2.89-1.6-2.89-4.46Zm4.65,0c0-2.51-.71-3.53-1.76-3.53s-1.77,1.02-1.77,3.53,.71,3.59,1.77,3.59,1.76-1.08,1.76-3.59Z"/>
    <path class="cls-8" d="M1060.36,72.82c0-2.87,1.1-4.4,2.89-4.4s2.88,1.55,2.88,4.4-1.09,4.46-2.88,4.46-2.89-1.6-2.89-4.46Zm4.65,0c0-2.51-.71-3.53-1.76-3.53s-1.77,1.02-1.77,3.53,.71,3.59,1.77,3.59,1.76-1.08,1.76-3.59Z"/>
    <path class="cls-8" d="M1043.01,139.76h-4.04v-.72l3.85-5.47h1.28v5.31h1.23v.88h-1.23v2.36h-1.09v-2.36Zm0-.88v-2.51c0-.44,.04-1.17,.06-1.63h-.05c-.23,.41-.48,.78-.75,1.2l-2.11,2.94h2.84Z"/>
    <path class="cls-8" d="M1046.35,137.82c0-2.87,1.1-4.4,2.89-4.4s2.88,1.55,2.88,4.4-1.09,4.46-2.88,4.46-2.89-1.6-2.89-4.46Zm4.65,0c0-2.51-.71-3.53-1.76-3.53s-1.77,1.02-1.77,3.53,.71,3.59,1.77,3.59,1.76-1.08,1.76-3.59Z"/>
    <path class="cls-8" d="M1053.35,137.82c0-2.87,1.1-4.4,2.89-4.4s2.88,1.55,2.88,4.4-1.09,4.46-2.88,4.46-2.89-1.6-2.89-4.46Zm4.65,0c0-2.51-.71-3.53-1.76-3.53s-1.77,1.02-1.77,3.53,.71,3.59,1.77,3.59,1.76-1.08,1.76-3.59Z"/>
    <path class="cls-8" d="M1060.36,137.82c0-2.87,1.1-4.4,2.89-4.4s2.88,1.55,2.88,4.4-1.09,4.46-2.88,4.46-2.89-1.6-2.89-4.46Zm4.65,0c0-2.51-.71-3.53-1.76-3.53s-1.77,1.02-1.77,3.53,.71,3.59,1.77,3.59,1.76-1.08,1.76-3.59Z"/>
    <path class="cls-8" d="M1039.08,206.08l.58-.72c.54,.54,1.25,1.01,2.3,1.01s1.88-.61,1.88-1.57c0-1.02-.75-1.69-2.88-1.69v-.84c1.91,0,2.56-.71,2.56-1.61,0-.83-.61-1.35-1.57-1.35-.75,0-1.4,.36-1.92,.86l-.62-.68c.69-.62,1.52-1.07,2.59-1.07,1.55,0,2.69,.78,2.69,2.17,0,1.03-.67,1.69-1.64,2.03v.05c1.09,.25,1.96,1.01,1.96,2.18,0,1.52-1.33,2.43-2.97,2.43-1.45,0-2.36-.58-2.97-1.2Z"/>
    <path class="cls-8" d="M1046.08,206.12l.57-.72c.53,.5,1.2,.97,2.27,.97s1.97-.75,1.97-1.94-.76-1.9-1.92-1.9c-.62,0-1.01,.19-1.54,.53l-.62-.37,.29-4.11h4.51v.94h-3.5l-.23,2.55c.42-.22,.82-.36,1.38-.36,1.54,0,2.79,.84,2.79,2.69s-1.47,2.89-3.03,2.89c-1.44,0-2.33-.58-2.94-1.16Z"/>
    <path class="cls-8" d="M1053.35,202.82c0-2.87,1.1-4.4,2.89-4.4s2.88,1.55,2.88,4.4-1.09,4.46-2.88,4.46-2.89-1.6-2.89-4.46Zm4.65,0c0-2.51-.71-3.53-1.76-3.53s-1.77,1.02-1.77,3.53,.71,3.59,1.77,3.59,1.76-1.08,1.76-3.59Z"/>
    <path class="cls-8" d="M1060.36,202.82c0-2.87,1.1-4.4,2.89-4.4s2.88,1.55,2.88,4.4-1.09,4.46-2.88,4.46-2.89-1.6-2.89-4.46Zm4.65,0c0-2.51-.71-3.53-1.76-3.53s-1.77,1.02-1.77,3.53,.71,3.59,1.77,3.59,1.76-1.08,1.76-3.59Z"/>
    <path class="cls-8" d="M1039.08,271.08l.58-.72c.54,.54,1.25,1.01,2.3,1.01s1.88-.61,1.88-1.57c0-1.02-.75-1.69-2.88-1.69v-.84c1.91,0,2.56-.71,2.56-1.61,0-.83-.61-1.35-1.57-1.35-.75,0-1.4,.36-1.92,.86l-.62-.68c.69-.62,1.52-1.07,2.59-1.07,1.55,0,2.69,.78,2.69,2.17,0,1.03-.67,1.69-1.64,2.03v.05c1.09,.25,1.96,1.01,1.96,2.18,0,1.52-1.33,2.43-2.97,2.43-1.45,0-2.36-.58-2.97-1.2Z"/>
    <path class="cls-8" d="M1046.35,267.82c0-2.87,1.1-4.4,2.89-4.4s2.88,1.55,2.88,4.4-1.09,4.46-2.88,4.46-2.89-1.6-2.89-4.46Zm4.65,0c0-2.51-.71-3.53-1.76-3.53s-1.77,1.02-1.77,3.53,.71,3.59,1.77,3.59,1.76-1.08,1.76-3.59Z"/>
    <path class="cls-8" d="M1053.35,267.82c0-2.87,1.1-4.4,2.89-4.4s2.88,1.55,2.88,4.4-1.09,4.46-2.88,4.46-2.89-1.6-2.89-4.46Zm4.65,0c0-2.51-.71-3.53-1.76-3.53s-1.77,1.02-1.77,3.53,.71,3.59,1.77,3.59,1.76-1.08,1.76-3.59Z"/>
    <path class="cls-8" d="M1060.36,267.82c0-2.87,1.1-4.4,2.89-4.4s2.88,1.55,2.88,4.4-1.09,4.46-2.88,4.46-2.89-1.6-2.89-4.46Zm4.65,0c0-2.51-.71-3.53-1.76-3.53s-1.77,1.02-1.77,3.53,.71,3.59,1.77,3.59,1.76-1.08,1.76-3.59Z"/>
    <path class="cls-8" d="M1039.27,336.48c2.72-2.57,4.25-4.1,4.25-5.5,0-.97-.56-1.67-1.71-1.67-.76,0-1.42,.46-1.92,1.02l-.67-.61c.76-.78,1.55-1.29,2.73-1.29,1.66,0,2.69,1,2.69,2.51,0,1.61-1.54,3.2-3.68,5.34,.48-.04,1.04-.08,1.52-.08h2.62v.95h-5.82v-.65Z"/>
    <path class="cls-8" d="M1046.08,336.12l.57-.72c.53,.5,1.2,.97,2.27,.97s1.97-.75,1.97-1.94-.76-1.9-1.92-1.9c-.62,0-1.01,.19-1.54,.53l-.62-.37,.29-4.11h4.51v.94h-3.5l-.23,2.55c.42-.22,.82-.36,1.38-.36,1.54,0,2.79,.84,2.79,2.69s-1.47,2.89-3.03,2.89c-1.44,0-2.33-.58-2.94-1.16Z"/>
    <path class="cls-8" d="M1053.35,332.82c0-2.87,1.1-4.4,2.89-4.4s2.88,1.55,2.88,4.4-1.09,4.46-2.88,4.46-2.89-1.6-2.89-4.46Zm4.65,0c0-2.51-.71-3.53-1.76-3.53s-1.77,1.02-1.77,3.53,.71,3.59,1.77,3.59,1.76-1.08,1.76-3.59Z"/>
    <path class="cls-8" d="M1060.36,332.82c0-2.87,1.1-4.4,2.89-4.4s2.88,1.55,2.88,4.4-1.09,4.46-2.88,4.46-2.89-1.6-2.89-4.46Zm4.65,0c0-2.51-.71-3.53-1.76-3.53s-1.77,1.02-1.77,3.53,.71,3.59,1.77,3.59,1.76-1.08,1.76-3.59Z"/>
  </g>
  <g>
    <polygon class="cls-8" points="1028.48 143.1 1025.45 148.4 1028.48 152.7 1051.72 152.7 1051.72 143.1 1028.48 143.1"/>
    <g>
      <path class="cls-1" d="M1028.44,149.51l.29-.36c.27,.27,.63,.5,1.15,.5,.55,0,.94-.31,.94-.79,0-.51-.37-.85-1.44-.85v-.42c.95,0,1.28-.35,1.28-.8,0-.41-.3-.68-.78-.68-.37,0-.7,.18-.96,.43l-.31-.34c.35-.31,.76-.53,1.29-.53,.78,0,1.35,.39,1.35,1.08,0,.52-.33,.85-.82,1.01v.02c.54,.13,.98,.5,.98,1.09,0,.76-.66,1.22-1.48,1.22-.73,0-1.18-.29-1.48-.6Z"/>
      <path class="cls-1" d="M1032.13,149.66l.32-.34c.18,.21,.46,.34,.74,.34,.63,0,1.17-.47,1.19-1.83-.29,.34-.69,.55-1.06,.55-.78,0-1.29-.45-1.29-1.33,0-.82,.61-1.37,1.33-1.37,.89,0,1.55,.68,1.55,2.06,0,1.71-.81,2.38-1.71,2.38-.48,0-.83-.19-1.08-.45Zm1.29-1.7c.29,0,.66-.17,.95-.58-.08-.83-.43-1.27-1-1.27-.44,0-.78,.37-.78,.94s.28,.92,.84,.92Z"/>
      <path class="cls-1" d="M1035.44,149.53l.28-.36c.27,.25,.6,.49,1.14,.49s.99-.38,.99-.97-.38-.95-.96-.95c-.31,0-.5,.1-.77,.26l-.31-.19,.15-2.06h2.25v.47h-1.75l-.11,1.28c.21-.11,.41-.18,.69-.18,.77,0,1.4,.42,1.4,1.34s-.73,1.45-1.52,1.45c-.72,0-1.16-.29-1.47-.58Z"/>
      <path class="cls-1" d="M1038.95,149.53l.28-.36c.27,.25,.6,.49,1.14,.49s.99-.38,.99-.97-.38-.95-.96-.95c-.31,0-.5,.1-.77,.26l-.31-.19,.15-2.06h2.25v.47h-1.75l-.11,1.28c.21-.11,.41-.18,.69-.18,.77,0,1.4,.42,1.4,1.34s-.73,1.45-1.52,1.45c-.72,0-1.16-.29-1.47-.58Z"/>
      <path class="cls-1" d="M1042.74,149.7c0-.25,.19-.43,.42-.43s.42,.17,.42,.43-.19,.41-.42,.41-.42-.17-.42-.41Z"/>
      <path class="cls-1" d="M1044.34,147.88c0-1.43,.55-2.2,1.45-2.2s1.44,.77,1.44,2.2-.54,2.23-1.44,2.23-1.45-.8-1.45-2.23Zm2.32,0c0-1.25-.35-1.76-.88-1.76s-.88,.51-.88,1.76,.35,1.79,.88,1.79,.88-.54,.88-1.79Z"/>
      <path class="cls-1" d="M1047.84,147.88c0-1.43,.55-2.2,1.45-2.2s1.44,.77,1.44,2.2-.54,2.23-1.44,2.23-1.45-.8-1.45-2.23Zm2.32,0c0-1.25-.35-1.76-.88-1.76s-.88,.51-.88,1.76,.35,1.79,.88,1.79,.88-.54,.88-1.79Z"/>
    </g>
  </g>
  <g>
    <path class="cls-8" d="M10,407.78h1.37v-4.21h-1.1v-.47c.55-.09,.94-.22,1.28-.42h.59v5.09h1.24v.61h-3.39v-.61Z"/>
    <path class="cls-8" d="M20.82,408.13c0,.42-.13,.62-.44,.72-.32,.1-.88,.11-1.78,.11-.04-.17-.16-.45-.26-.62,.7,.02,1.37,.02,1.57,.02,.19,0,.26-.06,.26-.24v-1.6h-4.04c-.21,.9-.63,1.81-1.45,2.49-.08-.13-.34-.34-.46-.43,1.34-1.12,1.47-2.74,1.47-4.01v-2.45h5.13v6.01Zm-.65-2.19v-1.34h-3.85c0,.42-.03,.87-.09,1.34h3.94Zm-3.85-3.24v1.33h3.85v-1.33h-3.85Z"/>
    <path class="cls-8" d="M41.58,407.96c1.81-1.71,2.83-2.73,2.83-3.67,0-.65-.37-1.11-1.14-1.11-.51,0-.94,.3-1.28,.68l-.45-.41c.51-.52,1.04-.86,1.82-.86,1.1,0,1.79,.66,1.79,1.67,0,1.07-1.03,2.13-2.45,3.56,.32-.02,.69-.06,1.01-.06h1.74v.63h-3.88v-.43Z"/>
    <path class="cls-8" d="M52.77,408.13c0,.42-.13,.62-.44,.72-.32,.1-.88,.11-1.78,.11-.04-.17-.16-.45-.26-.62,.7,.02,1.37,.02,1.57,.02,.19,0,.26-.06,.26-.24v-1.6h-4.04c-.21,.9-.63,1.81-1.45,2.49-.08-.13-.34-.34-.46-.43,1.34-1.12,1.47-2.74,1.47-4.01v-2.45h5.13v6.01Zm-.65-2.19v-1.34h-3.85c0,.42-.03,.87-.09,1.34h3.94Zm-3.85-3.24v1.33h3.85v-1.33h-3.85Z"/>
    <path class="cls-8" d="M71.52,407.69l.39-.48c.36,.36,.83,.67,1.53,.67s1.25-.41,1.25-1.05c0-.68-.5-1.13-1.92-1.13v-.56c1.27,0,1.71-.47,1.71-1.07,0-.55-.4-.9-1.04-.9-.5,0-.93,.24-1.28,.58l-.41-.46c.46-.42,1.01-.71,1.73-.71,1.04,0,1.79,.52,1.79,1.45,0,.69-.45,1.13-1.1,1.35v.03c.72,.17,1.31,.67,1.31,1.46,0,1.02-.88,1.62-1.98,1.62-.97,0-1.58-.38-1.98-.8Z"/>
    <path class="cls-8" d="M82.84,408.13c0,.42-.13,.62-.44,.72-.32,.1-.88,.11-1.78,.11-.04-.17-.16-.45-.26-.62,.7,.02,1.37,.02,1.57,.02,.19,0,.26-.06,.26-.24v-1.6h-4.04c-.21,.9-.63,1.81-1.45,2.49-.08-.13-.34-.34-.46-.43,1.34-1.12,1.47-2.74,1.47-4.01v-2.45h5.13v6.01Zm-.65-2.19v-1.34h-3.85c0,.42-.03,.87-.09,1.34h3.94Zm-3.85-3.24v1.33h3.85v-1.33h-3.85Z"/>
    <path class="cls-8" d="M106.09,406.81h-2.7v-.48l2.57-3.65h.85v3.54h.82v.58h-.82v1.58h-.72v-1.58Zm0-.58v-1.67c0-.3,.03-.78,.04-1.09h-.03c-.15,.27-.32,.52-.5,.8l-1.41,1.96h1.9Z"/>
    <path class="cls-8" d="M114.79,408.13c0,.42-.13,.62-.44,.72-.32,.1-.88,.11-1.78,.11-.04-.17-.16-.45-.26-.62,.7,.02,1.37,.02,1.57,.02,.19,0,.26-.06,.26-.24v-1.6h-4.04c-.21,.9-.63,1.81-1.45,2.49-.08-.13-.34-.34-.46-.43,1.34-1.12,1.47-2.74,1.47-4.01v-2.45h5.13v6.01Zm-.65-2.19v-1.34h-3.85c0,.42-.03,.87-.09,1.34h3.94Zm-3.85-3.24v1.33h3.85v-1.33h-3.85Z"/>
    <path class="cls-8" d="M137.3,407.72l.38-.48c.35,.34,.8,.65,1.52,.65s1.31-.5,1.31-1.29-.51-1.26-1.28-1.26c-.41,0-.67,.13-1.03,.35l-.41-.25,.19-2.74h3.01v.62h-2.33l-.15,1.7c.28-.14,.55-.24,.92-.24,1.03,0,1.86,.56,1.86,1.79s-.98,1.93-2.02,1.93c-.96,0-1.55-.38-1.96-.78Z"/>
    <path class="cls-8" d="M148.62,408.13c0,.42-.13,.62-.44,.72-.32,.1-.88,.11-1.78,.11-.04-.17-.16-.45-.26-.62,.7,.02,1.37,.02,1.57,.02,.19,0,.26-.06,.26-.24v-1.6h-4.04c-.21,.9-.63,1.81-1.45,2.49-.08-.13-.34-.34-.46-.43,1.34-1.12,1.47-2.74,1.47-4.01v-2.45h5.13v6.01Zm-.65-2.19v-1.34h-3.85c0,.42-.03,.87-.09,1.34h3.94Zm-3.85-3.24v1.33h3.85v-1.33h-3.85Z"/>
    <path class="cls-8" d="M169.47,405.76c0-2.29,1.09-3.17,2.29-3.17,.64,0,1.1,.26,1.44,.6l-.43,.46c-.24-.28-.62-.45-.99-.45-.85,0-1.56,.62-1.59,2.43,.39-.44,.92-.71,1.41-.71,1.04,0,1.71,.59,1.71,1.75,0,1.1-.81,1.83-1.77,1.83-1.19,0-2.07-.91-2.07-2.73Zm.74,.46c.1,1.11,.56,1.71,1.32,1.71,.6,0,1.05-.5,1.05-1.26s-.37-1.21-1.11-1.21c-.39,0-.86,.2-1.26,.76Z"/>
    <path class="cls-8" d="M180.57,408.13c0,.42-.13,.62-.44,.72-.32,.1-.88,.11-1.78,.11-.04-.17-.16-.45-.26-.62,.7,.02,1.37,.02,1.57,.02,.19,0,.26-.06,.26-.24v-1.6h-4.04c-.21,.9-.63,1.81-1.45,2.49-.08-.13-.34-.34-.46-.43,1.34-1.12,1.47-2.74,1.47-4.01v-2.45h5.13v6.01Zm-.65-2.19v-1.34h-3.85c0,.42-.03,.87-.09,1.34h3.94Zm-3.85-3.24v1.33h3.85v-1.33h-3.85Z"/>
    <path class="cls-8" d="M206.25,403.31h-2.99v-.62h3.87v.45c-1.42,1.73-1.72,3.03-1.81,5.25h-.8c.1-2.15,.56-3.51,1.73-5.08Z"/>
    <path class="cls-8" d="M214.41,408.13c0,.42-.13,.62-.44,.72-.32,.1-.88,.11-1.78,.11-.04-.17-.16-.45-.26-.62,.7,.02,1.37,.02,1.57,.02,.19,0,.26-.06,.26-.24v-1.6h-4.04c-.21,.9-.63,1.81-1.45,2.49-.08-.13-.34-.34-.46-.43,1.34-1.12,1.47-2.74,1.47-4.01v-2.45h5.13v6.01Zm-.65-2.19v-1.34h-3.85c0,.42-.03,.87-.09,1.34h3.94Zm-3.85-3.24v1.33h3.85v-1.33h-3.85Z"/>
    <path class="cls-8" d="M231.4,406.93c0-.74,.57-1.26,1.14-1.54v-.03c-.45-.29-.83-.71-.83-1.32,0-.87,.73-1.46,1.69-1.46,1.05,0,1.69,.62,1.69,1.51,0,.6-.46,1.11-.83,1.38v.04c.53,.3,1.04,.7,1.04,1.46,0,.86-.77,1.52-1.94,1.52s-1.97-.66-1.97-1.56Zm3.18,.02c0-.74-.76-1.01-1.63-1.33-.49,.3-.84,.72-.84,1.25,0,.62,.55,1.08,1.29,1.08s1.19-.41,1.19-.99Zm-.14-2.82c0-.56-.38-1.01-1.04-1.01-.57,0-.99,.36-.99,.91,0,.69,.67,.98,1.39,1.25,.41-.35,.64-.73,.64-1.15Z"/>
    <path class="cls-8" d="M242.59,408.13c0,.42-.13,.62-.44,.72-.32,.1-.88,.11-1.78,.11-.04-.17-.16-.45-.26-.62,.7,.02,1.37,.02,1.57,.02,.19,0,.26-.06,.26-.24v-1.6h-4.04c-.21,.9-.63,1.81-1.45,2.49-.08-.13-.34-.34-.46-.43,1.34-1.12,1.47-2.74,1.47-4.01v-2.45h5.13v6.01Zm-.65-2.19v-1.34h-3.85c0,.42-.03,.87-.09,1.34h3.94Zm-3.85-3.24v1.33h3.85v-1.33h-3.85Z"/>
    <path class="cls-8" d="M263.46,407.89l.43-.46c.24,.28,.61,.45,.99,.45,.84,0,1.56-.62,1.59-2.45-.39,.46-.92,.74-1.41,.74-1.04,0-1.72-.6-1.72-1.77,0-1.09,.81-1.82,1.77-1.82,1.19,0,2.07,.91,2.07,2.74,0,2.29-1.09,3.17-2.28,3.17-.64,0-1.11-.26-1.44-.6Zm1.73-2.26c.39,0,.88-.23,1.26-.78-.1-1.1-.57-1.7-1.34-1.7-.59,0-1.04,.5-1.04,1.25s.37,1.22,1.12,1.22Z"/>
    <path class="cls-8" d="M274.54,408.13c0,.42-.13,.62-.44,.72-.32,.1-.88,.11-1.78,.11-.04-.17-.16-.45-.26-.62,.7,.02,1.37,.02,1.57,.02,.19,0,.26-.06,.26-.24v-1.6h-4.04c-.21,.9-.63,1.81-1.45,2.49-.08-.13-.34-.34-.46-.43,1.34-1.12,1.47-2.74,1.47-4.01v-2.45h5.13v6.01Zm-.65-2.19v-1.34h-3.85c0,.42-.03,.87-.09,1.34h3.94Zm-3.85-3.24v1.33h3.85v-1.33h-3.85Z"/>
    <path class="cls-8" d="M293.78,407.78h1.37v-4.21h-1.1v-.47c.55-.09,.94-.22,1.28-.42h.59v5.09h1.24v.61h-3.39v-.61Z"/>
    <path class="cls-8" d="M298.13,405.52c0-1.91,.73-2.93,1.93-2.93s1.92,1.03,1.92,2.93-.72,2.97-1.92,2.97-1.93-1.06-1.93-2.97Zm3.1,0c0-1.67-.47-2.35-1.17-2.35s-1.18,.68-1.18,2.35,.47,2.39,1.18,2.39,1.17-.72,1.17-2.39Z"/>
    <path class="cls-8" d="M309.28,408.13c0,.42-.13,.62-.44,.72-.32,.1-.88,.11-1.78,.11-.04-.17-.16-.45-.26-.62,.7,.02,1.37,.02,1.57,.02,.19,0,.26-.06,.26-.24v-1.6h-4.04c-.21,.9-.63,1.81-1.45,2.49-.08-.13-.34-.34-.46-.43,1.34-1.12,1.47-2.74,1.47-4.01v-2.45h5.13v6.01Zm-.65-2.19v-1.34h-3.85c0,.42-.03,.87-.09,1.34h3.94Zm-3.85-3.24v1.33h3.85v-1.33h-3.85Z"/>
    <path class="cls-8" d="M326.63,407.78h1.37v-4.21h-1.1v-.47c.55-.09,.94-.22,1.28-.42h.59v5.09h1.24v.61h-3.39v-.61Z"/>
    <path class="cls-8" d="M331.31,407.78h1.37v-4.21h-1.1v-.47c.55-.09,.94-.22,1.28-.42h.59v5.09h1.24v.61h-3.39v-.61Z"/>
    <path class="cls-8" d="M342.13,408.13c0,.42-.13,.62-.44,.72-.32,.1-.88,.11-1.78,.11-.04-.17-.16-.45-.26-.62,.7,.02,1.37,.02,1.57,.02,.19,0,.26-.06,.26-.24v-1.6h-4.04c-.21,.9-.63,1.81-1.45,2.49-.08-.13-.34-.34-.46-.43,1.34-1.12,1.47-2.74,1.47-4.01v-2.45h5.13v6.01Zm-.65-2.19v-1.34h-3.85c0,.42-.03,.87-.09,1.34h3.94Zm-3.85-3.24v1.33h3.85v-1.33h-3.85Z"/>
    <path class="cls-8" d="M357.6,407.78h1.37v-4.21h-1.1v-.47c.55-.09,.94-.22,1.28-.42h.59v5.09h1.24v.61h-3.39v-.61Z"/>
    <path class="cls-8" d="M361.9,407.96c1.81-1.71,2.83-2.73,2.83-3.67,0-.65-.37-1.11-1.14-1.11-.51,0-.94,.3-1.28,.68l-.45-.41c.51-.52,1.04-.86,1.82-.86,1.1,0,1.79,.66,1.79,1.67,0,1.07-1.03,2.13-2.45,3.56,.32-.02,.69-.06,1.01-.06h1.74v.63h-3.88v-.43Z"/>
    <path class="cls-8" d="M373.09,408.13c0,.42-.13,.62-.44,.72-.32,.1-.88,.11-1.78,.11-.04-.17-.16-.45-.26-.62,.7,.02,1.37,.02,1.57,.02,.19,0,.26-.06,.26-.24v-1.6h-4.04c-.21,.9-.63,1.81-1.45,2.49-.08-.13-.34-.34-.46-.43,1.34-1.12,1.47-2.74,1.47-4.01v-2.45h5.13v6.01Zm-.65-2.19v-1.34h-3.85c0,.42-.03,.87-.09,1.34h3.94Zm-3.85-3.24v1.33h3.85v-1.33h-3.85Z"/>
    <path class="cls-8" d="M390.45,407.78h1.37v-4.21h-1.1v-.47c.55-.09,.94-.22,1.28-.42h.59v5.09h1.24v.61h-3.39v-.61Z"/>
    <path class="cls-8" d="M401.27,408.13c0,.42-.13,.62-.44,.72-.32,.1-.88,.11-1.78,.11-.04-.17-.16-.45-.26-.62,.7,.02,1.37,.02,1.57,.02,.19,0,.26-.06,.26-.24v-1.6h-4.04c-.21,.9-.63,1.81-1.45,2.49-.08-.13-.34-.34-.46-.43,1.34-1.12,1.47-2.74,1.47-4.01v-2.45h5.13v6.01Zm-.65-2.19v-1.34h-3.85c0,.42-.03,.87-.09,1.34h3.94Zm-3.85-3.24v1.33h3.85v-1.33h-3.85Z"/>
    <path class="cls-8" d="M420.14,407.96c1.81-1.71,2.83-2.73,2.83-3.67,0-.65-.37-1.11-1.14-1.11-.51,0-.94,.3-1.28,.68l-.45-.41c.51-.52,1.04-.86,1.82-.86,1.1,0,1.79,.66,1.79,1.67,0,1.07-1.03,2.13-2.45,3.56,.32-.02,.69-.06,1.01-.06h1.74v.63h-3.88v-.43Z"/>
    <path class="cls-8" d="M431.33,408.13c0,.42-.13,.62-.44,.72-.32,.1-.88,.11-1.78,.11-.04-.17-.16-.45-.26-.62,.7,.02,1.37,.02,1.57,.02,.19,0,.26-.06,.26-.24v-1.6h-4.04c-.21,.9-.63,1.81-1.45,2.49-.08-.13-.34-.34-.46-.43,1.34-1.12,1.47-2.74,1.47-4.01v-2.45h5.13v6.01Zm-.65-2.19v-1.34h-3.85c0,.42-.03,.87-.09,1.34h3.94Zm-3.85-3.24v1.33h3.85v-1.33h-3.85Z"/>
    <path class="cls-8" d="M451.97,407.69l.39-.48c.36,.36,.83,.67,1.53,.67,.73,0,1.26-.41,1.26-1.05,0-.68-.5-1.13-1.92-1.13v-.56c1.27,0,1.71-.47,1.71-1.07,0-.55-.4-.9-1.04-.9-.5,0-.94,.24-1.28,.58l-.41-.46c.46-.42,1.01-.71,1.73-.71,1.04,0,1.79,.52,1.79,1.45,0,.69-.45,1.13-1.09,1.35v.03c.72,.17,1.31,.67,1.31,1.46,0,1.02-.88,1.62-1.98,1.62-.97,0-1.58-.38-1.98-.8Z"/>
    <path class="cls-8" d="M463.29,408.13c0,.42-.13,.62-.44,.72-.32,.1-.88,.11-1.78,.11-.04-.17-.16-.45-.26-.62,.7,.02,1.37,.02,1.57,.02,.19,0,.26-.06,.26-.24v-1.6h-4.04c-.21,.9-.63,1.81-1.45,2.49-.08-.13-.34-.34-.46-.43,1.34-1.12,1.47-2.74,1.47-4.01v-2.45h5.13v6.01Zm-.65-2.19v-1.34h-3.85c0,.42-.03,.87-.09,1.34h3.94Zm-3.85-3.24v1.33h3.85v-1.33h-3.85Z"/>
    <path class="cls-8" d="M486.54,406.81h-2.7v-.48l2.57-3.65h.85v3.54h.82v.58h-.82v1.58h-.72v-1.58Zm0-.58v-1.67c0-.3,.03-.78,.04-1.09h-.03c-.15,.27-.32,.52-.5,.8l-1.41,1.96h1.9Z"/>
    <path class="cls-8" d="M495.24,408.13c0,.42-.13,.62-.44,.72-.32,.1-.88,.11-1.78,.11-.04-.17-.16-.45-.26-.62,.7,.02,1.37,.02,1.57,.02,.19,0,.26-.06,.26-.24v-1.6h-4.04c-.21,.9-.63,1.81-1.45,2.49-.08-.13-.34-.34-.46-.43,1.34-1.12,1.47-2.74,1.47-4.01v-2.45h5.13v6.01Zm-.65-2.19v-1.34h-3.85c0,.42-.03,.87-.09,1.34h3.94Zm-3.85-3.24v1.33h3.85v-1.33h-3.85Z"/>
    <path class="cls-8" d="M515.86,407.72l.38-.48c.35,.34,.8,.65,1.52,.65s1.31-.5,1.31-1.29-.51-1.26-1.28-1.26c-.41,0-.67,.13-1.03,.35l-.41-.25,.19-2.74h3.01v.62h-2.33l-.15,1.7c.28-.14,.55-.24,.92-.24,1.03,0,1.86,.56,1.86,1.79s-.98,1.93-2.02,1.93c-.96,0-1.55-.38-1.96-.78Z"/>
    <path class="cls-8" d="M527.19,408.13c0,.42-.13,.62-.44,.72-.32,.1-.88,.11-1.78,.11-.04-.17-.16-.45-.26-.62,.7,.02,1.37,.02,1.57,.02,.19,0,.26-.06,.26-.24v-1.6h-4.04c-.21,.9-.63,1.81-1.45,2.49-.08-.13-.34-.34-.46-.43,1.34-1.12,1.47-2.74,1.47-4.01v-2.45h5.13v6.01Zm-.65-2.19v-1.34h-3.85c0,.42-.03,.87-.09,1.34h3.94Zm-3.85-3.24v1.33h3.85v-1.33h-3.85Z"/>
    <path class="cls-8" d="M548.03,405.76c0-2.29,1.09-3.17,2.29-3.17,.64,0,1.1,.26,1.44,.6l-.43,.46c-.24-.28-.62-.45-.99-.45-.85,0-1.56,.62-1.59,2.43,.39-.44,.92-.71,1.41-.71,1.04,0,1.71,.59,1.71,1.75,0,1.1-.81,1.83-1.77,1.83-1.19,0-2.07-.91-2.07-2.73Zm.74,.46c.1,1.11,.56,1.71,1.32,1.71,.6,0,1.05-.5,1.05-1.26s-.37-1.21-1.11-1.21c-.39,0-.86,.2-1.26,.76Z"/>
    <path class="cls-8" d="M559.14,408.13c0,.42-.13,.62-.44,.72-.32,.1-.88,.11-1.78,.11-.04-.17-.16-.45-.26-.62,.7,.02,1.37,.02,1.57,.02,.19,0,.26-.06,.26-.24v-1.6h-4.04c-.21,.9-.63,1.81-1.45,2.49-.08-.13-.34-.34-.46-.43,1.34-1.12,1.47-2.74,1.47-4.01v-2.45h5.13v6.01Zm-.65-2.19v-1.34h-3.85c0,.42-.02,.87-.09,1.34h3.94Zm-3.85-3.24v1.33h3.85v-1.33h-3.85Z"/>
    <path class="cls-8" d="M582.93,403.31h-2.99v-.62h3.87v.45c-1.41,1.73-1.72,3.03-1.81,5.25h-.8c.1-2.15,.56-3.51,1.74-5.08Z"/>
    <path class="cls-8" d="M591.09,408.13c0,.42-.13,.62-.44,.72-.32,.1-.88,.11-1.78,.11-.04-.17-.16-.45-.26-.62,.7,.02,1.37,.02,1.57,.02,.19,0,.26-.06,.26-.24v-1.6h-4.04c-.21,.9-.63,1.81-1.45,2.49-.08-.13-.34-.34-.46-.43,1.34-1.12,1.47-2.74,1.47-4.01v-2.45h5.13v6.01Zm-.65-2.19v-1.34h-3.85c0,.42-.03,.87-.09,1.34h3.94Zm-3.85-3.24v1.33h3.85v-1.33h-3.85Z"/>
    <path class="cls-8" d="M611.85,406.93c0-.74,.57-1.26,1.14-1.54v-.03c-.45-.29-.83-.71-.83-1.32,0-.87,.73-1.46,1.69-1.46,1.05,0,1.69,.62,1.69,1.51,0,.6-.46,1.11-.83,1.38v.04c.53,.3,1.04,.7,1.04,1.46,0,.86-.77,1.52-1.94,1.52s-1.97-.66-1.97-1.56Zm3.18,.02c0-.74-.76-1.01-1.63-1.33-.49,.3-.84,.72-.84,1.25,0,.62,.55,1.08,1.29,1.08s1.19-.41,1.19-.99Zm-.14-2.82c0-.56-.38-1.01-1.04-1.01-.57,0-.99,.36-.99,.91,0,.69,.67,.98,1.39,1.25,.41-.35,.64-.73,.64-1.15Z"/>
    <path class="cls-8" d="M623.04,408.13c0,.42-.13,.62-.44,.72-.32,.1-.88,.11-1.78,.11-.04-.17-.16-.45-.26-.62,.7,.02,1.37,.02,1.57,.02,.19,0,.26-.06,.26-.24v-1.6h-4.04c-.21,.9-.63,1.81-1.45,2.49-.08-.13-.34-.34-.46-.43,1.34-1.12,1.47-2.74,1.47-4.01v-2.45h5.13v6.01Zm-.65-2.19v-1.34h-3.85c0,.42-.02,.87-.09,1.34h3.94Zm-3.85-3.24v1.33h3.85v-1.33h-3.85Z"/>
    <path class="cls-8" d="M643.91,407.89l.43-.46c.24,.28,.61,.45,.99,.45,.84,0,1.56-.62,1.59-2.45-.39,.46-.92,.74-1.41,.74-1.04,0-1.72-.6-1.72-1.77,0-1.09,.81-1.82,1.77-1.82,1.19,0,2.07,.91,2.07,2.74,0,2.29-1.09,3.17-2.28,3.17-.64,0-1.11-.26-1.44-.6Zm1.73-2.26c.39,0,.88-.23,1.26-.78-.1-1.1-.57-1.7-1.34-1.7-.59,0-1.04,.5-1.04,1.25s.37,1.22,1.12,1.22Z"/>
    <path class="cls-8" d="M654.99,408.13c0,.42-.13,.62-.44,.72-.32,.1-.88,.11-1.78,.11-.04-.17-.16-.45-.26-.62,.7,.02,1.37,.02,1.57,.02,.19,0,.26-.06,.26-.24v-1.6h-4.04c-.21,.9-.63,1.81-1.45,2.49-.08-.13-.34-.34-.46-.43,1.34-1.12,1.47-2.74,1.47-4.01v-2.45h5.13v6.01Zm-.65-2.19v-1.34h-3.85c0,.42-.03,.87-.09,1.34h3.94Zm-3.85-3.24v1.33h3.85v-1.33h-3.85Z"/>
    <path class="cls-8" d="M672.34,407.78h1.37v-4.21h-1.09v-.47c.55-.09,.94-.22,1.28-.42h.59v5.09h1.24v.61h-3.39v-.61Z"/>
    <path class="cls-8" d="M676.69,405.52c0-1.91,.73-2.93,1.93-2.93s1.92,1.03,1.92,2.93-.72,2.97-1.92,2.97-1.93-1.06-1.93-2.97Zm3.1,0c0-1.67-.47-2.35-1.17-2.35s-1.18,.68-1.18,2.35,.47,2.39,1.18,2.39,1.17-.72,1.17-2.39Z"/>
    <path class="cls-8" d="M687.84,408.13c0,.42-.13,.62-.44,.72-.32,.1-.88,.11-1.78,.11-.04-.17-.16-.45-.26-.62,.7,.02,1.37,.02,1.57,.02,.19,0,.26-.06,.26-.24v-1.6h-4.04c-.21,.9-.63,1.81-1.45,2.49-.08-.13-.34-.34-.46-.43,1.34-1.12,1.47-2.74,1.47-4.01v-2.45h5.13v6.01Zm-.65-2.19v-1.34h-3.85c0,.42-.03,.87-.09,1.34h3.94Zm-3.85-3.24v1.33h3.85v-1.33h-3.85Z"/>
    <path class="cls-8" d="M703.31,407.78h1.37v-4.21h-1.09v-.47c.55-.09,.94-.22,1.28-.42h.59v5.09h1.24v.61h-3.39v-.61Z"/>
    <path class="cls-8" d="M707.98,407.78h1.37v-4.21h-1.09v-.47c.55-.09,.94-.22,1.28-.42h.59v5.09h1.24v.61h-3.39v-.61Z"/>
    <path class="cls-8" d="M718.8,408.13c0,.42-.13,.62-.44,.72-.32,.1-.88,.11-1.78,.11-.04-.17-.16-.45-.26-.62,.7,.02,1.37,.02,1.57,.02,.19,0,.26-.06,.26-.24v-1.6h-4.04c-.21,.9-.63,1.81-1.45,2.49-.08-.13-.34-.34-.46-.43,1.34-1.12,1.47-2.74,1.47-4.01v-2.45h5.13v6.01Zm-.65-2.19v-1.34h-3.85c0,.42-.03,.87-.09,1.34h3.94Zm-3.85-3.24v1.33h3.85v-1.33h-3.85Z"/>
    <path class="cls-8" d="M736.16,407.78h1.37v-4.21h-1.09v-.47c.55-.09,.94-.22,1.28-.42h.59v5.09h1.24v.61h-3.39v-.61Z"/>
    <path class="cls-8" d="M740.46,407.96c1.81-1.71,2.83-2.73,2.83-3.67,0-.65-.37-1.11-1.14-1.11-.5,0-.94,.3-1.28,.68l-.45-.41c.51-.52,1.04-.86,1.82-.86,1.1,0,1.79,.66,1.79,1.67,0,1.07-1.03,2.13-2.45,3.56,.32-.02,.69-.06,1.01-.06h1.74v.63h-3.88v-.43Z"/>
    <path class="cls-8" d="M751.65,408.13c0,.42-.13,.62-.44,.72-.32,.1-.88,.11-1.78,.11-.04-.17-.16-.45-.26-.62,.7,.02,1.37,.02,1.57,.02,.19,0,.26-.06,.26-.24v-1.6h-4.04c-.21,.9-.63,1.81-1.45,2.49-.08-.13-.34-.34-.46-.43,1.34-1.12,1.47-2.74,1.47-4.01v-2.45h5.13v6.01Zm-.65-2.19v-1.34h-3.85c0,.42-.03,.87-.09,1.34h3.94Zm-3.85-3.24v1.33h3.85v-1.33h-3.85Z"/>
    <path class="cls-8" d="M769.01,407.78h1.37v-4.21h-1.09v-.47c.55-.09,.94-.22,1.28-.42h.59v5.09h1.24v.61h-3.39v-.61Z"/>
    <path class="cls-8" d="M779.83,408.13c0,.42-.13,.62-.44,.72-.32,.1-.88,.11-1.78,.11-.04-.17-.16-.45-.26-.62,.7,.02,1.37,.02,1.57,.02,.19,0,.26-.06,.26-.24v-1.6h-4.04c-.21,.9-.63,1.81-1.45,2.49-.08-.13-.34-.34-.46-.43,1.34-1.12,1.47-2.74,1.47-4.01v-2.45h5.13v6.01Zm-.65-2.19v-1.34h-3.85c0,.42-.02,.87-.09,1.34h3.94Zm-3.85-3.24v1.33h3.85v-1.33h-3.85Z"/>
    <path class="cls-8" d="M800.59,407.96c1.81-1.71,2.83-2.73,2.83-3.67,0-.65-.37-1.11-1.14-1.11-.5,0-.94,.3-1.28,.68l-.45-.41c.51-.52,1.04-.86,1.82-.86,1.1,0,1.79,.66,1.79,1.67,0,1.07-1.03,2.13-2.45,3.56,.32-.02,.69-.06,1.01-.06h1.74v.63h-3.88v-.43Z"/>
    <path class="cls-8" d="M811.78,408.13c0,.42-.13,.62-.44,.72-.32,.1-.88,.11-1.78,.11-.04-.17-.16-.45-.26-.62,.7,.02,1.37,.02,1.57,.02,.19,0,.26-.06,.26-.24v-1.6h-4.04c-.21,.9-.63,1.81-1.45,2.49-.08-.13-.34-.34-.46-.43,1.34-1.12,1.47-2.74,1.47-4.01v-2.45h5.13v6.01Zm-.65-2.19v-1.34h-3.85c0,.42-.03,.87-.09,1.34h3.94Zm-3.85-3.24v1.33h3.85v-1.33h-3.85Z"/>
    <path class="cls-8" d="M830.53,407.69l.39-.48c.36,.36,.83,.67,1.53,.67s1.25-.41,1.25-1.05c0-.68-.5-1.13-1.92-1.13v-.56c1.27,0,1.71-.47,1.71-1.07,0-.55-.4-.9-1.04-.9-.5,0-.94,.24-1.28,.58l-.41-.46c.46-.42,1.01-.71,1.73-.71,1.04,0,1.79,.52,1.79,1.45,0,.69-.45,1.13-1.09,1.35v.03c.72,.17,1.31,.67,1.31,1.46,0,1.02-.88,1.62-1.98,1.62-.97,0-1.58-.38-1.98-.8Z"/>
    <path class="cls-8" d="M841.85,408.13c0,.42-.13,.62-.44,.72-.32,.1-.88,.11-1.78,.11-.04-.17-.16-.45-.26-.62,.7,.02,1.37,.02,1.57,.02,.19,0,.26-.06,.26-.24v-1.6h-4.04c-.21,.9-.63,1.81-1.45,2.49-.08-.13-.34-.34-.46-.43,1.34-1.12,1.47-2.74,1.47-4.01v-2.45h5.13v6.01Zm-.65-2.19v-1.34h-3.85c0,.42-.03,.87-.09,1.34h3.94Zm-3.85-3.24v1.33h3.85v-1.33h-3.85Z"/>
    <path class="cls-8" d="M866.99,406.81h-2.7v-.48l2.57-3.65h.85v3.54h.82v.58h-.82v1.58h-.72v-1.58Zm0-.58v-1.67c0-.3,.02-.78,.04-1.09h-.03c-.15,.27-.32,.52-.5,.8l-1.41,1.96h1.9Z"/>
    <path class="cls-8" d="M875.68,408.13c0,.42-.13,.62-.44,.72-.32,.1-.88,.11-1.78,.11-.04-.17-.16-.45-.26-.62,.7,.02,1.37,.02,1.57,.02,.19,0,.26-.06,.26-.24v-1.6h-4.04c-.21,.9-.63,1.81-1.45,2.49-.08-.13-.34-.34-.46-.43,1.34-1.12,1.47-2.74,1.47-4.01v-2.45h5.13v6.01Zm-.65-2.19v-1.34h-3.85c0,.42-.03,.87-.09,1.34h3.94Zm-3.85-3.24v1.33h3.85v-1.33h-3.85Z"/>
    <path class="cls-8" d="M896.31,407.72l.38-.48c.35,.34,.8,.65,1.52,.65s1.31-.5,1.31-1.29-.51-1.26-1.28-1.26c-.41,0-.67,.13-1.03,.35l-.41-.25,.19-2.74h3.01v.62h-2.33l-.15,1.7c.28-.14,.55-.24,.92-.24,1.03,0,1.86,.56,1.86,1.79s-.98,1.93-2.02,1.93c-.96,0-1.55-.38-1.96-.78Z"/>
    <path class="cls-8" d="M907.63,408.13c0,.42-.13,.62-.44,.72-.32,.1-.88,.11-1.78,.11-.04-.17-.16-.45-.26-.62,.7,.02,1.37,.02,1.57,.02,.19,0,.26-.06,.26-.24v-1.6h-4.04c-.21,.9-.63,1.81-1.45,2.49-.08-.13-.34-.34-.46-.43,1.34-1.12,1.47-2.74,1.47-4.01v-2.45h5.13v6.01Zm-.65-2.19v-1.34h-3.85c0,.42-.02,.87-.09,1.34h3.94Zm-3.85-3.24v1.33h3.85v-1.33h-3.85Z"/>
    <path class="cls-8" d="M926.59,405.76c0-2.29,1.09-3.17,2.29-3.17,.64,0,1.1,.26,1.44,.6l-.43,.46c-.24-.28-.62-.45-.99-.45-.85,0-1.56,.62-1.59,2.43,.39-.44,.92-.71,1.41-.71,1.04,0,1.71,.59,1.71,1.75,0,1.1-.81,1.83-1.77,1.83-1.19,0-2.07-.91-2.07-2.73Zm.74,.46c.1,1.11,.56,1.71,1.32,1.71,.6,0,1.05-.5,1.05-1.26s-.37-1.21-1.11-1.21c-.39,0-.86,.2-1.26,.76Z"/>
    <path class="cls-8" d="M937.7,408.13c0,.42-.13,.62-.44,.72-.32,.1-.88,.11-1.78,.11-.04-.17-.16-.45-.26-.62,.7,.02,1.37,.02,1.57,.02,.19,0,.26-.06,.26-.24v-1.6h-4.04c-.21,.9-.63,1.81-1.45,2.49-.08-.13-.34-.34-.46-.43,1.34-1.12,1.47-2.74,1.47-4.01v-2.45h5.13v6.01Zm-.65-2.19v-1.34h-3.85c0,.42-.02,.87-.09,1.34h3.94Zm-3.85-3.24v1.33h3.85v-1.33h-3.85Z"/>
    <path class="cls-8" d="M961.49,403.31h-2.99v-.62h3.87v.45c-1.42,1.73-1.72,3.03-1.81,5.25h-.8c.1-2.15,.56-3.51,1.73-5.08Z"/>
    <path class="cls-8" d="M969.65,408.13c0,.42-.13,.62-.44,.72-.32,.1-.88,.11-1.78,.11-.04-.17-.16-.45-.26-.62,.7,.02,1.37,.02,1.57,.02,.19,0,.26-.06,.26-.24v-1.6h-4.04c-.21,.9-.63,1.81-1.45,2.49-.08-.13-.34-.34-.46-.43,1.34-1.12,1.47-2.74,1.47-4.01v-2.45h5.13v6.01Zm-.65-2.19v-1.34h-3.85c0,.42-.03,.87-.09,1.34h3.94Zm-3.85-3.24v1.33h3.85v-1.33h-3.85Z"/>
    <path class="cls-8" d="M990.42,406.93c0-.74,.57-1.26,1.14-1.54v-.03c-.45-.29-.83-.71-.83-1.32,0-.87,.73-1.46,1.69-1.46,1.05,0,1.69,.62,1.69,1.51,0,.6-.46,1.11-.83,1.38v.04c.53,.3,1.04,.7,1.04,1.46,0,.86-.77,1.52-1.94,1.52s-1.97-.66-1.97-1.56Zm3.18,.02c0-.74-.76-1.01-1.63-1.33-.49,.3-.84,.72-.84,1.25,0,.62,.55,1.08,1.29,1.08s1.19-.41,1.19-.99Zm-.14-2.82c0-.56-.38-1.01-1.04-1.01-.57,0-.99,.36-.99,.91,0,.69,.67,.98,1.39,1.25,.41-.35,.64-.73,.64-1.15Z"/>
    <path class="cls-8" d="M1001.6,408.13c0,.42-.13,.62-.44,.72-.32,.1-.88,.11-1.78,.11-.04-.17-.16-.45-.26-.62,.7,.02,1.37,.02,1.57,.02,.19,0,.26-.06,.26-.24v-1.6h-4.04c-.21,.9-.63,1.81-1.45,2.49-.08-.13-.34-.34-.46-.43,1.34-1.12,1.47-2.74,1.47-4.01v-2.45h5.13v6.01Zm-.65-2.19v-1.34h-3.85c0,.42-.02,.87-.09,1.34h3.94Zm-3.85-3.24v1.33h3.85v-1.33h-3.85Z"/>
  </g>
  <line class="cls-2" x1="63.88" y1="397.94" x2="63.88" y2="394.14"/>
  <line class="cls-2" x1="126.85" y1="397.94" x2="126.85" y2="394.14"/>
  <line class="cls-2" x1="190" y1="397.94" x2="190" y2="394.14"/>
  <line class="cls-2" x1="568.17" y1="397.94" x2="568.17" y2="394.14"/>
  <line class="cls-2" x1="536.3" y1="397.94" x2="536.3" y2="394.14"/>
  <line class="cls-2" x1="505" y1="397.94" x2="505" y2="394.14"/>
  <line class="cls-2" x1="441.97" y1="397.94" x2="441.97" y2="394.14"/>
  <line class="cls-2" x1="599.79" y1="397.94" x2="599.79" y2="394.14"/>
  <line class="cls-2" x1="378.95" y1="397.94" x2="378.95" y2="394.14"/>
  <line class="cls-2" x1="315.92" y1="397.94" x2="315.92" y2="394.14"/>
  <line class="cls-2" x1="347.46" y1="397.94" x2="347.46" y2="394.14"/>
  <line class="cls-2" x1="410.48" y1="397.94" x2="410.48" y2="394.14"/>
  <line class="cls-2" x1="473.58" y1="397.94" x2="473.58" y2="394.14"/>
  <line class="cls-2" x1="757.49" y1="397.94" x2="757.49" y2="394.14"/>
  <line class="cls-2" x1="725.81" y1="397.94" x2="725.81" y2="394.14"/>
  <line class="cls-2" x1="694.39" y1="397.94" x2="694.39" y2="394.14"/>
  <line class="cls-2" x1="789.09" y1="397.94" x2="789.09" y2="394.14"/>
  <line class="cls-2" x1="662.92" y1="397.94" x2="662.92" y2="394.14"/>
  <line class="cls-2" x1="915.16" y1="397.94" x2="915.16" y2="394.14"/>
  <line class="cls-2" x1="883.47" y1="397.94" x2="883.47" y2="394.14"/>
  <line class="cls-2" x1="852.06" y1="397.94" x2="852.06" y2="394.14"/>
  <line class="cls-2" x1="946.78" y1="397.94" x2="946.78" y2="394.14"/>
  <line class="cls-2" x1="820.58" y1="397.94" x2="820.58" y2="394.14"/>
  <line class="cls-2" x1="978.24" y1="397.94" x2="978.24" y2="394.14"/>
  <line class="cls-2" x1="1009.77" y1="397.94" x2="1009.77" y2="394.14"/>
  <line class="cls-2" x1="631.4" y1="397.94" x2="631.4" y2="394.14"/>
  <g>
    <line class="cls-4" x1="89.02" y1="260.19" x2="650.28" y2="33.54"/>
    <polygon class="cls-7" points="670.89 22.43 651.42 20.06 659.28 38.25 670.89 22.43"/>
  </g>
  <g>
    <line class="cls-4" x1="731.29" y1="9.33" x2="995.66" y2="110.73"/>
    <polygon class="cls-7" points="1016.24 119.14 1004.63 103.32 996.76 121.5 1016.24 119.14"/>
  </g>
  <g>
    <path class="cls-7" d="M722.21,186.04c-.55,1.69-1.25,3.43-2.03,5.1v17.99h-1.85v-14.56c-.75,1.27-1.61,2.44-2.44,3.48-.18-.47-.7-1.48-1.01-1.98,2.24-2.6,4.32-6.55,5.56-10.56l1.77,.52Zm16.04,10.79c-.96,2.37-2.21,4.52-3.69,6.4,.6,2.57,1.43,4.08,2.42,4.08,.52,0,.81-1.25,.88-4.29,.39,.39,1.01,.81,1.46,.99-.29,3.95-.86,5.15-2.57,5.15s-2.81-1.56-3.61-4.21c-1.17,1.25-2.42,2.34-3.72,3.28-.26-.36-.91-1.07-1.3-1.4,1.64-1.04,3.15-2.37,4.5-3.9-.47-2.21-.78-4.84-.99-7.8h-4.21v3.98l3.48-.94,.21,1.74c-1.22,.36-2.47,.68-3.69,1.04v5.82c0,1.14-.26,1.64-.96,1.95-.73,.31-1.92,.36-3.69,.36-.08-.52-.34-1.3-.6-1.82,1.33,.03,2.55,.03,2.91,0,.39,0,.52-.1,.52-.49v-5.33l-3.95,1.09-.55-1.87c1.22-.26,2.81-.65,4.5-1.12v-4.42h-4.29v-1.72h4.29v-4.13c-1.25,.34-2.55,.62-3.74,.88-.05-.44-.34-1.09-.57-1.51,2.91-.68,6.32-1.64,8.24-2.6l1.43,1.48c-1.01,.44-2.24,.88-3.54,1.27v4.6h4.16c-.13-2.44-.18-5.04-.21-7.75h1.9c-.03,2.76,.03,5.36,.13,7.75h5.36v1.72h-5.28c.16,2.18,.36,4.16,.65,5.82,.96-1.4,1.77-2.94,2.42-4.58l1.72,.47Zm-1.01-4.97c-.49-1.3-1.64-3.38-2.68-4.91l1.46-.62c1.07,1.51,2.24,3.54,2.73,4.81l-1.51,.73Z"/>
    <path class="cls-7" d="M741.48,207.83c1.51-1.17,2.37-3.22,2.81-5.25l1.64,.55c-.49,2.13-1.27,4.39-2.89,5.69l-1.56-.99Zm5.46-9.85v2.05h17.03s-.03,.55-.05,.83c-.31,4.94-.6,6.81-1.25,7.54-.44,.47-.91,.62-1.61,.68-.65,.05-1.87,.05-3.15-.03-.03-.49-.21-1.2-.49-1.64,1.25,.13,2.39,.13,2.81,.13s.68-.03,.86-.26c.42-.44,.68-1.92,.94-5.59h-17v-13.88h6.47c.34-.83,.7-1.82,.88-2.52l2.21,.31c-.36,.75-.78,1.53-1.17,2.21h7.72v6.63h-14.2v1.95h17.97v1.59h-17.97Zm0-8.61v3.51h12.3v-3.51h-12.3Zm2.42,13.73c.47,1.51,.73,3.43,.73,4.71l-1.69,.26c.05-1.27-.18-3.22-.6-4.73l1.56-.23Zm4.13-.21c.65,1.35,1.25,3.15,1.38,4.24l-1.56,.44c-.16-1.12-.68-2.94-1.3-4.32l1.48-.36Zm4.52,3.46c-.31-.94-1.12-2.37-1.9-3.43l1.35-.49c.78,1.01,1.61,2.42,1.95,3.33l-1.4,.6Z"/>
    <path class="cls-7" d="M784.54,206.89c-3.9,.34-7.98,.65-10.92,.86l-.21-1.59c1.35-.08,3.04-.18,4.91-.31v-2.11h-4.16v-1.48h4.16v-1.69h-4.11v-7.36h4.11v-1.79h-4.58v-.26c-.52,1.07-1.12,2.13-1.77,3.17v14.72h-1.77v-12.14c-.73,.99-1.51,1.9-2.24,2.65-.21-.39-.78-1.3-1.14-1.69,1.95-1.85,3.98-4.6,5.25-7.33l1.66,.57v-1.25h4.58v-1.95c-1.38,.13-2.78,.23-4.08,.29-.05-.42-.26-1.01-.44-1.4,3.25-.23,7.18-.68,9.41-1.22l.99,1.43c-1.2,.29-2.7,.52-4.29,.73v2.13h4.94v1.56h-4.94v1.79h4.08v7.36h-4.08v1.69h4.19v1.48h-4.19v1.98l4.63-.34v1.51Zm-11.23-20.88c-1.27,2.08-3.3,4.42-5.12,5.95-.23-.39-.75-1.09-1.04-1.46,1.64-1.33,3.46-3.43,4.39-5.15l1.77,.65Zm2.34,10.24h2.68v-1.79h-2.68v1.79Zm2.68,3.04v-1.85h-2.68v1.85h2.68Zm1.59-4.84v1.79h2.6v-1.79h-2.6Zm2.6,2.99h-2.6v1.85h2.6v-1.85Zm8.89-2.26h-2.31v11.73c0,1.01-.18,1.56-.83,1.87-.68,.29-1.72,.31-3.28,.31-.05-.49-.31-1.3-.57-1.79,1.17,.03,2.16,.03,2.5,0,.31,0,.39-.08,.39-.39v-11.73h-2.73v-1.74h6.84v1.74Zm-.52-6.55h-5.95v-1.74h5.95v1.74Z"/>
    <path class="cls-7" d="M806.79,200.63c1.69,3.61,4.97,5.77,10.09,6.55-.44,.44-.99,1.3-1.25,1.87-5.2-.99-8.5-3.38-10.4-7.49-1.38,3.51-4.19,6.19-10.4,7.62-.18-.49-.68-1.33-1.07-1.74,5.95-1.25,8.48-3.64,9.62-6.81h-9.52v-1.82h10.04c.26-1.17,.39-2.44,.52-3.77h2.08c-.13,1.33-.29,2.57-.52,3.77h4.84c-.65-.81-1.92-1.95-2.96-2.73l1.4-.78c1.12,.78,2.44,1.92,3.09,2.76l-1.27,.75h5.69v1.82h-9.98Zm-3.48-11.28c-.39,4.29-1.95,6.19-8.22,7.12-.16-.49-.6-1.2-.94-1.59,5.56-.73,6.84-2.11,7.13-5.54h-4.97v2.73h-1.9v-4.47h10.01c-.21-.65-.47-1.35-.68-1.92l2-.47c.34,.7,.7,1.64,.96,2.39h9.72v4.26h-2v-2.52h-5.33v2.99c0,.62,.1,.83,.73,.83h3.95c.57,0,1.53-.03,2-.13,.05,.49,.1,1.14,.16,1.61-.42,.1-1.25,.13-2.05,.13h-4.19c-2.03,0-2.5-.68-2.5-2.47v-2.96h-3.9Z"/>
    <path class="cls-7" d="M826.01,206.45c-.44-.94-1.51-2.68-2.39-4-.52,2.42-1.48,4.68-3.09,6.73-.26-.39-.86-.94-1.22-1.2,3.04-3.88,3.38-8.81,3.38-13.57v-8.92h1.61v8.94c0,2.03-.05,4-.31,5.95,.81,1.07,2.83,4.03,3.3,4.76l-1.27,1.3Zm-5.49-9.46c-.18-1.66-.7-4.6-1.17-6.84l1.38-.31c.52,2.26,1.07,5.12,1.27,6.73l-1.48,.42Zm7.1-6.47c-.55,1.95-1.09,4.45-1.61,5.98l-1.12-.49c.42-1.61,.99-4.26,1.2-6.06l1.53,.57Zm11.36,8.92c1.14,1.27,2.96,2.52,4.55,3.15-.34,.31-.81,.86-1.09,1.27-1.85-.91-3.9-2.68-5.1-4.42h-4.58c-1.25,1.64-3.43,3.38-5.23,4.24-.23-.39-.7-.94-1.07-1.22,1.53-.6,3.3-1.79,4.5-3.02h-4.06v-1.46h4.21v-1.85h-3.3v-1.4h3.3v-1.59h-2.6v-6.99h13.03v6.99h-2.94v1.59h3.64v1.4h-3.64v1.85h4.39v1.46h-4.03Zm-5.62,6.16c-1.92,1.07-3.93,2.16-5.56,3.02l-.75-1.38c1.51-.68,3.74-1.79,5.93-2.94l.39,1.3Zm-1.64-1.07c-.39-.6-1.2-1.51-1.87-2.13l1.25-.75c.7,.62,1.53,1.46,1.95,2.05l-1.33,.83Zm-1.48-15.55h9.52v-1.51h-9.52v1.51Zm0,2.83h9.52v-1.59h-9.52v1.59Zm3.87,8.37h1.61v7.18c0,.83-.16,1.25-.81,1.48-.57,.26-1.53,.26-3.09,.26-.1-.42-.39-.99-.6-1.4,1.14,.03,2.18,.03,2.47,.03,.31-.03,.42-.1,.42-.39v-7.15Zm-1.22-5.46h3.95v-1.59h-3.95v1.59Zm0,3.25h3.95v-1.85h-3.95v1.85Zm4.11,6.5c1.95,.86,4.06,1.98,5.3,2.86l-1.07,1.2c-1.2-.91-3.25-2.08-5.12-2.94l.88-1.12Zm2.73-2.08c-.68,.81-1.72,1.64-2.39,2.16l-.99-.91c.68-.57,1.72-1.59,2.29-2.21l1.09,.96Z"/>
    <path class="cls-7" d="M855.18,201.67s-.03,.55-.08,.75c-.31,3.64-.65,5.17-1.27,5.77-.44,.44-.96,.6-1.72,.65-.65,.05-2.03,.03-3.43-.05-.03-.52-.29-1.2-.57-1.66,1.4,.13,2.83,.16,3.33,.16,.47,0,.73-.03,.94-.23,.39-.34,.68-1.4,.91-3.87h-5.96c.31-1.53,.68-3.85,.91-5.69h5.15v-2.73h-4.34v-.31c-.94,.49-1.9,.91-2.89,1.22-.21-.42-.68-1.09-1.04-1.43,1.74-.52,3.54-1.38,5.12-2.44-.78-.73-1.95-1.64-2.94-2.24l1.12-1.07c1.07,.62,2.34,1.53,3.09,2.31,.99-.83,1.85-1.77,2.5-2.76h-6.03v-1.59h7.05l.34-.08,1.2,.62c-1.14,2.6-3.15,4.65-5.46,6.21h4.03v5.77h-5.49c-.13,.91-.26,1.85-.39,2.68h5.93Zm11.44-.7c-.73,1.9-1.9,3.46-3.35,4.68,1.38,.86,2.63,1.64,3.51,2.29l-.96,1.25c-.94-.7-2.31-1.61-3.82-2.55-1.77,1.17-3.8,1.98-5.95,2.52-.18-.44-.55-1.09-.88-1.43,1.9-.42,3.74-1.09,5.33-2.03-1.4-.83-2.83-1.69-4.11-2.39l.94-1.07c1.38,.73,2.99,1.66,4.52,2.55,.99-.81,1.85-1.72,2.5-2.78h-7.96v-1.4h8.87l.31-.08,1.07,.44Zm1.92-11.83c-1.07,1.01-2.47,2.08-3.67,2.86,1.38,.81,2.86,1.43,4.45,1.85-.42,.36-.88,1.04-1.17,1.51-1.33-.42-2.57-.94-3.72-1.59v3.46c0,.57,.05,.75,.44,.75h1.92c.34,0,.91-.03,1.25-.1,0,.42,.05,.99,.1,1.38-.29,.1-.81,.1-1.33,.1h-2.13c-1.59,0-1.9-.62-1.9-2.16v-2.52h-3.54v.52c0,1.66-.55,3.59-2.83,4.91-.26-.34-.88-.96-1.25-1.2,2.05-1.12,2.42-2.52,2.42-3.77v-2.03h5.77c-2.68-1.79-4.84-4.26-6.19-7.23l1.53-.47c.52,1.12,1.2,2.16,2.03,3.15,1.12-.91,2.5-2.13,3.28-3.02l1.43,1.01c-1.12,1.07-2.57,2.18-3.74,3.02,.55,.57,1.2,1.09,1.9,1.59,1.17-.86,2.65-2.11,3.51-3.02l1.43,.99Z"/>
    <path class="cls-7" d="M880.58,199.53l-1.77,1.48c-1.69-2.05-3.9-4.26-5.75-5.77l1.69-1.48c1.85,1.51,4.21,3.85,5.82,5.77Z"/>
    <path class="cls-7" d="M891.34,198.08c-.36,2.26-.94,4.21-1.72,5.85,1.74,2.7,4.99,3.09,9.7,3.09,2.7,0,6.47-.13,9.13-.34-.29,.42-.55,1.3-.62,1.85-2.44,.13-5.67,.21-8.5,.21-5.2,0-8.42-.55-10.45-3.35-.96,1.64-2.11,2.89-3.43,3.8-.29-.39-.94-1.07-1.27-1.33,2.47-1.59,4.34-4.45,5.2-8.5h-2.83c-.68,0-1.35,.16-1.53,.36-.13-.47-.52-1.35-.7-1.77,.36-.1,.78-.26,1.25-.75,.6-.6,2.13-2.65,3.25-4.24h-4.16v-1.59h5.38l.34-.13,1.27,.6c-1.09,1.51-3.07,4.19-4.55,5.93h2.96l.34-.05,.96,.36Zm-2.5-7.67c-.68-1.07-2.11-2.86-3.25-4.13l1.43-.86c1.17,1.25,2.57,2.91,3.3,3.95l-1.48,1.04Zm5.64,14.74h-1.74v-13.29h7.46c-1.53-.75-3.41-1.59-4.97-2.16l1.22-1.09c1.12,.39,2.42,.91,3.64,1.43,1.25-.57,2.55-1.33,3.59-2.08h-10.89v-1.51h12.69l.39-.1,1.17,.91c-1.38,1.3-3.33,2.6-5.25,3.56,.78,.39,1.48,.7,2.03,1.04h3.22v11.49c0,.94-.21,1.35-.88,1.64-.65,.26-1.74,.29-3.46,.29-.05-.47-.31-1.09-.52-1.53,1.27,.03,2.34,.03,2.65,.03,.34-.03,.44-.1,.44-.44v-2.42h-4.65v4.24h-1.69v-4.24h-4.45v4.24Zm0-11.8v2.29h4.45v-2.29h-4.45Zm4.45,6.08v-2.37h-4.45v2.37h4.45Zm6.34-6.08h-4.65v2.29h4.65v-2.29Zm0,6.08v-2.37h-4.65v2.37h4.65Z"/>
    <path class="cls-7" d="M917.47,206.94c0,.91-.18,1.4-.75,1.69-.55,.29-1.43,.31-2.86,.31-.05-.42-.26-1.14-.47-1.59,1.01,.03,1.9,.03,2.18,0,.29,0,.39-.1,.39-.42v-7.59c-.75,.7-1.53,1.38-2.29,2.05l-.6-1.14c-.21,3.04-.65,6.37-1.66,8.94-.23-.34-.86-.96-1.2-1.17,1.35-3.69,1.48-8.81,1.48-12.53v-9.18h5.77v20.62Zm-4.26-11.44c0,1.27-.03,2.68-.1,4.19,.78-.49,1.79-1.25,2.86-2.05v-3.2l-1.04,.73c-.36-.65-1.04-1.53-1.72-2.34v2.68Zm0-7.41v3.95l.68-.42c.75,.83,1.59,1.85,2.08,2.57v-6.11h-2.76Zm14.53,17.63c-3.12,.73-6.37,1.4-8.79,1.95l-.44-1.69c1.3-.23,3.04-.55,4.89-.94,.57-1.33,1.2-3.2,1.51-4.5l1.74,.52c-.47,1.17-1.01,2.5-1.53,3.64l2.47-.52,.16,1.53Zm-5.43-16.3h-3.77v-1.59h3.77v-2.44h1.77v2.44h3.48v1.59h-3.48v2.13h3.3v1.59h-8.27v-1.59h3.2v-2.13Zm4.71,10.69h-7.64v-5.38h7.64v5.38Zm-6.03,4.71c-.18-.99-.7-2.52-1.25-3.67l1.4-.44c.57,1.12,1.12,2.6,1.3,3.59l-1.46,.52Zm4.34-8.68h-4.34v2.57h4.34v-2.57Zm8.68,4.89c-1.22,3.41-3.43,6.4-6.34,8.24-.29-.47-.81-1.04-1.27-1.38,2.68-1.53,4.84-4.34,5.9-7.36l1.72,.49Zm-.34-7.41c-1.12,2.55-2.96,5.04-4.91,6.66-.34-.42-.88-.91-1.35-1.25,1.77-1.38,3.61-3.74,4.55-5.98l1.72,.57Zm-.18-7.15c-1.12,2.39-2.91,4.84-4.68,6.42-.34-.42-.91-.91-1.35-1.22,1.64-1.35,3.41-3.64,4.34-5.75l1.69,.55Z"/>
    <path class="cls-7" d="M959.6,188.09v1.66h-22.65v-1.66h10.63c-.23-.75-.55-1.64-.81-2.37l1.87-.44c.36,.88,.75,1.98,1.04,2.81h9.91Zm-.83,18.98c0,.94-.23,1.33-.94,1.59-.68,.23-1.79,.26-3.43,.23-.1-.44-.39-1.04-.62-1.43,1.12,.05,2.31,.03,2.63,.03,.34-.03,.44-.1,.44-.42v-7.62h-17.08v9.65h-1.87v-11.28h20.88v9.26Zm-2.81-15.86v5.2h-15.08v-5.2h15.08Zm-2.34,15.11h-9.15v1.27h-1.79v-6.6h10.95v5.33Zm.36-13.68h-11.21v2.34h11.21v-2.34Zm-9.52,9.8v2.42h7.41v-2.42h-7.41Z"/>
    <path class="cls-7" d="M965.86,196.96c-.75-.81-2.31-2-3.56-2.76l.96-1.27c1.25,.75,2.83,1.85,3.61,2.68l-1.01,1.35Zm-3.28,10.76c.96-1.92,2.37-5.17,3.38-7.96l1.35,1.04c-.94,2.57-2.16,5.64-3.2,7.96l-1.53-1.04Zm1.59-21.81c1.22,.83,2.7,2.13,3.41,3.04l-1.14,1.22c-.68-.94-2.16-2.29-3.38-3.17l1.12-1.09Zm4.13,.47h6.06v7.57h-4.03c-.08,1.43-.18,2.94-.31,4.24h4.24s-.03,.52-.05,.78c-.31,6.11-.62,8.32-1.3,9.07-.42,.47-.86,.62-1.56,.7-.57,.05-1.77,.05-2.91-.03-.03-.49-.21-1.12-.44-1.56,1.17,.1,2.21,.1,2.63,.1,.39,.03,.62-.03,.83-.26,.44-.47,.75-2.34,1.01-7.18h-4.24c.26-1.98,.47-5.15,.55-7.54h3.98v-4.21h-4.45v-1.69Zm17.84,14.48c-.96,.86-2.08,1.77-3.12,2.47,1.01,1.53,2.24,2.83,3.51,3.64-.36,.34-.88,.99-1.14,1.43-2.6-1.85-4.81-5.59-6.03-9.49h-1.72v7.64l3.74-1.33c.03,.44,.13,1.12,.23,1.46-4.24,1.64-5.17,2.05-5.64,2.42l-.1,.08c-.13-.44-.42-1.35-.68-1.82,.36-.16,.81-.49,.81-1.43v-7.02h-1.25v-1.61h1.64v-10.61h9.33v1.59h-7.62v1.98h6.84v1.43h-6.84v2h6.84v1.46h-6.84v2.16h8.01v1.61h-5.3c.39,1.09,.86,2.18,1.46,3.2,.91-.75,1.92-1.69,2.57-2.42l1.3,1.17Z"/>
    <path class="cls-7" d="M723.18,224.25v20.88h-1.66v-4.81c-2.08,.34-4.08,.7-5.75,1.01l-.39-1.74c.49-.08,1.01-.16,1.59-.23v-15.11h-1.3v-1.77h8.53v1.77h-1.01Zm-1.66,0h-2.94v3.64h2.94v-3.64Zm0,5.28h-2.94v3.72h2.94v-3.72Zm0,9.13v-3.8h-2.94v4.24l2.94-.44Zm8.63-9.31c.52,1.38,1.09,3.2,1.33,4.24l-1.27,.42c-.08-.36-.21-.83-.34-1.35-4.52,.55-5.23,.68-5.59,.91-.05-.39-.29-1.27-.47-1.77,.47-.08,.94-.55,1.51-1.25,.34-.36,1.04-1.22,1.79-2.34-1.9,.16-2.34,.26-2.63,.42-.05-.42-.29-1.3-.47-1.79,.36-.05,.65-.39,1.04-.91,.39-.49,1.69-2.39,2.37-4.34l1.48,.68c-.83,1.69-1.87,3.43-2.89,4.68l2.03-.08c.44-.73,.91-1.51,1.3-2.26l1.38,.73c-1.4,2.31-3.02,4.63-4.63,6.4l3.41-.34c-.18-.6-.39-1.2-.57-1.72l1.22-.31Zm-1.12,4.81h1.66v3.98c0,2.52-.78,5.38-4.5,7.2-.18-.39-.75-1.07-1.07-1.35,2.44-1.12,3.38-2.6,3.72-4.11h-3.61v-5.72h1.59v4.06h2.21v-4.06Zm8.66-5.15c.62,1.38,1.35,3.25,1.69,4.34l-1.22,.49c-.13-.39-.29-.88-.47-1.4-4.58,.62-5.25,.75-5.67,.99-.08-.39-.23-1.25-.44-1.72,.42-.08,.88-.52,1.4-1.25,.29-.36,.96-1.25,1.66-2.42-2.05,.18-2.55,.29-2.78,.42-.08-.36-.29-1.22-.49-1.66,.36-.08,.7-.39,1.04-.86,.36-.49,1.61-2.39,2.31-4.26l1.35,.65c-.78,1.64-1.72,3.28-2.68,4.47l2.05-.1c.36-.68,.75-1.4,1.07-2.11l1.38,.73c-1.2,2.26-2.57,4.52-3.98,6.24l3.3-.36c-.21-.65-.47-1.25-.7-1.82l1.17-.36Zm-1.35,5.36h1.61v6.47h-1.61v-.99h-2.21v5.33h-1.69v-11.05h1.69v4.03h2.21v-3.8Z"/>
    <path class="cls-7" d="M745.64,229.14c-.91-.62-2.78-1.43-4.21-1.92l.96-1.33c1.43,.39,3.28,1.17,4.21,1.72l-.96,1.53Zm19.32,10.92h-10.74v5.1h-1.92v-5.1h-10.53v-1.77h10.53v-1.9h1.92v1.9h10.74v1.77Zm-22.8-4.6c1.38-1.25,3.41-3.35,5.07-5.3l1.04,1.3c-1.46,1.79-3.17,3.82-4.76,5.49l-1.35-1.48Zm5.36-10.48c-.94-.65-2.7-1.56-4.13-2.13l.96-1.33c1.43,.49,3.25,1.33,4.19,1.98l-1.01,1.48Zm2.11,2.55c-.52,.55-1.01,1.01-1.53,1.46-.34-.34-1.09-.94-1.53-1.22,2.11-1.59,4.06-4,5.25-6.53l1.79,.52c-.39,.81-.83,1.64-1.35,2.42h4.13c-.31-.68-.68-1.43-1.01-2.03l1.82-.52c.49,.75,1.04,1.79,1.35,2.55h5.23v1.51h-5.72v1.95h4.91v1.33h-4.91v1.87h4.99v1.33h-4.99v2h6.16v1.59h-12.69v1.12h-1.9v-9.33Zm6.58-1.85h-4.68v1.95h4.68v-1.95Zm0,3.28h-4.68v1.87h4.68v-1.87Zm0,3.2h-4.68v2h4.68v-2Z"/>
    <path class="cls-7" d="M780.84,221.91c-.13,.16-.23,.34-.36,.49,2.44,2.37,6.94,4.47,11,5.41-.42,.36-.94,1.04-1.22,1.51-2.11-.6-4.34-1.48-6.37-2.63v.81h-9.02v-.73c-1.98,1.12-4.19,2-6.37,2.68-.21-.36-.75-1.12-1.09-1.48,4.71-1.25,9.31-3.54,11.75-6.68l1.69,.62Zm-10.22,6.86h17.37v6.55h-17.37v-6.55Zm1.51,7.77h14.61v8.45h-1.95v-.78h-10.76v.86h-1.9v-8.53Zm.16-2.55h6.14v-3.88h-6.14v3.88Zm2.94-3.59c.68,.91,1.33,2.11,1.56,2.94l-1.48,.55c-.21-.83-.81-2.08-1.46-3.04l1.38-.44Zm-1.2,7.51v1.77h10.76v-1.77h-10.76Zm10.76,4.91v-1.77h-10.76v1.77h10.76Zm-1.95-16.74c-1.25-.78-2.42-1.66-3.41-2.6-.99,.96-2.13,1.85-3.38,2.6h6.79Zm3.41,4.03h-6.19v3.88h6.19v-3.88Zm-4.52,3.3c.47-.86,1.14-2.24,1.43-3.12l1.64,.52c-.57,1.12-1.22,2.29-1.77,3.07l-1.3-.47Z"/>
    <path class="cls-7" d="M815.82,228.18c-.55,3.93-1.48,7.49-2.96,10.37,1.2,2.08,2.68,3.8,4.47,4.89-.47,.36-1.09,1.14-1.43,1.66-1.64-1.14-3.02-2.73-4.13-4.68-1.33,2-2.96,3.61-5.04,4.68-.31-.49-.91-1.17-1.4-1.59l.26-.13h-1.61v-1.17h-5.17v1.64h-1.69v-8.42c-.34,2.89-1.04,5.9-2.44,8.24-.31-.36-1.07-.94-1.46-1.14,2.21-3.8,2.44-9.05,2.44-12.84v-6.4c3.17-.34,6.84-.96,8.92-1.66l1.48,1.4c-2.34,.75-5.64,1.27-8.61,1.61v1.59h8.24v6.29c1.77-2.7,2.73-6.81,3.25-11.13l1.92,.29c-.23,1.61-.52,3.2-.86,4.71h7.2v1.79h-1.38Zm-10.11,15.16c2.08-1.09,3.74-2.76,5.04-4.84-.96-2.11-1.74-4.5-2.34-7.07-.44,1.04-.91,1.98-1.48,2.83-.31-.36-1.07-1.07-1.51-1.35l.21-.31h-8.27c-.03,.75-.1,1.56-.18,2.37h8.53v8.37Zm-8.27-15.52v1.87c0,.42,0,.83-.03,1.3h6.53v-3.17h-6.5Zm6.53,12.79v-4.06h-5.17v4.06h5.17Zm5.56-12.43l-.08,.29c.55,2.89,1.3,5.64,2.37,8.04,1.07-2.39,1.82-5.2,2.29-8.32h-4.58Z"/>
    <path class="cls-7" d="M842.62,227.4s-.03,.73-.03,.99c-.29,10.89-.52,14.51-1.4,15.6-.44,.68-.96,.88-1.74,.96-.73,.1-1.95,.08-3.15,0-.05-.52-.26-1.33-.55-1.82,1.25,.1,2.39,.13,2.89,.13,.44,0,.68-.08,.94-.42,.6-.75,.91-4.19,1.17-13.62h-3.72c-.31,6.92-1.51,12.58-6.08,16.02-.29-.42-.96-1.07-1.43-1.38,.42-.29,.78-.6,1.12-.91-3.93,.47-7.96,.91-10.87,1.22l-.29-1.69c1.56-.13,3.51-.31,5.64-.52v-2.24h-4.91v-1.48h4.91v-1.59h-4.86v-7.72h4.86v-1.64h-5.62v-1.51h5.62v-1.72c-1.66,.13-3.35,.23-4.89,.29-.08-.42-.26-1.04-.47-1.43,3.85-.21,8.53-.68,11.21-1.27l.96,1.48c-1.4,.31-3.17,.55-5.07,.75v1.9h5.51v1.51h-5.51v1.64h5.04v7.72h-5.04v1.59h5.1v1.48h-5.1v2.05c1.69-.16,3.46-.34,5.2-.55v.1c2.24-3.07,2.94-7.25,3.17-12.12h-3.04v-1.82h3.09c.05-1.82,.05-3.72,.05-5.69h1.82c0,1.95,0,3.87-.05,5.69h5.51Zm-20.77,4.73h3.28v-1.87h-3.28v1.87Zm3.28,3.17v-1.9h-3.28v1.9h3.28Zm1.74-5.04v1.87h3.41v-1.87h-3.41Zm3.41,3.15h-3.41v1.9h3.41v-1.9Z"/>
    <path class="cls-7" d="M853.64,241.18c-1.59,1.33-4,2.6-6.06,3.38-.29-.31-1.01-.83-1.43-1.09,2.16-.7,4.45-1.74,5.85-2.89l1.64,.6Zm3.64-8.66h-10.66v-10.17h10.43v1.4h-3.82v1.51h3.22v4.26h-3.2v1.61h4.03v1.38Zm1.38,7.1v3.59c0,.96-.21,1.35-1.01,1.61-.78,.23-2.03,.23-3.93,.23-.13-.49-.44-1.04-.68-1.51,1.51,.05,2.83,.05,3.2,.03,.42-.03,.52-.13,.52-.42v-3.41c-7.7,.44-8.66,.57-9.36,.78-.05-.31-.23-1.09-.39-1.51,.83-.05,2-.34,3.43-.81,.88-.26,2.76-.88,4.94-1.82-4.89,.26-5.56,.34-6.03,.49-.05-.31-.26-1.07-.42-1.46,.52-.03,1.09-.16,1.82-.39,.78-.26,3.15-1.2,5.1-2.42l1.22,.88c-1.25,.7-2.52,1.3-3.8,1.79l5.1-.21c.96-.44,1.95-.94,2.94-1.46l1.2,1.04c-3.12,1.61-6.16,2.89-9.23,3.9l10.37-.55c-.65-.55-1.33-1.01-1.98-1.46l1.25-.83c1.9,1.22,4.03,2.91,5.1,4.08l-1.3,1.01c-.39-.47-.96-.99-1.59-1.59l-6.47,.36Zm-10.27-15.86v1.51h3.22v-1.51h-3.22Zm6.5,2.73h-6.5v1.85h6.5v-1.85Zm-6.5,4.65h3.25v-1.61h-3.25v1.61Zm19.71-8.16c-.73,2.73-2.03,4.86-3.67,6.53,1.35,1.01,2.91,1.82,4.65,2.29-.42,.36-.88,1.01-1.14,1.48-1.79-.6-3.41-1.48-4.78-2.63-1.35,1.09-2.94,1.9-4.58,2.5-.21-.42-.62-1.04-.96-1.38,1.56-.47,3.02-1.22,4.32-2.24-1.33-1.4-2.39-3.07-3.12-4.94l.91-.29h-1.69v-1.64h8.66l.31-.08,1.09,.39Zm-7.7,1.33c.62,1.56,1.59,2.94,2.78,4.13,1.17-1.14,2.08-2.52,2.7-4.13h-5.49Zm1.77,16.07c2.03,.83,4.65,2.13,6.06,2.96l-1.27,1.09c-1.4-.88-4-2.24-6.08-3.07l1.3-.99Z"/>
    <path class="cls-7" d="M873.92,238.24c-.29,2.24-.75,4.65-1.3,6.27-.31-.18-1.01-.44-1.35-.55,.55-1.59,.94-3.9,1.2-5.98l1.46,.26Zm11.18-10.56c-.39,1.46-.88,3.04-1.51,4.58v12.84h-1.64v-9.49c-.42,.68-.81,1.27-1.27,1.85-.23-.39-.7-.96-1.04-1.27,.1-.16,.23-.29,.34-.44l-1.22,.47c-.05-.18-.08-.42-.16-.65-5.36,.86-6.14,1.04-6.58,1.3-.08-.39-.34-1.22-.55-1.69,.52-.1,1.09-.75,1.82-1.72,.42-.49,1.22-1.61,2.13-3.04-2.7,.31-3.25,.44-3.59,.62-.08-.36-.34-1.22-.55-1.66,.44-.1,.86-.65,1.35-1.43,.57-.75,2.31-3.74,3.33-6.55l1.59,.7c-1.09,2.47-2.44,5.02-3.85,6.97l2.7-.26c.65-1.12,1.3-2.37,1.87-3.59l1.48,.88c-1.64,3.09-3.61,6.19-5.64,8.66l4.06-.6c-.29-.88-.62-1.82-.99-2.63l1.33-.49c.68,1.46,1.33,3.28,1.59,4.47,1.59-2.31,2.7-5.62,3.28-8.22l1.72,.39Zm-8.63,10.19c.34,1.74,.62,3.98,.7,5.49l-1.4,.36c-.08-1.53-.36-3.8-.65-5.56l1.35-.29Zm2.68-.65c.6,1.59,1.25,3.67,1.53,4.99l-1.35,.47c-.26-1.38-.86-3.46-1.43-5.04l1.25-.42Zm3.02-9.07h-1.74v-4.26h6.55c-.31-.65-.68-1.38-1.07-1.95l1.53-.68c.57,.78,1.14,1.85,1.43,2.63h5.88v3.9h-1.82v-2.26h-10.76v2.63Zm8.71,1.87c-.21,.88-.47,1.79-.7,2.6h4.19v12.35h-1.72v-1.07h-5.36v1.2h-1.66v-12.48h2.78c.21-.81,.42-1.74,.57-2.6h-3.93v-1.59h9.78v1.59h-3.95Zm1.77,4.19h-5.36v3.17h5.36v-3.17Zm0,8.11v-3.41h-5.36v3.41h5.36Z"/>
    <path class="cls-7" d="M902.26,225.97c-1.09,.73-2.24,1.43-3.3,1.95-.31-.34-1.01-1.04-1.43-1.35,2.83-1.25,5.82-3.2,7.62-5.33l1.77,.68c-.81,.91-1.74,1.85-2.78,2.65v5.28h-1.87v-3.88Zm4.94,16.07c-2.11,1.25-5.38,2.44-7.96,3.15-.31-.39-1.01-1.09-1.46-1.46,2.65-.55,5.77-1.48,7.64-2.47l1.77,.78Zm-6.14-11.49h16.82v10.43h-16.82v-10.43Zm1.87,3.07h13.03v-1.77h-13.03v1.77Zm0,3.02h13.03v-1.77h-13.03v1.77Zm0,3.07h13.03v-1.82h-13.03v1.82Zm9.05-10.24c-2.34,0-2.94-.78-2.94-2.81v-5.23h1.92v2.11h8.37v1.61h-8.37v1.56c0,.83,.18,1.14,1.12,1.14h5.75c.75,0,2-.05,2.57-.16,.05,.55,.13,1.17,.21,1.61-.49,.13-1.61,.16-2.65,.16h-5.98Zm1.07,11.7c2.78,.86,5.8,1.95,7.64,2.83l-1.69,1.12c-1.61-.86-4.45-1.98-7.23-2.89l1.27-1.07Z"/>
    <path class="cls-7" d="M945.45,225.58c-.6,2-1.59,3.67-2.83,4.99,1.3,1.2,2.86,2.11,4.6,2.68-.36,.29-.86,.94-1.07,1.35-1.79-.65-3.35-1.66-4.68-2.94-1.3,1.07-2.83,1.92-4.6,2.6-.18-.39-.68-1.14-.99-1.48,1.72-.57,3.22-1.35,4.47-2.34-.86-1.07-1.61-2.26-2.18-3.56-.47,.6-.94,1.12-1.48,1.59-.23-.29-.81-.88-1.2-1.17v6.66h-1.53v-6.97h-3.2v7.38h-1.33v-7.38h-3.22v7.67h-1.48v-8.97h4.5v-4.29h1.72v4.29h4.55v1.53c1.69-1.4,2.99-3.48,3.67-5.82l1.64,.34c-.23,.78-.52,1.59-.88,2.31h7.07v1.53h-1.53Zm-18.9-.03c-.31-.81-1.07-2.08-1.74-2.99l1.38-.6c.73,.86,1.48,2.05,1.79,2.89l-1.43,.7Zm18.02,16.2c0,.99-.23,1.48-1.04,1.74-.83,.29-2.18,.29-4.34,.29-.1-.49-.39-1.14-.65-1.61,1.64,.03,3.17,.03,3.59,.03,.42-.03,.55-.13,.55-.47v-4.03h-6.47v7.44h-1.9v-7.44h-6.01v6.16h-1.9v-7.85h7.9v-1.61h1.9v1.61h8.37v5.75Zm-15.91-13.6c-.23,1.53-.62,3.15-1.17,4.24-.23-.13-.7-.42-1.04-.52,.57-1.09,.88-2.52,1.09-3.95l1.12,.23Zm3.74-.23c.55,1.3,.99,2.99,1.12,4.06l-1.04,.31c-.1-1.09-.52-2.78-1.04-4.08l.96-.29Zm3.22-5.43c-.75,1.12-1.56,2.29-2.24,3.07l-1.17-.52c.6-.88,1.38-2.26,1.79-3.17l1.61,.62Zm3.61,3.09c.52,1.4,1.27,2.68,2.24,3.8,.94-1.04,1.66-2.31,2.16-3.8h-4.39Z"/>
    <path class="cls-7" d="M971.43,227.99c-.7,4.32-1.74,7.8-3.43,10.63,1.4,2.16,3.17,3.82,5.41,4.86-.42,.39-1.01,1.14-1.33,1.64-2.13-1.12-3.85-2.76-5.23-4.78-1.48,1.95-3.41,3.56-5.85,4.84-.21-.44-.75-1.27-1.12-1.69,2.55-1.22,4.45-2.83,5.9-4.91-1.14-2.13-2-4.63-2.68-7.38-.52,1.04-1.09,2-1.69,2.83-.31-.34-1.12-.99-1.53-1.27l.13-.18h-2.91v6.6l4.45-1.01,.18,1.74c-4.26,1.04-8.87,2.13-12.09,2.86l-.36-1.92,1.53-.31v-11.54h1.77v11.15l2.65-.57v-14.48h-5.51v-1.87h11.88v1.87h-4.5v5.67h3.54v.91c1.74-2.7,2.91-6.4,3.61-10.3l1.92,.34c-.31,1.53-.7,3.07-1.12,4.47h8.11v1.82h-1.74Zm-7.15,.44c.6,3.07,1.43,5.9,2.63,8.29,1.25-2.39,2.05-5.3,2.57-8.74h-5.02l-.18,.44Z"/>
    <path class="cls-7" d="M988.46,236.73c2.05,2.29,6.16,4.71,10.89,5.75-.39,.42-.94,1.2-1.22,1.69-3.98-1.07-7.44-3.2-9.67-5.3v6.24h-2.03v-6.29c-2.55,2.5-6.11,4.47-9.7,5.46-.23-.49-.78-1.22-1.22-1.61,4.29-.99,8.63-3.3,10.92-6.14v-2.24h-6.4v4.99h-2v-6.68h8.4v-2h-10.27v-1.72h10.27v-1.61h2.03v1.61h9.91v1.72h-9.91v2h8.42v4.78c0,.94-.18,1.33-.86,1.61-.65,.26-1.69,.26-3.15,.26-.1-.49-.42-1.09-.65-1.53,1.04,.05,2.05,.03,2.34,.03,.31,0,.39-.1,.39-.36v-3.09h-6.5v2.44Zm-8.84-11.96c-.81,1.3-1.74,2.5-2.68,3.38-.29-.34-.94-.96-1.35-1.27,1.59-1.43,3.04-3.51,3.93-5.67l1.69,.47c-.21,.52-.44,1.01-.7,1.53h6.66v1.56h-4.91c.86,.73,1.85,1.69,2.34,2.34l-1.27,1.09c-.49-.75-1.59-1.87-2.5-2.68l1.01-.75h-2.21Zm10.71,0c-.62,.91-1.3,1.74-2.03,2.42-.31-.31-1.01-.88-1.43-1.14,1.4-1.2,2.57-2.96,3.22-4.84l1.77,.42c-.18,.55-.42,1.07-.68,1.61h7.85v1.53h-5.59c.91,.73,2,1.66,2.57,2.34l-1.27,1.12c-.57-.7-1.74-1.79-2.68-2.55l1.12-.91h-2.86Z"/>
  </g>
  <g>
    <path class="cls-7" d="M69.16,163.54c-.62,1.85-1.72,3.87-2.68,5.17-.31-.23-.96-.73-1.35-.94,1.01-1.22,1.92-2.99,2.44-4.68l1.59,.44Zm3.2-1.82v9.02h-1.9v-9.02h-5.17v-1.66h5.17v-2.73h-5.3v-1.64h7.18c.49-1.2,1.09-2.91,1.4-4.11l1.77,.36c-.47,1.25-.96,2.65-1.46,3.74h3.3v1.64h-4.99v2.73h4.71v1.66h-4.71Zm4.6-10.3h-11.39v-1.61h5.1c-.34-.78-.78-1.66-1.14-2.37l1.87-.49c.55,.88,1.12,2,1.48,2.86h4.08v1.61Zm-8.71,4.16c-.13-.96-.55-2.47-.99-3.61l1.53-.36c.52,1.12,.96,2.57,1.07,3.54l-1.61,.44Zm6.6,7.36c.83,1.27,1.74,2.96,2.18,4.08l-1.38,.78c-.42-1.12-1.35-2.91-2.13-4.16l1.33-.7Zm13.83-5.33h-2.83v13.1h-1.87v-13.1h-3.56v.91c0,3.72-.34,8.81-2.71,12.19-.31-.36-1.07-.96-1.48-1.17,2.18-3.12,2.39-7.57,2.39-11.02v-8.94c2.91-.47,6.21-1.25,8.09-2.03l1.53,1.43c-2.13,.81-5.1,1.46-7.83,1.87v4.94h8.27v1.82Z"/>
    <path class="cls-7" d="M110.78,168.77c1.85,0,2.13-.49,2.31-3.51,.47,.31,1.22,.6,1.77,.7-.34,3.61-.96,4.55-4.03,4.55h-7.57c-3.41,0-4.37-.6-4.37-2.94v-7.44h-2.78v1.77c0,2.78-.7,6.42-3.93,8.94-.26-.39-.94-1.12-1.33-1.35,2.94-2.26,3.46-5.28,3.46-7.62v-1.74h-2.99v-1.79h11.86v1.79h-2.47v7.44c0,.96,.39,1.2,2.55,1.2h7.51Zm-16.87-15.96h-1.9v-4.45h21.76v4.45h-1.92v-2.65h-17.94v2.65Zm-.75,.44h9.05v1.79h-9.05v-1.79Zm18.41,11.88c0,.99-.23,1.48-.91,1.79-.73,.26-1.79,.31-3.48,.29-.08-.49-.34-1.2-.6-1.69,1.25,.03,2.37,.03,2.7,.03,.34-.03,.44-.1,.44-.44v-7.85h-6.58v-1.74h6.58v-3.25h1.85v3.25h2.86v1.74h-2.86v7.88Zm-6.03-6.47c1.01,1.33,1.95,3.09,2.34,4.34l-1.64,.73c-.34-1.22-1.25-3.12-2.21-4.47l1.51-.6Z"/>
    <path class="cls-7" d="M140.66,150.05v1.77h-17.68v5.9c0,4.06-.47,9.54-3.69,13.18-.29-.36-1.09-.94-1.53-1.17,2-2.24,2.81-5.1,3.12-7.88-1.14,.73-2.29,1.46-3.33,2.11l-.7-1.74c1.07-.55,2.6-1.43,4.19-2.34,.05-.75,.05-1.46,.05-2.16v-1.27l-1.59,.73c-.42-1.2-1.48-3.07-2.39-4.5l1.56-.62c.86,1.27,1.9,3.04,2.42,4.19v-6.19h9.13c-.31-.81-.75-1.82-1.14-2.6l1.85-.49c.57,.99,1.17,2.26,1.43,3.09h8.32Zm-2.39,11.49c-1.04,2.68-2.83,4.63-5.04,6.06,1.95,.81,4.32,1.3,6.99,1.56-.36,.42-.86,1.17-1.07,1.69-3.07-.39-5.67-1.09-7.85-2.18-2.26,1.07-4.89,1.77-7.57,2.21-.16-.49-.49-1.22-.83-1.64,2.34-.29,4.63-.81,6.63-1.64-1.77-1.25-3.12-2.86-4.11-4.86h-.57v-1.66h11.91l.34-.08,1.17,.55Zm-2.24-4.29c0,.7,.08,.94,.47,.94h2c.39,0,.91-.03,1.27-.13,.05,.55,.13,1.3,.18,1.77-.34,.13-.91,.13-1.43,.13h-2.08c-1.87,0-2.29-.73-2.29-2.73v-2.16h-5.46v.75c0,1.87-.75,3.9-4.06,5.15-.18-.42-.81-1.17-1.17-1.46,2.94-1.01,3.43-2.37,3.43-3.77v-2.34h9.13v3.85Zm-8.74,5.49c.91,1.66,2.29,2.99,4.08,4,1.82-1.01,3.33-2.31,4.32-4h-8.4Z"/>
    <path class="cls-7" d="M142.74,158.71c.62-1.74,1.09-4.58,1.27-6.63l1.53,.23c-.13,2.05-.6,5.02-1.22,6.94l-1.59-.55Zm3.93-11.62h1.79v23.71h-1.79v-23.71Zm3.3,3.74c.62,1.22,1.35,2.86,1.64,3.82l-1.38,.75c-.29-1.04-.99-2.73-1.59-4l1.33-.57Zm16.69,4.65v1.48h-15.81v-1.48h6.84v-1.82h-5.46v-1.4h5.46v-1.64h-6.16v-1.48h6.16v-2.03h1.9v2.03h6.27v1.48h-6.27v1.64h5.59v1.4h-5.59v1.82h7.07Zm-1.61,13.26c0,.99-.21,1.48-.91,1.74-.75,.31-1.9,.31-3.74,.31-.08-.49-.31-1.2-.55-1.66,1.3,.05,2.55,.05,2.89,.03,.36-.03,.47-.13,.47-.44v-1.95h-9.1c-.26,1.56-.75,3.12-1.72,4.37-.29-.39-1.01-1.12-1.4-1.33,1.43-1.95,1.59-4.58,1.59-6.6v-4.76h12.48v10.3Zm-1.85-3.41v-1.98h-8.81c0,.6-.03,1.3-.08,1.98h8.89Zm-8.81-5.43v2h8.81v-2h-8.81Z"/>
    <path class="cls-7" d="M175.57,168.17c-.44-.94-1.51-2.68-2.39-4-.52,2.42-1.48,4.68-3.09,6.73-.26-.39-.86-.94-1.22-1.2,3.04-3.88,3.38-8.81,3.38-13.57v-8.92h1.61v8.94c0,2.03-.05,4-.31,5.95,.81,1.07,2.83,4.03,3.3,4.76l-1.27,1.3Zm-5.49-9.46c-.18-1.66-.7-4.6-1.17-6.84l1.38-.31c.52,2.26,1.07,5.12,1.27,6.73l-1.48,.42Zm7.1-6.47c-.55,1.95-1.09,4.45-1.61,5.98l-1.12-.49c.42-1.61,.99-4.26,1.2-6.06l1.53,.57Zm11.36,8.92c1.14,1.27,2.96,2.52,4.55,3.15-.34,.31-.81,.86-1.09,1.27-1.85-.91-3.9-2.68-5.1-4.42h-4.58c-1.25,1.64-3.43,3.38-5.23,4.24-.23-.39-.7-.94-1.07-1.22,1.53-.6,3.3-1.79,4.5-3.02h-4.06v-1.46h4.21v-1.85h-3.3v-1.4h3.3v-1.59h-2.6v-6.99h13.03v6.99h-2.94v1.59h3.64v1.4h-3.64v1.85h4.39v1.46h-4.03Zm-5.62,6.16c-1.92,1.07-3.93,2.16-5.56,3.02l-.75-1.38c1.51-.68,3.74-1.79,5.93-2.94l.39,1.3Zm-1.64-1.07c-.39-.6-1.2-1.51-1.87-2.13l1.25-.75c.7,.62,1.53,1.46,1.95,2.05l-1.33,.83Zm-1.48-15.55h9.52v-1.51h-9.52v1.51Zm0,2.83h9.52v-1.59h-9.52v1.59Zm3.87,8.37h1.61v7.18c0,.83-.16,1.25-.81,1.48-.57,.26-1.53,.26-3.09,.26-.1-.42-.39-.99-.6-1.4,1.14,.03,2.18,.03,2.47,.03,.31-.03,.42-.1,.42-.39v-7.15Zm-1.22-5.46h3.95v-1.59h-3.95v1.59Zm0,3.25h3.95v-1.85h-3.95v1.85Zm4.11,6.5c1.95,.86,4.06,1.98,5.3,2.86l-1.07,1.2c-1.2-.91-3.25-2.08-5.12-2.94l.88-1.12Zm2.73-2.08c-.68,.81-1.72,1.64-2.39,2.16l-.99-.91c.68-.57,1.72-1.59,2.29-2.21l1.09,.96Z"/>
    <path class="cls-7" d="M204.75,163.39s-.03,.55-.08,.75c-.31,3.64-.65,5.17-1.27,5.77-.44,.44-.96,.6-1.72,.65-.65,.05-2.03,.03-3.43-.05-.03-.52-.29-1.2-.57-1.66,1.4,.13,2.83,.16,3.33,.16,.47,0,.73-.03,.94-.23,.39-.34,.68-1.4,.91-3.87h-5.96c.31-1.53,.68-3.85,.91-5.69h5.15v-2.73h-4.34v-.31c-.94,.49-1.9,.91-2.89,1.22-.21-.42-.68-1.09-1.04-1.43,1.74-.52,3.54-1.38,5.12-2.44-.78-.73-1.95-1.64-2.94-2.24l1.12-1.07c1.07,.62,2.34,1.53,3.09,2.31,.99-.83,1.85-1.77,2.5-2.76h-6.03v-1.59h7.05l.34-.08,1.2,.62c-1.14,2.6-3.15,4.65-5.46,6.21h4.03v5.77h-5.49c-.13,.91-.26,1.85-.39,2.68h5.93Zm11.44-.7c-.73,1.9-1.9,3.46-3.35,4.68,1.38,.86,2.63,1.64,3.51,2.29l-.96,1.25c-.94-.7-2.31-1.61-3.82-2.55-1.77,1.17-3.8,1.98-5.95,2.52-.18-.44-.55-1.09-.88-1.43,1.9-.42,3.74-1.09,5.33-2.03-1.4-.83-2.83-1.69-4.11-2.39l.94-1.07c1.38,.73,2.99,1.66,4.52,2.55,.99-.81,1.85-1.72,2.5-2.78h-7.96v-1.4h8.87l.31-.08,1.07,.44Zm1.92-11.83c-1.07,1.01-2.47,2.08-3.67,2.86,1.38,.81,2.86,1.43,4.45,1.85-.42,.36-.88,1.04-1.17,1.51-1.33-.42-2.57-.94-3.72-1.59v3.46c0,.57,.05,.75,.44,.75h1.92c.34,0,.91-.03,1.25-.1,0,.42,.05,.99,.1,1.38-.29,.1-.81,.1-1.33,.1h-2.13c-1.59,0-1.9-.62-1.9-2.16v-2.52h-3.54v.52c0,1.66-.55,3.59-2.83,4.91-.26-.34-.88-.96-1.25-1.2,2.05-1.12,2.42-2.52,2.42-3.77v-2.03h5.77c-2.68-1.79-4.84-4.26-6.19-7.23l1.53-.47c.52,1.12,1.2,2.16,2.03,3.15,1.12-.91,2.5-2.13,3.28-3.02l1.43,1.01c-1.12,1.07-2.57,2.18-3.74,3.02,.55,.57,1.2,1.09,1.9,1.59,1.17-.86,2.65-2.11,3.51-3.02l1.43,.99Z"/>
  </g>
  <g>
    <path class="cls-7" d="M425.98,53.92c-.05-.39-.16-.88-.29-1.4-5.51,.83-6.29,1.01-6.81,1.27-.1-.39-.39-1.33-.62-1.79,.57-.13,1.17-.78,1.92-1.72,.39-.47,1.2-1.56,2.13-2.94-2.68,.31-3.22,.42-3.59,.6-.1-.39-.39-1.22-.6-1.72,.44-.1,.88-.62,1.43-1.43,.55-.75,2.37-3.74,3.43-6.53l1.72,.7c-1.14,2.44-2.55,4.94-3.95,6.92l2.68-.23c.65-1.09,1.33-2.26,1.87-3.46l1.66,.99c-1.66,2.96-3.69,5.98-5.77,8.37l4.08-.52c-.29-.88-.57-1.77-.88-2.55l1.48-.42c.7,1.72,1.43,3.98,1.69,5.33l-1.59,.52Zm-4.99,1.25c-.26,2.26-.75,4.76-1.33,6.4-.34-.18-1.14-.44-1.53-.6,.6-1.61,.99-3.93,1.25-6.06l1.61,.26Zm2.52-.31c.34,1.72,.65,3.95,.73,5.46l-1.56,.26c-.05-1.46-.34-3.72-.65-5.49l1.48-.23Zm2.42-.68c.52,1.38,1.12,3.17,1.33,4.34l-1.43,.49c-.23-1.2-.78-3.02-1.27-4.39l1.38-.44Zm15.89,5.46v1.77h-14.85v-1.77h6.63v-4.94h-5.17v-1.74h12.35v1.74h-5.28v4.94h6.32Zm-11.13-7.57c-.55-1.35-1.77-3.35-3.09-5.12,1.01-1.59,2.13-3.56,2.73-4.78l1.69,.44c-.7,1.33-1.69,2.99-2.57,4.29,1.14,1.51,2.29,3.33,2.86,4.5l-1.61,.68Zm10.87-10.74h-13.7v-1.77h13.7v1.77Zm-5.07,1.3c-.73,1.3-1.74,2.96-2.6,4.24,1.14,1.48,2.34,3.28,2.94,4.42l-1.61,.73c-.55-1.35-1.82-3.35-3.22-5.1,1.07-1.56,2.21-3.51,2.81-4.73l1.69,.44Zm3.35,9.44c-.65-1.35-2.03-3.38-3.48-5.12,1.09-1.59,2.29-3.56,2.89-4.78l1.72,.47c-.75,1.33-1.79,2.96-2.68,4.26,1.22,1.46,2.5,3.25,3.12,4.42l-1.56,.75Z"/>
    <path class="cls-7" d="M445.06,45.76c1.38,.7,3.15,1.85,4.06,2.7l-1.01,1.33c-.86-.86-2.63-2.05-4-2.83l.96-1.2Zm-.7,14.87c1.01-2,2.42-5.33,3.43-8.19l1.3,.96c-.96,2.68-2.24,5.85-3.28,8.19l-1.46-.96Zm4.19-17.55c-.75-1.01-2.39-2.44-3.74-3.41l1.04-1.12c1.35,.91,2.99,2.29,3.8,3.25l-1.09,1.27Zm14.69,7.9h1.82v11.08h-1.82v-4.11h-9.41c-.44,1.51-1.3,2.99-2.94,4.13-.31-.34-.99-.83-1.46-1.04,2.68-1.87,3.07-4.58,3.07-6.58v-3.46h1.79v1.69h8.94v-1.72Zm-6.86-6.53s-.03,.39-.03,.62c-.1,3.3-.18,4.58-.57,5.02-.23,.31-.55,.47-1.04,.49-.34,.05-.91,.05-1.4,.03-.03-.42-.16-.94-.34-1.3,.57,.05,.96,.05,1.17,.05,.23,.03,.36-.03,.47-.18,.18-.26,.23-1.12,.34-3.41h-1.48c-.36,2.42-1.27,4.19-2.99,5.3-.13-.29-.57-.83-.86-1.09,1.4-.91,2.16-2.31,2.47-4.21h-1.48v-1.33h5.75Zm11.18-2.11h-17.08v-1.59h7.38c-.13-.75-.34-1.72-.6-2.44l1.77-.23c.31,.83,.62,1.95,.75,2.68h7.77v1.59Zm-4.32,14.04v-2.13h-8.94v.23c0,.6-.03,1.25-.13,1.9h9.07Zm-6.14-11.31c-.18-.62-.68-1.51-1.14-2.16l1.09-.47c.52,.63,1.01,1.46,1.22,2.03l-1.17,.6Zm4.78-2.18c-.75,.88-1.72,1.79-2.47,2.5v5.49h-1.48v-5.49c.86-.83,1.98-2.13,2.55-3.02l1.4,.52Zm4.78,1.56c-.49,.26-1.04,.49-1.66,.73,.52,1.87,1.38,3.67,2.63,4.52-.31,.23-.7,.7-.91,1.04-1.35-1.09-2.26-3.09-2.76-5.23-.52,.16-1.04,.29-1.51,.42v3.28l2.08-.6c.03,.34,.13,.83,.21,1.09-2.65,.88-3.17,1.12-3.46,1.35v-.03c-.13-.31-.44-.96-.65-1.27,.26-.18,.57-.57,.57-1.56v-3.15c1.53-.39,3.28-.99,4.26-1.59l1.2,.99Z"/>
    <path class="cls-7" d="M491.94,53.92c-.96,1.9-2.42,3.41-4.24,4.6,1.92,.78,4.06,1.33,6.27,1.69-.39,.44-.91,1.2-1.17,1.72-2.5-.49-4.86-1.25-6.97-2.31-2.42,1.22-5.23,1.98-8.06,2.47-.18-.49-.57-1.25-.91-1.66,2.5-.31,4.97-.91,7.12-1.85-1.09-.65-2.08-1.43-2.99-2.26-.81,.65-1.64,1.25-2.47,1.74-.26-.34-.96-.99-1.33-1.27,.91-.47,1.79-1.07,2.6-1.69-.49-.62-.99-1.25-1.38-1.92l1.43-.55c.34,.49,.73,.99,1.17,1.48,.75-.75,1.48-1.53,2-2.37h-2.68v-7.23c-.44,.55-.86,1.07-1.33,1.48-.31-.26-.96-.75-1.4-1.01-.55,.96-1.2,1.92-1.9,2.91v14.12h-1.92v-11.75c-.91,1.04-1.9,1.95-2.81,2.73-.18-.42-.7-1.4-1.04-1.87,2.26-1.72,4.63-4.37,6.08-7.07l1.66,.65c1.74-1.59,3.17-3.95,4.03-6.42l1.79,.47c-.26,.7-.57,1.43-.88,2.11h10.87v1.61h-11.75c-.36,.6-.73,1.14-1.12,1.69h11.31v7.59h-6.92c-.31,.55-.7,1.12-1.14,1.64h6.53l.34-.1,1.2,.65Zm-14.48-14.9c-1.46,2.26-3.87,4.71-6.08,6.27-.23-.44-.73-1.2-1.04-1.59,1.98-1.33,4.19-3.51,5.28-5.36l1.85,.68Zm4.63,8.24h8.04v-1.72h-8.04v1.72Zm0,3.09h8.04v-1.77h-8.04v1.77Zm.13,4.89c1.04,.91,2.29,1.72,3.67,2.44,1.38-.78,2.52-1.72,3.38-2.83h-6.66l-.39,.39Z"/>
    <path class="cls-7" d="M503.22,52.8c-.18,1.61-.57,3.12-1.27,4.55,2.52,1.98,6.11,2.42,10.4,2.42,.96,.03,6.47,0,7.77-.03-.29,.42-.62,1.22-.73,1.72h-7.1c-4.76,0-8.5-.52-11.21-2.7-.88,1.2-2.11,2.29-3.77,3.25-.23-.36-.78-1.01-1.14-1.3,1.64-.94,2.81-2.03,3.61-3.2-.81-.96-1.51-2.11-2.08-3.54l1.4-.62c.42,1.04,.91,1.92,1.51,2.68,.44-1.01,.73-2.11,.88-3.22h-4.42v-9.33h4.6v-2.24h-5.04v-1.74h12.06v1.74h-5.33v2.24h4.71v9.33h-4.86Zm-4.55-5.38h3.02v-2.5h-3.02v2.5Zm2.96,3.93c.05-.62,.05-1.27,.05-1.92v-.62h-3.02v2.55h2.96Zm4.76-2.55h-3.02v.62c0,.65,0,1.3-.05,1.92h3.07v-2.55Zm-3.02-3.87v2.5h3.02v-2.5h-3.02Zm7.57-.36c-.39,1.33-.86,2.5-1.4,3.43-.29-.26-.99-.75-1.38-1.01,1.09-1.79,1.72-4.47,2.05-7.18l1.69,.29c-.16,.96-.34,1.92-.55,2.83h2.18v-4.19h1.72v4.19h4v1.64h-4v4.06h3.82v1.64h-3.82v4.84h4.58v1.64h-11.73v-1.64h5.43v-4.84h-3.77v-1.64h3.77v-4.06h-2.6Z"/>
  </g>
  <g>
    <g>
      <path class="cls-6" d="M145.23,326.21c5.02-4.78,8.32-8.06,8.32-10.84,0-1.9-1.04-3.04-2.89-3.04-1.4,0-2.55,.94-3.54,2l-2.08-2.08c1.77-1.9,3.48-2.94,6.11-2.94,3.64,0,6.06,2.31,6.06,5.85,0,3.28-3.02,6.66-6.45,10.24,.96-.1,2.24-.21,3.15-.21h4.21v3.22h-12.9v-2.21Z"/>
      <path class="cls-6" d="M160.57,318.95c0-6.34,2.57-9.65,6.53-9.65s6.5,3.33,6.5,9.65-2.55,9.83-6.5,9.83-6.53-3.46-6.53-9.83Zm9.41,0c0-5.2-1.22-6.66-2.89-6.66s-2.91,1.46-2.91,6.66,1.25,6.84,2.91,6.84,2.89-1.61,2.89-6.84Z"/>
      <path class="cls-6" d="M175.85,326.21c5.02-4.78,8.32-8.06,8.32-10.84,0-1.9-1.04-3.04-2.89-3.04-1.4,0-2.55,.94-3.54,2l-2.08-2.08c1.77-1.9,3.48-2.94,6.11-2.94,3.64,0,6.06,2.31,6.06,5.85,0,3.28-3.02,6.66-6.45,10.24,.96-.1,2.24-.21,3.15-.21h4.21v3.22h-12.9v-2.21Z"/>
      <path class="cls-6" d="M191.19,318.95c0-6.34,2.57-9.65,6.53-9.65s6.5,3.33,6.5,9.65-2.55,9.83-6.5,9.83-6.53-3.46-6.53-9.83Zm9.41,0c0-5.2-1.22-6.66-2.89-6.66s-2.91,1.46-2.91,6.66,1.25,6.84,2.91,6.84,2.89-1.61,2.89-6.84Z"/>
      <path class="cls-6" d="M213.61,328.62c-4.11-.78-6.84-4.42-6.84-9.91,0-6.27,3.51-9.91,8.61-9.91s8.61,3.67,8.61,9.91c0,5.25-2.5,8.79-6.32,9.78,.88,1.46,2.63,2.05,4.37,2.05,.83,0,1.56-.13,2.11-.31l.7,2.83c-.68,.31-1.85,.57-3.25,.57-3.93,0-6.66-2.11-7.98-5.02Zm6.45-9.91c0-4.13-1.82-6.6-4.68-6.6s-4.68,2.47-4.68,6.6,1.82,6.92,4.68,6.92,4.68-2.6,4.68-6.92Z"/>
      <path class="cls-6" d="M227.52,325.32h4.13v-11.67h-3.48v-2.37c1.92-.36,3.25-.86,4.47-1.61h2.83v15.65h3.61v3.09h-11.57v-3.09Z"/>
      <path class="cls-6" d="M242.54,316.43c0-1.43,1.01-2.5,2.37-2.5s2.39,1.07,2.39,2.5-1.01,2.47-2.39,2.47-2.37-1.07-2.37-2.47Zm0,9.85c0-1.43,1.01-2.5,2.37-2.5s2.39,1.07,2.39,2.5-1.01,2.5-2.39,2.5-2.37-1.09-2.37-2.5Z"/>
      <path class="cls-6" d="M250.42,319.6h7.1v2.73h-7.1v-2.73Z"/>
      <path class="cls-6" d="M260.9,325.32h4.13v-11.67h-3.48v-2.37c1.92-.36,3.25-.86,4.47-1.61h2.83v15.65h3.61v3.09h-11.57v-3.09Z"/>
      <path class="cls-6" d="M275.43,326.59l2.03-2.31c.68,.78,1.85,1.38,2.96,1.38,2.21,0,4.03-1.61,4.19-6.45-1.07,1.33-2.7,2.11-3.95,2.11-3.22,0-5.54-1.87-5.54-5.8s2.76-6.21,6.06-6.21c3.64,0,6.92,2.78,6.92,9.23,0,7.15-3.56,10.24-7.44,10.24-2.37,0-4.11-1.01-5.23-2.18Zm5.95-8.01c1.01,0,2.24-.6,3.12-2.05-.39-3.15-1.69-4.34-3.28-4.34-1.43,0-2.6,1.09-2.6,3.33,0,2.11,1.07,3.07,2.76,3.07Z"/>
      <path class="cls-6" d="M291.24,326.28c0-1.43,1.01-2.5,2.37-2.5s2.39,1.07,2.39,2.5-1.01,2.5-2.39,2.5-2.37-1.09-2.37-2.5Z"/>
      <path class="cls-6" d="M299.12,319.55c0-7.15,3.56-10.24,7.46-10.24,2.34,0,4.06,.99,5.2,2.18l-2.03,2.29c-.68-.75-1.85-1.38-2.96-1.38-2.21,0-4.03,1.64-4.19,6.47,1.07-1.33,2.7-2.11,3.95-2.11,3.22,0,5.54,1.85,5.54,5.77s-2.76,6.24-6.06,6.24c-3.64,0-6.92-2.81-6.92-9.23Zm3.59,1.98c.36,3.17,1.66,4.37,3.25,4.37,1.46,0,2.63-1.12,2.63-3.35,0-2.11-1.09-3.07-2.76-3.07-.99,0-2.16,.55-3.12,2.05Z"/>
      <path class="cls-6" d="M313.99,314.87c0-3.85,1.92-6.06,4.68-6.06s4.71,2.21,4.71,6.06-1.95,6.14-4.71,6.14-4.68-2.26-4.68-6.14Zm6.68,0c0-2.83-.88-3.9-2-3.9s-1.98,1.07-1.98,3.9,.86,3.98,1.98,3.98,2-1.14,2-3.98Zm9.1-6.06h2.26l-10.45,19.97h-2.26l10.45-19.97Zm-1.79,13.83c0-3.87,1.95-6.08,4.68-6.08s4.71,2.21,4.71,6.08-1.98,6.14-4.71,6.14-4.68-2.29-4.68-6.14Zm6.68,0c0-2.83-.88-3.93-2-3.93s-1.98,1.09-1.98,3.93,.86,3.95,1.98,3.95,2-1.12,2-3.95Z"/>
      <path class="cls-6" d="M145.23,362.21c5.02-4.78,8.32-8.06,8.32-10.84,0-1.9-1.04-3.04-2.89-3.04-1.4,0-2.55,.94-3.54,2l-2.08-2.08c1.77-1.9,3.48-2.94,6.11-2.94,3.64,0,6.06,2.31,6.06,5.85,0,3.28-3.02,6.66-6.45,10.24,.96-.1,2.24-.21,3.15-.21h4.21v3.22h-12.9v-2.21Z"/>
      <path class="cls-6" d="M160.57,354.95c0-6.34,2.57-9.65,6.53-9.65s6.5,3.33,6.5,9.65-2.55,9.83-6.5,9.83-6.53-3.46-6.53-9.83Zm9.41,0c0-5.2-1.22-6.66-2.89-6.66s-2.91,1.46-2.91,6.66,1.25,6.84,2.91,6.84,2.89-1.61,2.89-6.84Z"/>
      <path class="cls-6" d="M175.85,362.21c5.02-4.78,8.32-8.06,8.32-10.84,0-1.9-1.04-3.04-2.89-3.04-1.4,0-2.55,.94-3.54,2l-2.08-2.08c1.77-1.9,3.48-2.94,6.11-2.94,3.64,0,6.06,2.31,6.06,5.85,0,3.28-3.02,6.66-6.45,10.24,.96-.1,2.24-.21,3.15-.21h4.21v3.22h-12.9v-2.21Z"/>
      <path class="cls-6" d="M191.19,354.95c0-6.34,2.57-9.65,6.53-9.65s6.5,3.33,6.5,9.65-2.55,9.83-6.5,9.83-6.53-3.46-6.53-9.83Zm9.41,0c0-5.2-1.22-6.66-2.89-6.66s-2.91,1.46-2.91,6.66,1.25,6.84,2.91,6.84,2.89-1.61,2.89-6.84Z"/>
      <path class="cls-6" d="M213.61,364.62c-4.11-.78-6.84-4.42-6.84-9.91,0-6.27,3.51-9.91,8.61-9.91s8.61,3.67,8.61,9.91c0,5.25-2.5,8.79-6.32,9.78,.88,1.46,2.63,2.05,4.37,2.05,.83,0,1.56-.13,2.11-.31l.7,2.83c-.68,.31-1.85,.57-3.25,.57-3.93,0-6.66-2.11-7.98-5.02Zm6.45-9.91c0-4.13-1.82-6.6-4.68-6.6s-4.68,2.47-4.68,6.6,1.82,6.92,4.68,6.92,4.68-2.6,4.68-6.92Z"/>
      <path class="cls-6" d="M226.5,362.21c5.02-4.78,8.32-8.06,8.32-10.84,0-1.9-1.04-3.04-2.89-3.04-1.4,0-2.55,.94-3.54,2l-2.08-2.08c1.77-1.9,3.48-2.94,6.11-2.94,3.64,0,6.06,2.31,6.06,5.85,0,3.28-3.02,6.66-6.45,10.24,.96-.1,2.24-.21,3.15-.21h4.21v3.22h-12.9v-2.21Z"/>
      <path class="cls-6" d="M245.77,354.9c-.81,0-1.53,.57-2.16,1.72l-2-1.51c1.35-2.13,2.81-2.94,4.24-2.94,2.39,0,3.48,2.29,5.1,2.29,.83,0,1.53-.57,2.16-1.72l2,1.53c-1.33,2.11-2.81,2.91-4.21,2.91-2.39,0-3.48-2.29-5.12-2.29Z"/>
      <path class="cls-6" d="M264.25,364.62c-4.11-.78-6.84-4.42-6.84-9.91,0-6.27,3.51-9.91,8.61-9.91s8.61,3.67,8.61,9.91c0,5.25-2.5,8.79-6.32,9.78,.88,1.46,2.63,2.05,4.37,2.05,.83,0,1.56-.13,2.11-.31l.7,2.83c-.68,.31-1.85,.57-3.25,.57-3.93,0-6.66-2.11-7.98-5.02Zm6.45-9.91c0-4.13-1.82-6.6-4.68-6.6s-4.68,2.47-4.68,6.6,1.82,6.92,4.68,6.92,4.68-2.6,4.68-6.92Z"/>
      <path class="cls-6" d="M284.79,359.76h-8.22v-2.63l7.18-11.47h4.6v11.15h2.26v2.94h-2.26v4.65h-3.56v-4.65Zm0-2.94v-3.74c0-1.12,.08-2.89,.13-4h-.1c-.47,1.01-.99,1.98-1.53,3.02l-2.99,4.73h4.5Z"/>
      <path class="cls-6" d="M293.19,352.43c0-1.43,1.01-2.5,2.37-2.5s2.39,1.07,2.39,2.5-1.01,2.47-2.39,2.47-2.37-1.07-2.37-2.47Zm0,9.85c0-1.43,1.01-2.5,2.37-2.5s2.39,1.07,2.39,2.5-1.01,2.5-2.39,2.5-2.37-1.09-2.37-2.5Z"/>
      <path class="cls-6" d="M306.03,356.04h-5.25v-2.73h5.25v-5.54h2.83v5.54h5.25v2.73h-5.25v5.51h-2.83v-5.51Z"/>
      <path class="cls-6" d="M323.87,359.76h-8.22v-2.63l7.18-11.47h4.6v11.15h2.26v2.94h-2.26v4.65h-3.56v-4.65Zm0-2.94v-3.74c0-1.12,.08-2.89,.13-4h-.1c-.47,1.01-.99,1.98-1.53,3.02l-2.99,4.73h4.5Z"/>
      <path class="cls-6" d="M340.38,348.87h-8.66v-3.2h12.79v2.34c-4.37,5.33-5.07,9.1-5.38,16.41h-3.87c.34-6.47,1.53-10.56,5.12-15.55Z"/>
      <path class="cls-6" d="M347.58,362.28c0-1.43,1.01-2.5,2.37-2.5s2.39,1.07,2.39,2.5-1.01,2.5-2.39,2.5-2.37-1.09-2.37-2.5Z"/>
      <path class="cls-6" d="M355.3,362.21c5.02-4.78,8.32-8.06,8.32-10.84,0-1.9-1.04-3.04-2.89-3.04-1.4,0-2.55,.94-3.54,2l-2.08-2.08c1.77-1.9,3.48-2.94,6.11-2.94,3.64,0,6.06,2.31,6.06,5.85,0,3.28-3.02,6.66-6.45,10.24,.96-.1,2.24-.21,3.15-.21h4.21v3.22h-12.9v-2.21Z"/>
      <path class="cls-6" d="M370.18,362.15l1.77-2.44c1.09,1.07,2.44,1.95,4.24,1.95,2,0,3.41-1.17,3.41-3.28s-1.3-3.25-3.25-3.25c-1.14,0-1.77,.29-2.89,1.01l-1.74-1.12,.52-9.36h10.3v3.2h-6.99l-.36,4.08c.78-.34,1.43-.52,2.31-.52,3.22,0,5.93,1.82,5.93,5.82s-3.17,6.53-6.73,6.53c-3.04,0-5.07-1.2-6.5-2.63Z"/>
      <path class="cls-6" d="M385.65,350.87c0-3.85,1.92-6.06,4.68-6.06s4.71,2.21,4.71,6.06-1.95,6.14-4.71,6.14-4.68-2.26-4.68-6.14Zm6.68,0c0-2.83-.88-3.9-2-3.9s-1.98,1.07-1.98,3.9,.86,3.98,1.98,3.98,2-1.14,2-3.98Zm9.1-6.06h2.26l-10.45,19.97h-2.26l10.45-19.97Zm-1.79,13.83c0-3.87,1.95-6.08,4.68-6.08s4.71,2.21,4.71,6.08-1.98,6.14-4.71,6.14-4.68-2.29-4.68-6.14Zm6.68,0c0-2.83-.88-3.93-2-3.93s-1.98,1.09-1.98,3.93,.86,3.95,1.98,3.95,2-1.12,2-3.95Z"/>
    </g>
    <line class="cls-3" x1="144.11" y1="333.56" x2="243.77" y2="333.56"/>
    <line class="cls-3" x1="144.11" y1="369.79" x2="293.67" y2="369.79"/>
  </g>
  <g>
    <g>
      <path class="cls-6" d="M483.54,189.78c5.02-4.78,8.32-8.06,8.32-10.84,0-1.9-1.04-3.04-2.89-3.04-1.4,0-2.55,.94-3.54,2l-2.08-2.08c1.77-1.9,3.48-2.94,6.11-2.94,3.64,0,6.06,2.31,6.06,5.85,0,3.28-3.02,6.66-6.45,10.24,.96-.1,2.24-.21,3.15-.21h4.21v3.22h-12.9v-2.21Z"/>
      <path class="cls-6" d="M498.88,182.53c0-6.34,2.57-9.65,6.53-9.65s6.5,3.33,6.5,9.65-2.55,9.83-6.5,9.83-6.53-3.46-6.53-9.83Zm9.41,0c0-5.2-1.22-6.66-2.89-6.66s-2.91,1.46-2.91,6.66,1.25,6.84,2.91,6.84,2.89-1.61,2.89-6.84Z"/>
      <path class="cls-6" d="M514.16,189.78c5.02-4.78,8.32-8.06,8.32-10.84,0-1.9-1.04-3.04-2.89-3.04-1.4,0-2.55,.94-3.54,2l-2.08-2.08c1.77-1.9,3.48-2.94,6.11-2.94,3.64,0,6.06,2.31,6.06,5.85,0,3.28-3.02,6.66-6.45,10.24,.96-.1,2.24-.21,3.15-.21h4.21v3.22h-12.9v-2.21Z"/>
      <path class="cls-6" d="M530.49,188.9h4.13v-11.67h-3.48v-2.37c1.92-.36,3.25-.86,4.47-1.61h2.83v15.65h3.61v3.09h-11.57v-3.09Z"/>
      <path class="cls-6" d="M545.52,180.01c0-1.43,1.01-2.5,2.37-2.5s2.39,1.07,2.39,2.5-1.01,2.47-2.39,2.47-2.37-1.07-2.37-2.47Zm0,9.85c0-1.43,1.01-2.5,2.37-2.5s2.39,1.07,2.39,2.5-1.01,2.5-2.39,2.5-2.37-1.09-2.37-2.5Z"/>
      <path class="cls-6" d="M558.36,183.62h-5.25v-2.73h5.25v-5.54h2.83v5.54h5.25v2.73h-5.25v5.51h-2.83v-5.51Z"/>
      <path class="cls-6" d="M568.56,189.78c5.02-4.78,8.32-8.06,8.32-10.84,0-1.9-1.04-3.04-2.89-3.04-1.4,0-2.55,.94-3.54,2l-2.08-2.08c1.77-1.9,3.48-2.94,6.11-2.94,3.64,0,6.06,2.31,6.06,5.85,0,3.28-3.02,6.66-6.45,10.24,.96-.1,2.24-.21,3.15-.21h4.21v3.22h-12.9v-2.21Z"/>
      <path class="cls-6" d="M583.97,187.21c0-2.31,1.53-3.8,3.3-4.73v-.1c-1.46-1.07-2.55-2.44-2.55-4.42,0-3.09,2.47-5.07,5.8-5.07s5.59,2.03,5.59,5.1c0,1.85-1.25,3.35-2.47,4.21v.13c1.74,.99,3.22,2.37,3.22,4.89,0,2.91-2.57,5.15-6.47,5.15-3.67,0-6.42-2.13-6.42-5.15Zm9.33-.13c0-1.87-1.79-2.55-4.26-3.56-1.01,.81-1.77,1.95-1.77,3.28,0,1.74,1.43,2.86,3.22,2.86,1.64,0,2.81-.91,2.81-2.57Zm-.31-8.84c0-1.56-.94-2.65-2.55-2.65-1.3,0-2.34,.83-2.34,2.37,0,1.72,1.51,2.52,3.51,3.3,.88-.94,1.38-1.95,1.38-3.02Z"/>
      <path class="cls-6" d="M599.91,189.86c0-1.43,1.01-2.5,2.37-2.5s2.39,1.07,2.39,2.5-1.01,2.5-2.39,2.5-2.37-1.09-2.37-2.5Z"/>
      <path class="cls-6" d="M607.79,183.13c0-7.15,3.56-10.24,7.46-10.24,2.34,0,4.06,.99,5.2,2.18l-2.03,2.29c-.68-.75-1.85-1.38-2.96-1.38-2.21,0-4.03,1.64-4.19,6.47,1.07-1.33,2.7-2.11,3.95-2.11,3.22,0,5.54,1.85,5.54,5.77s-2.76,6.24-6.06,6.24c-3.64,0-6.92-2.81-6.92-9.23Zm3.59,1.98c.36,3.17,1.66,4.37,3.25,4.37,1.46,0,2.63-1.12,2.63-3.35,0-2.11-1.09-3.07-2.76-3.07-.99,0-2.16,.55-3.12,2.05Z"/>
      <path class="cls-6" d="M623.05,187.21c0-2.31,1.53-3.8,3.3-4.73v-.1c-1.46-1.07-2.55-2.44-2.55-4.42,0-3.09,2.47-5.07,5.8-5.07s5.59,2.03,5.59,5.1c0,1.85-1.25,3.35-2.47,4.21v.13c1.74,.99,3.22,2.37,3.22,4.89,0,2.91-2.57,5.15-6.47,5.15-3.67,0-6.42-2.13-6.42-5.15Zm9.33-.13c0-1.87-1.79-2.55-4.26-3.56-1.01,.81-1.77,1.95-1.77,3.28,0,1.74,1.43,2.86,3.22,2.86,1.64,0,2.81-.91,2.81-2.57Zm-.31-8.84c0-1.56-.94-2.65-2.55-2.65-1.3,0-2.34,.83-2.34,2.37,0,1.72,1.51,2.52,3.51,3.3,.88-.94,1.38-1.95,1.38-3.02Z"/>
      <path class="cls-6" d="M637.97,178.45c0-3.85,1.92-6.06,4.68-6.06s4.71,2.21,4.71,6.06-1.95,6.14-4.71,6.14-4.68-2.26-4.68-6.14Zm6.68,0c0-2.83-.88-3.9-2-3.9s-1.98,1.07-1.98,3.9,.86,3.98,1.98,3.98,2-1.14,2-3.98Zm9.1-6.06h2.26l-10.45,19.97h-2.26l10.45-19.97Zm-1.79,13.83c0-3.87,1.95-6.08,4.68-6.08s4.71,2.21,4.71,6.08-1.98,6.14-4.71,6.14-4.68-2.29-4.68-6.14Zm6.68,0c0-2.83-.88-3.93-2-3.93s-1.98,1.09-1.98,3.93,.86,3.95,1.98,3.95,2-1.12,2-3.95Z"/>
    </g>
    <line class="cls-3" x1="482.42" y1="197.14" x2="546.34" y2="197.14"/>
  </g>
  <g>
    <g>
      <path class="cls-6" d="M784.64,318.14c5.02-4.78,8.32-8.06,8.32-10.84,0-1.9-1.04-3.04-2.89-3.04-1.4,0-2.55,.94-3.54,2l-2.08-2.08c1.77-1.9,3.48-2.94,6.11-2.94,3.64,0,6.06,2.31,6.06,5.85,0,3.28-3.02,6.66-6.45,10.24,.96-.1,2.24-.21,3.15-.21h4.21v3.22h-12.9v-2.21Z"/>
      <path class="cls-6" d="M799.98,310.89c0-6.34,2.57-9.65,6.53-9.65s6.5,3.33,6.5,9.65-2.55,9.83-6.5,9.83-6.53-3.46-6.53-9.83Zm9.41,0c0-5.2-1.22-6.66-2.89-6.66s-2.91,1.46-2.91,6.66,1.25,6.84,2.91,6.84,2.89-1.61,2.89-6.84Z"/>
      <path class="cls-6" d="M815.27,318.14c5.02-4.78,8.32-8.06,8.32-10.84,0-1.9-1.04-3.04-2.89-3.04-1.4,0-2.55,.94-3.54,2l-2.08-2.08c1.77-1.9,3.48-2.94,6.11-2.94,3.64,0,6.06,2.31,6.06,5.85,0,3.28-3.02,6.66-6.45,10.24,.96-.1,2.24-.21,3.15-.21h4.21v3.22h-12.9v-2.21Z"/>
      <path class="cls-6" d="M830.58,318.14c5.02-4.78,8.32-8.06,8.32-10.84,0-1.9-1.04-3.04-2.89-3.04-1.4,0-2.55,.94-3.54,2l-2.08-2.08c1.77-1.9,3.48-2.94,6.11-2.94,3.64,0,6.06,2.31,6.06,5.85,0,3.28-3.02,6.66-6.45,10.24,.96-.1,2.24-.21,3.15-.21h4.21v3.22h-12.9v-2.21Z"/>
      <path class="cls-6" d="M849.85,310.84c-.81,0-1.53,.57-2.16,1.72l-2-1.51c1.35-2.13,2.81-2.94,4.24-2.94,2.39,0,3.48,2.29,5.1,2.29,.83,0,1.53-.57,2.16-1.72l2,1.53c-1.33,2.11-2.81,2.91-4.21,2.91-2.39,0-3.48-2.29-5.12-2.29Z"/>
      <path class="cls-6" d="M861.31,315.57c0-2.31,1.53-3.8,3.3-4.73v-.1c-1.46-1.07-2.55-2.44-2.55-4.42,0-3.09,2.47-5.07,5.8-5.07s5.59,2.03,5.59,5.1c0,1.85-1.25,3.35-2.47,4.21v.13c1.74,.99,3.22,2.37,3.22,4.89,0,2.91-2.57,5.15-6.47,5.15-3.67,0-6.42-2.13-6.42-5.15Zm9.33-.13c0-1.87-1.79-2.55-4.26-3.56-1.01,.81-1.77,1.95-1.77,3.28,0,1.74,1.43,2.86,3.22,2.86,1.64,0,2.81-.91,2.81-2.57Zm-.31-8.84c0-1.56-.94-2.65-2.55-2.65-1.3,0-2.34,.83-2.34,2.37,0,1.72,1.51,2.52,3.51,3.3,.88-.94,1.38-1.95,1.38-3.02Z"/>
      <path class="cls-6" d="M882.24,299.4h2.52l-6.45,25.69h-2.55l6.47-25.69Z"/>
      <path class="cls-6" d="M886.17,318.04l1.79-2.42c1.14,1.12,2.55,1.98,4.29,1.98,1.95,0,3.28-.94,3.28-2.55,0-1.82-1.12-2.94-5.3-2.94v-2.76c3.54,0,4.68-1.17,4.68-2.78,0-1.46-.94-2.31-2.57-2.31-1.38,0-2.5,.65-3.64,1.72l-1.95-2.34c1.66-1.46,3.51-2.39,5.77-2.39,3.72,0,6.24,1.82,6.24,5.04,0,2.03-1.2,3.43-3.2,4.24v.13c2.16,.57,3.82,2.16,3.82,4.63,0,3.43-3.09,5.43-6.76,5.43-3.04,0-5.1-1.14-6.45-2.68Z"/>
      <path class="cls-6" d="M902.94,317.26h4.13v-11.67h-3.48v-2.37c1.92-.36,3.25-.86,4.47-1.61h2.83v15.65h3.61v3.09h-11.57v-3.09Z"/>
      <path class="cls-6" d="M917.97,308.37c0-1.43,1.01-2.5,2.37-2.5s2.39,1.07,2.39,2.5-1.01,2.47-2.39,2.47-2.37-1.07-2.37-2.47Zm0,9.85c0-1.43,1.01-2.5,2.37-2.5s2.39,1.07,2.39,2.5-1.01,2.5-2.39,2.5-2.37-1.09-2.37-2.5Z"/>
      <path class="cls-6" d="M925.84,311.54h7.1v2.73h-7.1v-2.73Z"/>
      <path class="cls-6" d="M936.32,317.26h4.13v-11.67h-3.48v-2.37c1.92-.36,3.25-.86,4.47-1.61h2.83v15.65h3.61v3.09h-11.57v-3.09Z"/>
      <path class="cls-6" d="M950.78,311.49c0-7.15,3.56-10.24,7.46-10.24,2.34,0,4.06,.99,5.2,2.18l-2.03,2.29c-.68-.75-1.85-1.38-2.96-1.38-2.21,0-4.03,1.64-4.19,6.47,1.07-1.33,2.7-2.11,3.95-2.11,3.22,0,5.54,1.85,5.54,5.77s-2.76,6.24-6.06,6.24c-3.64,0-6.92-2.81-6.92-9.23Zm3.59,1.98c.36,3.17,1.66,4.37,3.25,4.37,1.46,0,2.63-1.12,2.63-3.35,0-2.11-1.09-3.07-2.76-3.07-.99,0-2.16,.55-3.12,2.05Z"/>
      <path class="cls-6" d="M966.66,318.22c0-1.43,1.01-2.5,2.37-2.5s2.39,1.07,2.39,2.5-1.01,2.5-2.39,2.5-2.37-1.09-2.37-2.5Z"/>
      <path class="cls-6" d="M975.4,317.26h4.13v-11.67h-3.48v-2.37c1.92-.36,3.25-.86,4.47-1.61h2.83v15.65h3.61v3.09h-11.57v-3.09Z"/>
      <path class="cls-6" d="M989.26,318.09l1.77-2.44c1.09,1.07,2.44,1.95,4.24,1.95,2,0,3.41-1.17,3.41-3.28s-1.3-3.25-3.25-3.25c-1.14,0-1.77,.29-2.89,1.01l-1.74-1.12,.52-9.36h10.3v3.2h-6.99l-.36,4.08c.78-.34,1.43-.52,2.31-.52,3.22,0,5.93,1.82,5.93,5.82s-3.17,6.53-6.73,6.53c-3.04,0-5.07-1.2-6.5-2.63Z"/>
      <path class="cls-6" d="M1004.73,306.81c0-3.85,1.92-6.06,4.68-6.06s4.71,2.21,4.71,6.06-1.95,6.14-4.71,6.14-4.68-2.26-4.68-6.14Zm6.68,0c0-2.83-.88-3.9-2-3.9s-1.98,1.07-1.98,3.9,.86,3.98,1.98,3.98,2-1.14,2-3.98Zm9.1-6.06h2.26l-10.45,19.97h-2.26l10.45-19.97Zm-1.79,13.83c0-3.87,1.95-6.08,4.68-6.08s4.71,2.21,4.71,6.08-1.98,6.14-4.71,6.14-4.68-2.29-4.68-6.14Zm6.68,0c0-2.83-.88-3.93-2-3.93s-1.98,1.09-1.98,3.93,.86,3.95,1.98,3.95,2-1.12,2-3.95Z"/>
    </g>
    <line class="cls-3" x1="783.52" y1="325.5" x2="920.59" y2="325.5"/>
  </g>
</svg>