<?xml version="1.0" encoding="UTF-8"?>
<svg id="_圖層_1" data-name="圖層 1" xmlns="http://www.w3.org/2000/svg" viewBox="0 0 528 531">
  <defs>
    <style>
      .cls-1 {
        fill: #fff;
      }

      .cls-2 {
        fill: none;
        stroke: #000;
        stroke-miterlimit: 10;
      }

      .cls-3 {
        fill: #aa1e30;
      }

      .cls-4 {
        fill: #03518f;
      }

      .cls-5 {
        fill: #231815;
      }
    </style>
  </defs>
  <g>
    <g>
      <line class="cls-2" x1="113.35" y1="511.82" x2="518.53" y2="511.82"/>
      <g>
        <line class="cls-2" x1="113.35" y1="511.82" x2="113.35" y2="499.03"/>
        <line class="cls-2" x1="153.87" y1="511.82" x2="153.87" y2="499.03"/>
        <line class="cls-2" x1="194.39" y1="511.82" x2="194.39" y2="499.03"/>
        <line class="cls-2" x1="234.91" y1="511.82" x2="234.91" y2="499.03"/>
        <line class="cls-2" x1="275.42" y1="511.82" x2="275.42" y2="499.03"/>
        <line class="cls-2" x1="315.94" y1="511.82" x2="315.94" y2="499.03"/>
        <line class="cls-2" x1="356.46" y1="511.82" x2="356.46" y2="499.03"/>
        <line class="cls-2" x1="396.98" y1="511.82" x2="396.98" y2="499.03"/>
        <line class="cls-2" x1="437.49" y1="511.82" x2="437.49" y2="499.03"/>
        <line class="cls-2" x1="478.01" y1="511.82" x2="478.01" y2="499.03"/>
        <line class="cls-2" x1="518.53" y1="511.82" x2="518.53" y2="499.03"/>
      </g>
      <g>
        <line class="cls-2" x1="356.46" y1="511.82" x2="356.46"/>
        <line class="cls-2" x1="356.46" y1="255.91" x2="346.33" y2="255.91"/>
      </g>
    </g>
    <g>
      <rect class="cls-4" x="125.1" y="459.44" width="231.36" height="21.68"/>
      <rect class="cls-4" x="190.82" y="431.3" width="165.64" height="21.68"/>
      <rect class="cls-4" x="220.97" y="403.16" width="135.49" height="21.68"/>
      <rect class="cls-4" x="227.53" y="375.02" width="128.93" height="21.68"/>
      <rect class="cls-4" x="232.39" y="346.88" width="124.07" height="21.68"/>
      <rect class="cls-4" x="233.12" y="318.74" width="123.34" height="21.68"/>
      <rect class="cls-4" x="234.5" y="290.6" width="121.96" height="21.68"/>
      <rect class="cls-4" x="239.28" y="262.46" width="117.18" height="21.68"/>
      <rect class="cls-4" x="240.09" y="234.32" width="116.37" height="21.68"/>
      <rect class="cls-4" x="241.31" y="206.18" width="115.15" height="21.68"/>
      <rect class="cls-4" x="245.68" y="178.04" width="110.78" height="21.68"/>
      <rect class="cls-4" x="256.38" y="149.9" width="100.08" height="21.68"/>
      <rect class="cls-4" x="259.54" y="121.76" width="96.92" height="21.68"/>
      <rect class="cls-4" x="264.97" y="93.62" width="91.49" height="21.68"/>
      <rect class="cls-4" x="279.15" y="65.48" width="77.31" height="21.68"/>
      <rect class="cls-4" x="315.94" y="37.34" width="40.52" height="21.68"/>
      <rect class="cls-3" x="356.46" y="9.2" width="129.41" height="21.68"/>
    </g>
  </g>
  <g>
    <g>
      <path class="cls-3" d="M20.63,19.62v1.06h-6.67c-.05,.43-.11,.85-.19,1.23h6.61v1.04h-6.9c-.75,2.19-2.46,3.55-6.66,4.27-.1-.3-.4-.8-.62-1.07,3.7-.53,5.27-1.55,5.99-3.2H6.8v-1.04h5.71c.1-.38,.16-.8,.21-1.23H6.45v-1.06h6.42v-1.34H7.89v-1.04h4.98v-1.3H7.01v-1.07h3.38c-.26-.56-.75-1.3-1.23-1.86l1.02-.42c.59,.61,1.15,1.44,1.41,2.02l-.58,.26h4.21c.48-.66,1.04-1.6,1.38-2.27l1.22,.37c-.38,.66-.86,1.34-1.28,1.9h3.41v1.07h-5.89v1.3h5.12v1.04h-5.12v1.34h6.58Zm-6.55,3.51c2.19,.83,5.07,2.21,6.53,3.17l-.56,1.02c-1.41-.99-4.27-2.43-6.48-3.31l.51-.88Z"/>
      <path class="cls-3" d="M34.84,25.85c.64,0,.74-.42,.82-2.87,.27,.22,.78,.43,1.1,.53-.13,2.72-.45,3.47-1.84,3.47h-2.29c-1.42,0-1.81-.42-1.81-1.78v-5.7h-2.99c-.3,3.42-1.07,6.23-4.75,7.71-.14-.29-.48-.72-.75-.93,3.41-1.3,4-3.79,4.24-6.79h-4.05v-1.15h14.01v1.15h-4.5v5.68c0,.54,.13,.66,.75,.66h2.06Zm.34-10.8h-11.27v-1.14h11.27v1.14Z"/>
      <path class="cls-3" d="M43.7,20.63l-2,.61v4.59c0,.69-.16,.99-.58,1.2-.4,.18-1.04,.22-2.11,.21-.05-.3-.21-.78-.37-1.1,.72,.02,1.39,.02,1.58,0,.22,0,.3-.06,.3-.3v-4.23c-.78,.22-1.52,.45-2.16,.64l-.35-1.17c.69-.18,1.57-.42,2.51-.69v-3.38h-2.27v-1.14h2.27v-3.22h1.17v3.22h1.81v1.14h-1.81v3.03c.61-.16,1.23-.35,1.84-.54l.16,1.14Zm2.9-1.71c-1.57,0-2.06-.5-2.06-1.87v-4.32h1.17v1.9h6.43v1.04h-6.43v1.41c0,.59,.18,.82,.88,.82h4.19c.53,0,1.39-.03,1.76-.11,.05,.32,.1,.77,.14,1.04-.3,.08-1.1,.1-1.84,.1h-4.24Zm-2.05,1.36h7.49v6.92h-1.17v-.67h-5.19v.74h-1.14v-6.98Zm1.14,1.02v1.58h5.19v-1.58h-5.19Zm5.19,4.24v-1.68h-5.19v1.68h5.19Z"/>
      <path class="cls-3" d="M67.58,16.87c-.29,2.46-.8,4.48-1.62,6.13,.72,1.44,1.7,2.59,2.96,3.28-.24,.21-.59,.61-.77,.91-1.17-.72-2.08-1.81-2.8-3.14-.88,1.34-2.06,2.4-3.65,3.23-.1-.21-.35-.56-.54-.8l-.38,.35c-.53-.3-1.25-.67-2.05-.99-.91,.53-2.22,1.01-4.08,1.41-.08-.24-.32-.59-.51-.8,1.52-.3,2.66-.67,3.49-1.07-.75-.29-1.54-.56-2.27-.75,.3-.38,.64-.9,.98-1.41h-2.06v-.86h2.56c.19-.35,.35-.69,.51-1.02h-2.37v-2.58h3.01v-.7h-2.63v-1.81h-1.1v-.9h1.1v-1.67h2.63v-1.04h.94v1.04h2.8v1.67h.91v.9h-.91v1.81h-2.8v.7h3.12v.85c1.06-1.75,1.81-4.35,2.26-6.96l1.04,.21c-.19,.98-.43,1.99-.69,2.95h4.15v1.07h-1.22Zm-11.59,3.7h1.98v-1.06h-1.98v1.06Zm.29-6.05v.88h1.7v-.88h-1.7Zm1.7,2.71v-1.02h-1.7v1.02h1.7Zm-.56,6c-.21,.34-.4,.66-.59,.96,.58,.18,1.18,.38,1.78,.62,.7-.51,1.04-1.07,1.2-1.58h-2.39Zm4.1,2.95c1.47-.8,2.56-1.84,3.31-3.22-.51-1.25-.88-2.67-1.18-4.23-.27,.67-.56,1.26-.88,1.78-.14-.16-.48-.45-.72-.66v1.49h-3.62c-.16,.34-.34,.67-.51,1.02h2.02v-.64h.98v.64h1.6v.86h-1.7c-.13,.66-.46,1.34-1.2,1.99,.74,.32,1.42,.66,1.94,.93l-.03,.03Zm-2.59-11.65v.88h1.82v-.88h-1.82Zm1.82,2.71v-1.02h-1.82v1.02h1.82Zm-1.82,2.29v1.06h2.06v-1.06h-2.06Zm5.41-2.64l-.08,.19c.26,1.71,.62,3.3,1.17,4.69,.54-1.38,.9-2.98,1.1-4.88h-2.19Z"/>
      <path class="cls-3" d="M70.96,21.06c0-3.14,.88-5.73,2.35-8.12l.91,.42c-1.39,2.29-2.05,4.98-2.05,7.7s.66,5.43,2.05,7.7l-.91,.43c-1.47-2.4-2.35-4.98-2.35-8.13Z"/>
      <path class="cls-3" d="M76.5,14.29h2.95c3.6,0,5.54,2.11,5.54,5.84s-1.94,5.91-5.47,5.91h-3.01V14.29Zm2.82,10.53c2.77,0,4.13-1.73,4.13-4.69s-1.36-4.63-4.13-4.63h-1.33v9.32h1.33Z"/>
      <path class="cls-3" d="M89.28,19.97l-3.2-5.68h1.63l1.6,3.01c.3,.54,.54,1.04,.93,1.71h.06c.32-.67,.54-1.17,.83-1.71l1.57-3.01h1.55l-3.2,5.76,3.43,5.99h-1.63l-1.73-3.17c-.3-.59-.62-1.18-1.01-1.89h-.06c-.34,.7-.64,1.3-.94,1.89l-1.7,3.17h-1.55l3.43-6.07Z"/>
      <path class="cls-3" d="M98.26,21.48l-3.52-7.19h1.58l1.5,3.33c.38,.86,.74,1.68,1.15,2.56h.06c.42-.88,.82-1.7,1.17-2.56l1.52-3.33h1.54l-3.52,7.19v4.56h-1.49v-4.56Z"/>
      <path class="cls-3" d="M103.94,28.76c1.38-2.27,2.05-4.98,2.05-7.7s-.67-5.41-2.05-7.7l.9-.42c1.49,2.39,2.37,4.98,2.37,8.12s-.88,5.73-2.37,8.13l-.9-.43Z"/>
    </g>
    <g>
      <path class="cls-5" d="M91.61,54.79v1.06h-13.88v-1.06h6.34v-1.73h-4.47v-.96h4.47v-1.5h-3.92c-.53,.67-1.1,1.28-1.65,1.78-.22-.22-.7-.59-1.01-.75,1.18-.9,2.29-2.27,2.93-3.67l1.17,.32c-.21,.43-.46,.88-.72,1.3h3.2v-1.28h1.22v1.28h5.31v1.02h-5.31v1.5h4.66v.96h-4.66v1.73h6.32Zm-1.63-6.85h-10.6v-5.65h10.6v5.65Zm-1.2-4.69h-8.23v1.39h8.23v-1.39Zm0,2.31h-8.23v1.42h8.23v-1.42Z"/>
      <path class="cls-5" d="M106.9,44.22c-.37,1.23-.98,2.26-1.74,3.07,.8,.74,1.76,1.3,2.83,1.65-.22,.18-.53,.58-.66,.83-1.1-.4-2.06-1.02-2.88-1.81-.8,.66-1.74,1.18-2.83,1.6-.11-.24-.42-.7-.61-.91,1.06-.35,1.98-.83,2.75-1.44-.53-.66-.99-1.39-1.34-2.19-.29,.37-.58,.69-.91,.98-.14-.18-.5-.54-.74-.72v4.1h-.94v-4.29h-1.97v4.55h-.82v-4.55h-1.98v4.72h-.91v-5.52h2.77v-2.64h1.06v2.64h2.8v.94c1.04-.86,1.84-2.14,2.26-3.59l1.01,.21c-.14,.48-.32,.98-.54,1.42h4.35v.94h-.94Zm-11.64-.02c-.19-.5-.66-1.28-1.07-1.84l.85-.37c.45,.53,.91,1.26,1.1,1.78l-.88,.43Zm11.09,9.97c0,.61-.14,.91-.64,1.07-.51,.18-1.34,.18-2.67,.18-.06-.3-.24-.7-.4-.99,1.01,.02,1.95,.02,2.21,.02,.26-.02,.34-.08,.34-.29v-2.48h-3.99v4.58h-1.17v-4.58h-3.7v3.79h-1.17v-4.83h4.87v-.99h1.17v.99h5.15v3.54Zm-9.8-8.37c-.14,.94-.38,1.94-.72,2.61-.14-.08-.43-.26-.64-.32,.35-.67,.54-1.55,.67-2.43l.69,.14Zm2.3-.14c.34,.8,.61,1.84,.69,2.5l-.64,.19c-.06-.67-.32-1.71-.64-2.51l.59-.18Zm1.98-3.34c-.46,.69-.96,1.41-1.38,1.89l-.72-.32c.37-.54,.85-1.39,1.1-1.95l.99,.38Zm2.23,1.9c.32,.86,.78,1.65,1.38,2.34,.58-.64,1.02-1.42,1.33-2.34h-2.71Z"/>
    </g>
    <g>
      <path class="cls-5" d="M63.52,80.66c1.36-.4,2.98-.88,4.55-1.36l.16,1.06c-2.23,.72-4.61,1.47-6.35,2l-.27-1.17c.24-.06,.48-.13,.75-.21v-9.56c1.66-.38,3.57-.99,4.66-1.54l.93,.94c-1.22,.53-2.88,1.01-4.42,1.36v2.98h4.43v1.15h-4.43v4.34Zm11.83-.5c0,.69-.14,1.1-.64,1.31-.5,.22-1.34,.24-2.51,.24-.06-.34-.29-.93-.48-1.26,.98,.05,1.86,.03,2.11,.03,.27-.02,.34-.1,.34-.34v-8.29h-3.95v12.26h-1.17v-13.43h6.31v9.48Z"/>
      <path class="cls-5" d="M80.31,74.9c-.02,2.75-.29,6.66-2,9.28-.22-.19-.74-.5-1.04-.62,1.71-2.58,1.87-6.23,1.87-8.85v-4.35h11.22v4.55h-10.05Zm0-3.46v2.37h8.87v-2.37h-8.87Zm8.87,11.27c1.02,0,1.2-.35,1.31-2.26,.29,.19,.78,.38,1.14,.46-.21,2.31-.61,2.93-2.42,2.93h-4.26c-2,0-2.56-.42-2.56-1.97v-6.34h1.17v2.3h6.95v1.06h-6.95v2.98c0,.69,.22,.83,1.42,.83h4.19Z"/>
      <path class="cls-5" d="M102.21,74.27c-.06,.54-.11,1.06-.16,1.5h4.51v8.4h-1.2v-.67h-6.66v.67h-1.17v-8.4h3.33c.05-.45,.1-.96,.14-1.5h-4.82v2.05c0,2.38-.26,5.75-1.81,7.91-.19-.24-.7-.67-.96-.83,1.42-1.99,1.55-4.88,1.55-7.08v-5.46c3.86-.13,8.55-.48,11.08-1.06l.91,.96c-1.28,.27-2.82,.5-4.5,.66-.05,.58-.1,1.18-.16,1.78h5.65v1.07h-5.75Zm-1.12-1.07c.03-.56,.06-1.12,.08-1.65-1.67,.14-3.36,.24-4.98,.29v1.36h4.9Zm4.27,3.55h-6.66v1.3h6.66v-1.3Zm-6.66,3.54h6.66v-1.38h-6.66v1.38Zm6.66,2.24v-1.38h-6.66v1.38h6.66Z"/>
    </g>
    <g>
      <path class="cls-5" d="M47.52,108.91c1.36-.4,2.98-.88,4.55-1.36l.16,1.06c-2.23,.72-4.61,1.47-6.35,2l-.27-1.17c.24-.06,.48-.13,.75-.21v-9.56c1.66-.38,3.57-.99,4.66-1.54l.93,.94c-1.22,.53-2.88,1.01-4.42,1.36v2.98h4.43v1.15h-4.43v4.34Zm11.83-.5c0,.69-.14,1.1-.64,1.31-.5,.22-1.34,.24-2.51,.24-.06-.34-.29-.93-.48-1.26,.98,.05,1.86,.03,2.11,.03,.27-.02,.34-.1,.34-.34v-8.29h-3.95v12.26h-1.17v-13.43h6.31v9.48Z"/>
      <path class="cls-5" d="M63.89,103.71c0,2.54-.19,6.21-1.54,8.72-.22-.19-.77-.45-1.06-.54,1.3-2.4,1.42-5.79,1.42-8.18v-4.31h6.16c-.18-.45-.42-.98-.64-1.39l1.17-.29c.3,.51,.62,1.17,.82,1.68h5.55v1.1h-11.89v3.2Zm10.61,3.6c-.74,1.36-1.9,2.37-3.31,3.14,1.41,.48,3.04,.8,4.8,.96-.24,.24-.53,.72-.67,1.02-2-.22-3.87-.69-5.46-1.38-1.7,.66-3.63,1.06-5.6,1.28-.1-.27-.32-.74-.51-.99,1.7-.16,3.38-.45,4.87-.93-1.06-.61-1.92-1.34-2.58-2.26l.56-.22h-2.1v-.98h9.04l.22-.06,.74,.42Zm-7.65-1.38v-2.64h-2.56v-.99h2.56v-1.38h1.14v1.38h3.87v-1.38h1.17v1.38h2.58v.99h-2.58v2.64h-6.18Zm.35,2c.64,.8,1.57,1.46,2.71,1.99,1.14-.5,2.13-1.15,2.82-1.99h-5.52Zm.78-4.64v1.68h3.87v-1.68h-3.87Z"/>
      <path class="cls-5" d="M79.84,104.57c0,2.27-.22,5.57-1.52,7.78-.19-.21-.72-.5-.99-.61,1.23-2.11,1.34-5.07,1.34-7.19v-4.08h5.01v-2.66h1.17v.98h5.73v.86h-5.73v.82h5.65l.21-.05,.85,.24c-.27,.75-.64,1.58-.96,2.11l-1.01-.35c.16-.27,.34-.67,.5-1.06h-5.09v.69l4.03-.19,.02,.69-4.05,.21v.1c0,.45,.08,.58,.64,.58h3.6c.45,0,1.3-.02,1.63-.1,.02,.32,.05,.58,.1,.8-.29,.08-.98,.1-1.63,.1h-3.91c-1.18,0-1.5-.4-1.52-1.28l-3.14,.18-.05-.85,3.19-.16v-.75h-4.07v3.2Zm11.99,6.64v.86h-12.68v-.86h1.39v-2.19h9.97v2.19h1.31Zm-10.69-6.4h8.79v3.51h-8.79v-3.51Zm.51,6.4h1.86v-1.42h-1.86v1.42Zm.58-4.98h2.69v-.74h-2.69v.74Zm0,1.41h2.69v-.75h-2.69v.75Zm2.3,2.15v1.42h1.9v-1.42h-1.9Zm4.26-4.29h-2.79v.74h2.79v-.74Zm0,1.39h-2.79v.75h2.79v-.75Zm-1.33,2.9v1.42h1.89v-1.42h-1.89Z"/>
      <path class="cls-5" d="M100.33,109.15c0,.34,.06,.83,.11,1.1-4.58,1.23-5.17,1.42-5.55,1.68-.1-.29-.37-.78-.56-1.01,.24-.18,.62-.53,.62-1.2v-11.91h1.22v4.91h4.07v1.17h-4.07v6.27l4.16-1.02Zm5.62,1.78c.75,0,.85-.59,.96-2.88,.29,.24,.77,.45,1.1,.51-.16,2.61-.48,3.5-1.98,3.5h-2.69c-1.55,0-1.97-.46-1.97-2.19v-12.07h1.2v4.93h4.31v1.17h-4.31v5.99c0,.88,.14,1.04,.9,1.04h2.48Z"/>
    </g>
    <g>
      <path class="cls-5" d="M79.94,133.1c-.54-.58-1.7-1.38-2.63-1.91l.66-.77c.91,.5,2.1,1.25,2.69,1.81l-.72,.86Zm1.07,1.92c-.67,1.63-1.58,3.58-2.34,5.01l-1.02-.7c.7-1.22,1.73-3.23,2.47-4.99l.9,.69Zm-.27-6.15c-.54-.59-1.68-1.42-2.61-1.97l.69-.75c.93,.5,2.06,1.31,2.66,1.86l-.74,.86Zm11.11,7.01v1.04h-5.23c-.66,1.76-2.05,2.88-5.19,3.52-.1-.27-.4-.75-.61-.96,2.71-.48,3.97-1.3,4.59-2.56h-4.31v-1.04h4.66c.08-.29,.13-.59,.18-.91h1.14c-.05,.32-.1,.63-.16,.91h4.93Zm-8.82-.86h-1.06v-7.64h3.41c.22-.51,.42-1.12,.54-1.57l1.3,.22c-.21,.46-.43,.93-.66,1.34h4.56v6.75c0,.48-.08,.72-.38,.88-.29,.16-.72,.18-1.3,.18-.06-.27-.24-.64-.38-.88h.8c.13,0,.16-.05,.16-.18v-5.78h-6.99v6.66Zm3.01-.4v-1.91c-.58,.79-1.38,1.55-2.1,1.99-.13-.19-.4-.5-.58-.66,.8-.38,1.71-1.17,2.29-1.94h-2.03v-.75h1.17c-.13-.35-.37-.82-.62-1.18l.64-.24c.26,.37,.56,.88,.67,1.2l-.46,.22h1.02v-1.63c-.7,.08-1.41,.14-2.05,.18-.03-.18-.14-.43-.24-.64,1.62-.11,3.59-.37,4.67-.66l.56,.62c-.58,.16-1.31,.3-2.08,.4v1.73h1.04l-.46-.21c.22-.38,.54-.98,.69-1.36l.74,.3c-.27,.45-.56,.9-.78,1.26h1.36v.75h-2.58v.02c.46,.3,1.97,1.25,2.37,1.55l-.48,.69c-.37-.32-1.25-.98-1.89-1.42v1.68h-.86Zm1.5,2.46c1.36,.77,3.23,1.86,4.23,2.56l-.72,.8c-.93-.69-2.8-1.86-4.19-2.66l.69-.7Z"/>
      <path class="cls-5" d="M106.9,128.41c-.37,1.23-.98,2.26-1.74,3.07,.8,.74,1.76,1.3,2.83,1.65-.22,.18-.53,.58-.66,.83-1.1-.4-2.06-1.02-2.88-1.81-.8,.66-1.74,1.18-2.83,1.6-.11-.24-.42-.7-.61-.91,1.06-.35,1.98-.83,2.75-1.44-.53-.66-.99-1.39-1.34-2.19-.29,.37-.58,.69-.91,.98-.14-.18-.5-.54-.74-.72v4.1h-.94v-4.29h-1.97v4.55h-.82v-4.55h-1.98v4.72h-.91v-5.52h2.77v-2.64h1.06v2.64h2.8v.94c1.04-.86,1.84-2.14,2.26-3.59l1.01,.21c-.14,.48-.32,.98-.54,1.42h4.35v.94h-.94Zm-11.64-.02c-.19-.5-.66-1.28-1.07-1.84l.85-.37c.45,.53,.91,1.26,1.1,1.78l-.88,.43Zm11.09,9.97c0,.61-.14,.91-.64,1.07-.51,.18-1.34,.18-2.67,.18-.06-.3-.24-.7-.4-.99,1.01,.02,1.95,.02,2.21,.02,.26-.02,.34-.08,.34-.29v-2.48h-3.99v4.58h-1.17v-4.58h-3.7v3.79h-1.17v-4.83h4.87v-.99h1.17v.99h5.15v3.54Zm-9.8-8.37c-.14,.94-.38,1.94-.72,2.61-.14-.08-.43-.26-.64-.32,.35-.67,.54-1.55,.67-2.43l.69,.14Zm2.3-.14c.34,.8,.61,1.84,.69,2.5l-.64,.19c-.06-.67-.32-1.71-.64-2.51l.59-.18Zm1.98-3.34c-.46,.69-.96,1.41-1.38,1.89l-.72-.32c.37-.54,.85-1.39,1.1-1.95l.99,.38Zm2.23,1.9c.32,.86,.78,1.65,1.38,2.34,.58-.64,1.02-1.42,1.33-2.34h-2.71Z"/>
    </g>
    <g>
      <path class="cls-5" d="M88.81,159.6c0,.4,0,.82-.03,1.26,.51,3.15,1.36,5.04,3.14,6.72-.29,.22-.59,.58-.75,.93-1.38-1.36-2.21-2.83-2.79-4.8-.4,1.63-1.17,3.35-2.63,4.8-.19-.29-.56-.69-.8-.88l.02-.02c-.32,.03-.82,.05-1.3,.05h-3.47c-1.68,0-2.29-.59-2.29-2.37v-9.54h-.54v-1.02h7.76v1.02h-6.15v9.59c0,.96,.3,1.3,1.17,1.3h3.57c.45,0,1.1-.05,1.44-.11,.02,.21,.06,.53,.11,.77,2.24-2.48,2.43-5.57,2.43-7.71v-1.07h1.1v1.09Zm-9.24,1.91h2.43v4.02h-2.43v-4.02Zm4.63-1.07h-4.1v-3.58h4.1v3.58Zm-3.95,4.31h1.07v-2.45h-1.07v2.45Zm3.01-7.11h-2.24v2h2.24v-2Zm1.76,7.89h-2.51v-3.99h2.51v3.99Zm-.72-3.2h-1.12v2.42h1.12v-2.42Zm2.82-4.77c-.37,1.23-.85,2.34-1.39,3.2-.22-.19-.7-.51-.98-.66,1.06-1.47,1.7-3.79,2.05-6.21l1.09,.18c-.13,.83-.27,1.63-.46,2.4h3.76l.16-.06,.77,.26c-.3,1.42-.7,3.09-1.14,4.13l-.9-.3c.26-.74,.54-1.89,.77-2.93h-3.73Z"/>
      <path class="cls-5" d="M106.01,167.1c.64,0,.74-.42,.82-2.87,.27,.22,.78,.43,1.1,.53-.13,2.72-.45,3.47-1.84,3.47h-2.29c-1.42,0-1.81-.42-1.81-1.78v-5.7h-2.99c-.3,3.42-1.07,6.23-4.75,7.71-.14-.29-.48-.72-.75-.93,3.41-1.3,4-3.79,4.24-6.79h-4.05v-1.15h14.01v1.15h-4.5v5.68c0,.54,.13,.66,.75,.66h2.06Zm.34-10.8h-11.27v-1.14h11.27v1.14Z"/>
    </g>
    <g>
      <path class="cls-5" d="M29.3,195.8c.99-.85,1.55-2.26,1.79-3.65l1.06,.29c-.3,1.49-.8,3.06-1.89,3.97l-.96-.61Zm14.25-5.38s-.02,.35-.05,.51c-.21,3.34-.45,4.66-.9,5.15-.27,.3-.58,.42-1.02,.45-.42,.03-1.22,.03-2.03-.03-.03-.3-.14-.79-.32-1.09,.78,.1,1.54,.1,1.81,.1,.29,0,.45-.03,.58-.16,.29-.32,.5-1.33,.67-3.87h-10.92v-8.76h11.17v1.06h-5.12v1.57h4.58v.96h-4.58v1.57h4.58v.98h-4.58v1.57h6.13Zm-11.03-6.64v1.57h3.73v-1.57h-3.73Zm3.73,2.53h-3.73v1.57h3.73v-1.57Zm-3.73,4.11h3.73v-1.57h-3.73v1.57Zm1.89,2.11c.29,1.01,.5,2.3,.53,3.17l-1.06,.18c-.02-.86-.22-2.16-.5-3.18l1.02-.16Zm2.64-.14c.46,.86,.88,2.05,1.01,2.79l-.99,.29c-.11-.74-.51-1.95-.93-2.87l.91-.21Zm3.01,2.18c-.24-.59-.82-1.54-1.36-2.21l.86-.35c.58,.66,1.17,1.57,1.41,2.14l-.91,.42Z"/>
      <path class="cls-5" d="M53.22,189.12c1.42,2.4,4.1,4.66,6.82,5.68-.3,.26-.7,.74-.88,1.06-2.21-.98-4.39-2.77-5.94-4.85v5.54h-1.22v-5.49c-1.58,2.03-3.73,3.76-5.86,4.75-.18-.29-.56-.75-.83-.99,2.58-1.06,5.22-3.27,6.69-5.59v-3.91h-6.13v-1.17h6.13v-2.21h1.22v2.21h6.35v1.17h-6.35v3.79Zm-3.41-3.22c-.16,.67-.38,1.3-.62,1.89,.67,.59,1.41,1.3,1.81,1.76l-.82,.82c-.32-.4-.91-.99-1.49-1.55-.54,1.01-1.23,1.86-2.02,2.51-.21-.21-.67-.59-.94-.77,1.46-1.09,2.45-2.8,2.91-4.87l1.17,.21Zm7.51-.02c-.13,.67-.32,1.3-.54,1.89,1.01,.78,2.24,1.81,2.88,2.46l-.85,.82c-.54-.61-1.55-1.5-2.5-2.29-.4,.74-.86,1.38-1.41,1.89-.22-.18-.7-.51-.99-.64,1.15-.99,1.92-2.54,2.27-4.32l1.14,.19Z"/>
      <path class="cls-5" d="M70.89,184.15v2.29h4.03v10h-1.18v-.93h-10.05v.99h-1.17v-10.07h3.86v-2.29h-4.71v-1.15h13.96v1.15h-4.74Zm2.85,10.26v-2.74h-2.37c-1.31,0-1.62-.34-1.62-1.62v-2.51h-2.31c-.08,1.68-.67,3.54-3.07,4.72-.13-.24-.46-.66-.69-.83v2.98h10.05Zm-10.05-6.87v3.87c2.13-1.06,2.59-2.5,2.67-3.87h-2.67Zm6.07-3.39h-2.29v2.29h2.29v-2.29Zm1.14,3.39v2.51c0,.42,.06,.48,.61,.48h1.92c.16,0,.26,0,.32-.02v-2.98h-2.85Z"/>
      <path class="cls-5" d="M91.8,194.77v1.09h-14.28v-1.09h4.75v-2.87h-3.6v-5.35h3.6v-2.5h-4.32v-1.1h13.46v1.1h-4.47v2.48h3.68v5.35h-.58v.02h-3.11v2.87h4.85Zm-8.37-3.91v3.91h2.37v-3.92h3.63v-3.28h-3.63v-3.51h-2.38v3.54h-3.59v3.27h3.6Z"/>
      <path class="cls-5" d="M106.9,184.53c-.37,1.23-.98,2.26-1.74,3.07,.8,.74,1.76,1.3,2.83,1.65-.22,.18-.53,.58-.66,.83-1.1-.4-2.06-1.02-2.88-1.81-.8,.66-1.74,1.18-2.83,1.6-.11-.24-.42-.7-.61-.91,1.06-.35,1.98-.83,2.75-1.44-.53-.66-.99-1.39-1.34-2.19-.29,.37-.58,.69-.91,.98-.14-.18-.5-.54-.74-.72v4.1h-.94v-4.29h-1.97v4.55h-.82v-4.55h-1.98v4.72h-.91v-5.52h2.77v-2.64h1.06v2.64h2.8v.94c1.04-.86,1.84-2.14,2.26-3.59l1.01,.21c-.14,.48-.32,.98-.54,1.42h4.35v.94h-.94Zm-11.64-.02c-.19-.5-.66-1.28-1.07-1.84l.85-.37c.45,.53,.91,1.26,1.1,1.78l-.88,.43Zm11.09,9.97c0,.61-.14,.91-.64,1.07-.51,.18-1.34,.18-2.67,.18-.06-.3-.24-.7-.4-.99,1.01,.02,1.95,.02,2.21,.02,.26-.02,.34-.08,.34-.29v-2.48h-3.99v4.58h-1.17v-4.58h-3.7v3.79h-1.17v-4.83h4.87v-.99h1.17v.99h5.15v3.54Zm-9.8-8.37c-.14,.94-.38,1.94-.72,2.61-.14-.08-.43-.26-.64-.32,.35-.67,.54-1.55,.67-2.43l.69,.14Zm2.3-.14c.34,.8,.61,1.84,.69,2.5l-.64,.19c-.06-.67-.32-1.71-.64-2.51l.59-.18Zm1.98-3.34c-.46,.69-.96,1.41-1.38,1.89l-.72-.32c.37-.54,.85-1.39,1.1-1.95l.99,.38Zm2.23,1.9c.32,.86,.78,1.65,1.38,2.34,.58-.64,1.02-1.42,1.33-2.34h-2.71Z"/>
    </g>
    <g>
      <path class="cls-5" d="M69.3,212.63v1.7h5.52v8.82c0,.7-.18,1.02-.69,1.2-.51,.19-1.42,.19-2.71,.19-.08-.32-.27-.77-.43-1.07,1.01,.05,1.98,.05,2.26,.03,.29-.02,.37-.1,.37-.35v-7.71h-9.91v9.09h-1.17v-10.2h5.46v-1.7h-6.32v-1.12h6.32v-1.58h1.3v1.58h6.37v1.12h-6.37Zm-.11,8.84v2.75h-1.14v-2.75h-3.44v-.99h3.44v-1.62h-3.11v-.98h4.56c.38-.64,.85-1.58,1.1-2.24l1.02,.29c-.35,.67-.72,1.39-1.09,1.95h1.94v.98h-3.3v1.62h3.57v.99h-3.57Zm-2.5-5.81c.42,.58,.85,1.34,1.01,1.87l-.98,.35c-.16-.54-.58-1.34-.98-1.94l.94-.29Z"/>
      <path class="cls-5" d="M82.28,210h1.17v7.43c0,2.24-.61,5.51-4.45,7.28-.21-.29-.56-.66-.85-.9,1.98-.82,3.04-2.16,3.59-3.5-1.41,.27-2.83,.54-3.94,.75l-.26-1.18c1.18-.16,2.83-.45,4.55-.74,.14-.64,.19-1.23,.19-1.71v-.43h-4.08v-1.09h4.08v-2.45h-4.31v-1.12h4.31v-2.34Zm9.65,10.66h-4.85v3.87h-1.18v-14.53h1.18v2.34h4.58v1.12h-4.58v2.45h4.26v1.1h-4.26v2.53h4.85v1.12Z"/>
      <path class="cls-5" d="M106.9,212.5c-.37,1.23-.98,2.26-1.74,3.07,.8,.74,1.76,1.3,2.83,1.65-.22,.18-.53,.58-.66,.83-1.1-.4-2.06-1.02-2.88-1.81-.8,.66-1.74,1.18-2.83,1.6-.11-.24-.42-.7-.61-.91,1.06-.35,1.98-.83,2.75-1.44-.53-.66-.99-1.39-1.34-2.19-.29,.37-.58,.69-.91,.98-.14-.18-.5-.54-.74-.72v4.1h-.94v-4.29h-1.97v4.55h-.82v-4.55h-1.98v4.72h-.91v-5.52h2.77v-2.64h1.06v2.64h2.8v.94c1.04-.86,1.84-2.14,2.26-3.59l1.01,.21c-.14,.48-.32,.98-.54,1.42h4.35v.94h-.94Zm-11.64-.02c-.19-.5-.66-1.28-1.07-1.84l.85-.37c.45,.53,.91,1.26,1.1,1.78l-.88,.43Zm11.09,9.97c0,.61-.14,.91-.64,1.07-.51,.18-1.34,.18-2.67,.18-.06-.3-.24-.7-.4-.99,1.01,.02,1.95,.02,2.21,.02,.26-.02,.34-.08,.34-.29v-2.48h-3.99v4.58h-1.17v-4.58h-3.7v3.79h-1.17v-4.83h4.87v-.99h1.17v.99h5.15v3.54Zm-9.8-8.37c-.14,.94-.38,1.94-.72,2.61-.14-.08-.43-.26-.64-.32,.35-.67,.54-1.55,.67-2.43l.69,.14Zm2.3-.14c.34,.8,.61,1.84,.69,2.5l-.64,.19c-.06-.67-.32-1.71-.64-2.51l.59-.18Zm1.98-3.34c-.46,.69-.96,1.41-1.38,1.89l-.72-.32c.37-.54,.85-1.39,1.1-1.95l.99,.38Zm2.23,1.9c.32,.86,.78,1.65,1.38,2.34,.58-.64,1.02-1.42,1.33-2.34h-2.71Z"/>
    </g>
    <g>
      <path class="cls-5" d="M69.3,238.08c-.02,.58-.03,1.38-.11,2.32,.24,1.91,1.2,8.6,6.85,11.11-.34,.27-.69,.67-.86,1.01-4-1.87-5.71-5.83-6.48-8.8-.74,3.2-2.43,6.79-6.34,8.87-.21-.32-.59-.69-.96-.93,6.64-3.36,6.55-11.14,6.59-13.57h1.31Z"/>
      <path class="cls-5" d="M85.83,247.01c.83,2.54,2.3,4.29,3.73,4.27,.48-.02,.66-.66,.75-2.34,.27,.24,.7,.46,1.04,.56-.19,2.34-.67,2.94-1.84,2.94-2.16,.02-3.99-2.26-4.91-5.44h-4.82v3.95l4.32-1.22c.02,.34,.08,.85,.14,1.1-4.8,1.42-5.43,1.6-5.83,1.87-.1-.32-.37-.85-.56-1.09,.29-.14,.7-.51,.7-1.17v-11.62h11.32v4.63h-4.69c.05,.85,.18,1.65,.35,2.42h5.52v1.12h-5.23Zm-6.05-7.04v2.38h8.92v-2.38h-8.92Zm4.53,5.92c-.14-.77-.27-1.57-.32-2.42h-4.21v2.42h4.53Z"/>
      <path class="cls-5" d="M106.9,240.61c-.37,1.23-.98,2.26-1.74,3.07,.8,.74,1.76,1.3,2.83,1.65-.22,.18-.53,.58-.66,.83-1.1-.4-2.06-1.02-2.88-1.81-.8,.66-1.74,1.18-2.83,1.6-.11-.24-.42-.7-.61-.91,1.06-.35,1.98-.83,2.75-1.44-.53-.66-.99-1.39-1.34-2.19-.29,.37-.58,.69-.91,.98-.14-.18-.5-.54-.74-.72v4.1h-.94v-4.29h-1.97v4.55h-.82v-4.55h-1.98v4.72h-.91v-5.52h2.77v-2.64h1.06v2.64h2.8v.94c1.04-.86,1.84-2.14,2.26-3.59l1.01,.21c-.14,.48-.32,.98-.54,1.42h4.35v.94h-.94Zm-11.64-.02c-.19-.5-.66-1.28-1.07-1.84l.85-.37c.45,.53,.91,1.26,1.1,1.78l-.88,.43Zm11.09,9.97c0,.61-.14,.91-.64,1.07-.51,.18-1.34,.18-2.67,.18-.06-.3-.24-.7-.4-.99,1.01,.02,1.95,.02,2.21,.02,.26-.02,.34-.08,.34-.29v-2.48h-3.99v4.58h-1.17v-4.58h-3.7v3.79h-1.17v-4.83h4.87v-.99h1.17v.99h5.15v3.54Zm-9.8-8.37c-.14,.94-.38,1.94-.72,2.61-.14-.08-.43-.26-.64-.32,.35-.67,.54-1.55,.67-2.43l.69,.14Zm2.3-.14c.34,.8,.61,1.84,.69,2.5l-.64,.19c-.06-.67-.32-1.71-.64-2.51l.59-.18Zm1.98-3.34c-.46,.69-.96,1.41-1.38,1.89l-.72-.32c.37-.54,.85-1.39,1.1-1.95l.99,.38Zm2.23,1.9c.32,.86,.78,1.65,1.38,2.34,.58-.64,1.02-1.42,1.33-2.34h-2.71Z"/>
    </g>
    <g>
      <path class="cls-5" d="M87.97,273.23c1.04,1.17,2.59,2.13,4.15,2.64-.26,.22-.61,.67-.78,.96-1.81-.7-3.57-2.03-4.71-3.6h-3.97c-1.1,1.5-2.56,2.83-4.5,3.83-.14-.3-.56-.69-.85-.86,1.62-.77,2.9-1.79,3.89-2.96h-3.68v-1.01h4.45c.27-.43,.54-.88,.77-1.33h-3.54v-.96h3.95c.18-.4,.3-.83,.43-1.25h-5.19v-.98h5.41c.1-.5,.16-1.01,.21-1.5l1.23,.1c-.06,.46-.13,.94-.24,1.41h6.03v.98h-6.26c-.11,.42-.24,.85-.4,1.25h5.99v.96h-6.39c-.21,.45-.42,.9-.69,1.33h8.47v1.01h-3.79Zm-4.58,4.95c-1.46,.72-3.03,1.47-4.24,2.06l-.62-.94c1.15-.46,2.91-1.26,4.61-2.02l.26,.9Zm-.98-.98c-.34-.5-1.09-1.23-1.76-1.73l.82-.59c.67,.48,1.46,1.18,1.81,1.68l-.86,.64Zm1.7-3.44h1.12v5.73c0,.62-.13,.9-.58,1.07-.46,.16-1.17,.16-2.31,.16-.06-.29-.21-.7-.37-.99,.85,.02,1.62,.02,1.82,.02,.24-.02,.3-.08,.3-.27v-5.71Zm2.4,3.52c1.34,.61,3.03,1.55,3.92,2.13l-.7,.86c-.9-.64-2.59-1.62-3.91-2.24l.69-.75Zm2.23-1.87c-.62,.67-1.39,1.34-1.98,1.79l-.8-.54c.56-.5,1.38-1.31,1.82-1.86l.96,.61Z"/>
      <path class="cls-5" d="M104.66,273.88c.83,1.89,2.18,3.79,3.49,4.79-.27,.19-.64,.61-.85,.91-1.2-1.07-2.39-2.98-3.22-4.93v6.13h-1.14v-5.86c-.86,1.95-2.1,3.76-3.44,4.79-.18-.29-.51-.69-.78-.9-1.79,.46-3.63,.94-5.04,1.31l-.3-1.09c.7-.13,1.57-.34,2.53-.58v-4.56h-2.26v-1.04h2.26v-1.71h-1.6v-.54c-.24,.24-.45,.46-.69,.64-.08-.26-.35-.88-.5-1.17,1.22-.94,2.48-2.4,3.23-3.97l.88,.4c-.1,.21-.21,.45-.34,.67,1.04,.64,2.05,1.41,2.64,2.08l-.59,.96c-.58-.67-1.58-1.49-2.58-2.16-.48,.75-1.02,1.44-1.58,2.06h3.86v1.02h-1.71v1.71h2v1.04h-2v4.31l1.98-.48,.11,.85c1.33-1.04,2.61-2.83,3.38-4.69h-2.95v-1.1h3.49v-2.72h-1.84c-.3,.82-.67,1.55-1.04,2.14-.22-.16-.72-.38-.99-.48,.86-1.18,1.46-2.98,1.82-4.75l1.04,.18c-.13,.63-.27,1.23-.46,1.83h1.47v-2.79h1.14v2.79h3.36v1.09h-3.36v2.72h3.81v1.1h-3.23Zm-10.04,.86c.34,.96,.61,2.19,.66,3.01l-.83,.22c-.03-.83-.29-2.08-.59-3.04l.77-.19Zm2.75,2.66c.26-.75,.53-2.02,.64-2.87l.9,.24c-.26,.96-.53,2.11-.77,2.85l-.77-.22Z"/>
    </g>
    <g>
      <path class="cls-5" d="M43.98,307.96h-5.35v.8h-1.06v-8.95c-.16,.3-.32,.56-.5,.82-.14-.14-.43-.42-.69-.59v1.38h-2.64l-.26,1.09h3.33v5.14c0,.51-.1,.77-.5,.93-.37,.16-.98,.16-1.92,.16-.03-.26-.16-.63-.29-.9,.69,.03,1.3,.03,1.47,.02,.19-.02,.24-.05,.24-.22v-4.18h-2.56c-.21,.8-.38,1.57-.58,2.21l1.66-.29c-.19-.4-.38-.82-.58-1.17l.72-.24c.46,.88,.99,2.05,1.25,2.72l-.75,.29c-.08-.22-.19-.53-.32-.85-1.1,.22-2.24,.45-3.17,.62l-.29-.85,.5-.08c.19-.67,.42-1.5,.62-2.37h-1.41v5.33h-1.01v-5.33h-.42v-.94h.42v-.54h1.01v.54h1.63c.08-.38,.18-.74,.24-1.09h-2.51v-4.34h.93v3.46h4.21v-3.46h.96v2.56c.93-1.42,1.71-3.46,2.19-5.46l1.06,.26c-.22,.93-.53,1.87-.86,2.77h5.11v1.09h-2.26v2.13h2.03v1.02h-2.03v2.18h2.06v1.04h-2.06v2.21h2.35v1.09Zm-6.98-11.43h-7.43v-.98h3.3c-.14-.4-.32-.83-.46-1.2l.99-.22c.21,.42,.45,.99,.61,1.42h2.99v.98Zm-2.29,3.52c-.29-.27-.69-.66-1.15-1.04-.45,.43-.93,.85-1.34,1.17-.14-.13-.46-.38-.66-.51,.46-.34,.94-.72,1.42-1.15-.43-.32-.85-.66-1.23-.93l.54-.48c.37,.27,.8,.59,1.2,.91,.34-.32,.64-.64,.9-.98l.75,.27c-.3,.38-.67,.78-1.04,1.17,.45,.38,.86,.75,1.14,1.02l-.53,.54Zm5.84-1.76h-1.92v2.13h1.92v-2.13Zm0,3.15h-1.92v2.18h1.92v-2.18Zm-1.92,5.43h1.92v-2.21h-1.92v2.21Zm2.38-9.81c-.21-.62-.69-1.63-1.07-2.35l1.02-.35c.42,.72,.9,1.68,1.12,2.27l-1.07,.43Z"/>
      <path class="cls-5" d="M47.83,300.21v2c0,1.87-.26,4.51-1.6,6.29-.19-.24-.69-.62-.96-.77,1.25-1.63,1.39-3.86,1.39-5.54v-3.06h12.92v1.07h-11.75Zm10.9-2.34h-11.97v-3.09h1.17v2.02h4.13v-2.63h1.23v2.63h4.23v-2.02h1.22v3.09Zm1.09,7.51h-5.25v3.41h-1.23v-3.41h-4.99v-1.07h4.99v-1.71h-4.19v-1.02h9.83v1.02h-4.4v1.71h5.25v1.07Z"/>
      <path class="cls-5" d="M69.3,294.23c-.02,.58-.03,1.38-.11,2.32,.24,1.91,1.2,8.6,6.85,11.11-.34,.27-.69,.67-.86,1.01-4-1.87-5.71-5.83-6.48-8.8-.74,3.2-2.43,6.79-6.34,8.87-.21-.32-.59-.69-.96-.93,6.64-3.36,6.55-11.14,6.59-13.57h1.31Z"/>
      <path class="cls-5" d="M85.83,303.16c.83,2.54,2.3,4.29,3.73,4.27,.48-.02,.66-.66,.75-2.34,.27,.24,.7,.46,1.04,.56-.19,2.34-.67,2.94-1.84,2.94-2.16,.02-3.99-2.26-4.91-5.44h-4.82v3.95l4.32-1.22c.02,.34,.08,.85,.14,1.1-4.8,1.42-5.43,1.6-5.83,1.87-.1-.32-.37-.85-.56-1.09,.29-.14,.7-.51,.7-1.17v-11.62h11.32v4.63h-4.69c.05,.85,.18,1.65,.35,2.42h5.52v1.12h-5.23Zm-6.05-7.04v2.38h8.92v-2.38h-8.92Zm4.53,5.92c-.14-.77-.27-1.57-.32-2.42h-4.21v2.42h4.53Z"/>
      <path class="cls-5" d="M106.9,296.76c-.37,1.23-.98,2.26-1.74,3.07,.8,.74,1.76,1.3,2.83,1.65-.22,.18-.53,.58-.66,.83-1.1-.4-2.06-1.02-2.88-1.81-.8,.66-1.74,1.18-2.83,1.6-.11-.24-.42-.7-.61-.91,1.06-.35,1.98-.83,2.75-1.44-.53-.66-.99-1.39-1.34-2.19-.29,.37-.58,.69-.91,.98-.14-.18-.5-.54-.74-.72v4.1h-.94v-4.29h-1.97v4.55h-.82v-4.55h-1.98v4.72h-.91v-5.52h2.77v-2.64h1.06v2.64h2.8v.94c1.04-.86,1.84-2.14,2.26-3.59l1.01,.21c-.14,.48-.32,.98-.54,1.42h4.35v.94h-.94Zm-11.64-.02c-.19-.5-.66-1.28-1.07-1.84l.85-.37c.45,.53,.91,1.26,1.1,1.78l-.88,.43Zm11.09,9.97c0,.61-.14,.91-.64,1.07-.51,.18-1.34,.18-2.67,.18-.06-.3-.24-.7-.4-.99,1.01,.02,1.95,.02,2.21,.02,.26-.02,.34-.08,.34-.29v-2.48h-3.99v4.58h-1.17v-4.58h-3.7v3.79h-1.17v-4.83h4.87v-.99h1.17v.99h5.15v3.54Zm-9.8-8.37c-.14,.94-.38,1.94-.72,2.61-.14-.08-.43-.26-.64-.32,.35-.67,.54-1.55,.67-2.43l.69,.14Zm2.3-.14c.34,.8,.61,1.84,.69,2.5l-.64,.19c-.06-.67-.32-1.71-.64-2.51l.59-.18Zm1.98-3.34c-.46,.69-.96,1.41-1.38,1.89l-.72-.32c.37-.54,.85-1.39,1.1-1.95l.99,.38Zm2.23,1.9c.32,.86,.78,1.65,1.38,2.34,.58-.64,1.02-1.42,1.33-2.34h-2.71Z"/>
    </g>
    <g>
      <path class="cls-5" d="M91.85,331.16v1.1h-6.96c-.59,1.89-2.29,3.55-6.85,4.66-.13-.26-.45-.72-.7-.98,4.08-.91,5.67-2.23,6.31-3.68h-6.16v-1.1h1.79v-3.95h4.72v-1.55h1.18v1.55h4.98v3.95h1.7Zm-10.96-6.23h-2.98v-1.04h2.98v-1.6h1.17v1.6h2.19v1.04h-2.19v1.57h-1.17v-1.57Zm3.04,6.23c.05-.37,.06-.74,.06-1.09v-1.81h-3.57v2.9h3.51Zm1.54,1.49c2.13,.86,4.96,2.27,6.37,3.25l-.59,.99c-1.39-.99-4.18-2.46-6.35-3.41l.58-.83Zm1.97-7.73h-2.4v-1.04h2.4v-1.58h1.18v1.58h2.9v1.04h-2.9v1.55h-1.18v-1.55Zm-2.26,5.15c0,.35-.02,.72-.06,1.09h3.86v-2.9h-3.79v1.81Z"/>
      <path class="cls-5" d="M98.68,334.1l.06,.96c-1.79,.46-3.7,.94-5.07,1.3l-.24-1.07c.64-.13,1.47-.32,2.37-.53v-4.63h-2.21v-1.04h2.21v-1.73h-1.41v-.72c-.24,.26-.48,.5-.72,.7-.06-.26-.3-.9-.46-1.18,1.14-.94,2.3-2.42,2.99-3.97l.85,.42c-.1,.21-.21,.45-.32,.67,.9,.66,1.81,1.46,2.39,2.06l-.51,.98c-.56-.64-1.49-1.49-2.35-2.18-.48,.78-1.01,1.54-1.57,2.18h3.57v1.04h-1.52v1.73h1.97v1.04h-1.97v4.43l1.95-.46Zm-4.07-3.14c.26,.94,.5,2.15,.58,2.93l-.78,.26c-.05-.8-.29-2.03-.53-2.96l.74-.22Zm2.47,2.75c.24-.8,.53-2.06,.66-2.93l.85,.29c-.27,.98-.58,2.16-.83,2.9l-.67-.26Zm6.82-5.6c.21,.56,.42,1.26,.5,1.76h3.52v.98h-4.59c-.05,.53-.11,1.02-.21,1.49h3.91s-.02,.34-.03,.5c-.18,2.34-.38,3.3-.72,3.67-.24,.27-.51,.35-.91,.38-.35,.02-1.02,.02-1.71-.02-.02-.32-.13-.72-.29-1.01,.69,.08,1.33,.1,1.57,.1,.21,0,.37-.02,.48-.14,.21-.22,.35-.9,.5-2.5h-3.01c-.5,1.65-1.46,2.85-3.43,3.62-.13-.27-.4-.67-.62-.88,2.59-.93,3.19-2.69,3.41-5.2h-2.71v-.98h3.79c-.1-.48-.26-1.09-.42-1.6l.98-.16Zm4.02-1.34v2.51h-1.02v-1.57h-6.34v1.57h-.99v-2.51h5.17c.27-.58,.62-1.36,.82-1.97h-3.68c.3,.54,.58,1.22,.66,1.66l-1.01,.26c-.08-.46-.35-1.2-.64-1.75l.75-.18h-1.89v-.98h3.52c-.08-.46-.21-1.02-.34-1.49l1.01-.14c.18,.5,.34,1.14,.43,1.63h3.28v.98h-1.28l.37,.06c-.29,.67-.61,1.38-.91,1.91h2.1Z"/>
    </g>
    <g>
      <path class="cls-5" d="M34.31,354.03h1.17v4.64c0,2.69-.56,4.99-4.53,6.39-.13-.29-.45-.74-.69-.94,1.94-.67,2.96-1.54,3.51-2.56-1.46,.26-2.88,.51-4,.72l-.19-1.07c1.17-.16,2.83-.43,4.56-.72,.11-.45,.16-.94,.18-1.44h-3.99v-1.02h3.99v-1.75h-4.35v-1.06h4.35v-1.18Zm-.51-2.5h2.53v1.09h-2.53v1.22h-1.17v-1.22h-2.95v-1.09h2.95v-1.2h1.17v1.2Zm5.68,1.09h-2.51v-1.09h2.51v-1.2h1.17v1.2h3.07v1.09h-3.07v1.23h-1.17v-1.23Zm4.42,9.32h-4.87v2.95h-1.17v-10.87h1.17v1.2h4.45v1.04h-4.45v1.75h4.11v1.02h-4.11v1.82h4.87v1.09Z"/>
      <path class="cls-5" d="M50.02,354.27c-.35,.66-.8,1.33-1.28,1.95v8.69h-1.12v-7.35c-.59,.66-1.2,1.25-1.81,1.76-.11-.26-.43-.85-.62-1.14,1.39-1.06,2.91-2.69,3.83-4.32l1.01,.4Zm-.13-3.46c-.93,1.38-2.45,2.85-3.84,3.81-.13-.27-.43-.74-.62-.98,1.25-.82,2.66-2.13,3.33-3.26l1.14,.43Zm5.38,6.98v1.25h3.78v1.01h-3.78v1.36h4.55v1.06h-4.55v2.46h-1.17v-2.46h-4.31v-1.06h4.31v-1.36h-3.6v-1.01h3.6v-1.25h-3.39v-1.01h3.39v-1.36h-4.07v-1.04h4.07v-1.36h-3.31v-1.01h3.31v-1.68h1.17v1.68h3.54v2.37h1.17v1.04h-1.17v2.37h-3.54Zm0-3.41h2.38v-1.36h-2.38v1.36Zm0,2.4h2.38v-1.36h-2.38v1.36Z"/>
      <path class="cls-5" d="M71.09,362.74c1.68,.45,3.46,1.04,4.58,1.49l-1.07,.72c-1.06-.48-2.83-1.1-4.63-1.62l.67-.59h-4.11l.91,.58c-1.3,.69-3.44,1.33-5.19,1.62-.16-.22-.51-.61-.74-.83,1.65-.26,3.68-.83,4.74-1.36h-2.4v-5.04c-.67,.1-1.33,.18-1.98,.24-.11-.27-.42-.78-.62-1.01,.69-.05,1.41-.11,2.15-.19-.18-.21-.54-.58-.74-.74,1.02-.4,2.14-.94,2.79-1.57l.99,.3c-.74,.77-1.9,1.52-2.93,1.98,1.57-.18,3.15-.4,4.59-.74v-1.71h-3.68v-.9h8.56v.9h-3.81v1.44c1.3-.35,2.42-.8,3.25-1.31l.99,.54c-1.18,.78-2.79,1.38-4.59,1.84h4.88v5.95h-2.61Zm-7.89-8.53h-1.09v-2.66h5.86c-.18-.34-.35-.67-.53-.98l1.09-.38c.27,.4,.58,.94,.8,1.36h5.91v2.66h-1.14v-1.67h-10.9v1.67Zm1.81,3.33v.99h7.51v-1.01h-7.38l-.13,.02Zm7.51,1.7h-7.51v1.02h7.51v-1.02Zm-7.51,2.77h7.51v-1.02h-7.51v1.02Z"/>
      <path class="cls-5" d="M80.58,358.93v4.53c0,.66-.14,.96-.54,1.15-.37,.19-.98,.24-1.98,.22-.05-.29-.19-.77-.35-1.1,.7,.02,1.33,.02,1.5,.02,.19,0,.29-.06,.29-.3v-4.15c-.7,.22-1.36,.43-1.97,.62l-.29-1.15c.62-.16,1.41-.4,2.26-.66v-3.47h-2.03v-1.1h2.03v-3.2h1.09v3.2h1.62v1.1h-1.62v3.14l1.5-.48,.16,1.09-1.67,.54Zm10.5-2.13c-.54,2.13-1.5,3.83-2.75,5.12,1.06,.88,2.3,1.54,3.76,1.95-.26,.24-.59,.69-.77,1.02-1.49-.48-2.75-1.22-3.84-2.16-1.14,.96-2.43,1.68-3.81,2.19-.14-.3-.43-.74-.66-.96,1.33-.43,2.59-1.1,3.68-2.03-1.07-1.17-1.9-2.64-2.48-4.32h-.16c-.06,2.29-.46,5.2-2.03,7.2-.19-.24-.66-.61-.91-.75,1.65-2.1,1.81-5.03,1.81-7.22v-4.18h3.63v-2.34h1.17v2.34h3.04l.21-.05,.85,.22c-.32,1.12-.7,2.4-1.04,3.2l-1.04-.24c.21-.51,.43-1.28,.62-2.02h-2.64v2.77h2.42l.21-.05,.74,.29Zm-7.01-3.01v2.77h2.48v-2.77h-2.48Zm1.26,3.83c.5,1.34,1.23,2.56,2.18,3.55,.93-.96,1.66-2.16,2.14-3.55h-4.32Z"/>
      <path class="cls-5" d="M98.42,361.92c-1.04,1.01-2.54,2.07-3.81,2.71-.19-.21-.64-.59-.91-.78,1.31-.58,2.74-1.47,3.62-2.34l1.1,.42Zm3.06-1.25v2.88c0,.62-.14,.93-.66,1.12-.51,.18-1.3,.19-2.46,.19-.06-.35-.26-.78-.43-1.1,.98,.03,1.82,.03,2.06,.02,.27-.02,.34-.06,.34-.26v-2.79c-4.63,.3-5.23,.37-5.67,.5-.05-.21-.19-.75-.32-1.02,.53-.06,1.23-.29,2.16-.67,.51-.18,1.63-.67,2.94-1.3-2.94,.19-3.38,.26-3.63,.35-.05-.21-.21-.75-.32-1.02,.32-.05,.69-.19,1.14-.43,.45-.21,1.87-.98,2.99-1.86h-4.72v1.95h-1.12v-2.98h6.27v-1.49h-6.11v-1.04h6.11v-1.41h1.22v1.41h6.11v1.04h-6.11v1.49h6.32v2.98h-1.17v-1.95h-6.08l.48,.37c-.99,.72-2.1,1.38-3.2,1.91l3.57-.21c.77-.4,1.54-.85,2.24-1.3l.83,.72c-2.16,1.3-4.42,2.39-6.64,3.22l6.96-.37c-.43-.42-.88-.83-1.3-1.17l.85-.53c1.12,.91,2.54,2.26,3.22,3.1l-.9,.64c-.26-.35-.62-.78-1.06-1.25l-3.92,.26Zm2.19,.75c1.33,.69,3.04,1.75,3.94,2.48l-.94,.67c-.82-.72-2.53-1.82-3.89-2.56l.9-.59Z"/>
    </g>
    <g>
      <path class="cls-5" d="M78.95,388.78c-.16,1.38-.46,2.86-.82,3.86-.19-.11-.66-.27-.88-.34,.35-.99,.61-2.4,.75-3.68l.94,.16Zm2.99-4.39c.46,1.01,.94,2.34,1.12,3.15l-.86,.32c-.05-.21-.1-.48-.18-.74-3.51,.53-3.99,.64-4.29,.8-.06-.22-.24-.77-.38-1.07,.35-.08,.7-.46,1.18-1.06,.26-.27,.75-.96,1.33-1.84-1.68,.21-2.02,.27-2.24,.38-.06-.24-.24-.77-.35-1.07,.26-.06,.54-.38,.85-.88,.35-.46,1.46-2.31,2.11-4.05l1.07,.46c-.7,1.52-1.58,3.09-2.47,4.31l1.67-.16c.42-.67,.83-1.42,1.18-2.14l.99,.61c-1.02,1.82-2.27,3.7-3.55,5.17l2.61-.35c-.19-.54-.4-1.1-.61-1.57l.82-.27Zm-1.42,4.16c.19,1.07,.38,2.43,.43,3.35l-.9,.19c-.03-.91-.21-2.29-.4-3.36l.86-.18Zm1.54-.4c.34,.91,.74,2.08,.88,2.83l-.85,.29c-.16-.79-.53-1.97-.85-2.85l.82-.27Zm8.21-1.94c-.05,1.95-.13,3.83-.21,5.25h1.58v1.1h-8.37v-1.1h1.66c.18-1.46,.37-3.31,.53-5.25h-2.37v-1.1h2.45c.13-1.65,.24-3.3,.32-4.77h-2.13v-1.12h6.63c0,1.78-.03,3.86-.08,5.89h1.62v1.1h-1.63Zm-1.41,5.25c.1-1.46,.18-3.31,.24-5.25h-2.46c-.16,1.95-.34,3.81-.5,5.25h2.72Zm-1.82-11.12c-.1,1.49-.21,3.14-.34,4.77h2.43c.05-1.63,.08-3.28,.08-4.77h-2.18Z"/>
      <path class="cls-5" d="M106.9,380.99c-.37,1.23-.98,2.26-1.74,3.07,.8,.74,1.76,1.3,2.83,1.65-.22,.18-.53,.58-.66,.83-1.1-.4-2.06-1.02-2.88-1.81-.8,.66-1.74,1.18-2.83,1.6-.11-.24-.42-.7-.61-.91,1.06-.35,1.98-.83,2.75-1.44-.53-.66-.99-1.39-1.34-2.19-.29,.37-.58,.69-.91,.98-.14-.18-.5-.54-.74-.72v4.1h-.94v-4.29h-1.97v4.55h-.82v-4.55h-1.98v4.72h-.91v-5.52h2.77v-2.64h1.06v2.64h2.8v.94c1.04-.86,1.84-2.14,2.26-3.59l1.01,.21c-.14,.48-.32,.98-.54,1.42h4.35v.94h-.94Zm-11.64-.02c-.19-.5-.66-1.28-1.07-1.84l.85-.37c.45,.53,.91,1.26,1.1,1.78l-.88,.43Zm11.09,9.97c0,.61-.14,.91-.64,1.07-.51,.18-1.34,.18-2.67,.18-.06-.3-.24-.7-.4-.99,1.01,.02,1.95,.02,2.21,.02,.26-.02,.34-.08,.34-.29v-2.48h-3.99v4.58h-1.17v-4.58h-3.7v3.79h-1.17v-4.83h4.87v-.99h1.17v.99h5.15v3.54Zm-9.8-8.37c-.14,.94-.38,1.94-.72,2.61-.14-.08-.43-.26-.64-.32,.35-.67,.54-1.55,.67-2.43l.69,.14Zm2.3-.14c.34,.8,.61,1.84,.69,2.5l-.64,.19c-.06-.67-.32-1.71-.64-2.51l.59-.18Zm1.98-3.34c-.46,.69-.96,1.41-1.38,1.89l-.72-.32c.37-.54,.85-1.39,1.1-1.95l.99,.38Zm2.23,1.9c.32,.86,.78,1.65,1.38,2.34,.58-.64,1.02-1.42,1.33-2.34h-2.71Z"/>
    </g>
    <g>
      <path class="cls-5" d="M87.17,408.28c1.55,1.36,3.39,3.31,4.23,4.64l-1.01,.72c-.24-.42-.58-.88-.98-1.38-9.14,.51-10.07,.54-10.69,.77-.05-.26-.26-.85-.38-1.17,.35-.06,.77-.42,1.3-.94,.58-.51,2.43-2.53,3.68-4.51l1.17,.53c-1.26,1.73-2.69,3.38-4.1,4.71l8.16-.4c-.74-.83-1.55-1.67-2.32-2.35l.94-.61Zm-7.6,6.1h10.18v6.66h-1.25v-.83h-7.73v.86h-1.2v-6.69Zm1.2,1.14v3.54h7.73v-3.54h-7.73Z"/>
      <path class="cls-5" d="M106.9,409.05c-.37,1.23-.98,2.26-1.74,3.07,.8,.74,1.76,1.3,2.83,1.65-.22,.18-.53,.58-.66,.83-1.1-.4-2.06-1.02-2.88-1.81-.8,.66-1.74,1.18-2.83,1.6-.11-.24-.42-.7-.61-.91,1.06-.35,1.98-.83,2.75-1.44-.53-.66-.99-1.39-1.34-2.19-.29,.37-.58,.69-.91,.98-.14-.18-.5-.54-.74-.72v4.1h-.94v-4.29h-1.97v4.55h-.82v-4.55h-1.98v4.72h-.91v-5.52h2.77v-2.64h1.06v2.64h2.8v.94c1.04-.86,1.84-2.14,2.26-3.59l1.01,.21c-.14,.48-.32,.98-.54,1.42h4.35v.94h-.94Zm-11.64-.02c-.19-.5-.66-1.28-1.07-1.84l.85-.37c.45,.53,.91,1.26,1.1,1.78l-.88,.43Zm11.09,9.97c0,.61-.14,.91-.64,1.07-.51,.18-1.34,.18-2.67,.18-.06-.3-.24-.7-.4-.99,1.01,.02,1.95,.02,2.21,.02,.26-.02,.34-.08,.34-.29v-2.48h-3.99v4.58h-1.17v-4.58h-3.7v3.79h-1.17v-4.83h4.87v-.99h1.17v.99h5.15v3.54Zm-9.8-8.37c-.14,.94-.38,1.94-.72,2.61-.14-.08-.43-.26-.64-.32,.35-.67,.54-1.55,.67-2.43l.69,.14Zm2.3-.14c.34,.8,.61,1.84,.69,2.5l-.64,.19c-.06-.67-.32-1.71-.64-2.51l.59-.18Zm1.98-3.34c-.46,.69-.96,1.41-1.38,1.89l-.72-.32c.37-.54,.85-1.39,1.1-1.95l.99,.38Zm2.23,1.9c.32,.86,.78,1.65,1.38,2.34,.58-.64,1.02-1.42,1.33-2.34h-2.71Z"/>
    </g>
    <g>
      <path class="cls-5" d="M81.28,445.19h2.67v1.09h-2.67v2.82h-1.15v-2.82h-2.74v-1.09h2.74v-1.34h-2.16v-5.27h2.16v-1.33h-2.58v-1.07h2.58v-1.68h1.15v1.68h2.53v1.07h-2.53v1.33h2.19v5.27h-2.19v1.34Zm-2.26-4.43h3.36v-1.22h-3.36v1.22Zm0,2.14h3.36v-1.25h-3.36v1.25Zm12.89-3.89h-8.05v-.96h2.38c.06-.38,.13-.83,.18-1.3h-1.75v-.94h1.84c.05-.45,.1-.9,.13-1.28l1.1,.08c-.03,.37-.08,.78-.13,1.2h3.07v2.24h1.22v.96Zm.03,8.37h-2.85v1.73h-1.12v-1.73h-3.19c.21-.67,.43-1.63,.62-2.48h-1.06v-.96h3.62v-.91h-2.98v-3.28h6.1v3.28h-2v.91h2.48v.96h-2.48v1.54h2.85v.95Zm-5.84-5.2h3.84v-1.58h-3.84v1.58Zm1.87,4.26v-1.54h-1.5c-.1,.5-.22,1.06-.35,1.54h1.86Zm-.45-9.68c-.05,.46-.11,.91-.18,1.3h2.29v-1.3h-2.11Z"/>
      <path class="cls-5" d="M106.01,447.71c.64,0,.74-.42,.82-2.87,.27,.22,.78,.43,1.1,.53-.13,2.72-.45,3.47-1.84,3.47h-2.29c-1.42,0-1.81-.42-1.81-1.78v-5.7h-2.99c-.3,3.42-1.07,6.23-4.75,7.71-.14-.29-.48-.72-.75-.93,3.41-1.3,4-3.79,4.24-6.79h-4.05v-1.15h14.01v1.15h-4.5v5.68c0,.54,.13,.66,.75,.66h2.06Zm.34-10.8h-11.27v-1.14h11.27v1.14Z"/>
    </g>
    <g>
      <path class="cls-5" d="M89.93,463.27v13.27h-1.25v-.98h-7.94v1.04h-1.2v-13.33h10.39Zm-9.19,1.17v4.32h7.94v-4.32h-7.94Zm7.94,9.96v-4.47h-7.94v4.47h7.94Z"/>
      <path class="cls-5" d="M107.3,462.91v13.93h-1.17v-.74h-10.98v.74h-1.14v-13.93h13.29Zm-1.17,12.12v-11.03h-10.98v11.03h10.98Zm-4.03-2.37c1.12,.4,2.4,.94,3.14,1.44l-.96,.45c-.66-.45-1.81-1.02-2.93-1.42l.69-.46h-3.03l.86,.27c-.8,.61-2.06,1.23-3.12,1.6-.16-.18-.51-.51-.72-.67,1.06-.32,2.19-.74,2.9-1.2h-2.11v-4.91h7.64v4.91h-2.35Zm1.71-5.51h-6.31v-2.26h6.31v2.26Zm-5.97,2h5.55v-.74h-5.55v.74Zm0,1.39h5.55v-.74h-5.55v.74Zm0,1.42h5.55v-.77h-5.55v.77Zm4.93-6.4h-4.27v.91h4.27v-.91Z"/>
    </g>
  </g>
  <g>
    <g>
      <path class="cls-5" d="M102.43,525.96h4.1v1.12h-4.1v-1.12Z"/>
      <path class="cls-5" d="M107.71,529.61l.74-.96c.69,.72,1.58,1.34,2.91,1.34s2.38-.82,2.38-2.1c0-1.36-.94-2.26-3.65-2.26v-1.12c2.42,0,3.25-.94,3.25-2.15,0-1.1-.77-1.81-1.98-1.81-.94,0-1.78,.48-2.43,1.15l-.78-.91c.88-.83,1.92-1.42,3.28-1.42,1.97,0,3.41,1.04,3.41,2.9,0,1.38-.85,2.26-2.08,2.71v.06c1.38,.34,2.48,1.34,2.48,2.91,0,2.03-1.68,3.25-3.76,3.25-1.84,0-2.99-.77-3.76-1.6Z"/>
      <path class="cls-5" d="M116.91,525.25c0-3.83,1.39-5.88,3.67-5.88s3.65,2.07,3.65,5.88-1.38,5.95-3.65,5.95-3.67-2.13-3.67-5.95Zm5.89,0c0-3.35-.9-4.71-2.23-4.71s-2.24,1.36-2.24,4.71,.9,4.79,2.24,4.79,2.23-1.44,2.23-4.79Z"/>
    </g>
    <g>
      <path class="cls-5" d="M183.58,525.96h4.1v1.12h-4.1v-1.12Z"/>
      <path class="cls-5" d="M189.1,530.14c3.44-3.43,5.38-5.47,5.38-7.35,0-1.3-.7-2.23-2.16-2.23-.96,0-1.79,.61-2.43,1.36l-.85-.82c.96-1.04,1.97-1.73,3.46-1.73,2.1,0,3.41,1.33,3.41,3.35,0,2.14-1.95,4.27-4.66,7.12,.61-.05,1.31-.11,1.92-.11h3.31v1.26h-7.38v-.86Z"/>
      <path class="cls-5" d="M198.06,525.25c0-3.83,1.39-5.88,3.67-5.88s3.65,2.07,3.65,5.88-1.38,5.95-3.65,5.95-3.67-2.13-3.67-5.95Zm5.89,0c0-3.35-.9-4.71-2.23-4.71s-2.24,1.36-2.24,4.71,.9,4.79,2.24,4.79,2.23-1.44,2.23-4.79Z"/>
    </g>
    <g>
      <path class="cls-5" d="M264.72,525.96h4.1v1.12h-4.1v-1.12Z"/>
      <path class="cls-5" d="M270.95,529.78h2.61v-8.42h-2.08v-.94c1.04-.18,1.79-.45,2.43-.83h1.12v10.2h2.35v1.22h-6.43v-1.22Z"/>
      <path class="cls-5" d="M279.2,525.25c0-3.83,1.39-5.88,3.67-5.88s3.65,2.07,3.65,5.88-1.38,5.95-3.65,5.95-3.67-2.13-3.67-5.95Zm5.89,0c0-3.35-.9-4.71-2.23-4.71s-2.24,1.36-2.24,4.71,.9,4.79,2.24,4.79,2.23-1.44,2.23-4.79Z"/>
    </g>
    <path class="cls-5" d="M353.1,525.25c0-3.83,1.39-5.88,3.67-5.88s3.65,2.07,3.65,5.88-1.38,5.95-3.65,5.95-3.67-2.13-3.67-5.95Zm5.89,0c0-3.35-.9-4.71-2.22-4.71s-2.24,1.36-2.24,4.71,.9,4.79,2.24,4.79,2.22-1.44,2.22-4.79Z"/>
    <g>
      <path class="cls-5" d="M430.12,529.78h2.61v-8.42h-2.08v-.94c1.04-.18,1.79-.45,2.43-.83h1.12v10.2h2.35v1.22h-6.43v-1.22Z"/>
      <path class="cls-5" d="M438.38,525.25c0-3.83,1.39-5.88,3.67-5.88s3.65,2.07,3.65,5.88-1.38,5.95-3.65,5.95-3.67-2.13-3.67-5.95Zm5.89,0c0-3.35-.9-4.71-2.23-4.71s-2.24,1.36-2.24,4.71,.9,4.79,2.24,4.79,2.23-1.44,2.23-4.79Z"/>
    </g>
    <g>
      <path class="cls-5" d="M510.94,530.14c3.44-3.43,5.38-5.47,5.38-7.35,0-1.3-.7-2.23-2.16-2.23-.96,0-1.79,.61-2.43,1.36l-.85-.82c.96-1.04,1.97-1.73,3.46-1.73,2.1,0,3.41,1.33,3.41,3.35,0,2.14-1.95,4.27-4.66,7.12,.61-.05,1.31-.11,1.92-.11h3.31v1.26h-7.38v-.86Z"/>
      <path class="cls-5" d="M519.9,525.25c0-3.83,1.39-5.88,3.67-5.88s3.65,2.07,3.65,5.88-1.38,5.95-3.65,5.95-3.67-2.13-3.67-5.95Zm5.89,0c0-3.35-.9-4.71-2.23-4.71s-2.24,1.36-2.24,4.71,.9,4.79,2.24,4.79,2.23-1.44,2.23-4.79Z"/>
    </g>
  </g>
  <g>
    <path class="cls-1" d="M430.82,26.04h3.15V15.86h-2.52v-1.14c1.26-.21,2.17-.54,2.94-1.01h1.35v12.32h2.84v1.47h-7.78v-1.47Z"/>
    <path class="cls-1" d="M440.4,25.88l.87-1.16c.81,.81,1.84,1.57,3.48,1.57s3.02-1.22,3.02-3.13-1.16-3.06-2.94-3.06c-.95,0-1.55,.31-2.36,.85l-.95-.6,.45-6.64h6.91v1.51h-5.36l-.35,4.12c.64-.35,1.26-.58,2.11-.58,2.36,0,4.28,1.35,4.28,4.33s-2.24,4.66-4.64,4.66c-2.21,0-3.56-.93-4.51-1.88Z"/>
    <path class="cls-1" d="M452.01,26.42c0-.81,.58-1.37,1.28-1.37s1.28,.56,1.28,1.37-.58,1.33-1.28,1.33-1.28-.54-1.28-1.33Z"/>
    <path class="cls-1" d="M457.1,26.31l.99-1.1c.54,.68,1.39,1.08,2.26,1.08,1.93,0,3.58-1.51,3.66-5.92-.89,1.1-2.11,1.78-3.23,1.78-2.4,0-3.95-1.45-3.95-4.28,0-2.63,1.86-4.41,4.06-4.41,2.73,0,4.76,2.21,4.76,6.64,0,5.53-2.5,7.66-5.24,7.66-1.47,0-2.55-.62-3.31-1.45Zm3.97-5.48c.89,0,2.01-.56,2.9-1.88-.23-2.67-1.32-4.1-3.08-4.1-1.35,0-2.4,1.2-2.4,3.02s.85,2.96,2.57,2.96Z"/>
    <path class="cls-1" d="M474.53,15.22h-6.87v-1.51h8.88v1.08c-3.25,4.18-3.95,7.33-4.16,12.71h-1.84c.23-5.2,1.28-8.49,3.99-12.29Z"/>
  </g>
</svg>