<?xml version="1.0" encoding="utf-8"?>
<!-- Generator: Adobe Illustrator 26.5.1, SVG Export Plug-In . SVG Version: 6.00 Build 0)  -->
<svg version="1.1" id="圖層_1" xmlns="http://www.w3.org/2000/svg" xmlns:xlink="http://www.w3.org/1999/xlink" x="0px" y="0px"
	 viewBox="0 0 840 460" style="enable-background:new 0 0 840 460;" xml:space="preserve">
<style type="text/css">
	.st0{fill:#444344;}
	.st1{fill:#BFC1C1;}
	.st2{fill:#36C5C4;}
	.st3{fill:#FF661A;}
	.st4{fill:#FFFFFF;}
	.st5{fill:#80D1C9;}
	.st6{fill:#F9BD00;}
	.st7{fill:#4B5763;}
</style>
<g>
	<g>
		<path class="st0" d="M135.3,119.7c-0.5-0.4-1.2-0.4-1.6,0c-10,10.4-23.4,16.1-37.8,16.1c-7.2,0-14.1-1.4-20.6-4.2l3.7-0.6
			c0.6-0.1,1-0.7,0.9-1.3c-0.1-0.6-0.7-1-1.3-0.9l-7.2,1.2c-0.4,0.1-0.7,0.3-0.8,0.6c-0.2,0.3-0.2,0.7,0,1L74,138
			c0.2,0.4,0.6,0.6,1,0.6c0.2,0,0.4,0,0.5-0.1c0.6-0.3,0.8-1,0.5-1.6l-1.7-3.2c6.8,2.9,14.1,4.4,21.6,4.4c15,0,29.1-6,39.5-16.8
			C135.8,120.9,135.8,120.2,135.3,119.7z"/>
	</g>
	<g>
		<path class="st1" d="M118.8,130.6c-0.1,0-0.2,0-0.4,0c-0.6-0.1-1.2-0.1-1.7-0.2c-0.1,0-0.2,0-0.3,0c-0.5-0.1-0.9-0.2-1.4-0.2
			c-0.1,0-0.2,0-0.3-0.1c-1-0.2-2-0.5-2.8-0.8c-0.1,0-0.1,0-0.2-0.1c-0.4-0.1-0.8-0.3-1.1-0.5c0,0,0,0,0,0c-1.7-0.8-2.7-1.8-2.7-2.9
			c0-2.8,6.6-5,14.7-5c8.1,0,14.7,2.2,14.7,5c0,1.1-1,2.1-2.7,2.9c0,0,0,0-0.1,0c-0.3,0.2-0.7,0.3-1.1,0.5c-0.1,0-0.1,0-0.2,0.1
			c-0.8,0.3-1.8,0.6-2.8,0.8c-0.1,0-0.2,0-0.3,0.1c-0.5,0.1-0.9,0.2-1.4,0.2c-0.1,0-0.2,0-0.3,0c-0.6,0.1-1.1,0.2-1.7,0.2
			c-0.1,0-0.2,0-0.4,0c-0.5,0-1,0.1-1.4,0.1c-0.2,0-0.3,0-0.5,0c-0.6,0-1.2,0-1.9,0c-0.6,0-1.3,0-1.9,0c-0.2,0-0.3,0-0.5,0
			C119.8,130.6,119.3,130.6,118.8,130.6z"/>
	</g>
	<g>
		<path class="st2" d="M109.6,128.1c2.5,1.6,7.4,2.7,13.1,2.7c5.7,0,10.6-1.1,13.1-2.7c1.1-0.7,1.7-1.5,1.7-2.3v4.6
			c0,2.8-6.6,5-14.7,5c-8.1,0-14.7-2.2-14.7-5v-4.6C107.9,126.6,108.5,127.4,109.6,128.1z"/>
	</g>
	<g>
		<path class="st1" d="M118.8,123.7c-0.1,0-0.2,0-0.4,0c-0.6-0.1-1.2-0.1-1.7-0.2c-0.1,0-0.2,0-0.3,0c-0.5-0.1-0.9-0.2-1.4-0.2
			c-0.1,0-0.2,0-0.3-0.1c-1-0.2-2-0.5-2.8-0.8c-0.1,0-0.1,0-0.2-0.1c-0.4-0.1-0.8-0.3-1.1-0.5c0,0,0,0,0,0c-1.7-0.8-2.7-1.8-2.7-2.9
			c0-2.7,6.6-5,14.7-5c8.1,0,14.7,2.2,14.7,5c0,1.1-1,2.1-2.7,2.9c0,0,0,0-0.1,0c-0.3,0.2-0.7,0.3-1.1,0.5c-0.1,0-0.1,0-0.2,0.1
			c-0.8,0.3-1.8,0.6-2.8,0.8c-0.1,0-0.2,0-0.3,0.1c-0.5,0.1-0.9,0.2-1.4,0.2c-0.1,0-0.2,0-0.3,0c-0.6,0.1-1.1,0.2-1.7,0.2
			c-0.1,0-0.2,0-0.4,0c-0.5,0-1,0.1-1.4,0.1c-0.2,0-0.3,0-0.5,0c-0.6,0-1.2,0-1.9,0c-0.6,0-1.3,0-1.9,0c-0.2,0-0.3,0-0.5,0
			C119.8,123.8,119.3,123.7,118.8,123.7z"/>
	</g>
	<g>
		<path class="st2" d="M109.6,121.2c2.5,1.6,7.4,2.7,13.1,2.7c5.7,0,10.6-1.1,13.1-2.7c1.1-0.7,1.7-1.5,1.7-2.3v4.6
			c0,2.8-6.6,5-14.7,5c-8.1,0-14.7-2.2-14.7-5v-4.6C107.9,119.7,108.5,120.5,109.6,121.2z"/>
	</g>
	<g>
		<path class="st1" d="M118.8,116.8c-0.1,0-0.2,0-0.4,0c-0.6-0.1-1.2-0.1-1.7-0.2c-0.1,0-0.2,0-0.3,0c-0.5-0.1-0.9-0.2-1.4-0.2
			c-0.1,0-0.2,0-0.3-0.1c-1-0.2-2-0.5-2.8-0.8c-0.1,0-0.1,0-0.2-0.1c-0.4-0.1-0.8-0.3-1.1-0.5c0,0,0,0,0,0c-1.7-0.8-2.7-1.8-2.7-2.9
			c0-2.8,6.6-5,14.7-5c8.1,0,14.7,2.2,14.7,5c0,1.1-1,2.1-2.7,2.9c0,0,0,0-0.1,0c-0.3,0.2-0.7,0.3-1.1,0.5c-0.1,0-0.1,0-0.2,0.1
			c-0.8,0.3-1.8,0.6-2.8,0.8c-0.1,0-0.2,0-0.3,0.1c-0.5,0.1-0.9,0.2-1.4,0.2c-0.1,0-0.2,0-0.3,0c-0.6,0.1-1.1,0.2-1.7,0.2
			c-0.1,0-0.2,0-0.4,0c-0.5,0-1,0.1-1.4,0.1c-0.2,0-0.3,0-0.5,0c-0.6,0-1.2,0-1.9,0c-0.6,0-1.3,0-1.9,0c-0.2,0-0.3,0-0.5,0
			C119.8,116.9,119.3,116.8,118.8,116.8z"/>
	</g>
	<g>
		<path class="st2" d="M109.6,114.3c2.5,1.6,7.4,2.7,13.1,2.7c5.7,0,10.6-1.1,13.1-2.7c1.1-0.7,1.7-1.5,1.7-2.3v4.6
			c0,2.7-6.6,5-14.7,5c-8.1,0-14.7-2.2-14.7-5V112C107.9,112.8,108.5,113.6,109.6,114.3z"/>
	</g>
	<g>
		<path class="st2" d="M122.7,108.9c-0.6,0-1.2,0-1.8,0l-0.4,0c-0.6,0-1.1-0.1-1.5-0.1l-0.4,0c-0.6-0.1-1.1-0.1-1.7-0.2
			c0,0-0.2,0-0.3,0c-0.5-0.1-0.9-0.2-1.3-0.2l-0.3-0.1c-1-0.2-1.9-0.5-2.7-0.7l-0.1-0.1c-0.4-0.1-0.7-0.3-1-0.4
			c-1.5-0.7-2.1-1.4-2.1-1.8c0-1.5,5.4-3.8,13.6-3.8c8.2,0,13.6,2.3,13.6,3.8c0,0.4-0.5,1.1-2,1.8c-0.4,0.2-0.7,0.3-1.1,0.4
			l-0.1,0.1c-0.8,0.3-1.7,0.5-2.7,0.7l-0.2,0.1c-0.5,0.1-0.9,0.2-1.4,0.2l-0.2,0c-0.5,0.1-1.1,0.1-1.7,0.2l-0.4,0
			c-0.5,0-0.9,0.1-1.4,0.1l-0.5,0C123.9,108.9,123.3,108.9,122.7,108.9z"/>
	</g>
	<g>
		<path class="st1" d="M122.7,100.1c-8.1,0-14.7,2.2-14.7,5c0,1.1,1,2.1,2.7,2.9c0,0,0,0,0,0c0.3,0.2,0.7,0.3,1.1,0.5
			c0,0,0.1,0,0.2,0.1c0.8,0.3,1.8,0.6,2.8,0.8c0.1,0,0.2,0,0.3,0.1c0.5,0.1,0.9,0.2,1.4,0.2c0.1,0,0.2,0,0.3,0
			c0.6,0.1,1.1,0.2,1.7,0.2c0.1,0,0.2,0,0.4,0c0.5,0,1,0.1,1.5,0.1c0.2,0,0.3,0,0.5,0c0.6,0,1.2,0,1.9,0c0.6,0,1.3,0,1.9,0
			c0.2,0,0.3,0,0.5,0c0.5,0,1-0.1,1.4-0.1c0.1,0,0.2,0,0.4,0c0.6-0.1,1.2-0.1,1.7-0.2c0.1,0,0.2,0,0.3,0c0.5-0.1,0.9-0.2,1.4-0.2
			c0.1,0,0.2,0,0.3-0.1c1-0.2,2-0.5,2.8-0.8c0.1,0,0.1,0,0.2-0.1c0.4-0.1,0.8-0.3,1.1-0.5c0,0,0,0,0.1,0c1.7-0.8,2.7-1.8,2.7-2.9
			C137.4,102.3,130.8,100.1,122.7,100.1z M133.8,105.9C133.8,105.9,133.7,105.9,133.8,105.9c-0.4,0.2-0.7,0.3-1,0.4l-0.1,0l-0.1,0
			c-0.8,0.3-1.6,0.5-2.6,0.7l-0.3,0.1c-0.4,0.1-0.8,0.2-1.3,0.2l-0.1,0l-0.1,0c-0.5,0.1-1.1,0.1-1.6,0.2l-0.2,0l-0.2,0
			c-0.4,0-0.9,0.1-1.4,0.1l-0.4,0c-0.7,0-1.2,0-1.8,0c-0.5,0-1.1,0-1.8,0l-0.5,0c-0.5,0-0.9-0.1-1.4-0.1l-0.2,0l-0.2,0
			c-0.5-0.1-1.1-0.1-1.6-0.2l-0.1,0l-0.1,0c-0.4-0.1-0.9-0.1-1.3-0.2l-0.1,0l-0.2,0c-0.9-0.2-1.8-0.4-2.5-0.7l-0.1,0l-0.1,0
			c-0.3-0.1-0.7-0.3-1-0.4c-0.7-0.3-1.1-0.6-1.3-0.8c0.9-0.9,5.1-2.7,12.3-2.7c7.2,0,11.4,1.7,12.3,2.7
			C134.8,105.3,134.4,105.5,133.8,105.9z"/>
	</g>
	<g>
		<path class="st2" d="M109.6,107.4c2.5,1.6,7.4,2.7,13.1,2.7c5.7,0,10.6-1.1,13.1-2.7c1.1-0.7,1.7-1.5,1.7-2.3v4.6
			c0,2.8-6.6,5-14.7,5c-8.1,0-14.7-2.2-14.7-5v-4.6C107.9,105.9,108.5,106.7,109.6,107.4z"/>
	</g>
	<g>
		<path class="st1" d="M99.7,139.5c-0.1,0-0.2,0-0.4,0c-0.6-0.1-1.2-0.1-1.7-0.2c-0.1,0-0.2,0-0.3,0c-0.5-0.1-0.9-0.2-1.4-0.2
			c-0.1,0-0.2,0-0.3-0.1c-1-0.2-2-0.5-2.8-0.8c-0.1,0-0.1,0-0.2-0.1c-0.4-0.1-0.8-0.3-1.1-0.5c0,0,0,0,0,0c-1.7-0.8-2.7-1.8-2.7-2.9
			c0-2.8,6.6-5,14.7-5c8.1,0,14.7,2.2,14.7,5c0,1.1-1,2.1-2.7,2.9c0,0,0,0,0,0c-0.4,0.2-0.7,0.3-1.1,0.5c-0.1,0-0.1,0-0.2,0.1
			c-0.8,0.3-1.8,0.6-2.8,0.8c-0.1,0-0.2,0-0.3,0.1c-0.5,0.1-0.9,0.2-1.4,0.2c-0.1,0-0.2,0-0.3,0c-0.6,0.1-1.1,0.2-1.7,0.2
			c-0.1,0-0.2,0-0.4,0c-0.5,0-1,0.1-1.4,0.1c-0.2,0-0.3,0-0.5,0c-0.6,0-1.2,0-1.9,0c-0.6,0-1.3,0-1.9,0c-0.2,0-0.3,0-0.5,0
			C100.7,139.5,100.2,139.5,99.7,139.5z"/>
	</g>
	<g>
		<path class="st3" d="M90.5,137c2.5,1.6,7.4,2.7,13.1,2.7c5.7,0,10.6-1.1,13.1-2.7c1.1-0.7,1.7-1.5,1.7-2.3v4.6c0,2.7-6.6,5-14.7,5
			c-8.1,0-14.7-2.2-14.7-5v-4.6C88.8,135.5,89.4,136.3,90.5,137z"/>
	</g>
	<g>
		<path class="st1" d="M99.7,132.6c-0.1,0-0.2,0-0.4,0c-0.6-0.1-1.2-0.1-1.7-0.2c-0.1,0-0.2,0-0.3,0c-0.5-0.1-0.9-0.2-1.4-0.2
			c-0.1,0-0.2,0-0.3-0.1c-1-0.2-2-0.5-2.8-0.8c-0.1,0-0.1,0-0.2-0.1c-0.4-0.1-0.8-0.3-1.1-0.5c0,0,0,0,0,0c-1.7-0.8-2.7-1.8-2.7-2.9
			c0-2.8,6.6-5,14.7-5c8.1,0,14.7,2.2,14.7,5c0,1.1-1,2.1-2.7,2.9c0,0,0,0,0,0c-0.4,0.2-0.7,0.3-1.1,0.5c-0.1,0-0.1,0-0.2,0.1
			c-0.8,0.3-1.8,0.6-2.8,0.8c-0.1,0-0.2,0-0.3,0.1c-0.5,0.1-0.9,0.2-1.4,0.2c-0.1,0-0.2,0-0.3,0c-0.6,0.1-1.1,0.2-1.7,0.2
			c-0.1,0-0.2,0-0.4,0c-0.5,0-1,0.1-1.4,0.1c-0.2,0-0.3,0-0.5,0c-0.6,0-1.2,0-1.9,0c-0.6,0-1.3,0-1.9,0c-0.2,0-0.3,0-0.5,0
			C100.7,132.7,100.2,132.6,99.7,132.6z"/>
	</g>
	<g>
		<path class="st3" d="M90.5,130.1c2.5,1.6,7.4,2.7,13.1,2.7c5.7,0,10.6-1.1,13.1-2.7c1.1-0.7,1.7-1.5,1.7-2.3v4.6
			c0,2.8-6.6,5-14.7,5c-8.1,0-14.7-2.2-14.7-5v-4.6C88.8,128.6,89.4,129.4,90.5,130.1z"/>
	</g>
	<g>
		<path class="st3" d="M103.5,124.7c-0.6,0-1.2,0-1.8,0l-0.4,0c-0.6,0-1.1-0.1-1.5-0.1l-0.4,0c-0.6-0.1-1.1-0.1-1.7-0.2
			c0,0-0.2,0-0.3,0c-0.5-0.1-0.9-0.2-1.3-0.2l-0.3-0.1c-1-0.2-1.9-0.5-2.7-0.7l-0.1-0.1c-0.4-0.1-0.7-0.3-1-0.4
			c-1.5-0.7-2.1-1.4-2.1-1.8c0-1.5,5.4-3.8,13.6-3.8c8.2,0,13.6,2.3,13.6,3.8c0,0.4-0.5,1.1-2,1.8c-0.4,0.2-0.7,0.3-1.1,0.5
			l-0.1,0.1c-0.8,0.3-1.7,0.5-2.7,0.7l-0.3,0.1c-0.4,0.1-0.9,0.2-1.3,0.2c0,0-0.2,0-0.2,0c-0.5,0.1-1.1,0.1-1.7,0.2l-0.3,0
			c-0.5,0-0.9,0.1-1.4,0.1l-0.5,0C104.8,124.7,104.1,124.7,103.5,124.7z"/>
	</g>
	<g>
		<path class="st1" d="M103.5,115.9c-8.1,0-14.7,2.2-14.7,5c0,1.1,1,2.1,2.7,2.9c0,0,0,0,0,0c0.3,0.2,0.7,0.3,1.1,0.5
			c0.1,0,0.1,0,0.2,0.1c0.8,0.3,1.8,0.6,2.8,0.8c0.1,0,0.2,0,0.3,0.1c0.4,0.1,0.9,0.2,1.4,0.2c0.1,0,0.2,0,0.3,0
			c0.6,0.1,1.1,0.1,1.7,0.2c0.1,0,0.2,0,0.4,0c0.5,0,1,0.1,1.4,0.1c0.2,0,0.3,0,0.5,0c0.6,0,1.2,0,1.9,0c0.6,0,1.3,0,1.9,0
			c0.2,0,0.3,0,0.5,0c0.5,0,1-0.1,1.4-0.1c0.1,0,0.2,0,0.4,0c0.6-0.1,1.2-0.1,1.7-0.2c0.1,0,0.2,0,0.3,0c0.5-0.1,0.9-0.2,1.4-0.2
			c0.1,0,0.2,0,0.3-0.1c1-0.2,2-0.5,2.8-0.8c0.1,0,0.1,0,0.2-0.1c0.4-0.1,0.8-0.3,1.1-0.5c0,0,0,0,0,0c1.7-0.8,2.7-1.8,2.7-2.9
			C118.3,118.1,111.7,115.9,103.5,115.9z M114.6,121.7C114.6,121.7,114.6,121.7,114.6,121.7c-0.4,0.2-0.7,0.3-1,0.4c0,0-0.1,0-0.1,0
			l-0.1,0c-0.8,0.3-1.6,0.5-2.5,0.7l-0.2,0l-0.1,0c-0.4,0.1-0.8,0.2-1.3,0.2l-0.1,0l-0.1,0c-0.5,0.1-1.1,0.1-1.6,0.2l-0.2,0l-0.2,0
			c-0.4,0-0.9,0.1-1.4,0.1l-0.1,0l-0.4,0c-0.7,0-1.2,0-1.8,0c-0.5,0-1.1,0-1.8,0l-0.4,0l-0.1,0c-0.5,0-0.9-0.1-1.4-0.1l-0.2,0
			l-0.2,0c-0.5-0.1-1.1-0.1-1.6-0.2l-0.1,0l-0.1,0c-0.4-0.1-0.9-0.1-1.3-0.2l-0.1,0l-0.2,0c-0.9-0.2-1.8-0.4-2.5-0.7l-0.1,0
			c0,0-0.1,0-0.1,0c-0.4-0.1-0.7-0.3-1-0.4c-0.7-0.3-1.1-0.6-1.3-0.8c0.9-0.9,5.1-2.7,12.3-2.7c7.2,0,11.4,1.7,12.3,2.7
			C115.7,121.1,115.3,121.3,114.6,121.7z"/>
	</g>
	<g>
		<path class="st3" d="M90.5,123.2c2.5,1.6,7.4,2.7,13.1,2.7c5.7,0,10.6-1.1,13.1-2.7c1.1-0.7,1.7-1.5,1.7-2.3v4.6
			c0,2.7-6.6,5-14.7,5c-8.1,0-14.7-2.2-14.7-5v-4.6C88.8,121.7,89.4,122.5,90.5,123.2z"/>
	</g>
	<g>
		<path class="st0" d="M130.9,41.4l-2-7c-0.2-0.6-0.8-1-1.4-0.8c-0.6,0.2-1,0.8-0.8,1.4l1,3.5c-9.2-6.6-20.4-10.2-31.8-10.2
			c-17.9,0-34.7,8.8-45,23.5c-0.4,0.5-0.2,1.2,0.3,1.6c0.2,0.1,0.4,0.2,0.7,0.2c0.4,0,0.7-0.2,0.9-0.5c9.8-14.1,26-22.5,43.1-22.5
			c10.9,0,21.6,3.4,30.4,9.7l-3.7-0.2c-0.6,0-1.2,0.5-1.2,1.1c0,0.6,0.5,1.2,1.1,1.2l7.3,0.4c0,0,0,0,0.1,0c0.3,0,0.7-0.2,0.9-0.4
			C130.9,42.1,131,41.8,130.9,41.4z"/>
	</g>
	<g>
		<path class="st3" d="M48.4,46.9c0,8.1,6.6,14.7,14.7,14.7S77.7,55,77.7,46.9c0-8.1-6.6-14.7-14.7-14.7S48.4,38.8,48.4,46.9z"/>
	</g>
	<g>
		<path class="st3" d="M63,62.7c-8.7,0-15.8-7.1-15.8-15.8c0-8.7,7.1-15.8,15.8-15.8s15.8,7.1,15.8,15.8
			C78.8,55.6,71.7,62.7,63,62.7z M63,33.4c-7.4,0-13.5,6.1-13.5,13.5c0,7.4,6.1,13.5,13.5,13.5c7.5,0,13.5-6.1,13.5-13.5
			C76.5,39.4,70.5,33.4,63,33.4z"/>
	</g>
	<g>
		<path class="st4" d="M63,45.7c-1.9,0-2.8-0.8-2.8-2.4c0-1.3,1.3-2.4,2.8-2.4c1.5,0,2.8,1.1,2.8,2.4c0,0.6,0.5,1.2,1.1,1.2
			c0.6,0,1.1-0.5,1.1-1.2c0-2.2-1.7-4.1-4-4.6v-1c0-0.6-0.5-1.2-1.2-1.2c-0.6,0-1.1,0.5-1.1,1.2v1c-2.3,0.5-4,2.4-4,4.6
			c0,2.3,1.3,4.7,5.1,4.7c1.9,0,2.8,0.8,2.8,2.4c0,1.3-1.3,2.4-2.8,2.4c-1.5,0-2.8-1.1-2.8-2.4c0-0.6-0.5-1.2-1.1-1.2
			c-0.6,0-1.2,0.5-1.2,1.2c0,2.2,1.7,4.1,4,4.6v1c0,0.6,0.5,1.1,1.1,1.1c0.6,0,1.2-0.5,1.2-1.1v-1c2.3-0.5,4-2.4,4-4.6
			C68.1,48.2,66.8,45.7,63,45.7z"/>
	</g>
	<g>
		<path class="st0" d="M62.2,123.7c-12-10-18.9-24.8-18.9-40.4c0-6.8,1.3-13.4,3.8-19.7l0.6,3.7c0.1,0.6,0.6,1,1.1,1
			c0.1,0,0.1,0,0.2,0c0.6-0.1,1-0.7,0.9-1.3l-1.2-7.2c-0.1-0.4-0.3-0.7-0.6-0.8c-0.3-0.2-0.7-0.2-1,0l-6.4,3.4
			c-0.6,0.3-0.8,1-0.5,1.6c0.3,0.6,1,0.8,1.6,0.5l3.2-1.7c-2.7,6.5-4,13.5-4,20.6c0,16.3,7.2,31.7,19.8,42.2
			c0.2,0.2,0.5,0.3,0.7,0.3c0.3,0,0.7-0.1,0.9-0.4C62.8,124.8,62.7,124.1,62.2,123.7z"/>
	</g>
	<g>
		<path class="st5" d="M79.2,109.7c0-7.7-4.4-19-12.8-24.2c-1.6-1.9,0-4.4,0-4.4c2-2.7,0.8-7.7,0.8-7.7c-2.9,2.7-7.7,2.7-10.6,0
			c-2.9-2.7-7.7-2.7-10.6,0c-2.9,2.7-7.7,2.7-10.6,0c0,0-1.1,4.9,1,7.7c0,0,1.6,2.4,0,4.4c-8.4,5.3-12.8,16.5-12.8,24.2
			c0,11.4-0.7,20.2,27.9,20.2C79.8,129.9,79.2,121.2,79.2,109.7z"/>
	</g>
	<g>
		<path class="st2" d="M68,95.9c-0.9-4.1-3.5-7.4-5-9.1c1.2-0.4,2.3-0.8,3.3-1.4c-1.6-1.9,0-4.4,0-4.4c-3.9,2.1-9.2,3-15.1,3
			c-5.8,0-11.1-0.9-15.1-3c0,0,1.6,2.4,0,4.4c3.9,2.1,9.2,3,15.1,3c3.3,0,6.4-0.3,9.2-0.9c0.8,0.7,4.3,4.4,5.3,8.9
			c0.1,0.5,0.6,0.9,1.1,0.9c0.1,0,0.2,0,0.3,0C67.8,97.2,68.2,96.6,68,95.9z"/>
	</g>
	<g>
		<path class="st1" d="M38.3,108.9c0,7.2,5.8,13,13,13c7.2,0,13-5.8,13-13c0-7.2-5.8-13-13-13C44.1,95.9,38.3,101.7,38.3,108.9z"/>
	</g>
	<g>
		<path class="st0" d="M51.3,107.8c-1.9,0-2.8-0.8-2.8-2.4c0-1.3,1.3-2.4,2.8-2.4c1.5,0,2.8,1.1,2.8,2.4c0,0.6,0.5,1.2,1.1,1.2
			c0.6,0,1.2-0.5,1.2-1.2c0-2.2-1.7-4.1-4-4.6v-1c0-0.6-0.5-1.2-1.2-1.2c-0.6,0-1.1,0.5-1.1,1.2v1c-2.3,0.5-4,2.4-4,4.6
			c0,2.3,1.3,4.7,5.1,4.7c1.9,0,2.8,0.8,2.8,2.4c0,1.3-1.3,2.4-2.8,2.4c-1.5,0-2.8-1.1-2.8-2.4c0-0.6-0.5-1.1-1.1-1.1
			s-1.1,0.5-1.1,1.1c0,2.2,1.7,4.1,4,4.6v1c0,0.6,0.5,1.1,1.1,1.1c0.6,0,1.2-0.5,1.2-1.1v-1c2.3-0.5,4-2.4,4-4.6
			C56.4,110.2,55.1,107.8,51.3,107.8z"/>
	</g>
	<g>
		<path class="st0" d="M148.7,105.4l-3.4,1.8c3.6-7.4,5.5-15.6,5.5-23.9c0-12.8-4.5-25.2-12.6-35c-0.4-0.5-1.1-0.6-1.6-0.1
			c-0.5,0.4-0.6,1.1-0.1,1.6c7.8,9.4,12.1,21.3,12.1,33.5c0,7.9-1.8,15.7-5.2,22.7l-0.5-3.5c-0.1-0.6-0.7-1.1-1.3-1
			c-0.6,0.1-1.1,0.7-1,1.3l1.1,7.2c0.1,0.4,0.3,0.7,0.6,0.8c0.2,0.1,0.3,0.1,0.5,0.1c0.2,0,0.4,0,0.5-0.1l6.5-3.3
			c0.6-0.3,0.8-1,0.5-1.5C149.9,105.4,149.2,105.2,148.7,105.4z"/>
	</g>
	<g>
		
			<rect x="97" y="45.5" transform="matrix(-1 -1.224647e-16 1.224647e-16 -1 261.6037 125.6243)" class="st5" width="67.5" height="34.6"/>
	</g>
	<g>
		
			<rect x="93.6" y="49" transform="matrix(-1 -1.224647e-16 1.224647e-16 -1 254.6308 132.5949)" class="st2" width="67.5" height="34.6"/>
	</g>
	<g>
		
			<rect x="90.1" y="52.5" transform="matrix(-1 -1.224647e-16 1.224647e-16 -1 247.6629 139.5656)" class="st5" width="67.5" height="34.6"/>
	</g>
	<g>
		
			<rect x="86.6" y="56" transform="matrix(-1 -1.224647e-16 1.224647e-16 -1 240.6868 146.5417)" class="st2" width="67.5" height="34.6"/>
	</g>
	<g>
		<path class="st5" d="M90.7,80.7V65.9c3.2,0,5.8-2.6,5.8-5.8h47.8c0,3.2,2.6,5.8,5.8,5.8v14.8c-3.2,0-5.8,2.6-5.8,5.8H96.5
			C96.5,83.3,93.9,80.7,90.7,80.7z"/>
	</g>
	<g>
		<path class="st3" d="M132.9,73.3c0,2.7,2.2,4.8,4.8,4.8c2.7,0,4.8-2.2,4.8-4.8c0-2.7-2.2-4.8-4.8-4.8
			C135.1,68.4,132.9,70.6,132.9,73.3z"/>
	</g>
	<g>
		<path class="st3" d="M98.1,73.3c0,2.7,2.2,4.8,4.8,4.8c2.7,0,4.8-2.2,4.8-4.8c0-2.7-2.2-4.8-4.8-4.8
			C100.2,68.4,98.1,70.6,98.1,73.3z"/>
	</g>
	<g>
		<path class="st0" d="M120.3,72.1c-1.9,0-2.8-0.8-2.8-2.4c0-1.3,1.3-2.4,2.8-2.4c1.5,0,2.8,1.1,2.8,2.4c0,0.6,0.5,1.2,1.2,1.2
			s1.2-0.5,1.2-1.2c0-2.2-1.7-4.1-4-4.6v-1c0-0.6-0.5-1.2-1.2-1.2s-1.2,0.5-1.2,1.2v1c-2.3,0.5-3.9,2.4-3.9,4.6
			c0,2.3,1.3,4.7,5.1,4.7c1.9,0,2.8,0.8,2.8,2.4c0,1.3-1.3,2.4-2.8,2.4c-1.5,0-2.8-1.1-2.8-2.4c0-0.6-0.5-1.2-1.2-1.2
			c-0.6,0-1.1,0.5-1.1,1.2c0,2.2,1.7,4.1,3.9,4.6v1c0,0.6,0.5,1.2,1.2,1.2s1.2-0.5,1.2-1.2v-1c2.3-0.5,4-2.4,4-4.6
			C125.4,74.6,124.1,72.1,120.3,72.1z"/>
	</g>
	<g>
		<path class="st1" d="M159.1,31.1h-18.8c-0.6,0-1.1-0.5-1.1-1.2c0-0.6,0.5-1.1,1.1-1.1h18.8c0.6,0,1.2,0.5,1.2,1.1
			C160.2,30.6,159.7,31.1,159.1,31.1z"/>
	</g>
	<g>
		<path class="st1" d="M159.1,24.2h-18.8c-0.6,0-1.1-0.5-1.1-1.2s0.5-1.2,1.1-1.2h18.8c0.6,0,1.2,0.5,1.2,1.2S159.7,24.2,159.1,24.2
			z"/>
	</g>
	<g>
		<path class="st1" d="M147.9,38h-7.6c-0.6,0-1.1-0.5-1.1-1.2c0-0.6,0.5-1.1,1.1-1.1h7.6c0.6,0,1.2,0.5,1.2,1.1
			C149.1,37.5,148.5,38,147.9,38z"/>
	</g>
	<g>
		<path class="st0" d="M92.4,105.2c-0.6,0.1-1.1,0.6-1,1.3c0.1,0.6,0.6,1,1.1,1c0,0,0.1,0,0.1,0c0.6-0.1,1.1-0.6,1-1.3
			C93.6,105.5,93.1,105.1,92.4,105.2z"/>
	</g>
	<g>
		<path class="st0" d="M75,100c-0.5-0.4-1.2-0.3-1.6,0.2c-0.4,0.5-0.3,1.2,0.2,1.6c0.2,0.2,0.5,0.3,0.7,0.3c0.3,0,0.7-0.1,0.9-0.4
			C75.6,101.1,75.5,100.4,75,100z"/>
	</g>
	<g>
		<path class="st0" d="M76.5,114.5c-0.5-0.4-1.2-0.3-1.6,0.2c-0.4,0.5-0.3,1.2,0.2,1.6c0,0,0,0,0,0c0,0,0,0,0,0
			c0.2,0.2,0.5,0.3,0.7,0.3c0.3,0,0.7-0.1,0.9-0.4C77.1,115.6,77,114.9,76.5,114.5C76.5,114.5,76.5,114.5,76.5,114.5z"/>
	</g>
	<g>
		<path class="st0" d="M71.9,107.3c-0.6,0.1-1.1,0.6-1,1.3c0.1,0.6,0.6,1,1.1,1c0,0,0.1,0,0.1,0c0.6-0.1,1.1-0.6,1-1.3
			C73.1,107.7,72.5,107.2,71.9,107.3z"/>
	</g>
	<g>
		<path class="st0" d="M81.1,96c-0.6,0.1-1.1,0.6-1,1.3c0.1,0.6,0.6,1,1.2,1c0,0,0.1,0,0.1,0c0.6-0.1,1.1-0.6,1-1.3
			C82.3,96.4,81.7,95.9,81.1,96z"/>
	</g>
	<g>
		<path class="st0" d="M89.4,113.1c-0.4,0.5-0.3,1.2,0.2,1.6c0.2,0.2,0.5,0.2,0.7,0.2c0.3,0,0.7-0.1,0.9-0.4
			c0.4-0.5,0.3-1.2-0.2-1.6C90.6,112.6,89.8,112.7,89.4,113.1z"/>
	</g>
	<g>
		<path class="st0" d="M83.3,116.5c-0.6,0.1-1.1,0.6-1,1.3c0.1,0.6,0.6,1,1.1,1c0,0,0.1,0,0.1,0c0.6-0.1,1.1-0.6,1-1.3
			C84.5,116.9,83.9,116.4,83.3,116.5z"/>
	</g>
	<g>
		<path class="st0" d="M89.5,98.5c-0.5-0.4-1.2-0.3-1.6,0.2c-0.4,0.5-0.3,1.2,0.2,1.6c0.2,0.2,0.5,0.3,0.7,0.3
			c0.3,0,0.7-0.1,0.9-0.4C90.1,99.6,90,98.9,89.5,98.5z"/>
	</g>
</g>
<g>
	<g>
		<polygon class="st3" points="326.1,284 318.9,291.2 322.4,291.2 322.4,316.4 329.8,316.4 329.8,291.2 333.3,291.2 		"/>
	</g>
	<g>
		<polygon class="st3" points="278.5,336.3 271.4,343.5 274.9,343.5 274.9,368.7 282.2,368.7 282.2,343.5 285.7,343.5 		"/>
	</g>
	<g>
		<path class="st5" d="M296.7,333.6c9.1-17.8-16.2-32.8-28.8-27.2C268.7,320.6,281.1,335.8,296.7,333.6z"/>
	</g>
	<g>
		<path class="st5" d="M313.7,328.1c-8.1-18.3,15.6-27.6,29.9-24.5C341.2,318.3,325.5,335.9,313.7,328.1z"/>
	</g>
	<g>
		<path class="st0" d="M336.8,307.5c-0.3-0.6-1-0.8-1.5-0.5c-8.5,4.2-22,15.8-29.5,32.7c1.4-16.6,1.3-48.6-15.9-74.2
			c-0.4-0.5-1.1-0.7-1.6-0.3c-0.5,0.4-0.7,1.1-0.3,1.6c19.1,28.5,16.6,65.2,14.9,78.5c-6.7-20.7-19.7-30.2-25.5-34.4
			c-0.5-0.4-1.2-0.3-1.6,0.3c-0.4,0.5-0.3,1.2,0.2,1.6c6,4.4,20.1,14.7,26.1,38c0,0,0,0.1,0,0.1c0,0.1,0,0.1,0.1,0.2
			c0,0.1,0,0.1,0.1,0.2c0,0.1,0.1,0.1,0.1,0.2c0,0.1,0.1,0.1,0.2,0.2c0.1,0,0.1,0.1,0.2,0.1c0,0,0,0,0,0c0,0,0.1,0,0.1,0.1
			c0,0,0,0,0,0c0,0,0,0,0,0c0,0,0,0,0,0c0.1,0,0.2,0,0.2,0c0,0,0,0,0,0h0c0.1,0,0.2,0,0.3,0c0,0,0,0,0,0c0,0,0,0,0,0
			c0,0,0.1,0,0.1-0.1c0.4-0.2,0.6-0.5,0.7-0.9c5.5-21.7,22.1-36.8,31.9-41.6C336.9,308.7,337.1,308,336.8,307.5z"/>
	</g>
	<g>
		<path class="st3" d="M279.8,280.3c0,9.6,7.8,17.4,17.4,17.4c9.6,0,17.4-7.8,17.4-17.4c0-9.6-7.8-17.4-17.4-17.4
			C287.6,263,279.8,270.7,279.8,280.3z"/>
	</g>
	<g>
		<path class="st3" d="M297.2,298.8c-10.2,0-18.5-8.3-18.5-18.5c0-10.2,8.3-18.5,18.5-18.5c10.2,0,18.5,8.3,18.5,18.5
			C315.7,290.5,307.4,298.8,297.2,298.8z M297.2,264.1c-8.9,0-16.2,7.3-16.2,16.2c0,8.9,7.3,16.2,16.2,16.2
			c8.9,0,16.2-7.3,16.2-16.2C313.4,271.4,306.1,264.1,297.2,264.1z"/>
	</g>
	<g>
		<path class="st4" d="M297.2,279.2c-2.3,0-3.5-1.1-3.5-3.1c0-1.7,1.6-3.1,3.5-3.1s3.5,1.4,3.5,3.1c0,0.6,0.5,1.2,1.1,1.2
			c0.6,0,1.2-0.5,1.2-1.2c0-2.6-2-4.8-4.7-5.3v-1.3c0-0.6-0.5-1.2-1.2-1.2c-0.6,0-1.1,0.5-1.1,1.2v1.3c-2.7,0.5-4.7,2.7-4.7,5.3
			c0,2.6,1.5,5.4,5.8,5.4c2.3,0,3.5,1.1,3.5,3.1c0,1.7-1.6,3.1-3.5,3.1s-3.5-1.4-3.5-3.1c0-0.6-0.5-1.2-1.2-1.2
			c-0.6,0-1.1,0.5-1.1,1.2c0,2.6,2,4.8,4.7,5.3v1.3c0,0.6,0.5,1.2,1.1,1.2c0.6,0,1.2-0.5,1.2-1.2v-1.3c2.7-0.5,4.7-2.7,4.7-5.3
			C303,282,301.5,279.2,297.2,279.2z"/>
	</g>
	<g>
		<rect x="293.5" y="350" class="st5" width="19.5" height="23.6"/>
	</g>
	<g>
		<rect x="265.1" y="360.1" class="st5" width="19.5" height="13.5"/>
	</g>
	<g>
		<rect x="321.9" y="338.5" class="st5" width="19.5" height="35.1"/>
	</g>
	<g>
		<path class="st0" d="M358,334.6c0-0.1,0-0.3,0-0.4c0,0,0,0,0-0.1c0-0.1-0.1-0.2-0.2-0.4c0,0,0,0,0,0c0,0,0,0,0,0c0,0,0,0,0,0
			c-0.1-0.1-0.2-0.2-0.3-0.3c0,0,0,0-0.1,0c-0.1-0.1-0.2-0.1-0.4-0.1c0,0,0,0-0.1,0c-0.1,0-0.1,0-0.2,0l-7.8,0.3
			c-0.6,0-1.1,0.6-1.1,1.2c0,0.6,0.6,1.1,1.2,1.1l4.1-0.2l-34,25.3l-10.5-6.9c-0.4-0.3-0.9-0.2-1.3,0l-20.7,15.4l-10.8-6.9
			c-0.4-0.3-0.9-0.2-1.3,0l-20.1,14.6c-0.5,0.4-0.6,1.1-0.3,1.6c0.2,0.3,0.6,0.5,0.9,0.5c0.2,0,0.5-0.1,0.7-0.2l19.4-14.2l10.8,6.9
			c0.4,0.3,0.9,0.2,1.3,0l20.7-15.4l10.5,6.9c0.4,0.3,0.9,0.2,1.3,0l34.8-26l-1.2,4.2c-0.2,0.6,0.2,1.3,0.8,1.4
			c0.1,0,0.2,0.1,0.3,0.1c0.5,0,1-0.3,1.1-0.8l2.2-7.5C358,334.7,358,334.7,358,334.6C358,334.6,358,334.6,358,334.6z"/>
	</g>
	<g>
		<path class="st1" d="M272.5,293.9h-20.2c-0.6,0-1.2-0.5-1.2-1.2c0-0.6,0.5-1.2,1.2-1.2h20.2c0.6,0,1.2,0.5,1.2,1.2
			C273.7,293.4,273.1,293.9,272.5,293.9z"/>
	</g>
	<g>
		<path class="st1" d="M272.5,286.5h-20.2c-0.6,0-1.2-0.5-1.2-1.2c0-0.6,0.5-1.2,1.2-1.2h20.2c0.6,0,1.2,0.5,1.2,1.2
			C273.7,286,273.1,286.5,272.5,286.5z"/>
	</g>
	<g>
		<path class="st1" d="M264.2,301.4h-11.9c-0.6,0-1.2-0.5-1.2-1.1c0-0.6,0.5-1.2,1.2-1.2h11.9c0.6,0,1.2,0.5,1.2,1.2
			C265.3,300.9,264.8,301.4,264.2,301.4z"/>
	</g>
	<g>
		<path class="st0" d="M375.1,314.7h-20.2c-0.6,0-1.1-0.5-1.1-1.2c0-0.6,0.5-1.2,1.1-1.2h20.2c0.6,0,1.2,0.5,1.2,1.2
			C376.2,314.2,375.7,314.7,375.1,314.7z"/>
	</g>
	<g>
		<path class="st0" d="M375.1,307.2h-20.2c-0.6,0-1.1-0.5-1.1-1.2c0-0.6,0.5-1.2,1.1-1.2h20.2c0.6,0,1.2,0.5,1.2,1.2
			C376.2,306.7,375.7,307.2,375.1,307.2z"/>
	</g>
	<g>
		<path class="st0" d="M366.8,322.1h-11.9c-0.6,0-1.1-0.5-1.1-1.1c0-0.6,0.5-1.2,1.1-1.2h11.9c0.6,0,1.1,0.5,1.1,1.2
			C367.9,321.6,367.4,322.1,366.8,322.1z"/>
	</g>
	<g>
		<g>
			<path class="st3" d="M267.1,333.6c-0.6,0-1.1,0.6-1.1,1.2c0,0.6,0.6,1.1,1.2,1.1c0,0,0.1,0,0.1,0c0.6,0,1.1-0.6,1.1-1.2
				C268.3,334,267.7,333.5,267.1,333.6z"/>
		</g>
		<g>
			<path class="st3" d="M260.5,331.7c-0.5-0.4-1.2-0.2-1.6,0.3c-0.4,0.5-0.2,1.2,0.3,1.6c0,0,0,0,0,0c0.2,0.1,0.4,0.2,0.7,0.2
				c0.4,0,0.7-0.2,0.9-0.5C261.2,332.8,261,332.1,260.5,331.7C260.5,331.7,260.5,331.7,260.5,331.7z"/>
		</g>
		<g>
			<path class="st3" d="M261.3,312.5c-0.6,0.3-0.8,0.9-0.6,1.5c0.2,0.4,0.6,0.7,1,0.7c0.2,0,0.3,0,0.5-0.1c0.6-0.3,0.8-0.9,0.6-1.5
				C262.5,312.5,261.9,312.2,261.3,312.5z"/>
		</g>
		<g>
			<path class="st3" d="M255.3,325.3c-0.6,0.2-1,0.8-0.8,1.4c0.1,0.5,0.6,0.9,1.1,0.9c0.1,0,0.2,0,0.3,0c0.6-0.2,1-0.8,0.8-1.4
				C256.5,325.5,255.9,325.1,255.3,325.3z"/>
		</g>
		<g>
			<path class="st3" d="M256.8,317.8c-0.6-0.3-1.3,0-1.5,0.5c-0.3,0.6,0,1.3,0.5,1.5c0.2,0.1,0.3,0.1,0.5,0.1c0.4,0,0.8-0.2,1-0.7
				C257.6,318.8,257.4,318.1,256.8,317.8z"/>
		</g>
		<g>
			<path class="st3" d="M269.6,311.9c-0.6-0.2-1.3,0.2-1.4,0.8c-0.2,0.6,0.2,1.2,0.8,1.4c0.1,0,0.2,0,0.3,0c0.5,0,1-0.3,1.1-0.8
				C270.6,312.7,270.2,312,269.6,311.9z"/>
		</g>
		<g>
			<path class="st3" d="M276.4,316.7c-0.4-0.5-1.1-0.7-1.6-0.3c-0.5,0.4-0.7,1.1-0.3,1.6c0.2,0.3,0.6,0.5,0.9,0.5
				c0.2,0,0.5-0.1,0.6-0.2C276.7,318,276.8,317.3,276.4,316.7z"/>
		</g>
		<g>
			<path class="st3" d="M277.5,323.6c-0.6-0.1-1.2,0.4-1.3,1c-0.1,0.6,0.4,1.2,1,1.3c0,0,0.1,0,0.1,0c0.6,0,1.1-0.4,1.1-1
				C278.6,324.2,278.1,323.7,277.5,323.6z"/>
		</g>
		<g>
			<path class="st3" d="M273.3,330.8c-0.5,0.4-0.5,1.2,0,1.6c0.2,0.2,0.5,0.3,0.8,0.3c0.3,0,0.6-0.1,0.8-0.3c0.5-0.4,0.5-1.2,0-1.6
				C274.5,330.3,273.7,330.3,273.3,330.8z"/>
		</g>
	</g>
	<g>
		<path class="st2" d="M263,349.3c0,4.4-3.5,7.9-7.9,7.9c-4.4,0-7.9-3.5-7.9-7.9c0-4.4,3.5-7.9,7.9-7.9
			C259.4,341.4,263,344.9,263,349.3z"/>
	</g>
	<g>
		<path class="st0" d="M255.2,355.3c-0.4,0-0.7-0.2-0.9-0.5l-5-6.5c-0.4-0.5-0.3-1.2,0.2-1.6c0.5-0.4,1.2-0.3,1.6,0.2l3.9,5.2
			l6.1-10.5c0.3-0.5,1-0.7,1.6-0.4c0.5,0.3,0.7,1,0.4,1.6l-7,12C256,355.1,255.6,355.3,255.2,355.3
			C255.2,355.3,255.2,355.3,255.2,355.3z"/>
	</g>
</g>
<g>
	<g>
		<path class="st1" d="M745.3,379.2c-5.5,0-10-4.5-10-10c0-5.5,4.5-10,10-10c5.5,0,10,4.5,10,10
			C755.2,374.7,750.7,379.2,745.3,379.2z M745.3,361.6c-4.2,0-7.7,3.4-7.7,7.7c0,4.2,3.4,7.7,7.7,7.7c4.2,0,7.7-3.4,7.7-7.7
			C752.9,365,749.5,361.6,745.3,361.6z"/>
	</g>
	<g>
		<path class="st5" d="M688.3,278.1v83.3c0,4.4,3.5,7.9,7.9,7.9h98.2c4.4,0,7.9-3.5,7.9-7.9v-83.3H688.3z"/>
	</g>
	<g>
		<path class="st2" d="M803.8,268H687c-2,0-3.7,1.7-3.7,3.7v2.7c0,2,1.6,3.7,3.7,3.7h116.7c2,0,3.7-1.7,3.7-3.7v-2.7
			C807.4,269.7,805.8,268,803.8,268z"/>
	</g>
	<g>
		<polygon class="st3" points="717.5,379.5 723.2,374 720.4,374 720.4,354.6 714.6,354.6 714.6,374 711.9,374 		"/>
	</g>
	<g>
		<polygon class="st4" points="750.6,325.2 744.9,330.7 747.7,330.7 747.7,342.1 753.5,342.1 753.5,330.7 756.2,330.7 		"/>
	</g>
	<g>
		<path class="st1" d="M749,259.8v26.5H773v9.3c0,0.6,0.5,1.2,1.2,1.2c0.6,0,1.2-0.5,1.2-1.2v-9.3h5v-26.5H749z"/>
	</g>
	<g>
		<path class="st0" d="M774.7,274.2h-20.2c-0.6,0-1.2-0.5-1.2-1.1c0-0.6,0.5-1.2,1.2-1.2h20.2c0.6,0,1.2,0.5,1.2,1.2
			C775.9,273.7,775.4,274.2,774.7,274.2z"/>
	</g>
	<g>
		<path class="st0" d="M774.7,266.7h-20.2c-0.6,0-1.2-0.5-1.2-1.2c0-0.6,0.5-1.2,1.2-1.2h20.2c0.6,0,1.2,0.5,1.2,1.2
			C775.9,266.2,775.4,266.7,774.7,266.7z"/>
	</g>
	<g>
		<path class="st0" d="M769.9,281.6h-15.3c-0.6,0-1.2-0.5-1.2-1.1c0-0.6,0.5-1.2,1.2-1.2h15.3c0.6,0,1.1,0.5,1.1,1.2
			C771,281.1,770.5,281.6,769.9,281.6z"/>
	</g>
	<g>
		<path class="st1" d="M806,321.1C806,321.1,806.1,321.1,806,321.1c0.1-0.2,0.1-0.3,0.1-0.5c0-0.1,0-0.3-0.1-0.4c0,0,0-0.1,0-0.1
			c-0.1-0.1-0.1-0.2-0.2-0.3c0,0,0,0,0,0c0,0-0.1-0.1-0.2-0.1l-6.1-3.9c-0.5-0.3-1.2-0.2-1.6,0.4c-0.3,0.5-0.2,1.2,0.4,1.6l2.8,1.8
			h-29.8c-0.3,0-0.6,0.1-0.8,0.3L750.2,340h-33.7c-0.3,0-0.6,0.1-0.8,0.3l-19,19c-0.5,0.5-0.5,1.2,0,1.6c0.2,0.2,0.5,0.3,0.8,0.3
			c0.3,0,0.6-0.1,0.8-0.3l18.6-18.6h33.7c0.3,0,0.6-0.1,0.8-0.3l20.2-20.2H801l-2.8,1.8c-0.5,0.3-0.7,1-0.4,1.6
			c0.2,0.3,0.6,0.5,1,0.5c0.2,0,0.4-0.1,0.6-0.2l6.1-3.9c0.1,0,0.1-0.1,0.2-0.1c0,0,0,0,0,0C805.9,321.3,806,321.2,806,321.1z"/>
	</g>
	<g>
		<path class="st3" d="M785.2,334.6C785.2,334.6,785.2,334.6,785.2,334.6c-0.1-0.2-0.2-0.3-0.2-0.4c0,0,0,0,0,0
			c-0.1,0-0.1-0.1-0.2-0.1l-6.1-3.9c-0.5-0.3-1.2-0.2-1.6,0.4c-0.3,0.5-0.2,1.2,0.4,1.6l2.8,1.8h-9.5L758,321.1
			c-0.2-0.2-0.5-0.3-0.8-0.3h-27l-31.7-31.7V286H694v23.8h4.5v-17.4l30.4,30.4c0.2,0.2,0.5,0.3,0.8,0.3h27l12.7,12.7
			c0.2,0.2,0.5,0.3,0.8,0.3h10l-2.8,1.8c-0.5,0.3-0.7,1-0.4,1.6c0.2,0.4,0.6,0.5,1,0.5c0.2,0,0.4-0.1,0.6-0.2l6.1-3.9
			c0.1,0,0.1-0.1,0.2-0.1c0,0,0,0,0,0c0.1-0.1,0.2-0.2,0.2-0.3c0,0,0-0.1,0-0.1c0-0.1,0.1-0.3,0.1-0.4S785.3,334.7,785.2,334.6z"/>
	</g>
	<g>
		<circle class="st6" cx="729.7" cy="321.8" r="3.9"/>
	</g>
	<g>
		<path class="st0" d="M816.6,285l-6.1-3.9c-0.5-0.3-1.2-0.2-1.6,0.4c-0.3,0.5-0.2,1.2,0.4,1.6l2.8,1.8h-24.3
			c-0.3,0-0.6,0.1-0.8,0.3l-13.2,13.2h-42.1c-0.3,0-0.6,0.1-0.8,0.3L698.5,331v-21.3H694v24.8h3.1h0.9h0.5v-0.3l33.6-33.6h42.1
			c0.3,0,0.6-0.1,0.8-0.3l13.2-13.2H812l-2.8,1.8c-0.5,0.3-0.7,1-0.4,1.6c0.2,0.3,0.6,0.5,1,0.5c0.2,0,0.4-0.1,0.6-0.2l6.1-3.9
			c0.3-0.2,0.5-0.6,0.5-1C817.2,285.6,816.9,285.2,816.6,285z"/>
	</g>
	<g>
		<path class="st0" d="M729.7,326.9c-2.8,0-5.1-2.3-5.1-5.1c0-2.8,2.3-5.1,5.1-5.1s5.1,2.3,5.1,5.1
			C734.8,324.6,732.5,326.9,729.7,326.9z M729.7,319c-1.5,0-2.8,1.2-2.8,2.8c0,1.5,1.2,2.8,2.8,2.8s2.8-1.2,2.8-2.8
			C732.5,320.3,731.2,319,729.7,319z"/>
	</g>
	<g>
		<path class="st0" d="M778.1,299.5c0,2.2-1.7,3.9-3.9,3.9c-2.2,0-3.9-1.7-3.9-3.9c0-2.2,1.7-3.9,3.9-3.9
			C776.3,295.6,778.1,297.3,778.1,299.5z"/>
	</g>
	<g>
		<path class="st4" d="M774.2,304.5c-2.8,0-5.1-2.3-5.1-5.1c0-2.8,2.3-5.1,5.1-5.1c2.8,0,5.1,2.3,5.1,5.1
			C779.2,302.3,777,304.5,774.2,304.5z M774.2,296.7c-1.5,0-2.8,1.2-2.8,2.8c0,1.5,1.2,2.8,2.8,2.8c1.5,0,2.8-1.2,2.8-2.8
			C776.9,298,775.7,296.7,774.2,296.7z"/>
	</g>
	<g>
		<path class="st4" d="M721.3,355.7c0,2.2-1.7,3.9-3.9,3.9c-2.2,0-3.9-1.7-3.9-3.9c0-2.2,1.7-3.9,3.9-3.9
			C719.6,351.8,721.3,353.5,721.3,355.7z"/>
	</g>
	<g>
		<path class="st4" d="M798.1,346.3C798.1,346.3,798.1,346.3,798.1,346.3c0-0.2,0-0.2-0.1-0.3c0-0.1,0-0.1-0.1-0.2c0,0,0,0,0,0
			c-0.1-0.2-0.3-0.4-0.6-0.5l-5.9-3.8c-0.5-0.3-1.2-0.2-1.6,0.4c-0.3,0.5-0.2,1.2,0.4,1.6l2.7,1.7h-29.7c-0.3,0-0.6,0.1-0.8,0.3
			l-9,9H718L698.5,335v-0.4H694v14.3h4.5v-10.6l18.3,18.3c0.2,0.2,0.5,0.3,0.8,0.3h36.3c0.3,0,0.6-0.1,0.8-0.3l9-9H793l-2.8,1.8
			c-0.5,0.3-0.7,1-0.4,1.6c0.2,0.3,0.6,0.5,1,0.5c0.2,0,0.4-0.1,0.6-0.2l6.1-3.9C797.9,347.1,798.1,346.8,798.1,346.3
			C798.1,346.4,798.1,346.4,798.1,346.3L798.1,346.3z"/>
	</g>
	<g>
		<path class="st0" d="M717.4,360.8c-2.8,0-5.1-2.3-5.1-5.1c0-2.8,2.3-5.1,5.1-5.1c2.8,0,5.1,2.3,5.1,5.1
			C722.5,358.5,720.2,360.8,717.4,360.8z M717.4,352.9c-1.5,0-2.8,1.2-2.8,2.8s1.2,2.8,2.8,2.8c1.5,0,2.8-1.2,2.8-2.8
			S718.9,352.9,717.4,352.9z"/>
	</g>
	<g>
		<path class="st1" d="M754.5,341.1c0,2.2-1.7,3.9-3.9,3.9c-2.2,0-3.9-1.7-3.9-3.9c0-2.2,1.7-3.9,3.9-3.9
			C752.8,337.2,754.5,339,754.5,341.1z"/>
	</g>
	<g>
		<path class="st0" d="M750.6,346.2c-2.8,0-5.1-2.3-5.1-5.1s2.3-5.1,5.1-5.1c2.8,0,5.1,2.3,5.1,5.1S753.4,346.2,750.6,346.2z
			 M750.6,338.4c-1.5,0-2.8,1.2-2.8,2.8c0,1.5,1.2,2.8,2.8,2.8c1.5,0,2.8-1.2,2.8-2.8C753.4,339.6,752.1,338.4,750.6,338.4z"/>
	</g>
	<g>
		<rect x="694" y="348.7" class="st1" width="4.5" height="14.4"/>
	</g>
	<g>
		<path class="st0" d="M805.6,374h-18.9c-0.6,0-1.2-0.5-1.2-1.1c0-0.6,0.5-1.2,1.2-1.2h18.9c0.6,0,1.2,0.5,1.2,1.2
			C806.8,373.5,806.3,374,805.6,374z"/>
	</g>
	<g>
		<path class="st0" d="M805.6,366.6h-18.9c-0.6,0-1.2-0.5-1.2-1.1c0-0.6,0.5-1.2,1.2-1.2h18.9c0.6,0,1.2,0.5,1.2,1.2
			C806.8,366.1,806.3,366.6,805.6,366.6z"/>
	</g>
	<g>
		<path class="st0" d="M799.7,381.5h-13c-0.6,0-1.2-0.5-1.2-1.2c0-0.6,0.5-1.1,1.2-1.1h13c0.6,0,1.2,0.5,1.2,1.1
			C800.9,381,800.3,381.5,799.7,381.5z"/>
	</g>
	<g>
		<path class="st0" d="M719.5,286.4c0-0.6,0.4-1.2,1.1-1.2l0,0c0.6,0,1.2,0.4,1.2,1.1l0,0c0,0.6-0.4,1.2-1.1,1.2l0,0
			c0,0-0.1,0-0.1,0l0,0C720,287.4,719.5,287,719.5,286.4z M711,284.2L711,284.2C710.9,284.2,710.9,284.2,711,284.2L711,284.2
			c-0.5-0.5-0.6-1.2-0.1-1.7l0,0c0.4-0.5,1.1-0.5,1.6-0.1l0,0c0,0,0,0,0,0l0,0l0,0l0,0c0,0,0,0,0,0l0,0h0l0,0
			c0.5,0.4,0.5,1.1,0.1,1.6l0,0c-0.2,0.3-0.5,0.4-0.9,0.4l0,0C711.4,284.5,711.2,284.4,711,284.2z M728.2,283
			c-0.5-0.4-0.5-1.1-0.1-1.6l0,0c0.4-0.5,1.2-0.5,1.6-0.1l0,0c0.5,0.4,0.5,1.1,0.1,1.6l0,0c-0.2,0.3-0.5,0.4-0.9,0.4l0,0
			C728.7,283.3,728.5,283.2,728.2,283z M706.4,274.9c0-0.6,0.4-1.2,1.1-1.2l0,0c0.6,0,1.2,0.4,1.2,1.1l0,0c0,0.6-0.4,1.2-1.1,1.2
			l0,0c0,0-0.1,0-0.1,0l0,0C706.9,276,706.4,275.6,706.4,274.9z M730.8,273.3c0-0.6,0.4-1.2,1.1-1.2l0,0c0.6,0,1.2,0.4,1.2,1.1l0,0
			c0,0.6-0.4,1.2-1.1,1.2l0,0c0,0-0.1,0-0.1,0l0,0C731.4,274.4,730.9,274,730.8,273.3z M709.8,266.9c-0.5-0.4-0.5-1.1-0.1-1.6l0,0
			c0.4-0.5,1.2-0.5,1.6-0.1l0,0c0.5,0.4,0.5,1.1,0.1,1.6l0,0l0,0l0,0c-0.2,0.3-0.6,0.4-0.9,0.4l0,0
			C710.3,267.1,710,267.1,709.8,266.9z M727.1,265.7L727.1,265.7L727.1,265.7c-0.5-0.4-0.5-1.2-0.1-1.6l0,0c0.4-0.5,1.2-0.5,1.6-0.1
			l0,0c0.5,0.4,0.5,1.2,0.1,1.6l0,0c-0.2,0.3-0.6,0.4-0.9,0.4l0,0C727.6,266,727.3,265.9,727.1,265.7z M717.8,261.9
			c0-0.6,0.4-1.2,1.1-1.2l0,0c0.6,0,1.2,0.4,1.2,1.1l0,0c0,0.6-0.4,1.2-1.1,1.2l0,0l0,0l0,0c0,0,0,0-0.1,0l0,0
			C718.4,263,717.9,262.5,717.8,261.9z"/>
	</g>
	<g>
		<path class="st3" d="M683.4,316.1c0,1.8-1.5,3.3-3.3,3.3c-1.8,0-3.3-1.5-3.3-3.3c0-1.8,1.5-3.3,3.3-3.3
			C681.9,312.8,683.4,314.3,683.4,316.1z"/>
	</g>
	<g>
		<path class="st0" d="M683.4,326.4c0,1.8-1.5,3.3-3.3,3.3c-1.8,0-3.3-1.5-3.3-3.3c0-1.8,1.5-3.3,3.3-3.3
			C681.9,323.2,683.4,324.6,683.4,326.4z"/>
	</g>
	<g>
		<path class="st2" d="M683.4,336.8c0,1.8-1.5,3.3-3.3,3.3c-1.8,0-3.3-1.5-3.3-3.3c0-1.8,1.5-3.3,3.3-3.3
			C681.9,333.5,683.4,335,683.4,336.8z"/>
	</g>
	<g>
		<path class="st1" d="M683.4,347.1c0,1.8-1.5,3.3-3.3,3.3c-1.8,0-3.3-1.5-3.3-3.3c0-1.8,1.5-3.3,3.3-3.3
			C681.9,343.9,683.4,345.3,683.4,347.1z"/>
	</g>
</g>
<g>
	<g>
		<polygon class="st1" points="331.5,19.9 324.3,27.1 327.8,27.1 327.8,52.3 335.1,52.3 335.1,27.1 338.6,27.1 		"/>
	</g>
	<g>
		<path class="st5" d="M364.5,137.5H258.8c-1.4,0-2.5,1.1-2.5,2.5v3.7c0,1.4,1.1,2.5,2.5,2.5h105.7c1.4,0,2.5-1.1,2.5-2.5v-3.7
			C367,138.7,365.9,137.5,364.5,137.5z"/>
	</g>
	<g>
		<path class="st5" d="M256.3,64.8l55.4-38.9L367,64.8H256.3z"/>
	</g>
	<g>
		<path class="st3" d="M310.6,42.2c0.3-0.8,0.5-1.6,0.7-2.5c0.2-0.9,0.3-1.7,0.3-2.6l-5.2-1.9c-0.1-0.5-0.2-1-0.3-1.5l4-3.8
			c-0.7-1.6-1.7-3-2.9-4.3l-5,2.3c-0.4-0.3-0.8-0.6-1.3-0.8l0.2-5.5c-0.8-0.3-1.6-0.5-2.5-0.7c-0.9-0.2-1.7-0.3-2.6-0.3l-1.9,5.2
			c-0.5,0.1-1,0.2-1.5,0.3l-3.8-4c-1.6,0.7-3,1.7-4.3,2.9l2.3,5c-0.3,0.4-0.6,0.8-0.8,1.3l-5.5-0.2c-0.3,0.8-0.5,1.6-0.7,2.5
			c-0.2,0.9-0.3,1.7-0.3,2.6l5.2,1.9c0.1,0.5,0.2,1,0.3,1.5l-4,3.8c0.7,1.6,1.7,3,2.9,4.3l5-2.3c0.4,0.3,0.8,0.6,1.3,0.8l-0.2,5.5
			c0.8,0.3,1.6,0.5,2.5,0.7c0.9,0.2,1.7,0.3,2.6,0.3l1.9-5.2c0.5-0.1,1-0.2,1.5-0.3l3.8,4c1.6-0.7,3-1.7,4.3-2.9l-2.3-5
			c0.3-0.4,0.6-0.8,0.8-1.3L310.6,42.2z"/>
	</g>
	<g>
		<path class="st4" d="M301.6,37.9c-0.6,3.3-3.9,5.5-7.2,4.9c-3.3-0.6-5.5-3.9-4.9-7.2c0.6-3.3,3.9-5.5,7.2-4.9
			C300.1,31.3,302.2,34.5,301.6,37.9z"/>
	</g>
	<g>
		<path class="st3" d="M328.4,52.2c0-0.6,0-1.1-0.1-1.7c-0.1-0.6-0.2-1.1-0.4-1.7l-3.7-0.1c-0.1-0.3-0.3-0.6-0.5-0.9l1.7-3.2
			c-0.8-0.8-1.7-1.5-2.7-2.1l-2.6,2.5c-0.3-0.1-0.6-0.2-1-0.3l-1.1-3.5c-0.6,0-1.1,0-1.7,0.1c-0.6,0.1-1.1,0.2-1.7,0.4l-0.1,3.7
			c-0.3,0.1-0.6,0.3-0.9,0.5l-3.2-1.7c-0.8,0.8-1.5,1.7-2.1,2.7l2.5,2.6c-0.1,0.3-0.2,0.6-0.3,1l-3.5,1.1c0,0.6,0,1.1,0.1,1.7
			c0.1,0.6,0.2,1.1,0.4,1.7l3.7,0.1c0.1,0.3,0.3,0.6,0.5,0.9l-1.7,3.2c0.8,0.8,1.7,1.5,2.7,2.1l2.7-2.5c0.3,0.1,0.6,0.2,1,0.3
			l1.1,3.5c0.6,0,1.1,0,1.7-0.1c0.6-0.1,1.1-0.2,1.7-0.4l0.1-3.7c0.3-0.1,0.6-0.3,0.9-0.5l3.2,1.7c0.8-0.8,1.5-1.7,2.1-2.7l-2.5-2.7
			c0.1-0.3,0.2-0.6,0.3-1L328.4,52.2z"/>
	</g>
	<g>
		<path class="st4" d="M321.6,51.3c0.3,2.1-1.2,4-3.3,4.3c-2.1,0.3-4-1.2-4.3-3.3c-0.3-2.1,1.2-4,3.3-4.3
			C319.4,47.8,321.3,49.2,321.6,51.3z"/>
	</g>
	<g>
		<rect x="269.3" y="79.5" class="st3" width="84.7" height="43.4"/>
	</g>
	<g>
		<path class="st3" d="M274.5,110.5V91.9c4,0,7.2-3.2,7.2-7.2h59.9c0,4,3.2,7.2,7.2,7.2v18.6c-4,0-7.2,3.2-7.2,7.2h-59.9
			C281.7,113.7,278.5,110.5,274.5,110.5z"/>
	</g>
	<g>
		<path class="st3" d="M341.6,118.8h-59.9c-0.6,0-1.1-0.5-1.1-1.2c0-3.4-2.7-6.1-6.1-6.1c-0.6,0-1.1-0.5-1.1-1.2V91.9
			c0-0.6,0.5-1.2,1.1-1.2c3.4,0,6.1-2.7,6.1-6.1c0-0.6,0.5-1.2,1.1-1.2h59.9c0.6,0,1.2,0.5,1.2,1.2c0,3.4,2.7,6.1,6.1,6.1
			c0.6,0,1.1,0.5,1.1,1.2v18.6c0,0.6-0.5,1.2-1.1,1.2c-3.4,0-6.1,2.7-6.1,6.1C342.8,118.3,342.2,118.8,341.6,118.8z M282.8,116.5
			h57.8c0.5-3.7,3.4-6.6,7.1-7.2V92.9c-3.7-0.5-6.6-3.5-7.1-7.2h-57.8c-0.5,3.7-3.4,6.6-7.1,7.2v16.4
			C279.3,109.9,282.3,112.8,282.8,116.5z"/>
	</g>
	<g>
		<path class="st4" d="M327.4,101.2c0,4.9,2.7,9,6.1,9c3.4,0,6.1-4,6.1-9c0-4.9-2.7-9-6.1-9C330.2,92.2,327.4,96.2,327.4,101.2z"/>
	</g>
	<g>
		<path class="st4" d="M283.7,101.2c0,4.9,2.7,9,6.1,9c3.4,0,6.1-4,6.1-9c0-4.9-2.7-9-6.1-9C286.4,92.2,283.7,96.2,283.7,101.2z"/>
	</g>
	<g>
		<path class="st0" d="M311.7,100c-3.1,0-3.8-1.8-3.8-3.4c0-1.9,1.7-3.4,3.8-3.4c2.1,0,3.8,1.5,3.8,3.4c0,0.6,0.5,1.2,1.2,1.2
			c0.6,0,1.2-0.5,1.2-1.2c0-2.8-2.1-5-5-5.5v-1.4c0-0.6-0.5-1.2-1.1-1.2c-0.6,0-1.2,0.5-1.2,1.2v1.4c-2.8,0.5-5,2.8-5,5.5
			c0,2.7,1.6,5.7,6.1,5.7c3.1,0,3.8,1.8,3.8,3.4c0,1.8-1.7,3.4-3.8,3.4c-2.1,0-3.8-1.5-3.8-3.4c0-0.6-0.5-1.2-1.1-1.2
			c-0.6,0-1.1,0.5-1.1,1.2c0,2.8,2.1,5,5,5.5v1.4c0,0.6,0.5,1.2,1.2,1.2c0.6,0,1.1-0.5,1.1-1.2v-1.4c2.8-0.5,5-2.8,5-5.5
			C317.8,102.9,316.2,100,311.7,100z"/>
	</g>
	<g>
		<rect x="262.8" y="127.4" class="st2" width="97.7" height="5.5"/>
	</g>
	<g>
		<rect x="262.8" y="69.4" class="st2" width="97.7" height="5.5"/>
	</g>
	<g>
		<path class="st0" d="M351,60.3c-0.1-0.6,0.4-1.2,1-1.3l0,0c0,0,0,0,0,0l0,0c0.6-0.1,1.2,0.4,1.3,1l0,0c0.1,0.6-0.4,1.2-1,1.3l0,0
			c0,0-0.1,0-0.1,0l0,0C351.5,61.3,351.1,60.9,351,60.3z M342.4,58.7C342.4,58.7,342.3,58.7,342.4,58.7L342.4,58.7L342.4,58.7
			L342.4,58.7c-0.5-0.4-0.6-1.1-0.2-1.6l0,0c0.4-0.5,1.1-0.6,1.6-0.2l0,0c0,0,0,0,0,0l0,0l0,0l0,0c0.5,0.4,0.6,1.1,0.2,1.6l0,0
			c-0.2,0.3-0.6,0.5-0.9,0.5l0,0C342.8,58.9,342.6,58.8,342.4,58.7z M359.5,56.4c-0.5-0.4-0.6-1.1-0.2-1.6l0,0
			c0.4-0.5,1.1-0.6,1.6-0.2l0,0c0.5,0.4,0.6,1.1,0.2,1.6l0,0c-0.2,0.3-0.6,0.4-0.9,0.4l0,0C360,56.6,359.7,56.5,359.5,56.4z
			 M337.2,49.8c-0.1-0.6,0.4-1.2,1-1.3l0,0c0.6-0.1,1.2,0.4,1.3,1l0,0c0.1,0.6-0.4,1.2-1,1.3l0,0c0,0-0.1,0-0.2,0l0,0
			C337.8,50.8,337.3,50.4,337.2,49.8z M361.5,46.5c-0.1-0.6,0.4-1.2,1-1.3l0,0c0.6-0.1,1.2,0.4,1.3,1l0,0c0.1,0.6-0.4,1.2-1,1.3l0,0
			c-0.1,0-0.1,0-0.1,0l0,0C362.1,47.5,361.6,47.1,361.5,46.5z M340.1,41.5c-0.5-0.4-0.6-1.1-0.2-1.6l0,0c0.4-0.5,1.1-0.6,1.6-0.2
			l0,0c0.5,0.4,0.6,1.1,0.2,1.6l0,0c-0.2,0.3-0.6,0.5-0.9,0.5l0,0C340.5,41.7,340.3,41.6,340.1,41.5z M357.2,39.2L357.2,39.2
			L357.2,39.2c-0.5-0.4-0.6-1.1-0.2-1.6l0,0c0.4-0.5,1.1-0.6,1.6-0.2l0,0c0.5,0.4,0.6,1.1,0.2,1.6l0,0c-0.2,0.3-0.6,0.4-0.9,0.4l0,0
			C357.7,39.4,357.4,39.3,357.2,39.2z M347.7,36c-0.1-0.6,0.4-1.2,1-1.3h0c0.6-0.1,1.2,0.4,1.3,1l0,0c0.1,0.6-0.4,1.2-1,1.3l0,0
			c-0.1,0-0.1,0-0.2,0l0,0C348.3,37,347.8,36.6,347.7,36z"/>
	</g>
	<g>
		<path class="st0" d="M278.1,106.8h-20.3c-0.6,0-1.1-0.5-1.1-1.2c0-0.6,0.5-1.1,1.1-1.1h20.3c0.6,0,1.2,0.5,1.2,1.1
			C279.2,106.3,278.7,106.8,278.1,106.8z"/>
	</g>
	<g>
		<path class="st0" d="M278.1,98h-20.3c-0.6,0-1.1-0.5-1.1-1.2s0.5-1.2,1.1-1.2h20.3c0.6,0,1.2,0.5,1.2,1.2S278.7,98,278.1,98z"/>
	</g>
	<g>
		<path class="st0" d="M271.7,115.5h-13.9c-0.6,0-1.1-0.5-1.1-1.1s0.5-1.2,1.1-1.2h13.9c0.6,0,1.1,0.5,1.1,1.2
			S272.4,115.5,271.7,115.5z"/>
	</g>
	<g>
		<path class="st5" d="M340.2,116.2c0,7,5.7,12.7,12.7,12.7c7,0,12.7-5.7,12.7-12.7c0-7-5.7-12.7-12.7-12.7
			C345.9,103.4,340.2,109.1,340.2,116.2z"/>
	</g>
	<g>
		<path class="st1" d="M352.9,130.1c-7.7,0-13.9-6.2-13.9-13.9c0-7.7,6.2-13.9,13.9-13.9c7.7,0,13.9,6.2,13.9,13.9
			C366.8,123.8,360.6,130.1,352.9,130.1z M352.9,104.6c-6.4,0-11.6,5.2-11.6,11.6c0,6.4,5.2,11.6,11.6,11.6
			c6.4,0,11.6-5.2,11.6-11.6C364.5,109.8,359.3,104.6,352.9,104.6z"/>
	</g>
	<g>
		<path class="st0" d="M352.9,115c-1.5,0-2.3-0.6-2.3-2c0-1.1,1-2,2.3-2c1.3,0,2.3,0.9,2.3,2c0,0.6,0.5,1.2,1.2,1.2
			c0.6,0,1.2-0.5,1.2-1.2c0-2-1.5-3.6-3.4-4.1v-0.7c0-0.6-0.5-1.1-1.2-1.1c-0.6,0-1.1,0.5-1.1,1.1v0.7c-2,0.5-3.4,2.1-3.4,4.1
			c0,2.6,1.8,4.3,4.6,4.3c1.5,0,2.3,0.6,2.3,2c0,1.1-1,2-2.3,2c-1.3,0-2.3-0.9-2.3-2c0-0.6-0.5-1.2-1.2-1.2c-0.6,0-1.1,0.5-1.1,1.2
			c0,2,1.5,3.6,3.4,4.1v0.7c0,0.6,0.5,1.2,1.1,1.2c0.6,0,1.2-0.5,1.2-1.2v-0.7c2-0.5,3.4-2.1,3.4-4.1
			C357.5,116.7,355.7,115,352.9,115z"/>
	</g>
</g>
<g>
	<g>
		<polygon class="st1" points="551.9,33.1 496.6,33.1 496.6,129.6 570.6,129.6 570.6,51.8 		"/>
	</g>
	<g>
		<polygon class="st3" points="559.4,25.7 504,25.7 504,122.2 578,122.2 578,44.3 559.4,44.3 		"/>
	</g>
	<g>
		<polygon class="st3" points="559.4,44.3 578,44.3 559.4,25.7 		"/>
	</g>
	<g>
		<path class="st2" d="M525.2,75.2h-38.3c-4,0-7.2,3.2-7.2,7.2v54.1c0,4,3.2,7.2,7.2,7.2h38.3c4,0,7.2-3.2,7.2-7.2V82.4
			C532.5,78.4,529.2,75.2,525.2,75.2z"/>
	</g>
	<g>
		<path class="st4" d="M525.5,80.5h-38.8c-0.9,0-1.7,0.8-1.7,1.7v7.2c0,0.9,0.8,1.7,1.7,1.7h38.8c0.9,0,1.7-0.8,1.7-1.7v-7.2
			C527.2,81.2,526.4,80.5,525.5,80.5z"/>
	</g>
	<g>
		<path class="st1" d="M501.8,96.3h-15.1c-0.9,0-1.7,0.8-1.7,1.7v15.1c0,0.9,0.8,1.7,1.7,1.7h15.1c0.9,0,1.7-0.8,1.7-1.7V98
			C503.5,97,502.7,96.3,501.8,96.3z"/>
	</g>
	<g>
		<path class="st1" d="M501.8,120h-15.1c-0.9,0-1.7,0.8-1.7,1.7v15.1c0,0.9,0.8,1.7,1.7,1.7h15.1c0.9,0,1.7-0.8,1.7-1.7v-15.1
			C503.5,120.8,502.7,120,501.8,120z"/>
	</g>
	<g>
		<path class="st1" d="M525.5,96.3h-15.1c-0.9,0-1.7,0.8-1.7,1.7v15.1c0,0.9,0.8,1.7,1.7,1.7h15.1c0.9,0,1.7-0.8,1.7-1.7V98
			C527.2,97,526.4,96.3,525.5,96.3z"/>
	</g>
	<g>
		<path class="st1" d="M525.5,120h-15.1c-0.9,0-1.7,0.8-1.7,1.7v15.1c0,0.9,0.8,1.7,1.7,1.7h15.1c0.9,0,1.7-0.8,1.7-1.7v-15.1
			C527.2,120.8,526.4,120,525.5,120z"/>
	</g>
	<g>
		<path class="st0" d="M523.2,127.7h-10.6c-0.6,0-1.1-0.5-1.1-1.2c0-0.6,0.5-1.2,1.1-1.2h10.6c0.6,0,1.2,0.5,1.2,1.2
			C524.4,127.1,523.9,127.7,523.2,127.7z"/>
	</g>
	<g>
		<path class="st0" d="M523.2,133.9h-10.6c-0.6,0-1.1-0.5-1.1-1.1c0-0.6,0.5-1.2,1.1-1.2h10.6c0.6,0,1.2,0.5,1.2,1.2
			C524.4,133.4,523.9,133.9,523.2,133.9z"/>
	</g>
	<g>
		<path class="st0" d="M499.6,104.4h-4.1v-4.1c0-0.6-0.5-1.2-1.1-1.2c-0.6,0-1.2,0.5-1.2,1.2v4.1H489c-0.6,0-1.2,0.5-1.2,1.2
			c0,0.6,0.5,1.1,1.2,1.1h4.1v4.1c0,0.6,0.5,1.2,1.2,1.2c0.6,0,1.1-0.5,1.1-1.2v-4.1h4.1c0.6,0,1.2-0.5,1.2-1.1
			C500.7,104.9,500.2,104.4,499.6,104.4z"/>
	</g>
	<g>
		<path class="st0" d="M495.9,129.6l3.2-3.2c0.5-0.4,0.5-1.2,0-1.6c-0.4-0.5-1.2-0.5-1.6,0l-3.2,3.2l-3.2-3.2
			c-0.5-0.5-1.2-0.5-1.6,0c-0.5,0.4-0.5,1.2,0,1.6l3.2,3.2l-3.2,3.2c-0.5,0.5-0.5,1.2,0,1.6c0.2,0.2,0.5,0.3,0.8,0.3
			c0.3,0,0.6-0.1,0.8-0.3l3.2-3.2l3.2,3.2c0.2,0.2,0.5,0.3,0.8,0.3c0.3,0,0.6-0.1,0.8-0.3c0.5-0.5,0.5-1.2,0-1.6L495.9,129.6z"/>
	</g>
	<g>
		<path class="st0" d="M523.2,106.7h-10.6c-0.6,0-1.1-0.5-1.1-1.1c0-0.6,0.5-1.2,1.1-1.2h10.6c0.6,0,1.2,0.5,1.2,1.2
			C524.4,106.2,523.9,106.7,523.2,106.7z"/>
	</g>
	<g>
		<path class="st0" d="M521.9,86.9c-0.3,0-0.6-0.1-0.8-0.3c-0.2-0.2-0.3-0.5-0.3-0.8c0-0.3,0.1-0.6,0.3-0.8c0.4-0.4,1.2-0.4,1.6,0
			c0.2,0.2,0.3,0.5,0.3,0.8c0,0.3-0.1,0.6-0.3,0.8C522.5,86.8,522.2,86.9,521.9,86.9z"/>
	</g>
	<g>
		<path class="st0" d="M515.2,85.7c0-0.6,0.5-1.1,1.2-1.1l0,0c0.6,0,1.1,0.5,1.1,1.1l0,0c0,0.6-0.5,1.2-1.1,1.2l0,0
			C515.7,86.9,515.2,86.4,515.2,85.7z"/>
	</g>
	<g>
		<path class="st0" d="M510.7,86.9c-0.3,0-0.6-0.1-0.8-0.3c-0.2-0.2-0.3-0.5-0.3-0.8c0-0.3,0.1-0.6,0.3-0.8c0.4-0.4,1.2-0.4,1.6,0
			c0.2,0.2,0.3,0.5,0.3,0.8c0,0.3-0.1,0.6-0.3,0.8C511.3,86.8,511,86.9,510.7,86.9z"/>
	</g>
	<g>
		<polygon class="st4" points="561.3,90.5 555,88.2 546.9,94.4 539.9,91.9 532.5,97.7 532.5,104.6 541,106.5 546.9,101.3 
			556.1,102.1 563.6,95.1 570.6,97 570.6,82.3 		"/>
	</g>
	<g>
		<polygon class="st1" points="556.1,102.1 546.9,101.3 541,106.5 532.5,104.6 532.5,114.8 570.6,114.8 570.6,97 563.6,95.1 		"/>
	</g>
	<g>
		<path class="st2" d="M516.8,39.8h-35.4c-0.6,0-1.1-0.5-1.1-1.2c0-0.6,0.5-1.1,1.1-1.1h35.4c0.6,0,1.2,0.5,1.2,1.1
			C518,39.2,517.5,39.8,516.8,39.8z"/>
	</g>
	<g>
		<path class="st2" d="M511.1,47.2h-29.6c-0.6,0-1.1-0.5-1.1-1.1c0-0.6,0.5-1.2,1.1-1.2h29.6c0.6,0,1.2,0.5,1.2,1.2
			C512.2,46.7,511.7,47.2,511.1,47.2z"/>
	</g>
	<g>
		<path class="st2" d="M499.6,54.6h-18.2c-0.6,0-1.1-0.5-1.1-1.2c0-0.6,0.5-1.2,1.1-1.2h18.2c0.6,0,1.1,0.5,1.1,1.2
			C500.7,54.1,500.2,54.6,499.6,54.6z"/>
	</g>
	<g>
		<path class="st2" d="M505.3,62.1h-23.9c-0.6,0-1.1-0.5-1.1-1.2c0-0.6,0.5-1.2,1.1-1.2h23.9c0.6,0,1.2,0.5,1.2,1.2
			C506.5,61.5,506,62.1,505.3,62.1z"/>
	</g>
	<g>
		<path class="st2" d="M492.7,69.5h-11.3c-0.6,0-1.1-0.5-1.1-1.2s0.5-1.2,1.1-1.2h11.3c0.6,0,1.2,0.5,1.2,1.2S493.3,69.5,492.7,69.5
			z"/>
	</g>
	<g>
		<path class="st0" d="M539.9,97.6c-0.6,0-1.1-0.5-1.1-1.2V82.8c0-0.6,0.5-1.2,1.1-1.2h22.7c0.6,0,1.2,0.5,1.2,1.2s-0.5,1.2-1.2,1.2
			H541v12.6C541,97.1,540.5,97.6,539.9,97.6z"/>
	</g>
	<g>
		<path class="st4" d="M552.3,77h-12.4c-0.6,0-1.1-0.5-1.1-1.2c0-0.6,0.5-1.2,1.1-1.2h12.4c0.6,0,1.2,0.5,1.2,1.2
			C553.4,76.5,552.9,77,552.3,77z"/>
	</g>
	<g>
		<path class="st4" d="M562.6,70.1h-22.7c-0.6,0-1.1-0.5-1.1-1.2c0-0.6,0.5-1.2,1.1-1.2h22.7c0.6,0,1.2,0.5,1.2,1.2
			C563.8,69.6,563.3,70.1,562.6,70.1z"/>
	</g>
	<g>
		<path class="st4" d="M558,63.2h-18.1c-0.6,0-1.1-0.5-1.1-1.1c0-0.6,0.5-1.2,1.1-1.2H558c0.6,0,1.1,0.5,1.1,1.2
			C559.2,62.7,558.7,63.2,558,63.2z"/>
	</g>
	<g>
		<path class="st0" d="M561.6,143.9c-0.3,0-0.6-0.1-0.8-0.3c-0.5-0.5-0.5-1.2,0-1.6l16.3-16.3c0.5-0.4,1.2-0.4,1.6,0
			c0.4,0.5,0.4,1.2,0,1.6l-16.3,16.3C562.1,143.8,561.9,143.9,561.6,143.9z"/>
	</g>
	<g>
		<path class="st4" d="M576.9,141.9c-1.2,1.2-3.1,1.2-4.3,0c-1.2-1.2-1.2-3.1,0-4.3c1.2-1.2,3.1-1.2,4.3,0
			C578.1,138.8,578.1,140.7,576.9,141.9z"/>
	</g>
	<g>
		<path class="st0" d="M574.8,143.9c-1.1,0-2.2-0.4-3-1.2c-1.6-1.6-1.6-4.3,0-5.9c1.6-1.6,4.3-1.6,5.9,0c1.6,1.6,1.6,4.3,0,5.9
			C576.9,143.5,575.8,143.9,574.8,143.9z M574.8,137.8c-0.5,0-1,0.2-1.3,0.6c-0.7,0.7-0.7,1.9,0,2.7c0.7,0.7,2,0.7,2.7,0
			c0.7-0.7,0.7-1.9,0-2.7C575.7,138,575.2,137.8,574.8,137.8z"/>
	</g>
	<g>
		<path class="st4" d="M566.8,131.8c-1.2,1.2-3.1,1.2-4.3,0c-1.2-1.2-1.2-3.1,0-4.3c1.2-1.2,3.1-1.2,4.3,0
			C568,128.6,568,130.6,566.8,131.8z"/>
	</g>
	<g>
		<path class="st0" d="M564.6,133.8c-1.1,0-2.1-0.4-3-1.2c-1.6-1.6-1.6-4.3,0-5.9c1.6-1.6,4.3-1.6,5.9,0c1.6,1.6,1.6,4.3,0,5.9
			C566.8,133.4,565.7,133.8,564.6,133.8z M564.6,127.7c-0.5,0-1,0.2-1.3,0.6c-0.7,0.7-0.7,1.9,0,2.7c0.7,0.7,1.9,0.7,2.7,0
			c0.7-0.7,0.7-1.9,0-2.7C565.6,127.9,565.1,127.7,564.6,127.7z"/>
	</g>
	<g>
		<rect x="526.8" y="22.2" class="st5" width="23.2" height="26.7"/>
	</g>
	<g>
		<path class="st0" d="M538.4,34.3c-1.7,0-2.6-0.8-2.6-2.3c0-1.3,1.2-2.3,2.6-2.3c1.4,0,2.6,1,2.6,2.3c0,0.6,0.5,1.2,1.2,1.2
			c0.6,0,1.2-0.5,1.2-1.2c0-2.1-1.6-3.9-3.8-4.4v-0.9c0-0.6-0.5-1.2-1.2-1.2c-0.6,0-1.1,0.5-1.1,1.2v0.9c-2.2,0.5-3.8,2.3-3.8,4.4
			c0,2.2,1.3,4.6,4.9,4.6c1.7,0,2.6,0.8,2.6,2.3c0,1.3-1.2,2.3-2.6,2.3c-1.4,0-2.6-1-2.6-2.3c0-0.6-0.5-1.2-1.2-1.2
			c-0.6,0-1.2,0.5-1.2,1.2c0,2.1,1.6,3.9,3.8,4.4v0.9c0,0.6,0.5,1.2,1.1,1.2c0.6,0,1.2-0.5,1.2-1.2v-0.9c2.2-0.5,3.8-2.3,3.8-4.4
			C543.3,36.6,542,34.3,538.4,34.3z"/>
	</g>
</g>
<g>
	<g>
		<rect x="698.2" y="28.3" class="st5" width="89.4" height="113.4"/>
	</g>
	<g>
		<rect x="706.8" y="33.8" class="st4" width="72.2" height="99.7"/>
	</g>
	<g>
		<path class="st3" d="M753.7,25.6c0-6-4.9-10.9-10.9-10.9c-6,0-10.9,4.9-10.9,10.9h-11.5v10.2h44.7V25.6H753.7z"/>
	</g>
	<g>
		<path class="st1" d="M747.6,25.6c0,2.6-2.1,4.7-4.7,4.7c-2.6,0-4.7-2.1-4.7-4.7s2.1-4.7,4.7-4.7C745.5,20.8,747.6,22.9,747.6,25.6
			z"/>
	</g>
	<g>
		<path class="st0" d="M770.5,120.2h-22.6c-0.6,0-1.2-0.5-1.2-1.2c0-0.6,0.5-1.1,1.2-1.1h22.6c0.6,0,1.1,0.5,1.1,1.1
			C771.6,119.7,771.1,120.2,770.5,120.2z"/>
	</g>
	<g>
		<path class="st0" d="M770.5,127.7h-22.6c-0.6,0-1.2-0.5-1.2-1.1s0.5-1.2,1.2-1.2h22.6c0.6,0,1.1,0.5,1.1,1.2
			S771.1,127.7,770.5,127.7z"/>
	</g>
	<g>
		<path class="st0" d="M759,51.4h-68.5c-0.6,0-1.2-0.5-1.2-1.2c0-0.6,0.5-1.2,1.2-1.2H759c0.6,0,1.2,0.5,1.2,1.2
			C760.1,50.9,759.6,51.4,759,51.4z"/>
	</g>
	<g>
		<path class="st0" d="M730.3,58.9h-13.4c-0.6,0-1.2-0.5-1.2-1.2c0-0.6,0.5-1.2,1.2-1.2h13.4c0.6,0,1.2,0.5,1.2,1.2
			C731.5,58.4,730.9,58.9,730.3,58.9z"/>
	</g>
	<g>
		<path class="st0" d="M709.6,58.9h-19.2c-0.6,0-1.2-0.5-1.2-1.2c0-0.6,0.5-1.2,1.2-1.2h19.2c0.6,0,1.2,0.5,1.2,1.2
			C710.8,58.4,710.3,58.9,709.6,58.9z"/>
	</g>
	<g>
		<path class="st0" d="M720,66.4h-29.5c-0.6,0-1.2-0.5-1.2-1.1c0-0.6,0.5-1.2,1.2-1.2H720c0.6,0,1.2,0.5,1.2,1.2
			C721.1,65.9,720.6,66.4,720,66.4z"/>
	</g>
	<g>
		<path class="st1" d="M770.5,71.5h-15.2H744h-40.9h-12.6c-0.6,0-1.2,0.5-1.2,1.2v38.9c0,0.6,0.5,1.2,1.2,1.2h12.6H744h11.3h15.2
			c0.6,0,1.1-0.5,1.1-1.2V72.7C771.6,72.1,771.1,71.5,770.5,71.5z M754.2,91h-9v-7.4h9V91z M756.5,83.6h12.9V91h-12.9V83.6z
			 M742.8,91h-38.6v-7.4h38.6V91z M701.9,91h-10.3v-7.4h10.3V91z M691.6,93.3h10.3v7.4h-10.3V93.3z M704.2,93.3h38.6v7.4h-38.6V93.3
			z M745.1,93.3h9v7.4h-9V93.3z M756.5,93.3h12.9v7.4h-12.9V93.3z M769.3,73.8v7.4h-12.9v-7.4H769.3z M754.2,73.8v7.4h-9v-7.4H754.2
			z M742.8,73.8v7.4h-38.6v-7.4H742.8z M701.9,73.8v7.4h-10.3v-7.4H701.9z M691.6,103h10.3v7.4h-10.3V103z M704.2,103h38.6v7.4
			h-38.6V103z M745.1,103h9v7.4h-9V103z M756.5,110.4V103h12.9v7.4H756.5z"/>
	</g>
	<g>
		<path class="st1" d="M716.9,127.7h-26.5c-0.6,0-1.2-0.5-1.2-1.1v-7.5c0-0.6,0.5-1.1,1.2-1.1h26.5c0.6,0,1.1,0.5,1.1,1.1v7.5
			C718.1,127.2,717.6,127.7,716.9,127.7z M691.6,125.4h24.2v-5.2h-24.2V125.4z"/>
	</g>
	<g>
		<polygon class="st3" points="797.9,62.7 799.8,57 801.7,62.7 		"/>
	</g>
	<g>
		<path class="st1" d="M797.4,133.1v5.8c0,2,1.1,2.8,2.4,2.8c1.3,0,2.4-0.8,2.4-2.8v-5.8H797.4z"/>
	</g>
	<g>
		<rect x="794.9" y="89.6" class="st2" width="9.8" height="43.7"/>
	</g>
	<g>
		<rect x="798" y="89.6" class="st5" width="3.7" height="43.7"/>
	</g>
	<g>
		<path class="st1" d="M802.3,62.7h-1.5h-1.9h-1.5c-1.2,4.4-2.4,10.5-2.4,17.1l0,0v9.8h3h3.7h3v-9.8
			C804.7,73.2,803.5,67.2,802.3,62.7z"/>
	</g>
	<g>
		<path class="st3" d="M719.6,137.6c0,7,5.7,12.7,12.7,12.7s12.7-5.7,12.7-12.7c0-7-5.7-12.7-12.7-12.7S719.6,130.5,719.6,137.6z"/>
	</g>
	<g>
		<path class="st3" d="M732.4,151.5c-7.7,0-13.9-6.2-13.9-13.9c0-7.7,6.2-13.9,13.9-13.9c7.7,0,13.9,6.2,13.9,13.9
			C746.3,145.2,740,151.5,732.4,151.5z M732.4,126c-6.4,0-11.6,5.2-11.6,11.6c0,6.4,5.2,11.6,11.6,11.6c6.4,0,11.6-5.2,11.6-11.6
			C744,131.2,738.8,126,732.4,126z"/>
	</g>
	<g>
		<path class="st4" d="M732.4,136.4c-1.5,0-2.3-0.6-2.3-2c0-1.1,1-2,2.3-2s2.3,0.9,2.3,2c0,0.6,0.5,1.1,1.1,1.1
			c0.6,0,1.1-0.5,1.1-1.1c0-2-1.5-3.6-3.4-4.1v-0.7c0-0.6-0.5-1.2-1.2-1.2c-0.6,0-1.1,0.5-1.1,1.2v0.7c-2,0.5-3.4,2.1-3.4,4.1
			c0,2.6,1.8,4.3,4.6,4.3c1.5,0,2.3,0.6,2.3,2c0,1.1-1,2-2.3,2s-2.3-0.9-2.3-2c0-0.6-0.5-1.2-1.1-1.2c-0.6,0-1.2,0.5-1.2,1.2
			c0,2,1.5,3.6,3.4,4.1v0.7c0,0.6,0.5,1.2,1.1,1.2c0.6,0,1.2-0.5,1.2-1.2v-0.7c2-0.5,3.4-2.1,3.4-4.1
			C737,138.1,735.2,136.4,732.4,136.4z"/>
	</g>
	<g>
		<path class="st0" d="M783,46c-0.1-0.6,0.3-1.2,0.9-1.3l0,0c0.6-0.1,1.2,0.3,1.3,0.9l0,0c0.1,0.6-0.3,1.2-0.9,1.3l0,0c0,0,0,0,0,0
			l0,0c-0.1,0-0.1,0-0.2,0l0,0C783.6,46.9,783.1,46.5,783,46z M775.9,45.4c-0.6-0.3-0.7-1-0.4-1.6l0,0c0.3-0.6,1-0.7,1.6-0.4l0,0
			c0.6,0.3,0.7,1,0.4,1.6l0,0c-0.2,0.4-0.6,0.6-1,0.6l0,0C776.3,45.6,776.1,45.5,775.9,45.4z M790.2,42.8c-0.5-0.4-0.5-1.1-0.1-1.6
			l0,0c0.4-0.5,1.1-0.6,1.6-0.1l0,0c0.5,0.4,0.5,1.1,0.1,1.6l0,0c-0.2,0.3-0.6,0.4-0.9,0.4l0,0C790.6,43,790.4,42.9,790.2,42.8z
			 M770.4,38.9c-0.2-0.6,0.1-1.3,0.7-1.5l0,0c0.6-0.2,1.3,0.1,1.5,0.7l0,0c0.2,0.6-0.1,1.3-0.7,1.5l0,0c-0.1,0-0.3,0.1-0.4,0.1l0,0
			C771,39.6,770.6,39.3,770.4,38.9z M792.4,34.6C792.4,34.6,792.4,34.6,792.4,34.6L792.4,34.6c0-0.7,0.5-1.2,1.2-1.2l0,0
			c0.6,0,1.1,0.5,1.1,1.1l0,0c0,0,0,0,0,0l0,0c0,0,0,0,0,0l0,0c0,0.6-0.5,1.2-1.1,1.2l0,0C792.9,35.7,792.4,35.2,792.4,34.6z
			 M771.1,31.8c-0.6-0.2-0.9-0.9-0.7-1.5l0,0l0,0l0,0c0.2-0.6,0.9-0.9,1.5-0.7l0,0c0.6,0.2,0.9,0.9,0.7,1.5l0,0
			c-0.2,0.5-0.6,0.8-1.1,0.8l0,0C771.3,31.8,771.2,31.8,771.1,31.8z M790,27.9L790,27.9c-0.4-0.5-0.4-1.2,0.1-1.6l0,0
			c0.5-0.4,1.2-0.4,1.6,0.1l0,0c0.4,0.5,0.4,1.2-0.1,1.6l0,0c-0.2,0.2-0.5,0.3-0.7,0.3l0,0C790.5,28.4,790.2,28.2,790,27.9z
			 M775.4,25.3c-0.3-0.6-0.1-1.3,0.4-1.6l0,0c0.6-0.3,1.3-0.1,1.6,0.4l0,0c0.3,0.5,0.1,1.3-0.4,1.6l0,0c-0.2,0.1-0.4,0.2-0.6,0.2
			l0,0C776,25.9,775.7,25.6,775.4,25.3z M783.9,24.5c-0.6-0.1-1-0.7-0.9-1.3l0,0c0.1-0.6,0.7-1,1.3-0.9l0,0c0.6,0.1,1,0.7,0.9,1.3
			l0,0c-0.1,0.6-0.6,1-1.1,1l0,0C784.1,24.5,784,24.5,783.9,24.5z"/>
	</g>
</g>
<g>
	<g>
		<polygon class="st1" points="508.8,300.6 495,314.4 501.8,314.4 501.8,362.7 515.9,362.7 515.9,314.4 522.7,314.4 		"/>
	</g>
	<g>
		<polygon class="st1" points="469.2,315.7 455.4,329.6 462.2,329.6 462.2,351.5 476.3,351.5 476.3,329.6 483,329.6 		"/>
	</g>
	<g>
		<polygon class="st1" points="589.1,282.9 575.2,296.7 582,296.7 582,345 596.1,345 596.1,296.7 602.9,296.7 		"/>
	</g>
	<g>
		<path class="st2" d="M584.8,377.1c-0.1,0-0.2,0-0.4,0c-0.6-0.1-1.2-0.1-1.7-0.2c-0.1,0-0.2,0-0.3,0c-0.5-0.1-0.9-0.2-1.4-0.2
			c-0.1,0-0.2,0-0.3-0.1c-1-0.2-2-0.5-2.8-0.8c-0.1,0-0.1,0-0.2-0.1c-0.4-0.1-0.8-0.3-1.1-0.5c0,0,0,0,0,0c-1.7-0.8-2.7-1.8-2.7-2.9
			c0-2.8,6.6-5,14.7-5s14.7,2.2,14.7,5c0,1.1-1,2.1-2.7,2.9c0,0,0,0-0.1,0c-0.3,0.2-0.7,0.3-1.1,0.5c-0.1,0-0.1,0-0.2,0.1
			c-0.8,0.3-1.8,0.6-2.8,0.8c-0.1,0-0.2,0-0.3,0.1c-0.5,0.1-0.9,0.2-1.4,0.2c-0.1,0-0.2,0-0.3,0c-0.6,0.1-1.1,0.2-1.7,0.2
			c-0.1,0-0.2,0-0.4,0c-0.5,0-1,0.1-1.4,0.1c-0.2,0-0.3,0-0.5,0c-0.6,0-1.2,0-1.9,0s-1.3,0-1.9,0c-0.2,0-0.3,0-0.5,0
			C585.8,377.2,585.3,377.1,584.8,377.1z"/>
	</g>
	<g>
		<path class="st5" d="M575.6,374.6c2.5,1.6,7.4,2.7,13.1,2.7c5.7,0,10.6-1.1,13.1-2.7c1.1-0.7,1.7-1.5,1.7-2.3v4.6
			c0,2.8-6.6,5-14.7,5s-14.7-2.2-14.7-5v-4.6C573.9,373.1,574.5,373.9,575.6,374.6z"/>
	</g>
	<g>
		<path class="st2" d="M584.8,370.2c-0.1,0-0.2,0-0.4,0c-0.6-0.1-1.2-0.1-1.7-0.2c-0.1,0-0.2,0-0.3,0c-0.5-0.1-0.9-0.2-1.4-0.2
			c-0.1,0-0.2,0-0.3-0.1c-1-0.2-2-0.5-2.8-0.8c-0.1,0-0.1,0-0.2-0.1c-0.4-0.1-0.8-0.3-1.1-0.5c0,0,0,0,0,0c-1.7-0.8-2.7-1.8-2.7-2.9
			c0-2.8,6.6-5,14.7-5s14.7,2.2,14.7,5c0,1.1-1,2.1-2.7,2.9c0,0,0,0-0.1,0c-0.3,0.2-0.7,0.3-1.1,0.5c-0.1,0-0.1,0-0.2,0.1
			c-0.8,0.3-1.8,0.6-2.8,0.8c-0.1,0-0.2,0-0.3,0.1c-0.5,0.1-0.9,0.2-1.4,0.2c-0.1,0-0.2,0-0.3,0c-0.6,0.1-1.1,0.1-1.7,0.2
			c-0.1,0-0.2,0-0.4,0c-0.5,0-1,0.1-1.4,0.1c-0.2,0-0.3,0-0.5,0c-0.6,0-1.2,0-1.9,0s-1.3,0-1.9,0c-0.2,0-0.3,0-0.5,0
			C585.8,370.3,585.3,370.2,584.8,370.2z"/>
	</g>
	<g>
		<path class="st5" d="M575.6,367.7c2.5,1.6,7.4,2.7,13.1,2.7c5.7,0,10.6-1.1,13.1-2.7c1.1-0.7,1.7-1.5,1.7-2.3v4.6
			c0,2.8-6.6,5-14.7,5s-14.7-2.2-14.7-5v-4.6C573.9,366.2,574.5,367,575.6,367.7z"/>
	</g>
	<g>
		<path class="st2" d="M584.8,356.4c-0.1,0-0.2,0-0.4,0c-0.6-0.1-1.2-0.1-1.7-0.2c-0.1,0-0.2,0-0.3,0c-0.5-0.1-0.9-0.2-1.4-0.2
			c-0.1,0-0.2,0-0.3-0.1c-1-0.2-2-0.5-2.8-0.8c-0.1,0-0.1,0-0.2-0.1c-0.4-0.1-0.8-0.3-1.1-0.5c0,0,0,0,0,0c-1.7-0.8-2.7-1.8-2.7-2.9
			c0-2.8,6.6-5,14.7-5s14.7,2.2,14.7,5c0,1.1-1,2.1-2.7,2.9c0,0,0,0-0.1,0c-0.3,0.2-0.7,0.3-1.1,0.5c-0.1,0-0.1,0-0.2,0.1
			c-0.8,0.3-1.8,0.6-2.8,0.8c-0.1,0-0.2,0-0.3,0.1c-0.5,0.1-0.9,0.2-1.4,0.2c-0.1,0-0.2,0-0.3,0c-0.6,0.1-1.1,0.2-1.7,0.2
			c-0.1,0-0.2,0-0.4,0c-0.5,0-1,0.1-1.4,0.1c-0.2,0-0.3,0-0.5,0c-0.6,0-1.2,0-1.9,0s-1.3,0-1.9,0c-0.2,0-0.3,0-0.5,0
			C585.8,356.5,585.3,356.5,584.8,356.4z"/>
	</g>
	<g>
		<path class="st2" d="M584.8,363.3c-0.1,0-0.2,0-0.4,0c-0.6-0.1-1.2-0.1-1.7-0.2c-0.1,0-0.2,0-0.3,0c-0.5-0.1-0.9-0.2-1.4-0.2
			c-0.1,0-0.2,0-0.3-0.1c-1-0.2-2-0.5-2.8-0.8c-0.1,0-0.1,0-0.2-0.1c-0.4-0.1-0.8-0.3-1.1-0.5c0,0,0,0,0,0c-1.7-0.8-2.7-1.8-2.7-2.9
			c0-2.7,6.6-5,14.7-5s14.7,2.2,14.7,5c0,1.1-1,2.1-2.7,2.9c0,0,0,0-0.1,0c-0.3,0.2-0.7,0.3-1.1,0.5c-0.1,0-0.1,0-0.2,0.1
			c-0.8,0.3-1.8,0.6-2.8,0.8c-0.1,0-0.2,0-0.3,0.1c-0.5,0.1-0.9,0.2-1.4,0.2c-0.1,0-0.2,0-0.3,0c-0.6,0.1-1.1,0.2-1.7,0.2
			c-0.1,0-0.2,0-0.4,0c-0.5,0-1,0.1-1.4,0.1c-0.2,0-0.3,0-0.5,0c-0.6,0-1.2,0-1.9,0s-1.3,0-1.9,0c-0.2,0-0.3,0-0.5,0
			C585.8,363.4,585.3,363.4,584.8,363.3z"/>
	</g>
	<g>
		<path class="st5" d="M575.6,360.8c2.5,1.6,7.4,2.7,13.1,2.7c5.7,0,10.6-1.1,13.1-2.7c1.1-0.7,1.7-1.5,1.7-2.3v4.6
			c0,2.7-6.6,5-14.7,5s-14.7-2.2-14.7-5v-4.6C573.9,359.3,574.5,360.1,575.6,360.8z"/>
	</g>
	<g>
		<path class="st5" d="M575.6,353.9c2.5,1.6,7.4,2.7,13.1,2.7c5.7,0,10.6-1.1,13.1-2.7c1.1-0.7,1.7-1.5,1.7-2.3v4.6
			c0,2.8-6.6,5-14.7,5s-14.7-2.2-14.7-5v-4.6C573.9,352.4,574.5,353.2,575.6,353.9z"/>
	</g>
	<g>
		<path class="st2" d="M584.8,349.5c-0.1,0-0.2,0-0.4,0c-0.6-0.1-1.2-0.1-1.7-0.2c-0.1,0-0.2,0-0.3,0c-0.5-0.1-0.9-0.2-1.4-0.2
			c-0.1,0-0.2,0-0.3-0.1c-1-0.2-2-0.5-2.8-0.8c-0.1,0-0.1,0-0.2-0.1c-0.4-0.1-0.8-0.3-1.1-0.5c0,0,0,0,0,0c-1.7-0.8-2.7-1.8-2.7-2.9
			c0-2.8,6.6-5,14.7-5s14.7,2.2,14.7,5c0,1.1-1,2.1-2.7,2.9c0,0,0,0-0.1,0c-0.3,0.2-0.7,0.3-1.1,0.5c-0.1,0-0.1,0-0.2,0.1
			c-0.8,0.3-1.8,0.6-2.8,0.8c-0.1,0-0.2,0-0.3,0.1c-0.5,0.1-0.9,0.2-1.4,0.2c-0.1,0-0.2,0-0.3,0c-0.6,0.1-1.1,0.1-1.7,0.2
			c-0.1,0-0.2,0-0.4,0c-0.5,0-1,0.1-1.4,0.1c-0.2,0-0.3,0-0.5,0c-0.6,0-1.2,0-1.9,0s-1.3,0-1.9,0c-0.2,0-0.3,0-0.5,0
			C585.8,349.6,585.3,349.6,584.8,349.5z"/>
	</g>
	<g>
		<path class="st5" d="M575.6,347c2.5,1.6,7.4,2.7,13.1,2.7c5.7,0,10.6-1.1,13.1-2.7c1.1-0.7,1.7-1.5,1.7-2.3v4.6
			c0,2.8-6.6,5-14.7,5s-14.7-2.2-14.7-5v-4.6C573.9,345.6,574.5,346.3,575.6,347z"/>
	</g>
	<g>
		<path class="st2" d="M584.8,342.6c-0.1,0-0.2,0-0.4,0c-0.6-0.1-1.2-0.1-1.7-0.2c-0.1,0-0.2,0-0.3,0c-0.5-0.1-0.9-0.2-1.4-0.2
			c-0.1,0-0.2,0-0.3-0.1c-1-0.2-2-0.5-2.8-0.8c-0.1,0-0.1,0-0.2-0.1c-0.4-0.2-0.8-0.3-1.1-0.5c0,0,0,0,0,0c-1.7-0.8-2.7-1.8-2.7-2.9
			c0-2.8,6.6-5,14.7-5s14.7,2.2,14.7,5c0,1.1-1,2.1-2.7,2.9c0,0,0,0-0.1,0c-0.3,0.2-0.7,0.3-1.1,0.5c-0.1,0-0.1,0-0.2,0.1
			c-0.8,0.3-1.8,0.6-2.8,0.8c-0.1,0-0.2,0-0.3,0.1c-0.5,0.1-0.9,0.2-1.4,0.2c-0.1,0-0.2,0-0.3,0c-0.6,0.1-1.1,0.2-1.7,0.2
			c-0.1,0-0.2,0-0.4,0c-0.5,0-1,0.1-1.4,0.1c-0.2,0-0.3,0-0.5,0c-0.6,0-1.2,0-1.9,0s-1.3,0-1.9,0c-0.2,0-0.3,0-0.5,0
			C585.8,342.7,585.3,342.7,584.8,342.6z"/>
	</g>
	<g>
		<path class="st5" d="M575.6,340.1c2.5,1.6,7.4,2.7,13.1,2.7c5.7,0,10.6-1.1,13.1-2.7c1.1-0.7,1.7-1.5,1.7-2.3v4.6
			c0,2.8-6.6,5-14.7,5s-14.7-2.2-14.7-5v-4.6C573.9,338.7,574.5,339.4,575.6,340.1z"/>
	</g>
	<g>
		<path class="st5" d="M588.7,334.8c-0.6,0-1.2,0-1.8,0l-0.5,0c-0.5,0-1-0.1-1.4-0.1l-0.4,0c-0.6-0.1-1.1-0.1-1.6-0.2l-0.2,0
			c-0.6-0.1-1-0.2-1.4-0.3L581,334c-1-0.2-1.9-0.5-2.7-0.8l-0.1-0.1c-0.4-0.1-0.7-0.3-1-0.4c-1.5-0.7-2.1-1.4-2.1-1.8
			c0-1.5,5.4-3.8,13.6-3.8c8.2,0,13.6,2.3,13.6,3.8c0,0.4-0.5,1.1-2,1.8c-0.4,0.2-0.7,0.3-1.1,0.4c0,0-0.1,0.1-0.2,0.1
			c-0.8,0.3-1.7,0.5-2.7,0.8l-0.3,0.1c-0.4,0.1-0.9,0.2-1.3,0.2l-0.2,0c-0.6,0.1-1.1,0.1-1.7,0.2l-0.4,0c-0.5,0-0.9,0.1-1.4,0.1
			l-0.5,0C589.9,334.7,589.3,334.8,588.7,334.8z"/>
	</g>
	<g>
		<path class="st2" d="M588.7,326c-8.1,0-14.7,2.2-14.7,5c0,1.1,1,2.1,2.7,2.9c0,0,0,0,0,0c0.3,0.2,0.7,0.3,1.1,0.5
			c0.1,0,0.1,0,0.2,0.1c0.8,0.3,1.8,0.6,2.8,0.8c0.1,0,0.2,0,0.3,0.1c0.4,0.1,0.9,0.2,1.4,0.2c0.1,0,0.2,0,0.3,0
			c0.6,0.1,1.1,0.1,1.7,0.2c0.1,0,0.2,0,0.4,0c0.5,0,1,0.1,1.4,0.1c0.2,0,0.3,0,0.5,0c0.6,0,1.2,0,1.9,0s1.3,0,1.9,0
			c0.2,0,0.3,0,0.5,0c0.5,0,1-0.1,1.4-0.1c0.1,0,0.2,0,0.4,0c0.6-0.1,1.2-0.1,1.7-0.2c0.1,0,0.2,0,0.3,0c0.5-0.1,0.9-0.2,1.4-0.2
			c0.1,0,0.2,0,0.3-0.1c1-0.2,2-0.5,2.8-0.8c0.1,0,0.1,0,0.2-0.1c0.4-0.1,0.8-0.3,1.1-0.5c0,0,0,0,0.1,0c1.7-0.8,2.7-1.8,2.7-2.9
			C603.4,328.2,596.8,326,588.7,326z M599.8,331.7C599.7,331.7,599.7,331.7,599.8,331.7c-0.3,0.2-0.7,0.3-1,0.4l-0.1,0l-0.1,0
			c-0.7,0.3-1.6,0.5-2.5,0.7l-0.2,0l-0.1,0c-0.4,0.1-0.8,0.2-1.3,0.2l-0.1,0l-0.1,0c-0.5,0.1-1.1,0.1-1.6,0.2l-0.2,0l-0.2,0
			c-0.4,0-0.9,0.1-1.4,0.1l-0.4,0c-0.7,0-1.2,0-1.8,0c-0.5,0-1.1,0-1.8,0l-0.5,0c-0.5,0-0.9-0.1-1.4-0.1l-0.2,0l-0.2,0
			c-0.5-0.1-1.1-0.1-1.6-0.2l-0.1,0l-0.1,0c-0.4-0.1-0.9-0.1-1.3-0.2l-0.1,0l-0.2,0c-0.9-0.2-1.8-0.4-2.5-0.7l-0.1,0l-0.1,0
			c-0.4-0.1-0.7-0.3-1-0.4c-0.7-0.3-1.1-0.6-1.3-0.8c0.9-0.9,5.1-2.7,12.3-2.7c7.2,0,11.4,1.7,12.3,2.7
			C600.8,331.1,600.4,331.4,599.8,331.7z"/>
	</g>
	<g>
		<path class="st5" d="M575.6,333.2c2.5,1.6,7.4,2.7,13.1,2.7c5.7,0,10.6-1.1,13.1-2.7c1.1-0.7,1.7-1.5,1.7-2.3v4.6
			c0,2.8-6.6,5-14.7,5s-14.7-2.2-14.7-5v-4.6C573.9,331.8,574.5,332.5,575.6,333.2z"/>
	</g>
	<g>
		<polygon class="st1" points="548.8,308.1 535,322 541.8,322 541.8,370.3 555.9,370.3 555.9,322 562.7,322 		"/>
	</g>
	<g>
		<path class="st5" d="M544.6,370.2c-0.1,0-0.2,0-0.4,0c-0.6-0.1-1.2-0.1-1.7-0.2c-0.1,0-0.2,0-0.3,0c-0.5-0.1-0.9-0.2-1.4-0.2
			c-0.1,0-0.2,0-0.3-0.1c-1-0.2-2-0.5-2.8-0.8c-0.1,0-0.1,0-0.2-0.1c-0.4-0.1-0.8-0.3-1.1-0.5c0,0,0,0-0.1,0
			c-1.7-0.8-2.7-1.8-2.7-2.9c0-2.8,6.6-5,14.7-5s14.7,2.2,14.7,5c0,1.1-1,2.1-2.7,2.9c0,0,0,0,0,0c-0.3,0.2-0.7,0.3-1.1,0.5
			c-0.1,0-0.1,0-0.2,0.1c-0.8,0.3-1.8,0.6-2.8,0.8c-0.1,0-0.2,0-0.3,0.1c-0.4,0.1-0.9,0.2-1.4,0.2c-0.1,0-0.2,0-0.3,0
			c-0.6,0.1-1.1,0.1-1.7,0.2c-0.1,0-0.2,0-0.4,0c-0.5,0-1,0.1-1.5,0.1c-0.2,0-0.3,0-0.5,0c-0.6,0-1.2,0-1.9,0s-1.3,0-1.9,0
			c-0.2,0-0.3,0-0.5,0C545.6,370.3,545.1,370.2,544.6,370.2z"/>
	</g>
	<g>
		<path class="st5" d="M544.6,377.1c-0.1,0-0.2,0-0.4,0c-0.6-0.1-1.2-0.1-1.7-0.2c-0.1,0-0.2,0-0.3,0c-0.5-0.1-0.9-0.2-1.4-0.2
			c-0.1,0-0.2,0-0.3-0.1c-1-0.2-2-0.5-2.8-0.8c-0.1,0-0.1,0-0.2-0.1c-0.4-0.1-0.8-0.3-1.1-0.5c0,0,0,0-0.1,0
			c-1.7-0.8-2.7-1.8-2.7-2.9c0-2.8,6.6-5,14.7-5s14.7,2.2,14.7,5c0,1.1-1,2.1-2.7,2.9c0,0,0,0,0,0c-0.3,0.2-0.7,0.3-1.1,0.5
			c-0.1,0-0.1,0-0.2,0.1c-0.8,0.3-1.8,0.6-2.8,0.8c-0.1,0-0.2,0-0.3,0.1c-0.4,0.1-0.9,0.2-1.4,0.2c-0.1,0-0.2,0-0.3,0
			c-0.6,0.1-1.1,0.2-1.7,0.2c-0.1,0-0.2,0-0.4,0c-0.5,0-1,0.1-1.5,0.1c-0.2,0-0.3,0-0.5,0c-0.6,0-1.2,0-1.9,0s-1.3,0-1.9,0
			c-0.2,0-0.3,0-0.5,0C545.6,377.2,545.1,377.1,544.6,377.1z"/>
	</g>
	<g>
		<path class="st2" d="M535.4,374.6c2.5,1.6,7.4,2.7,13.1,2.7c5.7,0,10.6-1.1,13.1-2.7c1.1-0.7,1.7-1.5,1.7-2.3v4.6
			c0,2.8-6.6,5-14.7,5s-14.7-2.2-14.7-5v-4.6C533.7,373.1,534.3,373.9,535.4,374.6z"/>
	</g>
	<g>
		<path class="st2" d="M535.4,367.7c2.5,1.6,7.4,2.7,13.1,2.7c5.7,0,10.6-1.1,13.1-2.7c1.1-0.7,1.7-1.5,1.7-2.3v4.6
			c0,2.8-6.6,5-14.7,5s-14.7-2.2-14.7-5v-4.6C533.7,366.2,534.3,367,535.4,367.7z"/>
	</g>
	<g>
		<path class="st5" d="M544.6,363.3c-0.1,0-0.2,0-0.4,0c-0.6-0.1-1.2-0.1-1.7-0.2c-0.1,0-0.2,0-0.3,0c-0.5-0.1-0.9-0.2-1.4-0.2
			c-0.1,0-0.2,0-0.3-0.1c-1-0.2-2-0.5-2.8-0.8c-0.1,0-0.1,0-0.2-0.1c-0.4-0.1-0.8-0.3-1.1-0.5c0,0,0,0-0.1,0
			c-1.7-0.8-2.7-1.8-2.7-2.9c0-2.7,6.6-5,14.7-5s14.7,2.2,14.7,5c0,1.1-1,2.1-2.7,2.9c0,0,0,0,0,0c-0.3,0.2-0.7,0.3-1.1,0.5
			c-0.1,0-0.1,0-0.2,0.1c-0.8,0.3-1.8,0.6-2.8,0.8c-0.1,0-0.2,0-0.3,0.1c-0.4,0.1-0.9,0.2-1.4,0.2c-0.1,0-0.2,0-0.3,0
			c-0.6,0.1-1.1,0.2-1.7,0.2c-0.1,0-0.2,0-0.4,0c-0.5,0-1,0.1-1.5,0.1c-0.2,0-0.3,0-0.5,0c-0.6,0-1.2,0-1.9,0s-1.3,0-1.9,0
			c-0.2,0-0.3,0-0.5,0C545.6,363.4,545.1,363.4,544.6,363.3z"/>
	</g>
	<g>
		<path class="st2" d="M535.4,360.8c2.5,1.6,7.4,2.7,13.1,2.7c5.7,0,10.6-1.1,13.1-2.7c1.1-0.7,1.7-1.5,1.7-2.3v4.6
			c0,2.7-6.6,5-14.7,5s-14.7-2.2-14.7-5v-4.6C533.7,359.3,534.3,360.1,535.4,360.8z"/>
	</g>
	<g>
		<path class="st5" d="M544.6,356.4c-0.1,0-0.2,0-0.4,0c-0.6-0.1-1.2-0.1-1.7-0.2c-0.1,0-0.2,0-0.3,0c-0.5-0.1-0.9-0.2-1.4-0.2
			c-0.1,0-0.2,0-0.3-0.1c-1-0.2-2-0.5-2.8-0.8c-0.1,0-0.1,0-0.2-0.1c-0.4-0.1-0.8-0.3-1.1-0.5c0,0,0,0-0.1,0
			c-1.7-0.8-2.7-1.8-2.7-2.9c0-2.8,6.6-5,14.7-5s14.7,2.2,14.7,5c0,1.1-1,2.1-2.7,2.9c0,0,0,0,0,0c-0.3,0.2-0.7,0.3-1.1,0.5
			c-0.1,0-0.1,0-0.2,0.1c-0.8,0.3-1.8,0.6-2.8,0.8c-0.1,0-0.2,0-0.3,0.1c-0.4,0.1-0.9,0.2-1.4,0.2c-0.1,0-0.2,0-0.3,0
			c-0.6,0.1-1.1,0.2-1.7,0.2c-0.1,0-0.2,0-0.4,0c-0.5,0-1,0.1-1.5,0.1c-0.2,0-0.3,0-0.5,0c-0.6,0-1.2,0-1.9,0s-1.3,0-1.9,0
			c-0.2,0-0.3,0-0.5,0C545.6,356.5,545.1,356.5,544.6,356.4z"/>
	</g>
	<g>
		<path class="st2" d="M535.4,353.9c2.5,1.6,7.4,2.7,13.1,2.7c5.7,0,10.6-1.1,13.1-2.7c1.1-0.7,1.7-1.5,1.7-2.3v4.6
			c0,2.8-6.6,5-14.7,5s-14.7-2.2-14.7-5v-4.6C533.7,352.4,534.3,353.2,535.4,353.9z"/>
	</g>
	<g>
		<path class="st2" d="M548.4,348.6c-0.6,0-1.2,0-1.8,0l-0.5,0c-0.5,0-1-0.1-1.4-0.1l-0.4,0c-0.6-0.1-1.1-0.1-1.6-0.2l-0.2,0
			c-0.6-0.1-1-0.2-1.4-0.3l-0.3-0.1c-1-0.2-1.9-0.5-2.7-0.8l-0.1,0c-0.4-0.1-0.7-0.3-1-0.4c-1.6-0.7-2.1-1.4-2.1-1.9
			c0-1.5,5.4-3.8,13.6-3.8c8.2,0,13.6,2.3,13.6,3.8c0,0.4-0.5,1.1-2,1.8c-0.4,0.2-0.7,0.3-1.1,0.4c0,0-0.1,0.1-0.1,0.1
			c-0.8,0.3-1.7,0.5-2.7,0.8l-0.3,0.1c-0.4,0.1-0.9,0.2-1.3,0.2l-0.2,0c-0.6,0.1-1.1,0.1-1.7,0.2l-0.4,0c-0.5,0-0.9,0.1-1.4,0.1
			l-0.5,0C549.7,348.5,549.1,348.6,548.4,348.6z"/>
	</g>
	<g>
		<path class="st5" d="M548.4,339.7c-8.1,0-14.7,2.2-14.7,5c0,1.1,1,2.1,2.7,2.9c0,0,0,0,0.1,0c0.3,0.2,0.7,0.3,1.1,0.5
			c0.1,0,0.1,0,0.2,0.1c0.8,0.3,1.8,0.6,2.8,0.8c0.1,0,0.2,0,0.3,0.1c0.5,0.1,0.9,0.2,1.4,0.2c0.1,0,0.2,0,0.3,0
			c0.6,0.1,1.1,0.1,1.7,0.2c0.1,0,0.2,0,0.4,0c0.5,0,1,0.1,1.4,0.1c0.2,0,0.3,0,0.5,0c0.6,0,1.2,0,1.9,0s1.3,0,1.9,0
			c0.2,0,0.3,0,0.5,0c0.5,0,1-0.1,1.5-0.1c0.1,0,0.2,0,0.4,0c0.6-0.1,1.2-0.1,1.7-0.2c0.1,0,0.2,0,0.3,0c0.5-0.1,0.9-0.2,1.4-0.2
			c0.1,0,0.2,0,0.3-0.1c1-0.2,2-0.5,2.8-0.8c0.1,0,0.1,0,0.2-0.1c0.4-0.1,0.8-0.3,1.1-0.5c0,0,0,0,0,0c1.7-0.8,2.7-1.8,2.7-2.9
			C563.2,342,556.6,339.7,548.4,339.7z M559.5,345.5C559.5,345.5,559.5,345.5,559.5,345.5c-0.4,0.2-0.7,0.3-1,0.4l-0.1,0l-0.1,0
			c-0.8,0.3-1.6,0.5-2.6,0.7l-0.3,0.1c-0.4,0.1-0.8,0.2-1.3,0.2l-0.1,0l-0.1,0c-0.5,0.1-1.1,0.1-1.6,0.2l-0.2,0l-0.2,0
			c-0.5,0-0.9,0.1-1.4,0.1l-0.5,0c-0.7,0-1.2,0-1.8,0c-0.5,0-1.1,0-1.8,0l-0.5,0c-0.5,0-0.9-0.1-1.4-0.1l-0.2,0l-0.2,0
			c-0.5-0.1-1.1-0.1-1.6-0.2l-0.1,0l-0.1,0c-0.4-0.1-0.9-0.1-1.3-0.2l-0.1,0l-0.2,0c-0.9-0.2-1.8-0.4-2.5-0.7l-0.1,0l-0.1,0
			c-0.4-0.1-0.7-0.3-1-0.4c-0.7-0.3-1.1-0.6-1.3-0.8c0.9-0.9,5.1-2.7,12.3-2.7c7.2,0,11.4,1.7,12.3,2.7
			C560.6,344.9,560.2,345.2,559.5,345.5z"/>
	</g>
	<g>
		<path class="st2" d="M535.4,347c2.5,1.6,7.4,2.7,13.1,2.7c5.7,0,10.6-1.1,13.1-2.7c1.1-0.7,1.7-1.5,1.7-2.3v4.6
			c0,2.8-6.6,5-14.7,5s-14.7-2.2-14.7-5v-4.6C533.7,345.6,534.3,346.3,535.4,347z"/>
	</g>
	<g>
		
			<rect x="455.3" y="378.4" transform="matrix(-1 -1.224647e-16 1.224647e-16 -1 978.0681 759.1462)" class="st3" width="67.5" height="2.3"/>
	</g>
	<g>
		
			<rect x="455.3" y="376.1" transform="matrix(-1 -1.224647e-16 1.224647e-16 -1 978.0681 754.5509)" class="st3" width="67.5" height="2.3"/>
	</g>
	<g>
		
			<rect x="455.3" y="373.8" transform="matrix(-1 -1.224647e-16 1.224647e-16 -1 978.0681 749.955)" class="st3" width="67.5" height="2.3"/>
	</g>
	<g>
		
			<rect x="455.3" y="371.5" transform="matrix(-1 -1.224647e-16 1.224647e-16 -1 978.0681 745.3591)" class="st3" width="67.5" height="2.3"/>
	</g>
	<g>
		
			<rect x="455.3" y="369.2" transform="matrix(-1 -1.224647e-16 1.224647e-16 -1 978.0681 740.7632)" class="st3" width="67.5" height="2.3"/>
	</g>
	<g>
		
			<rect x="455.3" y="366.9" transform="matrix(-1 -1.224647e-16 1.224647e-16 -1 978.0681 736.1673)" class="st3" width="67.5" height="2.3"/>
	</g>
	<g>
		
			<rect x="455.3" y="364.6" transform="matrix(-1 -1.224647e-16 1.224647e-16 -1 978.0681 731.572)" class="st3" width="67.5" height="2.3"/>
	</g>
	<g>
		<polygon class="st3" points="522.8,364.6 455.3,364.6 462.2,347.5 489,347.5 515.9,347.5 		"/>
	</g>
	<g>
		<path class="st1" d="M460.9,362.3l4.6-12.4c1.5,0,10.2,0,23.6,0c13.3,0,22.1,0,23.6,0l4.6,12.4
			C514.2,362.3,463.9,362.3,460.9,362.3z"/>
	</g>
	<g>
		<path class="st3" d="M502.4,356.1c0,1.3,2.1,2.3,4.7,2.3c2.6,0,4.7-1,4.7-2.3c0-1.3-2.1-2.3-4.7-2.3
			C504.5,353.8,502.4,354.8,502.4,356.1z"/>
	</g>
	<g>
		<path class="st3" d="M466.2,356.1c0,1.3,2.1,2.3,4.7,2.3c2.6,0,4.7-1,4.7-2.3c0-1.3-2.1-2.3-4.7-2.3
			C468.3,353.8,466.2,354.8,466.2,356.1z"/>
	</g>
	<g>
		<path class="st3" d="M496.3,356.1c0,2.6-3.3,4.8-7.3,4.8c-4,0-7.3-2.1-7.3-4.8c0-2.6,3.3-4.8,7.3-4.8
			C493.1,351.3,496.3,353.5,496.3,356.1z"/>
	</g>
	<g>
		<path class="st1" d="M528.3,283.6c-0.4-0.7-0.6-1.5-0.6-2.3c0-2.6,2.1-4.7,4.7-4.7c1.2,0,2.3,0.5,3.1,1.2c0.5-4.1,4-7.3,8.3-7.3
			c4.6,0,8.4,3.8,8.4,8.4c0,0.5-0.1,1-0.1,1.5c0.5-0.1,1-0.2,1.5-0.2c3.9,0,7.1,3.2,7.1,7.1c0,3.9-3.2,7.1-7.1,7.1
			c-2.5,0-22.4,0-24.2,0c-3,0-5.5-2.5-5.5-5.5C523.8,286.3,525.8,284.1,528.3,283.6z"/>
	</g>
	<g>
		<path class="st2" d="M533.3,287.8c-0.4-0.7-0.7-1.6-0.7-2.5c0-2.8,2.3-5.1,5.1-5.1c1.3,0,2.5,0.5,3.4,1.3c0.6-4.5,4.4-8,9.1-8
			c5,0,9.1,4.1,9.1,9.1c0,0.6-0.1,1.1-0.2,1.7c0.5-0.1,1-0.2,1.6-0.2c4.3,0,7.7,3.5,7.7,7.7c0,4.3-3.5,7.7-7.7,7.7
			c-2.7,0-24.4,0-26.3,0c-3.3,0-6-2.7-6-6C528.4,290.7,530.5,288.3,533.3,287.8z"/>
	</g>
	<g>
		<path class="st3" d="M591.4,271.8l7.1-12.4l-14.3,0.9l2.2,3.6l-35.2,22.1c-0.7-0.4-1.5-0.7-2.4-0.7c-1.4,0-2.7,0.7-3.5,1.7
			l-33.5-4.4c-0.8-0.8-1.9-1.2-3-1.2c-1.7,0-3.1,0.9-3.8,2.3l-33.3,12.8c-0.7-0.5-1.5-0.7-2.4-0.7c-2.4,0-4.4,2-4.4,4.4
			c0,2.4,2,4.4,4.4,4.4c1.9,0,3.5-1.2,4.1-3l32.6-12.5c0.8,0.7,1.8,1.1,2.9,1.1c1.4,0,2.7-0.7,3.5-1.8l33.4,4.4
			c0.8,0.8,1.9,1.3,3.1,1.3c2.1,0,3.9-1.5,4.3-3.6L589,268L591.4,271.8z"/>
	</g>
	<g>
		<path class="st0" d="M497.5,271h-32.7c-0.6,0-1.2-0.5-1.2-1.2c0-0.6,0.5-1.1,1.2-1.1h32.7c0.6,0,1.2,0.5,1.2,1.1
			C498.6,270.5,498.1,271,497.5,271z"/>
	</g>
	<g>
		<path class="st0" d="M497.5,279h-32.7c-0.6,0-1.2-0.5-1.2-1.2c0-0.6,0.5-1.2,1.2-1.2h32.7c0.6,0,1.2,0.5,1.2,1.2
			C498.6,278.5,498.1,279,497.5,279z"/>
	</g>
	<g>
		<path class="st0" d="M477.6,287h-12.8c-0.6,0-1.2-0.5-1.2-1.2c0-0.6,0.5-1.2,1.2-1.2h12.8c0.6,0,1.1,0.5,1.1,1.2
			C478.7,286.5,478.2,287,477.6,287z"/>
	</g>
</g>
<g>
	<path class="st7" d="M134.1,284.7l-29-16.8c-0.2,0.8-0.6,1.5-1,2.2l28.7,16.6C133.2,286,133.6,285.4,134.1,284.7z"/>
	<path class="st7" d="M83.9,270.2c-0.4-0.7-0.7-1.4-1-2.2l-29,16.8c0.5,0.6,0.9,1.3,1.3,2L83.9,270.2z"/>
	<path class="st7" d="M43.2,303.4v33c0.5-0.1,1-0.1,1.5-0.1c0.3,0,0.6,0,0.9,0v-32.9c-0.3,0-0.6,0-0.9,0
		C44.2,303.5,43.7,303.5,43.2,303.4z"/>
	<path class="st7" d="M53.6,355.4l29.6,17.1c0.3-0.8,0.7-1.5,1.1-2.1L55,353.4C54.6,354.2,54.1,354.8,53.6,355.4z"/>
	<path class="st7" d="M142.3,303.5v32.9c0.3,0,0.6,0,0.9,0c0.5,0,1,0,1.5,0.1v-33c-0.5,0.1-1,0.1-1.5,0.1
		C142.9,303.5,142.6,303.5,142.3,303.5z"/>
	<path class="st7" d="M103.7,370.4c0.4,0.7,0.8,1.4,1.1,2.1l29.6-17.1c-0.5-0.6-1-1.3-1.4-2L103.7,370.4z"/>
	<path class="st2" d="M132.8,294.9L132.8,294.9l-9,5.2l-0.5-0.8c-0.4-0.6-0.9-0.6-1.2,0l-1.9,3.6c-0.3,0.6,0,1.2,0.7,1.2l4.1,0.2
		c0.7,0,1-0.5,0.6-1.1l-0.5-0.8l9-5.2l1.4-0.8c1.5,2.6,4.4,4.4,7.7,4.4c4.9,0,8.9-4,8.9-8.9c0-4.9-4-8.9-8.9-8.9
		c-4.9,0-8.9,4-8.9,8.9c0,0.7,0.1,1.3,0.2,2L132.8,294.9z M143.5,284.3c1,0,1.7,0.8,1.7,1.7c0,1-0.8,1.7-1.7,1.7
		c-1,0-1.7-0.8-1.7-1.7C141.8,285.1,142.6,284.3,143.5,284.3z M141.1,288.8c0-0.5,0.4-0.8,0.8-0.8h1.1c0,0,0,0,0,0.1l0.4,0.7
		c0,0.1,0.1,0.1,0.1,0l0.4-0.7c0,0,0-0.1,0-0.1h1.2c0.5,0,0.8,0.4,0.8,0.8v4.1c0,0.4-0.4,0.8-0.8,0.8v0.1v0.1v4
		c0,0.5-0.4,0.8-0.8,0.8c-0.4,0-0.8-0.4-0.8-0.8c0,0.5-0.4,0.8-0.8,0.8c-0.5,0-0.8-0.4-0.8-0.8v-4v-0.1v-0.1c-0.5,0-0.8-0.4-0.8-0.8
		V288.8z"/>
	<path class="st2" d="M143.2,339.1c-2.8,0-5.2,1.3-6.9,3.3l-1.3-0.7l-9-5.2l0.5-0.8c0.4-0.6,0.1-1.1-0.6-1.1l-4.1,0.2
		c-0.7,0-1,0.6-0.7,1.2l1.9,3.6c0.3,0.6,0.9,0.6,1.2,0l0.5-0.8l9,5.2l0,0l1.3,0.7c-0.4,1-0.7,2.2-0.7,3.3c0,4.9,4,8.9,8.9,8.9
		c4.9,0,8.9-4,8.9-8.9C152.1,343,148.1,339.1,143.2,339.1z M143.2,340.7c1,0,1.7,0.8,1.7,1.7c0,1-0.8,1.7-1.7,1.7
		c-1,0-1.7-0.8-1.7-1.7C141.5,341.5,142.3,340.7,143.2,340.7z M145.7,349.3c0,0.4-0.4,0.8-0.8,0.8v0.1v0.1v4c0,0.5-0.4,0.8-0.8,0.8
		c-0.5,0-0.8-0.4-0.8-0.8c0,0.5-0.4,0.8-0.8,0.8c-0.5,0-0.8-0.4-0.8-0.8v-4v-0.1v-0.1c-0.5,0-0.8-0.4-0.8-0.8v-4.1
		c0-0.4,0.4-0.8,0.8-0.8h1.1c0,0,0,0,0,0.1l0.4,0.7c0,0.1,0.1,0.1,0.1,0l0.4-0.7c0,0,0-0.1,0-0.1h1.2c0.5,0,0.8,0.4,0.8,0.8V349.3z"
		/>
	<path class="st2" d="M95.3,368.1v-1.6h0v-10.4h0.9c0.7,0,1-0.5,0.6-1.1l-2.2-3.5c-0.4-0.6-1-0.6-1.4,0l-2.2,3.5
		c-0.4,0.6-0.1,1.1,0.6,1.1h1v10.4v1.6c-4.3,0.6-7.6,4.3-7.6,8.8c0,4.9,4,8.9,8.9,8.9s8.9-4,8.9-8.9
		C102.9,372.4,99.6,368.7,95.3,368.1z M92.8,370.1h2.5c0.3,0.3,0.5,0.7,0.5,1.2c0,1-0.8,1.7-1.7,1.7c-1,0-1.7-0.8-1.7-1.7
		C92.3,370.9,92.4,370.4,92.8,370.1z M96.4,378.2c0,0.4-0.4,0.8-0.8,0.8v0.1v0.1v4c0,0.5-0.4,0.8-0.8,0.8c-0.5,0-0.8-0.4-0.8-0.8
		c0,0.5-0.4,0.8-0.8,0.8c-0.5,0-0.8-0.4-0.8-0.8v-4v-0.1V379c-0.5,0-0.8-0.4-0.8-0.8v-4.1c0-0.4,0.4-0.8,0.8-0.8h1.1c0,0,0,0,0,0.1
		l0.4,0.7c0,0.1,0.1,0.1,0.1,0l0.4-0.7c0,0,0-0.1,0-0.1h1.2c0.5,0,0.8,0.4,0.8,0.8V378.2z"/>
	<path class="st2" d="M53.1,345l2-1.1l0,0l9-5.2l0.5,0.8c0.4,0.6,0.9,0.6,1.2,0l1.9-3.6c0.3-0.6,0-1.2-0.7-1.2l-4.1-0.2
		c-0.7,0-1,0.5-0.6,1.1l0.5,0.8l-9,5.2l-1.9,1.1c-1.6-2.2-4.2-3.6-7.1-3.6c-4.9,0-8.9,4-8.9,8.9c0,4.9,4,8.9,8.9,8.9
		c4.9,0,8.9-4,8.9-8.9C53.6,346.9,53.4,345.9,53.1,345z M44.4,340.7c1,0,1.7,0.8,1.7,1.7c0,1-0.8,1.7-1.7,1.7c-1,0-1.7-0.8-1.7-1.7
		C42.7,341.5,43.5,340.7,44.4,340.7z M46.9,349.3c0,0.4-0.4,0.8-0.8,0.8v0.1v0.1v4c0,0.5-0.4,0.8-0.8,0.8c-0.5,0-0.8-0.4-0.8-0.8
		c0,0.5-0.4,0.8-0.8,0.8c-0.5,0-0.8-0.4-0.8-0.8v-4v-0.1v-0.1c-0.5,0-0.8-0.4-0.8-0.8v-4.1c0-0.4,0.4-0.8,0.8-0.8h1.1c0,0,0,0,0,0.1
		l0.4,0.7c0,0.1,0.1,0.1,0.1,0l0.4-0.7c0,0,0-0.1,0-0.1h1.2c0.5,0,0.8,0.4,0.8,0.8V349.3z"/>
	<path class="st2" d="M44.7,300.8c3.3,0,6.1-1.8,7.6-4.4l1.4,0.8l9,5.2l-0.5,0.8c-0.4,0.6-0.1,1.1,0.6,1.1l4.1-0.2
		c0.7,0,1-0.6,0.7-1.2l-1.9-3.6c-0.3-0.6-0.9-0.6-1.2,0l-0.5,0.8l-9-5.2l0,0l-1.7-1c0.2-0.7,0.2-1.3,0.2-2c0-4.9-4-8.9-8.9-8.9
		c-4.9,0-8.9,4-8.9,8.9C35.9,296.8,39.8,300.8,44.7,300.8z M44.4,284.7c1,0,1.7,0.8,1.7,1.7c0,1-0.8,1.7-1.7,1.7
		c-1,0-1.7-0.8-1.7-1.7C42.7,285.5,43.5,284.7,44.4,284.7z M42,289.2c0-0.4,0.4-0.8,0.8-0.8h1.1c0,0,0,0,0,0.1l0.4,0.7
		c0,0.1,0.1,0.1,0.1,0l0.4-0.7c0,0,0-0.1,0-0.1h1.2c0.5,0,0.8,0.4,0.8,0.8v4.1c0,0.5-0.4,0.8-0.8,0.8v0.1v0.1v4
		c0,0.5-0.4,0.8-0.8,0.8c-0.5,0-0.8-0.4-0.8-0.8c0,0.5-0.4,0.8-0.8,0.8c-0.5,0-0.8-0.4-0.8-0.8v-4v-0.1v-0.1c-0.5,0-0.8-0.4-0.8-0.8
		V289.2z"/>
	<path class="st2" d="M92.7,273.2v0.6v10.4h-1c-0.7,0-1,0.5-0.6,1.1l2.2,3.5c0.4,0.6,1,0.6,1.4,0l2.2-3.5c0.4-0.6,0.1-1.1-0.6-1.1
		h-0.9v-10.4h0v-0.6c4.3-0.6,7.5-4.3,7.5-8.8c0-4.9-4-8.9-8.9-8.9s-8.9,4-8.9,8.9C85.1,268.9,88.4,272.6,92.7,273.2z M94,257.2
		c1,0,1.7,0.8,1.7,1.7c0,1-0.8,1.7-1.7,1.7c-1,0-1.7-0.8-1.7-1.7C92.3,258,93,257.2,94,257.2z M91.5,261.8c0-0.5,0.4-0.8,0.8-0.8
		h1.1c0,0,0,0,0,0.1l0.4,0.7c0,0.1,0.1,0.1,0.1,0l0.4-0.7c0,0,0-0.1,0-0.1h1.2c0.5,0,0.8,0.4,0.8,0.8v4.1c0,0.5-0.4,0.8-0.8,0.8v0.1
		v0.1v4c0,0.5-0.4,0.8-0.8,0.8c-0.5,0-0.8-0.4-0.8-0.8c0,0.5-0.4,0.8-0.8,0.8c-0.5,0-0.8-0.4-0.8-0.8v-4v-0.1v-0.1
		c-0.5,0-0.8-0.4-0.8-0.8V261.8z"/>
	<path class="st3" d="M94,291.5c-15.8,0-28.6,12.8-28.6,28.6c0,15.8,12.8,28.6,28.6,28.6c15.8,0,28.6-12.8,28.6-28.6
		C122.6,304.4,109.8,291.5,94,291.5z M94,299.9c4.5,0,8.1,3.6,8.1,8.1c0,4.5-3.6,8.1-8.1,8.1c-4.5,0-8.1-3.6-8.1-8.1
		C85.9,303.5,89.5,299.9,94,299.9z M101.8,326.7c-1.1,0.3-2.3-0.1-2.7-1l-0.5-1.2v5.7c0,0,0,0,0,0h0l-2,8.5
		c-0.1,0.6-0.7,1.2-1.4,1.2c-0.5,0-0.9,0-1.1,0c0,0-0.1,0-0.1,0c-0.1,0-0.1,0-0.1,0c-0.2,0-0.6,0-1.1,0c-0.7,0-1.3-0.5-1.4-1.2
		l-2-8.5h0c0,0,0,0,0,0v-5.7l-0.5,1.2c-0.4,0.9-1.6,1.4-2.7,1c-1.1-0.3-1.7-1.3-1.3-2.2l2.8-6.4c0.3-0.7,1.2-1.2,2.1-1.1
		c0,0,0.1,0,0.1,0H94h4.1c0,0,0.1,0,0.1,0c0.9,0,1.8,0.4,2.1,1.1l2.8,6.4C103.5,325.3,102.9,326.4,101.8,326.7z"/>
</g>
</svg>
