<?xml version="1.0" encoding="UTF-8"?>
<svg id="_圖層_2" data-name="圖層 2" xmlns="http://www.w3.org/2000/svg" viewBox="0 0 952.41 654.36">
  <defs>
    <style>
      .cls-1 {
        stroke: #000;
        stroke-miterlimit: 10;
      }

      .cls-1, .cls-2 {
        fill: none;
      }

      .cls-3 {
        fill: #b31c31;
      }

      .cls-2 {
        stroke: #005598;
        stroke-linecap: round;
        stroke-linejoin: round;
        stroke-width: 4px;
      }

      .cls-4 {
        fill: #231815;
      }
    </style>
  </defs>
  <g>
    <line class="cls-1" x1="75.2" y1="607.9" x2="949.78" y2="607.9"/>
    <line class="cls-1" x1="75.81" y1="607.9" x2="75.81" y2="620.7"/>
    <line class="cls-1" x1="240.12" y1="607.9" x2="240.12" y2="620.7"/>
    <line class="cls-1" x1="401.66" y1="607.9" x2="401.66" y2="620.7"/>
    <line class="cls-1" x1="563.48" y1="607.9" x2="563.48" y2="620.7"/>
    <line class="cls-1" x1="727.96" y1="607.9" x2="727.96" y2="620.7"/>
    <line class="cls-1" x1="888.89" y1="607.9" x2="888.89" y2="620.7"/>
  </g>
  <g>
    <path class="cls-4" d="M16.24,19.3h4.12V6.67h-3.28v-1.42c1.64-.26,2.83-.67,3.84-1.25h1.77v15.29h3.71v1.82h-10.15v-1.82Z"/>
    <path class="cls-4" d="M29.88,19.78c0-1.01,.76-1.7,1.67-1.7s1.67,.7,1.67,1.7-.76,1.66-1.67,1.66-1.67-.67-1.67-1.66Z"/>
    <path class="cls-4" d="M37.28,19.3h4.12V6.67h-3.28v-1.42c1.64-.26,2.83-.67,3.84-1.25h1.77v15.29h3.71v1.82h-10.15v-1.82Z"/>
    <path class="cls-4" d="M2.22,93.3H6.34v-12.63H3.06v-1.42c1.64-.26,2.83-.67,3.84-1.25h1.77v15.29h3.71v1.82H2.22v-1.82Z"/>
    <path class="cls-4" d="M15.86,93.78c0-1.01,.76-1.7,1.67-1.7s1.67,.7,1.67,1.7-.76,1.66-1.67,1.66-1.67-.67-1.67-1.66Z"/>
    <path class="cls-4" d="M22.28,86.5c0-5.74,2.2-8.81,5.78-8.81s5.76,3.1,5.76,8.81-2.17,8.93-5.76,8.93-5.78-3.19-5.78-8.93Zm9.29,0c0-5.02-1.41-7.06-3.51-7.06s-3.54,2.04-3.54,7.06,1.41,7.18,3.54,7.18,3.51-2.16,3.51-7.18Z"/>
    <path class="cls-4" d="M35.76,93.1l1.14-1.44c1.06,1.01,2.4,1.94,4.55,1.94s3.94-1.51,3.94-3.89-1.52-3.79-3.84-3.79c-1.24,0-2.02,.38-3.08,1.06l-1.24-.74,.58-8.23h9.02v1.87h-7l-.45,5.11c.83-.43,1.64-.72,2.75-.72,3.08,0,5.58,1.68,5.58,5.38s-2.93,5.78-6.06,5.78c-2.88,0-4.65-1.15-5.88-2.33Z"/>
    <path class="cls-4" d="M37.28,167.3h4.12v-12.63h-3.28v-1.42c1.64-.26,2.83-.67,3.84-1.25h1.77v15.29h3.71v1.82h-10.15v-1.82Z"/>
    <path class="cls-4" d="M1.24,234.5c0-5.74,2.2-8.81,5.78-8.81s5.76,3.1,5.76,8.81-2.17,8.93-5.76,8.93-5.78-3.19-5.78-8.93Zm9.29,0c0-5.02-1.41-7.06-3.51-7.06s-3.54,2.04-3.54,7.06,1.41,7.18,3.54,7.18,3.51-2.16,3.51-7.18Z"/>
    <path class="cls-4" d="M15.86,241.78c0-1.01,.76-1.7,1.67-1.7s1.67,.7,1.67,1.7-.76,1.66-1.67,1.66-1.67-.67-1.67-1.66Z"/>
    <path class="cls-4" d="M22.5,241.63l1.29-1.37c.71,.84,1.82,1.34,2.95,1.34,2.53,0,4.67-1.87,4.77-7.34-1.16,1.37-2.75,2.21-4.22,2.21-3.13,0-5.15-1.8-5.15-5.3,0-3.26,2.42-5.47,5.3-5.47,3.56,0,6.21,2.74,6.21,8.23,0,6.86-3.26,9.5-6.84,9.5-1.92,0-3.33-.77-4.32-1.8Zm5.18-6.79c1.16,0,2.63-.7,3.79-2.33-.3-3.31-1.72-5.09-4.02-5.09-1.77,0-3.13,1.49-3.13,3.74s1.11,3.67,3.36,3.67Z"/>
    <path class="cls-4" d="M35.76,241.1l1.14-1.44c1.06,1.01,2.4,1.94,4.55,1.94s3.94-1.51,3.94-3.89-1.52-3.79-3.84-3.79c-1.24,0-2.02,.38-3.08,1.06l-1.24-.74,.58-8.23h9.02v1.87h-7l-.45,5.11c.83-.43,1.64-.72,2.75-.72,3.08,0,5.58,1.68,5.58,5.38s-2.93,5.79-6.06,5.79c-2.88,0-4.65-1.15-5.88-2.33Z"/>
    <path class="cls-4" d="M15.25,308.5c0-5.74,2.2-8.81,5.78-8.81s5.76,3.1,5.76,8.81-2.17,8.93-5.76,8.93-5.78-3.19-5.78-8.93Zm9.29,0c0-5.02-1.41-7.06-3.51-7.06s-3.54,2.04-3.54,7.06,1.41,7.18,3.54,7.18,3.51-2.16,3.51-7.18Z"/>
    <path class="cls-4" d="M29.88,315.78c0-1.01,.76-1.7,1.67-1.7s1.67,.7,1.67,1.7-.76,1.66-1.67,1.66-1.67-.67-1.67-1.66Z"/>
    <path class="cls-4" d="M36.52,315.63l1.29-1.37c.71,.84,1.82,1.34,2.95,1.34,2.53,0,4.67-1.87,4.77-7.34-1.16,1.37-2.75,2.21-4.22,2.21-3.13,0-5.15-1.8-5.15-5.3,0-3.26,2.42-5.47,5.3-5.47,3.56,0,6.21,2.74,6.21,8.23,0,6.86-3.26,9.5-6.84,9.5-1.92,0-3.33-.77-4.32-1.8Zm5.18-6.79c1.16,0,2.63-.7,3.79-2.33-.3-3.31-1.72-5.09-4.02-5.09-1.77,0-3.13,1.49-3.13,3.74s1.11,3.67,3.36,3.67Z"/>
    <path class="cls-4" d="M1.24,382.5c0-5.74,2.2-8.81,5.78-8.81s5.76,3.1,5.76,8.81-2.17,8.93-5.76,8.93-5.78-3.19-5.78-8.93Zm9.29,0c0-5.02-1.41-7.06-3.51-7.06s-3.54,2.04-3.54,7.06,1.41,7.18,3.54,7.18,3.51-2.16,3.51-7.18Z"/>
    <path class="cls-4" d="M15.86,389.78c0-1.01,.76-1.7,1.67-1.7s1.67,.7,1.67,1.7-.76,1.66-1.67,1.66-1.67-.67-1.67-1.66Z"/>
    <path class="cls-4" d="M22.18,386.75c0-2.23,1.72-3.77,3.41-4.63v-.1c-1.34-.86-2.5-2.14-2.5-3.96,0-2.62,2.2-4.37,5.08-4.37,3.16,0,5.08,1.87,5.08,4.54,0,1.8-1.39,3.34-2.47,4.13v.12c1.59,.91,3.13,2.11,3.13,4.39,0,2.57-2.32,4.56-5.81,4.56s-5.91-1.97-5.91-4.68Zm9.52,.07c0-2.23-2.27-3.02-4.9-4.01-1.46,.89-2.53,2.16-2.53,3.74,0,1.87,1.64,3.24,3.86,3.24s3.56-1.22,3.56-2.98Zm-.43-8.47c0-1.68-1.14-3.02-3.13-3.02-1.72,0-2.95,1.08-2.95,2.74,0,2.06,2,2.93,4.17,3.74,1.24-1.06,1.92-2.18,1.92-3.46Z"/>
    <path class="cls-4" d="M35.76,389.1l1.14-1.44c1.06,1.01,2.4,1.94,4.55,1.94s3.94-1.51,3.94-3.89-1.52-3.79-3.84-3.79c-1.24,0-2.02,.38-3.08,1.06l-1.24-.74,.58-8.23h9.02v1.87h-7l-.45,5.11c.83-.43,1.64-.72,2.75-.72,3.08,0,5.58,1.68,5.58,5.38s-2.93,5.79-6.06,5.79c-2.88,0-4.65-1.15-5.88-2.33Z"/>
    <path class="cls-4" d="M15.25,456.5c0-5.74,2.2-8.81,5.78-8.81s5.76,3.1,5.76,8.81-2.17,8.93-5.76,8.93-5.78-3.19-5.78-8.93Zm9.29,0c0-5.02-1.41-7.06-3.51-7.06s-3.54,2.04-3.54,7.06,1.41,7.18,3.54,7.18,3.51-2.16,3.51-7.18Z"/>
    <path class="cls-4" d="M29.88,463.78c0-1.01,.76-1.7,1.67-1.7s1.67,.7,1.67,1.7-.76,1.66-1.67,1.66-1.67-.67-1.67-1.66Z"/>
    <path class="cls-4" d="M36.19,460.75c0-2.23,1.72-3.77,3.41-4.63v-.1c-1.34-.86-2.5-2.14-2.5-3.96,0-2.62,2.2-4.37,5.08-4.37,3.16,0,5.08,1.87,5.08,4.54,0,1.8-1.39,3.34-2.47,4.13v.12c1.59,.91,3.13,2.11,3.13,4.39,0,2.57-2.32,4.56-5.81,4.56s-5.91-1.97-5.91-4.68Zm9.52,.07c0-2.23-2.27-3.02-4.9-4.01-1.46,.89-2.53,2.16-2.53,3.74,0,1.87,1.64,3.24,3.86,3.24s3.56-1.22,3.56-2.98Zm-.43-8.47c0-1.68-1.14-3.02-3.13-3.02-1.72,0-2.95,1.08-2.95,2.74,0,2.06,2,2.93,4.17,3.74,1.24-1.06,1.92-2.18,1.92-3.46Z"/>
    <path class="cls-4" d="M1.24,530.5c0-5.74,2.2-8.81,5.78-8.81s5.76,3.1,5.76,8.81-2.17,8.93-5.76,8.93-5.78-3.19-5.78-8.93Zm9.29,0c0-5.02-1.41-7.06-3.51-7.06s-3.54,2.04-3.54,7.06,1.41,7.18,3.54,7.18,3.51-2.16,3.51-7.18Z"/>
    <path class="cls-4" d="M15.86,537.78c0-1.01,.76-1.7,1.67-1.7s1.67,.7,1.67,1.7-.76,1.66-1.67,1.66-1.67-.67-1.67-1.66Z"/>
    <path class="cls-4" d="M31.24,523.88h-8.96v-1.87h11.59v1.34c-4.24,5.18-5.15,9.1-5.43,15.77h-2.4c.3-6.46,1.67-10.54,5.2-15.24Z"/>
    <path class="cls-4" d="M35.76,537.1l1.14-1.44c1.06,1.01,2.4,1.94,4.55,1.94s3.94-1.51,3.94-3.89-1.52-3.79-3.84-3.79c-1.24,0-2.02,.38-3.08,1.06l-1.24-.74,.58-8.23h9.02v1.87h-7l-.45,5.11c.83-.43,1.64-.72,2.75-.72,3.08,0,5.58,1.68,5.58,5.38s-2.93,5.79-6.06,5.79c-2.88,0-4.65-1.15-5.88-2.33Z"/>
    <path class="cls-4" d="M15.25,604.5c0-5.74,2.2-8.81,5.78-8.81s5.76,3.1,5.76,8.81-2.17,8.93-5.76,8.93-5.78-3.19-5.78-8.93Zm9.29,0c0-5.02-1.41-7.06-3.51-7.06s-3.54,2.04-3.54,7.06,1.41,7.18,3.54,7.18,3.51-2.16,3.51-7.18Z"/>
    <path class="cls-4" d="M29.88,611.78c0-1.01,.76-1.7,1.67-1.7s1.67,.7,1.67,1.7-.76,1.66-1.67,1.66-1.67-.67-1.67-1.66Z"/>
    <path class="cls-4" d="M45.26,597.88h-8.96v-1.87h11.59v1.34c-4.24,5.18-5.15,9.1-5.43,15.77h-2.4c.3-6.46,1.67-10.54,5.2-15.24Z"/>
  </g>
  <g>
    <path class="cls-4" d="M31.6,651.88l1.69-1.13c.85,1.39,1.9,1.97,3.26,1.97,2.03,0,3.03-1.08,3.03-3.74v-12.24h2.36v12.46c0,3.02-1.49,5.47-5.16,5.47-2.39,0-4.08-.96-5.19-2.79Z"/>
    <path class="cls-4" d="M45.95,650.97c0-2.83,2.65-4.25,8.58-4.87,0-1.68-.59-3.29-2.88-3.29-1.62,0-3.08,.7-4.19,1.39l-.92-1.51c1.28-.77,3.26-1.7,5.5-1.7,3.39,0,4.83,2.14,4.83,5.35v8.02h-1.93l-.21-1.56h-.08c-1.34,1.03-2.9,1.87-4.62,1.87-2.34,0-4.08-1.34-4.08-3.7Zm8.58,.22v-3.65c-4.7,.53-6.29,1.61-6.29,3.29,0,1.49,1.08,2.09,2.47,2.09s2.47-.6,3.83-1.73Z"/>
    <path class="cls-4" d="M61.31,641.32h1.93l.21,1.87h.08c1.34-1.22,2.77-2.21,4.67-2.21,2.93,0,4.26,1.78,4.26,5.11v8.26h-2.34v-7.97c0-2.45-.8-3.48-2.65-3.48-1.44,0-2.41,.67-3.83,1.99v9.46h-2.34v-13.03Z"/>
    <path class="cls-4" d="M75.82,646.79h6.57v1.68h-6.57v-1.68Z"/>
    <path class="cls-4" d="M85.81,652.53h4.19v-12.63h-3.34v-1.42c1.67-.26,2.88-.67,3.9-1.25h1.8v15.29h3.77v1.82h-10.32v-1.82Z"/>
    <path class="cls-4" d="M98.93,653.06c5.52-5.14,8.63-8.21,8.63-11.02,0-1.94-1.13-3.34-3.47-3.34-1.54,0-2.88,.91-3.9,2.04l-1.36-1.22c1.54-1.56,3.16-2.59,5.55-2.59,3.36,0,5.47,1.99,5.47,5.02,0,3.22-3.13,6.41-7.47,10.68,.98-.07,2.11-.17,3.08-.17h5.32v1.9h-11.84v-1.3Z"/>
    <path class="cls-4" d="M199.24,651.88l1.69-1.13c.85,1.39,1.9,1.97,3.26,1.97,2.03,0,3.03-1.08,3.03-3.74v-12.24h2.36v12.46c0,3.02-1.49,5.47-5.16,5.47-2.39,0-4.08-.96-5.19-2.79Z"/>
    <path class="cls-4" d="M213.59,650.97c0-2.83,2.65-4.25,8.58-4.87,0-1.68-.59-3.29-2.88-3.29-1.62,0-3.08,.7-4.19,1.39l-.92-1.51c1.28-.77,3.26-1.7,5.5-1.7,3.39,0,4.83,2.14,4.83,5.35v8.02h-1.93l-.21-1.56h-.08c-1.34,1.03-2.9,1.87-4.62,1.87-2.34,0-4.08-1.34-4.08-3.7Zm8.58,.22v-3.65c-4.7,.53-6.29,1.61-6.29,3.29,0,1.49,1.08,2.09,2.47,2.09s2.47-.6,3.83-1.73Z"/>
    <path class="cls-4" d="M228.95,641.32h1.93l.21,1.87h.08c1.34-1.22,2.77-2.21,4.67-2.21,2.93,0,4.26,1.78,4.26,5.11v8.26h-2.34v-7.97c0-2.45-.8-3.48-2.65-3.48-1.44,0-2.41,.67-3.83,1.99v9.46h-2.34v-13.03Z"/>
    <path class="cls-4" d="M243.46,646.79h6.57v1.68h-6.57v-1.68Z"/>
    <path class="cls-4" d="M253.45,652.53h4.19v-12.63h-3.34v-1.42c1.67-.26,2.88-.67,3.9-1.25h1.8v15.29h3.77v1.82h-10.32v-1.82Z"/>
    <path class="cls-4" d="M274.17,649.63h-8.22v-1.44l7.83-10.94h2.59v10.63h2.49v1.75h-2.49v4.73h-2.21v-4.73Zm0-1.75v-5.02c0-.89,.08-2.35,.13-3.26h-.1c-.46,.82-.98,1.56-1.52,2.4l-4.29,5.88h5.78Z"/>
    <path class="cls-4" d="M361.13,651.88l1.69-1.13c.85,1.39,1.9,1.97,3.26,1.97,2.03,0,3.03-1.08,3.03-3.74v-12.24h2.36v12.46c0,3.02-1.49,5.47-5.16,5.47-2.39,0-4.08-.96-5.19-2.79Z"/>
    <path class="cls-4" d="M375.48,650.97c0-2.83,2.65-4.25,8.58-4.87,0-1.68-.59-3.29-2.88-3.29-1.62,0-3.08,.7-4.19,1.39l-.92-1.51c1.28-.77,3.26-1.7,5.5-1.7,3.39,0,4.83,2.14,4.83,5.35v8.02h-1.93l-.21-1.56h-.08c-1.34,1.03-2.9,1.87-4.62,1.87-2.34,0-4.08-1.34-4.08-3.7Zm8.58,.22v-3.65c-4.7,.53-6.29,1.61-6.29,3.29,0,1.49,1.08,2.09,2.47,2.09s2.47-.6,3.83-1.73Z"/>
    <path class="cls-4" d="M390.84,641.32h1.93l.21,1.87h.08c1.34-1.22,2.77-2.21,4.67-2.21,2.93,0,4.26,1.78,4.26,5.11v8.26h-2.34v-7.97c0-2.45-.8-3.48-2.65-3.48-1.44,0-2.41,.67-3.83,1.99v9.46h-2.34v-13.03Z"/>
    <path class="cls-4" d="M405.35,646.79h6.57v1.68h-6.57v-1.68Z"/>
    <path class="cls-4" d="M415.34,652.53h4.19v-12.63h-3.34v-1.42c1.67-.26,2.88-.67,3.9-1.25h1.8v15.29h3.77v1.82h-10.32v-1.82Z"/>
    <path class="cls-4" d="M428.72,646.46c0-6.89,3.31-9.53,6.99-9.53,1.95,0,3.36,.77,4.39,1.8l-1.31,1.37c-.74-.84-1.88-1.34-3-1.34-2.59,0-4.75,1.85-4.85,7.3,1.18-1.32,2.8-2.14,4.29-2.14,3.16,0,5.21,1.78,5.21,5.26,0,3.29-2.47,5.5-5.39,5.5-3.62,0-6.32-2.74-6.32-8.21Zm2.26,1.37c.31,3.34,1.72,5.14,4.03,5.14,1.82,0,3.21-1.51,3.21-3.79s-1.13-3.62-3.39-3.62c-1.18,0-2.62,.6-3.85,2.28Z"/>
    <path class="cls-4" d="M523.01,651.88l1.7-1.13c.85,1.39,1.9,1.97,3.26,1.97,2.03,0,3.03-1.08,3.03-3.74v-12.24h2.36v12.46c0,3.02-1.49,5.47-5.16,5.47-2.39,0-4.08-.96-5.19-2.79Z"/>
    <path class="cls-4" d="M537.37,650.97c0-2.83,2.65-4.25,8.58-4.87,0-1.68-.59-3.29-2.88-3.29-1.62,0-3.08,.7-4.19,1.39l-.92-1.51c1.28-.77,3.26-1.7,5.5-1.7,3.39,0,4.83,2.14,4.83,5.35v8.02h-1.93l-.21-1.56h-.08c-1.34,1.03-2.9,1.87-4.62,1.87-2.34,0-4.08-1.34-4.08-3.7Zm8.58,.22v-3.65c-4.7,.53-6.29,1.61-6.29,3.29,0,1.49,1.08,2.09,2.46,2.09s2.47-.6,3.83-1.73Z"/>
    <path class="cls-4" d="M552.72,641.32h1.93l.21,1.87h.08c1.33-1.22,2.77-2.21,4.67-2.21,2.93,0,4.26,1.78,4.26,5.11v8.26h-2.34v-7.97c0-2.45-.8-3.48-2.64-3.48-1.44,0-2.41,.67-3.83,1.99v9.46h-2.34v-13.03Z"/>
    <path class="cls-4" d="M567.23,646.79h6.57v1.68h-6.57v-1.68Z"/>
    <path class="cls-4" d="M577.22,652.53h4.19v-12.63h-3.34v-1.42c1.67-.26,2.88-.67,3.9-1.25h1.8v15.29h3.77v1.82h-10.32v-1.82Z"/>
    <path class="cls-4" d="M590.37,649.99c0-2.23,1.75-3.77,3.47-4.63v-.1c-1.36-.86-2.54-2.14-2.54-3.96,0-2.62,2.23-4.37,5.16-4.37,3.21,0,5.16,1.87,5.16,4.54,0,1.8-1.41,3.34-2.52,4.13v.12c1.62,.91,3.18,2.11,3.18,4.39,0,2.57-2.36,4.56-5.91,4.56s-6.01-1.97-6.01-4.68Zm9.68,.07c0-2.23-2.31-3.02-4.98-4.01-1.49,.89-2.57,2.16-2.57,3.74,0,1.87,1.67,3.24,3.93,3.24s3.62-1.22,3.62-2.98Zm-.44-8.47c0-1.68-1.16-3.02-3.18-3.02-1.75,0-3,1.08-3,2.74,0,2.06,2.03,2.93,4.24,3.75,1.26-1.06,1.95-2.18,1.95-3.46Z"/>
    <path class="cls-4" d="M690.64,651.88l1.7-1.13c.85,1.39,1.9,1.97,3.26,1.97,2.03,0,3.03-1.08,3.03-3.74v-12.24h2.36v12.46c0,3.02-1.49,5.47-5.16,5.47-2.39,0-4.08-.96-5.19-2.79Z"/>
    <path class="cls-4" d="M705,650.97c0-2.83,2.65-4.25,8.58-4.87,0-1.68-.59-3.29-2.88-3.29-1.62,0-3.08,.7-4.19,1.39l-.92-1.51c1.28-.77,3.26-1.7,5.5-1.7,3.39,0,4.83,2.14,4.83,5.35v8.02h-1.93l-.21-1.56h-.08c-1.34,1.03-2.9,1.87-4.62,1.87-2.34,0-4.08-1.34-4.08-3.7Zm8.58,.22v-3.65c-4.7,.53-6.29,1.61-6.29,3.29,0,1.49,1.08,2.09,2.46,2.09s2.47-.6,3.83-1.73Z"/>
    <path class="cls-4" d="M720.36,641.32h1.93l.21,1.87h.08c1.33-1.22,2.77-2.21,4.67-2.21,2.93,0,4.26,1.78,4.26,5.11v8.26h-2.34v-7.97c0-2.45-.8-3.48-2.64-3.48-1.44,0-2.41,.67-3.83,1.99v9.46h-2.34v-13.03Z"/>
    <path class="cls-4" d="M734.87,646.79h6.57v1.68h-6.57v-1.68Z"/>
    <path class="cls-4" d="M743.72,653.06c5.52-5.14,8.63-8.21,8.63-11.02,0-1.94-1.13-3.34-3.47-3.34-1.54,0-2.88,.91-3.9,2.04l-1.36-1.22c1.54-1.56,3.16-2.59,5.55-2.59,3.36,0,5.47,1.99,5.47,5.02,0,3.22-3.13,6.41-7.47,10.68,.98-.07,2.11-.17,3.08-.17h5.32v1.9h-11.84v-1.3Z"/>
    <path class="cls-4" d="M758.11,645.74c0-5.74,2.23-8.81,5.88-8.81s5.85,3.1,5.85,8.81-2.21,8.93-5.85,8.93-5.88-3.19-5.88-8.93Zm9.45,0c0-5.02-1.44-7.06-3.57-7.06s-3.6,2.04-3.6,7.06,1.44,7.18,3.6,7.18,3.57-2.16,3.57-7.18Z"/>
    <path class="cls-4" d="M852.52,651.88l1.7-1.13c.85,1.39,1.9,1.97,3.26,1.97,2.03,0,3.03-1.08,3.03-3.74v-12.24h2.36v12.46c0,3.02-1.49,5.47-5.16,5.47-2.39,0-4.08-.96-5.19-2.79Z"/>
    <path class="cls-4" d="M866.88,650.97c0-2.83,2.65-4.25,8.58-4.87,0-1.68-.59-3.29-2.88-3.29-1.62,0-3.08,.7-4.19,1.39l-.92-1.51c1.28-.77,3.26-1.7,5.5-1.7,3.39,0,4.83,2.14,4.83,5.35v8.02h-1.93l-.21-1.56h-.08c-1.34,1.03-2.9,1.87-4.62,1.87-2.34,0-4.08-1.34-4.08-3.7Zm8.58,.22v-3.65c-4.7,.53-6.29,1.61-6.29,3.29,0,1.49,1.08,2.09,2.46,2.09s2.47-.6,3.83-1.73Z"/>
    <path class="cls-4" d="M882.24,641.32h1.93l.21,1.87h.08c1.33-1.22,2.77-2.21,4.67-2.21,2.93,0,4.26,1.78,4.26,5.11v8.26h-2.34v-7.97c0-2.45-.8-3.48-2.64-3.48-1.44,0-2.41,.67-3.83,1.99v9.46h-2.34v-13.03Z"/>
    <path class="cls-4" d="M896.75,646.79h6.57v1.68h-6.57v-1.68Z"/>
    <path class="cls-4" d="M905.6,653.06c5.52-5.14,8.63-8.21,8.63-11.02,0-1.94-1.13-3.34-3.47-3.34-1.54,0-2.88,.91-3.9,2.04l-1.36-1.22c1.54-1.56,3.16-2.59,5.55-2.59,3.36,0,5.47,1.99,5.47,5.02,0,3.22-3.13,6.41-7.47,10.68,.98-.07,2.11-.17,3.08-.17h5.32v1.9h-11.84v-1.3Z"/>
    <path class="cls-4" d="M919.86,653.06c5.52-5.14,8.63-8.21,8.63-11.02,0-1.94-1.13-3.34-3.47-3.34-1.54,0-2.88,.91-3.9,2.04l-1.36-1.22c1.54-1.56,3.16-2.59,5.55-2.59,3.36,0,5.47,1.99,5.47,5.02,0,3.22-3.13,6.41-7.47,10.68,.98-.07,2.11-.17,3.08-.17h5.32v1.9h-11.84v-1.3Z"/>
  </g>
  <polyline class="cls-2" points="75.81 382.48 81.01 361.77 81.01 390.06 85.38 364.29 85.38 393.43 89.13 375.7 89.13 401.18 92.87 384.5 92.87 417.79 96 403.7 96 421.39 100.37 400.67 100.37 423.41 104.12 402.69 104.12 423.41 107.86 411.28 107.86 440.08 110.99 417.34 110.99 445.64 114.73 399.15 114.73 445.64 117.23 375.7 117.23 437.55 120.35 377.93 121 409.26 124.1 379.95 124.1 414.31 127.22 398.14 127.22 407.74 127.22 419.37 130.35 407.74 130.35 428.46 133.47 390.06 133.47 427.95 136.59 390.06 139.09 408.25 142.21 370.86 142.21 397.64 145.96 375.7 145.96 399.66 149.71 383.49 149.71 408.75 154.08 377.93 154.08 410.27 158.45 373.39 158.45 401.18 162.2 370.86 162.2 400.17 167.2 361.77 167.2 393.43 170.32 372.38 170.32 395.62 173.44 375.7 173.44 403.7 176.57 385.51 176.57 422.4 180.31 386.52 180.31 421.39 184.06 397.64 184.06 422.9 187.81 398.65 187.81 421.89 192.18 405.72 192.18 445.64 195.3 419.87 195.3 458.78 197.8 442.61 197.8 470.4 200.92 452.71 200.92 479.49 204.67 453.72 204.67 482.02 207.17 470.4 207.17 493.64 210.29 478.48 210.29 498.69 215.29 483.03 215.29 498.69 219.66 473.43 219.66 492.63 224.03 467.12 227.16 480.5 227.16 440.08 230.9 470.9 234.65 452.71 234.65 474.94 240.12 444.63 240.12 464.33 244.02 449.7 244.02 416.33 247.14 426.94 247.14 397.64 250.26 426.44 250.26 406.23 255.26 423.91 255.26 388.54 258.38 406.23 260.86 387.03 264 433.51 266.5 390.57 266.5 438.06 269.63 426.44 269.63 442.1 272.75 419.37 272.75 443.62 277.75 411.79 277.75 435.03 280.87 422.4 283.99 454.73 287.11 426.44 287.11 454.23 292.11 425.43 292.11 442.1 297.73 421.89 297.73 443.11 297.73 477.98 302.73 430.23 302.73 473.93 307.1 446.14 307.1 471.91 310.22 459.28 310.22 475.95 315.84 472.42 315.84 514.35 319.59 503.24 319.59 523.7 323.96 512.84 323.96 529.01 327.09 515.37 327.09 548.21 332.71 504.75 332.71 520.92 337.7 503.74 337.7 523.7 343.95 501.72 343.95 525.47 349.57 512.84 349.57 526.48 353.94 516.38 353.94 532.54 358.31 523.7 358.31 537.6 358.31 563.37 362.69 537.6 362.69 593.68 367.68 552.25 367.68 593.68 372.05 545.68 375.18 561.34 375.18 534.06 380.8 569.93 380.8 528.5 385.8 562.35 385.8 530.52 389.54 544.17 389.54 511.83 394.54 537.6 394.54 507.79 398.91 535.58 398.91 507.28 401.66 526.99 405.78 506.78 405.78 538.1 410.15 508.29 410.15 548.99 410.15 553.77 416.4 508.8 416.4 548.71 419.52 512.84 423.89 525.98 423.89 508.29 428.27 519.41 428.27 462.31 432.01 510.82 435.14 477.72 435.14 504.75 438.88 477.72 442.01 496.67 442.01 470.9 445.13 483.53 445.13 452.71 448.25 475.45 448.25 439.58 452 463.83 456.37 453.72 456.37 470.4 460.74 457.77 460.74 488.59 465.12 467.12 465.12 486.06 468.86 460.29 468.86 481.51 468.86 414.31 473.23 467.12 473.23 389.55 476.98 423.91 476.98 381.47 479.48 395.62 483.16 375.7 483.16 404.21 486.98 383.49 486.98 415.32 490.72 393.12 490.72 438.06 495.94 418.86 495.94 454.23 497.18 367.32 500.72 449.7 500.72 359.74 504.46 390.06 504.46 351.66 509.46 393.43 509.46 364.8 512.49 411.28 512.49 377.93 513.6 393.22 515.71 422.4 520.7 430.99 520.7 402.19 526.32 445.64 529.45 428.46 529.45 460.8 535.69 421.39 535.69 446.65 541.94 415.32 541.94 444.12 546.93 424.42 546.93 464.84 552.55 433.01 552.55 478.99 558.18 437.05 558.18 459.79 563.48 420.88 563.48 451.7 566.92 411.28 569.42 449.7 572.54 422.9 572.54 469.89 575.66 452.21 575.66 485.05 580.04 437.55 582.53 467.12 585.66 436.54 588.16 449.7 588.16 391.07 593.15 400.67 593.15 379.95 596.27 393.43 596.27 358.73 600.65 393.43 603.14 375.7 605.64 393.43 609.39 381.47 609.39 407.24 613.14 402.69 613.14 422.4 616.89 411.79 616.89 436.54 621.26 425.43 621.26 445.64 628.13 401.68 628.13 445.13 632.5 426.94 632.5 458.78 636.87 428.46 636.87 446.14 641.24 415.83 645.62 429.98 645.62 404.21 650.61 425.93 650.61 400.17 655.61 420.38 658.73 403.7 661.85 419.87 664.98 400.67 664.98 423.41 669.35 385.01 669.35 421.89 674.35 379.45 674.35 398.14 679.97 379.95 679.97 397.13 686.21 373.39 689.34 413.3 689.34 385.51 694.33 415.83 695.76 400.53 698.08 375.7 700.58 400.67 703.08 375.7 703.08 403.2 708.07 393.43 708.07 414.82 712.44 400.17 712.44 429.98 718.07 408.75 718.07 425.43 718.07 443.11 723.06 426.44 727.96 444.63 731.81 392.59 731.81 449.18 738.05 387.03 738.05 440.08 742.42 383.49 742.42 427.95 746.8 373.39 749.92 440 753.04 420.38 753.04 464.33 757.41 414.82 757.41 472.67 760.01 437.97 761.79 414.31 764.91 422.4 764.91 438.57 769.28 434.52 769.28 457.26 773.03 447.66 773.03 506.27 775.65 476.86 777.4 457.26 783.02 456.25 778.65 476.46 786.77 456.25 786.77 472.67 786.77 435.03 791.14 468.38 791.14 426.94 796.14 456.25 796.14 427.95 800.51 449.68 800.51 411.28 804.26 438.57 808 409.77 808 443.62 813.62 407.24 813.62 439.58 819.87 393.09 819.87 415.83 819.87 428.97 824.87 406.23 824.87 427.45 829.24 409.77 829.24 424.92 834.86 417.85 834.86 379.95 839.23 395.62 842.35 381.98 842.35 403.7 847.35 386.52 847.35 412.8 850.47 405.22 850.47 429.47 854.22 432.5 854.22 381.98 859.84 401.68 859.84 382.99 864.21 396.63 864.21 370.86 867.34 375.91 865.54 366.02 864.21 358.73 867.34 338.52 867.34 355.2 871.08 333.47 871.08 348.63 874.21 297.78 874.21 337.51 880.45 310.23 880.45 283.95 884.2 303.66 888.89 293.05 888.89 314.27 892.32 297.78 892.32 327.91 896.69 312.25 896.69 300.12 896.69 283.95 901.06 293.55 901.06 253.13 906.06 256.17 902.94 149.55 907.36 131.87 907.36 176.33 911.06 128.84 911.06 179.87 916.05 178.35 916.05 236.46 921.67 208.17 926.67 238.99 926.67 190.48 931.67 205.13 931.67 175.83 937.91 189.47 933.54 147.53 937.91 153.09 937.91 135.41 941.66 133.39 941.66 116.71 946.66 126.82 945.38 93.98 950.4 114.69 950.4 72.75"/>
  <g>
    <path d="M541.41,558.26v1.45h-9.82c-.07,.59-.17,1.17-.28,1.69h9.72v1.43h-10.15c-1.11,3.01-3.63,4.88-9.79,5.88-.14-.42-.59-1.1-.92-1.47,5.44-.73,7.75-2.13,8.81-4.4h-7.91v-1.43h8.41c.14-.53,.24-1.1,.31-1.69h-9.23v-1.45h9.44v-1.85h-7.32v-1.43h7.32v-1.78h-8.62v-1.47h4.97c-.38-.77-1.11-1.78-1.81-2.55l1.51-.57c.87,.84,1.7,1.98,2.07,2.77l-.85,.35h6.19c.71-.9,1.53-2.2,2.02-3.13l1.79,.51c-.56,.9-1.27,1.85-1.88,2.62h5.02v1.47h-8.66v1.78h7.53v1.43h-7.53v1.85h9.68Zm-9.63,4.82c3.23,1.14,7.46,3.04,9.61,4.36l-.82,1.41c-2.07-1.36-6.29-3.34-9.54-4.55l.75-1.21Z"/>
    <path d="M564.22,549.68v19.14h-1.72v-1.01h-16.15v1.01h-1.67v-19.14h19.54Zm-1.72,16.66v-15.16h-16.15v15.16h16.15Zm-7.98-3.34c-2.45,.44-4.94,.9-6.88,1.23l-.24-1.23c1.79-.26,4.4-.7,7.04-1.14l.07,1.14Zm5.84-6.4c-.59,2.07-1.48,3.87-2.61,5.39,.49,1.17,1.13,1.92,1.91,2.02,.33,.09,.56-.86,.73-2.27,.28,.26,.8,.59,1.13,.73-.31,2.4-1.11,3.28-2.33,2.84-1.01-.2-1.81-.97-2.45-2.13-.92,.99-1.95,1.83-3.11,2.53-.21-.26-.73-.79-1.04-1.03,1.39-.75,2.57-1.72,3.55-2.86-.64-1.76-1.04-4.03-1.29-6.51h-7.2v-1.23h7.09c-.07-.77-.14-1.54-.19-2.33h1.51c.05,.79,.09,1.56,.14,2.33h5.13v1.23h-5.01c.19,1.89,.47,3.65,.87,5.06,.75-1.19,1.34-2.55,1.74-4.05l1.44,.29Zm-6.69,.09v4.27h-5.2v-4.27h5.2Zm-1.27,1.03h-2.71v2.2h2.71v-2.2Zm7.49-3.89c-.52-.48-1.6-1.17-2.52-1.54l.82-.81c.92,.4,2,.99,2.54,1.5l-.85,.86Z"/>
    <path d="M574.55,563.32c-2.35,.9-4.9,1.83-6.87,2.53l-.57-1.65c.82-.24,1.84-.57,2.94-.95v-7.7h-2.57v-1.54h2.57v-5.08h1.69v5.08h2.28v1.54h-2.28v7.13l2.47-.86,.33,1.5Zm11.28,3.87c.33,0,.68-.02,.8-.09,.19-.04,.35-.22,.42-.46,.05-.31,.07-.99,.09-1.87,.35,.29,.94,.57,1.41,.7-.05,.86-.14,1.76-.28,2.13-.19,.33-.45,.57-.87,.68-.35,.11-.99,.18-1.44,.18h-1.58c-.54,0-1.25-.11-1.6-.37-.42-.26-.59-.62-.59-1.78v-3.26h-2.1c-.38,3.17-1.58,4.84-5.86,5.79-.17-.37-.61-.99-.92-1.28,3.81-.73,4.83-1.96,5.13-4.51h-2.45v-6.23h10.69v6.23h-2.85v3.41c0,.33,.02,.55,.21,.62,.14,.09,.35,.11,.64,.11h1.13Zm2.12-11.51h-13.07v-1.41h3.32c-.12-.59-.42-1.45-.73-2.11l1.44-.29c.31,.68,.71,1.61,.85,2.18l-.87,.22h3.91c.35-.7,.78-1.67,.99-2.33l1.63,.33c-.35,.7-.73,1.41-1.04,2h3.58v1.41Zm-.61-4h-11.75v-1.39h5.09c-.19-.48-.45-.99-.66-1.45l1.62-.29c.28,.53,.59,1.19,.8,1.74h4.9v1.39Zm-9.7,7.7h7.39v-1.43h-7.39v1.43Zm0,2.55h7.39v-1.47h-7.39v1.47Z"/>
    <path d="M610.78,566.62c0,1.03-.24,1.56-1.01,1.85-.8,.26-2.14,.26-4.14,.26-.07-.46-.33-1.21-.59-1.65,1.53,.04,2.99,.04,3.46,.02,.42-.02,.52-.13,.52-.48v-11.46h-6c.89,3.37,2.66,5.79,5.75,7.02-.38,.35-.94,.99-1.22,1.43-3.08-1.43-4.9-3.89-5.91-7.2-.99,3.37-2.92,5.81-6.05,7.3-.26-.37-.8-.99-1.18-1.3,3.16-1.43,5.09-3.81,5.89-7.26h-6.12v13.6h-1.74v-15.2h8.57c-.12-.77-.21-1.58-.26-2.44h-4.24v-1.45h5.72c.07,1.39,.21,2.68,.42,3.89h8.15v13.07Z"/>
    <path d="M622.41,566.69c0,.84-.19,1.32-.75,1.61-.57,.26-1.44,.29-2.94,.29-.07-.4-.26-1.1-.47-1.52,1.01,.02,1.91,.02,2.19,.02,.28-.02,.4-.13,.4-.42v-5.99c-.99,.57-1.95,1.1-2.83,1.61l-.66-1.32c-.17,2.71-.64,5.61-1.74,7.81-.31-.24-1.01-.62-1.41-.77,1.58-3.08,1.7-7.46,1.7-10.67v-7.85h6.52v17.21Zm-4.94-9.37c0,1.03-.02,2.2-.09,3.41,.94-.35,2.17-.88,3.46-1.47v-2.51l-.89,.68c-.52-.7-1.55-1.78-2.47-2.62v2.51Zm0-6.34v3.41l.8-.57c.92,.77,1.95,1.76,2.57,2.46v-5.3h-3.37Zm17.49,7.7c-.89,2.71-2.38,4.82-4.31,6.45,1.48,1.01,3.2,1.74,5.18,2.2-.42,.35-.89,.99-1.15,1.43-2.05-.57-3.86-1.45-5.39-2.6-1.67,1.14-3.58,1.98-5.6,2.58-.19-.44-.61-1.06-.94-1.41,1.86-.46,3.67-1.21,5.27-2.25-1.51-1.41-2.68-3.12-3.53-5.1l.33-.11h-1.2v-1.54h9.94l.28-.07,1.13,.42Zm-7.44-6.73c0,1.94-.64,4.27-3.48,5.83-.21-.33-.82-.9-1.13-1.14,2.57-1.36,2.99-3.15,2.99-4.71v-2.42h7.16v5.13c0,.59,.05,.79,.35,.79h1.29c.26,0,.73-.04,1.01-.11,.02,.42,.09,.99,.14,1.36-.28,.09-.73,.11-1.11,.11h-1.46c-1.55,0-1.88-.62-1.88-2.2v-3.54h-3.88v.9Zm-1.39,7.92c.75,1.61,1.84,3.06,3.2,4.27,1.41-1.17,2.59-2.6,3.34-4.27h-6.55Z"/>
    <path d="M644.86,564.31c-1.39,1.58-3.63,3.06-5.58,4-.26-.26-.94-.84-1.32-1.08,2-.81,4.07-2.09,5.3-3.45l1.6,.53Zm14.24-2.42v1.34h-9.65v5.59h-1.72v-5.59h-9.58v-1.34h20.95Zm-14.08-10.98h-6.62v-1.36h20.25v1.36h-6.64v1.69h5.49v5.02h-17.68v-5.02h5.2v-1.69Zm-4,9.46v-1.3h15.23v1.3h-15.23Zm.42-4h3.58v-2.53h-3.58v2.53Zm8.9-5.46h-3.7v1.69h3.7v-1.69Zm-3.7,5.46h3.7v-2.53h-3.7v2.53Zm5.37-2.53v2.53h3.77v-2.53h-3.77Zm1.25,10.01c1.91,.97,4.4,2.42,5.7,3.43l-1.34,.95c-1.2-.99-3.67-2.49-5.6-3.52l1.25-.86Z"/>
    <path d="M667.13,556.85c.82,.79,2.99,3.12,3.48,3.72l-1.08,1.34c-.45-.73-1.51-2.11-2.4-3.19v10.01h-1.65v-10.52c-.92,2.53-2.14,4.97-3.41,6.47-.19-.46-.64-1.1-.92-1.5,1.63-1.83,3.3-5.24,4.12-8.27h-3.6v-1.54h3.81v-4.71h1.65v4.71h3.37v1.54h-3.37v1.94Zm14.93-6.89v18.57h-1.72v-1.25h-7.13v1.32h-1.67v-18.64h10.52Zm-8.85,1.54v3.67h7.13v-3.67h-7.13Zm0,8.96h7.13v-3.79h-7.13v3.79Zm7.13,5.3v-3.81h-7.13v3.81h7.13Z"/>
    <path d="M706.28,556.11h-2.26v10.63c0,1.01-.28,1.45-.96,1.74-.68,.26-1.79,.31-3.7,.31-.09-.42-.38-1.12-.63-1.56,1.41,.04,2.68,.04,3.04,.02,.4-.02,.56-.13,.56-.51v-10.63h-5.58v-1.3h-11.68v-1.41h3.6v-1.12l-1.11,.7c-.4-.79-1.32-2.05-2.17-2.93l1.11-.66c.85,.81,1.77,1.96,2.17,2.75v-3.45h1.41v4.71h1.81v-4.71h1.44v3.56c.71-.79,1.65-2.02,2.14-2.84l1.41,.73c-.85,1.01-1.84,2.13-2.61,2.88l-.94-.53v.9h3.53v1.17h5.46v-5.81h1.7v5.81h2.26v1.54Zm-14.46,9.39c1.6-.22,3.3-.42,4.94-.64l.05,1.45c-4.1,.55-8.48,1.12-11.49,1.52l-.26-1.56c1.41-.15,3.18-.35,5.11-.59v-2.6h-3.72v-1.36h3.72v-2.24h-4.31v-1.39h6.07c.54-.9,1.22-2.22,1.58-3.15l1.55,.53c-.5,.88-1.04,1.83-1.55,2.62h2.64v1.39h-4.33v2.24h3.84v1.36h-3.84v2.42Zm-3.46-10.63c.73,.73,1.53,1.76,1.84,2.49l-1.29,.68c-.31-.73-1.06-1.78-1.79-2.57l1.25-.59Zm11.11,8.47c-.24-1.34-1.11-3.43-2.07-5.04l1.46-.48c.99,1.58,1.91,3.63,2.17,4.97l-1.55,.55Z"/>
    <path d="M729.73,558.26v1.45h-9.82c-.07,.59-.17,1.17-.28,1.69h9.72v1.43h-10.15c-1.11,3.01-3.63,4.88-9.79,5.88-.14-.42-.59-1.1-.92-1.47,5.44-.73,7.75-2.13,8.8-4.4h-7.91v-1.43h8.41c.14-.53,.24-1.1,.31-1.69h-9.23v-1.45h9.44v-1.85h-7.32v-1.43h7.32v-1.78h-8.62v-1.47h4.97c-.38-.77-1.11-1.78-1.81-2.55l1.51-.57c.87,.84,1.7,1.98,2.07,2.77l-.85,.35h6.19c.71-.9,1.53-2.2,2.03-3.13l1.79,.51c-.57,.9-1.27,1.85-1.88,2.62h5.02v1.47h-8.67v1.78h7.53v1.43h-7.53v1.85h9.68Zm-9.63,4.82c3.23,1.14,7.46,3.04,9.61,4.36l-.82,1.41c-2.07-1.36-6.29-3.34-9.54-4.55l.75-1.21Z"/>
    <path d="M752.54,549.68v19.14h-1.72v-1.01h-16.15v1.01h-1.67v-19.14h19.54Zm-1.72,16.66v-15.16h-16.15v15.16h16.15Zm-7.98-3.34c-2.45,.44-4.94,.9-6.88,1.23l-.24-1.23c1.79-.26,4.4-.7,7.04-1.14l.07,1.14Zm5.84-6.4c-.59,2.07-1.48,3.87-2.61,5.39,.49,1.17,1.13,1.92,1.91,2.02,.33,.09,.56-.86,.73-2.27,.28,.26,.8,.59,1.13,.73-.31,2.4-1.11,3.28-2.33,2.84-1.01-.2-1.81-.97-2.45-2.13-.92,.99-1.95,1.83-3.11,2.53-.21-.26-.73-.79-1.04-1.03,1.39-.75,2.57-1.72,3.55-2.86-.64-1.76-1.04-4.03-1.29-6.51h-7.2v-1.23h7.09c-.07-.77-.14-1.54-.19-2.33h1.51c.05,.79,.09,1.56,.14,2.33h5.13v1.23h-5.01c.19,1.89,.47,3.65,.87,5.06,.75-1.19,1.34-2.55,1.74-4.05l1.44,.29Zm-6.69,.09v4.27h-5.2v-4.27h5.2Zm-1.27,1.03h-2.71v2.2h2.71v-2.2Zm7.49-3.89c-.52-.48-1.6-1.17-2.52-1.54l.82-.81c.92,.4,2,.99,2.54,1.5l-.85,.86Z"/>
    <path d="M762.87,563.32c-2.35,.9-4.9,1.83-6.87,2.53l-.57-1.65c.82-.24,1.84-.57,2.94-.95v-7.7h-2.57v-1.54h2.57v-5.08h1.69v5.08h2.28v1.54h-2.28v7.13l2.47-.86,.33,1.5Zm11.28,3.87c.33,0,.68-.02,.8-.09,.19-.04,.35-.22,.42-.46,.05-.31,.07-.99,.09-1.87,.35,.29,.94,.57,1.41,.7-.05,.86-.14,1.76-.28,2.13-.19,.33-.45,.57-.87,.68-.35,.11-.99,.18-1.44,.18h-1.58c-.54,0-1.25-.11-1.6-.37-.42-.26-.59-.62-.59-1.78v-3.26h-2.1c-.38,3.17-1.58,4.84-5.86,5.79-.17-.37-.61-.99-.92-1.28,3.81-.73,4.83-1.96,5.13-4.51h-2.45v-6.23h10.69v6.23h-2.85v3.41c0,.33,.02,.55,.21,.62,.14,.09,.35,.11,.64,.11h1.13Zm2.12-11.51h-13.07v-1.41h3.32c-.12-.59-.42-1.45-.73-2.11l1.44-.29c.31,.68,.71,1.61,.85,2.18l-.87,.22h3.91c.35-.7,.78-1.67,.99-2.33l1.63,.33c-.35,.7-.73,1.41-1.04,2h3.58v1.41Zm-.61-4h-11.75v-1.39h5.09c-.19-.48-.45-.99-.66-1.45l1.62-.29c.28,.53,.59,1.19,.8,1.74h4.9v1.39Zm-9.7,7.7h7.39v-1.43h-7.39v1.43Zm0,2.55h7.39v-1.47h-7.39v1.47Z"/>
    <path d="M789.24,551.95l1.2,.37c-1.22,8.63-4.85,13.8-9.84,16.37-.28-.42-.99-1.06-1.44-1.34,2.73-1.32,5.01-3.37,6.69-6.27-.89-1.08-2.42-2.51-3.81-3.7-.47,.77-.96,1.43-1.48,2.05-.28-.29-1.06-.81-1.44-1.03,2.14-2.27,3.63-5.9,4.47-9.73l1.72,.31c-.26,1.06-.52,2.07-.85,3.06h4.43l.35-.09Zm-5.34,1.63c-.33,.86-.71,1.69-1.13,2.49,1.32,1.03,2.85,2.35,3.88,3.43,.75-1.72,1.34-3.67,1.74-5.92h-4.5Zm11,1.72c2.02,1.5,4.57,3.59,5.82,4.97l-1.39,1.12c-1.06-1.25-3.2-3.1-5.06-4.58v11.95h-1.79v-20.07h1.79v7.08l.64-.48Z"/>
    <path d="M810.73,566.69c0,.84-.19,1.32-.75,1.61-.56,.26-1.44,.29-2.94,.29-.07-.4-.26-1.1-.47-1.52,1.01,.02,1.91,.02,2.19,.02,.28-.02,.4-.13,.4-.42v-5.99c-.99,.57-1.96,1.1-2.83,1.61l-.66-1.32c-.16,2.71-.63,5.61-1.74,7.81-.31-.24-1.01-.62-1.41-.77,1.58-3.08,1.7-7.46,1.7-10.67v-7.85h6.52v17.21Zm-4.94-9.37c0,1.03-.02,2.2-.09,3.41,.94-.35,2.17-.88,3.46-1.47v-2.51l-.9,.68c-.52-.7-1.55-1.78-2.47-2.62v2.51Zm0-6.34v3.41l.8-.57c.92,.77,1.95,1.76,2.57,2.46v-5.3h-3.37Zm17.49,7.7c-.89,2.71-2.38,4.82-4.31,6.45,1.48,1.01,3.2,1.74,5.18,2.2-.42,.35-.89,.99-1.15,1.43-2.05-.57-3.86-1.45-5.39-2.6-1.67,1.14-3.58,1.98-5.6,2.58-.19-.44-.61-1.06-.94-1.41,1.86-.46,3.67-1.21,5.27-2.25-1.51-1.41-2.68-3.12-3.53-5.1l.33-.11h-1.2v-1.54h9.94l.28-.07,1.13,.42Zm-7.44-6.73c0,1.94-.64,4.27-3.49,5.83-.21-.33-.82-.9-1.13-1.14,2.57-1.36,2.99-3.15,2.99-4.71v-2.42h7.16v5.13c0,.59,.05,.79,.35,.79h1.29c.26,0,.73-.04,1.01-.11,.02,.42,.09,.99,.14,1.36-.28,.09-.73,.11-1.11,.11h-1.46c-1.55,0-1.88-.62-1.88-2.2v-3.54h-3.88v.9Zm-1.39,7.92c.75,1.61,1.84,3.06,3.2,4.27,1.41-1.17,2.59-2.6,3.34-4.27h-6.55Z"/>
    <path d="M833.18,564.31c-1.39,1.58-3.63,3.06-5.58,4-.26-.26-.94-.84-1.32-1.08,2-.81,4.07-2.09,5.3-3.45l1.6,.53Zm14.24-2.42v1.34h-9.65v5.59h-1.72v-5.59h-9.58v-1.34h20.95Zm-14.08-10.98h-6.62v-1.36h20.25v1.36h-6.64v1.69h5.49v5.02h-17.68v-5.02h5.2v-1.69Zm-4,9.46v-1.3h15.23v1.3h-15.23Zm.42-4h3.58v-2.53h-3.58v2.53Zm8.9-5.46h-3.7v1.69h3.7v-1.69Zm-3.7,5.46h3.7v-2.53h-3.7v2.53Zm5.37-2.53v2.53h3.77v-2.53h-3.77Zm1.25,10.01c1.91,.97,4.4,2.42,5.7,3.43l-1.34,.95c-1.2-.99-3.67-2.49-5.6-3.52l1.25-.86Z"/>
    <path d="M869.98,560.42c-1.34,1.08-3.06,2.2-4.54,3.06,1.62,1.43,3.58,2.51,5.91,3.15-.38,.33-.89,.97-1.15,1.41-4.83-1.52-8.12-4.82-9.91-9.42-1.01,1.03-2.28,2.02-3.67,2.9v4.86l5.7-1.61c.05,.44,.19,1.08,.28,1.41-6.52,1.96-7.37,2.22-7.91,2.57-.12-.42-.47-1.12-.75-1.5,.38-.18,.89-.57,.89-1.43v-3.26c-1.34,.73-2.75,1.32-4.05,1.78-.24-.4-.75-.99-1.13-1.32,2.92-.86,6.24-2.57,8.45-4.42h-7.77v-1.41h9.23v-1.96h-7.11v-1.36h7.11v-1.85h-8.31v-1.41h8.31v-1.96h1.74v1.96h8.57v1.41h-8.57v1.85h7.51v1.36h-7.51v1.96h9.3v1.41h-8.62c.64,1.45,1.46,2.75,2.5,3.89,1.41-.9,3.06-2.11,4.07-3.04l1.44,.95Z"/>
    <path d="M881.86,563.01c-2.94,.81-6.07,1.67-8.36,2.31l-.47-1.56c1.04-.24,2.31-.55,3.7-.92v-5.32h-2.97v-1.52h2.97v-4.69h-3.25v-1.5h8.03v1.5h-3.11v4.69h2.9v1.52h-2.9v4.91l3.25-.86,.21,1.45Zm11.04,4.18c.54,0,.64-.33,.71-2.6,.33,.29,1.04,.53,1.46,.64-.12,2.68-.57,3.37-1.98,3.37h-2.28c-1.67,0-2.09-.46-2.09-2.05v-4.88h-2.31c-.47,3.5-1.74,5.9-6.31,7.22-.17-.37-.64-1.03-.99-1.34,4.14-1.06,5.2-3.04,5.58-5.88h-2.1v-12.04h11v12.04h-3.2v4.88c0,.55,.09,.64,.68,.64h1.84Zm-8.66-13.97h7.63v-2.2h-7.63v2.2Zm0,3.5h7.63v-2.2h-7.63v2.2Zm0,3.56h7.63v-2.25h-7.63v2.25Z"/>
    <path d="M904.63,559.67s-.02,.51-.05,.73c-.33,4.97-.66,6.84-1.29,7.53-.42,.44-.87,.59-1.53,.64-.59,.04-1.65,.04-2.73-.02-.02-.46-.19-1.08-.47-1.5,1.06,.09,2.07,.09,2.47,.09,.38,0,.61-.02,.8-.22,.45-.42,.75-1.94,1.04-5.74h-5.89c.31-1.65,.68-4.27,.87-6.27h4.92v-3.52h-5.53v-1.52h7.16v6.54h-5.13c-.14,1.12-.28,2.27-.45,3.28h5.82Zm12.29,9.24c-.17-.44-.4-.92-.68-1.47-4.05,.31-8.26,.59-11.23,.79l-.24-1.58c1.53-.07,3.53-.18,5.7-.31v-3.28h-4.73v-5.79h4.73v-2.13h1.7v2.13h4.9v5.79h-4.9v3.17l3.23-.2c-.45-.66-.92-1.36-1.39-1.94l1.44-.59c1.22,1.45,2.52,3.41,3.01,4.73l-1.53,.68Zm-.26-12.92c-.26-.42-.59-.95-1.04-1.52-8.22,.68-9.18,.77-9.77,.99-.09-.31-.38-1.03-.57-1.43,.35-.07,.78-.42,1.22-.92,.49-.48,2.05-2.44,3.01-4.31l1.79,.42c-1.04,1.65-2.31,3.28-3.51,4.55l6.85-.51c-.59-.66-1.2-1.34-1.79-1.91l1.25-.73c1.44,1.39,3.13,3.3,3.86,4.53l-1.32,.84Zm-6.19,5.7v-3.06h-3.18v3.06h3.18Zm1.7-3.06v3.06h3.27v-3.06h-3.27Z"/>
    <path d="M930.71,560.18c-3.65,.29-7.42,.55-10.1,.77l-.09-1.25c1.27-.07,2.85-.15,4.59-.29v-1.5h-3.56v-1.1h3.56v-1.23h1.6v1.23h3.67v1.1h-3.67v1.41l4.03-.29-.02,1.14Zm-5.72-6.8c-.4,1.65-1.79,2.6-3.74,3.1-.12-.26-.42-.77-.71-1.06,1.55-.31,2.71-.9,3.06-2.05h-2.94v-1.14h4.45v-1.19h-3.51v-1.08h3.51v-1.3h1.6v1.3h3.58v1.08h-3.58v1.19h4.54v1.14h-3.11v.81c0,.46,.02,.59,.35,.59h1.22c.28,0,.78-.02,1.04-.09,.02,.33,.05,.7,.09,1.01-.21,.09-.68,.11-1.08,.11h-1.55c-1.2,0-1.44-.51-1.44-1.65v-.79h-1.79Zm14.81,8.93s-.05,.48-.09,.7c-.38,3.21-.73,4.62-1.37,5.17-.47,.42-.92,.53-1.67,.57-.66,.02-1.98,.02-3.32-.04-.02-.46-.24-1.08-.52-1.5,1.34,.11,2.68,.13,3.15,.13s.71-.02,.92-.18c.4-.31,.71-1.3,.99-3.54h-6.76c-1.15,2.75-3.6,4.4-9.61,5.19-.12-.37-.49-1.01-.8-1.34,5.2-.62,7.49-1.83,8.55-3.85h-7.25v-1.32h7.75c.14-.42,.24-.86,.31-1.34h1.77c-.07,.48-.17,.9-.28,1.34h8.24Zm-.02-11c0,4.88,0,8.49,.94,8.49,.28,0,.4-1.17,.42-2.73,.31,.31,.73,.68,1.04,.88-.14,2.38-.42,3.26-1.6,3.26-2.17,0-2.33-3.48-2.38-8.56h-2.4c-.09,1.19-.26,2.27-.52,3.23,.97,.57,1.86,1.12,2.45,1.54l-.8,1.19c-.52-.37-1.27-.88-2.07-1.41-.64,1.5-1.6,2.66-3.11,3.56-.17-.29-.66-.81-1.01-1.03,1.41-.84,2.28-1.94,2.83-3.34-.75-.44-1.51-.9-2.17-1.28l.78-1.01c.54,.29,1.15,.64,1.77,.99,.17-.75,.28-1.56,.35-2.44h-2.5v-1.34h2.59c.02-.81,.05-1.72,.07-2.64h1.53c-.02,.92-.05,1.83-.09,2.64h3.88Z"/>
  </g>
  <path class="cls-3" d="M865.09,104.73l-22.48,40.94s6.32-3.13,15.4-4.45c-.04,1.05-.08,2.16-.12,3.34-.03,.89-.06,1.81-.1,2.77-.04,.98-.09,2-.14,3.05-.05,1.05-.1,2.13-.15,3.25-.07,1.08-.14,2.19-.21,3.33-.04,.57-.07,1.15-.11,1.73-.04,.59-.07,1.18-.13,1.78-.1,1.21-.21,2.45-.31,3.71-.05,.63-.11,1.27-.16,1.92-.07,.64-.13,1.29-.2,1.95-.14,1.31-.28,2.65-.42,4.01-.17,1.36-.34,2.74-.51,4.14-.09,.7-.17,1.41-.26,2.12-.1,.71-.2,1.43-.31,2.15-.21,1.44-.41,2.9-.64,4.38-.24,1.47-.49,2.97-.74,4.48-.23,1.51-.54,3.03-.82,4.57-.14,.77-.28,1.54-.43,2.32l-.11,.58-.12,.58c-.08,.39-.16,.78-.24,1.17-1.23,6.25-2.75,12.66-4.46,19.13-.84,3.24-1.79,6.48-2.74,9.74-.5,1.62-1,3.24-1.51,4.87l-.19,.61-.2,.61-.4,1.21-.8,2.43c-2.18,6.46-4.55,12.87-7.09,19.1-2.56,6.22-5.27,12.27-8.05,18.06-.71,1.44-1.41,2.87-2.11,4.29l-.26,.53-.27,.52c-.18,.35-.36,.7-.54,1.04-.36,.69-.71,1.39-1.07,2.07-.36,.69-.71,1.37-1.06,2.05-.36,.67-.73,1.34-1.09,2.01-.36,.67-.72,1.33-1.07,1.98-.36,.66-.7,1.31-1.07,1.95-1.46,2.56-2.85,5.07-4.29,7.45-.35,.6-.71,1.19-1.05,1.78-.35,.59-.69,1.17-1.05,1.74-.71,1.14-1.4,2.26-2.08,3.35-.34,.55-.67,1.09-1.01,1.62-.34,.53-.68,1.05-1.02,1.57-.67,1.04-1.33,2.05-1.97,3.04-.32,.5-.65,.97-.97,1.45-.32,.47-.64,.94-.95,1.4-.62,.92-1.23,1.82-1.82,2.69-1.21,1.72-2.34,3.32-3.38,4.81-.13,.19-.26,.37-.39,.55-.13,.18-.26,.36-.39,.53-.26,.35-.51,.69-.76,1.03-.49,.67-.96,1.31-1.41,1.92-.45,.61-.87,1.18-1.27,1.72-.41,.53-.79,1.03-1.15,1.5-.71,.93-1.32,1.72-1.81,2.36-.98,1.29-1.52,1.96-1.52,1.96,0,0,.58-.64,1.65-1.85,.53-.61,1.19-1.36,1.97-2.24,.39-.44,.81-.91,1.25-1.42,.44-.51,.9-1.06,1.39-1.63,.49-.58,1-1.18,1.54-1.82,.27-.32,.55-.64,.83-.98,.14-.17,.28-.34,.43-.51,.14-.17,.28-.35,.43-.52,1.15-1.41,2.39-2.94,3.72-4.58,.65-.83,1.32-1.69,2.01-2.57,.34-.44,.69-.89,1.05-1.34,.35-.45,.72-.91,1.07-1.39,.71-.95,1.44-1.92,2.18-2.91,.37-.5,.75-1,1.13-1.51,.38-.51,.75-1.04,1.13-1.56,.76-1.05,1.53-2.13,2.32-3.23,.4-.55,.78-1.11,1.17-1.68,.39-.57,.79-1.14,1.18-1.71,1.61-2.29,3.19-4.72,4.84-7.21,.42-.62,.81-1.26,1.22-1.89,.4-.64,.81-1.28,1.22-1.93,.41-.65,.82-1.3,1.24-1.95,.4-.66,.81-1.33,1.21-2,.41-.67,.82-1.34,1.23-2.02,.21-.34,.41-.68,.62-1.02l.31-.51,.3-.52c.8-1.38,1.61-2.78,2.43-4.19,3.22-5.67,6.39-11.62,9.43-17.77,3.02-6.16,5.89-12.52,8.57-18.97l.99-2.42,.5-1.21,.25-.61,.24-.61c.63-1.63,1.26-3.25,1.89-4.88,1.2-3.27,2.41-6.52,3.5-9.79,2.22-6.52,4.23-13.01,5.94-19.35,.11-.4,.22-.79,.33-1.19l.16-.59,.15-.59c.2-.79,.4-1.57,.61-2.36,.4-1.57,.82-3.11,1.17-4.65,.36-1.54,.72-3.07,1.08-4.57,.34-1.51,.65-3.01,.97-4.48,.16-.74,.32-1.47,.47-2.2,.14-.73,.28-1.46,.42-2.18,.28-1.44,.55-2.86,.83-4.26,.24-1.4,.48-2.78,.72-4.13,.12-.68,.23-1.35,.35-2.01,.1-.67,.21-1.32,.31-1.98,.2-1.3,.4-2.58,.59-3.83,.1-.62,.18-1.25,.26-1.87,.08-.62,.16-1.23,.24-1.83,.16-1.21,.32-2.38,.47-3.52,.13-1.11,.25-2.19,.37-3.23,.12-1.04,.24-2.06,.35-3.03,.1-1,.2-1.97,.3-2.89,.17-1.6,.32-3.09,.47-4.45,5.33,.76,10.92,2.51,16.34,5.85l-23.43-42.23c-.08-.14-.29-.14-.36,0Z"/>
</svg>