<?xml version="1.0" encoding="UTF-8"?>
<svg id="_圖層_3" data-name="圖層 3" xmlns="http://www.w3.org/2000/svg" viewBox="0 0 936.72 585.95">
  <defs>
    <style>
      .cls-1 {
        stroke: #000;
        stroke-miterlimit: 10;
      }

      .cls-1, .cls-2, .cls-3 {
        fill: none;
      }

      .cls-4 {
        fill: #b31c31;
      }

      .cls-2 {
        stroke: #005598;
      }

      .cls-2, .cls-3 {
        stroke-linecap: round;
        stroke-linejoin: round;
        stroke-width: 4px;
      }

      .cls-5 {
        fill: #005598;
      }

      .cls-3 {
        stroke: #b31c31;
      }

      .cls-6 {
        fill: #231815;
      }
    </style>
  </defs>
  <g>
    <line class="cls-1" x1="71.36" y1="537.74" x2="881.69" y2="537.74"/>
    <line class="cls-1" x1="73.07" y1="537.74" x2="73.07" y2="550.53"/>
    <line class="cls-1" x1="164.35" y1="537.74" x2="164.35" y2="550.53"/>
    <line class="cls-1" x1="250.51" y1="537.74" x2="250.51" y2="550.53"/>
    <line class="cls-1" x1="345.2" y1="537.74" x2="345.2" y2="550.53"/>
    <line class="cls-1" x1="434.78" y1="537.74" x2="434.78" y2="550.53"/>
    <line class="cls-1" x1="526.06" y1="537.74" x2="526.06" y2="550.53"/>
    <line class="cls-1" x1="617.34" y1="537.74" x2="617.34" y2="550.53"/>
    <line class="cls-1" x1="709.38" y1="537.74" x2="709.38" y2="550.53"/>
    <line class="cls-1" x1="802.37" y1="537.74" x2="802.37" y2="550.53"/>
  </g>
  <g>
    <path class="cls-6" d="M1.24,12.5C1.24,6.77,3.43,3.69,7.02,3.69s5.76,3.1,5.76,8.81-2.17,8.93-5.76,8.93S1.24,18.24,1.24,12.5Zm9.29,0c0-5.02-1.41-7.06-3.51-7.06s-3.54,2.04-3.54,7.06,1.41,7.18,3.54,7.18,3.51-2.16,3.51-7.18Z"/>
    <path class="cls-6" d="M15.86,19.78c0-1.01,.76-1.7,1.67-1.7s1.67,.7,1.67,1.7-.76,1.66-1.67,1.66-1.67-.67-1.67-1.66Z"/>
    <path class="cls-6" d="M22.18,16.75c0-2.23,1.72-3.77,3.41-4.63v-.1c-1.34-.86-2.5-2.14-2.5-3.96,0-2.62,2.2-4.37,5.08-4.37,3.16,0,5.08,1.87,5.08,4.54,0,1.8-1.39,3.34-2.47,4.13v.12c1.59,.91,3.13,2.11,3.13,4.39,0,2.57-2.32,4.56-5.81,4.56s-5.91-1.97-5.91-4.68Zm9.52,.07c0-2.23-2.27-3.02-4.9-4.01-1.46,.89-2.53,2.16-2.53,3.74,0,1.87,1.64,3.24,3.86,3.24s3.56-1.22,3.56-2.98Zm-.43-8.47c0-1.68-1.14-3.02-3.13-3.02-1.72,0-2.95,1.08-2.95,2.74,0,2.06,2,2.93,4.17,3.74,1.24-1.06,1.92-2.18,1.92-3.46Z"/>
    <path class="cls-6" d="M36.52,19.63l1.29-1.37c.71,.84,1.82,1.34,2.95,1.34,2.53,0,4.67-1.87,4.77-7.34-1.16,1.37-2.75,2.21-4.22,2.21-3.13,0-5.15-1.8-5.15-5.3,0-3.26,2.42-5.47,5.3-5.47,3.56,0,6.21,2.74,6.21,8.23,0,6.86-3.26,9.5-6.84,9.5-1.92,0-3.33-.77-4.32-1.8Zm5.18-6.79c1.16,0,2.63-.7,3.79-2.33-.3-3.31-1.72-5.09-4.02-5.09-1.77,0-3.13,1.49-3.13,3.74s1.11,3.67,3.36,3.67Z"/>
    <path class="cls-6" d="M1.24,88.5c0-5.74,2.2-8.81,5.78-8.81s5.76,3.1,5.76,8.81-2.17,8.93-5.76,8.93-5.78-3.19-5.78-8.93Zm9.29,0c0-5.02-1.41-7.06-3.51-7.06s-3.54,2.04-3.54,7.06,1.41,7.18,3.54,7.18,3.51-2.16,3.51-7.18Z"/>
    <path class="cls-6" d="M15.86,95.78c0-1.01,.76-1.7,1.67-1.7s1.67,.7,1.67,1.7-.76,1.66-1.67,1.66-1.67-.67-1.67-1.66Z"/>
    <path class="cls-6" d="M22.18,92.75c0-2.23,1.72-3.77,3.41-4.63v-.1c-1.34-.86-2.5-2.14-2.5-3.96,0-2.62,2.2-4.37,5.08-4.37,3.16,0,5.08,1.87,5.08,4.54,0,1.8-1.39,3.34-2.47,4.13v.12c1.59,.91,3.13,2.11,3.13,4.39,0,2.57-2.32,4.56-5.81,4.56s-5.91-1.97-5.91-4.68Zm9.52,.07c0-2.23-2.27-3.02-4.9-4.01-1.46,.89-2.53,2.16-2.53,3.74,0,1.87,1.64,3.24,3.86,3.24s3.56-1.22,3.56-2.98Zm-.43-8.47c0-1.68-1.14-3.02-3.13-3.02-1.72,0-2.95,1.08-2.95,2.74,0,2.06,2,2.93,4.17,3.74,1.24-1.06,1.92-2.18,1.92-3.46Z"/>
    <path class="cls-6" d="M45.26,81.88h-8.96v-1.87h11.59v1.34c-4.24,5.18-5.15,9.1-5.43,15.77h-2.4c.3-6.46,1.67-10.54,5.2-15.24Z"/>
    <path class="cls-6" d="M1.24,164.5c0-5.74,2.2-8.81,5.78-8.81s5.76,3.1,5.76,8.81-2.17,8.93-5.76,8.93-5.78-3.19-5.78-8.93Zm9.29,0c0-5.02-1.41-7.06-3.51-7.06s-3.54,2.04-3.54,7.06,1.41,7.18,3.54,7.18,3.51-2.16,3.51-7.18Z"/>
    <path class="cls-6" d="M15.86,171.78c0-1.01,.76-1.7,1.67-1.7s1.67,.7,1.67,1.7-.76,1.66-1.67,1.66-1.67-.67-1.67-1.66Z"/>
    <path class="cls-6" d="M22.18,168.75c0-2.23,1.72-3.77,3.41-4.63v-.1c-1.34-.86-2.5-2.14-2.5-3.96,0-2.62,2.2-4.37,5.08-4.37,3.16,0,5.08,1.87,5.08,4.54,0,1.8-1.39,3.34-2.47,4.13v.12c1.59,.91,3.13,2.11,3.13,4.39,0,2.57-2.32,4.56-5.81,4.56s-5.91-1.97-5.91-4.68Zm9.52,.07c0-2.23-2.27-3.02-4.9-4.01-1.46,.89-2.53,2.16-2.53,3.74,0,1.87,1.64,3.24,3.86,3.24s3.56-1.22,3.56-2.98Zm-.43-8.47c0-1.68-1.14-3.02-3.13-3.02-1.72,0-2.95,1.08-2.95,2.74,0,2.06,2,2.93,4.17,3.74,1.24-1.06,1.92-2.18,1.92-3.46Z"/>
    <path class="cls-6" d="M35.76,171.1l1.14-1.44c1.06,1.01,2.4,1.94,4.55,1.94s3.94-1.51,3.94-3.89-1.52-3.79-3.84-3.79c-1.24,0-2.02,.38-3.08,1.06l-1.24-.74,.58-8.23h9.02v1.87h-7l-.45,5.11c.83-.43,1.64-.72,2.75-.72,3.08,0,5.58,1.68,5.58,5.38s-2.93,5.78-6.06,5.78c-2.88,0-4.65-1.15-5.88-2.33Z"/>
    <path class="cls-6" d="M1.24,239.5c0-5.74,2.2-8.81,5.78-8.81s5.76,3.1,5.76,8.81-2.17,8.93-5.76,8.93-5.78-3.19-5.78-8.93Zm9.29,0c0-5.02-1.41-7.06-3.51-7.06s-3.54,2.04-3.54,7.06,1.41,7.18,3.54,7.18,3.51-2.16,3.51-7.18Z"/>
    <path class="cls-6" d="M15.86,246.78c0-1.01,.76-1.7,1.67-1.7s1.67,.7,1.67,1.7-.76,1.66-1.67,1.66-1.67-.67-1.67-1.66Z"/>
    <path class="cls-6" d="M22.18,243.75c0-2.23,1.72-3.77,3.41-4.63v-.1c-1.34-.86-2.5-2.14-2.5-3.96,0-2.62,2.2-4.37,5.08-4.37,3.16,0,5.08,1.87,5.08,4.54,0,1.8-1.39,3.34-2.47,4.13v.12c1.59,.91,3.13,2.11,3.13,4.39,0,2.57-2.32,4.56-5.81,4.56s-5.91-1.97-5.91-4.68Zm9.52,.07c0-2.23-2.27-3.02-4.9-4.01-1.46,.89-2.53,2.16-2.53,3.74,0,1.87,1.64,3.24,3.86,3.24s3.56-1.22,3.56-2.98Zm-.43-8.47c0-1.68-1.14-3.02-3.13-3.02-1.72,0-2.95,1.08-2.95,2.74,0,2.06,2,2.93,4.17,3.74,1.24-1.06,1.92-2.18,1.92-3.46Z"/>
    <path class="cls-6" d="M35.79,246.03l1.16-1.44c1.09,1.08,2.5,2.02,4.6,2.02s3.76-1.22,3.76-3.14c0-2.04-1.49-3.38-5.76-3.38v-1.68c3.81,0,5.13-1.42,5.13-3.22,0-1.66-1.21-2.71-3.13-2.71-1.49,0-2.8,.72-3.84,1.73l-1.24-1.37c1.39-1.25,3.03-2.14,5.18-2.14,3.11,0,5.38,1.56,5.38,4.34,0,2.06-1.34,3.38-3.28,4.06v.1c2.17,.5,3.91,2.02,3.91,4.37,0,3.05-2.65,4.87-5.93,4.87-2.9,0-4.72-1.15-5.93-2.4Z"/>
    <path class="cls-6" d="M1.24,313.5c0-5.74,2.2-8.81,5.78-8.81s5.76,3.1,5.76,8.81-2.17,8.93-5.76,8.93-5.78-3.19-5.78-8.93Zm9.29,0c0-5.02-1.41-7.06-3.51-7.06s-3.54,2.04-3.54,7.06,1.41,7.18,3.54,7.18,3.51-2.16,3.51-7.18Z"/>
    <path class="cls-6" d="M15.86,320.78c0-1.01,.76-1.7,1.67-1.7s1.67,.7,1.67,1.7-.76,1.66-1.67,1.66-1.67-.67-1.67-1.66Z"/>
    <path class="cls-6" d="M22.18,317.75c0-2.23,1.72-3.77,3.41-4.63v-.1c-1.34-.86-2.5-2.14-2.5-3.96,0-2.62,2.2-4.37,5.08-4.37,3.16,0,5.08,1.87,5.08,4.54,0,1.8-1.39,3.34-2.47,4.13v.12c1.59,.91,3.13,2.11,3.13,4.39,0,2.57-2.32,4.56-5.81,4.56s-5.91-1.97-5.91-4.68Zm9.52,.07c0-2.23-2.27-3.02-4.9-4.01-1.46,.89-2.53,2.16-2.53,3.74,0,1.87,1.64,3.24,3.86,3.24s3.56-1.22,3.56-2.98Zm-.43-8.47c0-1.68-1.14-3.02-3.13-3.02-1.72,0-2.95,1.08-2.95,2.74,0,2.06,2,2.93,4.17,3.74,1.24-1.06,1.92-2.18,1.92-3.46Z"/>
    <path class="cls-6" d="M37.28,320.3h4.12v-12.63h-3.28v-1.42c1.64-.26,2.83-.67,3.84-1.25h1.77v15.29h3.71v1.82h-10.15v-1.82Z"/>
    <path class="cls-6" d="M1.24,387.5c0-5.74,2.2-8.81,5.78-8.81s5.76,3.1,5.76,8.81-2.17,8.93-5.76,8.93-5.78-3.19-5.78-8.93Zm9.29,0c0-5.02-1.41-7.06-3.51-7.06s-3.54,2.04-3.54,7.06,1.41,7.18,3.54,7.18,3.51-2.16,3.51-7.18Z"/>
    <path class="cls-6" d="M15.86,394.78c0-1.01,.76-1.7,1.67-1.7s1.67,.7,1.67,1.7-.76,1.66-1.67,1.66-1.67-.67-1.67-1.66Z"/>
    <path class="cls-6" d="M31.24,380.88h-8.96v-1.87h11.59v1.34c-4.24,5.18-5.15,9.1-5.43,15.77h-2.4c.3-6.46,1.67-10.54,5.2-15.24Z"/>
    <path class="cls-6" d="M36.52,394.63l1.29-1.37c.71,.84,1.82,1.34,2.95,1.34,2.53,0,4.67-1.87,4.77-7.34-1.16,1.37-2.75,2.21-4.22,2.21-3.13,0-5.15-1.8-5.15-5.3,0-3.26,2.42-5.47,5.3-5.47,3.56,0,6.21,2.74,6.21,8.23,0,6.86-3.26,9.5-6.84,9.5-1.92,0-3.33-.77-4.32-1.8Zm5.18-6.79c1.16,0,2.63-.7,3.79-2.33-.3-3.31-1.72-5.09-4.02-5.09-1.77,0-3.13,1.49-3.13,3.74s1.11,3.67,3.36,3.67Z"/>
    <path class="cls-6" d="M1.24,461.5c0-5.74,2.2-8.81,5.78-8.81s5.76,3.1,5.76,8.81-2.17,8.93-5.76,8.93-5.78-3.19-5.78-8.93Zm9.29,0c0-5.02-1.41-7.06-3.51-7.06s-3.54,2.04-3.54,7.06,1.41,7.18,3.54,7.18,3.51-2.16,3.51-7.18Z"/>
    <path class="cls-6" d="M15.86,468.78c0-1.01,.76-1.7,1.67-1.7s1.67,.7,1.67,1.7-.76,1.66-1.67,1.66-1.67-.67-1.67-1.66Z"/>
    <path class="cls-6" d="M31.24,454.88h-8.96v-1.87h11.59v1.34c-4.24,5.18-5.15,9.1-5.43,15.77h-2.4c.3-6.46,1.67-10.54,5.2-15.24Z"/>
    <path class="cls-6" d="M45.26,454.88h-8.96v-1.87h11.59v1.34c-4.24,5.18-5.15,9.1-5.43,15.77h-2.4c.3-6.46,1.67-10.54,5.2-15.24Z"/>
    <path class="cls-6" d="M1.24,535.5c0-5.74,2.2-8.81,5.78-8.81s5.76,3.1,5.76,8.81-2.17,8.93-5.76,8.93-5.78-3.19-5.78-8.93Zm9.29,0c0-5.02-1.41-7.06-3.51-7.06s-3.54,2.04-3.54,7.06,1.41,7.18,3.54,7.18,3.51-2.16,3.51-7.18Z"/>
    <path class="cls-6" d="M15.86,542.78c0-1.01,.76-1.7,1.67-1.7s1.67,.7,1.67,1.7-.76,1.66-1.67,1.66-1.67-.67-1.67-1.66Z"/>
    <path class="cls-6" d="M31.24,528.88h-8.96v-1.87h11.59v1.34c-4.24,5.18-5.15,9.1-5.43,15.77h-2.4c.3-6.46,1.67-10.54,5.2-15.24Z"/>
    <path class="cls-6" d="M35.76,542.1l1.14-1.44c1.06,1.01,2.4,1.94,4.55,1.94s3.94-1.51,3.94-3.89-1.52-3.79-3.84-3.79c-1.24,0-2.02,.38-3.08,1.06l-1.24-.74,.58-8.23h9.02v1.87h-7l-.45,5.11c.83-.43,1.64-.72,2.75-.72,3.08,0,5.58,1.68,5.58,5.38s-2.93,5.79-6.06,5.79c-2.88,0-4.65-1.15-5.88-2.33Z"/>
  </g>
  <g>
    <path class="cls-6" d="M898.13,20.3h4.12V7.67h-3.28v-1.42c1.64-.26,2.83-.67,3.84-1.25h1.77v15.29h3.71v1.82h-10.15v-1.82Z"/>
    <path class="cls-6" d="M911.03,20.82c5.43-5.14,8.49-8.21,8.49-11.02,0-1.94-1.11-3.34-3.41-3.34-1.52,0-2.83,.91-3.84,2.04l-1.34-1.22c1.51-1.56,3.11-2.59,5.45-2.59,3.31,0,5.38,1.99,5.38,5.02,0,3.22-3.08,6.41-7.35,10.68,.96-.07,2.07-.17,3.03-.17h5.23v1.9h-11.64v-1.3Z"/>
    <path class="cls-6" d="M925.18,13.5c0-5.74,2.2-8.81,5.78-8.81s5.76,3.1,5.76,8.81-2.17,8.93-5.76,8.93-5.78-3.19-5.78-8.93Zm9.29,0c0-5.02-1.42-7.06-3.51-7.06s-3.54,2.04-3.54,7.06,1.41,7.18,3.54,7.18,3.51-2.16,3.51-7.18Z"/>
    <path class="cls-6" d="M898.13,108.3h4.12v-12.63h-3.28v-1.42c1.64-.26,2.83-.67,3.84-1.25h1.77v15.29h3.71v1.82h-10.15v-1.82Z"/>
    <path class="cls-6" d="M912.14,108.3h4.12v-12.63h-3.28v-1.42c1.64-.26,2.83-.67,3.84-1.25h1.77v15.29h3.71v1.82h-10.15v-1.82Z"/>
    <path class="cls-6" d="M924.65,108.1l1.14-1.44c1.06,1.01,2.4,1.94,4.55,1.94s3.94-1.51,3.94-3.89-1.52-3.79-3.84-3.79c-1.24,0-2.02,.38-3.08,1.06l-1.24-.74,.58-8.23h9.02v1.87h-7l-.46,5.11c.83-.43,1.64-.72,2.75-.72,3.08,0,5.58,1.68,5.58,5.38s-2.93,5.78-6.06,5.78c-2.88,0-4.65-1.15-5.88-2.33Z"/>
    <path class="cls-6" d="M898.13,196.3h4.12v-12.63h-3.28v-1.42c1.64-.26,2.83-.67,3.84-1.25h1.77v15.29h3.71v1.82h-10.15v-1.82Z"/>
    <path class="cls-6" d="M912.14,196.3h4.12v-12.63h-3.28v-1.42c1.64-.26,2.83-.67,3.84-1.25h1.77v15.29h3.71v1.82h-10.15v-1.82Z"/>
    <path class="cls-6" d="M925.18,189.5c0-5.74,2.2-8.81,5.78-8.81s5.76,3.1,5.76,8.81-2.17,8.93-5.76,8.93-5.78-3.19-5.78-8.93Zm9.29,0c0-5.02-1.42-7.06-3.51-7.06s-3.54,2.04-3.54,7.06,1.41,7.18,3.54,7.18,3.51-2.16,3.51-7.18Z"/>
    <path class="cls-6" d="M898.13,282.3h4.12v-12.63h-3.28v-1.42c1.64-.26,2.83-.67,3.84-1.25h1.77v15.29h3.71v1.82h-10.15v-1.82Z"/>
    <path class="cls-6" d="M911.16,275.5c0-5.74,2.2-8.81,5.78-8.81s5.76,3.1,5.76,8.81-2.17,8.93-5.76,8.93-5.78-3.19-5.78-8.93Zm9.29,0c0-5.02-1.42-7.06-3.51-7.06s-3.54,2.04-3.54,7.06,1.41,7.18,3.54,7.18,3.51-2.16,3.51-7.18Z"/>
    <path class="cls-6" d="M924.65,282.1l1.14-1.44c1.06,1.01,2.4,1.94,4.55,1.94s3.94-1.51,3.94-3.89-1.52-3.79-3.84-3.79c-1.24,0-2.02,.38-3.08,1.06l-1.24-.74,.58-8.23h9.02v1.87h-7l-.46,5.11c.83-.43,1.64-.72,2.75-.72,3.08,0,5.58,1.68,5.58,5.38s-2.93,5.79-6.06,5.79c-2.88,0-4.65-1.15-5.88-2.33Z"/>
    <path class="cls-6" d="M898.13,366.3h4.12v-12.63h-3.28v-1.42c1.64-.26,2.83-.67,3.84-1.25h1.77v15.29h3.71v1.82h-10.15v-1.82Z"/>
    <path class="cls-6" d="M911.16,359.5c0-5.74,2.2-8.81,5.78-8.81s5.76,3.1,5.76,8.81-2.17,8.93-5.76,8.93-5.78-3.19-5.78-8.93Zm9.29,0c0-5.02-1.42-7.06-3.51-7.06s-3.54,2.04-3.54,7.06,1.41,7.18,3.54,7.18,3.51-2.16,3.51-7.18Z"/>
    <path class="cls-6" d="M925.18,359.5c0-5.74,2.2-8.81,5.78-8.81s5.76,3.1,5.76,8.81-2.17,8.93-5.76,8.93-5.78-3.19-5.78-8.93Zm9.29,0c0-5.02-1.42-7.06-3.51-7.06s-3.54,2.04-3.54,7.06,1.41,7.18,3.54,7.18,3.51-2.16,3.51-7.18Z"/>
    <path class="cls-6" d="M911.39,452.63l1.29-1.37c.71,.84,1.82,1.34,2.95,1.34,2.53,0,4.67-1.87,4.77-7.34-1.16,1.37-2.75,2.21-4.22,2.21-3.13,0-5.15-1.8-5.15-5.3,0-3.26,2.42-5.47,5.3-5.47,3.56,0,6.21,2.74,6.21,8.23,0,6.86-3.26,9.5-6.84,9.5-1.92,0-3.33-.77-4.32-1.8Zm5.18-6.79c1.16,0,2.63-.7,3.79-2.33-.3-3.31-1.72-5.09-4.01-5.09-1.77,0-3.13,1.49-3.13,3.74s1.11,3.67,3.36,3.67Z"/>
    <path class="cls-6" d="M924.65,452.1l1.14-1.44c1.06,1.01,2.4,1.94,4.55,1.94s3.94-1.51,3.94-3.89-1.52-3.79-3.84-3.79c-1.24,0-2.02,.38-3.08,1.06l-1.24-.74,.58-8.23h9.02v1.87h-7l-.46,5.11c.83-.43,1.64-.72,2.75-.72,3.08,0,5.58,1.68,5.58,5.38s-2.93,5.79-6.06,5.79c-2.88,0-4.65-1.15-5.88-2.33Z"/>
    <path class="cls-6" d="M911.39,540.63l1.29-1.37c.71,.84,1.82,1.34,2.95,1.34,2.53,0,4.67-1.87,4.77-7.34-1.16,1.37-2.75,2.21-4.22,2.21-3.13,0-5.15-1.8-5.15-5.3,0-3.26,2.42-5.47,5.3-5.47,3.56,0,6.21,2.74,6.21,8.23,0,6.86-3.26,9.5-6.84,9.5-1.92,0-3.33-.77-4.32-1.8Zm5.18-6.79c1.16,0,2.63-.7,3.79-2.33-.3-3.31-1.72-5.09-4.01-5.09-1.77,0-3.13,1.49-3.13,3.74s1.11,3.67,3.36,3.67Z"/>
    <path class="cls-6" d="M925.18,533.5c0-5.74,2.2-8.81,5.78-8.81s5.76,3.1,5.76,8.81-2.17,8.93-5.76,8.93-5.78-3.19-5.78-8.93Zm9.29,0c0-5.02-1.42-7.06-3.51-7.06s-3.54,2.04-3.54,7.06,1.41,7.18,3.54,7.18,3.51-2.16,3.51-7.18Z"/>
  </g>
  <g>
    <path class="cls-6" d="M55.54,579.83h4.12v-12.63h-3.28v-1.42c1.64-.26,2.83-.67,3.84-1.25h1.77v15.29h3.71v1.82h-10.15v-1.82Z"/>
    <path class="cls-6" d="M75.19,562.6h1.67l-7.55,23.35h-1.69l7.58-23.35Z"/>
    <path class="cls-6" d="M77.97,579.57l1.16-1.44c1.09,1.08,2.5,2.02,4.6,2.02s3.76-1.22,3.76-3.14c0-2.04-1.49-3.38-5.76-3.38v-1.68c3.81,0,5.13-1.42,5.13-3.22,0-1.66-1.21-2.71-3.13-2.71-1.49,0-2.8,.72-3.84,1.73l-1.24-1.37c1.39-1.25,3.03-2.14,5.18-2.14,3.11,0,5.38,1.56,5.38,4.34,0,2.06-1.34,3.38-3.28,4.06v.1c2.17,.5,3.91,2.02,3.91,4.37,0,3.05-2.65,4.87-5.93,4.87-2.9,0-4.72-1.15-5.93-2.4Z"/>
    <path class="cls-6" d="M148.94,580.36c5.43-5.14,8.48-8.21,8.48-11.02,0-1.94-1.11-3.34-3.41-3.34-1.52,0-2.83,.91-3.84,2.04l-1.34-1.22c1.52-1.56,3.11-2.59,5.45-2.59,3.31,0,5.38,1.99,5.38,5.02,0,3.22-3.08,6.41-7.35,10.68,.96-.07,2.07-.17,3.03-.17h5.23v1.9h-11.64v-1.3Z"/>
    <path class="cls-6" d="M169.7,562.6h1.67l-7.55,23.35h-1.69l7.58-23.35Z"/>
    <path class="cls-6" d="M172.48,579.57l1.16-1.44c1.09,1.08,2.5,2.02,4.6,2.02s3.76-1.22,3.76-3.14c0-2.04-1.49-3.38-5.76-3.38v-1.68c3.81,0,5.13-1.42,5.13-3.22,0-1.66-1.21-2.71-3.13-2.71-1.49,0-2.8,.72-3.84,1.73l-1.24-1.37c1.39-1.25,3.03-2.14,5.18-2.14,3.11,0,5.38,1.56,5.38,4.34,0,2.06-1.34,3.38-3.28,4.06v.1c2.17,.5,3.91,2.02,3.91,4.37,0,3.05-2.65,4.87-5.93,4.87-2.9,0-4.72-1.15-5.93-2.4Z"/>
    <path class="cls-6" d="M231.76,579.57l1.16-1.44c1.09,1.08,2.5,2.02,4.6,2.02s3.76-1.22,3.76-3.14c0-2.04-1.49-3.38-5.76-3.38v-1.68c3.81,0,5.13-1.42,5.13-3.22,0-1.66-1.21-2.71-3.13-2.71-1.49,0-2.8,.72-3.84,1.73l-1.24-1.37c1.39-1.25,3.03-2.14,5.18-2.14,3.11,0,5.38,1.56,5.38,4.34,0,2.06-1.34,3.38-3.28,4.06v.1c2.17,.5,3.91,2.02,3.91,4.37,0,3.05-2.65,4.87-5.93,4.87-2.9,0-4.72-1.15-5.93-2.4Z"/>
    <path class="cls-6" d="M252.9,562.6h1.67l-7.55,23.35h-1.69l7.58-23.35Z"/>
    <path class="cls-6" d="M255.68,579.57l1.16-1.44c1.09,1.08,2.5,2.02,4.6,2.02s3.76-1.22,3.76-3.14c0-2.04-1.49-3.38-5.76-3.38v-1.68c3.81,0,5.13-1.42,5.13-3.22,0-1.66-1.21-2.71-3.13-2.71-1.49,0-2.8,.72-3.84,1.73l-1.24-1.37c1.39-1.25,3.03-2.14,5.18-2.14,3.11,0,5.38,1.56,5.38,4.34,0,2.06-1.34,3.38-3.28,4.06v.1c2.17,.5,3.91,2.02,3.91,4.37,0,3.05-2.65,4.87-5.93,4.87-2.9,0-4.72-1.15-5.93-2.4Z"/>
    <path class="cls-6" d="M334.13,576.92h-8.08v-1.44l7.7-10.94h2.55v10.63h2.45v1.75h-2.45v4.73h-2.17v-4.73Zm0-1.75v-5.02c0-.89,.08-2.35,.13-3.26h-.1c-.45,.82-.96,1.56-1.49,2.4l-4.22,5.88h5.68Z"/>
    <path class="cls-6" d="M347.41,562.6h1.67l-7.55,23.35h-1.69l7.58-23.35Z"/>
    <path class="cls-6" d="M350.19,579.57l1.16-1.44c1.09,1.08,2.5,2.02,4.6,2.02s3.76-1.22,3.76-3.14c0-2.04-1.49-3.38-5.76-3.38v-1.68c3.81,0,5.13-1.42,5.13-3.22,0-1.66-1.21-2.71-3.13-2.71-1.49,0-2.8,.72-3.84,1.73l-1.24-1.37c1.39-1.25,3.03-2.14,5.18-2.14,3.11,0,5.38,1.56,5.38,4.34,0,2.06-1.34,3.38-3.28,4.06v.1c2.17,.5,3.91,2.02,3.91,4.37,0,3.05-2.65,4.87-5.93,4.87-2.9,0-4.72-1.15-5.93-2.4Z"/>
    <path class="cls-6" d="M420.76,579.64l1.14-1.44c1.06,1.01,2.4,1.94,4.55,1.94s3.94-1.51,3.94-3.89-1.52-3.79-3.84-3.79c-1.24,0-2.02,.38-3.08,1.06l-1.24-.74,.58-8.23h9.02v1.87h-7l-.45,5.11c.83-.43,1.64-.72,2.75-.72,3.08,0,5.58,1.68,5.58,5.38s-2.93,5.79-6.06,5.79c-2.88,0-4.65-1.15-5.88-2.33Z"/>
    <path class="cls-6" d="M441.93,562.6h1.67l-7.55,23.35h-1.69l7.58-23.35Z"/>
    <path class="cls-6" d="M444.71,579.57l1.16-1.44c1.09,1.08,2.5,2.02,4.6,2.02s3.76-1.22,3.76-3.14c0-2.04-1.49-3.38-5.76-3.38v-1.68c3.81,0,5.13-1.42,5.13-3.22,0-1.66-1.21-2.71-3.13-2.71-1.49,0-2.8,.72-3.84,1.73l-1.24-1.37c1.39-1.25,3.03-2.14,5.18-2.14,3.11,0,5.38,1.56,5.38,4.34,0,2.06-1.34,3.38-3.28,4.06v.1c2.17,.5,3.91,2.02,3.91,4.37,0,3.05-2.65,4.87-5.93,4.87-2.9,0-4.72-1.15-5.93-2.4Z"/>
    <path class="cls-6" d="M510.27,573.76c0-6.89,3.26-9.53,6.87-9.53,1.92,0,3.31,.77,4.32,1.8l-1.29,1.37c-.73-.84-1.84-1.34-2.95-1.34-2.55,0-4.67,1.85-4.77,7.3,1.16-1.32,2.75-2.14,4.22-2.14,3.11,0,5.13,1.78,5.13,5.26,0,3.29-2.42,5.5-5.3,5.5-3.56,0-6.21-2.74-6.21-8.21Zm2.22,1.37c.3,3.34,1.69,5.14,3.96,5.14,1.79,0,3.16-1.51,3.16-3.79s-1.11-3.62-3.33-3.62c-1.16,0-2.58,.6-3.79,2.28Z"/>
    <path class="cls-6" d="M530.78,562.6h1.67l-7.55,23.35h-1.69l7.58-23.35Z"/>
    <path class="cls-6" d="M533.56,579.57l1.16-1.44c1.09,1.08,2.5,2.02,4.6,2.02s3.76-1.22,3.76-3.14c0-2.04-1.49-3.38-5.76-3.38v-1.68c3.81,0,5.13-1.42,5.13-3.22,0-1.66-1.21-2.71-3.13-2.71-1.49,0-2.8,.72-3.84,1.73l-1.24-1.37c1.39-1.25,3.03-2.14,5.18-2.14,3.11,0,5.38,1.56,5.38,4.34,0,2.06-1.34,3.38-3.28,4.06v.1c2.17,.5,3.91,2.02,3.91,4.37,0,3.05-2.65,4.87-5.93,4.87-2.9,0-4.72-1.15-5.93-2.4Z"/>
    <path class="cls-6" d="M607.96,566.41h-8.96v-1.87h11.59v1.34c-4.24,5.18-5.15,9.1-5.43,15.77h-2.4c.3-6.46,1.67-10.54,5.2-15.24Z"/>
    <path class="cls-6" d="M619.63,562.6h1.67l-7.55,23.35h-1.69l7.58-23.35Z"/>
    <path class="cls-6" d="M622.41,579.57l1.16-1.44c1.09,1.08,2.5,2.02,4.6,2.02s3.76-1.22,3.76-3.14c0-2.04-1.49-3.38-5.76-3.38v-1.68c3.81,0,5.13-1.42,5.13-3.22,0-1.66-1.21-2.71-3.13-2.71-1.49,0-2.8,.72-3.84,1.73l-1.24-1.37c1.39-1.25,3.03-2.14,5.18-2.14,3.11,0,5.38,1.56,5.38,4.34,0,2.06-1.34,3.38-3.28,4.06v.1c2.17,.5,3.91,2.02,3.91,4.37,0,3.05-2.65,4.87-5.93,4.87-2.9,0-4.72-1.15-5.93-2.4Z"/>
    <path class="cls-6" d="M693.41,577.29c0-2.23,1.72-3.77,3.41-4.63v-.1c-1.34-.86-2.5-2.14-2.5-3.96,0-2.62,2.2-4.37,5.08-4.37,3.16,0,5.08,1.87,5.08,4.54,0,1.8-1.39,3.34-2.47,4.13v.12c1.59,.91,3.13,2.11,3.13,4.39,0,2.57-2.32,4.56-5.81,4.56s-5.91-1.97-5.91-4.68Zm9.52,.07c0-2.23-2.27-3.02-4.9-4.01-1.46,.89-2.53,2.16-2.53,3.74,0,1.87,1.64,3.24,3.86,3.24s3.56-1.22,3.56-2.98Zm-.43-8.47c0-1.68-1.14-3.02-3.13-3.02-1.72,0-2.95,1.08-2.95,2.74,0,2.06,2,2.93,4.17,3.75,1.24-1.06,1.92-2.18,1.92-3.46Z"/>
    <path class="cls-6" d="M714.14,562.6h1.67l-7.55,23.35h-1.69l7.58-23.35Z"/>
    <path class="cls-6" d="M716.92,579.57l1.16-1.44c1.09,1.08,2.5,2.02,4.6,2.02s3.76-1.22,3.76-3.14c0-2.04-1.49-3.38-5.76-3.38v-1.68c3.81,0,5.13-1.42,5.13-3.22,0-1.66-1.21-2.71-3.13-2.71-1.49,0-2.8,.72-3.84,1.73l-1.24-1.37c1.39-1.25,3.03-2.14,5.18-2.14,3.11,0,5.38,1.56,5.38,4.34,0,2.06-1.34,3.38-3.28,4.06v.1c2.17,.5,3.91,2.02,3.91,4.37,0,3.05-2.65,4.87-5.93,4.87-2.9,0-4.72-1.15-5.93-2.4Z"/>
    <path class="cls-6" d="M788.24,580.17l1.29-1.37c.71,.84,1.82,1.34,2.95,1.34,2.53,0,4.67-1.87,4.77-7.34-1.16,1.37-2.75,2.21-4.22,2.21-3.13,0-5.15-1.8-5.15-5.3,0-3.26,2.42-5.47,5.3-5.47,3.56,0,6.21,2.74,6.21,8.23,0,6.86-3.26,9.5-6.84,9.5-1.92,0-3.33-.77-4.32-1.8Zm5.18-6.79c1.16,0,2.63-.7,3.79-2.33-.3-3.31-1.72-5.09-4.02-5.09-1.77,0-3.13,1.49-3.13,3.74s1.11,3.67,3.36,3.67Z"/>
    <path class="cls-6" d="M808.65,562.6h1.67l-7.55,23.35h-1.69l7.58-23.35Z"/>
    <path class="cls-6" d="M811.43,579.57l1.16-1.44c1.09,1.08,2.5,2.02,4.6,2.02s3.76-1.22,3.76-3.14c0-2.04-1.49-3.38-5.76-3.38v-1.68c3.81,0,5.13-1.42,5.13-3.22,0-1.66-1.21-2.71-3.13-2.71-1.49,0-2.8,.72-3.84,1.73l-1.24-1.37c1.39-1.25,3.03-2.14,5.18-2.14,3.11,0,5.38,1.56,5.38,4.34,0,2.06-1.34,3.38-3.28,4.06v.1c2.17,.5,3.91,2.02,3.91,4.37,0,3.05-2.65,4.87-5.93,4.87-2.9,0-4.72-1.15-5.93-2.4Z"/>
  </g>
  <polyline class="cls-3" points="69.61 428.86 83.42 428.86 83.42 437.96 97.23 437.96 97.23 442 100.68 445.88 100.68 452.61 105 455.13 109.31 448.57 116.21 445.88 116.21 442 116.21 437.96 124.84 438.46 128.3 442 135.2 437.45 142.97 432.9 147.28 411.18 152.46 414.21 152.46 420.78 159.36 425.83 163.68 428.86 163.68 435.43 163.68 438.46 167.99 443.51 167.99 445.88 176.62 445.88 181.8 442.5 186.98 441.49 191.29 433.16 191.29 430.88 200.78 428.86 200.78 435.43 205.96 440.48 205.96 437.45 210.28 435.93 210.28 433.16 227.54 433.16 227.54 413.2 232.71 424.82 239.62 423.3 245.66 419.77 245.66 407.13 250.84 407.13 250.84 385.88 257.74 380.36 262.05 375.61 267.23 380.36 267.23 400.06 271.55 398.54 273.25 379.85 287.94 379.86 287.94 399.06 294.85 398.56 299.16 391.48 305.2 389.97 312.11 386.93 325.05 379.36 328.5 399.06 331.09 402.61 335.41 402.61 335.41 388.45 340.58 384.88 347.49 379.36 347.49 372.28 353.53 367.23 363.02 367.23 363.02 364.2 367.34 356.88 371.65 366.72 375.1 356.88 380.28 351.06 391.5 346.01 391.5 356.88 397.54 348.53 397.54 341.46 406.17 334.89 416.52 300.03 420.84 308.88 428.61 300.03 434.65 300.03 434.65 318.72 440.69 300.03 448.45 300.03 455.36 295.99 455.36 289.92 455.36 278.81 462.26 284.22 468.3 289.92 473.48 295.99 473.48 304.58 479.52 308.88 479.52 316.7 486.42 317.71 490.74 326.61 499.37 331.86 511.45 333.38 518.35 331.36 518.35 317.71 522.67 328.83 531.3 322.26 542.52 317.71 542.52 301.54 547.69 286.61 551.15 278.81 558.05 266.18 561.5 268.88 561.5 295.48 561.5 300.53 567.54 280.83 580.1 280.83 587.39 286.61 596.02 291.94 601.2 295.48 607.24 284.22 607.24 274.26 621.91 272.74 621.91 245.46 628.81 240.91 638.3 235.86 642.62 224.24 650.39 221.71 650.39 213.63 656.43 216.66 656.43 228.21 660.74 232.88 665.92 242.43 665.92 247.48 675.41 250.3 682.31 250.3 688.36 238.39 691.81 250.3 691.81 259.61 701.3 265.67 706.48 268.88 713.38 263.65 713.38 247.48 726.33 250.3 731.81 259.61 731.81 276.79 737.54 277.8 737.54 259.1 747.04 250.61 754.8 245.97 754.8 222.22 763.43 213.63 767.75 204.03 767.75 212.11 775.51 217.17 775.51 210.6 787.6 209.59 794.5 215.14 794.5 192.86 800.54 198.61 808.31 198.61 808.31 185.33 815.21 188.37 819.52 198.3 819.52 208.58 832.47 218.68 832.47 192.86 849.73 192.86 856.63 177.76 861.81 147.44 861.81 131.27 872.17 115.94 877.34 119.65 877.34 146.43 885.11 154.51"/>
  <polyline class="cls-2" points="74.77 536.4 83.4 462.14 96.35 477.83 96.35 503.68 100.66 503.68 100.66 450.63 100.66 446.46 105.84 484.48 116.2 484.99 124.83 462.14 124.83 433.45 137.77 427.39 137.77 389.49 144.67 392.02 144.67 402.14 144.67 405.16 159.34 480.94 164.52 478.14 164.52 411.22 169.7 430.92 181.78 405.16 181.78 428.9 186.1 426.38 186.1 369.79 199.04 395.05 199.04 428.4 205.94 426.88 205.94 394.54 211.12 402.14 219.75 374.14 225.79 356.4 230.97 356.4 228.92 379.83 226.66 405.66 230.97 404.14 235.28 384.4 241.33 378.88 248.23 364.73 259.45 258.63 265.49 258.63 265.49 322.8 270.67 321.79 281.02 217.7 285.34 217.7 285.34 255.67 292.24 255.77 292.24 291.98 292.24 295.51 292.24 333.41 302.6 333.41 302.6 356.4 309.5 356.4 309.5 384.4 315.54 371.3 319.85 377.05 325.03 384.4 325.03 415.26 329.35 394.54 336.25 395.56 344.02 438 350.06 438 350.06 344.02 356.96 345.03 356.96 287.93 361.28 260.14 370.77 276.86 370.77 249.83 377.67 250.14 377.67 241.96 389.75 268.4 394.07 217.7 407.01 250.14 407.01 195.98 413.05 195.98 417.37 262.67 423.41 264.19 427.72 289.96 433.76 285.83 433.76 271.26 433.76 232.4 443.26 192.39 449.3 227.74 456.2 227.74 451.02 180.4 460.52 219.72 460.52 174.14 465.69 214.17 471.74 198.14 471.74 232.4 480.36 205.76 489.86 209.11 489.86 156.4 496.76 150.5 501.94 205.76 514.88 205.76 514.88 217.7 520.06 262.67 520.06 223.77 533.87 230.33 539.05 253.58 544.22 202.54 552.42 183.85 558.03 199.66 558.03 210.63 558.03 214.67 558.03 240.44 562.35 227.74 565.8 211.64 565.8 230.33 579.22 229.83 586.51 232.4 586.51 261.66 598.59 238.92 598.59 198.14 612.4 143.38 620.16 143.38 627.93 232.4 636.56 232.4 644.33 185.37 649.5 222.25 661.59 192.39 668.51 288.14 675.39 286.14 684.89 211.64 688.34 271.77 694.38 273.28 694.38 294 707.32 299.56 707.32 345.03 714.23 345.03 714.23 311.85 723.72 294 730.93 262.17 730.93 296.52 736.66 283.75 747.88 288.44 747.88 264.69 753.92 261.66 753.87 249.83 765.14 210.63 774.63 232.4 778.08 192.39 791.89 165.66 791.89 138.38 806.56 138.38 819.51 115.47 819.51 148.99 829.86 161.62 829.86 124.73 840.3 128.78 840.3 105.53 849.71 115.47 849.71 103.01 856.61 115.47 865.24 115.47 877.33 137.87 884.23 80.4"/>
  <g>
    <g>
      <path d="M345.45,497.89v1.32h-8.34c-.06,.54-.14,1.06-.24,1.54h8.26v1.3h-8.62c-.94,2.74-3.08,4.44-8.32,5.34-.12-.38-.5-1-.78-1.34,4.62-.66,6.58-1.94,7.48-4h-6.72v-1.3h7.14c.12-.48,.2-1,.26-1.54h-7.84v-1.32h8.02v-1.68h-6.22v-1.3h6.22v-1.62h-7.32v-1.34h4.22c-.32-.7-.94-1.62-1.54-2.32l1.28-.52c.74,.76,1.44,1.8,1.76,2.52l-.72,.32h5.26c.6-.82,1.3-2,1.72-2.84l1.52,.46c-.48,.82-1.08,1.68-1.6,2.38h4.26v1.34h-7.36v1.62h6.4v1.3h-6.4v1.68h8.22Zm-8.18,4.38c2.74,1.04,6.34,2.76,8.16,3.96l-.7,1.28c-1.76-1.24-5.34-3.04-8.1-4.14l.64-1.1Z"/>
      <path d="M364.83,490.09v17.4h-1.46v-.92h-13.72v.92h-1.42v-17.4h16.6Zm-1.46,15.14v-13.78h-13.72v13.78h13.72Zm-6.78-3.04c-2.08,.4-4.2,.82-5.84,1.12l-.2-1.12c1.52-.24,3.74-.64,5.98-1.04l.06,1.04Zm4.96-5.82c-.5,1.88-1.26,3.52-2.22,4.9,.42,1.06,.96,1.74,1.62,1.84,.28,.08,.48-.78,.62-2.06,.24,.24,.68,.54,.96,.66-.26,2.18-.94,2.98-1.98,2.58-.86-.18-1.54-.88-2.08-1.94-.78,.9-1.66,1.66-2.64,2.3-.18-.24-.62-.72-.88-.94,1.18-.68,2.18-1.56,3.02-2.6-.54-1.6-.88-3.66-1.1-5.92h-6.12v-1.12h6.02c-.06-.7-.12-1.4-.16-2.12h1.28c.04,.72,.08,1.42,.12,2.12h4.36v1.12h-4.26c.16,1.72,.4,3.32,.74,4.6,.64-1.08,1.14-2.32,1.48-3.68l1.22,.26Zm-5.68,.08v3.88h-4.42v-3.88h4.42Zm-1.08,.94h-2.3v2h2.3v-2Zm6.36-3.54c-.44-.44-1.36-1.06-2.14-1.4l.7-.74c.78,.36,1.7,.9,2.16,1.36l-.72,.78Z"/>
      <path d="M374.75,495.33c-.62-.5-1.74-1.24-2.74-1.88-.72,.98-1.88,1.66-3.76,2.12-.12-.3-.48-.82-.76-1.06,3.5-.8,4.16-2.22,4.34-5.34h1.32c-.08,1.3-.24,2.36-.58,3.24,1.08,.62,2.36,1.44,3.1,1.98l-.92,.94Zm-5.1-2.98c-.32-.5-1.02-1.36-1.54-2l.9-.64c.54,.58,1.24,1.4,1.58,1.88l-.94,.76Zm14.68,3.26h.52v3.6h-1.48v-2.4h-13.7v2.4h-1.42v-3.6h15.78c-.9-.64-2.34-1.5-3.64-2.22-.72,.94-1.86,1.62-3.66,2.08-.12-.32-.48-.84-.76-1.12,3.38-.78,4.06-2.2,4.24-5.16h1.38c-.08,1.24-.26,2.28-.62,3.14,1.42,.72,3.2,1.72,4.12,2.38l-.76,.9Zm-8.12,6.02c-.22,.4-.42,.8-.58,1.16h7.98v4.64h-1.46v-.54h-10.84v.56h-1.42v-4.66h4.42c.16-.34,.34-.78,.5-1.16h-3.62v-3.72h10.76v3.72h-5.74Zm5.94,2.26h-10.84v1.88h10.84v-1.88Zm-9.56-3.28h7.9v-1.68h-7.9v1.68Zm3.7-9.98c-.58,.72-1.26,1.48-1.78,1.98l-.88-.42c.48-.56,1.12-1.44,1.44-2.04l1.22,.48Zm1.82,1.6c-.36-.52-1.02-1.38-1.54-2l.88-.66c.56,.62,1.26,1.42,1.58,1.9l-.92,.76Zm6.98-1.64c-.66,.76-1.4,1.56-1.96,2.08l-.94-.44c.54-.58,1.24-1.52,1.62-2.12l1.28,.48Z"/>
      <path d="M393.03,489.49h1.46v17.98h-1.46v-5.54c-3.64,1.34-4.22,1.62-4.6,1.94-.1-.38-.4-1.04-.6-1.36,.28-.18,.68-.56,.68-1.34v-9.78h1.46v10.14l3.06-1.02v-11.02Zm11.06,4.96c-.56,3.16-1.38,5.74-2.66,7.88,1.18,1.64,2.6,2.98,4.32,3.82-.34,.3-.82,.82-1.04,1.22-1.62-.9-2.98-2.2-4.12-3.78-1.18,1.58-2.68,2.86-4.58,3.88-.16-.32-.64-.92-.96-1.22,2-.98,3.54-2.3,4.7-3.96-.98-1.68-1.78-3.6-2.38-5.7-.46,.96-1,1.82-1.58,2.56-.22-.3-.74-.96-1.06-1.24,1.7-2.02,2.76-5.28,3.32-8.74l1.52,.26c-.22,1.24-.52,2.46-.84,3.62h6.84v1.4h-1.48Zm-5.94,.3c.58,2.24,1.36,4.36,2.42,6.2,.96-1.8,1.6-3.98,2.02-6.5h-4.32l-.12,.3Z"/>
      <path d="M425.15,499.75s-.02,.44-.06,.64c-.36,4.18-.74,5.84-1.36,6.5-.38,.38-.76,.5-1.36,.54-.5,.04-1.48,.04-2.5-.02-.04-.4-.2-.98-.44-1.36,1,.12,1.96,.12,2.34,.12,.36,0,.56-.04,.76-.2,.4-.42,.74-1.74,1.06-4.92h-12.34c-.96,.9-2.04,1.7-3.22,2.4-.18-.34-.56-.94-.82-1.24,3.38-1.94,5.88-4.94,7.6-8.28h-6.58v-1.36h7.24c.48-1.12,.9-2.26,1.24-3.4l1.48,.38c-.34,1.02-.7,2.04-1.14,3.02h5.2c-.22,1.18-.5,2.56-.76,3.6h2.28c-.24,1.16-.52,2.54-.76,3.58h2.14Zm-16.56,6.76c1.12-1.04,1.86-2.8,2.26-4.34l1.24,.4c-.46,1.66-1.14,3.56-2.34,4.74l-1.16-.8Zm4.06-13.98c-.36-.76-1.2-1.94-1.96-2.76l1.28-.54c.78,.78,1.64,1.92,2.04,2.66l-1.36,.64Zm8.98,7.22c.16-.66,.34-1.48,.5-2.28h-7.76c-.56,.8-1.16,1.56-1.82,2.28h9.08Zm-7.02,2.7c.38,1.28,.6,2.9,.6,3.98l-1.3,.18c.04-1.08-.16-2.7-.54-4l1.24-.16Zm1.82-8.52c-.36,.76-.78,1.52-1.22,2.24h4.9c.18-.64,.36-1.44,.52-2.24h-4.2Zm1.04,8.24c.52,1.08,1.02,2.5,1.18,3.42l-1.24,.34c-.14-.94-.6-2.4-1.1-3.5l1.16-.26Zm3.26,2.66c-.24-.72-.86-1.88-1.46-2.7l1.04-.4c.62,.8,1.26,1.92,1.52,2.64l-1.1,.46Z"/>
      <path d="M445.41,505.33v1.46h-17.68v-1.46h8v-4.92h-6.16v-1.42h6.16v-4.38h-7.08v-1.46h8.78c-.78-.92-2.2-2.18-3.4-3.06l1.2-.84c1.28,.92,2.88,2.28,3.66,3.22l-.94,.68h6.46v1.46h-7.1v4.38h6.28v1.42h-6.28v4.92h8.1Z"/>
      <path d="M454.27,505.55c0,.76-.16,1.2-.64,1.46-.48,.24-1.22,.26-2.5,.26-.06-.36-.22-1-.4-1.38,.86,.02,1.62,.02,1.86,.02,.24-.02,.34-.12,.34-.38v-5.44c-.84,.52-1.66,1-2.4,1.46l-.56-1.2c-.14,2.46-.54,5.1-1.48,7.1-.26-.22-.86-.56-1.2-.7,1.34-2.8,1.44-6.78,1.44-9.7v-7.14h5.54v15.64Zm-4.2-8.52c0,.94-.02,2-.08,3.1,.8-.32,1.84-.8,2.94-1.34v-2.28l-.76,.62c-.44-.64-1.32-1.62-2.1-2.38v2.28Zm0-5.76v3.1l.68-.52c.78,.7,1.66,1.6,2.18,2.24v-4.82h-2.86Zm14.86,7c-.76,2.46-2.02,4.38-3.66,5.86,1.26,.92,2.72,1.58,4.4,2-.36,.32-.76,.9-.98,1.3-1.74-.52-3.28-1.32-4.58-2.36-1.42,1.04-3.04,1.8-4.76,2.34-.16-.4-.52-.96-.8-1.28,1.58-.42,3.12-1.1,4.48-2.04-1.28-1.28-2.28-2.84-3-4.64l.28-.1h-1.02v-1.4h8.44l.24-.06,.96,.38Zm-6.32-6.12c0,1.76-.54,3.88-2.96,5.3-.18-.3-.7-.82-.96-1.04,2.18-1.24,2.54-2.86,2.54-4.28v-2.2h6.08v4.66c0,.54,.04,.72,.3,.72h1.1c.22,0,.62-.04,.86-.1,.02,.38,.08,.9,.12,1.24-.24,.08-.62,.1-.94,.1h-1.24c-1.32,0-1.6-.56-1.6-2v-3.22h-3.3v.82Zm-1.18,7.2c.64,1.46,1.56,2.78,2.72,3.88,1.2-1.06,2.2-2.36,2.84-3.88h-5.56Z"/>
      <path d="M473.35,503.39c-1.18,1.44-3.08,2.78-4.74,3.64-.22-.24-.8-.76-1.12-.98,1.7-.74,3.46-1.9,4.5-3.14l1.36,.48Zm12.1-2.2v1.22h-8.2v5.08h-1.46v-5.08h-8.14v-1.22h17.8Zm-11.96-9.98h-5.62v-1.24h17.2v1.24h-5.64v1.54h4.66v4.56h-15.02v-4.56h4.42v-1.54Zm-3.4,8.6v-1.18h12.94v1.18h-12.94Zm.36-3.64h3.04v-2.3h-3.04v2.3Zm7.56-4.96h-3.14v1.54h3.14v-1.54Zm-3.14,4.96h3.14v-2.3h-3.14v2.3Zm4.56-2.3v2.3h3.2v-2.3h-3.2Zm1.06,9.1c1.62,.88,3.74,2.2,4.84,3.12l-1.14,.86c-1.02-.9-3.12-2.26-4.76-3.2l1.06-.78Z"/>
      <path d="M492.75,490.03h1.32l-5.98,19.46h-1.34l6-19.46Z"/>
      <path d="M498.53,498.33c-.72-.64-2.12-1.52-3.26-2.06l.82-1.02c1.14,.5,2.56,1.32,3.28,1.92l-.84,1.16Zm-2.68,7.96c.8-1.56,1.94-4.2,2.76-6.48l1.14,.84c-.74,2.08-1.74,4.6-2.6,6.46l-1.3-.82Zm1.32-16.84c1.18,.5,2.7,1.38,3.46,2l-.88,1.14c-.72-.64-2.22-1.56-3.42-2.12l.84-1.02Zm6.12,3.34c-.64,1.3-1.4,2.46-2.14,3.36-.3-.24-.92-.64-1.3-.82,1.42-1.52,2.64-3.84,3.36-6.16l1.46,.36c-.22,.64-.48,1.28-.74,1.9h9.14v1.36h-9.78Zm8.64,7.36c-.1,1.24-.18,2.26-.26,3.08h1.34v1.32h-1.52c-.2,1.08-.4,1.66-.68,2-.36,.48-.78,.64-1.38,.7-.56,.06-1.56,.02-2.52-.04-.04-.38-.18-.9-.38-1.26,1.02,.08,1.96,.1,2.32,.1s.56-.04,.74-.28c.18-.18,.32-.58,.46-1.22h-8.84c.24-1.18,.5-2.76,.72-4.4h-1.84v-1.36h2.04c.18-1.42,.36-2.84,.48-4.08h9.56s-.02,.52-.02,.7c-.06,1.26-.12,2.38-.16,3.38h1.58v1.36h-1.64Zm-1.68,3.08c.1-.8,.2-1.8,.28-3.08h-7.22c-.14,1.1-.3,2.16-.44,3.08h7.38Zm-6.38-7.22c-.12,.9-.24,1.84-.36,2.78h4.2c-.42-.66-1.36-1.6-2.2-2.24l.82-.54c.84,.62,1.82,1.56,2.26,2.2l-.84,.58h2.84c.06-.84,.1-1.74,.14-2.78h-6.86Zm1.98,4.2c.88,.68,1.92,1.68,2.42,2.4l-.92,.62c-.46-.68-1.48-1.74-2.36-2.48l.86-.54Z"/>
      <path d="M523.85,492.15l1.02,.34c-1.04,7.84-4.12,12.54-8.36,14.88-.24-.38-.84-.96-1.22-1.22,2.32-1.2,4.26-3.06,5.68-5.7-.76-.98-2.06-2.28-3.24-3.36-.4,.7-.82,1.3-1.26,1.86-.24-.26-.9-.74-1.22-.94,1.82-2.06,3.08-5.36,3.8-8.84l1.46,.28c-.22,.96-.44,1.88-.72,2.78h3.76l.3-.08Zm-4.54,1.48c-.28,.78-.6,1.54-.96,2.26,1.12,.94,2.42,2.14,3.3,3.12,.64-1.56,1.14-3.34,1.48-5.38h-3.82Zm9.34,1.56c1.72,1.36,3.88,3.26,4.94,4.52l-1.18,1.02c-.9-1.14-2.72-2.82-4.3-4.16v10.86h-1.52v-18.24h1.52v6.44l.54-.44Z"/>
      <path d="M542.59,495.33c-.62-.5-1.74-1.24-2.74-1.88-.72,.98-1.88,1.66-3.76,2.12-.12-.3-.48-.82-.76-1.06,3.5-.8,4.16-2.22,4.34-5.34h1.32c-.08,1.3-.24,2.36-.58,3.24,1.08,.62,2.36,1.44,3.1,1.98l-.92,.94Zm-5.1-2.98c-.32-.5-1.02-1.36-1.54-2l.9-.64c.54,.58,1.24,1.4,1.58,1.88l-.94,.76Zm14.68,3.26h.52v3.6h-1.48v-2.4h-13.7v2.4h-1.42v-3.6h15.78c-.9-.64-2.34-1.5-3.64-2.22-.72,.94-1.86,1.62-3.66,2.08-.12-.32-.48-.84-.76-1.12,3.38-.78,4.06-2.2,4.24-5.16h1.38c-.08,1.24-.26,2.28-.62,3.14,1.42,.72,3.2,1.72,4.12,2.38l-.76,.9Zm-8.12,6.02c-.22,.4-.42,.8-.58,1.16h7.98v4.64h-1.46v-.54h-10.84v.56h-1.42v-4.66h4.42c.16-.34,.34-.78,.5-1.16h-3.62v-3.72h10.76v3.72h-5.74Zm5.94,2.26h-10.84v1.88h10.84v-1.88Zm-9.56-3.28h7.9v-1.68h-7.9v1.68Zm3.7-9.98c-.58,.72-1.26,1.48-1.78,1.98l-.88-.42c.48-.56,1.12-1.44,1.44-2.04l1.22,.48Zm1.82,1.6c-.36-.52-1.02-1.38-1.54-2l.88-.66c.56,.62,1.26,1.42,1.58,1.9l-.92,.76Zm6.98-1.64c-.66,.76-1.4,1.56-1.96,2.08l-.94-.44c.54-.58,1.24-1.52,1.62-2.12l1.28,.48Z"/>
      <path d="M560.87,489.49h1.46v17.98h-1.46v-5.54c-3.64,1.34-4.22,1.62-4.6,1.94-.1-.38-.4-1.04-.6-1.36,.28-.18,.68-.56,.68-1.34v-9.78h1.46v10.14l3.06-1.02v-11.02Zm11.06,4.96c-.56,3.16-1.38,5.74-2.66,7.88,1.18,1.64,2.6,2.98,4.32,3.82-.34,.3-.82,.82-1.04,1.22-1.62-.9-2.98-2.2-4.12-3.78-1.18,1.58-2.68,2.86-4.58,3.88-.16-.32-.64-.92-.96-1.22,2-.98,3.54-2.3,4.7-3.96-.98-1.68-1.78-3.6-2.38-5.7-.46,.96-1,1.82-1.58,2.56-.22-.3-.74-.96-1.06-1.24,1.7-2.02,2.76-5.28,3.32-8.74l1.52,.26c-.22,1.24-.52,2.46-.84,3.62h6.84v1.4h-1.48Zm-5.94,.3c.58,2.24,1.36,4.36,2.42,6.2,.96-1.8,1.6-3.98,2.02-6.5h-4.32l-.12,.3Z"/>
      <path d="M592.99,499.75s-.02,.44-.06,.64c-.36,4.18-.74,5.84-1.36,6.5-.38,.38-.76,.5-1.36,.54-.5,.04-1.48,.04-2.5-.02-.04-.4-.2-.98-.44-1.36,1,.12,1.96,.12,2.34,.12,.36,0,.56-.04,.76-.2,.4-.42,.74-1.74,1.06-4.92h-12.34c-.96,.9-2.04,1.7-3.22,2.4-.18-.34-.56-.94-.82-1.24,3.38-1.94,5.88-4.94,7.6-8.28h-6.58v-1.36h7.24c.48-1.12,.9-2.26,1.24-3.4l1.48,.38c-.34,1.02-.7,2.04-1.14,3.02h5.2c-.22,1.18-.5,2.56-.76,3.6h2.28c-.24,1.16-.52,2.54-.76,3.58h2.14Zm-16.56,6.76c1.12-1.04,1.86-2.8,2.26-4.34l1.24,.4c-.46,1.66-1.14,3.56-2.34,4.74l-1.16-.8Zm4.06-13.98c-.36-.76-1.2-1.94-1.96-2.76l1.28-.54c.78,.78,1.64,1.92,2.04,2.66l-1.36,.64Zm8.98,7.22c.16-.66,.34-1.48,.5-2.28h-7.76c-.56,.8-1.16,1.56-1.82,2.28h9.08Zm-7.02,2.7c.38,1.28,.6,2.9,.6,3.98l-1.3,.18c.04-1.08-.16-2.7-.54-4l1.24-.16Zm1.82-8.52c-.36,.76-.78,1.52-1.22,2.24h4.9c.18-.64,.36-1.44,.52-2.24h-4.2Zm1.04,8.24c.52,1.08,1.02,2.5,1.18,3.42l-1.24,.34c-.14-.94-.6-2.4-1.1-3.5l1.16-.26Zm3.26,2.66c-.24-.72-.86-1.88-1.46-2.7l1.04-.4c.62,.8,1.26,1.92,1.52,2.64l-1.1,.46Z"/>
      <path d="M613.25,505.33v1.46h-17.68v-1.46h8v-4.92h-6.16v-1.42h6.16v-4.38h-7.08v-1.46h8.78c-.78-.92-2.2-2.18-3.4-3.06l1.2-.84c1.28,.92,2.88,2.28,3.66,3.22l-.94,.68h6.46v1.46h-7.1v4.38h6.28v1.42h-6.28v4.92h8.1Z"/>
      <path d="M622.11,505.55c0,.76-.16,1.2-.64,1.46-.48,.24-1.22,.26-2.5,.26-.06-.36-.22-1-.4-1.38,.86,.02,1.62,.02,1.86,.02,.24-.02,.34-.12,.34-.38v-5.44c-.84,.52-1.66,1-2.4,1.46l-.56-1.2c-.14,2.46-.54,5.1-1.48,7.1-.26-.22-.86-.56-1.2-.7,1.34-2.8,1.44-6.78,1.44-9.7v-7.14h5.54v15.64Zm-4.2-8.52c0,.94-.02,2-.08,3.1,.8-.32,1.84-.8,2.94-1.34v-2.28l-.76,.62c-.44-.64-1.32-1.62-2.1-2.38v2.28Zm0-5.76v3.1l.68-.52c.78,.7,1.66,1.6,2.18,2.24v-4.82h-2.86Zm14.86,7c-.76,2.46-2.02,4.38-3.66,5.86,1.26,.92,2.72,1.58,4.4,2-.36,.32-.76,.9-.98,1.3-1.74-.52-3.28-1.32-4.58-2.36-1.42,1.04-3.04,1.8-4.76,2.34-.16-.4-.52-.96-.8-1.28,1.58-.42,3.12-1.1,4.48-2.04-1.28-1.28-2.28-2.84-3-4.64l.28-.1h-1.02v-1.4h8.44l.24-.06,.96,.38Zm-6.32-6.12c0,1.76-.54,3.88-2.96,5.3-.18-.3-.7-.82-.96-1.04,2.18-1.24,2.54-2.86,2.54-4.28v-2.2h6.08v4.66c0,.54,.04,.72,.3,.72h1.1c.22,0,.62-.04,.86-.1,.02,.38,.08,.9,.12,1.24-.24,.08-.62,.1-.94,.1h-1.24c-1.32,0-1.6-.56-1.6-2v-3.22h-3.3v.82Zm-1.18,7.2c.64,1.46,1.56,2.78,2.72,3.88,1.2-1.06,2.2-2.36,2.84-3.88h-5.56Z"/>
      <path d="M641.19,503.39c-1.18,1.44-3.08,2.78-4.74,3.64-.22-.24-.8-.76-1.12-.98,1.7-.74,3.46-1.9,4.5-3.14l1.36,.48Zm12.1-2.2v1.22h-8.2v5.08h-1.46v-5.08h-8.14v-1.22h17.8Zm-11.96-9.98h-5.62v-1.24h17.2v1.24h-5.64v1.54h4.66v4.56h-15.02v-4.56h4.42v-1.54Zm-3.4,8.6v-1.18h12.94v1.18h-12.94Zm.36-3.64h3.04v-2.3h-3.04v2.3Zm7.56-4.96h-3.14v1.54h3.14v-1.54Zm-3.14,4.96h3.14v-2.3h-3.14v2.3Zm4.56-2.3v2.3h3.2v-2.3h-3.2Zm1.06,9.1c1.62,.88,3.74,2.2,4.84,3.12l-1.14,.86c-1.02-.9-3.12-2.26-4.76-3.2l1.06-.78Z"/>
      <path d="M762.89,497.89v1.32h-8.34c-.06,.54-.14,1.06-.24,1.54h8.26v1.3h-8.62c-.94,2.74-3.08,4.44-8.32,5.34-.12-.38-.5-1-.78-1.34,4.62-.66,6.58-1.94,7.48-4h-6.72v-1.3h7.14c.12-.48,.2-1,.26-1.54h-7.84v-1.32h8.02v-1.68h-6.22v-1.3h6.22v-1.62h-7.32v-1.34h4.22c-.32-.7-.94-1.62-1.54-2.32l1.28-.52c.74,.76,1.44,1.8,1.76,2.52l-.72,.32h5.26c.6-.82,1.3-2,1.72-2.84l1.52,.46c-.48,.82-1.08,1.68-1.6,2.38h4.26v1.34h-7.36v1.62h6.4v1.3h-6.4v1.68h8.22Zm-8.18,4.38c2.74,1.04,6.34,2.76,8.16,3.96l-.7,1.28c-1.76-1.24-5.34-3.04-8.1-4.14l.64-1.1Z"/>
      <path d="M780.65,505.67c.8,0,.92-.52,1.02-3.58,.34,.28,.98,.54,1.38,.66-.16,3.4-.56,4.34-2.3,4.34h-2.86c-1.78,0-2.26-.52-2.26-2.22v-7.12h-3.74c-.38,4.28-1.34,7.78-5.94,9.64-.18-.36-.6-.9-.94-1.16,4.26-1.62,5-4.74,5.3-8.48h-5.06v-1.44h17.5v1.44h-5.62v7.1c0,.68,.16,.82,.94,.82h2.58Zm.42-13.5h-14.08v-1.42h14.08v1.42Z"/>
      <path d="M791.73,499.15l-2.5,.76v5.74c0,.86-.2,1.24-.72,1.5-.5,.22-1.3,.28-2.64,.26-.06-.38-.26-.98-.46-1.38,.9,.02,1.74,.02,1.98,0,.28,0,.38-.08,.38-.38v-5.28c-.98,.28-1.9,.56-2.7,.8l-.44-1.46c.86-.22,1.96-.52,3.14-.86v-4.22h-2.84v-1.42h2.84v-4.02h1.46v4.02h2.26v1.42h-2.26v3.78c.76-.2,1.54-.44,2.3-.68l.2,1.42Zm3.62-2.14c-1.96,0-2.58-.62-2.58-2.34v-5.4h1.46v2.38h8.04v1.3h-8.04v1.76c0,.74,.22,1.02,1.1,1.02h5.24c.66,0,1.74-.04,2.2-.14,.06,.4,.12,.96,.18,1.3-.38,.1-1.38,.12-2.3,.12h-5.3Zm-2.56,1.7h9.36v8.64h-1.46v-.84h-6.48v.92h-1.42v-8.72Zm1.42,1.28v1.98h6.48v-1.98h-6.48Zm6.48,5.3v-2.1h-6.48v2.1h6.48Z"/>
      <path d="M821.57,494.45c-.36,3.08-1,5.6-2.02,7.66,.9,1.8,2.12,3.24,3.7,4.1-.3,.26-.74,.76-.96,1.14-1.46-.9-2.6-2.26-3.5-3.92-1.1,1.68-2.58,3-4.56,4.04-.12-.26-.44-.7-.68-1l-.48,.44c-.66-.38-1.56-.84-2.56-1.24-1.14,.66-2.78,1.26-5.1,1.76-.1-.3-.4-.74-.64-1,1.9-.38,3.32-.84,4.36-1.34-.94-.36-1.92-.7-2.84-.94,.38-.48,.8-1.12,1.22-1.76h-2.58v-1.08h3.2c.24-.44,.44-.86,.64-1.28h-2.96v-3.22h3.76v-.88h-3.28v-2.26h-1.38v-1.12h1.38v-2.08h3.28v-1.3h1.18v1.3h3.5v2.08h1.14v1.12h-1.14v2.26h-3.5v.88h3.9v1.06c1.32-2.18,2.26-5.44,2.82-8.7l1.3,.26c-.24,1.22-.54,2.48-.86,3.68h5.18v1.34h-1.52Zm-14.48,4.62h2.48v-1.32h-2.48v1.32Zm.36-7.56v1.1h2.12v-1.1h-2.12Zm2.12,3.38v-1.28h-2.12v1.28h2.12Zm-.7,7.5c-.26,.42-.5,.82-.74,1.2,.72,.22,1.48,.48,2.22,.78,.88-.64,1.3-1.34,1.5-1.98h-2.98Zm5.12,3.68c1.84-1,3.2-2.3,4.14-4.02-.64-1.56-1.1-3.34-1.48-5.28-.34,.84-.7,1.58-1.1,2.22-.18-.2-.6-.56-.9-.82v1.86h-4.52c-.2,.42-.42,.84-.64,1.28h2.52v-.8h1.22v.8h2v1.08h-2.12c-.16,.82-.58,1.68-1.5,2.48,.92,.4,1.78,.82,2.42,1.16l-.04,.04Zm-3.24-14.56v1.1h2.28v-1.1h-2.28Zm2.28,3.38v-1.28h-2.28v1.28h2.28Zm-2.28,2.86v1.32h2.58v-1.32h-2.58Zm6.76-3.3l-.1,.24c.32,2.14,.78,4.12,1.46,5.86,.68-1.72,1.12-3.72,1.38-6.1h-2.74Z"/>
      <path d="M825.81,499.69c0-3.92,1.1-7.16,2.94-10.14l1.14,.52c-1.74,2.86-2.56,6.22-2.56,9.62s.82,6.78,2.56,9.62l-1.14,.54c-1.84-3-2.94-6.22-2.94-10.16Z"/>
      <path d="M832.73,491.23h4.6c2.98,0,5.12,1.08,5.12,4.14,0,2.28-1.32,3.64-3.32,4.12l3.76,6.42h-2.1l-3.56-6.22h-2.64v6.22h-1.86v-14.68Zm4.32,6.96c2.3,0,3.56-.92,3.56-2.82s-1.26-2.62-3.56-2.62h-2.46v5.44h2.46Z"/>
      <path d="M845.45,491.23h1.86v6.16h6.84v-6.16h1.84v14.68h-1.84v-6.92h-6.84v6.92h-1.86v-14.68Z"/>
      <path d="M858.95,503.99l1.12-1.26c1.04,1.1,2.52,1.82,4.04,1.82,1.92,0,3.08-.96,3.08-2.4s-1.06-1.98-2.44-2.6l-2.12-.92c-1.36-.58-2.98-1.62-2.98-3.76,0-2.26,1.96-3.9,4.62-3.9,1.74,0,3.28,.74,4.32,1.82l-.98,1.18c-.9-.84-1.98-1.38-3.34-1.38-1.66,0-2.74,.84-2.74,2.16,0,1.42,1.28,1.96,2.42,2.44l2.1,.9c1.7,.74,3.02,1.74,3.02,3.92,0,2.32-1.92,4.16-4.98,4.16-2.08,0-3.86-.84-5.14-2.18Z"/>
      <path d="M870.81,509.31c1.72-2.84,2.56-6.22,2.56-9.62s-.84-6.76-2.56-9.62l1.12-.52c1.86,2.98,2.96,6.22,2.96,10.14s-1.1,7.16-2.96,10.16l-1.12-.54Z"/>
    </g>
    <rect class="cls-5" x="271.51" y="492.79" width="49" height="11.12"/>
    <rect class="cls-4" x="688.69" y="492.79" width="49" height="11.12"/>
  </g>
</svg>