<?xml version="1.0" encoding="UTF-8"?>
<svg xmlns="http://www.w3.org/2000/svg" xmlns:xlink="http://www.w3.org/1999/xlink" viewBox="0 0 315.9 302.59">
  <defs>
    <style>
      .cls-1 {
        fill: #585757;
        opacity: .92;
      }

      .cls-2 {
        fill: url(#linear-gradient-2);
      }

      .cls-3 {
        fill: #605e5e;
        opacity: .86;
      }

      .cls-4 {
        fill: #b5b2b2;
        opacity: .32;
      }

      .cls-5, .cls-6 {
        fill: #fff;
      }

      .cls-7 {
        fill: #535253;
        opacity: .96;
      }

      .cls-8 {
        fill: #666464;
        opacity: .81;
      }

      .cls-9 {
        fill: #918d8d;
        opacity: .52;
      }

      .cls-10 {
        fill: #b2aeae;
        opacity: .34;
      }

      .cls-11 {
        fill: #525152;
        opacity: .97;
      }

      .cls-12 {
        fill: #e2e0df;
        opacity: .1;
      }

      .cls-13 {
        fill: #7e7b7b;
        opacity: .64;
      }

      .cls-14 {
        fill: #8c8889;
        opacity: .55;
      }

      .cls-15 {
        fill: #e9e7e7;
        opacity: .07;
      }

      .cls-16 {
        fill: #dbd9d9;
        opacity: .13;
      }

      .cls-17 {
        fill: #7d7979;
        opacity: .65;
      }

      .cls-6 {
        opacity: 0;
      }

      .cls-18 {
        fill: #c2c0bf;
        opacity: .25;
      }

      .cls-19 {
        fill: #555455;
        opacity: .94;
      }

      .cls-20 {
        fill: #4f4f4f;
        opacity: .99;
      }

      .cls-21 {
        fill: #f7f6f6;
        opacity: .02;
      }

      .cls-22 {
        fill: #6f6b6c;
        opacity: .75;
      }

      .cls-23 {
        fill: #5a5959;
        opacity: .9;
      }

      .cls-24 {
        fill: #777474;
        opacity: .69;
      }

      .cls-25 {
        fill: #646161;
        opacity: .83;
      }

      .cls-26 {
        isolation: isolate;
      }

      .cls-27 {
        fill: #d0cece;
        opacity: .18;
      }

      .cls-28 {
        fill: #bfbbbb;
        opacity: .27;
      }

      .cls-29 {
        fill: #848181;
        opacity: .6;
      }

      .cls-30 {
        fill: #787575;
        opacity: .68;
      }

      .cls-31 {
        fill: #716e6e;
        opacity: .73;
      }

      .cls-32 {
        fill: #000101;
      }

      .cls-33 {
        fill: #e6e4e4;
        opacity: .08;
      }

      .cls-34 {
        fill: #4e4e4e;
      }

      .cls-35 {
        fill: #686565;
        opacity: .8;
      }

      .cls-36 {
        fill: #949091;
        opacity: .5;
      }

      .cls-37 {
        fill: #d9d7d6;
        opacity: .14;
      }

      .cls-38 {
        fill: #cecccc;
        opacity: .19;
      }

      .cls-39 {
        fill: #9d9999;
        opacity: .46;
      }

      .cls-40 {
        fill: #d4d2d2;
        opacity: .16;
      }

      .cls-41 {
        fill: #545354;
        opacity: .95;
      }

      .cls-42 {
        fill: #b7b4b4;
        opacity: .31;
      }

      .cls-43 {
        fill: #969292;
        opacity: .5;
      }

      .cls-44 {
        fill: #8f8b8c;
        opacity: .53;
      }

      .cls-45 {
        fill: #aca9a9;
        opacity: .37;
      }

      .cls-46 {
        fill: #a29e9e;
        opacity: .43;
      }

      .cls-47 {
        fill: #c6c4c3;
        opacity: .23;
      }

      .cls-48 {
        fill: #7a7677;
        opacity: .67;
      }

      .cls-49 {
        fill: #656363;
        opacity: .82;
      }

      .cls-50 {
        fill: #626060;
        opacity: .84;
      }

      .cls-51 {
        fill: #8a8787;
        opacity: .56;
      }

      .cls-52 {
        fill: #6a6868;
        opacity: .78;
      }

      .cls-53 {
        fill: #505050;
        opacity: .98;
      }

      .cls-54 {
        fill: #a5a1a2;
        opacity: .41;
      }

      .cls-55 {
        mix-blend-mode: multiply;
        opacity: .8;
      }

      .cls-56 {
        fill: #878484;
        opacity: .58;
      }

      .cls-57 {
        fill: #e4e2e2;
        opacity: .09;
      }

      .cls-58 {
        fill: #d2d0d0;
        opacity: .17;
      }

      .cls-59 {
        fill: #5c5a5a;
        opacity: .89;
      }

      .cls-60 {
        fill: #615f5f;
        opacity: .85;
      }

      .cls-61 {
        fill: #aaa7a7;
        opacity: .38;
      }

      .cls-62 {
        fill: #fafafa;
        opacity: 0;
      }

      .cls-63 {
        fill: #dfdddd;
        opacity: .11;
      }

      .cls-64 {
        fill: #f3f2f2;
        opacity: .03;
      }

      .cls-65 {
        fill: #696666;
        opacity: .79;
      }

      .cls-66 {
        fill: #999596;
        opacity: .48;
      }

      .cls-67 {
        fill: #bdb9b9;
        opacity: .28;
      }

      .cls-68 {
        fill: #989494;
        opacity: .49;
      }

      .cls-69 {
        fill: #807c7c;
        opacity: .63;
      }

      .cls-70 {
        fill: #8e8a8a;
        opacity: .54;
      }

      .cls-71 {
        fill: #dddbdb;
        opacity: .12;
      }

      .cls-72 {
        fill: #706d6d;
        opacity: .74;
      }

      .cls-73 {
        fill: #9b9797;
        opacity: .47;
      }

      .cls-74 {
        fill: #595858;
        opacity: .91;
      }

      .cls-75 {
        fill: #938f8f;
        opacity: .51;
      }

      .cls-76 {
        fill: #b0acac;
        opacity: .35;
      }

      .cls-77 {
        fill: #737070;
        opacity: .72;
      }

      .cls-78 {
        fill: #a7a3a3;
        opacity: .4;
      }

      .cls-79 {
        fill: #d7d4d4;
        opacity: .15;
      }

      .cls-80 {
        fill: #7b7878;
        opacity: .66;
      }

      .cls-81 {
        fill: #edecec;
        opacity: .05;
      }

      .cls-82 {
        fill: #b9b6b6;
        opacity: .3;
      }

      .cls-83 {
        fill: #817e7e;
        opacity: .62;
      }

      .cls-84 {
        fill: #ebe9e9;
        opacity: .06;
      }

      .cls-85 {
        fill: #575656;
        opacity: .93;
      }

      .cls-86 {
        fill: #898585;
        opacity: .57;
      }

      .cls-87 {
        fill: #aeaaab;
        opacity: .36;
      }

      .cls-88 {
        fill: #6d6a6a;
        opacity: .76;
      }

      .cls-89 {
        fill: #c4c2c1;
        opacity: .24;
      }

      .cls-90 {
        fill: #a09c9c;
        opacity: .44;
      }

      .cls-91 {
        fill: #cccaca;
        opacity: .2;
      }

      .cls-92 {
        fill: #767272;
        opacity: .7;
      }

      .cls-93 {
        fill: #5d5b5b;
        opacity: .88;
      }

      .cls-94 {
        fill: url(#linear-gradient);
      }

      .cls-95 {
        fill: #9e9a9b;
        opacity: .45;
      }

      .cls-96 {
        fill: #747171;
        opacity: .71;
      }

      .cls-97 {
        fill: #bbb8b8;
        opacity: .29;
      }

      .cls-98 {
        fill: #f0efef;
        opacity: .04;
      }

      .cls-99 {
        fill: #b4b0b0;
        opacity: .33;
      }

      .cls-100 {
        fill: #cac8c7;
        opacity: .21;
      }

      .cls-101 {
        fill: #0a5290;
      }

      .cls-102 {
        fill: #a3a0a0;
        opacity: .42;
      }

      .cls-103 {
        fill: #868282;
        opacity: .59;
      }

      .cls-104 {
        fill: #c1bdbd;
        opacity: .26;
      }

      .cls-105 {
        fill: #5e5c5d;
        opacity: .87;
      }

      .cls-106 {
        fill: #837f7f;
        opacity: .61;
      }

      .cls-107 {
        fill: #6c6969;
        opacity: .77;
      }

      .cls-108 {
        fill: #c8c6c5;
        opacity: .22;
      }

      .cls-109 {
        fill: #a9a5a5;
        opacity: .39;
      }
    </style>
    <linearGradient id="linear-gradient" x1="145.34" y1="246.53" x2="145.34" y2="-307.5" gradientUnits="userSpaceOnUse">
      <stop offset="0" stop-color="#fff"/>
      <stop offset="1" stop-color="#c8cacc"/>
    </linearGradient>
    <linearGradient id="linear-gradient-2" x1="145.09" y1="181.38" x2="145.09" y2="446.79" xlink:href="#linear-gradient"/>
  </defs>
  <g class="cls-26">
    <g id="Layer_1" data-name="Layer 1">
      <g>
        <g>
          <path class="cls-101" d="M315.9,145.66l-40.57-80.2v36.65h-9.72c-6.13-17.43-16.17-33.79-30.11-47.73C197.78,16.65,142.31,7.52,95.98,26.95c-2.31-4.31-5.28-8.37-8.91-12.01C67.15-4.98,34.86-4.98,14.94,14.94c-19.92,19.92-19.92,52.21,0,72.13,3.75,3.75,7.93,6.79,12.39,9.13-18.87,46.12-9.59,101.06,27.86,138.5,49.79,49.79,130.52,49.79,180.32,0,13.33-13.33,23.09-28.89,29.29-45.47h10.54v36.65l40.57-80.2Z"/>
          <g class="cls-55">
            <path class="cls-6" d="M174.21,302.59c-65.3,0-118.43-53.12-118.43-118.43s53.13-118.42,118.43-118.42,118.42,53.12,118.42,118.42-53.12,118.43-118.42,118.43Z"/>
            <path class="cls-62" d="M173.92,302.19c-65.3,0-118.43-53.12-118.43-118.43s53.13-118.42,118.43-118.42,118.42,53.12,118.42,118.42-53.12,118.43-118.42,118.43Z"/>
            <path class="cls-21" d="M173.63,301.78c-65.3,0-118.43-53.12-118.43-118.43s53.13-118.42,118.43-118.42,118.42,53.12,118.42,118.42-53.12,118.43-118.42,118.43Z"/>
            <path class="cls-64" d="M173.34,301.37c-65.3,0-118.43-53.12-118.43-118.43s53.13-118.42,118.43-118.42,118.42,53.12,118.42,118.42-53.12,118.43-118.42,118.43Z"/>
            <path class="cls-98" d="M173.05,300.97c-65.3,0-118.43-53.12-118.43-118.43s53.13-118.42,118.43-118.42,118.42,53.12,118.42,118.42-53.12,118.43-118.42,118.43Z"/>
            <path class="cls-81" d="M172.76,300.56c-65.3,0-118.43-53.12-118.43-118.43S107.46,63.71,172.76,63.71s118.42,53.12,118.42,118.42-53.12,118.43-118.42,118.43Z"/>
            <path class="cls-84" d="M172.47,300.16c-65.3,0-118.43-53.12-118.43-118.43S107.17,63.31,172.47,63.31s118.42,53.12,118.42,118.42-53.12,118.43-118.42,118.43Z"/>
            <path class="cls-15" d="M172.18,299.75c-65.3,0-118.43-53.12-118.43-118.43S106.88,62.9,172.18,62.9s118.42,53.12,118.42,118.42-53.12,118.43-118.42,118.43Z"/>
            <path class="cls-33" d="M171.9,299.35c-65.3,0-118.43-53.12-118.43-118.43S106.6,62.5,171.9,62.5s118.42,53.12,118.42,118.42-53.12,118.43-118.42,118.43Z"/>
            <path class="cls-57" d="M171.61,298.94c-65.3,0-118.43-53.12-118.43-118.43S106.31,62.09,171.61,62.09s118.42,53.12,118.42,118.42-53.12,118.43-118.42,118.43Z"/>
            <path class="cls-12" d="M171.32,298.53c-65.3,0-118.43-53.12-118.43-118.43S106.02,61.69,171.32,61.69s118.42,53.12,118.42,118.42-53.12,118.43-118.42,118.43Z"/>
            <path class="cls-63" d="M171.03,298.13c-65.3,0-118.43-53.12-118.43-118.43S105.73,61.28,171.03,61.28s118.42,53.12,118.42,118.42-53.12,118.43-118.42,118.43Z"/>
            <path class="cls-71" d="M170.74,297.72c-65.3,0-118.43-53.12-118.43-118.43S105.44,60.87,170.74,60.87s118.42,53.12,118.42,118.42-53.12,118.43-118.42,118.43Z"/>
            <path class="cls-16" d="M170.45,297.32c-65.3,0-118.43-53.12-118.43-118.43S105.15,60.47,170.45,60.47s118.42,53.12,118.42,118.42-53.12,118.43-118.42,118.43Z"/>
            <path class="cls-37" d="M170.16,296.91c-65.3,0-118.43-53.12-118.43-118.43S104.86,60.06,170.16,60.06s118.42,53.12,118.42,118.42-53.12,118.43-118.42,118.43Z"/>
            <path class="cls-79" d="M169.87,296.51c-65.3,0-118.43-53.12-118.43-118.43S104.57,59.66,169.87,59.66s118.42,53.12,118.42,118.42-53.12,118.43-118.42,118.43Z"/>
            <path class="cls-40" d="M169.59,296.1c-65.3,0-118.43-53.12-118.43-118.43S104.28,59.25,169.59,59.25s118.42,53.12,118.42,118.42-53.12,118.43-118.42,118.43Z"/>
            <path class="cls-58" d="M169.3,295.69c-65.3,0-118.43-53.12-118.43-118.43S104,58.84,169.3,58.84s118.42,53.12,118.42,118.42-53.12,118.43-118.42,118.43Z"/>
            <path class="cls-27" d="M169.01,295.29c-65.3,0-118.43-53.12-118.43-118.43S103.71,58.44,169.01,58.44s118.42,53.12,118.42,118.42-53.12,118.43-118.42,118.43Z"/>
            <path class="cls-38" d="M168.72,294.88c-65.3,0-118.43-53.12-118.43-118.43S103.42,58.03,168.72,58.03s118.42,53.12,118.42,118.42-53.12,118.43-118.42,118.43Z"/>
            <path class="cls-91" d="M168.43,294.48c-65.3,0-118.43-53.12-118.43-118.43S103.13,57.63,168.43,57.63s118.42,53.12,118.42,118.42-53.12,118.43-118.42,118.43Z"/>
            <path class="cls-100" d="M168.14,294.07c-65.3,0-118.43-53.12-118.43-118.43S102.84,57.22,168.14,57.22s118.42,53.12,118.42,118.42-53.12,118.43-118.42,118.43Z"/>
            <path class="cls-108" d="M167.85,293.66c-65.3,0-118.43-53.12-118.43-118.43S102.55,56.82,167.85,56.82s118.42,53.12,118.42,118.42-53.12,118.43-118.42,118.43Z"/>
            <path class="cls-47" d="M167.56,293.26c-65.3,0-118.43-53.12-118.43-118.43S102.26,56.41,167.56,56.41s118.42,53.12,118.42,118.42-53.12,118.43-118.42,118.43Z"/>
            <path class="cls-89" d="M167.27,292.85c-65.3,0-118.43-53.12-118.43-118.43S101.97,56,167.27,56s118.42,53.12,118.42,118.42-53.12,118.43-118.42,118.43Z"/>
            <path class="cls-18" d="M166.99,292.45c-65.3,0-118.43-53.12-118.43-118.43S101.68,55.6,166.99,55.6s118.42,53.12,118.42,118.42-53.12,118.43-118.42,118.43Z"/>
            <path class="cls-104" d="M166.7,292.04c-65.3,0-118.43-53.12-118.43-118.43S101.4,55.19,166.7,55.19s118.42,53.12,118.42,118.42-53.12,118.43-118.42,118.43Z"/>
            <path class="cls-28" d="M166.41,291.64c-65.3,0-118.43-53.12-118.43-118.43S101.11,54.79,166.41,54.79s118.42,53.12,118.42,118.42-53.12,118.43-118.42,118.43Z"/>
            <path class="cls-67" d="M166.12,291.23c-65.3,0-118.43-53.12-118.43-118.43S100.82,54.38,166.12,54.38s118.42,53.12,118.42,118.42-53.12,118.43-118.42,118.43Z"/>
            <path class="cls-97" d="M165.83,290.82c-65.3,0-118.43-53.12-118.43-118.43S100.53,53.97,165.83,53.97s118.42,53.12,118.42,118.42-53.12,118.43-118.42,118.43Z"/>
            <path class="cls-82" d="M165.54,290.42c-65.3,0-118.43-53.12-118.43-118.43S100.24,53.57,165.54,53.57s118.42,53.12,118.42,118.42-53.12,118.43-118.42,118.43Z"/>
            <path class="cls-42" d="M165.25,290.01c-65.3,0-118.43-53.12-118.43-118.43S99.95,53.16,165.25,53.16s118.42,53.12,118.42,118.42-53.12,118.43-118.42,118.43Z"/>
            <path class="cls-4" d="M164.96,289.61c-65.3,0-118.43-53.12-118.43-118.43S99.66,52.76,164.96,52.76s118.42,53.12,118.42,118.42-53.12,118.43-118.42,118.43Z"/>
            <path class="cls-99" d="M164.67,289.2c-65.3,0-118.43-53.12-118.43-118.43S99.37,52.35,164.67,52.35s118.42,53.12,118.42,118.42-53.12,118.43-118.42,118.43Z"/>
            <path class="cls-10" d="M164.39,288.79c-65.3,0-118.43-53.12-118.43-118.43S99.09,51.95,164.39,51.95s118.42,53.12,118.42,118.42-53.12,118.43-118.42,118.43Z"/>
            <path class="cls-76" d="M164.1,288.39c-65.3,0-118.43-53.12-118.43-118.43S98.8,51.54,164.1,51.54s118.42,53.12,118.42,118.42-53.12,118.43-118.42,118.43Z"/>
            <path class="cls-87" d="M163.81,287.98c-65.3,0-118.43-53.12-118.43-118.43S98.51,51.13,163.81,51.13s118.42,53.12,118.42,118.42-53.12,118.43-118.42,118.43Z"/>
            <path class="cls-45" d="M163.52,287.58c-65.3,0-118.43-53.12-118.43-118.43S98.22,50.73,163.52,50.73s118.42,53.12,118.42,118.42-53.12,118.43-118.42,118.43Z"/>
            <path class="cls-61" d="M163.23,287.17c-65.3,0-118.43-53.12-118.43-118.43S97.93,50.32,163.23,50.32s118.42,53.12,118.42,118.42-53.12,118.43-118.42,118.43Z"/>
            <path class="cls-109" d="M162.94,286.77c-65.3,0-118.43-53.12-118.43-118.43S97.64,49.92,162.94,49.92s118.42,53.12,118.42,118.42-53.12,118.43-118.42,118.43Z"/>
            <path class="cls-78" d="M162.65,286.36c-65.3,0-118.43-53.12-118.43-118.43S97.35,49.51,162.65,49.51s118.42,53.12,118.42,118.42-53.12,118.43-118.42,118.43Z"/>
            <path class="cls-54" d="M162.36,285.95c-65.3,0-118.43-53.12-118.43-118.43S97.06,49.1,162.36,49.1s118.42,53.12,118.42,118.42-53.12,118.43-118.42,118.43Z"/>
            <path class="cls-102" d="M162.07,285.55c-65.3,0-118.43-53.12-118.43-118.43S96.77,48.7,162.07,48.7s118.42,53.12,118.42,118.42-53.12,118.43-118.42,118.43Z"/>
            <path class="cls-46" d="M161.79,285.14c-65.3,0-118.43-53.12-118.43-118.43S96.49,48.29,161.79,48.29s118.42,53.12,118.42,118.42-53.12,118.43-118.42,118.43Z"/>
            <path class="cls-90" d="M161.5,284.74c-65.3,0-118.43-53.12-118.43-118.43S96.2,47.89,161.5,47.89s118.42,53.12,118.42,118.42-53.12,118.43-118.42,118.43Z"/>
            <path class="cls-95" d="M161.21,284.33c-65.3,0-118.43-53.12-118.43-118.43S95.91,47.48,161.21,47.48s118.42,53.12,118.42,118.42-53.12,118.43-118.42,118.43Z"/>
            <path class="cls-39" d="M160.92,283.92c-65.3,0-118.43-53.12-118.43-118.43S95.62,47.08,160.92,47.08s118.42,53.12,118.42,118.42-53.12,118.43-118.42,118.43Z"/>
            <path class="cls-73" d="M160.63,283.52c-65.3,0-118.43-53.12-118.43-118.43S95.33,46.67,160.63,46.67s118.42,53.12,118.42,118.42-53.12,118.43-118.42,118.43Z"/>
            <path class="cls-66" d="M160.34,283.11c-65.3,0-118.43-53.12-118.43-118.43S95.04,46.26,160.34,46.26s118.42,53.12,118.42,118.42-53.12,118.43-118.42,118.43Z"/>
            <path class="cls-68" d="M160.05,282.71c-65.3,0-118.43-53.12-118.43-118.43S94.75,45.86,160.05,45.86s118.42,53.12,118.42,118.42-53.12,118.43-118.42,118.43Z"/>
            <path class="cls-43" d="M159.76,282.3c-65.3,0-118.43-53.12-118.43-118.43S94.46,45.45,159.76,45.45s118.42,53.12,118.42,118.42-53.12,118.43-118.42,118.43Z"/>
            <path class="cls-36" d="M159.48,281.9c-65.3,0-118.43-53.12-118.43-118.43S94.17,45.05,159.48,45.05s118.42,53.12,118.42,118.42-53.12,118.43-118.42,118.43Z"/>
            <path class="cls-75" d="M159.19,281.49c-65.3,0-118.43-53.12-118.43-118.43S93.89,44.64,159.19,44.64s118.42,53.12,118.42,118.42-53.12,118.43-118.42,118.43Z"/>
            <path class="cls-9" d="M158.9,281.08c-65.3,0-118.43-53.12-118.43-118.43S93.6,44.24,158.9,44.24s118.42,53.12,118.42,118.42-53.12,118.43-118.42,118.43Z"/>
            <path class="cls-44" d="M158.61,280.68c-65.3,0-118.43-53.12-118.43-118.43S93.31,43.83,158.61,43.83s118.42,53.12,118.42,118.42-53.12,118.43-118.42,118.43Z"/>
            <path class="cls-70" d="M158.32,280.27c-65.3,0-118.43-53.12-118.43-118.43S93.02,43.42,158.32,43.42s118.42,53.12,118.42,118.42-53.12,118.43-118.42,118.43Z"/>
            <path class="cls-14" d="M158.03,279.87c-65.3,0-118.43-53.12-118.43-118.43S92.73,43.02,158.03,43.02s118.42,53.12,118.42,118.42-53.12,118.43-118.42,118.43Z"/>
            <path class="cls-51" d="M157.74,279.46c-65.3,0-118.43-53.12-118.43-118.43S92.44,42.61,157.74,42.61s118.42,53.12,118.42,118.42-53.12,118.43-118.42,118.43Z"/>
            <path class="cls-86" d="M157.45,279.05c-65.3,0-118.43-53.12-118.43-118.43S92.15,42.21,157.45,42.21s118.42,53.12,118.42,118.42-53.12,118.43-118.42,118.43Z"/>
            <path class="cls-56" d="M157.16,278.65c-65.3,0-118.43-53.12-118.43-118.43S91.86,41.8,157.16,41.8s118.42,53.12,118.42,118.42-53.12,118.43-118.42,118.43Z"/>
            <path class="cls-103" d="M156.88,278.24c-65.3,0-118.43-53.12-118.43-118.43S91.58,41.39,156.88,41.39s118.42,53.12,118.42,118.42-53.12,118.43-118.42,118.43Z"/>
            <path class="cls-29" d="M156.59,277.84c-65.3,0-118.43-53.12-118.43-118.43S91.29,40.99,156.59,40.99s118.42,53.12,118.42,118.42-53.12,118.43-118.42,118.43Z"/>
            <path class="cls-106" d="M156.3,277.43c-65.3,0-118.43-53.12-118.43-118.43S91,40.58,156.3,40.58s118.42,53.12,118.42,118.42-53.12,118.43-118.42,118.43Z"/>
            <path class="cls-83" d="M156.01,277.03c-65.3,0-118.43-53.12-118.43-118.43S90.71,40.18,156.01,40.18s118.42,53.12,118.42,118.42-53.12,118.43-118.42,118.43Z"/>
            <path class="cls-69" d="M155.72,276.62c-65.3,0-118.43-53.12-118.43-118.43S90.42,39.77,155.72,39.77s118.42,53.12,118.42,118.42-53.12,118.43-118.42,118.43Z"/>
            <path class="cls-13" d="M155.43,276.21c-65.3,0-118.43-53.12-118.43-118.43S90.13,39.37,155.43,39.37s118.42,53.12,118.42,118.42-53.12,118.43-118.42,118.43Z"/>
            <path class="cls-17" d="M155.14,275.81c-65.3,0-118.43-53.12-118.43-118.43S89.84,38.96,155.14,38.96s118.42,53.12,118.42,118.42-53.12,118.43-118.42,118.43Z"/>
            <path class="cls-80" d="M154.85,275.4c-65.3,0-118.43-53.12-118.43-118.43S89.55,38.55,154.85,38.55s118.42,53.12,118.42,118.42-53.12,118.43-118.42,118.43Z"/>
            <path class="cls-48" d="M154.56,275c-65.3,0-118.43-53.12-118.43-118.43S89.26,38.15,154.56,38.15s118.42,53.12,118.42,118.42-53.12,118.43-118.42,118.43Z"/>
            <path class="cls-30" d="M154.28,274.59c-65.3,0-118.43-53.12-118.43-118.43S88.98,37.74,154.28,37.74s118.42,53.12,118.42,118.42-53.12,118.43-118.42,118.43Z"/>
            <path class="cls-24" d="M153.99,274.18c-65.3,0-118.43-53.12-118.43-118.43S88.69,37.34,153.99,37.34s118.42,53.12,118.42,118.42-53.13,118.43-118.42,118.43Z"/>
            <path class="cls-92" d="M153.7,273.78c-65.3,0-118.43-53.12-118.43-118.43S88.4,36.93,153.7,36.93s118.42,53.12,118.42,118.42-53.13,118.43-118.42,118.43Z"/>
            <path class="cls-96" d="M153.41,273.37c-65.3,0-118.43-53.12-118.43-118.43S88.11,36.52,153.41,36.52s118.42,53.12,118.42,118.42-53.13,118.43-118.42,118.43Z"/>
            <path class="cls-77" d="M153.12,272.97c-65.3,0-118.43-53.12-118.43-118.43S87.82,36.12,153.12,36.12s118.42,53.12,118.42,118.42-53.13,118.43-118.42,118.43Z"/>
            <path class="cls-31" d="M152.83,272.56c-65.3,0-118.43-53.12-118.43-118.43S87.53,35.71,152.83,35.71s118.42,53.12,118.42,118.42-53.13,118.43-118.42,118.43Z"/>
            <path class="cls-72" d="M152.54,272.16c-65.3,0-118.43-53.12-118.43-118.43S87.24,35.31,152.54,35.31s118.42,53.12,118.42,118.42-53.13,118.43-118.42,118.43Z"/>
            <path class="cls-22" d="M152.25,271.75c-65.3,0-118.43-53.12-118.43-118.43S86.95,34.9,152.25,34.9s118.42,53.12,118.42,118.42-53.13,118.43-118.42,118.43Z"/>
            <path class="cls-88" d="M151.96,271.34c-65.3,0-118.43-53.12-118.43-118.43S86.66,34.5,151.96,34.5s118.42,53.12,118.42,118.42-53.13,118.43-118.42,118.43Z"/>
            <path class="cls-107" d="M151.68,270.94c-65.3,0-118.43-53.12-118.43-118.43S86.38,34.09,151.68,34.09s118.42,53.12,118.42,118.42-53.13,118.43-118.42,118.43Z"/>
            <path class="cls-52" d="M151.39,270.53c-65.3,0-118.43-53.12-118.43-118.43S86.09,33.68,151.39,33.68s118.42,53.12,118.42,118.42-53.13,118.43-118.42,118.43Z"/>
            <path class="cls-65" d="M151.1,270.13c-65.3,0-118.43-53.12-118.43-118.43S85.8,33.28,151.1,33.28s118.42,53.12,118.42,118.42-53.13,118.43-118.42,118.43Z"/>
            <path class="cls-35" d="M150.81,269.72c-65.3,0-118.43-53.12-118.43-118.43S85.51,32.87,150.81,32.87s118.42,53.12,118.42,118.42-53.13,118.43-118.42,118.43Z"/>
            <path class="cls-8" d="M150.52,269.31c-65.3,0-118.43-53.12-118.43-118.43S85.22,32.47,150.52,32.47s118.42,53.12,118.42,118.42-53.13,118.43-118.42,118.43Z"/>
            <path class="cls-49" d="M150.23,268.91c-65.3,0-118.43-53.12-118.43-118.43S84.93,32.06,150.23,32.06s118.42,53.12,118.42,118.42-53.13,118.43-118.42,118.43Z"/>
            <path class="cls-25" d="M149.94,268.5c-65.3,0-118.43-53.12-118.43-118.43S84.64,31.65,149.94,31.65s118.42,53.12,118.42,118.42-53.13,118.43-118.42,118.43Z"/>
            <path class="cls-50" d="M149.65,268.1c-65.3,0-118.43-53.12-118.43-118.43S84.35,31.25,149.65,31.25s118.42,53.12,118.42,118.42-53.13,118.43-118.42,118.43Z"/>
            <path class="cls-60" d="M149.37,267.69c-65.3,0-118.43-53.12-118.43-118.43S84.06,30.84,149.37,30.84s118.42,53.12,118.42,118.42-53.13,118.43-118.42,118.43Z"/>
            <path class="cls-3" d="M149.08,267.29c-65.3,0-118.43-53.12-118.43-118.43S83.78,30.44,149.08,30.44s118.42,53.12,118.42,118.42-53.13,118.43-118.42,118.43Z"/>
            <path class="cls-105" d="M148.79,266.88c-65.3,0-118.43-53.12-118.43-118.43S83.49,30.03,148.79,30.03s118.42,53.12,118.42,118.42-53.13,118.43-118.42,118.43Z"/>
            <path class="cls-93" d="M148.5,266.47c-65.3,0-118.43-53.12-118.43-118.43S83.2,29.63,148.5,29.63s118.42,53.12,118.42,118.42-53.13,118.43-118.42,118.43Z"/>
            <path class="cls-59" d="M148.21,266.07c-65.3,0-118.43-53.12-118.43-118.43S82.91,29.22,148.21,29.22s118.42,53.12,118.42,118.42-53.13,118.43-118.42,118.43Z"/>
            <path class="cls-23" d="M147.92,265.66c-65.3,0-118.43-53.12-118.43-118.43S82.62,28.81,147.92,28.81s118.42,53.12,118.42,118.42-53.13,118.43-118.42,118.43Z"/>
            <path class="cls-74" d="M147.63,265.26c-65.3,0-118.43-53.12-118.43-118.43S82.33,28.41,147.63,28.41s118.42,53.12,118.42,118.42-53.13,118.43-118.42,118.43Z"/>
            <path class="cls-1" d="M147.34,264.85c-65.3,0-118.43-53.12-118.43-118.43S82.04,28,147.34,28s118.42,53.12,118.42,118.42-53.13,118.43-118.42,118.43Z"/>
            <path class="cls-85" d="M147.05,264.44c-65.3,0-118.43-53.12-118.43-118.43S81.75,27.6,147.05,27.6s118.42,53.12,118.42,118.42-53.13,118.43-118.42,118.43Z"/>
            <path class="cls-19" d="M146.77,264.04c-65.3,0-118.43-53.12-118.43-118.43S81.47,27.19,146.77,27.19s118.42,53.12,118.42,118.42-53.13,118.43-118.42,118.43Z"/>
            <path class="cls-41" d="M146.48,263.63c-65.3,0-118.43-53.12-118.43-118.43S81.18,26.78,146.48,26.78s118.42,53.12,118.42,118.42-53.13,118.43-118.42,118.43Z"/>
            <path class="cls-7" d="M146.19,263.23c-65.3,0-118.43-53.12-118.43-118.43S80.89,26.38,146.19,26.38s118.42,53.12,118.42,118.42-53.13,118.43-118.42,118.43Z"/>
            <path class="cls-11" d="M145.9,262.82c-65.3,0-118.43-53.12-118.43-118.43S80.6,25.97,145.9,25.97s118.42,53.12,118.42,118.42-53.13,118.43-118.42,118.43Z"/>
            <path class="cls-53" d="M145.61,262.42c-65.3,0-118.43-53.12-118.43-118.43S80.31,25.57,145.61,25.57s118.42,53.12,118.42,118.42-53.13,118.43-118.42,118.43Z"/>
            <path class="cls-20" d="M145.32,262.01c-65.3,0-118.43-53.12-118.43-118.43S80.02,25.16,145.32,25.16s118.42,53.12,118.42,118.42-53.13,118.43-118.42,118.43Z"/>
            <path class="cls-34" d="M145.03,261.6c-65.3,0-118.43-53.12-118.43-118.43S79.73,24.76,145.03,24.76s118.42,53.12,118.42,118.42-53.13,118.43-118.42,118.43Z"/>
          </g>
          <circle class="cls-94" cx="145.34" cy="144.53" r="102"/>
          <circle class="cls-2" cx="145.09" cy="142.99" r="118.23"/>
        </g>
        <g>
          <path class="cls-5" d="M28.23,24.68l-2.3,.6v7.56h-2.71v-6.89l-3.17,.82-.7-2.9c1.06-.19,2.42-.48,3.86-.77v-5.28h-1.39c-.24,1.2-.53,2.33-.86,3.19-.48-.22-1.49-.6-2.02-.77,.79-1.94,1.22-5.04,1.44-7.97l2.16,.34c-.07,.84-.17,1.66-.29,2.5h.96v-4.66h2.71v4.66h2.06v2.71h-2.06v4.68l1.99-.46,.31,2.64Zm13.11-.05h-2.3v5.02c0,1.42-.26,2.16-1.22,2.62-.91,.43-2.26,.5-4.01,.5-.12-.84-.5-2.02-.86-2.83,1.13,.05,2.42,.05,2.81,.05,.36,0,.46-.1,.46-.41v-4.94h-7.63v-2.62h7.63v-1.68h2.83v1.68h2.3v2.62Zm-8.16-9.48h-4.51v-2.59h4.51v-2.14h2.83v2.14h4.8v2.59h-4.8v2.04h3.98v2.64h-10.44v-2.64h3.62v-2.04Zm-1.39,9.55c1.03,1.06,2.3,2.59,2.88,3.6l-2.26,1.46c-.5-1.01-1.7-2.62-2.74-3.77l2.11-1.3Z"/>
          <path class="cls-5" d="M59.86,29.82c2.3,0,2.66-.53,2.98-3.5,.72,.41,1.9,.86,2.69,1.01-.5,3.94-1.49,5.09-5.52,5.09h-8.21c-4.46,0-5.83-.86-5.83-4.3v-8.76c-.48,.38-.96,.74-1.42,1.06-.26-.65-1.03-2.06-1.54-2.71,2.83-1.7,5.74-4.46,7.34-7.44l2.59,.98c-.19,.34-.41,.7-.6,1.03h5.52l.55-.14,1.82,1.37c-.82,1.15-1.85,2.45-2.95,3.58h5.86v9.02h-2.81v-.82h-11.62v2.83c0,1.46,.41,1.7,3.02,1.7h8.11Zm-9.34-15c-.65,.79-1.3,1.54-2.02,2.26h5.38c.7-.65,1.39-1.44,2.02-2.26h-5.38Zm-1.8,7.75h4.46v-2.86h-4.46v2.86Zm11.62-2.86h-4.37v2.86h4.37v-2.86Z"/>
          <path class="cls-5" d="M33.84,62h6.36v-17.96h-5.36v-3.64c2.96-.56,5-1.32,6.88-2.48h4.36v24.08h5.56v4.76h-17.8v-4.76Z"/>
        </g>
        <g>
          <path class="cls-101" d="M126.26,77.02v4h-35.31v-4h15.4c-.32-.96-.64-1.96-.96-2.8l4.92-1.2c.44,1.24,1.08,2.72,1.56,4h14.4Zm-.92,29.27c0,2.08-.52,2.92-2.04,3.52-1.44,.48-3.6,.52-6.36,.48-.24-1.04-.88-2.4-1.4-3.36h-11.44v1.68h-4.4v-10.56h17.4v8.88h-.56c1.4,.04,2.8,.04,3.2,0,.56,0,.8-.16,.8-.68v-9.68h-23.88v14.04h-4.6v-17.88h33.27v13.56Zm-3.84-15.2h-25.24v-8.56h25.24v8.56Zm-5-5.36h-15.48v2.2h15.48v-2.2Zm-3.6,15.64h-8.8v2.28h8.8v-2.28Z"/>
          <path class="cls-101" d="M131.59,92.66h15.2v17.8h-4.76v-1.8h-5.96v2h-4.48v-18Zm4.48,4.56v6.88h5.96v-6.88h-5.96Zm24.44-7.88h-23.44v-14.48h23.44v14.48Zm-4.84-9.92h-14v5.4h14v-5.4Zm10.24,13.24v17.84h-4.8v-1.84h-6.36v2h-4.56v-18h15.72Zm-4.8,11.44v-6.88h-6.36v6.88h6.36Z"/>
          <path class="cls-101" d="M176.87,82.78c-.68,2.04-1.8,4-3.8,5.6-.6-.84-2.24-2.48-3.08-3.04,3.04-2.28,3.48-5.12,3.48-7.44v-2.68c4.16-.24,8.96-.84,11.76-1.8l2.64,2.76c-2.8,1-6.64,1.52-10.32,1.84,0,.4,0,.84-.04,1.28h10.88v3.48h-3.84v4.08h-4.2v-4.08h-3.48Zm19.8,4.2v-4.2h-3.44c-.48,1.76-1.28,3.44-2.64,4.84h11.04v16.48h-5.28c3.76,1.12,7.56,2.44,10.08,3.44l-2.2,3.32c-2.84-1.28-7.6-3.08-12.04-4.44l1.44-2.32h-10.36l2.6,1.52c-3.44,1.92-8.84,4.08-12.88,5.28-.4-.84-1.56-3.04-2.28-4,3.32-.64,7.36-1.64,10.32-2.8h-5.28v-16.48h14.32c-.84-.72-2.36-1.72-3.16-2.12,2.56-2.28,2.88-5.2,2.88-7.48v-2.92c4.48-.2,9.56-.8,12.36-1.76l2.96,2.64c-3.04,1.04-7.32,1.64-11.32,1.92v.2c0,.4,0,.8-.04,1.2h12.84v3.48h-5.64v4.2h-4.28Zm.16,3.48h-16.52v1.8h16.52v-1.8Zm0,4.44h-16.52v1.84h16.52v-1.84Zm0,4.52h-16.52v1.8h16.52v-1.8Z"/>
          <path class="cls-32" d="M55.34,142.59v6.18c0,.92-.24,1.36-.81,1.61-.55,.26-1.47,.31-2.97,.31-.07-.42-.31-1.08-.51-1.52,1.06,.04,2,.02,2.27,.02,.31,0,.42-.11,.42-.42v-5.68l-2.77,.81-.48-1.58c.9-.22,2.02-.53,3.26-.88v-4.73h-2.99v-1.54h2.99v-4.4h1.61v4.4h2.73v1.54h-2.73v4.29l2.05-.59,.22,1.5-2.27,.68Zm13.8-1.76c-.88,2.64-2.4,4.71-4.29,6.29,1.65,1.03,3.63,1.8,5.83,2.27-.37,.35-.81,1.03-1.03,1.5-2.35-.57-4.44-1.5-6.16-2.75-1.91,1.3-4.14,2.18-6.45,2.77-.15-.46-.51-1.14-.81-1.5,2.11-.46,4.16-1.23,5.94-2.33-1.5-1.39-2.71-3.08-3.59-5.04l.22-.09h-.86v-1.54h9.83l.31-.07,1.06,.48Zm-7.52-6.82c0,1.96-.59,4.31-3.3,5.88-.2-.33-.77-.95-1.08-1.21,2.44-1.34,2.84-3.15,2.84-4.71v-2.42h6.93v5.08c0,.62,.07,.84,.42,.84h1.69c.33,0,.81-.04,1.1-.11,.02,.42,.07,1.03,.13,1.41-.29,.09-.75,.11-1.19,.11h-1.85c-1.54,0-1.87-.64-1.87-2.27v-3.52h-3.83v.92Zm-1.45,7.94c.77,1.61,1.94,3.01,3.34,4.2,1.43-1.14,2.64-2.53,3.43-4.2h-6.78Z"/>
          <path class="cls-32" d="M79.1,136.81h-6.29v-1.32h6.29v1.32Zm1.74,11.35c-1.76,1.06-4.53,2.09-6.71,2.68-.29-.33-.84-.95-1.21-1.23,2.24-.46,4.88-1.25,6.45-2.11l1.47,.66Zm-2.29-14.81h-5.26v-1.28h5.26v1.28Zm-2.86,5.17h14.24v8.82h-14.24v-8.82Zm1.58,2.6h11.02v-1.5h-11.02v1.5Zm0,2.55h11.02v-1.5h-11.02v1.5Zm0,2.6h11.02v-1.54h-11.02v1.54Zm5.28-12.74c-.48,.84-1.06,1.61-1.65,2.2-.26-.24-.88-.66-1.23-.84,1.14-1.03,2.05-2.57,2.53-4.18l1.47,.33c-.13,.42-.31,.81-.46,1.21h7.37l.26-.07,1.1,.37c-.55,1.12-1.25,2.4-1.85,3.17l-1.3-.46c.33-.46,.73-1.1,1.03-1.74h-3.5v.29c0,.22-.02,.46-.07,.73,1.17,1.32,3.56,2.18,6.45,2.42-.31,.31-.73,.9-.92,1.3-2.51-.35-4.62-1.23-5.98-2.57-.73,1.08-2.46,2.09-6.34,2.68-.18-.35-.59-.95-.88-1.21,5.7-.77,6.23-2.27,6.23-3.41v-.22h-2.27Zm3.3,13.95c2.35,.73,4.93,1.67,6.47,2.38l-1.43,.95c-1.41-.7-3.78-1.65-6.16-2.44l1.12-.88Z"/>
          <path class="cls-32" d="M102.93,138.94s0,.53-.02,.75c-.26,6.89-.51,9.24-1.12,10.03-.35,.48-.7,.64-1.25,.68-.46,.07-1.21,.07-2,.02-.02-.44-.18-1.08-.42-1.5,.77,.07,1.39,.07,1.69,.07,.29,.02,.46-.04,.64-.29,.42-.48,.66-2.57,.88-8.27h-2.82c-.24,4.36-.88,7.97-2.86,10.34-.24-.4-.81-.95-1.23-1.19,2.35-2.84,2.55-7.72,2.62-13.69h-2.18v-1.52h8.85v1.52h-5.06c-.02,1.03-.04,2.07-.09,3.04h4.38Zm-3.7-4.58c-.26-.84-1.06-2.16-1.78-3.12l1.43-.55c.75,.95,1.56,2.2,1.89,3.06l-1.54,.62Zm10.76-3.26c-.11,.42-.24,.81-.4,1.21,1.17,2.33,3.34,4.84,5.39,5.98-.4,.31-.92,.9-1.21,1.34-1.78-1.21-3.63-3.39-4.88-5.72-1.12,2.44-2.75,4.47-4.75,5.85-.26-.4-.7-.95-1.14-1.3,2.57-1.58,4.53-4.47,5.5-7.83l1.5,.46Zm-3.72,14.15c2.02,.99,4.71,2.55,6.01,3.67l-1.1,1.43c-1.25-1.17-3.87-2.82-5.94-3.87l1.03-1.23Zm4.09-1.94c-.81-.84-2.49-2.13-3.78-3.04l1.06-1.06c1.3,.84,3.01,2.05,3.85,2.88l-1.12,1.21Z"/>
          <path class="cls-32" d="M124.18,148.78c0,.84-.18,1.32-.7,1.61-.53,.26-1.34,.29-2.75,.29-.07-.4-.24-1.1-.44-1.52,.95,.02,1.78,.02,2.05,.02,.26-.02,.37-.13,.37-.42v-5.98c-.92,.57-1.83,1.1-2.64,1.61l-.62-1.32c-.15,2.71-.59,5.61-1.63,7.81-.29-.24-.95-.62-1.32-.77,1.47-3.08,1.58-7.46,1.58-10.67v-7.85h6.09v17.21Zm-4.62-9.37c0,1.03-.02,2.2-.09,3.41,.88-.35,2.02-.88,3.23-1.47v-2.51l-.84,.68c-.48-.7-1.45-1.78-2.31-2.62v2.51Zm0-6.34v3.41l.75-.57c.86,.77,1.83,1.76,2.4,2.46v-5.3h-3.15Zm16.35,7.7c-.84,2.71-2.22,4.82-4.03,6.45,1.39,1.01,2.99,1.74,4.84,2.2-.4,.35-.84,.99-1.08,1.43-1.91-.57-3.61-1.45-5.04-2.6-1.56,1.14-3.34,1.98-5.24,2.57-.18-.44-.57-1.06-.88-1.41,1.74-.46,3.43-1.21,4.93-2.24-1.41-1.41-2.51-3.12-3.3-5.1l.31-.11h-1.12v-1.54h9.29l.26-.07,1.06,.42Zm-6.95-6.73c0,1.94-.59,4.27-3.26,5.83-.2-.33-.77-.9-1.06-1.14,2.4-1.36,2.79-3.15,2.79-4.71v-2.42h6.69v5.13c0,.59,.04,.79,.33,.79h1.21c.24,0,.68-.04,.95-.11,.02,.42,.09,.99,.13,1.36-.26,.09-.68,.11-1.03,.11h-1.36c-1.45,0-1.76-.62-1.76-2.2v-3.54h-3.63v.9Zm-1.3,7.92c.7,1.61,1.72,3.06,2.99,4.27,1.32-1.17,2.42-2.6,3.12-4.27h-6.12Z"/>
          <path class="cls-32" d="M145.02,137.36h4.2v1.5h-4.2v1.61c.99,.77,3.5,2.93,4.14,3.5l-.95,1.34c-.66-.73-2.07-2.13-3.19-3.17v8.67h-1.58v-9.48c-1.14,2.51-2.68,4.99-4.18,6.49-.2-.44-.62-1.12-.9-1.52,1.76-1.67,3.67-4.71,4.75-7.44h-4.27v-1.5h4.6v-3.72c-1.43,.26-2.88,.48-4.25,.68-.07-.4-.31-.95-.51-1.3,3.21-.48,7.04-1.23,9.09-2.13l1.21,1.25c-1.1,.44-2.49,.84-3.96,1.17v4.05Zm7.26,8.05h-1.58v-12.04h1.58v12.04Zm5.41-14.21v17.47c0,1.12-.31,1.63-.99,1.91-.73,.24-1.96,.29-3.96,.29-.09-.44-.33-1.19-.59-1.65,1.54,.04,2.93,.04,3.34,.02,.4,0,.57-.13,.57-.55v-17.49h1.63Z"/>
          <path class="cls-32" d="M166.75,144.33c-.29-.62-1.03-1.78-1.63-2.73v9.29h-1.39v-9.57c-.75,2.24-1.72,4.42-2.68,5.79-.11-.51-.48-1.21-.75-1.63,1.19-1.58,2.46-4.42,3.19-6.91h-2.77v-1.54h3.01v-3.56c-.84,.22-1.67,.4-2.46,.53-.07-.37-.24-.92-.4-1.3,1.94-.4,4.25-1.03,5.59-1.74l.88,1.32c-.66,.31-1.41,.59-2.22,.84v3.92h2.35v1.54h-2.35v1.39c.57,.62,2.11,2.53,2.49,2.99l-.86,1.39Zm.04,5.63c.75-.97,1.41-2.49,1.76-3.63l1.25,.48c-.42,1.19-.99,2.75-1.72,3.74l-1.3-.59Zm11.24-6.89h-10.17v-1.01h10.17v-1.12h-9.55v-1.06h11.02v2.18h1.17v1.01h-1.17v2.29h-6.07c.84,.66,1.87,1.56,2.4,2.11l-.95,.86c-.64-.66-1.83-1.76-2.64-2.46l.66-.51h-4.51v-1.06h9.64v-1.23Zm2.53-4.18h-12.5v-1.12h5.26v-1.3h-4.53v-1.1h4.99c-.22-.55-.64-1.41-.99-2.05l1.21-.42c.37,.62,.84,1.45,1.06,1.94l-1.23,.53h2.51c.62-.79,1.19-1.8,1.61-2.75l1.28,.37c-.4,.77-.86,1.65-1.34,2.38h1.78v1.1h-4.82v1.3h5.72v1.12Zm-.29-7.02c-3.01,.73-7.79,1.17-11.75,1.3-.02-.35-.2-.81-.35-1.14,3.89-.18,8.56-.59,11.09-1.23l1.01,1.08Zm-10.1,3.48c-.24-.46-.66-1.17-1.03-1.69l1.21-.46c.37,.48,.84,1.19,1.08,1.63l-1.25,.53Zm5.52,14.08c.62,0,.73-.15,.79-1.3,.31,.2,.88,.4,1.3,.48-.15,1.65-.59,2.07-1.89,2.07h-3.26c-1.83,0-2.29-.35-2.29-1.78v-2.64h1.45v2.62c0,.46,.13,.55,.99,.55h2.9Zm2.79-3.17c.81,1.1,1.74,2.53,2.18,3.48l-1.28,.59c-.44-.95-1.39-2.49-2.16-3.61l1.25-.46Z"/>
          <path class="cls-32" d="M193.48,148.6c1.1,.22,2.31,.29,3.61,.29,.79,0,4.55,0,5.61-.04-.26,.42-.53,1.17-.62,1.65h-5.08c-4.58,0-7.86-.79-9.86-4.53-.75,2.05-1.83,3.72-3.28,4.97-.26-.31-.92-.88-1.32-1.12,2.44-1.87,3.63-4.99,4.11-8.96l1.63,.18c-.13,1.01-.31,1.96-.51,2.84,.84,2.33,2.24,3.61,4.03,4.29v-9.09h-5.46v-1.56h12.74v1.56h-5.61v3.59h6.51v1.54h-6.51v4.4Zm-8.34-10.58h-1.61v-4.77h8.56c-.26-.68-.68-1.52-1.03-2.16l1.58-.46c.48,.81,1.03,1.89,1.3,2.62h7.83v4.77h-1.65v-3.21h-14.98v3.21Z"/>
          <path class="cls-32" d="M223.18,138.22c-.95,2.84-2.24,5.35-3.87,7.44,.81,2.16,1.83,3.41,2.95,3.41,.62,0,.88-1.14,1.03-4.07,.37,.37,.97,.75,1.41,.88-.31,3.74-.9,4.82-2.57,4.82s-3.01-1.34-4.03-3.61c-1.32,1.43-2.84,2.66-4.53,3.65-.24-.33-.81-.99-1.19-1.3,1.96-1.06,3.65-2.42,5.06-4.07-.79-2.49-1.32-5.72-1.61-9.26h-7.59v2.86h5.61v.7c-.11,4.93-.24,6.78-.7,7.35-.33,.42-.7,.57-1.32,.64-.55,.04-1.54,.04-2.62,0-.02-.51-.2-1.12-.46-1.54,1.01,.09,1.96,.11,2.33,.11,.31,0,.53-.04,.66-.24,.31-.33,.42-1.72,.51-5.5h-4v.18c0,3.08-.33,7.5-2.31,10.36-.29-.33-.99-.9-1.36-1.1,1.8-2.68,2-6.45,2-9.29v-6.14h9.18c-.09-1.21-.11-2.44-.13-3.7h1.69c0,1.28,.02,2.51,.09,3.7h7.11v1.61h-7c.22,2.93,.62,5.54,1.21,7.64,1.19-1.74,2.13-3.72,2.82-5.94l1.65,.42Zm-3.81-7.35c1.36,.68,3.08,1.74,3.94,2.51l-1.01,1.12c-.84-.77-2.51-1.89-3.89-2.64l.97-.99Z"/>
          <path class="cls-32" d="M245.49,143.85c-1.39,1.01-3.17,2.09-4.75,2.88,1.67,1.21,3.76,2.05,6.23,2.51-.33,.37-.79,1.01-1.01,1.45-5.02-1.1-8.45-3.78-10.34-7.92h-3.52v5.9l5.94-1.43c-.02,.42-.07,1.08-.04,1.43-6.16,1.56-7.24,1.87-7.75,2.13l-.09,.07c-.13-.4-.46-1.19-.75-1.61,.44-.22,1.08-.68,1.08-1.56v-4.93h-3.56v-1.47h3.85v-9.66h13.53v1.39h-11.88v1.89h11.22v1.34h-11.22v1.83h11.22v1.32h-11.22v1.89h14.02v1.47h-9.18c.62,1.17,1.39,2.2,2.35,3.08,1.56-.84,3.39-2,4.51-2.9l1.36,.9Z"/>
          <path class="cls-32" d="M67.75,159.04c-.37,1.08-.77,2.29-1.14,3.23h3.65v14.28h-6.12v1.74h-1.5v-16.02h2.46c.33-1.06,.73-2.53,.88-3.56l1.76,.33Zm1.01,4.71h-4.62v4.6h4.62v-4.6Zm0,11.33v-5.28h-4.62v5.28h4.62Zm12.26-12.04c-.35,10.03-.64,13.42-1.52,14.5-.48,.62-.99,.81-1.74,.88-.77,.09-2.02,.04-3.26-.02-.04-.48-.24-1.14-.55-1.61,1.43,.13,2.75,.13,3.26,.13,.44,0,.68-.04,.9-.33,.73-.77,1.06-4.11,1.34-12.87h-5.59c-.62,1.47-1.3,2.82-2.07,3.85-.29-.26-.99-.7-1.34-.92,1.47-1.94,2.66-4.97,3.37-7.99l1.56,.37c-.26,1.08-.57,2.13-.95,3.17h6.58v.84Zm-4.86,9.92c-.66-1.32-2.13-3.5-3.34-5.08l1.28-.75c1.23,1.56,2.75,3.67,3.45,4.97l-1.39,.86Z"/>
          <path class="cls-32" d="M103.48,168.35v1.45h-9.18c-.07,.59-.15,1.17-.26,1.69h9.09v1.43h-9.48c-1.03,3.01-3.39,4.88-9.15,5.88-.13-.42-.55-1.1-.86-1.47,5.08-.73,7.24-2.13,8.23-4.4h-7.39v-1.43h7.85c.13-.53,.22-1.1,.29-1.69h-8.63v-1.45h8.82v-1.85h-6.84v-1.43h6.84v-1.78h-8.05v-1.47h4.64c-.35-.77-1.03-1.78-1.69-2.55l1.41-.57c.81,.84,1.58,1.98,1.94,2.77l-.79,.35h5.79c.66-.9,1.43-2.2,1.89-3.12l1.67,.51c-.53,.9-1.19,1.85-1.76,2.62h4.69v1.47h-8.1v1.78h7.04v1.43h-7.04v1.85h9.04Zm-9,4.82c3.01,1.14,6.97,3.04,8.98,4.36l-.77,1.41c-1.94-1.36-5.88-3.34-8.91-4.55l.7-1.21Z"/>
          <path class="cls-32" d="M124.8,159.77v19.14h-1.61v-1.01h-15.09v1.01h-1.56v-19.14h18.26Zm-1.61,16.66v-15.16h-15.09v15.16h15.09Zm-7.46-3.34c-2.29,.44-4.62,.9-6.42,1.23l-.22-1.23c1.67-.26,4.11-.7,6.58-1.14l.07,1.14Zm5.46-6.4c-.55,2.07-1.39,3.87-2.44,5.39,.46,1.17,1.06,1.91,1.78,2.02,.31,.09,.53-.86,.68-2.27,.26,.26,.75,.59,1.06,.73-.29,2.4-1.03,3.28-2.18,2.84-.95-.2-1.69-.97-2.29-2.13-.86,.99-1.83,1.83-2.9,2.53-.2-.26-.68-.79-.97-1.03,1.3-.75,2.4-1.72,3.32-2.86-.59-1.76-.97-4.03-1.21-6.51h-6.73v-1.23h6.62c-.07-.77-.13-1.54-.18-2.33h1.41c.04,.79,.09,1.56,.13,2.33h4.8v1.23h-4.69c.18,1.89,.44,3.65,.81,5.06,.7-1.19,1.25-2.55,1.63-4.05l1.34,.29Zm-6.25,.09v4.27h-4.86v-4.27h4.86Zm-1.19,1.03h-2.53v2.2h2.53v-2.2Zm7-3.89c-.48-.48-1.5-1.17-2.35-1.54l.77-.81c.86,.4,1.87,.99,2.38,1.5l-.79,.86Z"/>
          <path class="cls-32" d="M147.22,161.07v1.41h-19.16v-1.41h9c-.2-.64-.46-1.39-.68-2l1.58-.37c.31,.75,.64,1.67,.88,2.38h8.38Zm-.7,16.06c0,.79-.2,1.12-.79,1.34-.57,.2-1.52,.22-2.9,.2-.09-.37-.33-.88-.53-1.21,.95,.04,1.96,.02,2.22,.02,.29-.02,.37-.09,.37-.35v-6.45h-14.46v8.16h-1.58v-9.55h17.67v7.83Zm-2.38-13.42v4.4h-12.76v-4.4h12.76Zm-1.98,12.78h-7.75v1.08h-1.52v-5.59h9.26v4.51Zm.31-11.57h-9.48v1.98h9.48v-1.98Zm-8.05,8.3v2.05h6.27v-2.05h-6.27Z"/>
          <path class="cls-32" d="M150.56,169.3h7.77v9.37h-1.61v-.99h-4.6v1.19h-1.56v-9.57Zm1.56,1.58v5.21h4.6v-5.21h-4.6Zm13.6-3.89h-11.97v-7.28h11.97v7.28Zm-1.65-5.72h-8.74v4.16h8.74v-4.16Zm4.84,8.03v9.42h-1.61v-1.03h-4.99v1.19h-1.58v-9.57h8.19Zm-1.61,6.8v-5.21h-4.99v5.21h4.99Z"/>
          <path class="cls-32" d="M174.83,163.29c-.26,1.17-.81,2.38-1.98,3.32-.22-.31-.79-.86-1.08-1.03,1.54-1.21,1.78-2.75,1.78-3.98v-1.78c2.27-.18,4.99-.53,6.47-.97l1.01,.99c-1.58,.48-3.92,.84-6.05,.99v1.21h6.42v1.25h-2.44v2.66h-1.5v-2.66h-2.64Zm4.86,12.92c-1.78,1.03-4.69,2.11-6.87,2.77-.13-.31-.57-1.08-.81-1.41,2.11-.46,4.82-1.25,6.42-2.05l1.25,.68Zm-4.88-9.81h13.71v9h-13.71v-9Zm1.58,2.64h10.5v-1.54h-10.5v1.54Zm0,2.6h10.5v-1.54h-10.5v1.54Zm0,2.66h10.5v-1.61h-10.5v1.61Zm15.05-12.26v1.25h-3.41v2.73h-1.5v-2.73h-2.86c-.22,1.06-.66,2.13-1.56,2.97-.24-.26-.86-.68-1.19-.84,1.3-1.25,1.52-2.79,1.52-4v-1.63c2.44-.15,5.3-.48,6.82-.95l1.12,.97c-1.72,.51-4.25,.84-6.54,.99v.62c0,.2,0,.4-.02,.62h7.61Zm-6.98,13.47c2.49,.66,5.08,1.52,6.73,2.2l-.79,1.19c-1.58-.7-4.11-1.63-6.58-2.33l.64-1.06Z"/>
          <path class="cls-32" d="M201.45,159.97c-1.58,3.61-4,7.11-6.45,9.35-.31-.33-1.01-1.01-1.45-1.32,2.46-2.05,4.75-5.26,6.12-8.58l1.78,.55Zm6.18,10.45c1.78,2.35,3.87,5.43,4.93,7.39l-1.63,.9c-.31-.62-.73-1.32-1.19-2.11-11.4,.79-12.61,.86-13.47,1.17-.09-.35-.4-1.23-.64-1.74,.59-.13,1.23-.86,2.05-1.89,.92-1.01,3.74-4.95,5.57-8.67l1.83,.77c-1.89,3.41-4.16,6.82-6.45,9.44l10.17-.57c-.86-1.36-1.85-2.79-2.73-3.96l1.56-.73Zm.46-11.09c1.06,3.48,3.26,6.78,5.83,8.47-.4,.33-.97,1.06-1.28,1.52-2.49-1.85-4.6-5.02-5.79-8.34h-4.09v-1.65h5.32Z"/>
          <path class="cls-32" d="M234.14,176.43c0,1.12-.24,1.69-.99,1.98-.77,.29-2.13,.31-4.09,.31-.07-.48-.31-1.3-.57-1.76,1.52,.04,3.04,.04,3.48,.02,.42-.02,.53-.13,.53-.55v-14.68h-15.82v-1.56h17.47v16.24Zm-4.16-10.91h-13.16v-1.47h13.16v1.47Zm-10.17,9.35v1.61h-1.61v-8.6h10.28v7h-8.67Zm0-5.54v4.09h7.06v-4.09h-7.06Z"/>
        </g>
      </g>
    </g>
  </g>
</svg>