<?xml version="1.0" encoding="UTF-8"?>
<svg xmlns="http://www.w3.org/2000/svg" xmlns:xlink="http://www.w3.org/1999/xlink" viewBox="0 0 315.9 302.59">
  <defs>
    <style>
      .cls-1 {
        fill: #585757;
        opacity: .92;
      }

      .cls-2 {
        fill: url(#linear-gradient-2);
      }

      .cls-3 {
        fill: #605e5e;
        opacity: .86;
      }

      .cls-4 {
        fill: #b5b2b2;
        opacity: .32;
      }

      .cls-5, .cls-6 {
        fill: #fff;
      }

      .cls-7 {
        fill: #535253;
        opacity: .96;
      }

      .cls-8 {
        fill: #666464;
        opacity: .81;
      }

      .cls-9 {
        fill: #918d8d;
        opacity: .52;
      }

      .cls-10 {
        fill: #b2aeae;
        opacity: .34;
      }

      .cls-11 {
        fill: #525152;
        opacity: .97;
      }

      .cls-12 {
        fill: #e2e0df;
        opacity: .1;
      }

      .cls-13 {
        fill: #7e7b7b;
        opacity: .64;
      }

      .cls-14 {
        fill: #8c8889;
        opacity: .55;
      }

      .cls-15 {
        fill: #e9e7e7;
        opacity: .07;
      }

      .cls-16 {
        fill: #dbd9d9;
        opacity: .13;
      }

      .cls-17 {
        fill: #7d7979;
        opacity: .65;
      }

      .cls-6 {
        opacity: 0;
      }

      .cls-18 {
        fill: #c2c0bf;
        opacity: .25;
      }

      .cls-19 {
        fill: #555455;
        opacity: .94;
      }

      .cls-20 {
        fill: #4f4f4f;
        opacity: .99;
      }

      .cls-21 {
        fill: #f7f6f6;
        opacity: .02;
      }

      .cls-22 {
        fill: #6f6b6c;
        opacity: .75;
      }

      .cls-23 {
        fill: #5a5959;
        opacity: .9;
      }

      .cls-24 {
        fill: #777474;
        opacity: .69;
      }

      .cls-25 {
        fill: #646161;
        opacity: .83;
      }

      .cls-26 {
        isolation: isolate;
      }

      .cls-27 {
        fill: #d0cece;
        opacity: .18;
      }

      .cls-28 {
        fill: #bfbbbb;
        opacity: .27;
      }

      .cls-29 {
        fill: #848181;
        opacity: .6;
      }

      .cls-30 {
        fill: #787575;
        opacity: .68;
      }

      .cls-31 {
        fill: #716e6e;
        opacity: .73;
      }

      .cls-32 {
        fill: #000101;
      }

      .cls-33 {
        fill: #e6e4e4;
        opacity: .08;
      }

      .cls-34 {
        fill: #4e4e4e;
      }

      .cls-35 {
        fill: #686565;
        opacity: .8;
      }

      .cls-36 {
        fill: #949091;
        opacity: .5;
      }

      .cls-37 {
        fill: #d9d7d6;
        opacity: .14;
      }

      .cls-38 {
        fill: #cecccc;
        opacity: .19;
      }

      .cls-39 {
        fill: #9d9999;
        opacity: .46;
      }

      .cls-40 {
        fill: #d4d2d2;
        opacity: .16;
      }

      .cls-41 {
        fill: #545354;
        opacity: .95;
      }

      .cls-42 {
        fill: #b7b4b4;
        opacity: .31;
      }

      .cls-43 {
        fill: #969292;
        opacity: .5;
      }

      .cls-44 {
        fill: #8f8b8c;
        opacity: .53;
      }

      .cls-45 {
        fill: #aca9a9;
        opacity: .37;
      }

      .cls-46 {
        fill: #a29e9e;
        opacity: .43;
      }

      .cls-47 {
        fill: #c6c4c3;
        opacity: .23;
      }

      .cls-48 {
        fill: #7a7677;
        opacity: .67;
      }

      .cls-49 {
        fill: #656363;
        opacity: .82;
      }

      .cls-50 {
        fill: #626060;
        opacity: .84;
      }

      .cls-51 {
        fill: #8a8787;
        opacity: .56;
      }

      .cls-52 {
        fill: #6a6868;
        opacity: .78;
      }

      .cls-53 {
        fill: #505050;
        opacity: .98;
      }

      .cls-54 {
        fill: #a5a1a2;
        opacity: .41;
      }

      .cls-55 {
        mix-blend-mode: multiply;
        opacity: .8;
      }

      .cls-56 {
        fill: #878484;
        opacity: .58;
      }

      .cls-57 {
        fill: #e4e2e2;
        opacity: .09;
      }

      .cls-58 {
        fill: #d2d0d0;
        opacity: .17;
      }

      .cls-59 {
        fill: #5c5a5a;
        opacity: .89;
      }

      .cls-60 {
        fill: #615f5f;
        opacity: .85;
      }

      .cls-61 {
        fill: #aaa7a7;
        opacity: .38;
      }

      .cls-62 {
        fill: #fafafa;
        opacity: 0;
      }

      .cls-63 {
        fill: #dfdddd;
        opacity: .11;
      }

      .cls-64 {
        fill: #f3f2f2;
        opacity: .03;
      }

      .cls-65 {
        fill: #696666;
        opacity: .79;
      }

      .cls-66 {
        fill: #999596;
        opacity: .48;
      }

      .cls-67 {
        fill: #bdb9b9;
        opacity: .28;
      }

      .cls-68 {
        fill: #989494;
        opacity: .49;
      }

      .cls-69 {
        fill: #807c7c;
        opacity: .63;
      }

      .cls-70 {
        fill: #8e8a8a;
        opacity: .54;
      }

      .cls-71 {
        fill: #dddbdb;
        opacity: .12;
      }

      .cls-72 {
        fill: #706d6d;
        opacity: .74;
      }

      .cls-73 {
        fill: #9b9797;
        opacity: .47;
      }

      .cls-74 {
        fill: #595858;
        opacity: .91;
      }

      .cls-75 {
        fill: #938f8f;
        opacity: .51;
      }

      .cls-76 {
        fill: #b0acac;
        opacity: .35;
      }

      .cls-77 {
        fill: #737070;
        opacity: .72;
      }

      .cls-78 {
        fill: #a7a3a3;
        opacity: .4;
      }

      .cls-79 {
        fill: #d7d4d4;
        opacity: .15;
      }

      .cls-80 {
        fill: #7b7878;
        opacity: .66;
      }

      .cls-81 {
        fill: #edecec;
        opacity: .05;
      }

      .cls-82 {
        fill: #b9b6b6;
        opacity: .3;
      }

      .cls-83 {
        fill: #817e7e;
        opacity: .62;
      }

      .cls-84 {
        fill: #ebe9e9;
        opacity: .06;
      }

      .cls-85 {
        fill: #575656;
        opacity: .93;
      }

      .cls-86 {
        fill: #898585;
        opacity: .57;
      }

      .cls-87 {
        fill: #aeaaab;
        opacity: .36;
      }

      .cls-88 {
        fill: #6d6a6a;
        opacity: .76;
      }

      .cls-89 {
        fill: #c4c2c1;
        opacity: .24;
      }

      .cls-90 {
        fill: #a09c9c;
        opacity: .44;
      }

      .cls-91 {
        fill: #cccaca;
        opacity: .2;
      }

      .cls-92 {
        fill: #767272;
        opacity: .7;
      }

      .cls-93 {
        fill: #5d5b5b;
        opacity: .88;
      }

      .cls-94 {
        fill: url(#linear-gradient);
      }

      .cls-95 {
        fill: #9e9a9b;
        opacity: .45;
      }

      .cls-96 {
        fill: #747171;
        opacity: .71;
      }

      .cls-97 {
        fill: #bbb8b8;
        opacity: .29;
      }

      .cls-98 {
        fill: #f0efef;
        opacity: .04;
      }

      .cls-99 {
        fill: #b4b0b0;
        opacity: .33;
      }

      .cls-100 {
        fill: #cac8c7;
        opacity: .21;
      }

      .cls-101 {
        fill: #0a5290;
      }

      .cls-102 {
        fill: #a3a0a0;
        opacity: .42;
      }

      .cls-103 {
        fill: #868282;
        opacity: .59;
      }

      .cls-104 {
        fill: #c1bdbd;
        opacity: .26;
      }

      .cls-105 {
        fill: #5e5c5d;
        opacity: .87;
      }

      .cls-106 {
        fill: #837f7f;
        opacity: .61;
      }

      .cls-107 {
        fill: #6c6969;
        opacity: .77;
      }

      .cls-108 {
        fill: #c8c6c5;
        opacity: .22;
      }

      .cls-109 {
        fill: #a9a5a5;
        opacity: .39;
      }
    </style>
    <linearGradient id="linear-gradient" x1="145.34" y1="246.53" x2="145.34" y2="-307.5" gradientUnits="userSpaceOnUse">
      <stop offset="0" stop-color="#fff"/>
      <stop offset="1" stop-color="#c8cacc"/>
    </linearGradient>
    <linearGradient id="linear-gradient-2" x1="145.09" y1="181.38" x2="145.09" y2="446.79" xlink:href="#linear-gradient"/>
  </defs>
  <g class="cls-26">
    <g id="Layer_1" data-name="Layer 1">
      <g>
        <g>
          <path class="cls-101" d="M315.9,145.66l-40.57-80.2v36.65h-9.72c-6.13-17.43-16.17-33.79-30.11-47.73C197.78,16.65,142.31,7.52,95.98,26.95c-2.31-4.31-5.28-8.37-8.91-12.01C67.15-4.98,34.86-4.98,14.94,14.94c-19.92,19.92-19.92,52.21,0,72.13,3.75,3.75,7.93,6.79,12.39,9.13-18.87,46.12-9.59,101.06,27.86,138.5,49.79,49.79,130.52,49.79,180.32,0,13.33-13.33,23.09-28.89,29.29-45.47h10.54v36.65l40.57-80.2Z"/>
          <g class="cls-55">
            <path class="cls-6" d="M174.21,302.59c-65.3,0-118.43-53.12-118.43-118.43s53.13-118.42,118.43-118.42,118.42,53.12,118.42,118.42-53.12,118.43-118.42,118.43Z"/>
            <path class="cls-62" d="M173.92,302.19c-65.3,0-118.43-53.12-118.43-118.43s53.13-118.42,118.43-118.42,118.42,53.12,118.42,118.42-53.12,118.43-118.42,118.43Z"/>
            <path class="cls-21" d="M173.63,301.78c-65.3,0-118.43-53.12-118.43-118.43s53.13-118.42,118.43-118.42,118.42,53.12,118.42,118.42-53.12,118.43-118.42,118.43Z"/>
            <path class="cls-64" d="M173.34,301.37c-65.3,0-118.43-53.12-118.43-118.43s53.13-118.42,118.43-118.42,118.42,53.12,118.42,118.42-53.12,118.43-118.42,118.43Z"/>
            <path class="cls-98" d="M173.05,300.97c-65.3,0-118.43-53.12-118.43-118.43s53.13-118.42,118.43-118.42,118.42,53.12,118.42,118.42-53.12,118.43-118.42,118.43Z"/>
            <path class="cls-81" d="M172.76,300.56c-65.3,0-118.43-53.12-118.43-118.43S107.46,63.71,172.76,63.71s118.42,53.12,118.42,118.42-53.12,118.43-118.42,118.43Z"/>
            <path class="cls-84" d="M172.47,300.16c-65.3,0-118.43-53.12-118.43-118.43S107.17,63.31,172.47,63.31s118.42,53.12,118.42,118.42-53.12,118.43-118.42,118.43Z"/>
            <path class="cls-15" d="M172.18,299.75c-65.3,0-118.43-53.12-118.43-118.43S106.88,62.9,172.18,62.9s118.42,53.12,118.42,118.42-53.12,118.43-118.42,118.43Z"/>
            <path class="cls-33" d="M171.9,299.35c-65.3,0-118.43-53.12-118.43-118.43S106.6,62.5,171.9,62.5s118.42,53.12,118.42,118.42-53.12,118.43-118.42,118.43Z"/>
            <path class="cls-57" d="M171.61,298.94c-65.3,0-118.43-53.12-118.43-118.43S106.31,62.09,171.61,62.09s118.42,53.12,118.42,118.42-53.12,118.43-118.42,118.43Z"/>
            <path class="cls-12" d="M171.32,298.53c-65.3,0-118.43-53.12-118.43-118.43S106.02,61.69,171.32,61.69s118.42,53.12,118.42,118.42-53.12,118.43-118.42,118.43Z"/>
            <path class="cls-63" d="M171.03,298.13c-65.3,0-118.43-53.12-118.43-118.43S105.73,61.28,171.03,61.28s118.42,53.12,118.42,118.42-53.12,118.43-118.42,118.43Z"/>
            <path class="cls-71" d="M170.74,297.72c-65.3,0-118.43-53.12-118.43-118.43S105.44,60.87,170.74,60.87s118.42,53.12,118.42,118.42-53.12,118.43-118.42,118.43Z"/>
            <path class="cls-16" d="M170.45,297.32c-65.3,0-118.43-53.12-118.43-118.43S105.15,60.47,170.45,60.47s118.42,53.12,118.42,118.42-53.12,118.43-118.42,118.43Z"/>
            <path class="cls-37" d="M170.16,296.91c-65.3,0-118.43-53.12-118.43-118.43S104.86,60.06,170.16,60.06s118.42,53.12,118.42,118.42-53.12,118.43-118.42,118.43Z"/>
            <path class="cls-79" d="M169.87,296.51c-65.3,0-118.43-53.12-118.43-118.43S104.57,59.66,169.87,59.66s118.42,53.12,118.42,118.42-53.12,118.43-118.42,118.43Z"/>
            <path class="cls-40" d="M169.59,296.1c-65.3,0-118.43-53.12-118.43-118.43S104.28,59.25,169.59,59.25s118.42,53.12,118.42,118.42-53.12,118.43-118.42,118.43Z"/>
            <path class="cls-58" d="M169.3,295.69c-65.3,0-118.43-53.12-118.43-118.43S104,58.84,169.3,58.84s118.42,53.12,118.42,118.42-53.12,118.43-118.42,118.43Z"/>
            <path class="cls-27" d="M169.01,295.29c-65.3,0-118.43-53.12-118.43-118.43S103.71,58.44,169.01,58.44s118.42,53.12,118.42,118.42-53.12,118.43-118.42,118.43Z"/>
            <path class="cls-38" d="M168.72,294.88c-65.3,0-118.43-53.12-118.43-118.43S103.42,58.03,168.72,58.03s118.42,53.12,118.42,118.42-53.12,118.43-118.42,118.43Z"/>
            <path class="cls-91" d="M168.43,294.48c-65.3,0-118.43-53.12-118.43-118.43S103.13,57.63,168.43,57.63s118.42,53.12,118.42,118.42-53.12,118.43-118.42,118.43Z"/>
            <path class="cls-100" d="M168.14,294.07c-65.3,0-118.43-53.12-118.43-118.43S102.84,57.22,168.14,57.22s118.42,53.12,118.42,118.42-53.12,118.43-118.42,118.43Z"/>
            <path class="cls-108" d="M167.85,293.66c-65.3,0-118.43-53.12-118.43-118.43S102.55,56.82,167.85,56.82s118.42,53.12,118.42,118.42-53.12,118.43-118.42,118.43Z"/>
            <path class="cls-47" d="M167.56,293.26c-65.3,0-118.43-53.12-118.43-118.43S102.26,56.41,167.56,56.41s118.42,53.12,118.42,118.42-53.12,118.43-118.42,118.43Z"/>
            <path class="cls-89" d="M167.27,292.85c-65.3,0-118.43-53.12-118.43-118.43S101.97,56,167.27,56s118.42,53.12,118.42,118.42-53.12,118.43-118.42,118.43Z"/>
            <path class="cls-18" d="M166.99,292.45c-65.3,0-118.43-53.12-118.43-118.43S101.68,55.6,166.99,55.6s118.42,53.12,118.42,118.42-53.12,118.43-118.42,118.43Z"/>
            <path class="cls-104" d="M166.7,292.04c-65.3,0-118.43-53.12-118.43-118.43S101.4,55.19,166.7,55.19s118.42,53.12,118.42,118.42-53.12,118.43-118.42,118.43Z"/>
            <path class="cls-28" d="M166.41,291.64c-65.3,0-118.43-53.12-118.43-118.43S101.11,54.79,166.41,54.79s118.42,53.12,118.42,118.42-53.12,118.43-118.42,118.43Z"/>
            <path class="cls-67" d="M166.12,291.23c-65.3,0-118.43-53.12-118.43-118.43S100.82,54.38,166.12,54.38s118.42,53.12,118.42,118.42-53.12,118.43-118.42,118.43Z"/>
            <path class="cls-97" d="M165.83,290.82c-65.3,0-118.43-53.12-118.43-118.43S100.53,53.97,165.83,53.97s118.42,53.12,118.42,118.42-53.12,118.43-118.42,118.43Z"/>
            <path class="cls-82" d="M165.54,290.42c-65.3,0-118.43-53.12-118.43-118.43S100.24,53.57,165.54,53.57s118.42,53.12,118.42,118.42-53.12,118.43-118.42,118.43Z"/>
            <path class="cls-42" d="M165.25,290.01c-65.3,0-118.43-53.12-118.43-118.43S99.95,53.16,165.25,53.16s118.42,53.12,118.42,118.42-53.12,118.43-118.42,118.43Z"/>
            <path class="cls-4" d="M164.96,289.61c-65.3,0-118.43-53.12-118.43-118.43S99.66,52.76,164.96,52.76s118.42,53.12,118.42,118.42-53.12,118.43-118.42,118.43Z"/>
            <path class="cls-99" d="M164.67,289.2c-65.3,0-118.43-53.12-118.43-118.43S99.37,52.35,164.67,52.35s118.42,53.12,118.42,118.42-53.12,118.43-118.42,118.43Z"/>
            <path class="cls-10" d="M164.39,288.79c-65.3,0-118.43-53.12-118.43-118.43S99.09,51.95,164.39,51.95s118.42,53.12,118.42,118.42-53.12,118.43-118.42,118.43Z"/>
            <path class="cls-76" d="M164.1,288.39c-65.3,0-118.43-53.12-118.43-118.43S98.8,51.54,164.1,51.54s118.42,53.12,118.42,118.42-53.12,118.43-118.42,118.43Z"/>
            <path class="cls-87" d="M163.81,287.98c-65.3,0-118.43-53.12-118.43-118.43S98.51,51.13,163.81,51.13s118.42,53.12,118.42,118.42-53.12,118.43-118.42,118.43Z"/>
            <path class="cls-45" d="M163.52,287.58c-65.3,0-118.43-53.12-118.43-118.43S98.22,50.73,163.52,50.73s118.42,53.12,118.42,118.42-53.12,118.43-118.42,118.43Z"/>
            <path class="cls-61" d="M163.23,287.17c-65.3,0-118.43-53.12-118.43-118.43S97.93,50.32,163.23,50.32s118.42,53.12,118.42,118.42-53.12,118.43-118.42,118.43Z"/>
            <path class="cls-109" d="M162.94,286.77c-65.3,0-118.43-53.12-118.43-118.43S97.64,49.92,162.94,49.92s118.42,53.12,118.42,118.42-53.12,118.43-118.42,118.43Z"/>
            <path class="cls-78" d="M162.65,286.36c-65.3,0-118.43-53.12-118.43-118.43S97.35,49.51,162.65,49.51s118.42,53.12,118.42,118.42-53.12,118.43-118.42,118.43Z"/>
            <path class="cls-54" d="M162.36,285.95c-65.3,0-118.43-53.12-118.43-118.43S97.06,49.1,162.36,49.1s118.42,53.12,118.42,118.42-53.12,118.43-118.42,118.43Z"/>
            <path class="cls-102" d="M162.07,285.55c-65.3,0-118.43-53.12-118.43-118.43S96.77,48.7,162.07,48.7s118.42,53.12,118.42,118.42-53.12,118.43-118.42,118.43Z"/>
            <path class="cls-46" d="M161.79,285.14c-65.3,0-118.43-53.12-118.43-118.43S96.49,48.29,161.79,48.29s118.42,53.12,118.42,118.42-53.12,118.43-118.42,118.43Z"/>
            <path class="cls-90" d="M161.5,284.74c-65.3,0-118.43-53.12-118.43-118.43S96.2,47.89,161.5,47.89s118.42,53.12,118.42,118.42-53.12,118.43-118.42,118.43Z"/>
            <path class="cls-95" d="M161.21,284.33c-65.3,0-118.43-53.12-118.43-118.43S95.91,47.48,161.21,47.48s118.42,53.12,118.42,118.42-53.12,118.43-118.42,118.43Z"/>
            <path class="cls-39" d="M160.92,283.92c-65.3,0-118.43-53.12-118.43-118.43S95.62,47.08,160.92,47.08s118.42,53.12,118.42,118.42-53.12,118.43-118.42,118.43Z"/>
            <path class="cls-73" d="M160.63,283.52c-65.3,0-118.43-53.12-118.43-118.43S95.33,46.67,160.63,46.67s118.42,53.12,118.42,118.42-53.12,118.43-118.42,118.43Z"/>
            <path class="cls-66" d="M160.34,283.11c-65.3,0-118.43-53.12-118.43-118.43S95.04,46.26,160.34,46.26s118.42,53.12,118.42,118.42-53.12,118.43-118.42,118.43Z"/>
            <path class="cls-68" d="M160.05,282.71c-65.3,0-118.43-53.12-118.43-118.43S94.75,45.86,160.05,45.86s118.42,53.12,118.42,118.42-53.12,118.43-118.42,118.43Z"/>
            <path class="cls-43" d="M159.76,282.3c-65.3,0-118.43-53.12-118.43-118.43S94.46,45.45,159.76,45.45s118.42,53.12,118.42,118.42-53.12,118.43-118.42,118.43Z"/>
            <path class="cls-36" d="M159.48,281.9c-65.3,0-118.43-53.12-118.43-118.43S94.17,45.05,159.48,45.05s118.42,53.12,118.42,118.42-53.12,118.43-118.42,118.43Z"/>
            <path class="cls-75" d="M159.19,281.49c-65.3,0-118.43-53.12-118.43-118.43S93.89,44.64,159.19,44.64s118.42,53.12,118.42,118.42-53.12,118.43-118.42,118.43Z"/>
            <path class="cls-9" d="M158.9,281.08c-65.3,0-118.43-53.12-118.43-118.43S93.6,44.24,158.9,44.24s118.42,53.12,118.42,118.42-53.12,118.43-118.42,118.43Z"/>
            <path class="cls-44" d="M158.61,280.68c-65.3,0-118.43-53.12-118.43-118.43S93.31,43.83,158.61,43.83s118.42,53.12,118.42,118.42-53.12,118.43-118.42,118.43Z"/>
            <path class="cls-70" d="M158.32,280.27c-65.3,0-118.43-53.12-118.43-118.43S93.02,43.42,158.32,43.42s118.42,53.12,118.42,118.42-53.12,118.43-118.42,118.43Z"/>
            <path class="cls-14" d="M158.03,279.87c-65.3,0-118.43-53.12-118.43-118.43S92.73,43.02,158.03,43.02s118.42,53.12,118.42,118.42-53.12,118.43-118.42,118.43Z"/>
            <path class="cls-51" d="M157.74,279.46c-65.3,0-118.43-53.12-118.43-118.43S92.44,42.61,157.74,42.61s118.42,53.12,118.42,118.42-53.12,118.43-118.42,118.43Z"/>
            <path class="cls-86" d="M157.45,279.05c-65.3,0-118.43-53.12-118.43-118.43S92.15,42.21,157.45,42.21s118.42,53.12,118.42,118.42-53.12,118.43-118.42,118.43Z"/>
            <path class="cls-56" d="M157.16,278.65c-65.3,0-118.43-53.12-118.43-118.43S91.86,41.8,157.16,41.8s118.42,53.12,118.42,118.42-53.12,118.43-118.42,118.43Z"/>
            <path class="cls-103" d="M156.88,278.24c-65.3,0-118.43-53.12-118.43-118.43S91.58,41.39,156.88,41.39s118.42,53.12,118.42,118.42-53.12,118.43-118.42,118.43Z"/>
            <path class="cls-29" d="M156.59,277.84c-65.3,0-118.43-53.12-118.43-118.43S91.29,40.99,156.59,40.99s118.42,53.12,118.42,118.42-53.12,118.43-118.42,118.43Z"/>
            <path class="cls-106" d="M156.3,277.43c-65.3,0-118.43-53.12-118.43-118.43S91,40.58,156.3,40.58s118.42,53.12,118.42,118.42-53.12,118.43-118.42,118.43Z"/>
            <path class="cls-83" d="M156.01,277.03c-65.3,0-118.43-53.12-118.43-118.43S90.71,40.18,156.01,40.18s118.42,53.12,118.42,118.42-53.12,118.43-118.42,118.43Z"/>
            <path class="cls-69" d="M155.72,276.62c-65.3,0-118.43-53.12-118.43-118.43S90.42,39.77,155.72,39.77s118.42,53.12,118.42,118.42-53.12,118.43-118.42,118.43Z"/>
            <path class="cls-13" d="M155.43,276.21c-65.3,0-118.43-53.12-118.43-118.43S90.13,39.37,155.43,39.37s118.42,53.12,118.42,118.42-53.12,118.43-118.42,118.43Z"/>
            <path class="cls-17" d="M155.14,275.81c-65.3,0-118.43-53.12-118.43-118.43S89.84,38.96,155.14,38.96s118.42,53.12,118.42,118.42-53.12,118.43-118.42,118.43Z"/>
            <path class="cls-80" d="M154.85,275.4c-65.3,0-118.43-53.12-118.43-118.43S89.55,38.55,154.85,38.55s118.42,53.12,118.42,118.42-53.12,118.43-118.42,118.43Z"/>
            <path class="cls-48" d="M154.56,275c-65.3,0-118.43-53.12-118.43-118.43S89.26,38.15,154.56,38.15s118.42,53.12,118.42,118.42-53.12,118.43-118.42,118.43Z"/>
            <path class="cls-30" d="M154.28,274.59c-65.3,0-118.43-53.12-118.43-118.43S88.98,37.74,154.28,37.74s118.42,53.12,118.42,118.42-53.12,118.43-118.42,118.43Z"/>
            <path class="cls-24" d="M153.99,274.18c-65.3,0-118.43-53.12-118.43-118.43S88.69,37.34,153.99,37.34s118.42,53.12,118.42,118.42-53.13,118.43-118.42,118.43Z"/>
            <path class="cls-92" d="M153.7,273.78c-65.3,0-118.43-53.12-118.43-118.43S88.4,36.93,153.7,36.93s118.42,53.12,118.42,118.42-53.13,118.43-118.42,118.43Z"/>
            <path class="cls-96" d="M153.41,273.37c-65.3,0-118.43-53.12-118.43-118.43S88.11,36.52,153.41,36.52s118.42,53.12,118.42,118.42-53.13,118.43-118.42,118.43Z"/>
            <path class="cls-77" d="M153.12,272.97c-65.3,0-118.43-53.12-118.43-118.43S87.82,36.12,153.12,36.12s118.42,53.12,118.42,118.42-53.13,118.43-118.42,118.43Z"/>
            <path class="cls-31" d="M152.83,272.56c-65.3,0-118.43-53.12-118.43-118.43S87.53,35.71,152.83,35.71s118.42,53.12,118.42,118.42-53.13,118.43-118.42,118.43Z"/>
            <path class="cls-72" d="M152.54,272.16c-65.3,0-118.43-53.12-118.43-118.43S87.24,35.31,152.54,35.31s118.42,53.12,118.42,118.42-53.13,118.43-118.42,118.43Z"/>
            <path class="cls-22" d="M152.25,271.75c-65.3,0-118.43-53.12-118.43-118.43S86.95,34.9,152.25,34.9s118.42,53.12,118.42,118.42-53.13,118.43-118.42,118.43Z"/>
            <path class="cls-88" d="M151.96,271.34c-65.3,0-118.43-53.12-118.43-118.43S86.66,34.5,151.96,34.5s118.42,53.12,118.42,118.42-53.13,118.43-118.42,118.43Z"/>
            <path class="cls-107" d="M151.68,270.94c-65.3,0-118.43-53.12-118.43-118.43S86.38,34.09,151.68,34.09s118.42,53.12,118.42,118.42-53.13,118.43-118.42,118.43Z"/>
            <path class="cls-52" d="M151.39,270.53c-65.3,0-118.43-53.12-118.43-118.43S86.09,33.68,151.39,33.68s118.42,53.12,118.42,118.42-53.13,118.43-118.42,118.43Z"/>
            <path class="cls-65" d="M151.1,270.13c-65.3,0-118.43-53.12-118.43-118.43S85.8,33.28,151.1,33.28s118.42,53.12,118.42,118.42-53.13,118.43-118.42,118.43Z"/>
            <path class="cls-35" d="M150.81,269.72c-65.3,0-118.43-53.12-118.43-118.43S85.51,32.87,150.81,32.87s118.42,53.12,118.42,118.42-53.13,118.43-118.42,118.43Z"/>
            <path class="cls-8" d="M150.52,269.31c-65.3,0-118.43-53.12-118.43-118.43S85.22,32.47,150.52,32.47s118.42,53.12,118.42,118.42-53.13,118.43-118.42,118.43Z"/>
            <path class="cls-49" d="M150.23,268.91c-65.3,0-118.43-53.12-118.43-118.43S84.93,32.06,150.23,32.06s118.42,53.12,118.42,118.42-53.13,118.43-118.42,118.43Z"/>
            <path class="cls-25" d="M149.94,268.5c-65.3,0-118.43-53.12-118.43-118.43S84.64,31.65,149.94,31.65s118.42,53.12,118.42,118.42-53.13,118.43-118.42,118.43Z"/>
            <path class="cls-50" d="M149.65,268.1c-65.3,0-118.43-53.12-118.43-118.43S84.35,31.25,149.65,31.25s118.42,53.12,118.42,118.42-53.13,118.43-118.42,118.43Z"/>
            <path class="cls-60" d="M149.37,267.69c-65.3,0-118.43-53.12-118.43-118.43S84.06,30.84,149.37,30.84s118.42,53.12,118.42,118.42-53.13,118.43-118.42,118.43Z"/>
            <path class="cls-3" d="M149.08,267.29c-65.3,0-118.43-53.12-118.43-118.43S83.78,30.44,149.08,30.44s118.42,53.12,118.42,118.42-53.13,118.43-118.42,118.43Z"/>
            <path class="cls-105" d="M148.79,266.88c-65.3,0-118.43-53.12-118.43-118.43S83.49,30.03,148.79,30.03s118.42,53.12,118.42,118.42-53.13,118.43-118.42,118.43Z"/>
            <path class="cls-93" d="M148.5,266.47c-65.3,0-118.43-53.12-118.43-118.43S83.2,29.63,148.5,29.63s118.42,53.12,118.42,118.42-53.13,118.43-118.42,118.43Z"/>
            <path class="cls-59" d="M148.21,266.07c-65.3,0-118.43-53.12-118.43-118.43S82.91,29.22,148.21,29.22s118.42,53.12,118.42,118.42-53.13,118.43-118.42,118.43Z"/>
            <path class="cls-23" d="M147.92,265.66c-65.3,0-118.43-53.12-118.43-118.43S82.62,28.81,147.92,28.81s118.42,53.12,118.42,118.42-53.13,118.43-118.42,118.43Z"/>
            <path class="cls-74" d="M147.63,265.26c-65.3,0-118.43-53.12-118.43-118.43S82.33,28.41,147.63,28.41s118.42,53.12,118.42,118.42-53.13,118.43-118.42,118.43Z"/>
            <path class="cls-1" d="M147.34,264.85c-65.3,0-118.43-53.12-118.43-118.43S82.04,28,147.34,28s118.42,53.12,118.42,118.42-53.13,118.43-118.42,118.43Z"/>
            <path class="cls-85" d="M147.05,264.44c-65.3,0-118.43-53.12-118.43-118.43S81.75,27.6,147.05,27.6s118.42,53.12,118.42,118.42-53.13,118.43-118.42,118.43Z"/>
            <path class="cls-19" d="M146.77,264.04c-65.3,0-118.43-53.12-118.43-118.43S81.47,27.19,146.77,27.19s118.42,53.12,118.42,118.42-53.13,118.43-118.42,118.43Z"/>
            <path class="cls-41" d="M146.48,263.63c-65.3,0-118.43-53.12-118.43-118.43S81.18,26.78,146.48,26.78s118.42,53.12,118.42,118.42-53.13,118.43-118.42,118.43Z"/>
            <path class="cls-7" d="M146.19,263.23c-65.3,0-118.43-53.12-118.43-118.43S80.89,26.38,146.19,26.38s118.42,53.12,118.42,118.42-53.13,118.43-118.42,118.43Z"/>
            <path class="cls-11" d="M145.9,262.82c-65.3,0-118.43-53.12-118.43-118.43S80.6,25.97,145.9,25.97s118.42,53.12,118.42,118.42-53.13,118.43-118.42,118.43Z"/>
            <path class="cls-53" d="M145.61,262.42c-65.3,0-118.43-53.12-118.43-118.43S80.31,25.57,145.61,25.57s118.42,53.12,118.42,118.42-53.13,118.43-118.42,118.43Z"/>
            <path class="cls-20" d="M145.32,262.01c-65.3,0-118.43-53.12-118.43-118.43S80.02,25.16,145.32,25.16s118.42,53.12,118.42,118.42-53.13,118.43-118.42,118.43Z"/>
            <path class="cls-34" d="M145.03,261.6c-65.3,0-118.43-53.12-118.43-118.43S79.73,24.76,145.03,24.76s118.42,53.12,118.42,118.42-53.13,118.43-118.42,118.43Z"/>
          </g>
          <circle class="cls-94" cx="145.34" cy="144.53" r="102"/>
          <circle class="cls-2" cx="145.09" cy="142.99" r="118.23"/>
        </g>
        <g>
          <path class="cls-5" d="M28.23,24.68l-2.3,.6v7.56h-2.71v-6.89l-3.17,.82-.7-2.9c1.06-.19,2.42-.48,3.86-.77v-5.28h-1.39c-.24,1.2-.53,2.33-.86,3.19-.48-.22-1.49-.6-2.02-.77,.79-1.94,1.22-5.04,1.44-7.97l2.16,.34c-.07,.84-.17,1.66-.29,2.5h.96v-4.66h2.71v4.66h2.06v2.71h-2.06v4.68l1.99-.46,.31,2.64Zm13.11-.05h-2.3v5.02c0,1.42-.26,2.16-1.22,2.62-.91,.43-2.26,.5-4.01,.5-.12-.84-.5-2.02-.86-2.83,1.13,.05,2.42,.05,2.81,.05,.36,0,.46-.1,.46-.41v-4.94h-7.63v-2.62h7.63v-1.68h2.83v1.68h2.3v2.62Zm-8.16-9.48h-4.51v-2.59h4.51v-2.14h2.83v2.14h4.8v2.59h-4.8v2.04h3.98v2.64h-10.44v-2.64h3.62v-2.04Zm-1.39,9.55c1.03,1.06,2.3,2.59,2.88,3.6l-2.26,1.46c-.5-1.01-1.7-2.62-2.74-3.77l2.11-1.3Z"/>
          <path class="cls-5" d="M59.86,29.82c2.3,0,2.66-.53,2.98-3.5,.72,.41,1.9,.86,2.69,1.01-.5,3.94-1.49,5.09-5.52,5.09h-8.21c-4.46,0-5.83-.86-5.83-4.3v-8.76c-.48,.38-.96,.74-1.42,1.06-.26-.65-1.03-2.06-1.54-2.71,2.83-1.7,5.74-4.46,7.34-7.44l2.59,.98c-.19,.34-.41,.7-.6,1.03h5.52l.55-.14,1.82,1.37c-.82,1.15-1.85,2.45-2.95,3.58h5.86v9.02h-2.81v-.82h-11.62v2.83c0,1.46,.41,1.7,3.02,1.7h8.11Zm-9.34-15c-.65,.79-1.3,1.54-2.02,2.26h5.38c.7-.65,1.39-1.44,2.02-2.26h-5.38Zm-1.8,7.75h4.46v-2.86h-4.46v2.86Zm11.62-2.86h-4.37v2.86h4.37v-2.86Z"/>
          <path class="cls-5" d="M32.28,63.36c7.72-7.36,12.8-12.4,12.8-16.68,0-2.92-1.6-4.68-4.44-4.68-2.16,0-3.92,1.44-5.44,3.08l-3.2-3.2c2.72-2.92,5.36-4.52,9.4-4.52,5.6,0,9.32,3.56,9.32,9,0,5.04-4.64,10.24-9.92,15.76,1.48-.16,3.44-.32,4.84-.32h6.48v4.96h-19.84v-3.4Z"/>
        </g>
        <g>
          <path class="cls-101" d="M103.54,104.41c-.88-1.52-2.48-3.76-4-5.76-1,4.28-2.92,8.32-6.52,11.24-.68-1-2.16-2.6-3.24-3.4,4.4-3.24,5.8-8.72,6.2-13.76h-5.64v-4.32h5.8v-5.04h-5.2v-4.2h5.2v-5.72h4.44v5.72h5v4.2h-5v5.04h5.64v4.32h-5.8l-.08,.96c1.68,1.72,5.52,6.12,6.4,7.24l-3.2,3.48Zm19.4,1.08c.64,0,.8-.52,.88-4.72,.88,.68,2.72,1.4,3.92,1.72-.4,5.68-1.48,7.12-4.32,7.12h-2.64c-3.52,0-4.28-1.32-4.28-5.24v-6.96h-2.04c-.68,5.88-2.48,10.36-9.52,13.04-.48-1.12-1.68-2.76-2.56-3.56,5.84-1.96,7.08-5.24,7.6-9.48h-2.56v-22.96h17.76v22.96h-4.28v6.88c0,1.08,.08,1.2,.68,1.2h1.36Zm-11.12-24.48h8.76v-2.36h-8.76v2.36Zm0,6.12h8.76v-2.36h-8.76v2.36Zm0,6.08h8.76v-2.36h-8.76v2.36Z"/>
          <path class="cls-101" d="M141.46,96.74c-.4-1.28-1.16-3.08-1.96-4.88v18.52h-4.32v-15.24c-.96,3-2.08,5.8-3.28,7.76-.48-1.4-1.52-3.6-2.24-4.88,2.2-3.04,4.24-8.64,5.32-13.12h-4.36v-4.44h4.56v-7.44h4.32v7.44h4.08v4.44h-4.08v.72c1.12,1.64,4.16,6.64,4.84,7.88l-2.88,3.24Zm16.88,5.32c3.08,1.48,7.24,3.52,9.4,4.88l-3,3.32c-2.2-1.48-6.76-3.96-10-5.64l2.48-2.56h-1.28c-1.52,3.92-4.8,6.68-11.92,8.4-.4-1.16-1.52-2.92-2.4-3.84,5-1,7.64-2.48,9.12-4.56h-7.84v-3.92h9.36c.12-.72,.24-1.48,.32-2.28h-7.64v-13.16h19.96v13.16h-7.64c-.08,.8-.16,1.52-.28,2.28h9.72v3.92h-8.36Zm-11.04-22.32h-4v-3.84h4v-2.8h4.2v2.8h2.84v3.84h-2.84v2.16h-4.2v-2.16Zm2.04,7.96h10.96v-1.72h-10.96v1.72Zm0,4.84h10.96v-1.76h-10.96v1.76Zm8.72-12.84h-2.8v-3.84h2.8v-2.76h4.24v2.76h4.68v3.84h-4.68v2.2h-4.24v-2.2Z"/>
          <path class="cls-101" d="M192.34,88.7c2.64,7.8,7.48,14.08,14.96,17.12-1.2,1-2.76,3.12-3.52,4.48-7.24-3.4-11.88-9.24-15-16.96-2.16,6.68-6.48,12.92-14.96,17-.76-1.32-2.16-3.04-3.56-4.04,9.16-4.08,12.96-10.72,14.52-17.6h-13.76v-4.92h14.56c.4-3.76,.36-7.4,.4-10.68h5.2c-.04,3.28-.08,6.96-.48,10.68h15.72v4.92h-14.08Z"/>
          <path class="cls-32" d="M60.87,142.35v6.18c0,.92-.24,1.36-.81,1.61-.55,.26-1.47,.31-2.97,.31-.07-.42-.31-1.08-.51-1.52,1.06,.04,2,.02,2.27,.02,.31,0,.42-.11,.42-.42v-5.68l-2.77,.81-.48-1.58c.9-.22,2.02-.53,3.26-.88v-4.73h-2.99v-1.54h2.99v-4.4h1.61v4.4h2.73v1.54h-2.73v4.29l2.05-.59,.22,1.5-2.27,.68Zm13.8-1.76c-.88,2.64-2.4,4.71-4.29,6.29,1.65,1.03,3.63,1.8,5.83,2.27-.37,.35-.81,1.03-1.03,1.5-2.35-.57-4.44-1.5-6.16-2.75-1.91,1.3-4.14,2.18-6.45,2.77-.15-.46-.51-1.14-.81-1.5,2.11-.46,4.16-1.23,5.94-2.33-1.5-1.39-2.71-3.08-3.59-5.04l.22-.09h-.86v-1.54h9.83l.31-.07,1.06,.48Zm-7.52-6.82c0,1.96-.59,4.31-3.3,5.88-.2-.33-.77-.95-1.08-1.21,2.44-1.34,2.84-3.15,2.84-4.71v-2.42h6.93v5.08c0,.62,.07,.84,.42,.84h1.69c.33,0,.81-.04,1.1-.11,.02,.42,.07,1.03,.13,1.41-.29,.09-.75,.11-1.19,.11h-1.85c-1.54,0-1.87-.64-1.87-2.27v-3.52h-3.83v.92Zm-1.45,7.94c.77,1.61,1.94,3.01,3.34,4.2,1.43-1.14,2.64-2.53,3.43-4.2h-6.78Z"/>
          <path class="cls-32" d="M85.84,147.33c-.55-.84-1.87-2.49-2.88-3.67-.51,2.49-1.56,4.91-3.76,6.71-.2-.35-.73-.92-1.1-1.19,2.79-2.09,3.52-5.48,3.7-8.47h-3.56v-1.47h3.63v-3.61h-3.17v-1.45h3.17v-3.41h1.52v3.41h3.1v1.45h-3.1v3.61h3.5v1.47h-3.56c-.02,.42-.07,.86-.11,1.28,.92,.92,3.21,3.5,3.76,4.14l-1.12,1.21Zm10.54,1.45c.48,0,.57-.33,.64-2.9,.31,.26,.95,.51,1.36,.62-.13,2.99-.53,3.74-1.83,3.74h-1.78c-1.52,0-1.83-.48-1.83-2.02v-4.66h-1.96c-.4,3.32-1.52,5.72-5.26,7.04-.15-.35-.59-.95-.92-1.23,3.34-1.08,4.29-3.1,4.64-5.81h-1.76v-12.17h9.37v12.17h-2.62v4.66c0,.51,.09,.57,.55,.57h1.39Zm-7.17-13.77h6.27v-2.13h-6.27v2.13Zm0,3.52h6.27v-2.16h-6.27v2.16Zm0,3.54h6.27v-2.2h-6.27v2.2Z"/>
          <path class="cls-32" d="M106.32,142.57c-.29-.73-.9-2.07-1.47-3.19v11.22h-1.52v-10.54c-.68,2.31-1.58,4.58-2.49,5.98-.18-.48-.55-1.19-.84-1.58,1.28-1.8,2.57-5.3,3.21-8.19h-2.68v-1.54h2.79v-4.22h1.52v4.22h2.46v1.54h-2.46v.88c.57,.88,2.11,3.56,2.49,4.22l-1.01,1.19Zm7.15,3.19c-.86,2.35-2.62,3.92-6.47,4.86-.15-.37-.53-.99-.86-1.3,3.21-.73,4.8-1.89,5.61-3.56h-5.08v-1.39h5.57c.13-.55,.24-1.19,.31-1.83h-4.44v-6.75h10.72v6.75h-4.67c-.07,.64-.18,1.25-.29,1.83h6.01v1.39h-6.4Zm-3.65-12.04h-2.71v-1.39h2.71v-1.78h1.5v1.78h1.76v1.39h-1.76v1.54h-1.5v-1.54Zm-.18,4.86h7.59v-1.56h-7.59v1.56Zm0,2.73h7.59v-1.56h-7.59v1.56Zm4.77,4.58c1.91,1.01,4.51,2.53,5.85,3.43l-1.01,1.21c-1.3-.97-3.87-2.53-5.81-3.61l.97-1.03Zm1.28-12.19h-1.85v-1.39h1.85v-1.76h1.47v1.76h2.97v1.39h-2.97v1.58h-1.47v-1.58Z"/>
          <path class="cls-32" d="M122.16,147.75c4.73-4.71,7.39-7.53,7.39-10.1,0-1.78-.97-3.06-2.97-3.06-1.32,0-2.46,.84-3.34,1.87l-1.17-1.12c1.32-1.43,2.71-2.38,4.75-2.38,2.88,0,4.69,1.83,4.69,4.6,0,2.95-2.68,5.87-6.4,9.79,.84-.07,1.8-.15,2.64-.15h4.55v1.74h-10.14v-1.19Z"/>
          <path class="cls-32" d="M134.37,147.75c4.73-4.71,7.39-7.53,7.39-10.1,0-1.78-.97-3.06-2.97-3.06-1.32,0-2.46,.84-3.34,1.87l-1.17-1.12c1.32-1.43,2.71-2.38,4.75-2.38,2.88,0,4.69,1.83,4.69,4.6,0,2.95-2.68,5.87-6.4,9.79,.84-.07,1.8-.15,2.64-.15h4.55v1.74h-10.14v-1.19Z"/>
          <path class="cls-32" d="M146.25,147.02l1.01-1.32c.95,.99,2.18,1.85,4,1.85s3.28-1.12,3.28-2.88c0-1.87-1.3-3.1-5.02-3.1v-1.54c3.32,0,4.47-1.3,4.47-2.95,0-1.52-1.06-2.49-2.73-2.49-1.3,0-2.44,.66-3.34,1.58l-1.08-1.25c1.21-1.14,2.64-1.96,4.51-1.96,2.71,0,4.69,1.43,4.69,3.98,0,1.89-1.17,3.1-2.86,3.72v.09c1.89,.46,3.41,1.85,3.41,4,0,2.79-2.31,4.47-5.17,4.47-2.53,0-4.11-1.06-5.17-2.2Z"/>
          <path class="cls-32" d="M159.43,147.7c0-.92,.66-1.56,1.45-1.56s1.45,.64,1.45,1.56-.66,1.52-1.45,1.52-1.45-.62-1.45-1.52Z"/>
          <path class="cls-32" d="M172.82,134.96h-7.81v-1.72h10.1v1.23c-3.7,4.75-4.49,8.34-4.73,14.46h-2.09c.26-5.92,1.45-9.66,4.53-13.97Z"/>
          <path class="cls-32" d="M183.58,131.07c-.62,1.72-1.41,3.43-2.29,5.04v14.48h-1.56v-11.97c-.59,.84-1.23,1.65-1.85,2.33-.18-.4-.66-1.23-.92-1.61,2.02-2.13,3.94-5.41,5.1-8.74l1.52,.46Zm-1.23,18.28c.66-.92,1.36-2.49,1.76-3.56l1.28,.55c-.42,1.12-1.08,2.68-1.74,3.72l-1.3-.7Zm9.22-13.27c.35-.68,.7-1.54,.9-2.13h-8.82v-1.28h5.5c-.22-.59-.48-1.34-.77-1.91l1.52-.29c.33,.66,.73,1.58,.95,2.2h5.68v1.28h-3.85l1.47,.37c-.35,.59-.68,1.23-.99,1.76h4.09v1.34h-14.63v-1.34h3.94c-.13-.53-.46-1.23-.81-1.78l1.39-.31c.37,.53,.75,1.32,.88,1.8l-1.1,.29h4.66Zm3.92,8.52h-6.34c1.03,.64,2.22,1.52,2.84,2.18l-1.03,.9c-.66-.68-2.02-1.74-3.12-2.46l.79-.62h-4.16v-6.03h11.02v6.03Zm-1.61-4.93h-7.85v1.41h7.85v-1.41Zm0,2.42h-7.85v1.41h7.85v-1.41Zm-1.85,7.13c.7,0,.86-.2,.9-1.65,.35,.22,.95,.44,1.36,.53-.18,1.96-.64,2.44-2.09,2.44h-3.61c-1.96,0-2.46-.4-2.46-1.89v-2.9h1.52v2.9c0,.51,.13,.57,1.1,.57h3.28Zm2.66-3.72c.97,1.19,2.13,2.82,2.62,3.87l-1.34,.66c-.48-1.08-1.58-2.77-2.57-3.98l1.3-.55Z"/>
          <path class="cls-32" d="M218.96,140.11v1.45h-9.18c-.07,.59-.15,1.17-.26,1.69h9.09v1.43h-9.48c-1.03,3.01-3.39,4.88-9.15,5.88-.13-.42-.55-1.1-.86-1.47,5.08-.73,7.24-2.13,8.23-4.4h-7.39v-1.43h7.85c.13-.53,.22-1.1,.29-1.69h-8.63v-1.45h8.82v-1.85h-6.84v-1.43h6.84v-1.78h-8.05v-1.47h4.64c-.35-.77-1.03-1.78-1.69-2.55l1.41-.57c.81,.84,1.58,1.98,1.94,2.77l-.79,.35h5.79c.66-.9,1.43-2.2,1.89-3.12l1.67,.51c-.53,.9-1.19,1.85-1.76,2.62h4.69v1.47h-8.1v1.78h7.04v1.43h-7.04v1.85h9.04Zm-9,4.82c3.01,1.14,6.97,3.04,8.98,4.36l-.77,1.41c-1.94-1.36-5.88-3.34-8.91-4.55l.7-1.21Z"/>
          <path class="cls-32" d="M238.5,148.67c.88,0,1.01-.57,1.12-3.94,.37,.31,1.08,.59,1.52,.73-.18,3.74-.62,4.77-2.53,4.77h-3.15c-1.96,0-2.49-.57-2.49-2.44v-7.83h-4.11c-.42,4.71-1.47,8.56-6.54,10.61-.2-.4-.66-.99-1.03-1.28,4.69-1.78,5.5-5.21,5.83-9.33h-5.57v-1.58h19.25v1.58h-6.18v7.81c0,.75,.18,.9,1.03,.9h2.84Zm.46-14.85h-15.49v-1.56h15.49v1.56Z"/>
          <path class="cls-32" d="M61.92,168.97v2.57h5.48v7.04h-1.61v-.73h-9.22v.77h-1.56v-7.08h5.3v-2.57h-7.06c-.2,3.26-.79,6.98-2.57,9.68-.31-.26-1.01-.68-1.43-.86,2.24-3.41,2.44-8.23,2.44-11.73v-6.36h16.11v5.35h-5.88v2.44h7.11v1.47h-7.11Zm-1.61-1.47v-2.44h-7v1.01c0,.46,0,.92-.02,1.43h7.02Zm-7-6.31v2.4h12.85v-2.4h-12.85Zm12.48,11.82h-9.22v3.41h9.22v-3.41Z"/>
          <path class="cls-32" d="M84.91,161.03c2.13,1.87,4.66,4.55,5.81,6.38l-1.39,.99c-.33-.57-.79-1.21-1.34-1.89-12.56,.7-13.84,.75-14.7,1.06-.07-.35-.35-1.17-.53-1.61,.48-.09,1.06-.57,1.78-1.3,.79-.7,3.34-3.48,5.06-6.21l1.61,.73c-1.74,2.38-3.7,4.64-5.63,6.47l11.22-.55c-1.01-1.14-2.13-2.29-3.19-3.23l1.3-.84Zm-10.45,8.38h13.99v9.15h-1.72v-1.14h-10.63v1.19h-1.65v-9.2Zm1.65,1.56v4.86h10.63v-4.86h-10.63Z"/>
          <path class="cls-32" d="M96.48,168.04c-.64-.7-2.02-1.69-3.15-2.31l.92-1.1c1.14,.55,2.53,1.5,3.21,2.18l-.99,1.23Zm-2.73,9.46c.79-1.69,1.94-4.53,2.75-7l1.28,.86c-.73,2.29-1.69,4.97-2.55,6.98l-1.47-.84Zm3.1-15.16c-.59-.73-1.94-1.76-3.04-2.44l.95-1.08c1.1,.62,2.46,1.61,3.08,2.33l-.99,1.19Zm2.44,4.29c-.22,1.08-.55,2.27-.97,3.04-.18-.15-.59-.4-.81-.53,.42-.79,.66-1.76,.84-2.73l.95,.22Zm2.95-.86c-.07-.2-.15-.46-.26-.7-2.99,.4-3.5,.53-3.81,.68-.04-.2-.24-.64-.37-.86,.33-.04,.64-.33,1.01-.77,.24-.22,.81-.86,1.36-1.65-1.43,.13-1.8,.22-2.02,.31-.07-.2-.24-.64-.37-.84,.26-.04,.44-.24,.66-.57,.22-.29,1.01-1.54,1.36-2.71l1.03,.37c-.37,.9-.92,1.85-1.47,2.57l1.47-.11c.2-.33,.4-.64,.57-.99l.99,.44c-.77,1.25-1.72,2.51-2.71,3.52l1.94-.24c-.13-.24-.29-.48-.42-.73l.81-.29c.46,.7,.9,1.61,1.06,2.16l-.84,.4Zm10.21,8.45s-.02,.46-.09,.66c-.42,1.89-.86,2.86-1.45,3.3-.46,.33-.92,.42-1.65,.42-.66,.02-1.98,0-3.37-.09-.04-.37-.22-.9-.46-1.25,1.41,.13,2.84,.15,3.39,.15,.48,0,.7-.02,.92-.18,.37-.24,.66-.81,.95-1.89h-11.57c.35-.92,.68-2.2,.95-3.28h9.92v-1.14h-10.72v-1.06h12.23v3.26h-10.19c-.09,.37-.2,.75-.31,1.1h11.44Zm-12.21-4.93c-.02-.7-.22-1.85-.48-2.71l.86-.22c.29,.86,.51,1.94,.53,2.62l-.9,.31Zm1.96-3.28c.37,.77,.7,1.74,.79,2.35l-.84,.37c-.11-.64-.42-1.65-.77-2.46l.81-.26Zm5.85-4.29h-5.28v-1.01h2.33c-.15-.53-.55-1.23-.86-1.74l1.12-.29c.35,.51,.75,1.28,.95,1.74l-.97,.29h2.71v1.01Zm-4.69,4.11h4.14v3.23h-4.14v-3.23Zm4.11-2.42h-4.05v-.92h4.05v.92Zm-4.05,.7h4.05v.9h-4.05v-.9Zm1.01,4.05h1.94v-1.45h-1.94v1.45Zm5.04-1.63c-.2,1.06-.55,2.22-.95,3.04-.18-.15-.62-.44-.86-.57,.44-.75,.68-1.74,.86-2.68l.95,.22Zm3.04-.73c-.07-.24-.2-.51-.33-.84-2.99,.44-3.52,.57-3.83,.68-.04-.18-.24-.64-.37-.86,.35-.04,.64-.31,1.03-.73,.24-.24,.77-.86,1.34-1.65-1.43,.11-1.8,.2-2.02,.31-.07-.2-.24-.66-.37-.86,.26-.02,.42-.24,.64-.55,.24-.31,1.03-1.54,1.39-2.71l1.03,.37c-.37,.9-.92,1.83-1.47,2.55l1.45-.09c.22-.33,.42-.66,.59-.99l1.01,.44c-.77,1.25-1.74,2.49-2.71,3.5l1.91-.24c-.13-.24-.26-.48-.4-.7l.77-.29c.51,.7,.99,1.69,1.17,2.31l-.84,.33Zm-2.07,3.65c-.02-.75-.24-1.98-.55-2.93l.88-.22c.31,.95,.53,2.13,.55,2.86l-.88,.29Zm1.91-3.5c.46,.88,.84,2.05,.97,2.75l-.86,.4c-.11-.79-.48-1.96-.9-2.88l.79-.26Z"/>
          <path class="cls-32" d="M121.89,170.18c-.31-.68-.99-1.96-1.58-3.04v11.46h-1.56v-10.5c-.7,2.38-1.65,4.64-2.64,6.05-.15-.48-.55-1.19-.86-1.58,1.36-1.83,2.75-5.3,3.41-8.3h-2.84v-1.54h2.93v-4.22h1.56v4.22h2.49v1.54h-2.49v.86c.59,.81,2.2,3.28,2.57,3.89l-.99,1.14Zm13.07-.79c-.9,1.58-2.07,3.01-3.45,4.31,1.45,1.17,3.19,2.62,4.07,3.59l-1.23,1.1c-.86-.97-2.53-2.49-3.98-3.7-2.05,1.65-4.51,2.99-7.26,3.94-.2-.37-.66-1.01-.97-1.34,5.1-1.65,9.26-4.8,11.16-8.49l1.67,.59Zm-1.74-3.96c-1.87,3.34-5.19,6.47-9.06,8.32-.18-.35-.62-.92-.92-1.23,2.2-1.01,4.25-2.51,5.88-4.14-3.94,.26-4.58,.4-5,.53-.04-.37-.31-1.19-.44-1.54,.42-.09,1.03-.24,1.41-.64,.42-.44,1.65-2.42,2.4-3.7h-4.18v-1.52h5.74c-.24-.79-.66-1.8-1.1-2.62l1.52-.46c.55,.92,1.1,2.18,1.28,2.99l-.22,.09h4.93v1.52h-6.21c-.75,1.23-1.8,2.9-2.6,4.11l3.74-.22c.51-.66,.97-1.36,1.3-2.05l1.54,.55Z"/>
          <path class="cls-32" d="M143.15,158.96c-.48,1.5-1.06,3.06-1.69,4.51v15.12h-1.58v-12.04c-.55,.95-1.14,1.8-1.74,2.57-.15-.37-.59-1.25-.88-1.67,1.8-2.2,3.41-5.54,4.4-8.93l1.5,.44Zm4.66,6.98c-.35,.59-.79,1.19-1.28,1.72h9.64v9.31c0,.73-.13,1.08-.64,1.34-.46,.22-1.21,.24-2.22,.24-.07-.4-.29-.95-.46-1.32,.66,.02,1.28,.02,1.5,0,.22,0,.26-.07,.26-.29v-1.63h-3.43v2.79h-1.5v-2.79h-3.78c-.26,1.23-.68,2.42-1.45,3.39-.26-.26-.92-.79-1.3-.99,1.32-1.72,1.45-4.03,1.45-5.85v-2.35c-.62,.51-1.28,.95-1.89,1.34-.18-.31-.68-.99-.97-1.3,1.63-.86,3.23-2.13,4.33-3.61h-3.19v-1.52h3.94v-2.13h-3.32v-1.5h3.32v-2.16h1.56v2.16h3.67v-2.16h1.58v2.16h2.97v1.5h-2.97v2.13h3.54v1.52h-9.37Zm1.87,8.12v-1.91h-3.5c0,.59-.04,1.25-.11,1.91h3.61Zm-3.5-3.17h3.5v-1.85h-3.5v1.85Zm2.2-6.47h3.67v-2.13h-3.67v2.13Zm6.23,4.62h-3.43v1.85h3.43v-1.85Zm0,5.02v-1.91h-3.43v1.91h3.43Z"/>
          <path class="cls-32" d="M159.65,169.69c0-6.31,2.84-8.73,5.98-8.73,1.67,0,2.88,.7,3.76,1.65l-1.12,1.25c-.64-.77-1.61-1.23-2.57-1.23-2.22,0-4.07,1.69-4.16,6.69,1.01-1.21,2.4-1.96,3.67-1.96,2.71,0,4.47,1.63,4.47,4.82,0,3.01-2.11,5.04-4.62,5.04-3.1,0-5.41-2.51-5.41-7.53Zm1.94,1.25c.26,3.06,1.47,4.71,3.45,4.71,1.56,0,2.75-1.39,2.75-3.48s-.97-3.32-2.9-3.32c-1.01,0-2.24,.55-3.3,2.09Z"/>
          <path class="cls-32" d="M171.75,169.03c0-5.26,1.91-8.08,5.04-8.08s5.02,2.84,5.02,8.08-1.89,8.19-5.02,8.19-5.04-2.93-5.04-8.19Zm8.1,0c0-4.6-1.23-6.47-3.06-6.47s-3.08,1.87-3.08,6.47,1.23,6.58,3.08,6.58,3.06-1.98,3.06-6.58Z"/>
          <path class="cls-32" d="M188.51,166.44c.59,.81,2.18,3.26,2.55,3.83l-.88,1.21c-.31-.7-1.06-2.07-1.67-3.17v10.28h-1.5v-10.06c-.7,2.31-1.61,4.55-2.53,5.94-.2-.42-.59-1.06-.86-1.43,1.32-1.83,2.62-5.26,3.23-8.25h-2.77v-1.52h2.93v-4.75h1.5v4.75h2.22v1.52h-2.22v1.65Zm15.14-4.36v3.52h-1.54v-2.22h-9.62v2.22h-1.47v-3.52h2.33c-.2-.77-.77-1.94-1.34-2.79l1.34-.44c.59,.84,1.19,1.98,1.41,2.73l-1.34,.51h3.04v-3.54h1.54v3.54h2.73l-1.12-.44c.48-.79,1.14-2.05,1.45-2.88l1.5,.51c-.55,.99-1.19,2.07-1.69,2.82h2.79Zm-12.06,8.43h11.44v8.05h-1.56v-.81h-8.38v.86h-1.5v-8.1Zm10.21-5.61v4.4h-8.76v-4.4h8.76Zm-8.71,6.89v1.74h3.43v-1.74h-3.43Zm3.43,4.71v-1.76h-3.43v1.76h3.43Zm3.74-10.41h-5.79v2.02h5.79v-2.02Zm1.21,5.7h-3.54v1.74h3.54v-1.74Zm0,4.71v-1.76h-3.54v1.76h3.54Z"/>
          <path class="cls-32" d="M212.67,173.17c-2.2,.9-4.58,1.83-6.42,2.53l-.53-1.65c.77-.24,1.72-.57,2.75-.95v-7.7h-2.4v-1.54h2.4v-5.08h1.58v5.08h2.13v1.54h-2.13v7.13l2.31-.86,.31,1.5Zm10.54,3.87c.31,0,.64-.02,.75-.09,.18-.04,.33-.22,.4-.46,.04-.31,.07-.99,.09-1.87,.33,.29,.88,.57,1.32,.7-.04,.86-.13,1.76-.26,2.13-.18,.33-.42,.57-.81,.68-.33,.11-.92,.18-1.34,.18h-1.47c-.51,0-1.17-.11-1.5-.37-.4-.26-.55-.62-.55-1.78v-3.26h-1.96c-.35,3.17-1.47,4.84-5.48,5.79-.15-.37-.57-.99-.86-1.28,3.56-.73,4.51-1.96,4.8-4.51h-2.29v-6.23h9.99v6.23h-2.66v3.41c0,.33,.02,.55,.2,.62,.13,.09,.33,.11,.59,.11h1.06Zm1.98-11.51h-12.21v-1.41h3.1c-.11-.59-.4-1.45-.68-2.11l1.34-.29c.29,.68,.66,1.61,.79,2.18l-.81,.22h3.65c.33-.7,.73-1.67,.92-2.33l1.52,.33c-.33,.7-.68,1.41-.97,2h3.34v1.41Zm-.57-4h-10.98v-1.39h4.75c-.18-.48-.42-.99-.62-1.45l1.52-.29c.26,.53,.55,1.19,.75,1.74h4.58v1.39Zm-9.07,7.7h6.91v-1.43h-6.91v1.43Zm0,2.55h6.91v-1.47h-6.91v1.47Z"/>
          <path class="cls-32" d="M237.31,161.8l1.12,.37c-1.14,8.63-4.53,13.8-9.2,16.37-.26-.42-.92-1.06-1.34-1.34,2.55-1.32,4.69-3.37,6.25-6.27-.84-1.08-2.27-2.51-3.56-3.7-.44,.77-.9,1.43-1.39,2.05-.26-.29-.99-.81-1.34-1.03,2-2.27,3.39-5.9,4.18-9.73l1.61,.31c-.24,1.06-.48,2.07-.79,3.06h4.14l.33-.09Zm-5,1.63c-.31,.86-.66,1.69-1.06,2.49,1.23,1.03,2.66,2.35,3.63,3.43,.7-1.72,1.25-3.67,1.63-5.92h-4.2Zm10.28,1.72c1.89,1.5,4.27,3.59,5.43,4.97l-1.3,1.12c-.99-1.25-2.99-3.1-4.73-4.58v11.95h-1.67v-20.07h1.67v7.08l.59-.48Z"/>
          <path class="cls-32" d="M65.35,196.11v1.45h-9.18c-.07,.59-.15,1.17-.26,1.69h9.09v1.43h-9.48c-1.03,3.01-3.39,4.88-9.15,5.88-.13-.42-.55-1.1-.86-1.47,5.08-.73,7.24-2.13,8.23-4.4h-7.39v-1.43h7.85c.13-.53,.22-1.1,.29-1.69h-8.63v-1.45h8.82v-1.85h-6.84v-1.43h6.84v-1.78h-8.05v-1.47h4.64c-.35-.77-1.03-1.78-1.69-2.55l1.41-.57c.81,.84,1.58,1.98,1.94,2.77l-.79,.35h5.79c.66-.9,1.43-2.2,1.89-3.12l1.67,.51c-.53,.9-1.19,1.85-1.76,2.62h4.69v1.47h-8.1v1.78h7.04v1.43h-7.04v1.85h9.04Zm-9,4.82c3.01,1.14,6.97,3.04,8.98,4.36l-.77,1.41c-1.94-1.36-5.88-3.34-8.91-4.55l.7-1.21Z"/>
          <path class="cls-32" d="M86.66,187.53v19.14h-1.61v-1.01h-15.09v1.01h-1.56v-19.14h18.26Zm-1.61,16.66v-15.16h-15.09v15.16h15.09Zm-7.46-3.34c-2.29,.44-4.62,.9-6.42,1.23l-.22-1.23c1.67-.26,4.11-.7,6.58-1.14l.07,1.14Zm5.46-6.4c-.55,2.07-1.39,3.87-2.44,5.39,.46,1.17,1.06,1.91,1.78,2.02,.31,.09,.53-.86,.68-2.27,.26,.26,.75,.59,1.06,.73-.29,2.4-1.03,3.28-2.18,2.84-.95-.2-1.69-.97-2.29-2.13-.86,.99-1.83,1.83-2.9,2.53-.2-.26-.68-.79-.97-1.03,1.3-.75,2.4-1.72,3.32-2.86-.59-1.76-.97-4.03-1.21-6.51h-6.73v-1.23h6.62c-.07-.77-.13-1.54-.18-2.33h1.41c.04,.79,.09,1.56,.13,2.33h4.8v1.23h-4.69c.18,1.89,.44,3.65,.81,5.06,.7-1.19,1.25-2.55,1.63-4.05l1.34,.29Zm-6.25,.09v4.27h-4.86v-4.27h4.86Zm-1.19,1.03h-2.53v2.2h2.53v-2.2Zm7-3.89c-.48-.48-1.5-1.17-2.35-1.54l.77-.81c.86,.4,1.87,.99,2.38,1.5l-.79,.86Z"/>
          <path class="cls-32" d="M97.05,204.54c0,.84-.18,1.32-.7,1.61-.53,.26-1.34,.29-2.75,.29-.07-.4-.24-1.1-.44-1.52,.95,.02,1.78,.02,2.05,.02,.26-.02,.37-.13,.37-.42v-5.98c-.92,.57-1.83,1.1-2.64,1.61l-.62-1.32c-.15,2.71-.59,5.61-1.63,7.81-.29-.24-.95-.62-1.32-.77,1.47-3.08,1.58-7.46,1.58-10.67v-7.85h6.09v17.21Zm-4.62-9.37c0,1.03-.02,2.2-.09,3.41,.88-.35,2.02-.88,3.23-1.47v-2.51l-.84,.68c-.48-.7-1.45-1.78-2.31-2.62v2.51Zm0-6.34v3.41l.75-.57c.86,.77,1.83,1.76,2.4,2.46v-5.3h-3.15Zm16.35,7.7c-.84,2.71-2.22,4.82-4.03,6.45,1.39,1.01,2.99,1.74,4.84,2.2-.4,.35-.84,.99-1.08,1.43-1.91-.57-3.61-1.45-5.04-2.6-1.56,1.14-3.34,1.98-5.24,2.57-.18-.44-.57-1.06-.88-1.41,1.74-.46,3.43-1.21,4.93-2.24-1.41-1.41-2.51-3.12-3.3-5.1l.31-.11h-1.12v-1.54h9.29l.26-.07,1.06,.42Zm-6.95-6.73c0,1.94-.59,4.27-3.26,5.83-.2-.33-.77-.9-1.06-1.14,2.4-1.36,2.79-3.15,2.79-4.71v-2.42h6.69v5.13c0,.59,.04,.79,.33,.79h1.21c.24,0,.68-.04,.95-.11,.02,.42,.09,.99,.13,1.36-.26,.09-.68,.11-1.03,.11h-1.36c-1.45,0-1.76-.62-1.76-2.2v-3.54h-3.63v.9Zm-1.3,7.92c.7,1.61,1.72,3.06,2.99,4.27,1.32-1.17,2.42-2.6,3.12-4.27h-6.12Z"/>
          <path class="cls-32" d="M118.03,202.16c-1.3,1.58-3.39,3.06-5.21,4-.24-.26-.88-.84-1.23-1.08,1.87-.81,3.81-2.09,4.95-3.45l1.5,.53Zm13.31-2.42v1.34h-9.02v5.59h-1.61v-5.59h-8.96v-1.34h19.58Zm-13.16-10.98h-6.18v-1.36h18.92v1.36h-6.21v1.69h5.13v5.02h-16.52v-5.02h4.86v-1.69Zm-3.74,9.46v-1.3h14.24v1.3h-14.24Zm.4-4h3.34v-2.53h-3.34v2.53Zm8.32-5.46h-3.45v1.69h3.45v-1.69Zm-3.45,5.46h3.45v-2.53h-3.45v2.53Zm5.02-2.53v2.53h3.52v-2.53h-3.52Zm1.17,10.01c1.78,.97,4.11,2.42,5.32,3.43l-1.25,.95c-1.12-.99-3.43-2.49-5.24-3.52l1.17-.86Z"/>
          <path class="cls-32" d="M153.41,204.34v1.54h-19.76v-1.54h9.18v-2.77h-6.91v-1.5h6.91v-2.46h1.65v2.46h6.65v1.5h-6.65v2.77h8.93Zm-15.14-11c-.26,1.89-1.08,3.85-3.3,5.26-.22-.31-.77-.9-1.08-1.14,1.91-1.17,2.6-2.64,2.86-4.11h-2.66v-1.45h2.77v-3.01h-2.05v-1.45h9.86v1.45h-2.05v3.01h2.49v1.45h-2.49v4.71h-1.54v-4.71h-2.82Zm.11-1.45h2.71v-3.01h-2.71v3.01Zm9.62,3.21h-1.52v-7.33h1.52v7.33Zm4.11,1.36c0,.9-.18,1.32-.84,1.58-.66,.24-1.72,.26-3.28,.26-.07-.44-.31-1.06-.55-1.5,1.25,.04,2.35,.04,2.68,0,.33,0,.42-.09,.42-.4v-9.75h1.56v9.79Z"/>
          <path class="cls-32" d="M170.79,198.42c1.23,1.45,3.1,2.73,4.95,3.39-.37,.31-.84,.88-1.08,1.25-2.13-.88-4.27-2.71-5.59-4.64h-6.89c-1.39,2.05-3.61,3.94-5.74,4.93-.24-.4-.68-.95-1.06-1.25,1.83-.73,3.72-2.11,4.97-3.67h-4.75v-1.39h4.36v-7.02h-3.34v-1.36h3.34v-2.11h1.61v2.11h7.99v-2.11h1.65v2.11h3.3v1.36h-3.3v7.02h4.25v1.39h-4.66Zm-4.49,6.21h7.59v1.39h-16.59v-1.39h7.37v-2.31h-4.49v-1.34h4.49v-1.85h1.63v1.85h4.6v1.34h-4.6v2.31Zm-4.73-14.61v1.47h7.99v-1.47h-7.99Zm0,4.22h7.99v-1.52h-7.99v1.52Zm0,2.79h7.99v-1.56h-7.99v1.56Z"/>
          <path class="cls-32" d="M188.32,194.59v2.99h7.68v1.5h-7.68v5.37h8.67v1.52h-18.9v-1.52h8.54v-5.37h-7.55v-1.5h7.55v-2.99h-4.75v-1.21c-1.12,.62-2.31,1.17-3.5,1.58-.24-.44-.68-1.08-1.1-1.47,4.09-1.34,8.14-3.92,10.23-7.17l1.5,.7c-.15,.24-.35,.53-.55,.79,2.18,2.33,6.05,4.62,9.4,5.68-.4,.33-.9,.99-1.14,1.41-1.14-.42-2.35-.99-3.54-1.67v1.36h-4.84Zm-6.03,4.97c.84,1.23,1.74,2.88,2.09,3.94l-1.43,.59c-.31-1.01-1.19-2.75-2.02-3.98l1.36-.55Zm10.61-6.49c-1.98-1.17-3.92-2.64-5.35-4.14-1.45,1.58-3.21,2.99-5.15,4.14h10.5Zm-2.57,10.54c.77-1.08,1.76-2.82,2.29-4.05l1.56,.59c-.81,1.39-1.83,2.95-2.62,3.98l-1.23-.53Z"/>
          <path class="cls-32" d="M217.58,191.6c-2.71,4.03-7.59,8.58-12.08,11.35,.18,.13,.35,.26,.57,.4,1.39,.88,3.17,1.03,5.63,1.03s5.81-.18,7.92-.4c-.2,.42-.46,1.28-.48,1.76-1.63,.11-5.39,.24-7.5,.24-2.64,0-4.44-.26-5.9-1.19-.9-.57-1.58-1.28-2.07-1.28-.7,0-1.74,1.28-2.77,2.73l-1.21-1.5c1.45-1.58,2.88-2.77,4-2.77,.11,0,.2,.02,.29,.04,4-2.31,8.36-6.25,10.8-9.57h-13.97v-1.58h15.18l.35-.11,1.23,.84Zm-7.59-.75c-.44-.95-1.45-2.55-2.29-3.7l1.41-.73c.88,1.12,1.94,2.66,2.38,3.56l-1.5,.86Z"/>
          <path class="cls-32" d="M238.22,204.87c1.56,0,1.8-.42,1.96-2.97,.4,.26,1.03,.51,1.5,.59-.29,3.06-.81,3.85-3.41,3.85h-6.4c-2.88,0-3.7-.51-3.7-2.49v-6.29h-2.35v1.5c0,2.35-.59,5.44-3.32,7.57-.22-.33-.79-.95-1.12-1.14,2.49-1.91,2.93-4.47,2.93-6.45v-1.47h-2.53v-1.52h10.03v1.52h-2.09v6.29c0,.81,.33,1.01,2.16,1.01h6.36Zm-14.28-13.51h-1.61v-3.76h18.42v3.76h-1.63v-2.24h-15.18v2.24Zm-.64,.37h7.66v1.52h-7.66v-1.52Zm15.58,10.06c0,.84-.2,1.25-.77,1.52-.62,.22-1.52,.26-2.95,.24-.07-.42-.29-1.01-.51-1.43,1.06,.02,2,.02,2.29,.02,.29-.02,.37-.09,.37-.37v-6.65h-5.57v-1.47h5.57v-2.75h1.56v2.75h2.42v1.47h-2.42v6.67Zm-5.1-5.48c.86,1.12,1.65,2.62,1.98,3.67l-1.39,.62c-.29-1.03-1.06-2.64-1.87-3.78l1.28-.51Z"/>
          <path class="cls-32" d="M244.95,193.87l1.39-2.29-2.38-.99,.37-1.12,2.51,.62,.22-2.66h1.19l.22,2.64,2.51-.59,.37,1.12-2.4,.99,1.41,2.29-.97,.7-1.74-2.09-1.74,2.09-.97-.7Z"/>
        </g>
      </g>
    </g>
  </g>
</svg>