<?xml version="1.0" encoding="UTF-8"?>
<svg xmlns="http://www.w3.org/2000/svg" xmlns:xlink="http://www.w3.org/1999/xlink" viewBox="0 0 315.9 302.59">
  <defs>
    <style>
      .cls-1 {
        fill: #585757;
        opacity: .92;
      }

      .cls-2 {
        fill: url(#linear-gradient-2);
      }

      .cls-3 {
        fill: #605e5e;
        opacity: .86;
      }

      .cls-4 {
        fill: #b5b2b2;
        opacity: .32;
      }

      .cls-5, .cls-6 {
        fill: #fff;
      }

      .cls-7 {
        fill: #535253;
        opacity: .96;
      }

      .cls-8 {
        fill: #666464;
        opacity: .81;
      }

      .cls-9 {
        fill: #918d8d;
        opacity: .52;
      }

      .cls-10 {
        fill: #b2aeae;
        opacity: .34;
      }

      .cls-11 {
        fill: #525152;
        opacity: .97;
      }

      .cls-12 {
        fill: #e2e0df;
        opacity: .1;
      }

      .cls-13 {
        fill: #7e7b7b;
        opacity: .64;
      }

      .cls-14 {
        fill: #8c8889;
        opacity: .55;
      }

      .cls-15 {
        fill: #e9e7e7;
        opacity: .07;
      }

      .cls-16 {
        fill: #dbd9d9;
        opacity: .13;
      }

      .cls-17 {
        fill: #7d7979;
        opacity: .65;
      }

      .cls-6 {
        opacity: 0;
      }

      .cls-18 {
        fill: #c2c0bf;
        opacity: .25;
      }

      .cls-19 {
        fill: #555455;
        opacity: .94;
      }

      .cls-20 {
        fill: #4f4f4f;
        opacity: .99;
      }

      .cls-21 {
        fill: #f7f6f6;
        opacity: .02;
      }

      .cls-22 {
        fill: #6f6b6c;
        opacity: .75;
      }

      .cls-23 {
        fill: #5a5959;
        opacity: .9;
      }

      .cls-24 {
        fill: #777474;
        opacity: .69;
      }

      .cls-25 {
        fill: #646161;
        opacity: .83;
      }

      .cls-26 {
        isolation: isolate;
      }

      .cls-27 {
        fill: #d0cece;
        opacity: .18;
      }

      .cls-28 {
        fill: #bfbbbb;
        opacity: .27;
      }

      .cls-29 {
        fill: #848181;
        opacity: .6;
      }

      .cls-30 {
        fill: #787575;
        opacity: .68;
      }

      .cls-31 {
        fill: #716e6e;
        opacity: .73;
      }

      .cls-32 {
        fill: #000101;
      }

      .cls-33 {
        fill: #e6e4e4;
        opacity: .08;
      }

      .cls-34 {
        fill: #4e4e4e;
      }

      .cls-35 {
        fill: #686565;
        opacity: .8;
      }

      .cls-36 {
        fill: #949091;
        opacity: .5;
      }

      .cls-37 {
        fill: #d9d7d6;
        opacity: .14;
      }

      .cls-38 {
        fill: #cecccc;
        opacity: .19;
      }

      .cls-39 {
        fill: #9d9999;
        opacity: .46;
      }

      .cls-40 {
        fill: #d4d2d2;
        opacity: .16;
      }

      .cls-41 {
        fill: #545354;
        opacity: .95;
      }

      .cls-42 {
        fill: #b7b4b4;
        opacity: .31;
      }

      .cls-43 {
        fill: #969292;
        opacity: .5;
      }

      .cls-44 {
        fill: #8f8b8c;
        opacity: .53;
      }

      .cls-45 {
        fill: #aca9a9;
        opacity: .37;
      }

      .cls-46 {
        fill: #a29e9e;
        opacity: .43;
      }

      .cls-47 {
        fill: #c6c4c3;
        opacity: .23;
      }

      .cls-48 {
        fill: #7a7677;
        opacity: .67;
      }

      .cls-49 {
        fill: #656363;
        opacity: .82;
      }

      .cls-50 {
        fill: #626060;
        opacity: .84;
      }

      .cls-51 {
        fill: #8a8787;
        opacity: .56;
      }

      .cls-52 {
        fill: #6a6868;
        opacity: .78;
      }

      .cls-53 {
        fill: #505050;
        opacity: .98;
      }

      .cls-54 {
        fill: #a5a1a2;
        opacity: .41;
      }

      .cls-55 {
        mix-blend-mode: multiply;
        opacity: .8;
      }

      .cls-56 {
        fill: #878484;
        opacity: .58;
      }

      .cls-57 {
        fill: #e4e2e2;
        opacity: .09;
      }

      .cls-58 {
        fill: #d2d0d0;
        opacity: .17;
      }

      .cls-59 {
        fill: #5c5a5a;
        opacity: .89;
      }

      .cls-60 {
        fill: #615f5f;
        opacity: .85;
      }

      .cls-61 {
        fill: #aaa7a7;
        opacity: .38;
      }

      .cls-62 {
        fill: #fafafa;
        opacity: 0;
      }

      .cls-63 {
        fill: #dfdddd;
        opacity: .11;
      }

      .cls-64 {
        fill: #f3f2f2;
        opacity: .03;
      }

      .cls-65 {
        fill: #696666;
        opacity: .79;
      }

      .cls-66 {
        fill: #999596;
        opacity: .48;
      }

      .cls-67 {
        fill: #bdb9b9;
        opacity: .28;
      }

      .cls-68 {
        fill: #989494;
        opacity: .49;
      }

      .cls-69 {
        fill: #807c7c;
        opacity: .63;
      }

      .cls-70 {
        fill: #8e8a8a;
        opacity: .54;
      }

      .cls-71 {
        fill: #dddbdb;
        opacity: .12;
      }

      .cls-72 {
        fill: #706d6d;
        opacity: .74;
      }

      .cls-73 {
        fill: #9b9797;
        opacity: .47;
      }

      .cls-74 {
        fill: #595858;
        opacity: .91;
      }

      .cls-75 {
        fill: #938f8f;
        opacity: .51;
      }

      .cls-76 {
        fill: #b0acac;
        opacity: .35;
      }

      .cls-77 {
        fill: #737070;
        opacity: .72;
      }

      .cls-78 {
        fill: #a7a3a3;
        opacity: .4;
      }

      .cls-79 {
        fill: #d7d4d4;
        opacity: .15;
      }

      .cls-80 {
        fill: #7b7878;
        opacity: .66;
      }

      .cls-81 {
        fill: #edecec;
        opacity: .05;
      }

      .cls-82 {
        fill: #b9b6b6;
        opacity: .3;
      }

      .cls-83 {
        fill: #817e7e;
        opacity: .62;
      }

      .cls-84 {
        fill: #ebe9e9;
        opacity: .06;
      }

      .cls-85 {
        fill: #575656;
        opacity: .93;
      }

      .cls-86 {
        fill: #898585;
        opacity: .57;
      }

      .cls-87 {
        fill: #aeaaab;
        opacity: .36;
      }

      .cls-88 {
        fill: #6d6a6a;
        opacity: .76;
      }

      .cls-89 {
        fill: #c4c2c1;
        opacity: .24;
      }

      .cls-90 {
        fill: #a09c9c;
        opacity: .44;
      }

      .cls-91 {
        fill: #cccaca;
        opacity: .2;
      }

      .cls-92 {
        fill: #767272;
        opacity: .7;
      }

      .cls-93 {
        fill: #5d5b5b;
        opacity: .88;
      }

      .cls-94 {
        fill: url(#linear-gradient);
      }

      .cls-95 {
        fill: #9e9a9b;
        opacity: .45;
      }

      .cls-96 {
        fill: #747171;
        opacity: .71;
      }

      .cls-97 {
        fill: #bbb8b8;
        opacity: .29;
      }

      .cls-98 {
        fill: #f0efef;
        opacity: .04;
      }

      .cls-99 {
        fill: #b4b0b0;
        opacity: .33;
      }

      .cls-100 {
        fill: #cac8c7;
        opacity: .21;
      }

      .cls-101 {
        fill: #0a5290;
      }

      .cls-102 {
        fill: #a3a0a0;
        opacity: .42;
      }

      .cls-103 {
        fill: #868282;
        opacity: .59;
      }

      .cls-104 {
        fill: #c1bdbd;
        opacity: .26;
      }

      .cls-105 {
        fill: #5e5c5d;
        opacity: .87;
      }

      .cls-106 {
        fill: #837f7f;
        opacity: .61;
      }

      .cls-107 {
        fill: #6c6969;
        opacity: .77;
      }

      .cls-108 {
        fill: #c8c6c5;
        opacity: .22;
      }

      .cls-109 {
        fill: #a9a5a5;
        opacity: .39;
      }
    </style>
    <linearGradient id="linear-gradient" x1="145.34" y1="246.53" x2="145.34" y2="-307.5" gradientUnits="userSpaceOnUse">
      <stop offset="0" stop-color="#fff"/>
      <stop offset="1" stop-color="#c8cacc"/>
    </linearGradient>
    <linearGradient id="linear-gradient-2" x1="145.09" y1="181.38" x2="145.09" y2="446.79" xlink:href="#linear-gradient"/>
  </defs>
  <g class="cls-26">
    <g id="Layer_1" data-name="Layer 1">
      <g>
        <g>
          <path class="cls-101" d="M315.9,145.66l-40.57-80.2v36.65h-9.72c-6.13-17.43-16.17-33.79-30.11-47.73C197.78,16.65,142.31,7.52,95.98,26.95c-2.31-4.31-5.28-8.37-8.91-12.01C67.15-4.98,34.86-4.98,14.94,14.94c-19.92,19.92-19.92,52.21,0,72.13,3.75,3.75,7.93,6.79,12.39,9.13-18.87,46.12-9.59,101.06,27.86,138.5,49.79,49.79,130.52,49.79,180.32,0,13.33-13.33,23.09-28.89,29.29-45.47h10.54v36.65l40.57-80.2Z"/>
          <g class="cls-55">
            <path class="cls-6" d="M174.21,302.59c-65.3,0-118.43-53.12-118.43-118.43s53.13-118.42,118.43-118.42,118.42,53.12,118.42,118.42-53.12,118.43-118.42,118.43Z"/>
            <path class="cls-62" d="M173.92,302.19c-65.3,0-118.43-53.12-118.43-118.43s53.13-118.42,118.43-118.42,118.42,53.12,118.42,118.42-53.12,118.43-118.42,118.43Z"/>
            <path class="cls-21" d="M173.63,301.78c-65.3,0-118.43-53.12-118.43-118.43s53.13-118.42,118.43-118.42,118.42,53.12,118.42,118.42-53.12,118.43-118.42,118.43Z"/>
            <path class="cls-64" d="M173.34,301.37c-65.3,0-118.43-53.12-118.43-118.43s53.13-118.42,118.43-118.42,118.42,53.12,118.42,118.42-53.12,118.43-118.42,118.43Z"/>
            <path class="cls-98" d="M173.05,300.97c-65.3,0-118.43-53.12-118.43-118.43s53.13-118.42,118.43-118.42,118.42,53.12,118.42,118.42-53.12,118.43-118.42,118.43Z"/>
            <path class="cls-81" d="M172.76,300.56c-65.3,0-118.43-53.12-118.43-118.43S107.46,63.71,172.76,63.71s118.42,53.12,118.42,118.42-53.12,118.43-118.42,118.43Z"/>
            <path class="cls-84" d="M172.47,300.16c-65.3,0-118.43-53.12-118.43-118.43S107.17,63.31,172.47,63.31s118.42,53.12,118.42,118.42-53.12,118.43-118.42,118.43Z"/>
            <path class="cls-15" d="M172.18,299.75c-65.3,0-118.43-53.12-118.43-118.43S106.88,62.9,172.18,62.9s118.42,53.12,118.42,118.42-53.12,118.43-118.42,118.43Z"/>
            <path class="cls-33" d="M171.9,299.35c-65.3,0-118.43-53.12-118.43-118.43S106.6,62.5,171.9,62.5s118.42,53.12,118.42,118.42-53.12,118.43-118.42,118.43Z"/>
            <path class="cls-57" d="M171.61,298.94c-65.3,0-118.43-53.12-118.43-118.43S106.31,62.09,171.61,62.09s118.42,53.12,118.42,118.42-53.12,118.43-118.42,118.43Z"/>
            <path class="cls-12" d="M171.32,298.53c-65.3,0-118.43-53.12-118.43-118.43S106.02,61.69,171.32,61.69s118.42,53.12,118.42,118.42-53.12,118.43-118.42,118.43Z"/>
            <path class="cls-63" d="M171.03,298.13c-65.3,0-118.43-53.12-118.43-118.43S105.73,61.28,171.03,61.28s118.42,53.12,118.42,118.42-53.12,118.43-118.42,118.43Z"/>
            <path class="cls-71" d="M170.74,297.72c-65.3,0-118.43-53.12-118.43-118.43S105.44,60.87,170.74,60.87s118.42,53.12,118.42,118.42-53.12,118.43-118.42,118.43Z"/>
            <path class="cls-16" d="M170.45,297.32c-65.3,0-118.43-53.12-118.43-118.43S105.15,60.47,170.45,60.47s118.42,53.12,118.42,118.42-53.12,118.43-118.42,118.43Z"/>
            <path class="cls-37" d="M170.16,296.91c-65.3,0-118.43-53.12-118.43-118.43S104.86,60.06,170.16,60.06s118.42,53.12,118.42,118.42-53.12,118.43-118.42,118.43Z"/>
            <path class="cls-79" d="M169.87,296.51c-65.3,0-118.43-53.12-118.43-118.43S104.57,59.66,169.87,59.66s118.42,53.12,118.42,118.42-53.12,118.43-118.42,118.43Z"/>
            <path class="cls-40" d="M169.59,296.1c-65.3,0-118.43-53.12-118.43-118.43S104.28,59.25,169.59,59.25s118.42,53.12,118.42,118.42-53.12,118.43-118.42,118.43Z"/>
            <path class="cls-58" d="M169.3,295.69c-65.3,0-118.43-53.12-118.43-118.43S104,58.84,169.3,58.84s118.42,53.12,118.42,118.42-53.12,118.43-118.42,118.43Z"/>
            <path class="cls-27" d="M169.01,295.29c-65.3,0-118.43-53.12-118.43-118.43S103.71,58.44,169.01,58.44s118.42,53.12,118.42,118.42-53.12,118.43-118.42,118.43Z"/>
            <path class="cls-38" d="M168.72,294.88c-65.3,0-118.43-53.12-118.43-118.43S103.42,58.03,168.72,58.03s118.42,53.12,118.42,118.42-53.12,118.43-118.42,118.43Z"/>
            <path class="cls-91" d="M168.43,294.48c-65.3,0-118.43-53.12-118.43-118.43S103.13,57.63,168.43,57.63s118.42,53.12,118.42,118.42-53.12,118.43-118.42,118.43Z"/>
            <path class="cls-100" d="M168.14,294.07c-65.3,0-118.43-53.12-118.43-118.43S102.84,57.22,168.14,57.22s118.42,53.12,118.42,118.42-53.12,118.43-118.42,118.43Z"/>
            <path class="cls-108" d="M167.85,293.66c-65.3,0-118.43-53.12-118.43-118.43S102.55,56.82,167.85,56.82s118.42,53.12,118.42,118.42-53.12,118.43-118.42,118.43Z"/>
            <path class="cls-47" d="M167.56,293.26c-65.3,0-118.43-53.12-118.43-118.43S102.26,56.41,167.56,56.41s118.42,53.12,118.42,118.42-53.12,118.43-118.42,118.43Z"/>
            <path class="cls-89" d="M167.27,292.85c-65.3,0-118.43-53.12-118.43-118.43S101.97,56,167.27,56s118.42,53.12,118.42,118.42-53.12,118.43-118.42,118.43Z"/>
            <path class="cls-18" d="M166.99,292.45c-65.3,0-118.43-53.12-118.43-118.43S101.68,55.6,166.99,55.6s118.42,53.12,118.42,118.42-53.12,118.43-118.42,118.43Z"/>
            <path class="cls-104" d="M166.7,292.04c-65.3,0-118.43-53.12-118.43-118.43S101.4,55.19,166.7,55.19s118.42,53.12,118.42,118.42-53.12,118.43-118.42,118.43Z"/>
            <path class="cls-28" d="M166.41,291.64c-65.3,0-118.43-53.12-118.43-118.43S101.11,54.79,166.41,54.79s118.42,53.12,118.42,118.42-53.12,118.43-118.42,118.43Z"/>
            <path class="cls-67" d="M166.12,291.23c-65.3,0-118.43-53.12-118.43-118.43S100.82,54.38,166.12,54.38s118.42,53.12,118.42,118.42-53.12,118.43-118.42,118.43Z"/>
            <path class="cls-97" d="M165.83,290.82c-65.3,0-118.43-53.12-118.43-118.43S100.53,53.97,165.83,53.97s118.42,53.12,118.42,118.42-53.12,118.43-118.42,118.43Z"/>
            <path class="cls-82" d="M165.54,290.42c-65.3,0-118.43-53.12-118.43-118.43S100.24,53.57,165.54,53.57s118.42,53.12,118.42,118.42-53.12,118.43-118.42,118.43Z"/>
            <path class="cls-42" d="M165.25,290.01c-65.3,0-118.43-53.12-118.43-118.43S99.95,53.16,165.25,53.16s118.42,53.12,118.42,118.42-53.12,118.43-118.42,118.43Z"/>
            <path class="cls-4" d="M164.96,289.61c-65.3,0-118.43-53.12-118.43-118.43S99.66,52.76,164.96,52.76s118.42,53.12,118.42,118.42-53.12,118.43-118.42,118.43Z"/>
            <path class="cls-99" d="M164.67,289.2c-65.3,0-118.43-53.12-118.43-118.43S99.37,52.35,164.67,52.35s118.42,53.12,118.42,118.42-53.12,118.43-118.42,118.43Z"/>
            <path class="cls-10" d="M164.39,288.79c-65.3,0-118.43-53.12-118.43-118.43S99.09,51.95,164.39,51.95s118.42,53.12,118.42,118.42-53.12,118.43-118.42,118.43Z"/>
            <path class="cls-76" d="M164.1,288.39c-65.3,0-118.43-53.12-118.43-118.43S98.8,51.54,164.1,51.54s118.42,53.12,118.42,118.42-53.12,118.43-118.42,118.43Z"/>
            <path class="cls-87" d="M163.81,287.98c-65.3,0-118.43-53.12-118.43-118.43S98.51,51.13,163.81,51.13s118.42,53.12,118.42,118.42-53.12,118.43-118.42,118.43Z"/>
            <path class="cls-45" d="M163.52,287.58c-65.3,0-118.43-53.12-118.43-118.43S98.22,50.73,163.52,50.73s118.42,53.12,118.42,118.42-53.12,118.43-118.42,118.43Z"/>
            <path class="cls-61" d="M163.23,287.17c-65.3,0-118.43-53.12-118.43-118.43S97.93,50.32,163.23,50.32s118.42,53.12,118.42,118.42-53.12,118.43-118.42,118.43Z"/>
            <path class="cls-109" d="M162.94,286.77c-65.3,0-118.43-53.12-118.43-118.43S97.64,49.92,162.94,49.92s118.42,53.12,118.42,118.42-53.12,118.43-118.42,118.43Z"/>
            <path class="cls-78" d="M162.65,286.36c-65.3,0-118.43-53.12-118.43-118.43S97.35,49.51,162.65,49.51s118.42,53.12,118.42,118.42-53.12,118.43-118.42,118.43Z"/>
            <path class="cls-54" d="M162.36,285.95c-65.3,0-118.43-53.12-118.43-118.43S97.06,49.1,162.36,49.1s118.42,53.12,118.42,118.42-53.12,118.43-118.42,118.43Z"/>
            <path class="cls-102" d="M162.07,285.55c-65.3,0-118.43-53.12-118.43-118.43S96.77,48.7,162.07,48.7s118.42,53.12,118.42,118.42-53.12,118.43-118.42,118.43Z"/>
            <path class="cls-46" d="M161.79,285.14c-65.3,0-118.43-53.12-118.43-118.43S96.49,48.29,161.79,48.29s118.42,53.12,118.42,118.42-53.12,118.43-118.42,118.43Z"/>
            <path class="cls-90" d="M161.5,284.74c-65.3,0-118.43-53.12-118.43-118.43S96.2,47.89,161.5,47.89s118.42,53.12,118.42,118.42-53.12,118.43-118.42,118.43Z"/>
            <path class="cls-95" d="M161.21,284.33c-65.3,0-118.43-53.12-118.43-118.43S95.91,47.48,161.21,47.48s118.42,53.12,118.42,118.42-53.12,118.43-118.42,118.43Z"/>
            <path class="cls-39" d="M160.92,283.92c-65.3,0-118.43-53.12-118.43-118.43S95.62,47.08,160.92,47.08s118.42,53.12,118.42,118.42-53.12,118.43-118.42,118.43Z"/>
            <path class="cls-73" d="M160.63,283.52c-65.3,0-118.43-53.12-118.43-118.43S95.33,46.67,160.63,46.67s118.42,53.12,118.42,118.42-53.12,118.43-118.42,118.43Z"/>
            <path class="cls-66" d="M160.34,283.11c-65.3,0-118.43-53.12-118.43-118.43S95.04,46.26,160.34,46.26s118.42,53.12,118.42,118.42-53.12,118.43-118.42,118.43Z"/>
            <path class="cls-68" d="M160.05,282.71c-65.3,0-118.43-53.12-118.43-118.43S94.75,45.86,160.05,45.86s118.42,53.12,118.42,118.42-53.12,118.43-118.42,118.43Z"/>
            <path class="cls-43" d="M159.76,282.3c-65.3,0-118.43-53.12-118.43-118.43S94.46,45.45,159.76,45.45s118.42,53.12,118.42,118.42-53.12,118.43-118.42,118.43Z"/>
            <path class="cls-36" d="M159.48,281.9c-65.3,0-118.43-53.12-118.43-118.43S94.17,45.05,159.48,45.05s118.42,53.12,118.42,118.42-53.12,118.43-118.42,118.43Z"/>
            <path class="cls-75" d="M159.19,281.49c-65.3,0-118.43-53.12-118.43-118.43S93.89,44.64,159.19,44.64s118.42,53.12,118.42,118.42-53.12,118.43-118.42,118.43Z"/>
            <path class="cls-9" d="M158.9,281.08c-65.3,0-118.43-53.12-118.43-118.43S93.6,44.24,158.9,44.24s118.42,53.12,118.42,118.42-53.12,118.43-118.42,118.43Z"/>
            <path class="cls-44" d="M158.61,280.68c-65.3,0-118.43-53.12-118.43-118.43S93.31,43.83,158.61,43.83s118.42,53.12,118.42,118.42-53.12,118.43-118.42,118.43Z"/>
            <path class="cls-70" d="M158.32,280.27c-65.3,0-118.43-53.12-118.43-118.43S93.02,43.42,158.32,43.42s118.42,53.12,118.42,118.42-53.12,118.43-118.42,118.43Z"/>
            <path class="cls-14" d="M158.03,279.87c-65.3,0-118.43-53.12-118.43-118.43S92.73,43.02,158.03,43.02s118.42,53.12,118.42,118.42-53.12,118.43-118.42,118.43Z"/>
            <path class="cls-51" d="M157.74,279.46c-65.3,0-118.43-53.12-118.43-118.43S92.44,42.61,157.74,42.61s118.42,53.12,118.42,118.42-53.12,118.43-118.42,118.43Z"/>
            <path class="cls-86" d="M157.45,279.05c-65.3,0-118.43-53.12-118.43-118.43S92.15,42.21,157.45,42.21s118.42,53.12,118.42,118.42-53.12,118.43-118.42,118.43Z"/>
            <path class="cls-56" d="M157.16,278.65c-65.3,0-118.43-53.12-118.43-118.43S91.86,41.8,157.16,41.8s118.42,53.12,118.42,118.42-53.12,118.43-118.42,118.43Z"/>
            <path class="cls-103" d="M156.88,278.24c-65.3,0-118.43-53.12-118.43-118.43S91.58,41.39,156.88,41.39s118.42,53.12,118.42,118.42-53.12,118.43-118.42,118.43Z"/>
            <path class="cls-29" d="M156.59,277.84c-65.3,0-118.43-53.12-118.43-118.43S91.29,40.99,156.59,40.99s118.42,53.12,118.42,118.42-53.12,118.43-118.42,118.43Z"/>
            <path class="cls-106" d="M156.3,277.43c-65.3,0-118.43-53.12-118.43-118.43S91,40.58,156.3,40.58s118.42,53.12,118.42,118.42-53.12,118.43-118.42,118.43Z"/>
            <path class="cls-83" d="M156.01,277.03c-65.3,0-118.43-53.12-118.43-118.43S90.71,40.18,156.01,40.18s118.42,53.12,118.42,118.42-53.12,118.43-118.42,118.43Z"/>
            <path class="cls-69" d="M155.72,276.62c-65.3,0-118.43-53.12-118.43-118.43S90.42,39.77,155.72,39.77s118.42,53.12,118.42,118.42-53.12,118.43-118.42,118.43Z"/>
            <path class="cls-13" d="M155.43,276.21c-65.3,0-118.43-53.12-118.43-118.43S90.13,39.37,155.43,39.37s118.42,53.12,118.42,118.42-53.12,118.43-118.42,118.43Z"/>
            <path class="cls-17" d="M155.14,275.81c-65.3,0-118.43-53.12-118.43-118.43S89.84,38.96,155.14,38.96s118.42,53.12,118.42,118.42-53.12,118.43-118.42,118.43Z"/>
            <path class="cls-80" d="M154.85,275.4c-65.3,0-118.43-53.12-118.43-118.43S89.55,38.55,154.85,38.55s118.42,53.12,118.42,118.42-53.12,118.43-118.42,118.43Z"/>
            <path class="cls-48" d="M154.56,275c-65.3,0-118.43-53.12-118.43-118.43S89.26,38.15,154.56,38.15s118.42,53.12,118.42,118.42-53.12,118.43-118.42,118.43Z"/>
            <path class="cls-30" d="M154.28,274.59c-65.3,0-118.43-53.12-118.43-118.43S88.98,37.74,154.28,37.74s118.42,53.12,118.42,118.42-53.12,118.43-118.42,118.43Z"/>
            <path class="cls-24" d="M153.99,274.18c-65.3,0-118.43-53.12-118.43-118.43S88.69,37.34,153.99,37.34s118.42,53.12,118.42,118.42-53.13,118.43-118.42,118.43Z"/>
            <path class="cls-92" d="M153.7,273.78c-65.3,0-118.43-53.12-118.43-118.43S88.4,36.93,153.7,36.93s118.42,53.12,118.42,118.42-53.13,118.43-118.42,118.43Z"/>
            <path class="cls-96" d="M153.41,273.37c-65.3,0-118.43-53.12-118.43-118.43S88.11,36.52,153.41,36.52s118.42,53.12,118.42,118.42-53.13,118.43-118.42,118.43Z"/>
            <path class="cls-77" d="M153.12,272.97c-65.3,0-118.43-53.12-118.43-118.43S87.82,36.12,153.12,36.12s118.42,53.12,118.42,118.42-53.13,118.43-118.42,118.43Z"/>
            <path class="cls-31" d="M152.83,272.56c-65.3,0-118.43-53.12-118.43-118.43S87.53,35.71,152.83,35.71s118.42,53.12,118.42,118.42-53.13,118.43-118.42,118.43Z"/>
            <path class="cls-72" d="M152.54,272.16c-65.3,0-118.43-53.12-118.43-118.43S87.24,35.31,152.54,35.31s118.42,53.12,118.42,118.42-53.13,118.43-118.42,118.43Z"/>
            <path class="cls-22" d="M152.25,271.75c-65.3,0-118.43-53.12-118.43-118.43S86.95,34.9,152.25,34.9s118.42,53.12,118.42,118.42-53.13,118.43-118.42,118.43Z"/>
            <path class="cls-88" d="M151.96,271.34c-65.3,0-118.43-53.12-118.43-118.43S86.66,34.5,151.96,34.5s118.42,53.12,118.42,118.42-53.13,118.43-118.42,118.43Z"/>
            <path class="cls-107" d="M151.68,270.94c-65.3,0-118.43-53.12-118.43-118.43S86.38,34.09,151.68,34.09s118.42,53.12,118.42,118.42-53.13,118.43-118.42,118.43Z"/>
            <path class="cls-52" d="M151.39,270.53c-65.3,0-118.43-53.12-118.43-118.43S86.09,33.68,151.39,33.68s118.42,53.12,118.42,118.42-53.13,118.43-118.42,118.43Z"/>
            <path class="cls-65" d="M151.1,270.13c-65.3,0-118.43-53.12-118.43-118.43S85.8,33.28,151.1,33.28s118.42,53.12,118.42,118.42-53.13,118.43-118.42,118.43Z"/>
            <path class="cls-35" d="M150.81,269.72c-65.3,0-118.43-53.12-118.43-118.43S85.51,32.87,150.81,32.87s118.42,53.12,118.42,118.42-53.13,118.43-118.42,118.43Z"/>
            <path class="cls-8" d="M150.52,269.31c-65.3,0-118.43-53.12-118.43-118.43S85.22,32.47,150.52,32.47s118.42,53.12,118.42,118.42-53.13,118.43-118.42,118.43Z"/>
            <path class="cls-49" d="M150.23,268.91c-65.3,0-118.43-53.12-118.43-118.43S84.93,32.06,150.23,32.06s118.42,53.12,118.42,118.42-53.13,118.43-118.42,118.43Z"/>
            <path class="cls-25" d="M149.94,268.5c-65.3,0-118.43-53.12-118.43-118.43S84.64,31.65,149.94,31.65s118.42,53.12,118.42,118.42-53.13,118.43-118.42,118.43Z"/>
            <path class="cls-50" d="M149.65,268.1c-65.3,0-118.43-53.12-118.43-118.43S84.35,31.25,149.65,31.25s118.42,53.12,118.42,118.42-53.13,118.43-118.42,118.43Z"/>
            <path class="cls-60" d="M149.37,267.69c-65.3,0-118.43-53.12-118.43-118.43S84.06,30.84,149.37,30.84s118.42,53.12,118.42,118.42-53.13,118.43-118.42,118.43Z"/>
            <path class="cls-3" d="M149.08,267.29c-65.3,0-118.43-53.12-118.43-118.43S83.78,30.44,149.08,30.44s118.42,53.12,118.42,118.42-53.13,118.43-118.42,118.43Z"/>
            <path class="cls-105" d="M148.79,266.88c-65.3,0-118.43-53.12-118.43-118.43S83.49,30.03,148.79,30.03s118.42,53.12,118.42,118.42-53.13,118.43-118.42,118.43Z"/>
            <path class="cls-93" d="M148.5,266.47c-65.3,0-118.43-53.12-118.43-118.43S83.2,29.63,148.5,29.63s118.42,53.12,118.42,118.42-53.13,118.43-118.42,118.43Z"/>
            <path class="cls-59" d="M148.21,266.07c-65.3,0-118.43-53.12-118.43-118.43S82.91,29.22,148.21,29.22s118.42,53.12,118.42,118.42-53.13,118.43-118.42,118.43Z"/>
            <path class="cls-23" d="M147.92,265.66c-65.3,0-118.43-53.12-118.43-118.43S82.62,28.81,147.92,28.81s118.42,53.12,118.42,118.42-53.13,118.43-118.42,118.43Z"/>
            <path class="cls-74" d="M147.63,265.26c-65.3,0-118.43-53.12-118.43-118.43S82.33,28.41,147.63,28.41s118.42,53.12,118.42,118.42-53.13,118.43-118.42,118.43Z"/>
            <path class="cls-1" d="M147.34,264.85c-65.3,0-118.43-53.12-118.43-118.43S82.04,28,147.34,28s118.42,53.12,118.42,118.42-53.13,118.43-118.42,118.43Z"/>
            <path class="cls-85" d="M147.05,264.44c-65.3,0-118.43-53.12-118.43-118.43S81.75,27.6,147.05,27.6s118.42,53.12,118.42,118.42-53.13,118.43-118.42,118.43Z"/>
            <path class="cls-19" d="M146.77,264.04c-65.3,0-118.43-53.12-118.43-118.43S81.47,27.19,146.77,27.19s118.42,53.12,118.42,118.42-53.13,118.43-118.42,118.43Z"/>
            <path class="cls-41" d="M146.48,263.63c-65.3,0-118.43-53.12-118.43-118.43S81.18,26.78,146.48,26.78s118.42,53.12,118.42,118.42-53.13,118.43-118.42,118.43Z"/>
            <path class="cls-7" d="M146.19,263.23c-65.3,0-118.43-53.12-118.43-118.43S80.89,26.38,146.19,26.38s118.42,53.12,118.42,118.42-53.13,118.43-118.42,118.43Z"/>
            <path class="cls-11" d="M145.9,262.82c-65.3,0-118.43-53.12-118.43-118.43S80.6,25.97,145.9,25.97s118.42,53.12,118.42,118.42-53.13,118.43-118.42,118.43Z"/>
            <path class="cls-53" d="M145.61,262.42c-65.3,0-118.43-53.12-118.43-118.43S80.31,25.57,145.61,25.57s118.42,53.12,118.42,118.42-53.13,118.43-118.42,118.43Z"/>
            <path class="cls-20" d="M145.32,262.01c-65.3,0-118.43-53.12-118.43-118.43S80.02,25.16,145.32,25.16s118.42,53.12,118.42,118.42-53.13,118.43-118.42,118.43Z"/>
            <path class="cls-34" d="M145.03,261.6c-65.3,0-118.43-53.12-118.43-118.43S79.73,24.76,145.03,24.76s118.42,53.12,118.42,118.42-53.13,118.43-118.42,118.43Z"/>
          </g>
          <circle class="cls-94" cx="145.34" cy="144.53" r="102"/>
          <circle class="cls-2" cx="145.09" cy="142.99" r="118.23"/>
        </g>
        <g>
          <path class="cls-5" d="M28.23,24.68l-2.3,.6v7.56h-2.71v-6.89l-3.17,.82-.7-2.9c1.06-.19,2.42-.48,3.86-.77v-5.28h-1.39c-.24,1.2-.53,2.33-.86,3.19-.48-.22-1.49-.6-2.02-.77,.79-1.94,1.22-5.04,1.44-7.97l2.16,.34c-.07,.84-.17,1.66-.29,2.5h.96v-4.66h2.71v4.66h2.06v2.71h-2.06v4.68l1.99-.46,.31,2.64Zm13.11-.05h-2.3v5.02c0,1.42-.26,2.16-1.22,2.62-.91,.43-2.26,.5-4.01,.5-.12-.84-.5-2.02-.86-2.83,1.13,.05,2.42,.05,2.81,.05,.36,0,.46-.1,.46-.41v-4.94h-7.63v-2.62h7.63v-1.68h2.83v1.68h2.3v2.62Zm-8.16-9.48h-4.51v-2.59h4.51v-2.14h2.83v2.14h4.8v2.59h-4.8v2.04h3.98v2.64h-10.44v-2.64h3.62v-2.04Zm-1.39,9.55c1.03,1.06,2.3,2.59,2.88,3.6l-2.26,1.46c-.5-1.01-1.7-2.62-2.74-3.77l2.11-1.3Z"/>
          <path class="cls-5" d="M59.86,29.82c2.3,0,2.66-.53,2.98-3.5,.72,.41,1.9,.86,2.69,1.01-.5,3.94-1.49,5.09-5.52,5.09h-8.21c-4.46,0-5.83-.86-5.83-4.3v-8.76c-.48,.38-.96,.74-1.42,1.06-.26-.65-1.03-2.06-1.54-2.71,2.83-1.7,5.74-4.46,7.34-7.44l2.59,.98c-.19,.34-.41,.7-.6,1.03h5.52l.55-.14,1.82,1.37c-.82,1.15-1.85,2.45-2.95,3.58h5.86v9.02h-2.81v-.82h-11.62v2.83c0,1.46,.41,1.7,3.02,1.7h8.11Zm-9.34-15c-.65,.79-1.3,1.54-2.02,2.26h5.38c.7-.65,1.39-1.44,2.02-2.26h-5.38Zm-1.8,7.75h4.46v-2.86h-4.46v2.86Zm11.62-2.86h-4.37v2.86h4.37v-2.86Z"/>
          <path class="cls-5" d="M31.6,63.2l2.76-3.72c1.76,1.72,3.92,3.04,6.6,3.04,3,0,5.04-1.44,5.04-3.92,0-2.8-1.72-4.52-8.16-4.52v-4.24c5.44,0,7.2-1.8,7.2-4.28,0-2.24-1.44-3.56-3.96-3.56-2.12,0-3.84,1-5.6,2.64l-3-3.6c2.56-2.24,5.4-3.68,8.88-3.68,5.72,0,9.6,2.8,9.6,7.76,0,3.12-1.84,5.28-4.92,6.52v.2c3.32,.88,5.88,3.32,5.88,7.12,0,5.28-4.76,8.36-10.4,8.36-4.68,0-7.84-1.76-9.92-4.12Z"/>
        </g>
        <g>
          <path class="cls-101" d="M102.42,91.14c-1.16,1.72-2.52,3.24-3.84,4.28-.36-.56-.96-1.28-1.56-1.88-.32,5.76-1.24,12.16-3.44,16.76-.92-.72-2.88-1.84-4.04-2.24,3-6.16,3.24-15.04,3.24-21.36v-12.28h33.83v4.28h-29.4v8c0,1.56-.04,3.28-.12,5.12,1.36-.96,2.68-2.28,3.64-3.68h-2.68v-3.32h4.36v-1.8c-1.28,.12-2.52,.24-3.68,.28-.16-.72-.64-1.92-1.04-2.64,3.48-.28,7.44-.84,9.64-1.72l2.88,2.4c-1.16,.44-2.48,.76-3.92,1.08v2.4h4.16v3.32h-3.68c1.16,.72,3.12,1.92,3.72,2.36l-2.28,2.88c-.4-.44-1.16-1.16-1.92-1.88v3.84h-3.88v-4.2Zm11.76,14.32h12.48v3.92h-30.31v-3.92h4.32v-7.52h4.56v7.52h4.32v-10.36h2.24c-.64-.88-1.64-1.96-2.4-2.56,1.68-.96,3.4-2.64,4.64-4.4h-2.56v-3.32h4.6v-1.88c-1.4,.16-2.84,.24-4.2,.32-.08-.76-.56-1.96-.96-2.68,3.88-.32,8.36-.92,10.76-1.84l2.92,2.4c-1.32,.48-2.84,.84-4.52,1.16v2.52h5.68v3.32h-5.08c1.68,1.04,5.36,3.48,6.32,4.2l-2.12,3.04c-1.04-1.04-3.08-2.72-4.8-4.08v4.04h-4v-4.76c-1.04,1.8-2.36,3.4-3.72,4.52h1.84v3.28h9.08v3.68h-9.08v3.4Z"/>
          <path class="cls-101" d="M151.14,93.5c-.28,3.2-1.08,6.16-3,8.76,4.92,2.12,11.32,2.64,19.64,2.76-.96,1.16-1.88,3.28-2.2,4.96-8.68-.44-15.64-1.4-21.04-4.2-2.72,1.92-6.48,3.52-11.68,4.68-.56-1.12-1.84-3.16-2.88-4.24,4.6-.84,7.92-1.96,10.32-3.32-2.16-1.92-4.04-4.32-5.52-7.4l4.36-1.56c1.32,2.44,2.96,4.36,4.84,5.88,1.4-1.92,1.96-4,2.16-6.32h-13v-14.76h13.08v-5.56h4.96v5.56h13.24v14.76h-13.28Zm-13.36-4.56h8.44v-5.64h-8.44v5.64Zm13.4-5.64v5.64h8.32v-5.64h-8.32Z"/>
          <path class="cls-101" d="M197.26,80.38c-.96,3.88-2.28,7.44-3.84,10.64,2.68,6.56,7.68,12.2,14.24,14.92-1.16,1-2.72,3-3.48,4.28-6.04-2.92-10.48-7.88-13.68-14.12-4.4,6.64-10.24,11.4-16.68,14.28-.76-1.2-2.52-3.4-3.72-4.28,9.52-3.8,17.12-11.32,20.76-22.28h-8.4c-2.4,4.52-5.32,8.4-8.52,11.24-.88-.92-3.04-2.72-4.28-3.56,5.36-4.04,9.4-10.92,11.6-18.48l5.24,1.16c-.52,1.68-1.12,3.24-1.8,4.84h8.16l.92-.24,3.48,1.6Z"/>
          <path class="cls-32" d="M60.18,147.18h3.59v-11.57h-2.86v-1.3c1.43-.24,2.46-.62,3.34-1.14h1.54v14.02h3.23v1.67h-8.85v-1.67Z"/>
          <path class="cls-32" d="M71.73,147.49l1.12-1.25c.62,.77,1.58,1.23,2.57,1.23,2.2,0,4.07-1.72,4.16-6.73-1.01,1.25-2.4,2.02-3.67,2.02-2.73,0-4.49-1.65-4.49-4.86,0-2.99,2.11-5.02,4.62-5.02,3.1,0,5.41,2.51,5.41,7.55,0,6.29-2.84,8.71-5.96,8.71-1.67,0-2.9-.7-3.76-1.65Zm4.51-6.23c1.01,0,2.29-.64,3.3-2.13-.26-3.04-1.5-4.66-3.5-4.66-1.54,0-2.73,1.36-2.73,3.43s.97,3.37,2.93,3.37Z"/>
          <path class="cls-32" d="M83.66,144.85c0-2.05,1.5-3.45,2.97-4.25v-.09c-1.17-.79-2.18-1.96-2.18-3.63,0-2.4,1.91-4,4.42-4,2.75,0,4.42,1.72,4.42,4.16,0,1.65-1.21,3.06-2.16,3.78v.11c1.39,.84,2.73,1.94,2.73,4.03,0,2.35-2.02,4.18-5.06,4.18s-5.15-1.8-5.15-4.29Zm8.29,.07c0-2.05-1.98-2.77-4.27-3.67-1.28,.81-2.2,1.98-2.2,3.43,0,1.72,1.43,2.97,3.37,2.97s3.1-1.12,3.1-2.73Zm-.37-7.77c0-1.54-.99-2.77-2.73-2.77-1.5,0-2.57,.99-2.57,2.51,0,1.89,1.74,2.68,3.63,3.43,1.08-.97,1.67-2,1.67-3.17Z"/>
          <path class="cls-32" d="M103.77,134.88h-7.81v-1.72h10.1v1.23c-3.7,4.75-4.49,8.34-4.73,14.46h-2.09c.26-5.92,1.45-9.66,4.53-13.97Z"/>
          <path class="cls-32" d="M127.99,145.51h-7.96v5.04h-1.65v-5.04h-10.17v-1.58h3.61v-5.9h6.56v-3.34h-5.35c-.99,1.69-2.16,3.19-3.34,4.33-.31-.26-.99-.81-1.41-1.03,2.07-1.8,3.92-4.64,4.95-7.59l1.65,.4c-.31,.77-.66,1.56-1.01,2.31h13.11v1.58h-6.95v3.34h6.45v1.54h-6.45v4.36h7.96v1.58Zm-9.62-1.58v-4.36h-4.93v4.36h4.93Z"/>
          <path class="cls-32" d="M148.6,137.9c-.95,2.84-2.24,5.35-3.87,7.44,.81,2.16,1.83,3.41,2.95,3.41,.62,0,.88-1.14,1.03-4.07,.37,.37,.97,.75,1.41,.88-.31,3.74-.9,4.82-2.57,4.82s-3.01-1.34-4.03-3.61c-1.32,1.43-2.84,2.66-4.53,3.65-.24-.33-.81-.99-1.19-1.3,1.96-1.06,3.65-2.42,5.06-4.07-.79-2.49-1.32-5.72-1.61-9.26h-7.59v2.86h5.61v.7c-.11,4.93-.24,6.78-.7,7.35-.33,.42-.7,.57-1.32,.64-.55,.04-1.54,.04-2.62,0-.02-.51-.2-1.12-.46-1.54,1.01,.09,1.96,.11,2.33,.11,.31,0,.53-.04,.66-.24,.31-.33,.42-1.72,.51-5.5h-4v.18c0,3.08-.33,7.5-2.31,10.36-.29-.33-.99-.9-1.36-1.1,1.8-2.68,2-6.45,2-9.29v-6.14h9.18c-.09-1.21-.11-2.44-.13-3.7h1.69c0,1.28,.02,2.51,.09,3.7h7.11v1.61h-7c.22,2.93,.62,5.54,1.21,7.64,1.19-1.74,2.13-3.72,2.82-5.94l1.65,.42Zm-3.81-7.35c1.36,.68,3.08,1.74,3.94,2.51l-1.01,1.12c-.84-.77-2.51-1.89-3.89-2.64l.97-.99Z"/>
          <path class="cls-32" d="M171.84,147.97v1.63h-19.49v-1.63h10.65c1.19-2.82,2.55-7.37,3.26-10.58l1.85,.35c-.9,3.28-2.22,7.46-3.34,10.23h7.08Zm-.88-11.77h-17.67v-1.61h17.67v1.61Zm-12.56,10.83c-.31-2.51-1.23-6.36-2.07-9.24l1.63-.4c.86,2.95,1.78,6.69,2.18,9.22l-1.74,.42Zm3.19-12.7c-.18-.95-.64-2.44-1.06-3.56l1.58-.42c.44,1.12,.92,2.55,1.14,3.5l-1.67,.48Z"/>
          <path class="cls-32" d="M179.97,141.22c-.33,1.89-.84,3.56-1.47,4.95,1.45,2.27,4.16,2.6,8.16,2.6,2.27,0,5.46-.11,7.68-.29-.22,.35-.44,1.1-.53,1.56-2.02,.11-4.77,.18-7.15,.18-4.36,0-7.11-.44-8.8-2.82-.84,1.36-1.8,2.42-2.9,3.19-.22-.35-.75-.9-1.1-1.12,2.09-1.36,3.7-3.78,4.42-7.2h-2.44c-.55,0-1.12,.13-1.28,.31-.11-.4-.44-1.17-.62-1.5,.33-.09,.7-.24,1.08-.64,.53-.53,1.85-2.27,2.84-3.59h-3.65v-1.34h4.71l.26-.11,1.08,.53c-.92,1.25-2.64,3.52-3.92,4.99h2.51l.26-.04,.86,.33Zm-2.11-6.49c-.59-.9-1.8-2.42-2.79-3.5l1.23-.75c.99,1.08,2.2,2.46,2.79,3.37l-1.23,.88Zm5.48-.04c-.77,1.28-1.63,2.46-2.51,3.37-.29-.26-.95-.73-1.34-.97,1.72-1.58,3.19-4.07,4.07-6.6l1.54,.37c-.29,.79-.59,1.58-.99,2.33h9.44v1.5h-10.21Zm1.5,12.28c-2.16,0-3.12-.73-3.12-2,0-.97,.26-2.07,6.56-6.51h-5.7v-1.43h7.99l.33-.04,1.03,.57c-.04,.11-.13,.2-.24,.29-7.81,5.26-8.38,6.25-8.38,6.95,0,.48,.57,.7,1.5,.7h6.38c.86,0,1.1-.31,1.19-2.68,.4,.22,.92,.4,1.36,.51-.2,3.17-.79,3.65-2.62,3.65h-6.27Z"/>
          <path class="cls-32" d="M207.52,131.05c-.13,.2-.29,.4-.42,.59,2.2,2.57,6.03,5.26,9.13,6.62-.44,.35-.97,1.03-1.28,1.47-2.88-1.47-6.4-4.16-8.8-6.89-2.38,2.86-5.65,5.35-8.98,7.02-.29-.44-.77-1.03-1.25-1.43,3.94-1.78,7.86-4.84,10.06-8.14l1.54,.75Zm5.13,9.97l1.25,.62c-1.8,2.49-4.71,6.12-7.06,8.96l-1.67-.77c1.94-2.18,4.18-4.99,5.79-7.06h-12.28v-1.63h13.69l.29-.11Zm-2.64-3.65v1.54h-7.59v-1.54h7.59Z"/>
          <path class="cls-32" d="M221.6,139.9c-.75-.68-2.31-1.61-3.61-2.18l.92-1.19c1.28,.51,2.84,1.34,3.61,2.02l-.92,1.34Zm-3.15,9.48c.88-1.69,2.13-4.51,3.01-6.97l1.32,.86c-.81,2.29-1.91,4.97-2.86,7l-1.47-.88Zm1.43-18.7c1.23,.57,2.73,1.5,3.48,2.22l-.97,1.3c-.7-.73-2.22-1.74-3.45-2.35l.95-1.17Zm11.35,6.56v1.56h6.14v10.12c0,.75-.15,1.12-.68,1.34-.53,.2-1.41,.22-2.75,.22-.07-.37-.24-.88-.42-1.25,.92,.02,1.78,.02,2.05,0,.26,0,.35-.04,.35-.31v-2.09c-.24,.18-.59,.46-.75,.7-.64-.62-1.14-1.5-1.47-2.64-.33,1.06-.88,2.02-1.72,2.71-.13-.22-.48-.55-.73-.7,1.08-.79,1.61-2.2,1.76-3.5h.35c-.02-.26-.07-.53-.09-.81h-1.25v-1.12h2.09c.11,2.44,.75,4.33,1.8,5.26v-6.51h-4.69v10.08h-1.47v-3.34c-.22,.18-.51,.44-.64,.66-.59-.62-1.06-1.52-1.34-2.64-.33,1.1-.86,2.09-1.69,2.79-.15-.22-.51-.55-.73-.68,1.06-.84,1.58-2.31,1.74-3.65h.37c-.04-.26-.07-.55-.09-.84h-1.25v-1.12h2.09c.09,2.38,.62,4.29,1.54,5.26v-6.51h-4.47v10.28h-1.43v-11.68h5.9v-1.56h-3.12v-3.26h-3.28v-1.45h3.28v-2.09h1.56v2.09h4.73v-2.09h1.61v2.09h3.52v1.45h-3.52v3.26h-3.3Zm-3.04-1.41h4.73v-1.85h-4.73v1.85Z"/>
          <path class="cls-32" d="M60.1,174.94l1.01-1.32c.95,.99,2.18,1.85,4,1.85s3.28-1.12,3.28-2.88c0-1.87-1.3-3.1-5.02-3.1v-1.54c3.32,0,4.47-1.3,4.47-2.95,0-1.52-1.06-2.49-2.73-2.49-1.3,0-2.44,.66-3.34,1.58l-1.08-1.25c1.21-1.14,2.64-1.96,4.51-1.96,2.71,0,4.69,1.43,4.69,3.98,0,1.89-1.17,3.1-2.86,3.72v.09c1.89,.46,3.41,1.85,3.41,4,0,2.79-2.31,4.47-5.17,4.47-2.53,0-4.11-1.06-5.17-2.2Z"/>
          <path class="cls-32" d="M72.28,175.01l.99-1.32c.92,.92,2.09,1.78,3.96,1.78s3.43-1.39,3.43-3.56-1.32-3.48-3.34-3.48c-1.08,0-1.76,.35-2.68,.97l-1.08-.68,.51-7.55h7.85v1.72h-6.09l-.4,4.69c.73-.4,1.43-.66,2.4-.66,2.68,0,4.86,1.54,4.86,4.93s-2.55,5.3-5.28,5.3c-2.51,0-4.05-1.06-5.13-2.13Z"/>
          <path class="cls-32" d="M104.78,173.51h-7.96v5.04h-1.65v-5.04h-10.17v-1.58h3.61v-5.9h6.56v-3.34h-5.35c-.99,1.69-2.16,3.19-3.34,4.33-.31-.26-.99-.81-1.41-1.03,2.07-1.8,3.92-4.64,4.95-7.59l1.65,.4c-.31,.77-.66,1.56-1.01,2.31h13.11v1.58h-6.95v3.34h6.45v1.54h-6.45v4.36h7.96v1.58Zm-9.62-1.58v-4.36h-4.93v4.36h4.93Z"/>
          <path class="cls-32" d="M113.4,171.68c-.04-.33-.13-.75-.24-1.19-4.67,.7-5.32,.86-5.77,1.08-.09-.33-.33-1.12-.53-1.52,.48-.11,.99-.66,1.63-1.45,.33-.4,1.01-1.32,1.8-2.49-2.27,.26-2.73,.35-3.04,.51-.09-.33-.33-1.03-.51-1.45,.37-.09,.75-.53,1.21-1.21,.46-.64,2-3.17,2.9-5.52l1.45,.59c-.97,2.07-2.16,4.18-3.34,5.85l2.27-.2c.55-.92,1.12-1.91,1.58-2.93l1.41,.84c-1.41,2.51-3.12,5.06-4.88,7.09l3.45-.44c-.24-.75-.48-1.5-.75-2.16l1.25-.35c.59,1.45,1.21,3.37,1.43,4.51l-1.34,.44Zm-4.22,1.06c-.22,1.91-.64,4.03-1.12,5.41-.29-.15-.97-.37-1.3-.51,.51-1.36,.84-3.32,1.06-5.13l1.36,.22Zm2.13-.26c.29,1.45,.55,3.34,.62,4.62l-1.32,.22c-.04-1.23-.29-3.15-.55-4.64l1.25-.2Zm2.05-.57c.44,1.17,.95,2.68,1.12,3.67l-1.21,.42c-.2-1.01-.66-2.55-1.08-3.72l1.17-.37Zm13.44,4.62v1.5h-12.56v-1.5h5.61v-4.18h-4.38v-1.47h10.45v1.47h-4.47v4.18h5.35Zm-9.42-6.4c-.46-1.14-1.5-2.84-2.62-4.33,.86-1.34,1.8-3.01,2.31-4.05l1.43,.37c-.59,1.12-1.43,2.53-2.18,3.63,.97,1.28,1.94,2.82,2.42,3.81l-1.36,.57Zm9.2-9.09h-11.6v-1.5h11.6v1.5Zm-4.29,1.1c-.62,1.1-1.47,2.51-2.2,3.59,.97,1.25,1.98,2.77,2.49,3.74l-1.36,.62c-.46-1.14-1.54-2.84-2.73-4.31,.9-1.32,1.87-2.97,2.38-4l1.43,.37Zm2.84,7.99c-.55-1.14-1.72-2.86-2.95-4.33,.92-1.34,1.94-3.01,2.44-4.05l1.45,.4c-.64,1.12-1.52,2.51-2.27,3.61,1.03,1.23,2.11,2.75,2.64,3.74l-1.32,.64Z"/>
          <path class="cls-32" d="M132.17,165.96c0,3.63-.26,8.91-2.11,12.52-.29-.24-.97-.64-1.36-.79,1.76-3.43,1.94-8.27,1.94-11.73v-6.47h17.95v1.5h-16.41v4.97Zm16.48,10.56v1.41h-16.72v-1.41h2.82v-4.62h1.56v4.62h3.3v-6.21h1.58v2.2h5.35v1.32h-5.35v2.68h7.46Zm-12.96-6.16v-3.19c-.75,1.25-1.74,2.42-2.64,3.1-.22-.33-.64-.79-.95-1.01,1.08-.64,2.22-1.89,2.99-3.17h-2.24v-1.23h2.84v-1.56c-.79,.13-1.63,.22-2.38,.29-.07-.26-.24-.7-.42-.99,1.94-.2,4.18-.57,5.32-1.06l1.1,.86c-.64,.26-1.41,.48-2.24,.68v1.78h2.55v1.23h-2.55v.11c.57,.4,2.09,1.47,2.46,1.78l-.84,1.06c-.33-.33-1.01-.99-1.63-1.52v2.84h-1.39Zm7.59,0v-3.65c-.81,1.43-2.02,2.79-3.17,3.56-.24-.33-.66-.77-.95-1.03,1.19-.62,2.42-1.87,3.23-3.15h-2.09v-1.23h2.97v-1.61c-.86,.13-1.72,.22-2.53,.29-.07-.29-.24-.73-.37-1.01,2.05-.18,4.49-.55,5.74-1.06l1.12,.86c-.73,.29-1.61,.51-2.55,.7v1.83h3.61v1.23h-3.61v.15c.73,.44,3.32,2.35,3.94,2.82l-.79,1.12c-.57-.59-2.09-1.85-3.15-2.64v2.82h-1.41Z"/>
          <path class="cls-32" d="M167.19,160.86c-2.82,5.08-9.26,8.16-15.03,9.42-.15-.44-.48-1.08-.79-1.43,2.75-.51,5.72-1.52,8.27-2.93-.95-.81-2.49-1.78-3.85-2.49-.97,.53-2,1.01-3.12,1.47-.24-.4-.77-.95-1.12-1.21,3.94-1.39,6.8-3.45,8.32-5.28l1.83,.4c-.44,.51-.92,.99-1.45,1.47h5.63l.29-.09,1.03,.66Zm3.23,7.59c-2.75,6.36-9.57,9.09-16.68,10.12-.13-.42-.46-1.12-.73-1.47,3.43-.42,6.82-1.3,9.64-2.77-1.03-.95-2.71-2.13-4.22-2.95-1.12,.55-2.35,1.08-3.67,1.54-.2-.35-.66-.95-.99-1.23,4.6-1.45,7.92-3.72,9.64-5.81l1.8,.42c-.48,.55-1.01,1.1-1.61,1.63h5.46l.31-.07,1.06,.59Zm-11.88-6.78c-.44,.33-.9,.64-1.39,.95,1.43,.73,2.99,1.67,3.89,2.46,1.5-.99,2.82-2.13,3.78-3.41h-6.29Zm3.3,7.66c-.59,.44-1.25,.84-1.94,1.25,1.52,.84,3.21,1.98,4.2,2.88,1.67-1.1,3.08-2.46,4.05-4.14h-6.31Z"/>
          <path class="cls-32" d="M183.78,176.5h8.49v1.56h-18.7v-1.56h8.54v-4.73h-6.56v-1.54h14.65v1.54h-6.42v4.73Zm-8.56-10.61h-1.61v-4.91h8.58c-.31-.7-.68-1.54-1.08-2.18l1.67-.48c.51,.81,1.06,1.87,1.39,2.66h7.88v4.38h-1.65v-2.88h-4.31v3.52c0,.62,.11,.84,.73,.84h3.76c.51,0,1.36-.04,1.76-.13,.07,.44,.13,1.08,.18,1.45-.37,.11-1.14,.13-1.85,.13h-3.87c-1.83,0-2.31-.59-2.31-2.31v-3.5h-2.82c-.33,3.87-1.56,5.7-7,6.6-.11-.4-.46-1.01-.77-1.32,4.86-.7,5.83-2.13,6.12-5.28h-4.8v3.41Z"/>
          <path class="cls-32" d="M198.32,167.99c-.77-.59-2.38-1.52-3.56-2.13l.88-1.21c1.17,.53,2.79,1.41,3.61,1.98l-.92,1.36Zm-2.9,9.11c.97-1.72,2.35-4.55,3.39-7.04l1.28,1.06c-.92,2.31-2.13,4.99-3.23,7.06l-1.43-1.08Zm1.56-18.35c1.19,.57,2.84,1.52,3.63,2.13l-.92,1.34c-.81-.64-2.4-1.65-3.61-2.29l.9-1.19Zm9.22,10.45c-.42-.55-1.17-1.3-1.94-1.98-.7,1.3-1.52,2.42-2.42,3.3-.26-.24-.88-.75-1.21-.97,1.72-1.52,3.04-3.89,3.76-6.49l1.47,.33c-.26,.88-.59,1.72-.92,2.53,.81,.68,1.74,1.52,2.22,2.11l-.97,1.17Zm8.71,4.18h-6.4v5.17h-1.63v-5.17h-6.14v-1.54h6.14v-2.02h1.19c-.31-.26-.7-.57-.95-.73,1.58-1.41,2.77-3.59,3.39-6.01l1.47,.35c-.22,.84-.51,1.65-.84,2.4,1.17,.97,2.51,2.2,3.21,3.04l-1.06,1.12c-.59-.79-1.72-1.89-2.79-2.84-.57,1.03-1.28,1.96-2,2.71v1.98h6.4v1.54Zm-.4-10.89h-13.16v-1.54h5.79c-.2-.68-.51-1.56-.79-2.22l1.54-.4c.4,.81,.81,1.91,1.01,2.62h5.61v1.54Z"/>
          <path class="cls-32" d="M232.42,171.13c1.25,1.94,3.19,3.94,4.82,5.02-.35,.26-.86,.84-1.08,1.19-1.58-1.21-3.45-3.34-4.75-5.43v6.67h-1.47v-6.34c-1.23,2.05-3.1,4.07-4.88,5.19-.22-.35-.64-.9-.99-1.23-2.4,.57-4.91,1.17-6.73,1.58l-.37-1.47c.92-.15,2.11-.4,3.41-.66v-6.4h-3.15v-1.43h3.15v-2.38h-1.98v-.97c-.35,.35-.73,.66-1.06,.97-.11-.37-.46-1.25-.7-1.65,1.69-1.3,3.43-3.32,4.44-5.46l1.25,.57c-.13,.29-.29,.62-.46,.92,1.28,.88,2.51,1.91,3.3,2.71l-.75,1.34c-.77-.84-2.05-1.96-3.28-2.86-.68,1.08-1.47,2.11-2.33,2.99h5.1v1.43h-2.22v2.38h2.86v1.43h-2.86v6.14c.95-.2,1.91-.42,2.88-.62l.07,1.1c1.65-1.1,3.34-2.9,4.38-4.73h-3.34v-7.13h4.27v-1.78h-4.6v-1.45h4.6v-2.27h1.47v2.27h5.06v1.45h-5.06v1.78h4.62v7.13h-3.61Zm-13.75-.7c.4,1.25,.75,2.95,.88,4.03l-1.12,.33c-.09-1.1-.44-2.79-.79-4.09l1.03-.26Zm3.54,3.74c.31-1.08,.77-2.82,.99-4l1.19,.37c-.4,1.34-.86,2.97-1.23,3.98l-.95-.35Zm4.77-4.38h3.04v-4.44h-3.04v4.44Zm1.61-3.83c.51,.95,.95,2.13,1.1,2.97l-.92,.29c-.13-.81-.55-2.09-1.03-3.01l.86-.24Zm6.05-.62h-3.32v4.44h3.32v-4.44Zm-2.86,3.63c.4-.84,.92-2.24,1.19-3.12l1.01,.33c-.44,1.08-.95,2.31-1.36,3.1l-.84-.31Z"/>
        </g>
      </g>
    </g>
  </g>
</svg>