<?xml version="1.0" encoding="utf-8"?>
<!-- Generator: Adobe Illustrator 26.5.1, SVG Export Plug-In . SVG Version: 6.00 Build 0)  -->
<svg version="1.1" id="圖層_1" xmlns="http://www.w3.org/2000/svg" xmlns:xlink="http://www.w3.org/1999/xlink" x="0px" y="0px"
	 viewBox="0 0 160 140" style="enable-background:new 0 0 160 140;" xml:space="preserve">
<style type="text/css">
	.st0{display:none;}
	.st1{display:inline;}
	.st2{fill:#444344;}
	.st3{fill:#BFC1C1;}
	.st4{fill:#36C5C4;}
	.st5{fill:#FF661A;}
	.st6{fill:#FFFFFF;}
	.st7{fill:#80D1C9;}
	.st8{fill:#4B5763;}
	.st9{fill:#F9BD00;}
</style>
<g class="st0">
	<g class="st1">
		<path class="st2" d="M126.5,112.8c-0.5-0.5-1.3-0.5-1.8,0c-11.2,11.6-26.2,18-42.4,18c-8,0-15.8-1.6-23.1-4.7l4.1-0.7
			c0.7-0.1,1.2-0.8,1.1-1.5c-0.1-0.7-0.8-1.2-1.5-1.1l-8,1.3c-0.4,0.1-0.8,0.3-0.9,0.7c-0.2,0.4-0.2,0.8,0,1.2l3.8,7.2
			c0.2,0.4,0.7,0.7,1.1,0.7c0.2,0,0.4,0,0.6-0.1c0.6-0.3,0.9-1.1,0.5-1.7l-1.9-3.6c7.6,3.3,15.7,4.9,24.2,4.9
			c16.8,0,32.5-6.7,44.2-18.8C127,114.1,127,113.3,126.5,112.8z"/>
	</g>
	<g class="st1">
		<path class="st3" d="M108.1,124.9c-0.1,0-0.3,0-0.4,0c-0.7-0.1-1.3-0.1-1.9-0.2c-0.1,0-0.2,0-0.3,0c-0.5-0.1-1.1-0.2-1.6-0.3
			c-0.1,0-0.2,0-0.3-0.1c-1.2-0.2-2.2-0.5-3.2-0.9c-0.1,0-0.1,0-0.2-0.1c-0.5-0.2-0.9-0.3-1.3-0.5c0,0,0,0-0.1,0c-1.9-0.9-3-2-3-3.2
			c0-3.1,7.4-5.6,16.5-5.6c9.1,0,16.5,2.5,16.5,5.6c0,1.2-1.1,2.3-3,3.2c0,0,0,0-0.1,0c-0.4,0.2-0.8,0.4-1.3,0.5
			c-0.1,0-0.1,0-0.2,0.1c-0.9,0.3-2,0.6-3.2,0.9c-0.1,0-0.2,0-0.3,0.1c-0.5,0.1-1,0.2-1.6,0.3c-0.1,0-0.2,0-0.3,0
			c-0.6,0.1-1.3,0.2-1.9,0.2c-0.1,0-0.3,0-0.4,0c-0.5,0-1.1,0.1-1.6,0.1c-0.2,0-0.4,0-0.6,0c-0.7,0-1.4,0-2.1,0c-0.7,0-1.4,0-2.1,0
			c-0.2,0-0.4,0-0.6,0C109.1,125,108.6,125,108.1,124.9z"/>
	</g>
	<g class="st1">
		<path class="st4" d="M97.7,122.1c2.7,1.8,8.3,3,14.6,3c6.4,0,11.9-1.2,14.6-3c1.2-0.8,1.9-1.6,1.9-2.6v5.1c0,3.1-7.4,5.6-16.5,5.6
			c-9.1,0-16.5-2.5-16.5-5.6v-5.1C95.8,120.5,96.5,121.4,97.7,122.1z"/>
	</g>
	<g class="st1">
		<path class="st3" d="M108.1,117.2c-0.1,0-0.3,0-0.4,0c-0.7-0.1-1.3-0.1-1.9-0.2c-0.1,0-0.2,0-0.3,0c-0.5-0.1-1.1-0.2-1.6-0.3
			c-0.1,0-0.2,0-0.3-0.1c-1.2-0.2-2.2-0.5-3.2-0.9c-0.1,0-0.1,0-0.2-0.1c-0.5-0.2-0.9-0.3-1.3-0.5c0,0,0,0-0.1,0c-1.9-0.9-3-2-3-3.2
			c0-3.1,7.4-5.6,16.5-5.6c9.1,0,16.5,2.5,16.5,5.6c0,1.2-1.1,2.3-3,3.2c0,0,0,0-0.1,0c-0.4,0.2-0.8,0.4-1.3,0.5
			c-0.1,0-0.1,0-0.2,0.1c-0.9,0.3-2,0.6-3.2,0.9c-0.1,0-0.2,0.1-0.3,0.1c-0.5,0.1-1,0.2-1.6,0.3c-0.1,0-0.2,0-0.3,0
			c-0.6,0.1-1.3,0.2-1.9,0.2c-0.1,0-0.3,0-0.4,0c-0.5,0-1.1,0.1-1.6,0.1c-0.2,0-0.4,0-0.6,0c-0.7,0-1.4,0.1-2.1,0.1
			c-0.7,0-1.4,0-2.1-0.1c-0.2,0-0.4,0-0.6,0C109.1,117.3,108.6,117.3,108.1,117.2z"/>
	</g>
	<g class="st1">
		<path class="st4" d="M97.7,114.4c2.7,1.8,8.3,3,14.6,3c6.4,0,11.9-1.2,14.6-3c1.2-0.8,1.9-1.6,1.9-2.6v5.1c0,3.1-7.4,5.6-16.5,5.6
			c-9.1,0-16.5-2.5-16.5-5.6v-5.1C95.8,112.8,96.5,113.6,97.7,114.4z"/>
	</g>
	<g class="st1">
		<path class="st3" d="M108.1,109.5c-0.1,0-0.3,0-0.4,0c-0.7-0.1-1.3-0.1-1.9-0.2c-0.1,0-0.2,0-0.3,0c-0.5-0.1-1.1-0.2-1.6-0.3
			c-0.1,0-0.2,0-0.3-0.1c-1.2-0.3-2.2-0.6-3.2-0.9c-0.1,0-0.1,0-0.2-0.1c-0.5-0.2-0.9-0.3-1.3-0.5c0,0,0,0-0.1,0c-1.9-0.9-3-2-3-3.2
			c0-3.1,7.4-5.6,16.5-5.6c9.1,0,16.5,2.5,16.5,5.6c0,1.2-1.1,2.3-3,3.2c0,0,0,0-0.1,0c-0.4,0.2-0.8,0.4-1.3,0.5
			c-0.1,0-0.1,0-0.2,0.1c-0.9,0.3-2,0.6-3.2,0.9c-0.1,0-0.2,0-0.3,0.1c-0.5,0.1-1,0.2-1.6,0.3c-0.1,0-0.2,0-0.3,0
			c-0.6,0.1-1.3,0.2-1.9,0.2c-0.1,0-0.3,0-0.4,0c-0.5,0-1.1,0.1-1.6,0.1c-0.2,0-0.4,0-0.6,0c-0.7,0-1.4,0.1-2.1,0.1
			c-0.7,0-1.4,0-2.1-0.1c-0.2,0-0.4,0-0.6,0C109.1,109.6,108.6,109.6,108.1,109.5z"/>
	</g>
	<g class="st1">
		<path class="st4" d="M97.7,106.7c2.7,1.8,8.3,3,14.6,3c6.4,0,11.9-1.2,14.6-3c1.2-0.8,1.9-1.6,1.9-2.6v5.1c0,3.1-7.4,5.6-16.5,5.6
			c-9.1,0-16.5-2.5-16.5-5.6v-5.1C95.8,105.1,96.5,105.9,97.7,106.7z"/>
	</g>
	<g class="st1">
		<path class="st4" d="M112.3,100.7c-0.7,0-1.4,0-2,0l-0.4,0c-0.7,0-1.2-0.1-1.7-0.1l-0.4,0c-0.6-0.1-1.2-0.1-1.9-0.2
			c0,0-0.3,0-0.3,0c-0.5-0.1-1-0.2-1.5-0.3l-0.3-0.1c-1.1-0.2-2.1-0.5-3-0.8l-0.2-0.1c-0.4-0.1-0.8-0.3-1.2-0.5
			c-1.7-0.8-2.3-1.6-2.3-2.1c0-1.7,6.1-4.3,15.2-4.3c9.1,0,15.2,2.6,15.2,4.3c0,0.5-0.6,1.2-2.3,2c-0.4,0.2-0.8,0.3-1.2,0.5
			l-0.2,0.1c-0.9,0.3-1.9,0.6-3,0.8l-0.3,0.1c-0.6,0.1-1.1,0.2-1.6,0.3l-0.3,0c-0.6,0.1-1.2,0.2-1.9,0.2l-0.4,0
			c-0.5,0-1,0.1-1.6,0.1l-0.6,0C113.7,100.7,113,100.7,112.3,100.7z"/>
	</g>
	<g class="st1">
		<path class="st3" d="M112.3,90.8c-9.1,0-16.5,2.5-16.5,5.6c0,1.2,1.1,2.3,3,3.2c0,0,0,0,0.1,0c0.4,0.2,0.8,0.4,1.3,0.5
			c0.1,0,0.1,0,0.2,0.1c0.9,0.3,2,0.6,3.2,0.9c0.1,0,0.2,0,0.3,0.1c0.5,0.1,1,0.2,1.6,0.3c0.1,0,0.2,0,0.3,0
			c0.6,0.1,1.3,0.2,1.9,0.2c0.1,0,0.3,0,0.4,0c0.5,0,1.1,0.1,1.6,0.1c0.2,0,0.4,0,0.6,0c0.7,0,1.4,0,2.1,0c0.7,0,1.4,0,2.1,0
			c0.2,0,0.4,0,0.6,0c0.6,0,1.1-0.1,1.6-0.1c0.1,0,0.3,0,0.4,0c0.7-0.1,1.3-0.1,1.9-0.2c0.1,0,0.2,0,0.3,0c0.5-0.1,1-0.2,1.6-0.3
			c0.1,0,0.2,0,0.3-0.1c1.2-0.2,2.2-0.5,3.2-0.9c0.1,0,0.1,0,0.2-0.1c0.4-0.2,0.9-0.3,1.3-0.5c0,0,0,0,0.1,0c1.9-0.9,3-2,3-3.2
			C128.9,93.3,121.5,90.8,112.3,90.8z M124.8,97.3C124.8,97.3,124.7,97.3,124.8,97.3c-0.4,0.2-0.7,0.3-1.1,0.5l-0.1,0l-0.1,0
			c-0.8,0.3-1.8,0.6-2.9,0.8l-0.3,0.1c-0.5,0.1-0.9,0.2-1.4,0.3l-0.2,0l-0.1,0c-0.6,0.1-1.2,0.2-1.8,0.2l-0.2,0l-0.2,0
			c-0.5,0-1,0.1-1.6,0.1l-0.5,0c-0.8,0-1.4,0-2,0c-0.6,0-1.2,0-2,0l-0.5,0c-0.5,0-1-0.1-1.5-0.1l-0.2,0l-0.2,0
			c-0.6-0.1-1.2-0.1-1.8-0.2l-0.1,0l-0.2,0c-0.5-0.1-1-0.2-1.4-0.3l-0.1,0l-0.2-0.1c-1.1-0.2-2-0.5-2.8-0.8l-0.1,0l-0.1,0
			c-0.4-0.1-0.7-0.3-1.1-0.5c-0.8-0.4-1.2-0.7-1.4-0.9c1-1,5.7-3,13.8-3c8.1,0,12.8,2,13.8,3C125.9,96.6,125.5,96.9,124.8,97.3z"/>
	</g>
	<g class="st1">
		<path class="st4" d="M97.7,99c2.7,1.8,8.3,3,14.6,3c6.4,0,11.9-1.2,14.6-3c1.2-0.8,1.9-1.6,1.9-2.6v5.1c0,3.1-7.4,5.6-16.5,5.6
			c-9.1,0-16.5-2.5-16.5-5.6v-5.1C95.8,97.3,96.5,98.2,97.7,99z"/>
	</g>
	<g class="st1">
		<path class="st3" d="M86.6,134.9c-0.1,0-0.3,0-0.4,0c-0.7-0.1-1.3-0.1-1.9-0.2c-0.1,0-0.2,0-0.3,0c-0.5-0.1-1.1-0.2-1.6-0.3
			c-0.1,0-0.2,0-0.4-0.1c-1.2-0.3-2.2-0.6-3.2-0.9c-0.1,0-0.1,0-0.2-0.1c-0.4-0.2-0.9-0.3-1.3-0.5c0,0,0,0-0.1,0c-1.9-0.9-3-2-3-3.2
			c0-3.1,7.4-5.6,16.5-5.6c9.1,0,16.5,2.5,16.5,5.6c0,1.2-1.1,2.3-3,3.2c0,0,0,0-0.1,0c-0.4,0.2-0.8,0.4-1.3,0.5
			c-0.1,0-0.1,0-0.2,0.1c-0.9,0.3-2,0.6-3.2,0.9c-0.1,0-0.2,0-0.3,0.1c-0.5,0.1-1,0.2-1.6,0.3c-0.1,0-0.2,0-0.3,0
			c-0.6,0.1-1.3,0.2-1.9,0.2c-0.1,0-0.3,0-0.4,0c-0.5,0-1.1,0.1-1.6,0.1c-0.2,0-0.4,0-0.6,0c-0.7,0-1.4,0.1-2.1,0.1
			c-0.7,0-1.4,0-2.1-0.1c-0.2,0-0.4,0-0.6,0C87.7,135,87.1,135,86.6,134.9z"/>
	</g>
	<g class="st1">
		<path class="st5" d="M76.3,132.1c2.8,1.8,8.3,3,14.6,3c6.4,0,11.9-1.2,14.6-3c1.2-0.8,1.9-1.6,1.9-2.6v5.1c0,3.1-7.4,5.6-16.5,5.6
			c-9.1,0-16.5-2.5-16.5-5.6v-5.1C74.4,130.5,75.1,131.3,76.3,132.1z"/>
	</g>
	<g class="st1">
		<path class="st3" d="M86.6,127.2c-0.1,0-0.3,0-0.4,0c-0.7-0.1-1.3-0.1-1.9-0.2c-0.1,0-0.2,0-0.3,0c-0.5-0.1-1.1-0.2-1.6-0.3
			c-0.1,0-0.2,0-0.4-0.1c-1.2-0.2-2.2-0.5-3.2-0.9c-0.1,0-0.1,0-0.2-0.1c-0.4-0.2-0.9-0.3-1.3-0.5c0,0,0,0-0.1,0c-1.9-0.9-3-2-3-3.2
			c0-3.1,7.4-5.6,16.5-5.6c9.1,0,16.5,2.5,16.5,5.6c0,1.2-1.1,2.3-3,3.2c0,0,0,0-0.1,0c-0.4,0.2-0.8,0.4-1.3,0.5
			c-0.1,0-0.1,0-0.2,0.1c-0.9,0.3-2,0.6-3.2,0.9c-0.1,0-0.2,0-0.3,0.1c-0.5,0.1-1,0.2-1.6,0.3c-0.1,0-0.2,0-0.3,0
			c-0.6,0.1-1.3,0.2-1.9,0.2c-0.1,0-0.3,0-0.4,0c-0.5,0-1.1,0.1-1.6,0.1c-0.2,0-0.4,0-0.6,0c-0.7,0-1.4,0-2.1,0c-0.7,0-1.4,0-2.1,0
			c-0.2,0-0.4,0-0.6,0C87.7,127.3,87.1,127.2,86.6,127.2z"/>
	</g>
	<g class="st1">
		<path class="st5" d="M76.3,124.4c2.8,1.8,8.3,3,14.6,3c6.4,0,11.9-1.2,14.6-3c1.2-0.8,1.9-1.6,1.9-2.6v5.1c0,3.1-7.4,5.6-16.5,5.6
			c-9.1,0-16.5-2.5-16.5-5.6v-5.1C74.4,122.7,75.1,123.6,76.3,124.4z"/>
	</g>
	<g class="st1">
		<path class="st5" d="M90.9,118.4c-0.7,0-1.4,0-2,0l-0.4,0c-0.7,0-1.2-0.1-1.7-0.1l-0.4,0c-0.6-0.1-1.2-0.1-1.9-0.2
			c0,0-0.3,0-0.3,0c-0.5-0.1-1-0.2-1.5-0.3l-0.3-0.1c-1.1-0.2-2.1-0.5-3-0.8l-0.2-0.1c-0.4-0.2-0.8-0.3-1.2-0.5
			c-1.7-0.8-2.3-1.6-2.3-2.1c0-1.7,6.1-4.3,15.2-4.3c9.1,0,15.2,2.6,15.2,4.3c0,0.5-0.6,1.2-2.3,2c-0.4,0.2-0.8,0.3-1.2,0.5
			l-0.2,0.1c-0.9,0.3-1.9,0.6-3,0.8l-0.3,0.1c-0.5,0.1-1,0.2-1.5,0.3c0,0-0.3,0-0.3,0c-0.6,0.1-1.2,0.2-1.9,0.2l-0.4,0
			c-0.5,0-1,0.1-1.6,0.1l-0.6,0C92.3,118.4,91.6,118.4,90.9,118.4z"/>
	</g>
	<g class="st1">
		<path class="st3" d="M90.9,108.5c-9.1,0-16.5,2.5-16.5,5.6c0,1.2,1.1,2.3,3,3.2c0,0,0,0,0.1,0c0.4,0.2,0.8,0.4,1.3,0.5
			c0.1,0,0.1,0,0.2,0.1c0.9,0.3,2,0.6,3.2,0.9c0.1,0,0.2,0.1,0.4,0.1c0.5,0.1,1,0.2,1.6,0.3c0.1,0,0.2,0,0.3,0
			c0.6,0.1,1.3,0.2,1.9,0.2c0.1,0,0.3,0,0.4,0c0.5,0,1.1,0.1,1.6,0.1c0.2,0,0.4,0,0.6,0c0.7,0,1.4,0.1,2.1,0.1c0.7,0,1.4,0,2.1-0.1
			c0.2,0,0.4,0,0.6,0c0.6,0,1.1-0.1,1.6-0.1c0.1,0,0.3,0,0.4,0c0.7-0.1,1.3-0.1,1.9-0.2c0.1,0,0.2,0,0.3,0c0.5-0.1,1.1-0.2,1.6-0.3
			c0.1,0,0.2,0,0.3-0.1c1.2-0.2,2.2-0.5,3.2-0.9c0.1,0,0.1,0,0.2-0.1c0.4-0.2,0.9-0.3,1.3-0.5c0,0,0,0,0.1,0c1.9-0.9,3-2,3-3.2
			C107.4,111,100,108.5,90.9,108.5z M103.3,115C103.3,115,103.3,115,103.3,115c-0.4,0.2-0.7,0.3-1.1,0.5c0,0-0.1,0-0.1,0l-0.1,0
			c-0.8,0.3-1.8,0.6-2.9,0.8l-0.2,0l-0.1,0c-0.5,0.1-0.9,0.2-1.4,0.3l-0.2,0l-0.1,0c-0.6,0.1-1.2,0.2-1.8,0.2l-0.2,0l-0.2,0
			c-0.5,0-1,0.1-1.5,0.1l-0.1,0l-0.5,0c-0.8,0-1.4,0-2,0c-0.6,0-1.2,0-2,0l-0.5,0l-0.1,0c-0.5,0-1-0.1-1.5-0.1l-0.2,0l-0.2,0
			c-0.6-0.1-1.2-0.1-1.8-0.2l-0.1,0l-0.2,0c-0.5-0.1-1-0.2-1.4-0.3l-0.1,0l-0.3,0c-1.1-0.2-2-0.5-2.9-0.8l-0.1,0c0,0-0.1,0-0.1,0
			c-0.4-0.1-0.7-0.3-1.1-0.5c-0.8-0.4-1.2-0.7-1.4-0.9c1-1,5.7-3,13.8-3c8.1,0,12.8,1.9,13.8,3C104.5,114.3,104.1,114.6,103.3,115z"
			/>
	</g>
	<g class="st1">
		<path class="st5" d="M76.3,116.7c2.8,1.8,8.3,3,14.6,3c6.4,0,11.9-1.2,14.6-3c1.2-0.8,1.9-1.6,1.9-2.6v5.1c0,3.1-7.4,5.6-16.5,5.6
			c-9.1,0-16.5-2.5-16.5-5.6v-5.1C74.4,115,75.1,115.9,76.3,116.7z"/>
	</g>
	<g class="st1">
		<path class="st2" d="M121.5,25.1l-2.2-7.8c-0.2-0.7-0.9-1.1-1.6-0.9c-0.7,0.2-1.1,0.9-0.9,1.6l1.1,3.9
			c-10.3-7.4-22.8-11.4-35.6-11.4c-20,0-38.9,9.8-50.4,26.3c-0.4,0.6-0.3,1.4,0.3,1.8c0.2,0.2,0.5,0.2,0.7,0.2
			c0.4,0,0.8-0.2,1.1-0.5c11-15.8,29.1-25.2,48.3-25.2c12.2,0,24.2,3.8,34.1,10.9l-4.2-0.2c-0.7,0-1.3,0.5-1.4,1.2
			c0,0.7,0.5,1.3,1.2,1.4l8.1,0.4c0,0,0,0,0.1,0c0.4,0,0.8-0.2,1-0.5C121.5,26,121.6,25.5,121.5,25.1z"/>
	</g>
	<g class="st1">
		<path class="st5" d="M29.2,31.3c0,9.1,7.3,16.4,16.4,16.4S62,40.3,62,31.3c0-9.1-7.3-16.4-16.4-16.4S29.2,22.2,29.2,31.3z"/>
	</g>
	<g class="st1">
		<path class="st5" d="M45.6,49c-9.8,0-17.7-7.9-17.7-17.7c0-9.8,7.9-17.7,17.7-17.7s17.7,7.9,17.7,17.7C63.2,41,55.3,49,45.6,49z
			 M45.6,16.2c-8.3,0-15.1,6.8-15.1,15.1c0,8.3,6.8,15.1,15.1,15.1c8.3,0,15.1-6.8,15.1-15.1C60.7,22.9,53.9,16.2,45.6,16.2z"/>
	</g>
	<g class="st1">
		<path class="st6" d="M45.6,30c-2.1,0-3.1-0.9-3.1-2.7c0-1.5,1.4-2.7,3.1-2.7c1.7,0,3.1,1.2,3.1,2.7c0,0.7,0.6,1.3,1.3,1.3
			c0.7,0,1.3-0.6,1.3-1.3c0-2.5-1.9-4.6-4.4-5.2V21c0-0.7-0.6-1.3-1.3-1.3c-0.7,0-1.3,0.6-1.3,1.3v1.1c-2.5,0.5-4.4,2.6-4.4,5.2
			c0,2.6,1.5,5.3,5.7,5.3c2.1,0,3.1,0.9,3.1,2.7c0,1.5-1.4,2.7-3.1,2.7c-1.7,0-3.1-1.2-3.1-2.7c0-0.7-0.6-1.3-1.3-1.3
			c-0.7,0-1.3,0.6-1.3,1.3c0,2.5,1.9,4.6,4.4,5.2v1.1c0,0.7,0.6,1.3,1.3,1.3c0.7,0,1.3-0.6,1.3-1.3v-1.1c2.5-0.5,4.4-2.6,4.4-5.2
			C51.3,32.7,49.8,30,45.6,30z"/>
	</g>
	<g class="st1">
		<path class="st2" d="M44.7,117.2C31.2,106,23.5,89.5,23.5,72c0-7.7,1.4-15.1,4.3-22l0.7,4.1c0.1,0.6,0.6,1.1,1.3,1.1
			c0.1,0,0.1,0,0.2,0c0.7-0.1,1.2-0.8,1.1-1.5l-1.3-8c-0.1-0.4-0.3-0.8-0.7-0.9c-0.4-0.2-0.8-0.2-1.2,0l-7.2,3.8
			c-0.6,0.3-0.9,1.1-0.5,1.7c0.3,0.6,1.1,0.9,1.7,0.5l3.6-1.9c-3,7.3-4.5,15.1-4.5,23.1c0,18.3,8.1,35.5,22.1,47.2
			c0.2,0.2,0.5,0.3,0.8,0.3c0.4,0,0.7-0.2,1-0.5C45.3,118.5,45.2,117.7,44.7,117.2z"/>
	</g>
	<g class="st1">
		<path class="st7" d="M63.6,101.6c0-8.6-4.9-21.2-14.3-27.1c-1.8-2.2,0-4.9,0-4.9c2.3-3.1,0.9-8.6,0.9-8.6c-3.3,3-8.6,3-11.9,0
			c-3.3-3-8.6-3-11.9,0c-3.3,3-8.6,3-11.9,0c0,0-1.2,5.5,1.1,8.6c0,0,1.8,2.7,0,4.9C6.2,80.4,1.2,93,1.2,101.6
			c0,12.8-0.7,22.6,31.2,22.6C64.4,124.2,63.6,114.4,63.6,101.6z"/>
	</g>
	<g class="st1">
		<path class="st4" d="M51.2,86.2c-1.1-4.6-3.9-8.3-5.6-10.1c1.3-0.4,2.6-0.9,3.7-1.5c-1.8-2.2,0-4.9,0-4.9
			c-4.4,2.3-10.3,3.3-16.9,3.3c-6.5,0-12.5-1-16.9-3.3c0,0,1.8,2.7,0,4.9c4.4,2.3,10.3,3.3,16.9,3.3c3.7,0,7.2-0.3,10.3-1
			c0.9,0.8,4.8,4.9,5.9,10c0.1,0.6,0.7,1,1.3,1c0.1,0,0.2,0,0.3,0C50.9,87.6,51.3,86.9,51.2,86.2z"/>
	</g>
	<g class="st1">
		<path class="st3" d="M17.9,100.7c0,8.1,6.5,14.6,14.6,14.6c8.1,0,14.6-6.5,14.6-14.6c0-8.1-6.5-14.6-14.6-14.6
			C24.4,86.1,17.9,92.6,17.9,100.7z"/>
	</g>
	<g class="st1">
		<path class="st2" d="M32.4,99.4c-2.1,0-3.1-0.9-3.1-2.7c0-1.5,1.4-2.7,3.1-2.7c1.7,0,3.1,1.2,3.1,2.7c0,0.7,0.6,1.3,1.3,1.3
			c0.7,0,1.3-0.6,1.3-1.3c0-2.5-1.9-4.6-4.4-5.2v-1.1c0-0.7-0.6-1.3-1.3-1.3c-0.7,0-1.3,0.6-1.3,1.3v1.1c-2.5,0.5-4.4,2.6-4.4,5.2
			c0,2.6,1.5,5.3,5.7,5.3c2.1,0,3.1,0.9,3.1,2.7c0,1.5-1.4,2.7-3.1,2.7c-1.7,0-3.1-1.2-3.1-2.7c0-0.7-0.6-1.3-1.3-1.3
			c-0.7,0-1.3,0.6-1.3,1.3c0,2.5,1.9,4.6,4.4,5.2v1.1c0,0.7,0.6,1.3,1.3,1.3c0.7,0,1.3-0.6,1.3-1.3v-1.1c2.5-0.5,4.4-2.6,4.4-5.2
			C38.1,102.2,36.6,99.4,32.4,99.4z"/>
	</g>
	<g class="st1">
		<path class="st2" d="M141.4,96.8l-3.8,2c4-8.3,6.2-17.5,6.2-26.8c0-14.3-5-28.2-14.1-39.2c-0.5-0.5-1.3-0.6-1.8-0.2
			c-0.5,0.5-0.6,1.3-0.2,1.8c8.7,10.5,13.5,23.8,13.5,37.5c0,8.8-2,17.5-5.8,25.4l-0.6-3.9c-0.1-0.7-0.8-1.2-1.5-1.1
			c-0.7,0.1-1.2,0.8-1.1,1.5l1.2,8c0.1,0.4,0.3,0.8,0.7,0.9c0.2,0.1,0.4,0.1,0.6,0.1c0.2,0,0.4,0,0.6-0.1l7.2-3.7
			c0.6-0.3,0.9-1.1,0.6-1.7C142.8,96.7,142,96.5,141.4,96.8z"/>
	</g>
	<g class="st1">
		
			<rect x="83.6" y="29.7" transform="matrix(-1 -1.224647e-16 1.224647e-16 -1 242.8724 98.1959)" class="st7" width="75.6" height="38.7"/>
	</g>
	<g class="st1">
		
			<rect x="79.7" y="33.6" transform="matrix(-1 -1.224647e-16 1.224647e-16 -1 235.0674 105.9985)" class="st4" width="75.6" height="38.7"/>
	</g>
	<g class="st1">
		
			<rect x="75.8" y="37.5" transform="matrix(-1 -1.224647e-16 1.224647e-16 -1 227.2678 113.8011)" class="st7" width="75.6" height="38.7"/>
	</g>
	<g class="st1">
		
			<rect x="71.9" y="41.4" transform="matrix(-1 -1.224647e-16 1.224647e-16 -1 219.4592 121.6097)" class="st4" width="75.6" height="38.7"/>
	</g>
	<g class="st1">
		<path class="st7" d="M76.6,69.1V52.5c3.6,0,6.4-2.9,6.4-6.5h53.5c0,3.6,2.9,6.5,6.4,6.5v16.6c-3.6,0-6.4,2.9-6.4,6.5H83
			C83,72,80.1,69.1,76.6,69.1z"/>
	</g>
	<g class="st1">
		<path class="st5" d="M123.8,60.8c0,3,2.4,5.4,5.4,5.4c3,0,5.4-2.4,5.4-5.4c0-3-2.4-5.4-5.4-5.4C126.2,55.4,123.8,57.8,123.8,60.8z
			"/>
	</g>
	<g class="st1">
		<path class="st5" d="M84.8,60.8c0,3,2.4,5.4,5.4,5.4c3,0,5.4-2.4,5.4-5.4c0-3-2.4-5.4-5.4-5.4C87.2,55.4,84.8,57.8,84.8,60.8z"/>
	</g>
	<g class="st1">
		<path class="st2" d="M109.7,59.5c-2.1,0-3.1-0.9-3.1-2.7c0-1.5,1.4-2.7,3.1-2.7c1.7,0,3.1,1.2,3.1,2.7c0,0.7,0.6,1.3,1.3,1.3
			c0.7,0,1.3-0.6,1.3-1.3c0-2.5-1.9-4.6-4.4-5.2v-1.1c0-0.7-0.6-1.3-1.3-1.3s-1.3,0.6-1.3,1.3v1.1c-2.5,0.5-4.4,2.6-4.4,5.2
			c0,2.6,1.5,5.3,5.7,5.3c2.1,0,3.1,0.9,3.1,2.7c0,1.5-1.4,2.7-3.1,2.7c-1.7,0-3.1-1.2-3.1-2.7c0-0.7-0.6-1.3-1.3-1.3
			c-0.7,0-1.3,0.6-1.3,1.3c0,2.5,1.9,4.6,4.4,5.2v1.1c0,0.7,0.6,1.3,1.3,1.3s1.3-0.6,1.3-1.3V70c2.5-0.5,4.4-2.6,4.4-5.2
			C115.4,62.3,113.9,59.5,109.7,59.5z"/>
	</g>
	<g class="st1">
		<path class="st3" d="M153.1,13.6h-21c-0.7,0-1.3-0.6-1.3-1.3c0-0.7,0.6-1.3,1.3-1.3h21c0.7,0,1.3,0.6,1.3,1.3
			C154.4,13.1,153.8,13.6,153.1,13.6z"/>
	</g>
	<g class="st1">
		<path class="st3" d="M153.1,5.9h-21c-0.7,0-1.3-0.6-1.3-1.3s0.6-1.3,1.3-1.3h21c0.7,0,1.3,0.6,1.3,1.3S153.8,5.9,153.1,5.9z"/>
	</g>
	<g class="st1">
		<path class="st3" d="M140.6,21.4h-8.5c-0.7,0-1.3-0.6-1.3-1.3c0-0.7,0.6-1.3,1.3-1.3h8.5c0.7,0,1.3,0.6,1.3,1.3
			C141.9,20.8,141.3,21.4,140.6,21.4z"/>
	</g>
	<g class="st1">
		<path class="st2" d="M78.5,96.5c-0.7,0.1-1.2,0.7-1.1,1.4c0.1,0.7,0.6,1.2,1.3,1.2c0.1,0,0.1,0,0.1,0c0.7-0.1,1.2-0.7,1.1-1.4
			C79.8,96.9,79.2,96.4,78.5,96.5z"/>
	</g>
	<g class="st1">
		<path class="st2" d="M59,90.7c-0.6-0.4-1.4-0.4-1.8,0.2c-0.5,0.6-0.4,1.4,0.2,1.8c0.2,0.2,0.5,0.3,0.8,0.3c0.4,0,0.7-0.2,1-0.5
			C59.6,92,59.5,91.2,59,90.7z"/>
	</g>
	<g class="st1">
		<path class="st2" d="M60.7,107c-0.6-0.5-1.4-0.4-1.8,0.2c-0.5,0.6-0.4,1.4,0.2,1.8c0,0,0,0,0,0c0,0,0,0,0,0
			c0.2,0.2,0.5,0.3,0.8,0.3c0.4,0,0.7-0.2,1-0.5C61.3,108.2,61.2,107.4,60.7,107C60.7,107,60.7,107,60.7,107z"/>
	</g>
	<g class="st1">
		<path class="st2" d="M55.5,98.9c-0.7,0.1-1.2,0.7-1.1,1.4c0.1,0.7,0.6,1.1,1.3,1.1c0,0,0.1,0,0.1,0c0.7-0.1,1.2-0.7,1.1-1.4
			C56.9,99.3,56.2,98.8,55.5,98.9z"/>
	</g>
	<g class="st1">
		<path class="st2" d="M65.8,86.2c-0.7,0.1-1.2,0.7-1.1,1.4c0.1,0.7,0.6,1.2,1.3,1.2c0,0,0.1,0,0.1,0c0.7-0.1,1.2-0.7,1.1-1.4
			C67.1,86.7,66.5,86.1,65.8,86.2z"/>
	</g>
	<g class="st1">
		<path class="st2" d="M75.1,105.4c-0.4,0.6-0.4,1.4,0.2,1.8c0.2,0.2,0.5,0.3,0.8,0.3c0.4,0,0.7-0.2,1-0.5c0.4-0.6,0.4-1.4-0.2-1.8
			C76.4,104.8,75.6,104.9,75.1,105.4z"/>
	</g>
	<g class="st1">
		<path class="st2" d="M68.2,109.2c-0.7,0.1-1.2,0.7-1.1,1.4c0.1,0.7,0.6,1.1,1.3,1.1c0.1,0,0.1,0,0.1,0c0.7-0.1,1.2-0.7,1.1-1.4
			C69.6,109.6,68.9,109.1,68.2,109.2z"/>
	</g>
	<g class="st1">
		<path class="st2" d="M75.2,89c-0.6-0.5-1.4-0.4-1.8,0.2c-0.4,0.6-0.4,1.4,0.2,1.8c0.2,0.2,0.5,0.3,0.8,0.3c0.4,0,0.7-0.2,1-0.5
			C75.9,90.3,75.8,89.5,75.2,89z"/>
	</g>
</g>
<path class="st8" d="M123.8,31.8l-31-17.9c-0.3,0.8-0.6,1.6-1,2.4L122.4,34C122.8,33.2,123.3,32.5,123.8,31.8z"/>
<path class="st8" d="M70.2,16.3c-0.4-0.7-0.8-1.5-1-2.4l-31,17.9c0.5,0.7,1,1.4,1.4,2.2L70.2,16.3z"/>
<path class="st8" d="M26.8,51.7V87c0.5-0.1,1.1-0.1,1.6-0.1c0.3,0,0.7,0,1,0V51.8c-0.3,0-0.6,0-1,0C27.9,51.8,27.3,51.8,26.8,51.7z"
	/>
<path class="st8" d="M37.8,107.3l31.6,18.3c0.3-0.8,0.7-1.6,1.2-2.3l-31.3-18.1C38.9,105.9,38.4,106.6,37.8,107.3z"/>
<path class="st8" d="M132.6,51.8v35.1c0.3,0,0.6,0,1,0c0.5,0,1.1,0,1.6,0.1V51.7c-0.5,0.1-1.1,0.1-1.6,0.1
	C133.2,51.8,132.9,51.8,132.6,51.8z"/>
<path class="st8" d="M91.3,123.2c0.5,0.7,0.9,1.5,1.2,2.3l31.6-18.3c-0.6-0.7-1.1-1.4-1.5-2.1L91.3,123.2z"/>
<path class="st4" d="M122.4,42.6L122.4,42.6l-9.6,5.5l-0.5-0.9c-0.4-0.7-1-0.6-1.3,0l-2,3.9c-0.4,0.7,0,1.2,0.7,1.3l4.4,0.2
	c0.8,0,1.1-0.5,0.7-1.1l-0.5-0.9l9.6-5.5l1.5-0.9c1.6,2.8,4.7,4.7,8.2,4.7c5.2,0,9.5-4.2,9.5-9.5c0-5.2-4.2-9.5-9.5-9.5
	c-5.2,0-9.5,4.2-9.5,9.5c0,0.7,0.1,1.4,0.2,2.1L122.4,42.6z M133.9,31.4c1,0,1.9,0.8,1.9,1.9c0,1-0.8,1.9-1.9,1.9
	c-1,0-1.9-0.8-1.9-1.9C132,32.2,132.8,31.4,133.9,31.4z M131.2,36.2c0-0.5,0.4-0.9,0.9-0.9h1.2c0,0,0,0,0,0.1l0.4,0.8
	c0,0.1,0.1,0.1,0.1,0l0.4-0.8c0,0,0-0.1,0-0.1h1.3c0.5,0,0.9,0.4,0.9,0.9v4.4c0,0.5-0.4,0.9-0.9,0.9v0.1v0.1v4.2
	c0,0.5-0.4,0.9-0.9,0.9c-0.5,0-0.9-0.4-0.9-0.9c0,0.5-0.4,0.9-0.9,0.9s-0.9-0.4-0.9-0.9v-4.2v-0.1v-0.1c-0.5,0-0.9-0.4-0.9-0.9V36.2
	z"/>
<path class="st4" d="M133.5,89.8c-3,0-5.6,1.4-7.3,3.5l-1.4-0.8l-9.6-5.5l0.5-0.9c0.4-0.7,0.1-1.2-0.7-1.1l-4.4,0.2
	c-0.8,0-1.1,0.6-0.7,1.3l2,3.9c0.4,0.7,1,0.7,1.3,0l0.5-0.9l9.6,5.5l0,0l1.3,0.8c-0.5,1.1-0.7,2.3-0.7,3.6c0,5.2,4.2,9.5,9.5,9.5
	c5.2,0,9.5-4.2,9.5-9.5C143,94,138.8,89.8,133.5,89.8z M133.5,91.6c1,0,1.9,0.8,1.9,1.9c0,1-0.8,1.9-1.9,1.9c-1,0-1.9-0.8-1.9-1.9
	C131.7,92.4,132.5,91.6,133.5,91.6z M136.2,100.7c0,0.5-0.4,0.9-0.9,0.9v0.1v0.1v4.2c0,0.5-0.4,0.9-0.9,0.9c-0.5,0-0.9-0.4-0.9-0.9
	c0,0.5-0.4,0.9-0.9,0.9c-0.5,0-0.9-0.4-0.9-0.9v-4.2v-0.1v-0.1c-0.5,0-0.9-0.4-0.9-0.9v-4.4c0-0.5,0.4-0.9,0.9-0.9h1.2
	c0,0,0,0,0,0.1l0.4,0.8c0,0.1,0.1,0.1,0.1,0l0.4-0.8c0,0,0-0.1,0-0.1h1.3c0.5,0,0.9,0.4,0.9,0.9V100.7z"/>
<path class="st4" d="M82.4,120.7V119h0v-11.1h1c0.8,0,1-0.5,0.6-1.2l-2.3-3.7c-0.4-0.6-1.1-0.6-1.5,0l-2.3,3.7
	c-0.4,0.6-0.1,1.2,0.6,1.2h1V119v1.7c-4.6,0.7-8.1,4.6-8.1,9.4c0,5.2,4.2,9.5,9.5,9.5s9.5-4.2,9.5-9.5
	C90.4,125.3,86.9,121.4,82.4,120.7z M79.7,122.9h2.6c0.3,0.3,0.5,0.8,0.5,1.3c0,1-0.8,1.9-1.9,1.9c-1,0-1.9-0.8-1.9-1.9
	C79.1,123.7,79.3,123.3,79.7,122.9z M83.6,131.6c0,0.5-0.4,0.9-0.9,0.9v0.1v0.1v4.2c0,0.5-0.4,0.9-0.9,0.9c-0.5,0-0.9-0.4-0.9-0.9
	c0,0.5-0.4,0.9-0.9,0.9c-0.5,0-0.9-0.4-0.9-0.9v-4.2v-0.1v-0.1c-0.5,0-0.9-0.4-0.9-0.9v-4.4c0-0.5,0.4-0.9,0.9-0.9h1.2
	c0,0,0,0,0,0.1l0.4,0.8c0,0.1,0.1,0.1,0.1,0l0.4-0.8c0,0,0-0.1,0-0.1h1.3c0.5,0,0.9,0.4,0.9,0.9V131.6z"/>
<path class="st4" d="M37.3,96.1l2.1-1.2l0,0l9.6-5.5l0.5,0.9c0.4,0.7,1,0.6,1.3,0l2-3.9c0.4-0.7,0-1.2-0.7-1.3l-4.4-0.2
	c-0.8,0-1.1,0.5-0.7,1.1l0.5,0.9L38,92.5l-2,1.2c-1.7-2.3-4.5-3.8-7.6-3.8c-5.2,0-9.5,4.2-9.5,9.5c0,5.2,4.2,9.5,9.5,9.5
	c5.2,0,9.5-4.2,9.5-9.5C37.9,98.1,37.7,97.1,37.3,96.1z M28.1,91.6c1,0,1.9,0.8,1.9,1.9c0,1-0.8,1.9-1.9,1.9c-1,0-1.9-0.8-1.9-1.9
	C26.2,92.4,27.1,91.6,28.1,91.6z M30.7,100.7c0,0.5-0.4,0.9-0.9,0.9v0.1v0.1v4.2c0,0.5-0.4,0.9-0.9,0.9c-0.5,0-0.9-0.4-0.9-0.9
	c0,0.5-0.4,0.9-0.9,0.9c-0.5,0-0.9-0.4-0.9-0.9v-4.2v-0.1v-0.1c-0.5,0-0.9-0.4-0.9-0.9v-4.4c0-0.5,0.4-0.9,0.9-0.9h1.2
	c0,0,0,0,0,0.1l0.4,0.8c0,0.1,0.1,0.1,0.1,0l0.4-0.8c0,0,0-0.1,0-0.1h1.3c0.5,0,0.9,0.4,0.9,0.9V100.7z"/>
<path class="st4" d="M28.4,48.9c3.5,0,6.5-1.9,8.1-4.7l1.5,0.8l9.6,5.5l-0.5,0.9c-0.4,0.7-0.1,1.2,0.7,1.1l4.4-0.2
	c0.8,0,1.1-0.6,0.7-1.3l-2-3.9c-0.4-0.7-1-0.7-1.3,0L49,48.2l-9.6-5.5l0,0l-1.8-1c0.2-0.7,0.3-1.4,0.3-2.2c0-5.2-4.2-9.5-9.5-9.5
	c-5.2,0-9.5,4.2-9.5,9.5C18.9,44.7,23.2,48.9,28.4,48.9z M28.1,31.7c1,0,1.9,0.8,1.9,1.9s-0.8,1.9-1.9,1.9c-1,0-1.9-0.8-1.9-1.9
	S27.1,31.7,28.1,31.7z M25.5,36.6c0-0.5,0.4-0.9,0.9-0.9h1.2c0,0,0,0,0,0.1l0.4,0.8c0,0.1,0.1,0.1,0.1,0l0.4-0.8c0,0,0-0.1,0-0.1
	h1.3c0.5,0,0.9,0.4,0.9,0.9v4.4c0,0.5-0.4,0.9-0.9,0.9v0.1V42v4.2c0,0.5-0.4,0.9-0.9,0.9c-0.5,0-0.9-0.4-0.9-0.9
	c0,0.5-0.4,0.9-0.9,0.9c-0.5,0-0.9-0.4-0.9-0.9V42v-0.1v-0.1c-0.5,0-0.9-0.4-0.9-0.9V36.6z"/>
<path class="st4" d="M79.6,19.5v0.7v11.1h-1c-0.8,0-1,0.5-0.6,1.2l2.3,3.7c0.4,0.6,1.1,0.6,1.5,0l2.3-3.7c0.4-0.6,0.1-1.2-0.6-1.2
	h-1V20.2h0v-0.7c4.6-0.7,8.1-4.6,8.1-9.3c0-5.2-4.2-9.5-9.5-9.5s-9.5,4.2-9.5,9.5C71.5,14.9,75,18.8,79.6,19.5z M81,2.5
	c1,0,1.9,0.8,1.9,1.9c0,1-0.8,1.9-1.9,1.9c-1,0-1.9-0.8-1.9-1.9C79.1,3.3,79.9,2.5,81,2.5z M78.4,7.3c0-0.5,0.4-0.9,0.9-0.9h1.2
	c0,0,0,0,0,0.1l0.4,0.8c0,0.1,0.1,0.1,0.1,0l0.4-0.8c0,0,0-0.1,0-0.1h1.3c0.5,0,0.9,0.4,0.9,0.9v4.4c0,0.5-0.4,0.9-0.9,0.9v0.1v0.1
	V17c0,0.5-0.4,0.9-0.9,0.9c-0.5,0-0.9-0.4-0.9-0.9c0,0.5-0.4,0.9-0.9,0.9c-0.5,0-0.9-0.4-0.9-0.9v-4.2v-0.1v-0.1
	c-0.5,0-0.9-0.4-0.9-0.9V7.3z"/>
<g>
	<path class="st6" d="M81,122.5c1,0,1.9,0.8,1.9,1.9c0,1-0.8,1.9-1.9,1.9c-1,0-1.9-0.8-1.9-1.9C79.1,123.3,79.9,122.5,81,122.5z"/>
</g>
<path class="st5" d="M81,39.1c-16.9,0-30.6,13.7-30.6,30.6c0,16.9,13.7,30.6,30.6,30.6c16.9,0,30.6-13.7,30.6-30.6
	C111.5,52.7,97.8,39.1,81,39.1z M81,48c4.8,0,8.6,3.9,8.6,8.6c0,4.8-3.9,8.6-8.6,8.6c-4.8,0-8.6-3.9-8.6-8.6
	C72.4,51.9,76.2,48,81,48z M89.4,76.6c-1.2,0.4-2.5-0.2-2.9-1.1l-0.6-1.3v6.1c0,0,0,0,0,0h0l-2.1,9.1c-0.1,0.7-0.8,1.2-1.5,1.2
	c-0.5,0-1,0-1.2,0c0,0-0.1,0-0.2,0c-0.1,0-0.1,0-0.2,0c-0.2,0-0.6,0-1.2,0c-0.7,0-1.4-0.6-1.5-1.2L76,80.3h0c0,0,0,0,0,0v-6.1
	l-0.6,1.3c-0.4,1-1.7,1.5-2.9,1.1c-1.2-0.4-1.8-1.4-1.3-2.4l3-6.8c0.3-0.8,1.3-1.3,2.2-1.2c0,0,0.1,0,0.1,0H81h4.4c0,0,0.1,0,0.1,0
	c1,0,1.9,0.4,2.2,1.2l3,6.8C91.1,75.2,90.5,76.2,89.4,76.6z"/>
<g class="st0">
	<g class="st1">
		<polygon class="st5" points="98,26.7 89.4,35.2 93.6,35.2 93.6,65 102.3,65 102.3,35.2 106.5,35.2 		"/>
	</g>
	<g class="st1">
		<polygon class="st5" points="41.7,88.6 33.2,97.1 37.3,97.1 37.3,126.9 46,126.9 46,97.1 50.2,97.1 		"/>
	</g>
	<g class="st1">
		<path class="st7" d="M63.2,85.4C74,64.3,43.9,46.6,29,53.2C30,70,44.6,88,63.2,85.4z"/>
	</g>
	<g class="st1">
		<path class="st7" d="M83.2,78.9c-9.6-21.7,18.4-32.7,35.3-29C115.7,67.3,97.2,88.1,83.2,78.9z"/>
	</g>
	<g class="st1">
		<path class="st2" d="M110.7,54.5c-0.3-0.7-1.1-0.9-1.8-0.6c-10.1,5-26,18.7-34.9,38.7C75.6,72.9,75.5,35,55.2,4.7
			c-0.4-0.6-1.3-0.8-1.9-0.4c-0.6,0.4-0.8,1.3-0.4,1.9c22.6,33.7,19.7,77.1,17.6,92.9c-8-24.5-23.3-35.7-30.2-40.7
			c-0.6-0.4-1.5-0.3-1.9,0.3c-0.4,0.6-0.3,1.5,0.3,1.9c7.1,5.2,23.8,17.4,30.8,45c0,0,0,0.1,0,0.1c0,0.1,0.1,0.2,0.1,0.2
			c0,0.1,0.1,0.2,0.1,0.2c0,0.1,0.1,0.1,0.2,0.2c0.1,0.1,0.1,0.1,0.2,0.2c0.1,0.1,0.2,0.1,0.2,0.1c0,0,0,0,0,0c0,0,0.1,0.1,0.1,0.1
			c0,0,0,0,0.1,0c0,0,0,0,0,0c0,0,0,0,0,0c0.1,0,0.2,0,0.3,0c0,0,0,0,0,0h0c0.1,0,0.2,0,0.3,0c0,0,0,0,0.1,0c0,0,0,0,0,0
			c0,0,0.1,0,0.1-0.1c0.4-0.2,0.8-0.6,0.8-1.1C78.8,79.8,98.4,62,110,56.3C110.7,56,111,55.1,110.7,54.5z"/>
	</g>
	<g class="st1">
		<path class="st5" d="M43.2,22.3c0,11.4,9.2,20.6,20.5,20.6s20.6-9.2,20.6-20.6S75.1,1.8,63.7,1.8S43.2,11,43.2,22.3z"/>
	</g>
	<g class="st1">
		<path class="st5" d="M63.7,44.3c-12.1,0-21.9-9.8-21.9-21.9c0-12.1,9.8-21.9,21.9-21.9c12.1,0,21.9,9.8,21.9,21.9
			C85.6,34.4,75.8,44.3,63.7,44.3z M63.7,3.1c-10.6,0-19.2,8.6-19.2,19.2c0,10.6,8.6,19.2,19.2,19.2c10.6,0,19.2-8.6,19.2-19.2
			C82.9,11.8,74.3,3.1,63.7,3.1z"/>
	</g>
	<g class="st1">
		<path class="st6" d="M63.7,21c-2.7,0-4.2-1.3-4.2-3.7c0-2,1.9-3.7,4.2-3.7c2.3,0,4.2,1.7,4.2,3.7c0,0.7,0.6,1.4,1.4,1.4
			c0.8,0,1.4-0.6,1.4-1.4c0-3.1-2.4-5.7-5.5-6.3V9.5c0-0.8-0.6-1.4-1.4-1.4c-0.7,0-1.4,0.6-1.4,1.4V11c-3.2,0.6-5.5,3.2-5.5,6.3
			c0,3.1,1.8,6.4,6.9,6.4c2.7,0,4.2,1.3,4.2,3.7c0,2-1.9,3.7-4.2,3.7c-2.3,0-4.2-1.6-4.2-3.7c0-0.8-0.6-1.4-1.4-1.4
			c-0.8,0-1.4,0.6-1.4,1.4c0,3.1,2.4,5.7,5.5,6.3v1.5c0,0.8,0.6,1.4,1.4,1.4c0.8,0,1.4-0.6,1.4-1.4v-1.5c3.2-0.6,5.5-3.2,5.5-6.3
			C70.6,24.3,68.8,21,63.7,21z"/>
	</g>
	<g class="st1">
		<rect x="59.4" y="104.8" class="st7" width="23.1" height="27.9"/>
	</g>
	<g class="st1">
		<rect x="25.7" y="116.7" class="st7" width="23.1" height="16"/>
	</g>
	<g class="st1">
		<rect x="93" y="91.1" class="st7" width="23.1" height="41.6"/>
	</g>
	<g class="st1">
		<path class="st2" d="M135.7,86.5c0-0.2,0-0.3,0-0.4c0,0,0-0.1,0-0.1c0-0.1-0.1-0.3-0.2-0.4c0,0,0,0,0,0c0,0,0,0,0,0c0,0,0,0,0,0
			c-0.1-0.1-0.2-0.2-0.3-0.3c0,0-0.1,0-0.1,0c-0.1-0.1-0.3-0.1-0.4-0.2c0,0-0.1,0-0.1,0c-0.1,0-0.1,0-0.2,0l-9.2,0.4
			c-0.7,0-1.3,0.7-1.3,1.4c0,0.8,0.7,1.3,1.4,1.3l4.9-0.2l-40.2,30l-12.4-8.1c-0.5-0.3-1.1-0.3-1.6,0L51.5,128l-12.7-8.1
			c-0.5-0.3-1.1-0.3-1.5,0l-23.8,17.3c-0.6,0.4-0.7,1.3-0.3,1.9c0.3,0.4,0.7,0.6,1.1,0.6c0.3,0,0.6-0.1,0.8-0.3l23-16.8l12.7,8.1
			c0.5,0.3,1.1,0.3,1.5-0.1l24.4-18.2l12.4,8.1c0.5,0.3,1.1,0.3,1.6-0.1l41.2-30.7l-1.5,4.9c-0.2,0.7,0.2,1.5,0.9,1.7
			c0.1,0,0.3,0.1,0.4,0.1c0.6,0,1.1-0.4,1.3-1l2.6-8.9c0,0,0-0.1,0-0.1C135.7,86.6,135.7,86.6,135.7,86.5z"/>
	</g>
	<g class="st1">
		<path class="st3" d="M34.5,38.4H10.7c-0.8,0-1.4-0.6-1.4-1.4c0-0.8,0.6-1.4,1.4-1.4h23.9c0.8,0,1.4,0.6,1.4,1.4
			C35.9,37.8,35.3,38.4,34.5,38.4z"/>
	</g>
	<g class="st1">
		<path class="st3" d="M34.5,29.6H10.7c-0.8,0-1.4-0.6-1.4-1.4c0-0.8,0.6-1.4,1.4-1.4h23.9c0.8,0,1.4,0.6,1.4,1.4
			C35.9,29,35.3,29.6,34.5,29.6z"/>
	</g>
	<g class="st1">
		<path class="st3" d="M24.7,47.2h-14c-0.8,0-1.4-0.6-1.4-1.4c0-0.8,0.6-1.4,1.4-1.4h14c0.8,0,1.4,0.6,1.4,1.4
			C26.1,46.6,25.4,47.2,24.7,47.2z"/>
	</g>
	<g class="st1">
		<path class="st2" d="M155.9,63H132c-0.8,0-1.4-0.6-1.4-1.4c0-0.8,0.6-1.4,1.4-1.4h23.9c0.8,0,1.4,0.6,1.4,1.4
			C157.2,62.4,156.6,63,155.9,63z"/>
	</g>
	<g class="st1">
		<path class="st2" d="M155.9,54.2H132c-0.8,0-1.4-0.6-1.4-1.4c0-0.8,0.6-1.4,1.4-1.4h23.9c0.8,0,1.4,0.6,1.4,1.4
			C157.2,53.6,156.6,54.2,155.9,54.2z"/>
	</g>
	<g class="st1">
		<path class="st2" d="M146,71.8h-14c-0.8,0-1.4-0.6-1.4-1.4c0-0.8,0.6-1.4,1.4-1.4h14c0.7,0,1.4,0.6,1.4,1.4
			C147.4,71.2,146.8,71.8,146,71.8z"/>
	</g>
	<g class="st1">
		<g>
			<path class="st5" d="M28.1,85.3c-0.8,0.1-1.3,0.7-1.3,1.5c0.1,0.7,0.7,1.3,1.4,1.3c0,0,0.1,0,0.1,0c0.7-0.1,1.3-0.7,1.3-1.5
				C29.5,85.8,28.8,85.3,28.1,85.3z"/>
		</g>
		<g>
			<path class="st5" d="M20.3,83.2c-0.6-0.4-1.5-0.3-1.9,0.3c-0.4,0.6-0.3,1.5,0.3,1.9c0,0,0,0,0,0c0.2,0.2,0.5,0.3,0.8,0.3
				c0.4,0,0.8-0.2,1.1-0.6C21.1,84.5,21,83.6,20.3,83.2C20.3,83.2,20.3,83.2,20.3,83.2z"/>
		</g>
		<g>
			<path class="st5" d="M21.2,60.4c-0.7,0.3-1,1.1-0.7,1.8c0.2,0.5,0.7,0.8,1.2,0.8c0.2,0,0.4,0,0.6-0.1c0.7-0.3,1-1.1,0.7-1.8
				C22.7,60.4,21.9,60.1,21.2,60.4z"/>
		</g>
		<g>
			<path class="st5" d="M14.1,75.5c-0.7,0.2-1.2,0.9-1,1.7c0.2,0.6,0.7,1,1.3,1c0.1,0,0.2,0,0.3,0c0.7-0.2,1.2-0.9,1-1.7
				C15.6,75.8,14.9,75.3,14.1,75.5z"/>
		</g>
		<g>
			<path class="st5" d="M16,66.7c-0.7-0.3-1.5,0-1.8,0.6c-0.3,0.7,0,1.5,0.6,1.8c0.2,0.1,0.4,0.1,0.6,0.1c0.5,0,1-0.3,1.2-0.8
				C16.9,67.8,16.6,67,16,66.7z"/>
		</g>
		<g>
			<path class="st5" d="M31.1,59.7c-0.7-0.2-1.5,0.2-1.7,0.9c-0.2,0.7,0.2,1.5,1,1.7c0.1,0,0.2,0.1,0.4,0.1c0.6,0,1.1-0.4,1.3-1
				C32.3,60.6,31.9,59.9,31.1,59.7z"/>
		</g>
		<g>
			<path class="st5" d="M39.2,65.4c-0.4-0.6-1.3-0.8-1.9-0.4c-0.6,0.4-0.8,1.3-0.4,1.9c0.3,0.4,0.7,0.6,1.1,0.6
				c0.3,0,0.5-0.1,0.8-0.2C39.4,66.9,39.6,66.1,39.2,65.4z"/>
		</g>
		<g>
			<path class="st5" d="M40.4,73.5c-0.7-0.1-1.4,0.5-1.5,1.2c-0.1,0.7,0.5,1.4,1.2,1.5c0,0,0.1,0,0.1,0c0.7,0,1.3-0.5,1.3-1.2
				C41.7,74.3,41.2,73.6,40.4,73.5z"/>
		</g>
		<g>
			<path class="st5" d="M35.4,82c-0.5,0.5-0.5,1.4,0,1.9c0.3,0.3,0.6,0.4,1,0.4c0.3,0,0.7-0.1,0.9-0.4c0.5-0.5,0.5-1.4,0-1.9
				C36.8,81.5,36,81.5,35.4,82z"/>
		</g>
	</g>
	<g class="st1">
		<path class="st4" d="M23.2,103.9c0,5.2-4.2,9.4-9.4,9.4c-5.2,0-9.4-4.2-9.4-9.4c0-5.2,4.2-9.4,9.4-9.4
			C19,94.6,23.2,98.8,23.2,103.9z"/>
	</g>
	<g class="st1">
		<path class="st2" d="M14,111.1c-0.4,0-0.8-0.2-1.1-0.5l-5.9-7.7c-0.5-0.6-0.3-1.4,0.3-1.9c0.6-0.5,1.5-0.3,1.9,0.3l4.6,6.1
			l7.3-12.4c0.4-0.6,1.2-0.9,1.9-0.5c0.6,0.4,0.9,1.2,0.5,1.9l-8.3,14.1C15,110.8,14.6,111.1,14,111.1C14.1,111.1,14,111.1,14,111.1
			z"/>
	</g>
</g>
<g class="st0">
	<g class="st1">
		<path class="st3" d="M78.3,136c-6.2,0-11.2-5-11.2-11.2c0-6.2,5-11.2,11.2-11.2c6.2,0,11.2,5,11.2,11.2
			C89.5,131,84.4,136,78.3,136z M78.3,116.2c-4.8,0-8.6,3.9-8.6,8.6s3.9,8.6,8.6,8.6c4.8,0,8.6-3.9,8.6-8.6S83,116.2,78.3,116.2z"/>
	</g>
	<g class="st1">
		<path class="st7" d="M14.1,22.2V116c0,4.9,4,8.9,8.9,8.9h110.6c4.9,0,8.9-4,8.9-8.9V22.2H14.1z"/>
	</g>
	<g class="st1">
		<path class="st4" d="M144.1,10.9H12.7c-2.3,0-4.1,1.9-4.1,4.1v3c0,2.3,1.9,4.1,4.1,4.1h131.4c2.3,0,4.1-1.9,4.1-4.1v-3
			C148.3,12.7,146.4,10.9,144.1,10.9z"/>
	</g>
	<g class="st1">
		<polygon class="st5" points="47,136.4 53.4,130.2 50.3,130.2 50.3,108.3 43.8,108.3 43.8,130.2 40.7,130.2 		"/>
	</g>
	<g class="st1">
		<polygon class="st6" points="84.3,75.2 77.9,81.5 81,81.5 81,94.3 87.5,94.3 87.5,81.5 90.6,81.5 		"/>
	</g>
	<g class="st1">
		<path class="st3" d="M82.5,1.6v29.8h27.1v10.5c0,0.7,0.6,1.3,1.3,1.3c0.7,0,1.3-0.6,1.3-1.3V31.4h5.6V1.6H82.5z"/>
	</g>
	<g class="st1">
		<path class="st2" d="M111.5,17.8H88.7c-0.7,0-1.3-0.6-1.3-1.3c0-0.7,0.6-1.3,1.3-1.3h22.7c0.7,0,1.3,0.6,1.3,1.3
			C112.7,17.2,112.2,17.8,111.5,17.8z"/>
	</g>
	<g class="st1">
		<path class="st2" d="M111.5,9.4H88.7c-0.7,0-1.3-0.6-1.3-1.3c0-0.7,0.6-1.3,1.3-1.3h22.7c0.7,0,1.3,0.6,1.3,1.3
			C112.7,8.8,112.2,9.4,111.5,9.4z"/>
	</g>
	<g class="st1">
		<path class="st2" d="M106,26.2H88.7c-0.7,0-1.3-0.6-1.3-1.3c0-0.7,0.6-1.3,1.3-1.3H106c0.7,0,1.3,0.6,1.3,1.3
			C107.3,25.6,106.7,26.2,106,26.2z"/>
	</g>
	<g class="st1">
		<path class="st3" d="M146.7,70.7C146.7,70.6,146.7,70.6,146.7,70.7c0.1-0.2,0.1-0.4,0.1-0.5c0-0.2,0-0.3-0.1-0.4c0,0,0-0.1,0-0.1
			c-0.1-0.1-0.1-0.3-0.2-0.4c0,0,0,0-0.1,0c-0.1-0.1-0.1-0.1-0.2-0.1l-6.9-4.4c-0.6-0.4-1.4-0.2-1.8,0.4c-0.4,0.6-0.2,1.4,0.4,1.8
			l3.1,2h-33.5c-0.3,0-0.7,0.1-0.9,0.4L83.9,91.9H45.9c-0.3,0-0.7,0.1-0.9,0.4l-21.4,21.4c-0.5,0.5-0.5,1.3,0,1.8
			c0.3,0.3,0.6,0.4,0.9,0.4c0.3,0,0.7-0.1,0.9-0.4l21-21h37.9c0.3,0,0.7-0.1,0.9-0.4l22.7-22.7h33l-3.1,2c-0.6,0.4-0.8,1.2-0.4,1.8
			c0.3,0.4,0.7,0.6,1.1,0.6c0.2,0,0.5-0.1,0.7-0.2l6.9-4.4c0.1,0,0.1-0.1,0.2-0.1c0,0,0,0,0.1,0C146.6,70.9,146.6,70.8,146.7,70.7z"
			/>
	</g>
	<g class="st1">
		<path class="st5" d="M123.3,85.8C123.3,85.8,123.3,85.8,123.3,85.8c-0.1-0.2-0.2-0.4-0.3-0.5c0,0,0,0,0,0
			c-0.1-0.1-0.1-0.1-0.2-0.1l-6.9-4.4c-0.6-0.4-1.4-0.2-1.8,0.4c-0.4,0.6-0.2,1.4,0.4,1.8l3.1,2h-10.7L92.6,70.7
			c-0.2-0.2-0.6-0.4-0.9-0.4H61.3L25.6,34.6v-3.6h-5v26.8h5V38.3l34.3,34.2c0.2,0.2,0.6,0.4,0.9,0.4h30.4l14.3,14.3
			c0.2,0.2,0.6,0.4,0.9,0.4h11.2l-3.1,2c-0.6,0.4-0.8,1.2-0.4,1.8c0.2,0.4,0.7,0.6,1.1,0.6c0.2,0,0.5-0.1,0.7-0.2l6.9-4.4
			c0.1,0,0.1-0.1,0.2-0.1c0,0,0,0,0,0c0.1-0.1,0.2-0.2,0.2-0.4c0,0,0-0.1,0-0.1c0.1-0.1,0.1-0.3,0.1-0.4
			C123.4,86.1,123.3,86,123.3,85.8z"/>
	</g>
	<g class="st1">
		<circle class="st9" cx="60.8" cy="71.4" r="4.4"/>
	</g>
	<g class="st1">
		<path class="st2" d="M158.6,30l-6.9-4.4c-0.6-0.4-1.4-0.2-1.8,0.4c-0.4,0.6-0.2,1.4,0.4,1.8l3.1,2h-27.4c-0.3,0-0.7,0.1-0.9,0.4
			L110.3,45H62.9c-0.3,0-0.7,0.1-0.9,0.4L25.6,81.8V57.8h-5v28h3.5h1h0.5v-0.4l37.8-37.8h47.5c0.3,0,0.7-0.1,0.9-0.4l14.9-14.9h26.8
			l-3.1,2c-0.6,0.4-0.8,1.2-0.4,1.8c0.2,0.4,0.7,0.6,1.1,0.6c0.2,0,0.5-0.1,0.7-0.2l6.9-4.4c0.4-0.2,0.6-0.7,0.6-1.1
			C159.2,30.6,159,30.2,158.6,30z"/>
	</g>
	<g class="st1">
		<path class="st2" d="M60.8,77.1c-3.1,0-5.7-2.6-5.7-5.7s2.6-5.7,5.7-5.7s5.7,2.6,5.7,5.7S63.9,77.1,60.8,77.1z M60.8,68.3
			c-1.7,0-3.1,1.4-3.1,3.1s1.4,3.1,3.1,3.1c1.7,0,3.1-1.4,3.1-3.1S62.5,68.3,60.8,68.3z"/>
	</g>
	<g class="st1">
		<path class="st2" d="M115.2,46.3c0,2.4-2,4.4-4.4,4.4c-2.4,0-4.4-2-4.4-4.4c0-2.4,2-4.4,4.4-4.4C113.3,41.9,115.2,43.9,115.2,46.3
			z"/>
	</g>
	<g class="st1">
		<path class="st6" d="M110.8,52c-3.1,0-5.7-2.6-5.7-5.7c0-3.1,2.6-5.7,5.7-5.7c3.1,0,5.7,2.6,5.7,5.7C116.5,49.4,114,52,110.8,52z
			 M110.8,43.2c-1.7,0-3.1,1.4-3.1,3.1c0,1.7,1.4,3.1,3.1,3.1c1.7,0,3.1-1.4,3.1-3.1C114,44.6,112.6,43.2,110.8,43.2z"/>
	</g>
	<g class="st1">
		<path class="st6" d="M51.3,109.6c0,2.4-2,4.4-4.4,4.4c-2.4,0-4.4-2-4.4-4.4c0-2.4,2-4.4,4.4-4.4C49.4,105.2,51.3,107.2,51.3,109.6
			z"/>
	</g>
	<g class="st1">
		<path class="st6" d="M137.8,99.1C137.8,99,137.8,99,137.8,99.1c0-0.2,0-0.3-0.1-0.4c0-0.1,0-0.1-0.1-0.2c0,0,0,0,0,0
			c-0.1-0.3-0.4-0.5-0.6-0.6l-6.7-4.2c-0.6-0.4-1.4-0.2-1.8,0.4c-0.4,0.6-0.2,1.4,0.4,1.8l3.1,2H98.6c-0.3,0-0.7,0.1-0.9,0.4
			l-10.2,10.2H47.6l-22-22v-0.5h-5v16.1h5V89.9l20.6,20.6c0.2,0.2,0.6,0.4,0.9,0.4H88c0.3,0,0.7-0.1,0.9-0.4l10.2-10.2h33l-3.2,2
			c-0.6,0.4-0.8,1.2-0.4,1.8c0.2,0.4,0.7,0.6,1.1,0.6c0.2,0,0.5-0.1,0.7-0.2l6.9-4.4C137.5,99.9,137.8,99.5,137.8,99.1
			C137.8,99.1,137.8,99.1,137.8,99.1L137.8,99.1z"/>
	</g>
	<g class="st1">
		<path class="st2" d="M46.9,115.3c-3.1,0-5.7-2.6-5.7-5.7c0-3.1,2.6-5.7,5.7-5.7c3.1,0,5.7,2.6,5.7,5.7
			C52.6,112.7,50.1,115.3,46.9,115.3z M46.9,106.5c-1.7,0-3.1,1.4-3.1,3.1s1.4,3.1,3.1,3.1c1.7,0,3.1-1.4,3.1-3.1
			S48.6,106.5,46.9,106.5z"/>
	</g>
	<g class="st1">
		<path class="st3" d="M88.7,93.2c0,2.4-2,4.4-4.4,4.4c-2.4,0-4.4-2-4.4-4.4c0-2.4,2-4.4,4.4-4.4C86.7,88.8,88.7,90.8,88.7,93.2z"/>
	</g>
	<g class="st1">
		<path class="st2" d="M84.3,98.9c-3.1,0-5.7-2.6-5.7-5.7c0-3.1,2.6-5.7,5.7-5.7c3.1,0,5.7,2.6,5.7,5.7C90,96.3,87.4,98.9,84.3,98.9
			z M84.3,90.1c-1.7,0-3.1,1.4-3.1,3.1s1.4,3.1,3.1,3.1c1.7,0,3.1-1.4,3.1-3.1S86,90.1,84.3,90.1z"/>
	</g>
	<g class="st1">
		<rect x="20.6" y="101.8" class="st3" width="5" height="16.2"/>
	</g>
	<g class="st1">
		<path class="st2" d="M146.3,130.2H125c-0.7,0-1.3-0.6-1.3-1.3c0-0.7,0.6-1.3,1.3-1.3h21.3c0.7,0,1.3,0.6,1.3,1.3
			C147.6,129.6,147,130.2,146.3,130.2z"/>
	</g>
	<g class="st1">
		<path class="st2" d="M146.3,121.8H125c-0.7,0-1.3-0.6-1.3-1.3c0-0.7,0.6-1.3,1.3-1.3h21.3c0.7,0,1.3,0.6,1.3,1.3
			C147.6,121.3,147,121.8,146.3,121.8z"/>
	</g>
	<g class="st1">
		<path class="st2" d="M139.6,138.6H125c-0.7,0-1.3-0.6-1.3-1.3c0-0.7,0.6-1.3,1.3-1.3h14.6c0.7,0,1.3,0.6,1.3,1.3
			C140.9,138,140.3,138.6,139.6,138.6z"/>
	</g>
	<g class="st1">
		<path class="st2" d="M49.2,31.5c-0.1-0.7,0.5-1.3,1.2-1.4l0,0c0.7-0.1,1.3,0.5,1.4,1.2l0,0c0.1,0.7-0.5,1.3-1.2,1.4l0,0
			c0,0-0.1,0-0.1,0l0,0C49.8,32.7,49.3,32.2,49.2,31.5z M39.7,29.1L39.7,29.1C39.6,29,39.6,29,39.7,29.1L39.7,29.1
			c-0.6-0.5-0.6-1.3-0.1-1.9l0,0c0.5-0.5,1.3-0.6,1.8-0.1l0,0c0,0,0,0,0,0l0,0l0,0l0,0c0,0,0,0,0,0l0,0h0l0,0
			c0.5,0.5,0.6,1.3,0.1,1.8l0,0c-0.3,0.3-0.6,0.4-1,0.4l0,0C40.2,29.4,39.9,29.3,39.7,29.1z M59.1,27.7c-0.5-0.5-0.6-1.3-0.1-1.8
			l0,0c0.5-0.5,1.3-0.6,1.8-0.1l0,0c0.5,0.5,0.6,1.3,0.1,1.8l0,0c-0.2,0.3-0.6,0.4-1,0.4l0,0C59.7,28.1,59.4,28,59.1,27.7z
			 M34.5,18.7c0-0.7,0.5-1.3,1.2-1.4l0,0c0.7,0,1.3,0.5,1.4,1.2l0,0c0,0.7-0.5,1.3-1.2,1.4l0,0c0,0-0.1,0-0.1,0l0,0
			C35.1,19.9,34.6,19.4,34.5,18.7z M62.1,16.9c0-0.7,0.5-1.3,1.2-1.4l0,0c0.7-0.1,1.3,0.5,1.4,1.2l0,0c0.1,0.7-0.5,1.3-1.2,1.4l0,0
			c0,0-0.1,0-0.1,0l0,0C62.7,18.1,62.1,17.5,62.1,16.9z M38.4,9.6c-0.5-0.5-0.6-1.3-0.1-1.8l0,0c0.5-0.5,1.3-0.6,1.8-0.1l0,0
			c0.5,0.5,0.6,1.3,0.1,1.8l0,0l0,0l0,0c-0.3,0.3-0.6,0.4-1,0.4l0,0C38.9,9.9,38.6,9.8,38.4,9.6z M57.8,8.3L57.8,8.3L57.8,8.3
			c-0.5-0.5-0.6-1.3-0.1-1.8l0,0c0.5-0.5,1.3-0.6,1.8-0.1l0,0c0.5,0.5,0.6,1.3,0.1,1.8l0,0c-0.3,0.3-0.6,0.4-1,0.4l0,0
			C58.4,8.6,58.1,8.5,57.8,8.3z M47.4,4c-0.1-0.7,0.5-1.3,1.2-1.4l0,0c0.7,0,1.3,0.5,1.4,1.2l0,0c0,0.7-0.5,1.3-1.2,1.4l0,0l0,0l0,0
			c0,0-0.1,0-0.1,0l0,0C48,5.2,47.4,4.7,47.4,4z"/>
	</g>
	<g class="st1">
		<path class="st5" d="M8.6,65c0,2-1.6,3.7-3.7,3.7c-2,0-3.7-1.6-3.7-3.7c0-2,1.6-3.7,3.7-3.7C7,61.3,8.6,63,8.6,65z"/>
	</g>
	<g class="st1">
		<path class="st2" d="M8.6,76.6c0,2-1.6,3.7-3.7,3.7c-2,0-3.7-1.6-3.7-3.7c0-2,1.6-3.7,3.7-3.7C7,73,8.6,74.6,8.6,76.6z"/>
	</g>
	<g class="st1">
		<path class="st4" d="M8.6,88.3c0,2-1.6,3.7-3.7,3.7c-2,0-3.7-1.6-3.7-3.7c0-2,1.6-3.7,3.7-3.7C7,84.6,8.6,86.3,8.6,88.3z"/>
	</g>
	<g class="st1">
		<path class="st3" d="M8.6,99.9c0,2-1.6,3.7-3.7,3.7c-2,0-3.7-1.6-3.7-3.7c0-2,1.6-3.7,3.7-3.7C7,96.3,8.6,97.9,8.6,99.9z"/>
	</g>
</g>
<g class="st0">
	<g class="st1">
		<polygon class="st3" points="103.8,13.1 40.6,13.1 40.6,123.3 125.1,123.3 125.1,34.4 		"/>
	</g>
	<g class="st1">
		<polygon class="st5" points="112.2,4.6 49.1,4.6 49.1,114.8 133.5,114.8 133.5,25.9 112.2,25.9 		"/>
	</g>
	<g class="st1">
		<polygon class="st5" points="112.2,25.9 133.5,25.9 112.2,4.6 		"/>
	</g>
	<g class="st1">
		<path class="st4" d="M73.2,61.1H29.5c-4.6,0-8.3,3.7-8.3,8.3v61.8c0,4.6,3.7,8.3,8.3,8.3h43.7c4.6,0,8.3-3.7,8.3-8.3V69.4
			C81.5,64.8,77.8,61.1,73.2,61.1z"/>
	</g>
	<g class="st1">
		<path class="st6" d="M73.6,67.1H29.2c-1.1,0-1.9,0.9-1.9,1.9v8.2c0,1.1,0.9,1.9,1.9,1.9h44.4c1.1,0,1.9-0.9,1.9-1.9V69
			C75.5,68,74.6,67.1,73.6,67.1z"/>
	</g>
	<g class="st1">
		<path class="st3" d="M46.4,85.2H29.2c-1.1,0-1.9,0.9-1.9,1.9v17.2c0,1.1,0.9,1.9,1.9,1.9h17.2c1.1,0,1.9-0.9,1.9-1.9V87.1
			C48.4,86.1,47.5,85.2,46.4,85.2z"/>
	</g>
	<g class="st1">
		<path class="st3" d="M46.4,112.3H29.2c-1.1,0-1.9,0.9-1.9,1.9v17.2c0,1.1,0.9,1.9,1.9,1.9h17.2c1.1,0,1.9-0.9,1.9-1.9v-17.2
			C48.4,113.2,47.5,112.3,46.4,112.3z"/>
	</g>
	<g class="st1">
		<path class="st3" d="M73.6,85.2H56.3c-1.1,0-1.9,0.9-1.9,1.9v17.2c0,1.1,0.9,1.9,1.9,1.9h17.2c1.1,0,1.9-0.9,1.9-1.9V87.1
			C75.5,86.1,74.6,85.2,73.6,85.2z"/>
	</g>
	<g class="st1">
		<path class="st3" d="M73.6,112.3H56.3c-1.1,0-1.9,0.9-1.9,1.9v17.2c0,1.1,0.9,1.9,1.9,1.9h17.2c1.1,0,1.9-0.9,1.9-1.9v-17.2
			C75.5,113.2,74.6,112.3,73.6,112.3z"/>
	</g>
	<g class="st1">
		<path class="st2" d="M71,121H58.9c-0.7,0-1.3-0.6-1.3-1.3c0-0.7,0.6-1.3,1.3-1.3H71c0.7,0,1.3,0.6,1.3,1.3
			C72.3,120.4,71.7,121,71,121z"/>
	</g>
	<g class="st1">
		<path class="st2" d="M71,128.1H58.9c-0.7,0-1.3-0.6-1.3-1.3c0-0.7,0.6-1.3,1.3-1.3H71c0.7,0,1.3,0.6,1.3,1.3
			C72.3,127.5,71.7,128.1,71,128.1z"/>
	</g>
	<g class="st1">
		<path class="st2" d="M44,94.4h-4.7v-4.7c0-0.7-0.6-1.3-1.3-1.3c-0.7,0-1.3,0.6-1.3,1.3v4.7h-4.7c-0.7,0-1.3,0.6-1.3,1.3
			c0,0.7,0.6,1.3,1.3,1.3h4.7v4.7c0,0.7,0.6,1.3,1.3,1.3c0.7,0,1.3-0.6,1.3-1.3v-4.7H44c0.7,0,1.3-0.6,1.3-1.3
			C45.3,95,44.7,94.4,44,94.4z"/>
	</g>
	<g class="st1">
		<path class="st2" d="M39.8,123.3l3.7-3.7c0.5-0.5,0.5-1.3,0-1.9c-0.5-0.5-1.3-0.5-1.9,0l-3.7,3.7l-3.7-3.7c-0.5-0.5-1.3-0.5-1.9,0
			c-0.5,0.5-0.5,1.3,0,1.9l3.7,3.7l-3.7,3.7c-0.5,0.5-0.5,1.3,0,1.9c0.3,0.3,0.6,0.4,0.9,0.4c0.3,0,0.7-0.1,0.9-0.4l3.7-3.7l3.7,3.7
			c0.3,0.3,0.6,0.4,0.9,0.4c0.3,0,0.7-0.1,0.9-0.4c0.5-0.5,0.5-1.3,0-1.9L39.8,123.3z"/>
	</g>
	<g class="st1">
		<path class="st2" d="M71,97.1H58.9c-0.7,0-1.3-0.6-1.3-1.3c0-0.7,0.6-1.3,1.3-1.3H71c0.7,0,1.3,0.6,1.3,1.3
			C72.3,96.5,71.7,97.1,71,97.1z"/>
	</g>
	<g class="st1">
		<path class="st2" d="M69.5,74.5c-0.3,0-0.7-0.1-0.9-0.4c-0.2-0.2-0.4-0.6-0.4-0.9c0-0.4,0.1-0.7,0.4-0.9c0.5-0.5,1.4-0.5,1.9,0
			c0.2,0.2,0.4,0.6,0.4,0.9c0,0.3-0.1,0.7-0.4,0.9C70.2,74.3,69.8,74.5,69.5,74.5z"/>
	</g>
	<g class="st1">
		<path class="st2" d="M61.7,73.1c0-0.7,0.6-1.3,1.3-1.3l0,0c0.7,0,1.3,0.6,1.3,1.3l0,0c0,0.7-0.6,1.3-1.3,1.3l0,0
			C62.3,74.4,61.7,73.9,61.7,73.1z"/>
	</g>
	<g class="st1">
		<path class="st2" d="M56.6,74.5c-0.4,0-0.7-0.1-0.9-0.4c-0.2-0.2-0.4-0.6-0.4-0.9c0-0.4,0.1-0.7,0.4-0.9c0.5-0.5,1.4-0.5,1.8,0
			c0.3,0.2,0.4,0.6,0.4,0.9c0,0.3-0.1,0.7-0.4,0.9C57.3,74.3,57,74.5,56.6,74.5z"/>
	</g>
	<g class="st1">
		<polygon class="st6" points="114.4,78.6 107.2,76 98,83 90,80.2 81.5,86.8 81.5,94.7 91.3,96.9 98,90.9 108.5,91.8 117,83.9 
			125.1,86 125.1,69.2 		"/>
	</g>
	<g class="st1">
		<polygon class="st3" points="108.5,91.8 98,90.9 91.3,96.9 81.5,94.7 81.5,106.3 125.1,106.3 125.1,86 117,83.9 		"/>
	</g>
	<g class="st1">
		<path class="st4" d="M63.6,20.6H23.2c-0.7,0-1.3-0.6-1.3-1.3c0-0.7,0.6-1.3,1.3-1.3h40.4c0.7,0,1.3,0.6,1.3,1.3
			C65,20,64.4,20.6,63.6,20.6z"/>
	</g>
	<g class="st1">
		<path class="st4" d="M57.1,29.1H23.2c-0.7,0-1.3-0.6-1.3-1.3c0-0.7,0.6-1.3,1.3-1.3h33.8c0.7,0,1.3,0.6,1.3,1.3
			C58.4,28.5,57.8,29.1,57.1,29.1z"/>
	</g>
	<g class="st1">
		<path class="st4" d="M44,37.6H23.2c-0.7,0-1.3-0.6-1.3-1.3c0-0.7,0.6-1.3,1.3-1.3H44c0.7,0,1.3,0.6,1.3,1.3
			C45.3,37,44.7,37.6,44,37.6z"/>
	</g>
	<g class="st1">
		<path class="st4" d="M50.5,46.1H23.2c-0.7,0-1.3-0.6-1.3-1.3s0.6-1.3,1.3-1.3h27.3c0.7,0,1.3,0.6,1.3,1.3S51.2,46.1,50.5,46.1z"/>
	</g>
	<g class="st1">
		<path class="st4" d="M36.1,54.6H23.2c-0.7,0-1.3-0.6-1.3-1.3s0.6-1.3,1.3-1.3h12.9c0.7,0,1.3,0.6,1.3,1.3S36.8,54.6,36.1,54.6z"/>
	</g>
	<g class="st1">
		<path class="st2" d="M90,86.7c-0.7,0-1.3-0.6-1.3-1.3V69.7c0-0.7,0.6-1.3,1.3-1.3h26c0.7,0,1.3,0.6,1.3,1.3c0,0.7-0.6,1.3-1.3,1.3
			H91.3v14.4C91.3,86.1,90.7,86.7,90,86.7z"/>
	</g>
	<g class="st1">
		<path class="st6" d="M104.1,63.2H90c-0.7,0-1.3-0.6-1.3-1.3c0-0.7,0.6-1.3,1.3-1.3h14.2c0.7,0,1.3,0.6,1.3,1.3
			C105.4,62.6,104.9,63.2,104.1,63.2z"/>
	</g>
	<g class="st1">
		<path class="st6" d="M115.9,55.3H90c-0.7,0-1.3-0.6-1.3-1.3c0-0.7,0.6-1.3,1.3-1.3h26c0.7,0,1.3,0.6,1.3,1.3
			C117.3,54.7,116.7,55.3,115.9,55.3z"/>
	</g>
	<g class="st1">
		<path class="st6" d="M110.7,47.4H90c-0.7,0-1.3-0.6-1.3-1.3c0-0.7,0.6-1.3,1.3-1.3h20.7c0.7,0,1.3,0.6,1.3,1.3
			C112,46.8,111.4,47.4,110.7,47.4z"/>
	</g>
	<g class="st1">
		<path class="st2" d="M114.7,139.6c-0.3,0-0.7-0.1-0.9-0.4c-0.5-0.5-0.5-1.3,0-1.9l18.6-18.6c0.5-0.5,1.3-0.5,1.9,0
			c0.5,0.5,0.5,1.3,0,1.9l-18.6,18.6C115.4,139.5,115.1,139.6,114.7,139.6z"/>
	</g>
	<g class="st1">
		<path class="st6" d="M132.3,137.3c-1.4,1.4-3.6,1.4-4.9,0c-1.4-1.4-1.4-3.6,0-4.9c1.4-1.4,3.6-1.4,4.9,0
			C133.6,133.7,133.6,135.9,132.3,137.3z"/>
	</g>
	<g class="st1">
		<path class="st2" d="M129.8,139.6c-1.2,0-2.5-0.5-3.4-1.4c-1.9-1.9-1.9-4.9,0-6.8c1.9-1.9,4.9-1.9,6.8,0c1.9,1.9,1.9,4.9,0,6.8
			C132.3,139.1,131,139.6,129.8,139.6z M129.8,132.6c-0.6,0-1.1,0.2-1.5,0.6c-0.8,0.8-0.8,2.2,0,3.1c0.9,0.8,2.2,0.8,3.1,0
			c0.8-0.8,0.8-2.2,0-3.1C130.9,132.9,130.4,132.6,129.8,132.6z"/>
	</g>
	<g class="st1">
		<path class="st6" d="M120.7,125.7c-1.4,1.4-3.6,1.4-4.9,0c-1.4-1.4-1.4-3.6,0-4.9c1.4-1.4,3.6-1.4,4.9,0
			C122.1,122.1,122.1,124.3,120.7,125.7z"/>
	</g>
	<g class="st1">
		<path class="st2" d="M118.2,128c-1.2,0-2.5-0.5-3.4-1.4c-1.9-1.9-1.9-4.9,0-6.8c1.9-1.9,4.9-1.9,6.8,0c1.9,1.9,1.9,4.9,0,6.8
			C120.7,127.6,119.5,128,118.2,128z M118.2,121.1c-0.6,0-1.1,0.2-1.5,0.6c-0.8,0.8-0.8,2.2,0,3.1c0.8,0.8,2.2,0.8,3.1,0
			c0.8-0.8,0.8-2.2,0-3.1C119.3,121.3,118.8,121.1,118.2,121.1z"/>
	</g>
	<g class="st1">
		<rect x="75.1" y="0.6" class="st7" width="26.4" height="30.5"/>
	</g>
	<g class="st1">
		<path class="st2" d="M88.3,14.4c-2,0-3-0.9-3-2.6c0-1.4,1.3-2.6,3-2.6c1.6,0,3,1.2,3,2.6c0,0.7,0.6,1.3,1.3,1.3
			c0.7,0,1.3-0.6,1.3-1.3c0-2.5-1.8-4.5-4.3-5.1v-1c0-0.7-0.6-1.3-1.3-1.3C87.6,4.4,87,5,87,5.7v1c-2.5,0.6-4.3,2.6-4.3,5.1
			c0,2.5,1.5,5.2,5.6,5.2c2,0,3,0.9,3,2.6c0,1.4-1.3,2.6-3,2.6c-1.6,0-3-1.2-3-2.6c0-0.7-0.6-1.3-1.3-1.3c-0.7,0-1.3,0.6-1.3,1.3
			c0,2.5,1.8,4.5,4.3,5.1v1c0,0.7,0.6,1.3,1.3,1.3c0.7,0,1.3-0.6,1.3-1.3v-1c2.5-0.6,4.3-2.6,4.3-5.1C93.9,17.1,92.4,14.4,88.3,14.4
			z"/>
	</g>
</g>
<g class="st0">
	<g class="st1">
		<polygon class="st3" points="101.5,0.6 93.6,8.5 97.5,8.5 97.5,36.2 105.6,36.2 105.6,8.5 109.4,8.5 		"/>
	</g>
	<g class="st1">
		<path class="st7" d="M137.8,129.9H21.7c-1.5,0-2.8,1.3-2.8,2.8v4c0,1.5,1.3,2.8,2.8,2.8h116.2c1.5,0,2.8-1.3,2.8-2.8v-4
			C140.6,131.2,139.4,129.9,137.8,129.9z"/>
	</g>
	<g class="st1">
		<path class="st7" d="M18.9,50L79.8,7.2L140.6,50H18.9z"/>
	</g>
	<g class="st1">
		<path class="st5" d="M78.6,25.2c0.3-0.9,0.6-1.8,0.8-2.8c0.2-1,0.3-1.9,0.3-2.9L74,17.5c-0.1-0.6-0.2-1.1-0.3-1.6l4.4-4.1
			C77.3,10,76.2,8.4,74.9,7l-5.5,2.6c-0.4-0.3-0.9-0.7-1.4-0.9l0.2-6.1c-0.9-0.3-1.8-0.6-2.8-0.8c-1-0.2-1.9-0.3-2.9-0.3l-2.1,5.7
			c-0.6,0.1-1.1,0.2-1.6,0.3l-4.2-4.4c-1.7,0.8-3.3,1.9-4.7,3.2l2.6,5.5c-0.3,0.4-0.7,0.9-0.9,1.4L45.5,13c-0.3,0.9-0.6,1.8-0.8,2.8
			c-0.2,1-0.3,1.9-0.3,2.9l5.7,2.1c0.1,0.6,0.2,1.1,0.3,1.6L46,26.5c0.8,1.7,1.9,3.4,3.2,4.7l5.5-2.6c0.4,0.3,0.9,0.7,1.4,0.9
			l-0.2,6.1c0.9,0.3,1.8,0.6,2.8,0.8c1,0.2,1.9,0.3,2.9,0.3l2.1-5.7c0.6-0.1,1.1-0.2,1.6-0.3l4.2,4.4c1.7-0.8,3.3-1.9,4.7-3.2
			l-2.6-5.5c0.3-0.4,0.6-0.9,0.9-1.4L78.6,25.2z"/>
	</g>
	<g class="st1">
		<path class="st6" d="M68.7,20.4c-0.7,3.7-4.3,6.1-7.9,5.4c-3.7-0.7-6.1-4.3-5.4-7.9c0.7-3.7,4.3-6.1,7.9-5.4
			C67,13.1,69.4,16.7,68.7,20.4z"/>
	</g>
	<g class="st1">
		<path class="st5" d="M98.2,36.1c0-0.6,0-1.3-0.1-1.9c-0.1-0.6-0.2-1.3-0.4-1.9l-4-0.1c-0.2-0.3-0.4-0.6-0.6-1l1.9-3.5
			c-0.9-0.9-1.9-1.7-3-2.3l-2.9,2.8c-0.3-0.1-0.7-0.2-1.1-0.3l-1.2-3.9c-0.6,0-1.3,0-1.9,0.1c-0.6,0.1-1.3,0.2-1.9,0.4l-0.1,4
			c-0.3,0.2-0.7,0.4-1,0.6l-3.5-1.9c-0.9,0.9-1.7,1.9-2.3,3l2.8,2.9c-0.1,0.3-0.2,0.7-0.3,1.1l-3.9,1.2c0,0.6,0,1.3,0.1,1.9
			c0.1,0.6,0.2,1.3,0.4,1.9l4,0.1c0.2,0.3,0.3,0.7,0.6,1L78,43.8c0.9,0.9,1.9,1.7,3,2.3l2.9-2.8c0.3,0.1,0.7,0.2,1.1,0.3l1.2,3.9
			c0.6,0,1.3,0,1.9-0.1c0.6-0.1,1.3-0.2,1.9-0.4l0.1-4c0.3-0.2,0.7-0.3,1-0.6l3.5,1.9c0.9-0.9,1.7-1.9,2.3-3l-2.8-2.9
			c0.1-0.3,0.2-0.7,0.3-1.1L98.2,36.1z"/>
	</g>
	<g class="st1">
		<path class="st6" d="M90.7,35.2c0.3,2.3-1.3,4.4-3.6,4.8c-2.3,0.3-4.4-1.3-4.8-3.6C82,34,83.6,31.9,86,31.6
			C88.3,31.3,90.4,32.9,90.7,35.2z"/>
	</g>
	<g class="st1">
		<rect x="33.2" y="66.1" class="st5" width="93.1" height="47.7"/>
	</g>
	<g class="st1">
		<path class="st5" d="M38.9,100.2V79.8c4.4,0,7.9-3.6,7.9-7.9h65.9c0,4.4,3.6,7.9,7.9,7.9v20.4c-4.4,0-7.9,3.6-7.9,7.9H46.8
			C46.8,103.7,43.3,100.2,38.9,100.2z"/>
	</g>
	<g class="st1">
		<path class="st5" d="M112.7,109.4H46.8c-0.7,0-1.3-0.6-1.3-1.3c0-3.7-3-6.7-6.7-6.7c-0.7,0-1.3-0.6-1.3-1.3V79.8
			c0-0.7,0.6-1.3,1.3-1.3c3.7,0,6.7-3,6.7-6.7c0-0.7,0.6-1.3,1.3-1.3h65.9c0.7,0,1.3,0.6,1.3,1.3c0,3.7,3,6.7,6.7,6.7
			c0.7,0,1.3,0.6,1.3,1.3v20.4c0,0.7-0.6,1.3-1.3,1.3c-3.7,0-6.7,3-6.7,6.7C114,108.8,113.4,109.4,112.7,109.4z M48,106.9h63.5
			c0.6-4.1,3.8-7.3,7.9-7.9V80.9c-4.1-0.6-7.3-3.8-7.9-7.9H48c-0.6,4.1-3.8,7.3-7.9,7.9V99C44.2,99.6,47.5,102.8,48,106.9z"/>
	</g>
	<g class="st1">
		<path class="st6" d="M97.1,90c0,5.4,3,9.8,6.7,9.8c3.7,0,6.7-4.4,6.7-9.8c0-5.4-3-9.8-6.7-9.8C100.1,80.1,97.1,84.5,97.1,90z"/>
	</g>
	<g class="st1">
		<path class="st6" d="M49.1,90c0,5.4,3,9.8,6.7,9.8c3.7,0,6.7-4.4,6.7-9.8c0-5.4-3-9.8-6.7-9.8C52,80.1,49.1,84.5,49.1,90z"/>
	</g>
	<g class="st1">
		<path class="st2" d="M79.8,88.7c-3.5,0-4.2-2-4.2-3.7c0-2,1.9-3.7,4.2-3.7c2.3,0,4.2,1.7,4.2,3.7c0,0.7,0.6,1.3,1.3,1.3
			c0.7,0,1.3-0.6,1.3-1.3c0-3-2.4-5.5-5.5-6.1v-1.6c0-0.7-0.6-1.3-1.3-1.3c-0.7,0-1.3,0.6-1.3,1.3v1.6c-3.1,0.5-5.4,3.1-5.4,6.1
			c0,3,1.8,6.2,6.7,6.2c3.5,0,4.2,2,4.2,3.7c0,2-1.9,3.7-4.2,3.7c-2.3,0-4.2-1.7-4.2-3.7c0-0.7-0.6-1.3-1.3-1.3
			c-0.7,0-1.3,0.6-1.3,1.3c0,3,2.3,5.5,5.4,6.1v1.6c0,0.7,0.6,1.3,1.3,1.3c0.7,0,1.3-0.6,1.3-1.3V101c3.1-0.5,5.5-3.1,5.5-6.1
			C86.5,91.9,84.7,88.7,79.8,88.7z"/>
	</g>
	<g class="st1">
		<rect x="26.1" y="118.9" class="st4" width="107.4" height="6"/>
	</g>
	<g class="st1">
		<rect x="26.1" y="55" class="st4" width="107.4" height="6"/>
	</g>
	<g class="st1">
		<path class="st2" d="M123,45c-0.1-0.7,0.4-1.3,1.1-1.4l0,0c0,0,0,0,0,0l0,0c0.7-0.1,1.3,0.4,1.4,1.1l0,0c0.1,0.7-0.4,1.3-1.1,1.4
			l0,0c0,0-0.1,0-0.2,0l0,0C123.6,46.1,123.1,45.7,123,45z M113.5,43.3C113.5,43.2,113.5,43.2,113.5,43.3L113.5,43.3L113.5,43.3
			L113.5,43.3c-0.6-0.5-0.7-1.2-0.3-1.8l0,0c0.4-0.6,1.2-0.7,1.8-0.2l0,0c0,0,0,0,0,0l0,0l0,0l0,0c0.6,0.4,0.7,1.2,0.2,1.8l0,0
			c-0.3,0.3-0.6,0.5-1,0.5l0,0C114,43.5,113.8,43.4,113.5,43.3z M132.4,40.7c-0.6-0.4-0.7-1.2-0.2-1.8l0,0c0.4-0.6,1.2-0.7,1.8-0.2
			l0,0c0.6,0.4,0.7,1.2,0.2,1.8l0,0c-0.3,0.3-0.6,0.5-1,0.5l0,0C132.9,41,132.6,40.9,132.4,40.7z M107.8,33.5
			c-0.1-0.7,0.4-1.3,1.1-1.4l0,0c0.7-0.1,1.3,0.4,1.4,1.1l0,0c0.1,0.7-0.4,1.3-1.1,1.4l0,0c-0.1,0-0.1,0-0.2,0l0,0
			C108.5,34.6,107.9,34.1,107.8,33.5z M134.5,29.9c-0.1-0.7,0.4-1.3,1.1-1.4l0,0c0.7-0.1,1.3,0.4,1.4,1.1l0,0
			c0.1,0.7-0.4,1.3-1.1,1.4l0,0c-0.1,0-0.1,0-0.2,0l0,0C135.2,31,134.6,30.5,134.5,29.9z M111,24.3c-0.6-0.4-0.7-1.2-0.2-1.8l0,0
			c0.4-0.5,1.2-0.7,1.8-0.2l0,0c0.5,0.4,0.7,1.2,0.2,1.8l0,0c-0.2,0.3-0.6,0.5-1,0.5l0,0C111.5,24.6,111.2,24.5,111,24.3z
			 M129.9,21.8L129.9,21.8L129.9,21.8c-0.6-0.4-0.7-1.2-0.2-1.8l0,0c0.4-0.6,1.2-0.7,1.8-0.2l0,0c0.6,0.4,0.7,1.2,0.2,1.8l0,0
			c-0.2,0.3-0.6,0.5-1,0.5l0,0C130.4,22.1,130.1,22,129.9,21.8z M119.4,18.3c-0.1-0.7,0.4-1.3,1.1-1.4h0c0.7-0.1,1.3,0.4,1.4,1.1
			l0,0c0.1,0.7-0.4,1.3-1.1,1.4l0,0c-0.1,0-0.1,0-0.2,0l0,0C120,19.4,119.5,19,119.4,18.3z"/>
	</g>
	<g class="st1">
		<path class="st2" d="M42.9,96.1H20.6c-0.7,0-1.3-0.6-1.3-1.3c0-0.7,0.6-1.3,1.3-1.3h22.3c0.7,0,1.3,0.6,1.3,1.3
			C44.1,95.6,43.6,96.1,42.9,96.1z"/>
	</g>
	<g class="st1">
		<path class="st2" d="M42.9,86.5H20.6c-0.7,0-1.3-0.6-1.3-1.3c0-0.7,0.6-1.3,1.3-1.3h22.3c0.7,0,1.3,0.6,1.3,1.3
			C44.1,86,43.6,86.5,42.9,86.5z"/>
	</g>
	<g class="st1">
		<path class="st2" d="M35.9,105.7H20.6c-0.7,0-1.3-0.6-1.3-1.3c0-0.7,0.6-1.3,1.3-1.3h15.3c0.7,0,1.3,0.6,1.3,1.3
			C37.1,105.2,36.6,105.7,35.9,105.7z"/>
	</g>
	<g class="st1">
		<path class="st7" d="M111.1,106.5c0,7.7,6.3,14,14,14c7.7,0,14-6.3,14-14c0-7.7-6.3-14-14-14C117.4,92.4,111.1,98.7,111.1,106.5z"
			/>
	</g>
	<g class="st1">
		<path class="st3" d="M125.1,121.7c-8.4,0-15.3-6.9-15.3-15.3c0-8.4,6.9-15.3,15.3-15.3c8.4,0,15.3,6.9,15.3,15.3
			C140.4,114.9,133.5,121.7,125.1,121.7z M125.1,93.7c-7,0-12.7,5.7-12.7,12.7c0,7,5.7,12.7,12.7,12.7c7,0,12.7-5.7,12.7-12.7
			C137.8,99.4,132.1,93.7,125.1,93.7z"/>
	</g>
	<g class="st1">
		<path class="st2" d="M125.1,105.2c-1.7,0-2.5-0.7-2.5-2.2c0-1.2,1.1-2.2,2.5-2.2c1.4,0,2.5,1,2.5,2.2c0,0.7,0.6,1.3,1.3,1.3
			c0.7,0,1.3-0.6,1.3-1.3c0-2.2-1.6-4-3.8-4.5v-0.8c0-0.7-0.6-1.3-1.3-1.3c-0.7,0-1.3,0.6-1.3,1.3v0.8c-2.2,0.5-3.8,2.3-3.8,4.5
			c0,2.9,2,4.7,5,4.7c1.7,0,2.5,0.7,2.5,2.2c0,1.2-1.1,2.2-2.5,2.2c-1.4,0-2.5-1-2.5-2.2c0-0.7-0.6-1.3-1.3-1.3
			c-0.7,0-1.3,0.6-1.3,1.3c0,2.2,1.6,4,3.8,4.5v0.8c0,0.7,0.6,1.3,1.3,1.3c0.7,0,1.3-0.6,1.3-1.3v-0.8c2.2-0.5,3.8-2.3,3.8-4.5
			C130.1,107,128.2,105.2,125.1,105.2z"/>
	</g>
</g>
<g class="st0">
	<g class="st1">
		<polygon class="st3" points="58.3,50.2 43.5,65 50.7,65 50.7,116.9 65.9,116.9 65.9,65 73.2,65 		"/>
	</g>
	<g class="st1">
		<polygon class="st3" points="15.8,66.5 1,81.3 8.2,81.3 8.2,104.9 23.4,104.9 23.4,81.3 30.6,81.3 		"/>
	</g>
	<g class="st1">
		<polygon class="st3" points="144.4,31.2 129.6,46 136.9,46 136.9,97.9 152,97.9 152,46 159.3,46 		"/>
	</g>
	<g class="st1">
		<path class="st4" d="M139.9,132.3c-0.1,0-0.3,0-0.4,0c-0.6-0.1-1.2-0.1-1.8-0.2c-0.1,0-0.2,0-0.3,0c-0.5-0.1-1-0.2-1.5-0.3
			c-0.1,0-0.2,0-0.3-0.1c-1.1-0.2-2.1-0.5-3-0.9c-0.1,0-0.1,0-0.2-0.1c-0.4-0.2-0.8-0.3-1.2-0.5c0,0,0,0-0.1,0
			c-1.8-0.9-2.9-1.9-2.9-3.1c0-3,7.1-5.3,15.8-5.3c8.7,0,15.8,2.4,15.8,5.3c0,1.1-1.1,2.2-2.9,3.1c0,0,0,0-0.1,0
			c-0.4,0.2-0.8,0.3-1.2,0.5c-0.1,0-0.1,0-0.2,0.1c-0.9,0.3-1.9,0.6-3,0.9c-0.1,0-0.2,0-0.3,0.1c-0.5,0.1-1,0.2-1.5,0.3
			c-0.1,0-0.2,0-0.3,0c-0.6,0.1-1.2,0.2-1.8,0.2c-0.1,0-0.3,0-0.4,0c-0.5,0-1,0.1-1.6,0.1c-0.2,0-0.4,0-0.5,0c-0.7,0-1.3,0.1-2,0.1
			c-0.7,0-1.3,0-2-0.1c-0.2,0-0.4,0-0.5,0C140.9,132.4,140.4,132.4,139.9,132.3z"/>
	</g>
	<g class="st1">
		<path class="st7" d="M130,129.6c2.6,1.7,7.9,2.9,14,2.9c6.1,0,11.4-1.2,14-2.9c1.1-0.7,1.8-1.6,1.8-2.5v4.9c0,3-7.1,5.3-15.8,5.3
			c-8.7,0-15.8-2.4-15.8-5.3v-4.9C128.2,128.1,128.8,128.9,130,129.6z"/>
	</g>
	<g class="st1">
		<path class="st4" d="M139.9,124.9c-0.1,0-0.3,0-0.4,0c-0.6-0.1-1.2-0.1-1.8-0.2c-0.1,0-0.2,0-0.3-0.1c-0.5-0.1-1-0.2-1.5-0.3
			c-0.1,0-0.2,0-0.3-0.1c-1.1-0.2-2.1-0.5-3-0.8c-0.1,0-0.1,0-0.2-0.1c-0.4-0.2-0.8-0.3-1.2-0.5c0,0,0,0-0.1,0
			c-1.8-0.9-2.9-1.9-2.9-3.1c0-3,7.1-5.3,15.8-5.3c8.7,0,15.8,2.4,15.8,5.3c0,1.1-1.1,2.2-2.9,3.1c0,0,0,0-0.1,0
			c-0.4,0.2-0.8,0.3-1.2,0.5c-0.1,0-0.1,0-0.2,0.1c-0.9,0.3-1.9,0.6-3,0.8c-0.1,0-0.2,0-0.3,0.1c-0.5,0.1-1,0.2-1.5,0.3
			c-0.1,0-0.2,0-0.3,0.1c-0.6,0.1-1.2,0.2-1.8,0.2c-0.1,0-0.3,0-0.4,0c-0.5,0-1,0.1-1.6,0.1c-0.2,0-0.4,0-0.5,0c-0.7,0-1.3,0-2,0
			c-0.7,0-1.3,0-2,0c-0.2,0-0.4,0-0.5,0C140.9,125,140.4,125,139.9,124.9z"/>
	</g>
	<g class="st1">
		<path class="st7" d="M130,122.3c2.6,1.7,7.9,2.9,14,2.9c6.1,0,11.4-1.2,14-2.9c1.1-0.7,1.8-1.6,1.8-2.5v4.9c0,3-7.1,5.3-15.8,5.3
			c-8.7,0-15.8-2.4-15.8-5.3v-4.9C128.2,120.7,128.8,121.5,130,122.3z"/>
	</g>
	<g class="st1">
		<path class="st4" d="M139.9,110.1c-0.1,0-0.3,0-0.4,0c-0.6-0.1-1.2-0.1-1.8-0.2c-0.1,0-0.2,0-0.3,0c-0.5-0.1-1-0.2-1.5-0.3
			c-0.1,0-0.2,0-0.3-0.1c-1.1-0.2-2.1-0.5-3-0.8c-0.1,0-0.1,0-0.2-0.1c-0.4-0.2-0.8-0.3-1.2-0.5c0,0,0,0-0.1,0
			c-1.8-0.9-2.9-1.9-2.9-3.1c0-3,7.1-5.3,15.8-5.3c8.7,0,15.8,2.4,15.8,5.3c0,1.1-1.1,2.2-2.9,3.1c0,0,0,0-0.1,0
			c-0.4,0.2-0.8,0.3-1.2,0.5c-0.1,0-0.1,0-0.2,0.1c-0.9,0.3-1.9,0.6-3,0.8c-0.1,0-0.2,0-0.3,0.1c-0.5,0.1-1,0.2-1.5,0.3
			c-0.1,0-0.2,0-0.3,0c-0.6,0.1-1.2,0.2-1.8,0.2c-0.1,0-0.3,0-0.4,0c-0.5,0-1,0.1-1.6,0.1c-0.2,0-0.4,0-0.5,0c-0.7,0-1.3,0-2,0
			c-0.7,0-1.3,0-2,0c-0.2,0-0.4,0-0.5,0C140.9,110.2,140.4,110.2,139.9,110.1z"/>
	</g>
	<g class="st1">
		<path class="st4" d="M139.9,117.5c-0.1,0-0.3,0-0.4,0c-0.6-0.1-1.2-0.1-1.8-0.2c-0.1,0-0.2,0-0.3,0c-0.5-0.1-1-0.2-1.5-0.3
			c-0.1,0-0.2,0-0.3-0.1c-1.1-0.2-2.1-0.5-3-0.9c-0.1,0-0.1,0-0.2-0.1c-0.4-0.2-0.8-0.3-1.2-0.5c0,0,0,0-0.1,0
			c-1.8-0.9-2.9-1.9-2.9-3.1c0-2.9,7.1-5.3,15.8-5.3c8.7,0,15.8,2.4,15.8,5.3c0,1.1-1.1,2.2-2.9,3.1c0,0,0,0-0.1,0
			c-0.4,0.2-0.8,0.3-1.2,0.5c-0.1,0-0.1,0-0.2,0.1c-0.9,0.3-1.9,0.6-3,0.9c-0.1,0-0.2,0-0.3,0.1c-0.5,0.1-1,0.2-1.5,0.3
			c-0.1,0-0.2,0-0.3,0c-0.6,0.1-1.2,0.2-1.8,0.2c-0.1,0-0.3,0-0.4,0c-0.5,0-1,0.1-1.6,0.1c-0.2,0-0.4,0-0.5,0c-0.7,0-1.3,0-2,0
			c-0.7,0-1.3,0-2,0c-0.2,0-0.4,0-0.5,0C140.9,117.6,140.4,117.6,139.9,117.5z"/>
	</g>
	<g class="st1">
		<path class="st7" d="M130,114.8c2.6,1.7,7.9,2.9,14,2.9c6.1,0,11.4-1.2,14-2.9c1.1-0.7,1.8-1.6,1.8-2.5v4.9
			c0,2.9-7.1,5.3-15.8,5.3c-8.7,0-15.8-2.4-15.8-5.3v-4.9C128.2,113.3,128.8,114.1,130,114.8z"/>
	</g>
	<g class="st1">
		<path class="st7" d="M130,107.5c2.6,1.7,7.9,2.9,14,2.9c6.1,0,11.4-1.2,14-2.9c1.1-0.7,1.8-1.6,1.8-2.5v4.9c0,3-7.1,5.3-15.8,5.3
			c-8.7,0-15.8-2.4-15.8-5.3V105C128.2,105.9,128.8,106.7,130,107.5z"/>
	</g>
	<g class="st1">
		<path class="st4" d="M139.9,102.7c-0.1,0-0.3,0-0.4,0c-0.6-0.1-1.2-0.1-1.8-0.2c-0.1,0-0.2,0-0.3,0c-0.5-0.1-1-0.2-1.5-0.3
			c-0.1,0-0.2,0-0.3-0.1c-1.1-0.2-2.1-0.5-3-0.8c-0.1,0-0.1,0-0.2-0.1c-0.4-0.2-0.8-0.3-1.2-0.5c0,0,0,0-0.1,0
			c-1.8-0.9-2.9-1.9-2.9-3.1c0-3,7.1-5.3,15.8-5.3c8.7,0,15.8,2.4,15.8,5.3c0,1.1-1.1,2.2-2.9,3.1c0,0,0,0-0.1,0
			c-0.4,0.2-0.8,0.3-1.2,0.5c-0.1,0-0.1,0-0.2,0.1c-0.9,0.3-1.9,0.6-3,0.8c-0.1,0-0.2,0.1-0.3,0.1c-0.5,0.1-1,0.2-1.5,0.3
			c-0.1,0-0.2,0-0.3,0c-0.6,0.1-1.2,0.2-1.8,0.2c-0.1,0-0.3,0-0.4,0c-0.5,0-1,0.1-1.6,0.1c-0.2,0-0.4,0-0.5,0c-0.7,0-1.3,0.1-2,0.1
			c-0.7,0-1.3,0-2-0.1c-0.2,0-0.4,0-0.5,0C140.9,102.8,140.4,102.8,139.9,102.7z"/>
	</g>
	<g class="st1">
		<path class="st7" d="M130,100c2.6,1.7,7.9,2.9,14,2.9c6.1,0,11.4-1.2,14-2.9c1.1-0.7,1.8-1.6,1.8-2.5v4.9c0,3-7.1,5.3-15.8,5.3
			c-8.7,0-15.8-2.4-15.8-5.3v-4.9C128.2,98.5,128.8,99.3,130,100z"/>
	</g>
	<g class="st1">
		<path class="st4" d="M139.9,95.3c-0.1,0-0.3,0-0.4,0c-0.6-0.1-1.2-0.1-1.8-0.2c-0.1,0-0.2,0-0.3,0c-0.5-0.1-1-0.2-1.5-0.3
			c-0.1,0-0.2,0-0.3-0.1c-1.1-0.2-2.1-0.5-3-0.9c-0.1,0-0.1,0-0.2-0.1c-0.4-0.2-0.8-0.3-1.2-0.5c0,0,0,0-0.1,0
			c-1.8-0.9-2.9-1.9-2.9-3.1c0-3,7.1-5.3,15.8-5.3c8.7,0,15.8,2.4,15.8,5.3c0,1.1-1.1,2.2-2.9,3.1c0,0,0,0-0.1,0
			c-0.4,0.2-0.8,0.3-1.2,0.5c-0.1,0-0.1,0-0.2,0.1c-0.9,0.3-1.9,0.6-3,0.9c-0.1,0-0.2,0-0.3,0.1c-0.5,0.1-1,0.2-1.5,0.3
			c-0.1,0-0.2,0-0.3,0c-0.6,0.1-1.2,0.2-1.8,0.2c-0.1,0-0.3,0-0.4,0c-0.5,0-1,0.1-1.6,0.1c-0.2,0-0.4,0-0.5,0c-0.7,0-1.3,0-2,0
			c-0.7,0-1.3,0-2,0c-0.2,0-0.4,0-0.5,0C140.9,95.4,140.4,95.4,139.9,95.3z"/>
	</g>
	<g class="st1">
		<path class="st7" d="M130,92.6c2.6,1.7,7.9,2.9,14,2.9c6.1,0,11.4-1.2,14-2.9c1.1-0.7,1.8-1.6,1.8-2.5v4.9c0,3-7.1,5.3-15.8,5.3
			c-8.7,0-15.8-2.4-15.8-5.3v-4.9C128.2,91.1,128.8,91.9,130,92.6z"/>
	</g>
	<g class="st1">
		<path class="st7" d="M144,86.9c-0.7,0-1.3,0-2,0l-0.5,0c-0.5,0-1-0.1-1.5-0.1l-0.4,0c-0.6-0.1-1.2-0.1-1.8-0.2l-0.2,0
			c-0.6-0.1-1.1-0.2-1.5-0.3l-0.3-0.1c-1.1-0.2-2-0.5-2.9-0.8l-0.1-0.1c-0.4-0.1-0.8-0.3-1.1-0.5c-1.7-0.8-2.2-1.5-2.2-2
			c0-1.6,5.8-4.1,14.6-4.1c8.8,0,14.6,2.5,14.6,4.1c0,0.4-0.6,1.2-2.2,2c-0.4,0.2-0.8,0.3-1.1,0.5c0,0-0.2,0.1-0.2,0.1
			c-0.9,0.3-1.8,0.6-2.9,0.8l-0.3,0.1c-0.5,0.1-0.9,0.2-1.4,0.3l-0.3,0c-0.6,0.1-1.2,0.2-1.8,0.2l-0.4,0c-0.5,0.1-1,0.1-1.5,0.1
			l-0.5,0C145.3,86.9,144.7,86.9,144,86.9z"/>
	</g>
	<g class="st1">
		<path class="st4" d="M144,77.4c-8.7,0-15.8,2.4-15.8,5.3c0,1.1,1.1,2.2,2.9,3.1c0,0,0,0,0.1,0c0.4,0.2,0.8,0.3,1.2,0.5
			c0.1,0,0.1,0,0.2,0.1c0.9,0.3,1.9,0.6,3,0.9c0.1,0,0.2,0,0.3,0.1c0.5,0.1,1,0.2,1.5,0.3c0.1,0,0.2,0,0.3,0.1
			c0.6,0.1,1.2,0.2,1.8,0.2c0.1,0,0.3,0,0.4,0c0.5,0.1,1,0.1,1.6,0.1c0.2,0,0.4,0,0.5,0c0.7,0,1.3,0.1,2,0.1c0.7,0,1.4,0,2-0.1
			c0.2,0,0.4,0,0.5,0c0.5,0,1-0.1,1.6-0.1c0.1,0,0.3,0,0.4,0c0.6-0.1,1.2-0.1,1.8-0.2c0.1,0,0.2,0,0.3-0.1c0.5-0.1,1-0.2,1.5-0.3
			c0.1,0,0.2,0,0.3-0.1c1.1-0.2,2.1-0.5,3.1-0.9c0.1,0,0.1,0,0.2-0.1c0.4-0.2,0.8-0.3,1.2-0.5c0,0,0,0,0.1,0
			c1.8-0.9,2.9-1.9,2.9-3.1C159.8,79.8,152.7,77.4,144,77.4z M155.9,83.6C155.9,83.6,155.8,83.6,155.9,83.6
			c-0.4,0.2-0.7,0.3-1.1,0.5l-0.1,0l-0.1,0c-0.8,0.3-1.7,0.5-2.7,0.8l-0.2,0l-0.1,0c-0.4,0.1-0.9,0.2-1.4,0.2l-0.1,0l-0.1,0
			c-0.6,0.1-1.1,0.2-1.7,0.2l-0.2,0l-0.2,0c-0.5,0-1,0.1-1.5,0.1l-0.5,0c-0.7,0-1.3,0-1.9,0c-0.6,0-1.2,0-1.9,0l-0.5,0
			c-0.5,0-1-0.1-1.5-0.1l-0.2,0l-0.2,0c-0.6-0.1-1.2-0.1-1.7-0.2l-0.1,0l-0.1,0c-0.5-0.1-0.9-0.2-1.4-0.2l-0.1,0l-0.2,0
			c-1-0.2-1.9-0.5-2.7-0.8l-0.1,0l-0.1,0c-0.4-0.1-0.7-0.3-1-0.4c-0.7-0.4-1.1-0.7-1.4-0.9c1-1,5.5-2.9,13.2-2.9
			c7.8,0,12.2,1.9,13.2,2.9C157,83,156.6,83.3,155.9,83.6z"/>
	</g>
	<g class="st1">
		<path class="st7" d="M130,85.2c2.6,1.7,7.9,2.9,14,2.9c6.1,0,11.4-1.2,14-2.9c1.1-0.7,1.8-1.6,1.8-2.5v4.9c0,3-7.1,5.3-15.8,5.3
			c-8.7,0-15.8-2.4-15.8-5.3v-4.9C128.2,83.7,128.8,84.5,130,85.2z"/>
	</g>
	<g class="st1">
		<polygon class="st3" points="101.3,58.3 86.4,73.1 93.7,73.1 93.7,125.1 108.8,125.1 108.8,73.1 116.1,73.1 		"/>
	</g>
	<g class="st1">
		<path class="st7" d="M96.7,124.9c-0.1,0-0.3,0-0.4,0c-0.6-0.1-1.2-0.1-1.8-0.2c-0.1,0-0.2,0-0.3-0.1c-0.5-0.1-1-0.2-1.5-0.3
			c-0.1,0-0.2,0-0.3-0.1c-1.1-0.2-2.1-0.5-3-0.8c-0.1,0-0.1,0-0.2-0.1c-0.4-0.2-0.8-0.3-1.2-0.5c0,0,0,0-0.1,0
			c-1.8-0.9-2.9-1.9-2.9-3.1c0-3,7.1-5.3,15.8-5.3s15.8,2.4,15.8,5.3c0,1.1-1.1,2.2-2.9,3.1c0,0,0,0-0.1,0c-0.4,0.2-0.8,0.3-1.2,0.5
			c-0.1,0-0.1,0-0.2,0.1c-0.9,0.3-1.9,0.6-3.1,0.8c-0.1,0-0.2,0-0.3,0.1c-0.5,0.1-1,0.2-1.5,0.3c-0.1,0-0.2,0-0.3,0.1
			c-0.6,0.1-1.2,0.2-1.8,0.2c-0.1,0-0.3,0-0.4,0c-0.5,0-1,0.1-1.6,0.1c-0.2,0-0.4,0-0.5,0c-0.7,0-1.3,0-2,0c-0.7,0-1.4,0-2,0
			c-0.2,0-0.4,0-0.5,0C97.7,125,97.2,125,96.7,124.9z"/>
	</g>
	<g class="st1">
		<path class="st7" d="M96.7,132.3c-0.1,0-0.3,0-0.4,0c-0.6-0.1-1.2-0.1-1.8-0.2c-0.1,0-0.2,0-0.3,0c-0.5-0.1-1-0.2-1.5-0.3
			c-0.1,0-0.2,0-0.3-0.1c-1.1-0.2-2.1-0.5-3-0.9c-0.1,0-0.1,0-0.2-0.1c-0.4-0.2-0.8-0.3-1.2-0.5c0,0,0,0-0.1,0
			c-1.8-0.9-2.9-1.9-2.9-3.1c0-3,7.1-5.3,15.8-5.3s15.8,2.4,15.8,5.3c0,1.1-1.1,2.2-2.9,3.1c0,0,0,0-0.1,0c-0.4,0.2-0.8,0.3-1.2,0.5
			c-0.1,0-0.1,0-0.2,0.1c-0.9,0.3-1.9,0.6-3.1,0.9c-0.1,0-0.2,0-0.3,0.1c-0.5,0.1-1,0.2-1.5,0.3c-0.1,0-0.2,0-0.3,0
			c-0.6,0.1-1.2,0.2-1.8,0.2c-0.1,0-0.3,0-0.4,0c-0.5,0-1,0.1-1.6,0.1c-0.2,0-0.4,0-0.5,0c-0.7,0-1.3,0.1-2,0.1c-0.7,0-1.4,0-2-0.1
			c-0.2,0-0.4,0-0.5,0C97.7,132.4,97.2,132.4,96.7,132.3z"/>
	</g>
	<g class="st1">
		<path class="st4" d="M86.8,129.6c2.6,1.7,7.9,2.9,14,2.9c6.1,0,11.4-1.2,14-2.9c1.1-0.7,1.8-1.6,1.8-2.5v4.9c0,3-7.1,5.3-15.8,5.3
			S85,135.1,85,132.1v-4.9C85,128.1,85.7,128.9,86.8,129.6z"/>
	</g>
	<g class="st1">
		<path class="st4" d="M86.8,122.3c2.6,1.7,7.9,2.9,14,2.9c6.1,0,11.4-1.2,14-2.9c1.1-0.7,1.8-1.6,1.8-2.5v4.9c0,3-7.1,5.3-15.8,5.3
			S85,127.7,85,124.7v-4.9C85,120.7,85.7,121.5,86.8,122.3z"/>
	</g>
	<g class="st1">
		<path class="st7" d="M96.7,117.5c-0.1,0-0.3,0-0.4,0c-0.6-0.1-1.2-0.1-1.8-0.2c-0.1,0-0.2,0-0.3,0c-0.5-0.1-1-0.2-1.5-0.3
			c-0.1,0-0.2,0-0.3-0.1c-1.1-0.2-2.1-0.5-3-0.9c-0.1,0-0.1,0-0.2-0.1c-0.4-0.2-0.8-0.3-1.2-0.5c0,0,0,0-0.1,0
			c-1.8-0.9-2.9-1.9-2.9-3.1c0-2.9,7.1-5.3,15.8-5.3s15.8,2.4,15.8,5.3c0,1.1-1.1,2.2-2.9,3.1c0,0,0,0-0.1,0
			c-0.4,0.2-0.8,0.3-1.2,0.5c-0.1,0-0.1,0-0.2,0.1c-0.9,0.3-1.9,0.6-3.1,0.9c-0.1,0-0.2,0-0.3,0.1c-0.5,0.1-1,0.2-1.5,0.3
			c-0.1,0-0.2,0-0.3,0c-0.6,0.1-1.2,0.2-1.8,0.2c-0.1,0-0.3,0-0.4,0c-0.5,0-1,0.1-1.6,0.1c-0.2,0-0.4,0-0.5,0c-0.7,0-1.3,0-2,0
			c-0.7,0-1.4,0-2,0c-0.2,0-0.4,0-0.5,0C97.7,117.6,97.2,117.6,96.7,117.5z"/>
	</g>
	<g class="st1">
		<path class="st4" d="M86.8,114.8c2.6,1.7,7.9,2.9,14,2.9c6.1,0,11.4-1.2,14-2.9c1.1-0.7,1.8-1.6,1.8-2.5v4.9
			c0,2.9-7.1,5.3-15.8,5.3S85,120.3,85,117.3v-4.9C85,113.3,85.7,114.1,86.8,114.8z"/>
	</g>
	<g class="st1">
		<path class="st7" d="M96.7,110.1c-0.1,0-0.3,0-0.4,0c-0.6-0.1-1.2-0.1-1.8-0.2c-0.1,0-0.2,0-0.3,0c-0.5-0.1-1-0.2-1.5-0.3
			c-0.1,0-0.2,0-0.3-0.1c-1.1-0.2-2.1-0.5-3-0.8c-0.1,0-0.1,0-0.2-0.1c-0.4-0.2-0.8-0.3-1.2-0.5c0,0,0,0-0.1,0
			c-1.8-0.9-2.9-1.9-2.9-3.1c0-3,7.1-5.3,15.8-5.3s15.8,2.4,15.8,5.3c0,1.1-1.1,2.2-2.9,3.1c0,0,0,0-0.1,0c-0.4,0.2-0.8,0.3-1.2,0.5
			c-0.1,0-0.1,0-0.2,0.1c-0.9,0.3-1.9,0.6-3.1,0.8c-0.1,0-0.2,0-0.3,0.1c-0.5,0.1-1,0.2-1.5,0.3c-0.1,0-0.2,0-0.3,0
			c-0.6,0.1-1.2,0.2-1.8,0.2c-0.1,0-0.3,0-0.4,0c-0.5,0-1,0.1-1.6,0.1c-0.2,0-0.4,0-0.5,0c-0.7,0-1.3,0-2,0c-0.7,0-1.4,0-2,0
			c-0.2,0-0.4,0-0.5,0C97.7,110.2,97.2,110.2,96.7,110.1z"/>
	</g>
	<g class="st1">
		<path class="st4" d="M86.8,107.5c2.6,1.7,7.9,2.9,14,2.9c6.1,0,11.4-1.2,14-2.9c1.1-0.7,1.8-1.6,1.8-2.5v4.9c0,3-7.1,5.3-15.8,5.3
			S85,112.9,85,109.9V105C85,105.9,85.7,106.7,86.8,107.5z"/>
	</g>
	<g class="st1">
		<path class="st4" d="M100.8,101.7c-0.7,0-1.3,0-2,0l-0.5,0c-0.5,0-1-0.1-1.5-0.1l-0.4,0c-0.6-0.1-1.2-0.1-1.8-0.2l-0.2,0
			c-0.6-0.1-1.1-0.2-1.5-0.3l-0.3-0.1c-1.1-0.2-2-0.5-2.9-0.8l-0.1-0.1c-0.4-0.2-0.8-0.3-1.1-0.5c-1.7-0.8-2.2-1.5-2.2-2
			c0-1.6,5.8-4.1,14.6-4.1s14.6,2.5,14.6,4.1c0,0.4-0.6,1.2-2.2,2c-0.4,0.2-0.8,0.3-1.1,0.5c0,0-0.2,0.1-0.2,0.1
			c-0.9,0.3-1.8,0.6-2.9,0.8l-0.3,0.1c-0.5,0.1-0.9,0.2-1.4,0.3l-0.3,0c-0.6,0.1-1.2,0.2-1.8,0.2l-0.4,0c-0.5,0-1,0.1-1.5,0.1
			l-0.5,0C102.1,101.7,101.5,101.7,100.8,101.7z"/>
	</g>
	<g class="st1">
		<path class="st7" d="M100.8,92.2c-8.7,0-15.8,2.4-15.8,5.3c0,1.1,1.1,2.2,2.9,3.1c0,0,0,0,0.1,0c0.4,0.2,0.8,0.3,1.2,0.5
			c0.1,0,0.1,0,0.2,0.1c0.9,0.3,1.9,0.6,3,0.8c0.1,0,0.2,0.1,0.3,0.1c0.5,0.1,1,0.2,1.5,0.3c0.1,0,0.2,0,0.3,0
			c0.6,0.1,1.2,0.2,1.8,0.2c0.1,0,0.3,0,0.4,0c0.5,0,1,0.1,1.6,0.1c0.2,0,0.4,0,0.5,0c0.7,0,1.3,0.1,2,0.1c0.7,0,1.3,0,2-0.1
			c0.2,0,0.4,0,0.5,0c0.5,0,1-0.1,1.6-0.1c0.1,0,0.3,0,0.4,0c0.6-0.1,1.2-0.1,1.8-0.2c0.1,0,0.2,0,0.3,0c0.5-0.1,1-0.2,1.5-0.3
			c0.1,0,0.2,0,0.3-0.1c1.1-0.2,2.1-0.5,3-0.8c0.1,0,0.1,0,0.2-0.1c0.4-0.2,0.8-0.3,1.2-0.5c0,0,0,0,0.1,0c1.8-0.9,2.9-1.9,2.9-3.1
			C116.7,94.6,109.6,92.2,100.8,92.2z M112.7,98.4C112.7,98.4,112.7,98.4,112.7,98.4c-0.4,0.2-0.7,0.3-1.1,0.5l-0.1,0l-0.1,0
			c-0.8,0.3-1.7,0.5-2.7,0.8l-0.3,0.1c-0.4,0.1-0.9,0.2-1.4,0.3l-0.1,0l-0.1,0c-0.6,0.1-1.1,0.2-1.7,0.2l-0.2,0l-0.2,0
			c-0.5,0-1,0.1-1.5,0.1l-0.5,0c-0.7,0-1.3,0-1.9,0s-1.2,0-1.9,0l-0.5,0c-0.5,0-1-0.1-1.5-0.1l-0.2,0l-0.2,0
			c-0.6-0.1-1.2-0.1-1.7-0.2l-0.1,0l-0.1,0c-0.5-0.1-0.9-0.2-1.4-0.2l-0.1,0l-0.2,0c-1-0.2-1.9-0.5-2.7-0.8l-0.1,0l-0.1,0
			c-0.4-0.1-0.7-0.3-1-0.4c-0.7-0.4-1.1-0.7-1.4-0.9c1-1,5.5-2.9,13.2-2.9c7.8,0,12.2,1.9,13.2,2.9
			C113.8,97.8,113.4,98.1,112.7,98.4z"/>
	</g>
	<g class="st1">
		<path class="st4" d="M86.8,100c2.6,1.7,7.9,2.9,14,2.9c6.1,0,11.4-1.2,14-2.9c1.1-0.7,1.8-1.6,1.8-2.5v4.9c0,3-7.1,5.3-15.8,5.3
			S85,105.5,85,102.5v-4.9C85,98.5,85.7,99.3,86.8,100z"/>
	</g>
	<g class="st1">
		
			<rect x="0.8" y="133.8" transform="matrix(-1 -1.224647e-16 1.224647e-16 -1 74.1222 269.9883)" class="st5" width="72.5" height="2.5"/>
	</g>
	<g class="st1">
		
			<rect x="0.8" y="131.3" transform="matrix(-1 -1.224647e-16 1.224647e-16 -1 74.1222 265.0556)" class="st5" width="72.5" height="2.5"/>
	</g>
	<g class="st1">
		
			<rect x="0.8" y="128.8" transform="matrix(-1 -1.224647e-16 1.224647e-16 -1 74.1222 260.1223)" class="st5" width="72.5" height="2.5"/>
	</g>
	<g class="st1">
		
			<rect x="0.8" y="126.4" transform="matrix(-1 -1.224647e-16 1.224647e-16 -1 74.1222 255.189)" class="st5" width="72.5" height="2.5"/>
	</g>
	<g class="st1">
		
			<rect x="0.8" y="123.9" transform="matrix(-1 -1.224647e-16 1.224647e-16 -1 74.1222 250.2557)" class="st5" width="72.5" height="2.5"/>
	</g>
	<g class="st1">
		
			<rect x="0.8" y="121.4" transform="matrix(-1 -1.224647e-16 1.224647e-16 -1 74.1222 245.3224)" class="st5" width="72.5" height="2.5"/>
	</g>
	<g class="st1">
		
			<rect x="0.8" y="119" transform="matrix(-1 -1.224647e-16 1.224647e-16 -1 74.1222 240.3897)" class="st5" width="72.5" height="2.5"/>
	</g>
	<g class="st1">
		<polygon class="st5" points="73.3,119 0.8,119 8.2,100.6 37.1,100.6 65.9,100.6 		"/>
	</g>
	<g class="st1">
		<path class="st3" d="M6.8,116.4l4.9-13.3c1.6,0,11,0,25.3,0c14.3,0,23.7,0,25.3,0l4.9,13.3C64,116.4,10.1,116.4,6.8,116.4z"/>
	</g>
	<g class="st1">
		<path class="st5" d="M51.4,109.8c0,1.4,2.3,2.5,5.1,2.5c2.8,0,5.1-1.1,5.1-2.5s-2.3-2.5-5.1-2.5C53.7,107.3,51.4,108.4,51.4,109.8
			z"/>
	</g>
	<g class="st1">
		<path class="st5" d="M12.6,109.8c0,1.4,2.3,2.5,5.1,2.5s5.1-1.1,5.1-2.5s-2.3-2.5-5.1-2.5S12.6,108.4,12.6,109.8z"/>
	</g>
	<g class="st1">
		<path class="st5" d="M44.9,109.8c0,2.8-3.5,5.1-7.8,5.1c-4.3,0-7.8-2.3-7.8-5.1c0-2.8,3.5-5.1,7.8-5.1
			C41.4,104.7,44.9,107,44.9,109.8z"/>
	</g>
	<g class="st1">
		<path class="st3" d="M79.2,32c-0.4-0.7-0.6-1.6-0.6-2.5c0-2.8,2.2-5,5-5c1.3,0,2.5,0.5,3.4,1.3c0.6-4.4,4.3-7.8,8.9-7.8
			c5,0,9,4,9,9c0,0.6-0.1,1.1-0.2,1.7c0.5-0.1,1-0.2,1.6-0.2c4.2,0,7.6,3.4,7.6,7.6c0,4.2-3.4,7.6-7.6,7.6c-2.6,0-24.1,0-25.9,0
			c-3.3,0-5.9-2.6-5.9-5.9C74.4,34.9,76.5,32.5,79.2,32z"/>
	</g>
	<g class="st1">
		<path class="st4" d="M84.6,36.5c-0.4-0.8-0.7-1.7-0.7-2.7c0-3,2.4-5.4,5.4-5.4c1.4,0,2.7,0.5,3.7,1.4c0.6-4.8,4.7-8.5,9.7-8.5
			c5.4,0,9.8,4.4,9.8,9.8c0,0.6-0.1,1.2-0.2,1.8c0.5-0.1,1.1-0.2,1.7-0.2c4.6,0,8.3,3.7,8.3,8.3c0,4.6-3.7,8.3-8.3,8.3
			c-2.9,0-26.2,0-28.2,0c-3.6,0-6.4-2.9-6.4-6.4C79.4,39.6,81.6,37,84.6,36.5z"/>
	</g>
	<g class="st1">
		<path class="st5" d="M146.9,19.3L154.6,6l-15.4,0.9l2.4,3.8l-37.8,23.7c-0.7-0.5-1.6-0.8-2.6-0.8c-1.5,0-2.9,0.7-3.7,1.9
			l-35.9-4.7c-0.8-0.8-2-1.3-3.3-1.3c-1.8,0-3.3,1-4.1,2.5L18.4,45.7c-0.8-0.5-1.7-0.8-2.6-0.8c-2.6,0-4.7,2.1-4.7,4.7
			c0,2.6,2.1,4.7,4.7,4.7c2.1,0,3.8-1.3,4.4-3.2l35-13.4c0.8,0.7,1.9,1.2,3.1,1.2c1.5,0,2.9-0.8,3.8-1.9l35.9,4.7
			c0.9,0.8,2,1.4,3.3,1.4c2.3,0,4.2-1.7,4.6-3.8l38.4-24.2L146.9,19.3z"/>
	</g>
	<g class="st1">
		<path class="st2" d="M46.1,18.5H11.1c-0.7,0-1.2-0.6-1.2-1.2c0-0.7,0.6-1.2,1.2-1.2h35.1c0.7,0,1.2,0.5,1.2,1.2
			C47.4,17.9,46.8,18.5,46.1,18.5z"/>
	</g>
	<g class="st1">
		<path class="st2" d="M46.1,27.1H11.1c-0.7,0-1.2-0.6-1.2-1.2c0-0.7,0.6-1.2,1.2-1.2h35.1c0.7,0,1.2,0.6,1.2,1.2
			C47.4,26.5,46.8,27.1,46.1,27.1z"/>
	</g>
	<g class="st1">
		<path class="st2" d="M24.8,35.7H11.1c-0.7,0-1.2-0.6-1.2-1.2c0-0.7,0.6-1.2,1.2-1.2h13.7c0.7,0,1.2,0.6,1.2,1.2
			C26,35.1,25.5,35.7,24.8,35.7z"/>
	</g>
</g>
<g class="st0">
	<g class="st1">
		<rect x="29.4" y="14.1" class="st7" width="91.1" height="115.6"/>
	</g>
	<g class="st1">
		<rect x="38.2" y="19.7" class="st6" width="73.6" height="101.6"/>
	</g>
	<g class="st1">
		<path class="st5" d="M86,11.3c0-6.1-5-11.1-11.1-11.1c-6.1,0-11.1,5-11.1,11.1H52.2v10.3h45.5V11.3H86z"/>
	</g>
	<g class="st1">
		<path class="st3" d="M79.8,11.3c0,2.7-2.2,4.8-4.8,4.8c-2.7,0-4.8-2.2-4.8-4.8s2.2-4.8,4.8-4.8C77.6,6.5,79.8,8.6,79.8,11.3z"/>
	</g>
	<g class="st1">
		<path class="st2" d="M103.1,107.8H80c-0.6,0-1.2-0.5-1.2-1.2c0-0.6,0.5-1.2,1.2-1.2h23.1c0.6,0,1.2,0.5,1.2,1.2
			C104.3,107.3,103.7,107.8,103.1,107.8z"/>
	</g>
	<g class="st1">
		<path class="st2" d="M103.1,115.4H80c-0.6,0-1.2-0.5-1.2-1.2c0-0.6,0.5-1.2,1.2-1.2h23.1c0.6,0,1.2,0.5,1.2,1.2
			C104.3,114.9,103.7,115.4,103.1,115.4z"/>
	</g>
	<g class="st1">
		<path class="st2" d="M91.4,37.7H21.5c-0.6,0-1.2-0.5-1.2-1.2c0-0.6,0.5-1.2,1.2-1.2h69.8c0.6,0,1.2,0.5,1.2,1.2
			C92.6,37.2,92,37.7,91.4,37.7z"/>
	</g>
	<g class="st1">
		<path class="st2" d="M62.2,45.3H48.5c-0.6,0-1.2-0.5-1.2-1.2c0-0.6,0.5-1.2,1.2-1.2h13.7c0.6,0,1.2,0.5,1.2,1.2
			C63.3,44.8,62.8,45.3,62.2,45.3z"/>
	</g>
	<g class="st1">
		<path class="st2" d="M41.1,45.3H21.5c-0.6,0-1.2-0.5-1.2-1.2c0-0.6,0.5-1.2,1.2-1.2h19.5c0.6,0,1.2,0.5,1.2,1.2
			C42.3,44.8,41.7,45.3,41.1,45.3z"/>
	</g>
	<g class="st1">
		<path class="st2" d="M51.6,53H21.5c-0.6,0-1.2-0.5-1.2-1.2c0-0.6,0.5-1.2,1.2-1.2h30.1c0.6,0,1.2,0.5,1.2,1.2
			C52.8,52.5,52.3,53,51.6,53z"/>
	</g>
	<g class="st1">
		<path class="st3" d="M103.1,58.2H87.6H76.1H34.4H21.5c-0.6,0-1.2,0.5-1.2,1.2V99c0,0.6,0.5,1.2,1.2,1.2h12.9h41.7h11.5h15.4
			c0.6,0,1.2-0.5,1.2-1.2V59.3C104.3,58.7,103.7,58.2,103.1,58.2z M86.5,78h-9.2v-7.6h9.2V78z M88.8,70.4h13.1V78H88.8V70.4z
			 M74.9,78H35.6v-7.6h39.4V78z M33.2,78H22.7v-7.6h10.5V78z M22.7,80.3h10.5v7.6H22.7V80.3z M35.6,80.3h39.4v7.6H35.6V80.3z
			 M77.3,80.3h9.2v7.6h-9.2V80.3z M88.8,80.3h13.1v7.6H88.8V80.3z M101.9,60.5v7.6H88.8v-7.6H101.9z M86.5,60.5v7.6h-9.2v-7.6H86.5z
			 M74.9,60.5v7.6H35.6v-7.6H74.9z M33.2,60.5v7.6H22.7v-7.6H33.2z M22.7,90.2h10.5v7.6H22.7V90.2z M35.6,90.2h39.4v7.6H35.6V90.2z
			 M77.3,90.2h9.2v7.6h-9.2V90.2z M88.8,97.8v-7.6h13.1v7.6H88.8z"/>
	</g>
	<g class="st1">
		<path class="st3" d="M48.5,115.4h-27c-0.6,0-1.2-0.5-1.2-1.2v-7.7c0-0.6,0.5-1.2,1.2-1.2h27c0.6,0,1.2,0.5,1.2,1.2v7.7
			C49.7,114.9,49.2,115.4,48.5,115.4z M22.7,113.1h24.6v-5.3H22.7V113.1z"/>
	</g>
	<g class="st1">
		<polygon class="st5" points="131.1,49.2 133,43.3 135,49.2 		"/>
	</g>
	<g class="st1">
		<path class="st3" d="M130.5,120.9v5.9c0,2.1,1.1,2.9,2.5,2.9c1.4,0,2.5-0.8,2.5-2.9v-5.9H130.5z"/>
	</g>
	<g class="st1">
		<rect x="128" y="76.6" class="st4" width="10" height="44.6"/>
	</g>
	<g class="st1">
		<rect x="131.1" y="76.6" class="st7" width="3.8" height="44.6"/>
	</g>
	<g class="st1">
		<path class="st3" d="M135.6,49.2H134H132h-1.6c-1.2,4.5-2.4,10.7-2.4,17.4l0,0v10h3.1h3.8h3.1v-10C138,59.9,136.8,53.7,135.6,49.2
			z"/>
	</g>
	<g class="st1">
		<path class="st5" d="M51.3,125.5c0,7.2,5.8,13,13,13c7.2,0,13-5.8,13-13c0-7.2-5.8-13-13-13C57.1,112.5,51.3,118.3,51.3,125.5z"/>
	</g>
	<g class="st1">
		<path class="st5" d="M64.3,139.6c-7.8,0-14.2-6.3-14.2-14.2c0-7.8,6.3-14.2,14.2-14.2c7.8,0,14.2,6.4,14.2,14.2
			C78.4,133.3,72.1,139.6,64.3,139.6z M64.3,113.6c-6.5,0-11.8,5.3-11.8,11.8c0,6.5,5.3,11.8,11.8,11.8c6.5,0,11.8-5.3,11.8-11.8
			C76.1,118.9,70.8,113.6,64.3,113.6z"/>
	</g>
	<g class="st1">
		<path class="st6" d="M64.3,124.3c-1.6,0-2.3-0.7-2.3-2c0-1.1,1-2,2.3-2c1.3,0,2.3,0.9,2.3,2c0,0.6,0.5,1.2,1.2,1.2
			c0.6,0,1.2-0.5,1.2-1.2c0-2-1.5-3.7-3.5-4.2v-0.7c0-0.6-0.5-1.2-1.2-1.2c-0.6,0-1.2,0.5-1.2,1.2v0.7c-2,0.5-3.5,2.2-3.5,4.2
			c0,2.6,1.8,4.4,4.7,4.4c1.6,0,2.3,0.7,2.3,2c0,1.1-1,2-2.3,2c-1.3,0-2.3-0.9-2.3-2c0-0.6-0.5-1.2-1.2-1.2c-0.6,0-1.2,0.5-1.2,1.2
			c0,2,1.5,3.7,3.5,4.2v0.7c0,0.6,0.5,1.2,1.2,1.2c0.6,0,1.2-0.5,1.2-1.2v-0.7c2-0.5,3.5-2.2,3.5-4.2
			C68.9,126,67.1,124.3,64.3,124.3z"/>
	</g>
	<g class="st1">
		<path class="st2" d="M115.9,32.1c-0.1-0.6,0.3-1.2,0.9-1.4l0,0c0.6-0.1,1.2,0.3,1.4,1l0,0c0.1,0.6-0.3,1.2-1,1.4l0,0c0,0,0,0,0,0
			l0,0c-0.1,0-0.1,0-0.2,0l0,0C116.5,33.1,116,32.7,115.9,32.1z M108.6,31.6c-0.6-0.3-0.7-1-0.4-1.6l0,0c0.3-0.6,1-0.8,1.6-0.4l0,0
			c0.6,0.3,0.8,1,0.4,1.6l0,0c-0.2,0.4-0.6,0.6-1,0.6l0,0C109,31.7,108.8,31.7,108.6,31.6z M123.2,28.8c-0.5-0.4-0.6-1.2-0.1-1.7
			l0,0c0.4-0.5,1.1-0.6,1.7-0.1l0,0c0.5,0.4,0.6,1.1,0.1,1.7l0,0c-0.2,0.3-0.6,0.4-0.9,0.4l0,0C123.7,29.1,123.4,29,123.2,28.8z
			 M103,24.9c-0.2-0.6,0.1-1.3,0.7-1.5l0,0c0.6-0.2,1.3,0.1,1.5,0.7l0,0c0.2,0.6-0.1,1.3-0.7,1.5l0,0c-0.1,0-0.3,0.1-0.4,0.1l0,0
			C103.6,25.6,103.2,25.4,103,24.9z M125.5,20.5C125.5,20.5,125.5,20.5,125.5,20.5L125.5,20.5c0-0.7,0.5-1.3,1.2-1.3l0,0
			c0.6,0,1.2,0.5,1.2,1.2l0,0c0,0,0,0,0,0l0,0c0,0,0,0,0,0l0,0c0,0.6-0.5,1.2-1.2,1.2l0,0C126,21.7,125.5,21.1,125.5,20.5z
			 M103.7,17.6c-0.6-0.2-0.9-0.9-0.7-1.5l0,0l0,0l0,0c0.2-0.6,0.9-0.9,1.5-0.7l0,0c0.6,0.2,0.9,0.9,0.7,1.5l0,0
			c-0.2,0.5-0.6,0.8-1.1,0.8l0,0C103.9,17.7,103.8,17.7,103.7,17.6z M123,13.7L123,13.7c-0.4-0.5-0.4-1.2,0.1-1.6l0,0
			c0.5-0.4,1.2-0.4,1.7,0.1l0,0c0.4,0.5,0.4,1.2-0.1,1.7l0,0c-0.2,0.2-0.5,0.3-0.8,0.3l0,0C123.6,14.2,123.2,14,123,13.7z M108.2,11
			c-0.3-0.6-0.1-1.3,0.4-1.6l0,0c0.6-0.3,1.3-0.1,1.6,0.4l0,0c0.3,0.6,0.1,1.3-0.4,1.6l0,0c-0.2,0.1-0.4,0.2-0.6,0.2l0,0
			C108.8,11.6,108.4,11.4,108.2,11z M116.8,10.2c-0.6-0.1-1.1-0.7-0.9-1.4l0,0c0.1-0.6,0.7-1.1,1.3-0.9l0,0c0.6,0.1,1.1,0.7,1,1.3
			l0,0c-0.1,0.6-0.6,1-1.2,1l0,0C116.9,10.2,116.9,10.2,116.8,10.2z"/>
	</g>
</g>
</svg>
