<?xml version="1.0" encoding="utf-8"?>
<!-- Generator: Adobe Illustrator 26.5.1, SVG Export Plug-In . SVG Version: 6.00 Build 0)  -->
<svg version="1.1" id="圖層_1" xmlns="http://www.w3.org/2000/svg" xmlns:xlink="http://www.w3.org/1999/xlink" x="0px" y="0px"
	 viewBox="0 0 1068 650" style="enable-background:new 0 0 1068 650;" xml:space="preserve">
<style type="text/css">
	.st0{fill:#FFFFFF;}
	.st1{fill:#C72D29;}
	.st2{fill:none;stroke:#C72D29;stroke-width:6;stroke-linecap:round;stroke-linejoin:round;stroke-miterlimit:10;}
</style>
<path class="st0" d="M1048.4,649.2H21.4c-11,0-20-9-20-20v-608c0-11,9-20,20-20h1026c11,0,20,9,20,20l1,608
	C1068.4,640.2,1059.5,649.2,1048.4,649.2z"/>
<path class="st1" d="M809.4,0.2h-789C14.9,0.2,9.9,2.4,6.3,6c-5.7,5.7-5.9,12.8-5.9,14.1c0,191.8,0,370.1,0,370.1l261.8,259.9
	c268.1,0,518.2,0,786.2,0c11,0,20-9,20-20v-372L809.4,0.2z"/>
<path class="st2" d="M205.1,647.2H21.7c-10.1,0-18.2-8.2-18.2-18.2V445.6"/>
<path class="st2" d="M863,3.6h183.4c10.1,0,18.2,8.2,18.2,18.2v183.4"/>
<path class="st1" d="M1014.3,279.6L788.9,54.2c-12.3-12.3-12.3-32.3,0-44.6l0.2-0.2c12.3-12.3,32.3-12.3,44.6,0l225.4,225.4
	c12.3,12.3,12.3,32.3,0,44.6l-0.2,0.2C1046.6,291.9,1026.6,291.9,1014.3,279.6z"/>
<path class="st1" d="M237.3,640.9L9.7,413.4c-12.4-12.4-12.4-32.6,0-45l0.2-0.2c12.4-12.4,32.6-12.4,45,0l227.6,227.6
	c12.4,12.4,12.4,32.6,0,45l-0.2,0.2C269.9,653.4,249.7,653.4,237.3,640.9z"/>
<path class="st0" d="M1028.4,630.2h-988c-11,0-20-9-20-20v-570c0-11,9-20,20-20h988c11,0,20,9,20,20v570
	C1048.4,621.2,1039.5,630.2,1028.4,630.2z"/>
</svg>
